<?xml version="1.0" encoding="UTF-8" standalone="no"?>
<svg
   xmlns:dc="http://purl.org/dc/elements/1.1/"
   xmlns:cc="http://creativecommons.org/ns#"
   xmlns:rdf="http://www.w3.org/1999/02/22-rdf-syntax-ns#"
   xmlns:svg="http://www.w3.org/2000/svg"
   xmlns="http://www.w3.org/2000/svg"
   xmlns:sodipodi="http://sodipodi.sourceforge.net/DTD/sodipodi-0.dtd"
   xmlns:inkscape="http://www.inkscape.org/namespaces/inkscape"
   version="1.1"
   id="Your_Icon"
   x="0px"
   y="0px"
   width="100px"
   height="100px"
   viewBox="0 0 100 100"
   enable-background="new 0 0 100 100"
   xml:space="preserve"
   inkscape:version="0.48.4 r9939"
   sodipodi:docname="alien.svg"
   inkscape:export-filename="/home/maartend/Desktop/mission-control/alien.png"
   inkscape:export-xdpi="180"
   inkscape:export-ydpi="180"><metadata
     id="metadata17"><rdf:RDF><cc:Work
         rdf:about=""><dc:format>image/svg+xml</dc:format><dc:type
           rdf:resource="http://purl.org/dc/dcmitype/StillImage" /><dc:title></dc:title></cc:Work></rdf:RDF></metadata><defs
     id="defs15" /><sodipodi:namedview
     pagecolor="#ffffff"
     bordercolor="#666666"
     borderopacity="1"
     objecttolerance="10"
     gridtolerance="10"
     guidetolerance="10"
     inkscape:pageopacity="0"
     inkscape:pageshadow="2"
     inkscape:window-width="789"
     inkscape:window-height="723"
     id="namedview13"
     showgrid="false"
     inkscape:zoom="2.36"
     inkscape:cx="29.550525"
     inkscape:cy="48.32"
     inkscape:window-x="0"
     inkscape:window-y="27"
     inkscape:window-maximized="0"
     inkscape:current-layer="Your_Icon" /><path
     d="M53.88,48.65c0-0.11-0.02-0.22-0.04-0.33c-0.01-0.09-0.03-0.18-0.05-0.26c-0.04-0.19-0.09-0.37-0.17-0.55  c-0.03-0.08-0.06-0.16-0.1-0.24c-0.06-0.16-0.14-0.32-0.24-0.46c-0.04-0.06-0.07-0.12-0.11-0.17c-0.03-0.06-0.07-0.12-0.12-0.17  c-0.05-0.06-0.09-0.12-0.14-0.17c-0.04-0.06-0.09-0.12-0.15-0.17c-0.71-0.74-1.69-1.19-2.77-1.19c-1.07,0-2.05,0.45-2.76,1.19  c-0.07,0.07-0.14,0.14-0.19,0.22c-0.07,0.07-0.13,0.15-0.18,0.23c-0.12,0.15-0.22,0.32-0.31,0.5c-0.05,0.11-0.11,0.22-0.15,0.33  c-0.11,0.26-0.19,0.52-0.24,0.8c-0.06,0.26-0.08,0.52-0.08,0.79c0,0.7,0.17,1.36,0.48,1.93c0.19,0.36,0.44,0.7,0.72,0.98  c0.07,0.07,0.15,0.15,0.23,0.21c0.18,0.16,0.38,0.3,0.58,0.41c0.11,0.07,0.21,0.12,0.32,0.17c0.11,0.06,0.21,0.1,0.33,0.14  c0.11,0.04,0.23,0.08,0.36,0.11c0.12,0.03,0.24,0.05,0.37,0.07c0.07,0.01,0.14,0.02,0.21,0.02c0.1,0.02,0.21,0.02,0.31,0.02  c0.1,0,0.21,0,0.31-0.02c0.07,0,0.14-0.01,0.21-0.02c0.15-0.02,0.29-0.05,0.44-0.09c0.12-0.03,0.24-0.07,0.35-0.11  c0.12-0.04,0.23-0.09,0.34-0.15c0.09-0.04,0.18-0.09,0.26-0.14c0.06-0.03,0.13-0.07,0.19-0.12c0.07-0.04,0.13-0.09,0.19-0.13  c0.16-0.11,0.31-0.25,0.46-0.41c0.04-0.04,0.08-0.09,0.12-0.13c0.19-0.2,0.35-0.43,0.49-0.68c0.04-0.06,0.07-0.13,0.11-0.2  c0.06-0.11,0.11-0.23,0.15-0.35c0.04-0.1,0.08-0.2,0.11-0.3c0.12-0.39,0.18-0.8,0.18-1.22C53.9,48.87,53.9,48.76,53.88,48.65z   M52.73,49.32c-0.01,0.15-0.04,0.3-0.08,0.43c-0.01,0.03-0.02,0.07-0.03,0.1c-0.01,0.03-0.02,0.06-0.03,0.09  c-0.05,0.15-0.11,0.29-0.17,0.42c-0.08,0.14-0.16,0.28-0.26,0.4c-0.07,0.09-0.14,0.18-0.22,0.26c-0.12,0.13-0.26,0.25-0.41,0.35  c-0.07,0.06-0.14,0.11-0.22,0.14c-0.08,0.05-0.16,0.09-0.24,0.13c-0.33,0.15-0.69,0.23-1.08,0.23c-0.38,0-0.74-0.08-1.07-0.23  c-0.01-0.01-0.01,0-0.01,0c-0.16-0.07-0.32-0.16-0.46-0.27c-0.17-0.11-0.32-0.25-0.45-0.4c-0.07-0.06-0.13-0.13-0.18-0.21  c-0.1-0.12-0.18-0.26-0.26-0.4c-0.06-0.13-0.12-0.27-0.17-0.42c-0.01-0.03-0.02-0.06-0.03-0.09c-0.01-0.03-0.02-0.07-0.03-0.1  c-0.04-0.13-0.07-0.28-0.08-0.43c-0.01-0.11-0.02-0.22-0.02-0.33c0-0.1,0-0.2,0.01-0.29c0.02-0.19,0.06-0.38,0.11-0.56  c0.04-0.14,0.09-0.27,0.16-0.4c0.03-0.08,0.07-0.16,0.12-0.23c0.11-0.19,0.25-0.37,0.41-0.54c0.5-0.52,1.18-0.84,1.95-0.84  s1.45,0.32,1.95,0.84c0.16,0.17,0.3,0.35,0.41,0.54c0.05,0.07,0.09,0.15,0.12,0.23c0.07,0.13,0.12,0.26,0.16,0.4  c0.05,0.18,0.09,0.37,0.11,0.56c0.01,0.09,0.01,0.19,0.01,0.29C52.75,49.1,52.74,49.21,52.73,49.32z"
     id="path3" /><path
     d="M49.991,44.933c-2.153,0-3.905,1.816-3.905,4.06c0,2.237,1.752,4.062,3.905,4.062c2.159,0,3.913-1.824,3.913-4.062  C53.904,46.749,52.15,44.933,49.991,44.933z M49.991,51.861c-1.526,0-2.758-1.286-2.758-2.869s1.231-2.871,2.758-2.871  c1.526,0,2.759,1.288,2.759,2.871S51.518,51.861,49.991,51.861z"
     id="path5" /><path
     d="M49.991,44.933c-2.153,0-3.905,1.816-3.905,4.06c0,2.237,1.752,4.062,3.905,4.062  c2.159,0,3.913-1.824,3.913-4.062C53.904,46.749,52.15,44.933,49.991,44.933z M49.991,51.861c-1.526,0-2.758-1.286-2.758-2.869  s1.231-2.871,2.758-2.871c1.526,0,2.759,1.288,2.759,2.871S51.518,51.861,49.991,51.861z"
     id="path7"
     fill="#000000" /><path
     d="M49.991,44.933c-2.153,0-3.905,1.816-3.905,4.06c0,2.237,1.752,4.062,3.905,4.062c2.159,0,3.913-1.824,3.913-4.062  C53.904,46.749,52.15,44.933,49.991,44.933z M49.991,51.861c-1.526,0-2.758-1.286-2.758-2.869s1.231-2.871,2.758-2.871  c1.526,0,2.759,1.288,2.759,2.871S51.518,51.861,49.991,51.861z"
     id="path9" /><path
     d="M63.68,66.73c-0.05-3.43-0.11-8.47-0.18-12.82c0.66-0.42,1.1-1.16,1.1-2.01c0-0.87-0.46-1.63-1.15-2.05  c-0.01-0.67-0.02-1.29-0.03-1.85c0-6.65-1.88-10.36-3.33-12.25c0.06-0.2,0.11-0.42,0.11-0.64c0-1.24-1-2.23-2.24-2.23  c-0.56,0-1.07,0.19-1.46,0.52c-0.75-0.48-1.5-0.83-2.25-1.11c0.03-0.15,0.05-0.31,0.05-0.47c0-1.51-1.39-2.77-3.26-3.11v-1.69  c0,0,0.01,0,0.01-0.01c2.47-1.98,8.41-7.4,8.41-13.8c0-8.06-4.01-11.62-9.47-11.62c-5.47,0-9.46,3.56-9.46,11.62  c0,6.39,5.94,11.82,8.41,13.8c0,0.01,0,0.01,0,0.01v1.69c-1.87,0.34-3.26,1.6-3.26,3.11c0,0.16,0.02,0.32,0.05,0.48  c-0.72,0.28-1.44,0.62-2.16,1.07c-0.38-0.31-0.87-0.49-1.41-0.49c-1.01,0-1.86,0.66-2.14,1.57c-1.74,0.71-4.62,2.5-8.81,7.05  l-0.03,0.03l0.02-0.03c-0.29-0.14-0.62-0.21-0.97-0.21c-0.27,0-0.53,0.05-0.77,0.13c0.02,0.04,0.04,0.08,0.06,0.12  c-0.03-0.04-0.05-0.08-0.07-0.12h0.01c-0.67-1.2-1.67-4.16-2.24-11.39c0.61-0.62,1.01-1.22,1.37-1.74c0.31-0.46,0.58-0.85,0.94-1.21  c0.94-0.92,0.91-1.76,0.73-2.3c-0.24-0.7-0.89-1.19-1.64-1.53c1.37-3.25,2.29-5.52,2.3-5.56c0.29-0.72-0.06-1.54-0.78-1.83  c-0.72-0.29-1.55,0.06-1.83,0.78c-0.02,0.04-0.99,2.46-2.45,5.87c-0.03,0.08-0.07,0.16-0.1,0.25l-0.01-0.01  c0.03-0.09,0.07-0.16,0.1-0.24c-0.04,0-0.09-0.01-0.14-0.01c-0.02-0.01-0.04-0.01-0.06-0.01c-1.48-3.46-2.47-5.92-2.48-5.95  c-0.29-0.72-1.11-1.07-1.83-0.78c-0.72,0.28-1.08,1.1-0.79,1.82c0.02,0.04,1.52,3.79,3.6,8.53c0.59,12.47,2.35,16.5,3.71,17.93  c0.16,1.17,1.17,2.07,2.38,2.07c1.21,0,2.21-0.9,2.37-2.07c0.2-0.17,0.41-0.36,0.62-0.58c4.1-4.45,6.66-5.92,7.84-6.41  c0.32,0.19,0.7,0.29,1.09,0.29c0.34,0,0.66-0.07,0.94-0.21l2.14,8.91c-0.01,0-0.01,0.01-0.01,0.01c-0.5,0.86-0.79,1.87-0.79,2.95  c0,1.58,0.62,3.02,1.62,4.06c-0.12,0.38-0.18,0.78-0.18,1.19c0,0.77,0.21,1.49,0.59,2.11c-0.93,0.72-4.08,3.71-4.65,11.23v0.01  c-0.74,0.36-1.26,1.13-1.26,2.01c0,0.83,0.46,1.57,1.14,1.95c-0.16,8.86-0.34,19.34-0.39,22.13c-0.21,0.29-0.33,0.64-0.33,1.02  c0,0.2,0.03,0.39,0.1,0.57c-2.38,0.34-4.2,1.55-4.44,3.04h11.52c-0.22-1.37-1.77-2.5-3.87-2.93c0.1-0.21,0.15-0.44,0.15-0.68  c0-0.38-0.11-0.71-0.32-1c0.06-2.87,0.24-13.7,0.4-22.68c0.32-0.38,0.51-0.88,0.51-1.42c0-0.5-0.16-0.95-0.43-1.32v-0.01  c0.44-7.4,3.54-9.67,3.63-9.74c0.17-0.11,0.31-0.24,0.42-0.4c0.41,0.15,0.87,0.22,1.34,0.22c0.49,0,0.96-0.08,1.39-0.24  c0.11,0.17,0.25,0.32,0.43,0.44c0.04,0.02,3.16,2.21,3.62,9.66v0.01c-0.3,0.38-0.48,0.86-0.48,1.38c0,0.56,0.2,1.08,0.56,1.48  c0.16,8.95,0.34,19.79,0.39,22.64v0.01c-0.2,0.27-0.3,0.61-0.3,0.97c0,0.25,0.05,0.48,0.15,0.7c-2.06,0.44-3.57,1.57-3.79,2.91  h11.53c-0.25-1.51-2.1-2.74-4.52-3.05c0.06-0.17,0.09-0.37,0.09-0.56c0-0.39-0.12-0.74-0.34-1.03v-0.01  c-0.05-2.82-0.23-13.31-0.39-22.14c0.65-0.39,1.09-1.11,1.09-1.92c0-0.87-0.49-1.62-1.21-1.99C57.64,59.97,54.4,57,53.53,56.33  c0.37-0.61,0.57-1.32,0.57-2.08c0-0.41-0.06-0.8-0.18-1.18v-0.01c1-1.04,1.62-2.48,1.62-4.06c0-1.08-0.29-2.09-0.79-2.96l2.15-8.96  c0.26,0.14,0.55,0.23,0.85,0.25c1.09,1.34,2.86,4.49,2.86,10.69c0.01,0.61,0.02,1.3,0.03,2.05c-0.51,0.44-0.84,1.1-0.84,1.83  c0,0.76,0.35,1.44,0.9,1.87c0.05,4.35,0.11,9.43,0.17,12.89c-0.05,0.2-0.05,0.42,0.02,0.62c0,0-0.01,0.01,0,0.02  c0.02,1.78,0.03,3.47,0.07,4.99c-0.32,0.95-0.82,2.01-1.62,3.18c-0.43,0.65-0.27,1.52,0.39,1.96c0.24,0.16,0.52,0.24,0.77,0.24  c0.19,0,0.36-0.04,0.53-0.1c0.01,0.94,0.02,2.49,0.02,2.53c0,0.76,0.64,1.38,1.41,1.38h0.02c0.77-0.01,1.39-0.64,1.38-1.42  c0-0.06-0.03-3.64-0.08-7.38C64.6,69.74,64.03,67.63,63.68,66.73z M26.99,26.81c0.09-0.1,0.17-0.22,0.22-0.35  c0.19-0.43,0.38-0.86,0.56-1.28c0.17,0.08,0.31,0.16,0.41,0.24c-0.03,0.04-0.08,0.09-0.14,0.16c-0.43,0.42-0.75,0.86-1.05,1.29  V26.81z M54.8,10.68c2.14,0,3.87,2.01,3.87,2.01s-1.73,2.01-3.87,2.01s-3.88-2.01-3.88-2.01S52.66,10.68,54.8,10.68z M45.19,14.7  c-2.15,0-3.88-2.01-3.88-2.01s1.73-2.01,3.88-2.01c2.14,0,3.89,2.01,3.89,2.01S47.33,14.7,45.19,14.7z M48.1,29.6  c-0.18,0.28-0.32,0.6-0.37,0.96c-0.01,0.07-0.02,0.15-0.03,0.24c-0.24,0.3-0.38,0.65-0.38,1.02c0,0.01,0,0.01,0,0.01  c0.01,1.09,1.21,1.97,2.67,1.97c1.47,0,2.65-0.87,2.67-1.97v-0.01c0-0.43-0.19-0.82-0.5-1.15c-0.01-0.04-0.01-0.08-0.01-0.11  c-0.05-0.39-0.21-0.73-0.42-1.03c1.07,0.45,1.79,1.31,1.79,2.29c0,0.08,0,0.15-0.01,0.23c-0.16,1.34-1.68,2.39-3.52,2.39  c-1.84,0-3.36-1.04-3.51-2.39c-0.02-0.08-0.02-0.15-0.02-0.23C46.46,30.88,47.12,30.07,48.1,29.6z M53.47,52.06  c-0.07,0.09-0.14,0.17-0.22,0.24c-0.83,0.89-1.98,1.44-3.26,1.44c-1.29,0-2.45-0.57-3.27-1.45c-0.07-0.07-0.14-0.15-0.2-0.23  c-0.68-0.82-1.09-1.89-1.09-3.06c0-0.47,0.06-0.91,0.18-1.33c0.56-1.97,2.3-3.42,4.38-3.42c2.07,0,3.82,1.44,4.38,3.4  c0.12,0.42,0.19,0.88,0.19,1.35C54.56,50.17,54.14,51.24,53.47,52.06z"
     id="path11" /></svg>