<?xml version="1.0" encoding="UTF-8" standalone="no"?>
<svg
   xmlns:dc="http://purl.org/dc/elements/1.1/"
   xmlns:cc="http://creativecommons.org/ns#"
   xmlns:rdf="http://www.w3.org/1999/02/22-rdf-syntax-ns#"
   xmlns:svg="http://www.w3.org/2000/svg"
   xmlns="http://www.w3.org/2000/svg"
   xmlns:sodipodi="http://sodipodi.sourceforge.net/DTD/sodipodi-0.dtd"
   xmlns:inkscape="http://www.inkscape.org/namespaces/inkscape"
   version="1.1"
   id="Layer_1"
   x="0px"
   y="0px"
   width="100"
   height="100"
   viewBox="0 0 100 100"
   enable-background="new 0 0 100 100"
   xml:space="preserve"
   inkscape:version="0.48.4 r9939"
   sodipodi:docname="books.svg"
   inkscape:export-filename="/home/maartend/Desktop/mission-control/books.png"
   inkscape:export-xdpi="180"
   inkscape:export-ydpi="180"><metadata
     id="metadata9"><rdf:RDF><cc:Work
         rdf:about=""><dc:format>image/svg+xml</dc:format><dc:type
           rdf:resource="http://purl.org/dc/dcmitype/StillImage" /><dc:title></dc:title></cc:Work></rdf:RDF></metadata><defs
     id="defs7" /><sodipodi:namedview
     pagecolor="#ffffff"
     bordercolor="#666666"
     borderopacity="1"
     objecttolerance="10"
     gridtolerance="10"
     guidetolerance="10"
     inkscape:pageopacity="0"
     inkscape:pageshadow="2"
     inkscape:window-width="1600"
     inkscape:window-height="834"
     id="namedview5"
     showgrid="false"
     fit-margin-top="0"
     fit-margin-left="0"
     fit-margin-right="0"
     fit-margin-bottom="0"
     inkscape:zoom="2.36"
     inkscape:cx="-16.171419"
     inkscape:cy="43.364"
     inkscape:window-x="0"
     inkscape:window-y="27"
     inkscape:window-maximized="1"
     inkscape:current-layer="Layer_1" /><path
     d="m 86.43857,78.79 0.651,0.021 0.149,-1.5 -9.002,-0.302 -1.051,-1.05 -0.425,-0.04 0.604,-5.324 -0.659,-0.074 -0.606,5.336 -8.516,-0.798 -0.302,-7.803 10.205,3.302 0.6,-0.75 -3.15,-1.051 5.852,-0.601 0.3,-0.601 -0.476,-0.051 0.051,-0.01 -0.781,-4.165 0.155,0.025 0.9,-1.651 -6.752,-1.05 -2.252,-2.4 v -2.401 l 3.753,4.651 1.199,0.45 -2.4,-4.052 2.851,-0.449 0.151,-0.601 -1.355,-0.175 -0.354,-4.487 0.059,0.012 11.403,-4.052 0.15,-1.051 -0.441,-0.074 -0.882,-3.2 1.771,-1.225 -10.352,-1.95 -0.151,-0.751 1.197,-1.088 0.837,-0.14 -0.87,-5.077 0.787,-1.048 -3.451,-1.8 1.048,-0.996 2.055,-0.921 -0.238,-0.804 0.137,-0.131 -0.189,-0.045 -0.645,-2.176 0.984,-1.229 -3.767,-0.991 -0.221,-2.428 0.386,-0.481 -24.008,-13.506 -26.709,19.206 c -0.9,6.452 0.601,6.002 0.601,6.002 l 2.701,0.901 -6.453,3.75 c -1.501,1.951 -0.3,5.402 -0.3,5.402 -1.95,2.25 -0.149,5.25 -0.149,5.25 l 4.201,1.201 -4.052,3.902 c -1.05,3.45 1.5,3.45 1.5,3.45 h 1.2 l 0.15,1.5 -4.951,0.601 c -2.251,2.551 0.15,4.201 0.15,4.201 l 6.902,1.951 -3.601,1.2 c -1.501,1.2 -0.751,4.052 -0.751,4.052 l -4.201,0.6 c -2.25,2.251 -0.45,7.652 -0.45,7.652 l 7.351,0.3 -10.352,0.45 c -3.902,3.002 -0.901,10.953 -0.901,10.953 l 44.264,5.402 30.31,-4.501 -0.939,-0.939 c -0.241,-1.05 -1.081,-5.205 -0.46,-9.733 z m -8.038,-41.632 -13.368,-5.463 -6.452,-3.901 -1.199,0.45 -3.902,-2.25 c -1.05,-1.65 -0.3,-5.702 -0.3,-5.702 l 24.624,12.165 0.798,4.667 -0.201,0.034 z m -3.616,2.191 -12.154,-2.701 -4.2,-2.402 c -1.5,-2.1 0,-4.651 0,-4.651 l 16.354,9.754 z m -22.956,-31.812 22.504,12.503 0.203,2.231 -12.655,-3.331 -10.202,-5.251 c -0.602,-2.701 0.15,-6.152 0.15,-6.152 z m -8.253,7.803 33.542,8.685 0.785,2.648 -15.571,-3.681 -9.752,-4.651 -2.701,1.35 -6.152,-1.35 c -1.202,-2.701 -0.151,-3.001 -0.151,-3.001 z m -2.401,18.905 44.207,8.605 0.842,3.051 -44.899,-7.604 c -0.75,-1.649 -0.15,-4.052 -0.15,-4.052 z m 8.854,12.156 25.071,4.664 0.359,4.526 -2.624,-0.338 -1.801,-2.401 -7.352,0.601 -14.255,-2.852 c -1.65,-3 0.602,-4.2 0.602,-4.2 z m 0.448,12.153 28.708,4.663 0.791,4.22 -29.35,-3.181 c -1.799,-2.252 -0.149,-5.702 -0.149,-5.702 z m 7.204,19.356 28.091,0.86 c -0.544,4.052 0.05,7.806 0.37,9.388 l -28.011,3.557 c -3.451,-6.303 -0.45,-13.805 -0.45,-13.805 z"
     id="path3"
     inkscape:connector-curvature="0" /></svg>