<?xml version="1.0" encoding="UTF-8" standalone="no"?>
<svg
   xmlns:dc="http://purl.org/dc/elements/1.1/"
   xmlns:cc="http://creativecommons.org/ns#"
   xmlns:rdf="http://www.w3.org/1999/02/22-rdf-syntax-ns#"
   xmlns:svg="http://www.w3.org/2000/svg"
   xmlns="http://www.w3.org/2000/svg"
   xmlns:sodipodi="http://sodipodi.sourceforge.net/DTD/sodipodi-0.dtd"
   xmlns:inkscape="http://www.inkscape.org/namespaces/inkscape"
   version="1.1"
   x="0px"
   y="0px"
   width="98"
   height="51.855"
   viewBox="0 0 98 51.855"
   enable-background="new 0 0 100 100"
   xml:space="preserve"
   id="svg2"
   inkscape:version="0.48.4 r9939"
   sodipodi:docname="gauge.svg"
   inkscape:export-filename="/home/maartend/Desktop/mission-control/gauge.png"
   inkscape:export-xdpi="27.549999"
   inkscape:export-ydpi="27.549999"><metadata
     id="metadata24"><rdf:RDF><cc:Work
         rdf:about=""><dc:format>image/svg+xml</dc:format><dc:type
           rdf:resource="http://purl.org/dc/dcmitype/StillImage" /><dc:title></dc:title></cc:Work></rdf:RDF></metadata><defs
     id="defs22" /><sodipodi:namedview
     pagecolor="#ffffff"
     bordercolor="#666666"
     borderopacity="1"
     objecttolerance="10"
     gridtolerance="10"
     guidetolerance="10"
     inkscape:pageopacity="0"
     inkscape:pageshadow="2"
     inkscape:window-width="640"
     inkscape:window-height="480"
     id="namedview20"
     showgrid="false"
     fit-margin-top="0"
     fit-margin-left="0"
     fit-margin-right="0"
     fit-margin-bottom="0"
     inkscape:zoom="2.36"
     inkscape:cx="49"
     inkscape:cy="26.447"
     inkscape:window-x="109"
     inkscape:window-y="163"
     inkscape:window-maximized="0"
     inkscape:current-layer="svg2" /><g
     id="Captions"
     transform="translate(-1,-24.592)" /><g
     id="Your_Icon"
     transform="translate(-1,-24.592)"><path
       d="m 50,24.592 c -27.019,0 -49,21.981 -49,49 v 2.855 h 98 v -2.855 c 0,-27.019 -21.982,-49 -49,-49 z M 60.096,70.736 C 59.76,68.302 58.57,66.147 56.831,64.576 L 67.158,37.443 50.759,61.976 C 50.508,61.956 50.256,61.937 50,61.937 c -5.158,0 -9.411,3.83 -10.095,8.8 H 6.804 C 8.281,48.194 27.091,30.303 50,30.303 c 22.909,0 41.72,17.891 43.194,40.433 H 60.096 z"
       id="path6"
       inkscape:connector-curvature="0"
       style="fill:#000000" /><path
       d="m 22.455,58.783 -4.71,-2.052 c -1.073,-0.467 -2.324,0.023 -2.793,1.098 -0.468,1.075 0.023,2.325 1.098,2.793 l 4.71,2.052 c 0.276,0.121 0.563,0.178 0.846,0.178 0.819,0 1.599,-0.478 1.946,-1.275 0.469,-1.075 -0.023,-2.325 -1.097,-2.794 z"
       id="path8"
       inkscape:connector-curvature="0"
       style="fill:#000000" /><path
       d="m 28.503,43.866 c -0.747,-0.903 -2.083,-1.03 -2.988,-0.285 -0.904,0.747 -1.031,2.084 -0.285,2.988 l 3.271,3.96 c 0.419,0.507 1.026,0.771 1.637,0.771 0.476,0 0.955,-0.16 1.351,-0.486 0.904,-0.747 1.031,-2.085 0.285,-2.988 l -3.271,-3.96 z"
       id="path10"
       inkscape:connector-curvature="0"
       style="fill:#000000" /><path
       d="m 43.918,37.261 c -0.257,-1.143 -1.389,-1.862 -2.536,-1.605 -1.144,0.257 -1.862,1.393 -1.605,2.536 l 1.125,5.012 c 0.222,0.988 1.097,1.658 2.069,1.658 0.153,0 0.31,-0.017 0.467,-0.052 1.144,-0.257 1.863,-1.393 1.606,-2.536 l -1.126,-5.013 z"
       id="path12"
       inkscape:connector-curvature="0"
       style="fill:#000000" /><path
       d="m 59.12,35.767 c -1.13,-0.286 -2.291,0.397 -2.58,1.534 l -1.265,4.979 c -0.289,1.136 0.396,2.291 1.532,2.58 0.176,0.044 0.352,0.066 0.525,0.066 0.947,0 1.811,-0.639 2.055,-1.599 l 1.266,-4.979 C 60.942,37.21 60.257,36.056 59.12,35.767 z"
       id="path14"
       inkscape:connector-curvature="0"
       style="fill:#000000" /><path
       d="m 71.891,44.093 -3.381,3.87 c -0.771,0.883 -0.681,2.223 0.202,2.995 0.403,0.351 0.9,0.524 1.396,0.524 0.59,0 1.179,-0.247 1.598,-0.728 l 3.382,-3.869 c 0.771,-0.883 0.681,-2.224 -0.202,-2.995 -0.884,-0.771 -2.224,-0.679 -2.995,0.203 z"
       id="path16"
       inkscape:connector-curvature="0"
       style="fill:#000000" /><path
       d="m 76.568,61.778 c 0.333,0.827 1.129,1.329 1.97,1.329 0.263,0 0.531,-0.05 0.791,-0.153 l 4.765,-1.921 c 1.088,-0.438 1.613,-1.675 1.176,-2.763 -0.438,-1.087 -1.679,-1.612 -2.762,-1.174 l -4.765,1.921 c -1.087,0.438 -1.613,1.674 -1.175,2.761 z"
       id="path18"
       inkscape:connector-curvature="0"
       style="fill:#000000" /></g></svg>