<?xml version="1.0" encoding="UTF-8" standalone="no"?>
<svg
   xmlns:dc="http://purl.org/dc/elements/1.1/"
   xmlns:cc="http://creativecommons.org/ns#"
   xmlns:rdf="http://www.w3.org/1999/02/22-rdf-syntax-ns#"
   xmlns:svg="http://www.w3.org/2000/svg"
   xmlns="http://www.w3.org/2000/svg"
   xmlns:sodipodi="http://sodipodi.sourceforge.net/DTD/sodipodi-0.dtd"
   xmlns:inkscape="http://www.inkscape.org/namespaces/inkscape"
   version="1.1"
   id="Layer_1"
   x="0px"
   y="0px"
   width="72"
   height="72"
   viewBox="0 0 73.44 73.44"
   enable-background="new 0 0 102 102"
   xml:space="preserve"
   inkscape:version="0.48.4 r9939"
   sodipodi:docname="orbit.svg"
   inkscape:export-filename="/run/user/1000/gvfs/sftp:host=webfaction/home/sbb/webapps/beta/sites/all/themes/sbbtheme/resources/img/mission-control/orbit.png"
   inkscape:export-xdpi="250"
   inkscape:export-ydpi="250"><metadata
     id="metadata15"><rdf:RDF><cc:Work
         rdf:about=""><dc:format>image/svg+xml</dc:format><dc:type
           rdf:resource="http://purl.org/dc/dcmitype/StillImage" /><dc:title></dc:title></cc:Work></rdf:RDF></metadata><defs
     id="defs13" /><sodipodi:namedview
     pagecolor="#ffffff"
     bordercolor="#666666"
     borderopacity="1"
     objecttolerance="10"
     gridtolerance="10"
     guidetolerance="10"
     inkscape:pageopacity="0"
     inkscape:pageshadow="2"
     inkscape:window-width="1600"
     inkscape:window-height="834"
     id="namedview11"
     showgrid="false"
     fit-margin-top="0"
     fit-margin-left="0"
     fit-margin-right="0"
     fit-margin-bottom="0"
     inkscape:zoom="2.36"
     inkscape:cx="-71.991117"
     inkscape:cy="35.803866"
     inkscape:window-x="0"
     inkscape:window-y="27"
     inkscape:window-maximized="1"
     inkscape:current-layer="Layer_1" /><g
     id="g3"
     transform="matrix(0.63143616,0.63143616,-0.63143616,0.63143616,36.720056,-27.686489)"><path
       d="m 36.583,62.57 c 3.483,4.332 8.782,6.93 14.417,6.93 5.621,0 10.911,-2.587 14.394,-6.903 C 60.721,62.864 55.894,63 51,63 46.425,63 41.406,62.849 36.583,62.57 z"
       id="path5"
       inkscape:connector-curvature="0" /><path
       d="m 32.5,51 c 0,1.807 0.274,3.612 0.817,5.378 C 38.875,56.791 44.819,57 51,57 57.067,57 63.012,56.787 68.687,56.368 69.227,54.605 69.5,52.804 69.5,51 69.5,48.884 69.123,46.769 68.38,44.713 68.013,43.7 67.574,42.742 67.074,41.866 63.782,36.089 57.624,32.5 51,32.5 c -6.611,0 -12.764,3.579 -16.059,9.34 -0.509,0.891 -0.955,1.86 -1.324,2.881 C 32.876,46.773 32.5,48.886 32.5,51 z"
       id="path7"
       inkscape:connector-curvature="0" /><path
       d="m 101,51 c 0,-5.727 -15.548,-8.547 -30.872,-9.747 -0.584,-0.046 -1.168,-0.09 -1.751,-0.131 0.558,0.978 1.025,2.008 1.413,3.08 0.546,0.043 1.083,0.088 1.613,0.135 C 88.744,45.859 98,49.1 98,51 c 0,0.536 -1.767,2.326 -9.128,4.078 l 0.876,-4.268 -8.33,5.68 c -3.071,0.464 -6.444,0.849 -10.011,1.158 -0.538,0.047 -1.067,0.097 -1.614,0.14 C 63.903,58.251 57.517,58.5 51,58.5 43.987,58.5 37.719,58.234 32.21,57.798 31.664,57.755 31.127,57.709 30.596,57.663 13.257,56.141 4,52.9 4,51 4,50.464 5.767,48.674 13.127,46.923 l -0.876,4.267 8.329,-5.679 c 3.072,-0.464 6.445,-0.85 10.012,-1.159 0.538,-0.047 1.068,-0.097 1.615,-0.14 0.392,-1.085 0.867,-2.128 1.432,-3.116 -0.594,0.042 -1.17,0.092 -1.756,0.139 -3.983,0.315 -7.757,0.722 -11.182,1.224 L 10.053,40.3 12.57,43.971 C 4.8,45.794 1,48.101 1,51 c 0,5.721 15.512,8.54 30.82,9.742 0.602,0.047 1.203,0.093 1.803,0.135 6.3,0.445 12.461,0.623 17.377,0.623 0,0 0,0 0,0 5.979,0 11.859,-0.206 17.36,-0.596 0.612,-0.043 1.206,-0.095 1.809,-0.143 C 74.134,60.447 77.89,60.04 81.3,59.542 L 91.947,61.7 89.43,58.029 C 97.2,56.205 101,53.898 101,51 z"
       id="path9"
       inkscape:connector-curvature="0" /></g></svg>