<?xml version="1.0" encoding="UTF-8" standalone="no"?>
<!-- Generator: Adobe Illustrator 16.0.0, SVG Export Plug-In . SVG Version: 6.00 Build 0)  -->

<svg
   xmlns:dc="http://purl.org/dc/elements/1.1/"
   xmlns:cc="http://creativecommons.org/ns#"
   xmlns:rdf="http://www.w3.org/1999/02/22-rdf-syntax-ns#"
   xmlns:svg="http://www.w3.org/2000/svg"
   xmlns="http://www.w3.org/2000/svg"
   xmlns:sodipodi="http://sodipodi.sourceforge.net/DTD/sodipodi-0.dtd"
   xmlns:inkscape="http://www.inkscape.org/namespaces/inkscape"
   version="1.1"
   id="Layer_1"
   x="0px"
   y="0px"
   width="69.052px"
   height="100px"
   viewBox="15.058 -0.11 69.052 100"
   enable-background="new 15.058 -0.11 69.052 100"
   xml:space="preserve"
   inkscape:version="0.48.4 r9939"
   sodipodi:docname="power.svg"
   inkscape:export-filename="/home/maartend/Desktop/mission-control/power.png"
   inkscape:export-xdpi="27"
   inkscape:export-ydpi="27"><metadata
     id="metadata9"><rdf:RDF><cc:Work
         rdf:about=""><dc:format>image/svg+xml</dc:format><dc:type
           rdf:resource="http://purl.org/dc/dcmitype/StillImage" /><dc:title></dc:title></cc:Work></rdf:RDF></metadata><defs
     id="defs7" /><sodipodi:namedview
     pagecolor="#ffffff"
     bordercolor="#666666"
     borderopacity="1"
     objecttolerance="10"
     gridtolerance="10"
     guidetolerance="10"
     inkscape:pageopacity="0"
     inkscape:pageshadow="2"
     inkscape:window-width="640"
     inkscape:window-height="480"
     id="namedview5"
     showgrid="false"
     inkscape:zoom="2.36"
     inkscape:cx="34.526001"
     inkscape:cy="50"
     inkscape:window-x="0"
     inkscape:window-y="27"
     inkscape:window-maximized="0"
     inkscape:current-layer="Layer_1" /><path
     d="M83.099,31.979c-1.67-3.43-5.144-5.611-8.957-5.629l-9.386-0.042l4.807-12.521c0.504-1.194,0.782-2.507,0.782-3.885  c0-5.53-4.479-10.013-10.011-10.013h-0.005H39.792c-4.204,0-7.96,2.625-9.404,6.572l-14.721,40.23  c-1.121,3.063-0.679,6.48,1.182,9.157c1.862,2.679,4.912,4.281,8.172,4.298l7.341,0.034l-9.232,26.386  c-1.622,4.633,0.354,9.758,4.667,12.104c1.512,0.821,3.155,1.219,4.78,1.219c3.011,0,5.963-1.358,7.917-3.876l41.515-53.511  C84.346,39.489,84.769,35.408,83.099,31.979z M32.582,89.875l13.873-39.638l-21.383-0.104l14.721-40.23h20.537L50.21,36.259  l23.888,0.104L32.582,89.875z"
     id="path3" /></svg>