<?xml version="1.0" encoding="UTF-8" standalone="no"?>
<svg
   xmlns:dc="http://purl.org/dc/elements/1.1/"
   xmlns:cc="http://creativecommons.org/ns#"
   xmlns:rdf="http://www.w3.org/1999/02/22-rdf-syntax-ns#"
   xmlns:svg="http://www.w3.org/2000/svg"
   xmlns="http://www.w3.org/2000/svg"
   xmlns:sodipodi="http://sodipodi.sourceforge.net/DTD/sodipodi-0.dtd"
   xmlns:inkscape="http://www.inkscape.org/namespaces/inkscape"
   version="1.1"
   id="Layer_1"
   x="0px"
   y="0px"
   viewBox="0 0 83.547104 89.915802"
   enable-background="new 0 0 100 100"
   xml:space="preserve"
   height="89.915802"
   width="83.547104"
   inkscape:version="0.48.4 r9939"
   sodipodi:docname="satellite-dish.svg"
   inkscape:export-filename="/home/maartend/Desktop/satellite-dish.png"
   inkscape:export-xdpi="30.028091"
   inkscape:export-ydpi="30.028091"><metadata
     id="metadata9"><rdf:RDF><cc:Work
         rdf:about=""><dc:format>image/svg+xml</dc:format><dc:type
           rdf:resource="http://purl.org/dc/dcmitype/StillImage" /><dc:title></dc:title></cc:Work></rdf:RDF></metadata><defs
     id="defs7" /><sodipodi:namedview
     pagecolor="#ffffff"
     bordercolor="#666666"
     borderopacity="1"
     objecttolerance="10"
     gridtolerance="10"
     guidetolerance="10"
     inkscape:pageopacity="0"
     inkscape:pageshadow="2"
     inkscape:window-width="640"
     inkscape:window-height="480"
     id="namedview5"
     showgrid="false"
     fit-margin-top="0"
     fit-margin-left="0"
     fit-margin-right="0"
     fit-margin-bottom="0"
     inkscape:zoom="2.36"
     inkscape:cx="41.773551"
     inkscape:cy="45"
     inkscape:window-x="0"
     inkscape:window-y="27"
     inkscape:window-maximized="0"
     inkscape:current-layer="Layer_1" /><path
     clip-rule="evenodd"
     d="m 79.953551,62.808805 c -7.129,7.129 -19.621,7.029 -32.039,0.927 l 1.533,19.914 h 30.834 c 1.874,0 3.335,1.403 3.263,3.133 -0.072,1.73 -1.65,3.133 -3.524,3.133 H 3.2655509 c -1.874,0 -3.335,-1.403 -3.263,-3.133 0.072,-1.73 1.65,-3.133 3.524,-3.133 H 15.289551 l 9.161,-40.307 c -9.45,-13.504 -12.296,-29.349 -5.88,-38.3330003 1.031,-1.453 1.282,-1.747 2.423,-2.888 5.883,-5.88 22.318,0.875 37.881,15.1480003 l 7.375,-5.836 c -0.914,-2.9100003 -0.256,-6.2090003 2.05,-8.5150003 3.303,-3.30300003 8.659,-3.30300003 11.962,0 3.303,3.303 3.303,8.6590003 0,11.9620003 -2.298,2.298 -5.579,2.959 -8.482,2.06 l -5.856,7.4 c 14.091,15.477 20.725,31.748 14.88,37.593 m -41.798,4.554 3.366,6.876 -0.76,-9.866 -2.606,2.99 z m -0.223,-8.378 c -2.297,-1.717 -4.542,-3.64 -6.699,-5.763 l 4.213,8.608 m 4.26,22.695 -5.937,-12.129 -10.569,12.129 h 16.506 z m -17.008,-8.065 8.363,-9.597 -4.221,-8.624 -4.142,18.221 z m 2.297,-68.6170003 c -3.898,3.8980003 4.16,18.2770003 17.999,32.1160003 13.839,13.839 28.218,21.898 32.116,18 3.496,-3.496 -2.642,-15.422 -13.924,-27.828 l -6.693,8.458 c -1.459,1.459 -4.846,0.438 -7.565,-2.281 l -0.008,-0.008 c -2.719,-2.719 -3.74,-6.106 -2.281,-7.565 l 8.472,-6.704 c -12.508,-11.4490003 -24.593,-17.7110003 -28.116,-14.1880003 z"
     id="path3"
     inkscape:connector-curvature="0"
     style="fill:#000000;fill-rule:evenodd" /></svg>