<?xml version="1.0" encoding="UTF-8" standalone="no"?>
<!-- Generator: Adobe Illustrator 15.1.0, SVG Export Plug-In . SVG Version: 6.00 Build 0)  -->

<svg
   xmlns:dc="http://purl.org/dc/elements/1.1/"
   xmlns:cc="http://creativecommons.org/ns#"
   xmlns:rdf="http://www.w3.org/1999/02/22-rdf-syntax-ns#"
   xmlns:svg="http://www.w3.org/2000/svg"
   xmlns="http://www.w3.org/2000/svg"
   xmlns:sodipodi="http://sodipodi.sourceforge.net/DTD/sodipodi-0.dtd"
   xmlns:inkscape="http://www.inkscape.org/namespaces/inkscape"
   version="1.1"
   id="Layer_1"
   x="0px"
   y="0px"
   width="100px"
   height="64.356px"
   viewBox="0 0 100 64.356"
   enable-background="new 0 0 100 64.356"
   xml:space="preserve"
   inkscape:version="0.48.5 r10040"
   sodipodi:docname="media.svg"
   inkscape:export-filename="/home/maartend/htdocs/spacebillboard/docroot/sites/all/themes/sbbtheme/resources/img/buy-squares/media.png"
   inkscape:export-xdpi="97.892967"
   inkscape:export-ydpi="97.892967"><metadata
     id="metadata13"><rdf:RDF><cc:Work
         rdf:about=""><dc:format>image/svg+xml</dc:format><dc:type
           rdf:resource="http://purl.org/dc/dcmitype/StillImage" /><dc:title></dc:title></cc:Work></rdf:RDF></metadata><defs
     id="defs11" /><sodipodi:namedview
     pagecolor="#ffffff"
     bordercolor="#666666"
     borderopacity="1"
     objecttolerance="10"
     gridtolerance="10"
     guidetolerance="10"
     inkscape:pageopacity="0"
     inkscape:pageshadow="2"
     inkscape:window-width="1600"
     inkscape:window-height="834"
     id="namedview9"
     showgrid="false"
     inkscape:zoom="3.19"
     inkscape:cx="-5.6426332"
     inkscape:cy="32.178001"
     inkscape:window-x="0"
     inkscape:window-y="27"
     inkscape:window-maximized="1"
     inkscape:current-layer="Layer_1" /><g
     id="g3"
     style="fill:#0086d7;fill-opacity:1"><path
       d="M37.615,0C16.903,0,0.112,11.264,0.112,25.166c0,7.494,4.885,14.218,12.628,18.828C11.092,47.048,7.835,50.945,1.1,56.228   c-1.1,0.862-2.474,2.11,1.974,1.221c7.448-1.49,15.396-5.288,21.455-8.693c4.075,1.019,8.482,1.577,13.087,1.577   c20.711,0,37.502-11.264,37.502-25.166S58.326,0,37.615,0z"
       id="path5"
       style="fill:#0086d7;fill-opacity:1" /><path
       d="M99.19,63.119c-5.781-4.534-6.606-7.095-6.888-8.956c4.033-2.922,6.5-6.831,6.5-11.128c0-7.997-8.532-14.648-19.818-16.094   C78.049,38.38,68.12,47.853,53.951,52.01c4.363,4.463,11.882,7.412,20.431,7.412c3.681,0,7.168-0.55,10.299-1.528   c3.297,2.113,8.938,5.353,13.957,6.355C100.935,64.709,99.758,63.564,99.19,63.119z"
       id="path7"
       style="fill:#0086d7;fill-opacity:1" /></g></svg>