<?xml version="1.0" encoding="UTF-8" standalone="no"?>
<svg
   xmlns:ns="http://ns.adobe.com/SaveForWeb/1.0/"
   xmlns:dc="http://purl.org/dc/elements/1.1/"
   xmlns:cc="http://creativecommons.org/ns#"
   xmlns:rdf="http://www.w3.org/1999/02/22-rdf-syntax-ns#"
   xmlns:svg="http://www.w3.org/2000/svg"
   xmlns="http://www.w3.org/2000/svg"
   xmlns:sodipodi="http://sodipodi.sourceforge.net/DTD/sodipodi-0.dtd"
   xmlns:inkscape="http://www.inkscape.org/namespaces/inkscape"
   version="1.1"
   id="Your_Icon"
   x="0px"
   y="0px"
   width="80.845001"
   height="63.676998"
   viewBox="0 0 80.845001 63.676998"
   enable-background="new 0 0 100 100"
   xml:space="preserve"
   inkscape:version="0.48.5 r10040"
   sodipodi:docname="money.svg"
   inkscape:export-filename="/home/maartend/htdocs/spacebillboard/docroot/sites/all/themes/sbbtheme/resources/img/buy-squares/money.png"
   inkscape:export-xdpi="98.936821"
   inkscape:export-ydpi="98.936821"><defs
     id="defs13" /><sodipodi:namedview
     pagecolor="#ffffff"
     bordercolor="#666666"
     borderopacity="1"
     objecttolerance="10"
     gridtolerance="10"
     guidetolerance="10"
     inkscape:pageopacity="0"
     inkscape:pageshadow="2"
     inkscape:window-width="1600"
     inkscape:window-height="834"
     id="namedview11"
     showgrid="false"
     fit-margin-top="0"
     fit-margin-left="0"
     fit-margin-right="0"
     fit-margin-bottom="0"
     inkscape:zoom="2.36"
     inkscape:cx="-35.902864"
     inkscape:cy="32.371"
     inkscape:window-x="0"
     inkscape:window-y="27"
     inkscape:window-maximized="1"
     inkscape:current-layer="Your_Icon" /><metadata
     id="metadata3"><ns:sfw><ns:slices /><ns:sliceSourceBounds
         bottomLeftOrigin="true"
         width="80.844"
         height="63.675"
         y="368.131"
         x="600.192" /></ns:sfw><rdf:RDF><cc:Work
         rdf:about=""><dc:format>image/svg+xml</dc:format><dc:type
           rdf:resource="http://purl.org/dc/dcmitype/StillImage" /><dc:title></dc:title></cc:Work></rdf:RDF></metadata><path
     style="fill:#0086d7;fill-opacity:1"
     inkscape:connector-curvature="0"
     id="path7"
     d="M 76.571,24.282 80.845,22.564 76.47,19.445 80.434,17.84 55.347,0 39.784,4.787 41.898,6.581 54.846,2.58 75.449,17.262 61.513,22.933 61.429,22.964 60.228,21.997 73.223,16.907 54.662,3.566 42.771,7.333 41.875,6.582 39.74,4.788 38.261,3.545 19.591,9.649 20.785,10.611 0,17.042 l 3.891,3.526 -3.88,1.196 3.947,3.548 -3.947,1.218 3.947,3.547 -3.947,1.218 3.947,3.548 -3.947,1.218 3.947,3.548 -3.947,1.218 25.15,22.85 17.648,-7.205 v 1.748 l 19,-6.678 v -2.346 l 18.938,-7.572 -4.225,-3.047 4.299,-1.719 -4.262,-3.047 4.28,-1.718 -4.271,-3.047 4.276,-1.719 -4.273,-3.045 z M 54.248,6.156 68.358,16.298 58.185,20.282 56.032,18.472 C 55.334,12.776 49.699,10.813 46.113,10.14 L 44.895,9.118 54.248,6.156 z m -31.236,6.254 1.054,0.845 -16.657,5.276 18.778,16.799 16.634,-6.635 -0.012,0.432 v 0.865 L 25.43,37.175 4.412,18.061 23.012,12.41 z m 15.479,12.456 2.614,2.106 -14.429,5.65 -14.64,-13.098 14.226,-4.505 1.019,0.82 c -0.218,2.696 0.541,8.596 11.21,9.027 z M 24.944,39.895 42.809,32.519 v 2.366 L 25.643,41.895 4.518,22.785 5.706,22.397 24.944,39.895 z m 0.219,4.719 17.646,-7.203 V 39.65 L 25.643,46.659 4.518,27.55 5.786,27.137 25.163,44.614 z m 0,4.765 17.646,-7.203 v 2.239 L 25.643,51.425 4.518,32.315 5.786,31.903 25.163,49.379 z m 0,4.766 17.646,-7.203 v 2.239 L 25.643,56.191 4.518,37.081 5.786,36.668 25.163,54.145 z m 0.48,6.81 L 4.518,41.846 5.922,41.433 25.129,58.91 42.809,51.708 v 2.239 L 25.643,60.955 z M 58.809,26.244 v 23.669 l -13,4.935 V 31.577 29.05 28.005 L 43.303,25.986 28.783,14.169 26.671,12.404 25.67,11.566 24.407,10.534 37.742,6.177 l 1.465,1.226 0.915,0.767 2.127,1.786 13.45,11.3 1.919,1.716 1.19,1.384 v 1.888 z m 17.09,0.506 -14.09,5.624 v -2.238 l 12.033,-4.817 2.057,1.431 z m -2.102,-6.263 2.053,1.498 -14.041,5.624 v -2.306 l 11.988,-4.816 z m 2.102,20.559 -14.09,5.624 v -2.238 l 12.033,-4.817 2.057,1.431 z m 0,-4.765 -14.09,5.624 v -2.239 l 12.033,-4.816 2.057,1.431 z m 0,-4.765 -14.09,5.623 v -2.238 l 12.033,-4.816 2.057,1.431 z"
     inkscape:export-xdpi="98.936821"
     inkscape:export-ydpi="98.936821" /></svg>