<?xml version="1.0" encoding="UTF-8" standalone="no"?>
<svg
   xmlns:dc="http://purl.org/dc/elements/1.1/"
   xmlns:cc="http://creativecommons.org/ns#"
   xmlns:rdf="http://www.w3.org/1999/02/22-rdf-syntax-ns#"
   xmlns:svg="http://www.w3.org/2000/svg"
   xmlns="http://www.w3.org/2000/svg"
   xmlns:sodipodi="http://sodipodi.sourceforge.net/DTD/sodipodi-0.dtd"
   xmlns:inkscape="http://www.inkscape.org/namespaces/inkscape"
   version="1.1"
   id="Layer_1"
   x="0px"
   y="0px"
   width="100"
   height="100"
   viewBox="0 0 100 100"
   enable-background="new 0 0 100 100"
   xml:space="preserve"
   inkscape:version="0.48.5 r10040"
   sodipodi:docname="cool.svg"
   inkscape:export-filename="/home/maartend/htdocs/spacebillboard/docroot/sites/all/themes/sbbtheme/resources/img/for-advertisers/cool.png"
   inkscape:export-xdpi="180"
   inkscape:export-ydpi="180"><metadata
     id="metadata13"><rdf:RDF><cc:Work
         rdf:about=""><dc:format>image/svg+xml</dc:format><dc:type
           rdf:resource="http://purl.org/dc/dcmitype/StillImage" /><dc:title /></cc:Work></rdf:RDF></metadata><defs
     id="defs11" /><sodipodi:namedview
     pagecolor="#ffffff"
     bordercolor="#666666"
     borderopacity="1"
     objecttolerance="10"
     gridtolerance="10"
     guidetolerance="10"
     inkscape:pageopacity="0"
     inkscape:pageshadow="2"
     inkscape:window-width="1600"
     inkscape:window-height="834"
     id="namedview9"
     showgrid="false"
     inkscape:zoom="2.36"
     inkscape:cx="-151.64334"
     inkscape:cy="64.175305"
     inkscape:window-x="0"
     inkscape:window-y="27"
     inkscape:window-maximized="1"
     inkscape:current-layer="Layer_1"
     fit-margin-top="0"
     fit-margin-left="0"
     fit-margin-right="0"
     fit-margin-bottom="0" /><g
     id="g3"
     style="fill:#0086d7;fill-opacity:1"
     transform="translate(-0.09334549,-22.37997)"><path
       d="m 75.27,61.623 c -1.433,-0.832 -3.269,-0.344 -4.101,1.088 -3.099,5.335 -10.508,11.565 -21.187,11.565 -10.679,0 -18.088,-6.23 -21.187,-11.565 -0.833,-1.434 -2.668,-1.921 -4.101,-1.088 -1.433,0.832 -1.919,2.668 -1.087,4.102 1.412,2.43 9.318,14.552 26.375,14.552 17.057,0 24.964,-12.122 26.375,-14.552 0.832,-1.434 0.345,-3.27 -1.087,-4.102 z"
       id="path5"
       style="fill:#0086d7;fill-opacity:1"
       inkscape:connector-curvature="0" /><path
       d="m 80.853,25.881 c -6.78,-1.329 -13.954,-2.106 -22.855,0.129 -2.544,0.64 -5.495,1.293 -8.12,1.213 -1.576,-0.048 -3.068,-0.416 -4.48,-0.744 -8.75,-2.039 -16.719,-2.913 -26.19,-1.152 -0.841,0.155 -0.115,5.254 -0.064,6.517 0.405,10.175 3.799,14.794 12.695,14.803 10.072,0.011 15.033,-9.859 15.686,-13.492 0.35,-1.95 1.354,-2.148 2.476,-2.179 1.987,-0.054 2.214,1.399 2.562,2.279 4.09,10.338 6.547,12.689 15.13,13.438 C 80.739,47.83 79.236,38.157 81,32.535 c 0.335,-1.076 0.722,-6.483 -0.147,-6.654 z"
       id="path7"
       style="fill:#0086d7;fill-opacity:1"
       inkscape:connector-curvature="0" /></g></svg>