<?xml version="1.0" encoding="UTF-8" standalone="no"?>
<!-- Created with Inkscape (http://www.inkscape.org/) -->

<svg
   xmlns:dc="http://purl.org/dc/elements/1.1/"
   xmlns:cc="http://creativecommons.org/ns#"
   xmlns:rdf="http://www.w3.org/1999/02/22-rdf-syntax-ns#"
   xmlns:svg="http://www.w3.org/2000/svg"
   xmlns="http://www.w3.org/2000/svg"
   xmlns:sodipodi="http://sodipodi.sourceforge.net/DTD/sodipodi-0.dtd"
   xmlns:inkscape="http://www.inkscape.org/namespaces/inkscape"
   width="296.18073"
   height="299.56363"
   id="svg2"
   version="1.1"
   inkscape:version="0.48.5 r10040"
   sodipodi:docname="earth.svg"
   inkscape:export-filename="/home/maartend/htdocs/spacebillboard/docroot/sites/all/themes/sbbtheme/resources/img/for-advertisers/earth.png"
   inkscape:export-xdpi="90.131104"
   inkscape:export-ydpi="90.131104">
  <defs
     id="defs4" />
  <sodipodi:namedview
     id="base"
     pagecolor="#ffffff"
     bordercolor="#666666"
     borderopacity="1.0"
     inkscape:pageopacity="0.0"
     inkscape:pageshadow="2"
     inkscape:zoom="1.4"
     inkscape:cx="205.85337"
     inkscape:cy="102.53416"
     inkscape:document-units="px"
     inkscape:current-layer="layer1"
     showgrid="false"
     inkscape:window-width="1600"
     inkscape:window-height="834"
     inkscape:window-x="0"
     inkscape:window-y="27"
     inkscape:window-maximized="1" />
  <metadata
     id="metadata7">
    <rdf:RDF>
      <cc:Work
         rdf:about="">
        <dc:format>image/svg+xml</dc:format>
        <dc:type
           rdf:resource="http://purl.org/dc/dcmitype/StillImage" />
        <dc:title></dc:title>
      </cc:Work>
    </rdf:RDF>
  </metadata>
  <g
     inkscape:label="Layer 1"
     inkscape:groupmode="layer"
     id="layer1"
     transform="translate(-174.30901,-228.26968)">
    <path
       style="fill:#808080;fill-opacity:1"
       d="m 310.50002,527.50063 c -14.25628,-1.99296 -19.1462,-2.9121 -26.7921,-5.036 -31.87914,-8.85549 -59.53599,-27.87013 -79.83502,-54.88817 -36.24065,-48.23638 -39.44158,-114.56569 -8.0591,-167 16.20909,-27.08238 42.71782,-49.87174 71.38889,-61.3725 38.99967,-15.64384 80.98574,-14.46838 118.39745,3.31471 41.4057,19.68157 70.56748,55.64378 82.17699,101.34037 2.58467,10.17358 2.72229,11.90989 2.71214,34.21742 -0.01,21.36045 -0.22641,24.36492 -2.38009,33 -6.97849,27.97981 -19.55043,51.08608 -38.5002,70.76041 -22.00518,22.84655 -47.68083,36.97593 -78.58231,43.24405 -9.99396,2.0272 -33.35632,3.42209 -40.52665,2.41971 z m 21.94814,-7.34025 c 0.31139,-0.50385 -1.56714,-2.73958 -4.17452,-4.9683 -4.13946,-3.53829 -6.5882,-5.03186 -13.27362,-8.09599 -0.825,-0.37812 -2.3948,-2.32087 -3.48845,-4.31721 l -1.98845,-3.6297 3.98264,-4.0786 c 2.19045,-2.24322 5.02217,-4.3395 6.29271,-4.65838 1.88845,-0.47397 2.25453,-1.14743 2.00581,-3.68995 l -0.30426,-3.11016 -7.71723,-0.0684 c -4.24448,-0.0376 -7.85944,-0.27063 -8.03325,-0.51781 -0.17381,-0.24719 -2.4002,-3.64886 -4.94753,-7.55926 -4.11939,-6.32367 -5.11131,-7.23064 -8.97084,-8.20248 -2.60281,-0.65539 -6.47135,-2.9125 -9.6669,-5.64018 -4.61299,-3.93755 -5.93273,-4.5475 -9.83944,-4.5475 -4.24573,0 -5.03094,-0.4744 -13.31113,-8.04218 -8.10595,-7.40853 -8.8528,-8.41311 -9.47901,-12.75 -0.74986,-5.1933 -3.44087,-15.20782 -4.0865,-15.20782 -0.22545,0 -0.14049,1.96567 0.18881,4.36815 0.58564,4.27272 -0.28108,6.18328 -2.18473,4.81587 -0.52374,-0.37621 -2.92588,-4.95902 -5.33809,-10.18402 -4.35363,-9.43024 -4.38427,-9.57476 -4.17238,-19.68032 0.17707,-8.44492 -0.14071,-10.98096 -1.86416,-14.87711 -1.47183,-3.32731 -2.07762,-6.78155 -2.07762,-11.8466 0,-6.7831 0.20439,-7.42182 3.98525,-12.45366 5.89589,-7.8467 8.22814,-17.38048 9.69769,-39.64231 l 0.52809,-8 -2.41997,2.25 c -2.86502,2.6638 -4.34941,2.8433 -5.19923,0.62872 -0.38642,-1.00699 0.27642,-2.45405 1.7494,-3.81916 1.30434,-1.20882 2.58799,-2.84175 2.85253,-3.62871 0.39291,-1.16881 0.76312,-1.19807 2.02148,-0.15978 1.29695,1.07015 1.63666,0.91207 2.14896,-1 1.10545,-4.12588 0.70428,-4.46841 -7.96088,-6.79705 -4.72818,-1.27064 -9.21122,-2.92478 -9.96232,-3.67587 -1.57036,-1.57037 -3.42724,-7.65233 -3.43542,-11.25227 -0.005,-2.24973 0.42556,-2.02071 5.17133,2.75 2.8473,2.86227 5.9073,5.20412 6.8,5.20412 2.36598,0 4.02211,-2.03424 4.02992,-4.95 0.008,-2.86399 4.45878,-6.43993 9.49317,-7.62664 1.65,-0.38894 4.66957,-1.5433 6.71016,-2.56526 4.23054,-2.11871 12.0571,-2.47018 13.54125,-0.6081 0.54797,0.6875 1.29807,3.5 1.6669,6.25 0.91354,6.81136 2.49545,10.5 4.50301,10.5 0.92327,0 2.21868,0.54 2.87868,1.2 1.83207,1.83207 1.54743,-1.66559 -0.48392,-5.94635 l -1.68393,-3.54861 2.93393,-2.37368 c 4.1074,-3.32309 7.67175,-2.77339 8.50002,1.31089 0.35047,1.72824 0.93836,3.92699 1.30641,4.88612 0.63047,1.64297 0.77795,1.64544 2.54906,0.0426 1.25405,-1.1349 2.10238,-1.34124 2.54825,-0.61981 0.97116,1.57137 2.53018,0.26683 2.53018,-2.11718 0,-1.54343 0.43113,-1.88005 1.75,-1.36638 3.40419,1.32584 12.30678,2.80895 12.95716,2.15856 0.36273,-0.36273 0.12701,-1.192 -0.52383,-1.84284 -2.20384,-2.20384 -1.39263,-6.60333 1.56667,-8.49652 1.5125,-0.96762 3.2007,-2.33721 3.75156,-3.04354 0.60201,-0.77192 4.99779,-1.63136 11.01884,-2.15436 14.50514,-1.25993 22.02927,-3.82751 16.42695,-5.60562 -1.70995,-0.54272 -1.84168,-0.90568 -0.78904,-2.17404 0.69498,-0.8374 1.73118,-2.44011 2.30265,-3.56156 1.60998,-3.15941 4.54574,-3.68076 9.28904,-1.64961 5.00731,2.1442 5.38359,4.11922 1.25,6.56099 -3.37576,1.99411 -3.64947,3.54228 -1.52515,8.62649 1.17443,2.81082 2.44751,3.88336 6.25,5.26553 2.62633,0.95464 5.56265,2.62104 6.52515,3.7031 2.15003,2.4171 2.29715,9.24889 0.27448,12.74581 -3.50203,6.05453 -4.7167,12.72761 -2.94159,16.16029 0.77941,1.50722 1.41711,5.27349 1.41711,8.3695 l 0,5.62912 -3.25,-0.6775 c -6.18041,-1.28837 -11.58188,-5.30862 -15.74914,-11.7219 -2.20047,-3.38645 -4.00086,-6.473 -4.00086,-6.85901 0,-0.386 -1.66079,-1.09459 -3.69064,-1.57464 -3.36629,-0.79611 -3.79995,-1.30127 -4.9343,-5.74792 -1.64919,-6.46484 -3.19973,-7.9753 -6.78687,-6.61147 -2.28423,0.86846 -3.27284,0.68221 -5.75311,-1.0839 -3.16862,-2.25626 -7.3285,-2.78915 -8.96873,-1.14892 -0.64487,0.64487 -0.33358,2.15168 0.90382,4.375 1.52978,2.74865 2.57763,3.44983 5.52921,3.69996 2.52755,0.21419 4.49209,1.23577 6.42117,3.33907 1.5287,1.66676 5.36695,4.17421 8.52945,5.57211 5.66392,2.50358 7.35565,4.28021 4.07569,4.28021 -1.45649,0 -1.40852,0.29272 0.36876,2.25 2.80539,3.08952 3.73991,7.36934 1.77387,8.12378 -1.0526,0.40392 -1.32689,1.34153 -0.8954,3.06074 0.51999,2.0718 0.19587,2.5854 -1.97543,3.13037 -2.60578,0.65401 -3.46837,2.77884 -1.59749,3.93511 0.55,0.33992 1,0.14148 1,-0.44098 0,-2.2024 1.697,-0.90741 4.38633,3.34722 3.69286,5.84227 6.2962,8.09124 11.11367,9.60091 2.2,0.68942 4.5625,1.69995 5.25,2.24562 3.30032,2.61945 -0.30712,9.45629 -7.25546,13.7506 -3.04216,1.88016 -3.35412,2.4677 -2.81706,5.30547 0.79641,4.20812 2.06962,5.69116 4.88595,5.69116 2.58409,0 4.50626,2.14344 2.51685,2.80657 -0.7006,0.23354 -3.49529,2.39759 -6.21043,4.80902 -4.4411,3.94433 -5.95452,4.80205 -8.00984,4.5395 -0.352,-0.045 -4.0645,3.255 -8.25,7.33326 -5.44627,5.30671 -7.61001,8.12106 -7.61001,9.89823 0,4.20654 -1.6147,6.98819 -5.87069,10.11342 -4.82292,3.54154 -5.88143,6.34482 -6.33353,16.77323 l -0.33699,7.77322 3.85988,1.03936 c 2.12293,0.57165 5.55652,1.92369 7.63018,3.00455 2.07367,1.08085 7.34756,2.37318 11.71976,2.87184 4.37221,0.49866 9.0479,1.35752 10.39043,1.90857 1.34253,0.55105 4.15736,1.28136 6.25517,1.62293 5.13867,0.83666 4.23833,2.93947 -1.39193,3.25096 -2.43225,0.13456 -6.89728,0.72829 -9.92228,1.31939 -4.47098,0.87365 -6.17328,0.79043 -9.09863,-0.44483 -3.22497,-1.36178 -3.82614,-1.36022 -5.78964,0.0151 -2.03242,1.42357 -2.32457,1.36567 -4.03633,-0.79982 -2.98357,-3.77442 -14.49314,-9.19475 -17.79831,-8.38195 -4.43415,1.09042 -7.10055,3.2811 -9.3425,7.67569 l -2.09113,4.09896 2.76536,2.88641 c 1.52095,1.58753 3.70604,2.88642 4.85576,2.88642 3.54048,0 6.53542,2.80569 6.53542,6.12245 0,1.65497 0.4328,3.81773 0.96178,4.80614 1.39421,2.6051 6.4142,4.47574 8.71152,3.24625 1.3026,-0.69713 2.85228,-0.57321 5.20554,0.41626 4.13337,1.73796 4.12116,1.73815 4.12116,-0.0654 0,-3.51196 5.88343,-4.85244 24.94673,-5.68386 17.98344,-0.78433 18.64368,-0.74232 26.28817,1.67257 4.31279,1.36241 10.33201,2.76983 13.37603,3.12759 4.34091,0.51019 5.87715,1.17329 7.12286,3.07448 1.51629,2.31416 1.91585,2.3933 8.81755,1.74656 6.35126,-0.59516 7.35194,-0.45827 8.23918,1.12714 0.64283,1.14868 0.67253,2.69192 0.0817,4.2459 -0.5105,1.34272 -0.74743,2.62208 -0.5265,2.84301 0.22093,0.22092 4.7757,-4.22899 10.12171,-9.88869 9.63288,-10.19813 19.27777,-23.40851 24.24427,-33.20682 3.04046,-5.99845 9.75557,-23.6943 10.74823,-28.32403 0.67643,-3.15488 0.61782,-3.22508 -2.2191,-2.6577 -2.63144,0.52629 -3.21422,0.11342 -6.01232,-4.25953 -1.88042,-2.93876 -4.53541,-9.95149 -6.75386,-17.83925 -3.17048,-11.27271 -3.61031,-14.12501 -3.31541,-21.5 0.30112,-7.53034 0.0827,-8.8639 -1.90962,-11.65742 -1.74388,-2.44528 -2.24962,-4.52961 -2.24962,-9.27149 0,-5.40563 -0.26645,-6.23847 -2.29098,-7.16091 -1.26004,-0.57411 -2.72254,-2.02696 -3.25,-3.22856 -0.52746,-1.2016 -1.93682,-2.32397 -3.13192,-2.49417 -2.73443,-0.38941 -4.3271,-4.697 -4.3271,-11.70321 l 0,-5.21421 -6.25,-2.78669 c -3.4375,-1.53268 -6.59573,-3.28164 -7.0183,-3.88657 -0.51821,-0.74185 -1.10402,-0.53023 -1.79969,0.65013 -0.56726,0.9625 -1.6453,1.75 -2.39563,1.75 -2.49518,0 -11.74833,-19.12138 -10.06685,-20.80286 0.22843,-0.22843 1.7261,0.51804 3.32817,1.65881 1.60206,1.14077 4.89047,2.359 7.30757,2.70717 l 4.39473,0.63305 -3,-2.56212 c -1.65,-1.40917 -3.32167,-2.57831 -3.71482,-2.59809 -0.39315,-0.0198 -1.22711,-0.99319 -1.85324,-2.16313 -0.88699,-1.65735 -0.84139,-2.31076 0.20646,-2.95836 1.03993,-0.64272 1.07498,-1.10109 0.15459,-2.02148 -0.9204,-0.9204 -1.72527,-0.83977 -3.5496,0.35558 -3.06426,2.00778 -4.96968,0.9278 -8.25559,-4.67917 -1.53835,-2.62501 -3.7986,-4.86971 -5.69393,-5.65478 -2.3582,-0.9768 -16.10054,-10.4252 -19.70631,-13.54887 -0.22684,-0.19652 0.11057,-1.50518 0.7498,-2.90815 1.06807,-2.34414 0.90461,-2.68888 -2.0171,-4.25422 -1.74864,-0.93686 -5.06138,-3.39088 -7.36163,-5.45338 -4.70196,-4.21596 -6.89266,-4.62126 -9.89418,-1.83053 -2.04328,1.89978 -2.14415,1.88285 -9.83605,-1.65068 -6.75824,-3.10461 -8.10756,-3.41706 -10.34807,-2.39622 -1.90482,0.86789 -2.38369,1.62406 -1.83697,2.90067 1.27374,2.97423 1.72444,7.22676 0.76592,7.22676 -0.50475,0 -3.09423,-1.3803 -5.75442,-3.06734 -4.7138,-2.98941 -5.06813,-3.0534 -13.94578,-2.51833 -5.00999,0.30196 -10.64708,0.58399 -12.52686,0.62674 -1.87978,0.0427 -4.55026,0.96853 -5.93439,2.05728 -1.77917,1.3995 -3.34064,1.79858 -5.32875,1.36191 -6.38335,-1.40202 -13.02592,3.22705 -16.76517,11.68328 -1.87392,4.23785 -2.63188,4.87516 -8.67564,7.29464 -3.64228,1.4581 -6.82887,2.44455 -7.08132,2.1921 -0.25244,-0.25244 0.0844,-1.4744 0.74864,-2.71547 1.01826,-1.90264 0.92259,-2.46491 -0.61011,-3.58565 -3.72078,-2.7207 -11.20852,-0.62656 -14.85536,4.15468 -2.31188,3.03103 -2.93453,3.33191 -5.1511,2.48917 -3.27624,-1.24562 -5.46929,0.19928 -12.55787,8.2738 -17.19741,19.58934 -27.75916,40.23871 -33.34115,65.18557 -16.82263,75.18306 29.46719,149.63771 105.47,169.64273 12.09893,3.18462 41.07032,5.23816 42.44814,3.00881 z m 37.21853,-55.75059 c -1.15064,-1.15063 -0.72824,-2.33333 0.83333,-2.33333 0.825,0 1.5,0.675 1.5,1.5 0,1.56157 -1.1827,1.98397 -2.33333,0.83333 z m -5.97356,-9.87935 c -4.1685,-3.92888 -5.39498,-5.63115 -4.34695,-6.03332 1.90336,-0.73039 9.11149,2.96694 10.97722,5.63064 1.35818,1.93908 1.22787,5.99386 -0.19001,5.91224 -0.34835,-0.0201 -3.24647,-2.49936 -6.44026,-5.50956 z m 4.63855,-150.03206 c -0.64581,-1.68297 2.30951,-6.33277 4.71852,-7.42397 0.7974,-0.3612 3.36232,-1.64693 5.69982,-2.85719 l 4.25,-2.20048 0,3.85555 c 0,2.70717 -0.67016,4.48332 -2.25,5.96324 -4.29283,4.02134 -11.3189,5.52792 -12.41834,2.66285 z m -82.99271,141.57808 c 2.64643,-1.67832 6.1024,-3 7.84448,-3 1.71269,0 5.95669,-1.44405 9.43113,-3.20899 5.84918,-2.97127 6.20187,-3.33637 4.76108,-4.92843 -0.85584,-0.94569 -1.99153,-3.6575 -2.52375,-6.02624 -0.53222,-2.36873 -1.68636,-5.10094 -2.56477,-6.07157 -1.96525,-2.17158 -7.86027,-2.34993 -9.0226,-0.27296 -0.66756,1.19287 -1.52783,1.29306 -4.29309,0.5 -6.33672,-1.81735 -9.7235,-1.24594 -13.5839,2.29186 -3.27052,2.9972 -3.63053,3.87452 -4.12676,10.05646 -0.53223,6.63043 -0.4735,6.84518 2.79395,10.21633 1.83569,1.89395 4.06124,3.44354 4.94567,3.44354 0.88443,0 3.73678,-1.35 6.33856,-3 z m 45.66105,1 c 0,-0.55 -0.19844,-1 -0.44098,-1 -0.24254,0 -0.7191,0.45 -1.05902,1 -0.33992,0.55 -0.14148,1 0.44098,1 0.58246,0 1.05902,-0.45 1.05902,-1 z m -88.91513,-37.10482 c -0.52695,-1.31735 -0.98662,-1.86948 -1.02148,-1.22697 -0.0847,1.56062 1.08023,4.52151 1.58163,4.0201 0.21887,-0.21887 -0.0332,-1.47578 -0.56015,-2.79313 z m 76.35849,-68.89518 c 0.12395,-11.10971 0.62382,-11.98694 6.87403,-12.06339 4.33866,-0.0531 4.79255,-0.21941 2.78728,-1.02153 -1.31744,-0.52699 -3.79244,-0.88633 -5.5,-0.79855 -1.70757,0.0878 -3.76899,-0.015 -4.58093,-0.22846 -0.9196,-0.24174 -1.6057,0.46035 -1.81955,1.86193 -0.40168,2.63269 -1.45224,2.86098 -3.24196,0.70449 -0.70546,-0.85003 -1.92508,-1.29899 -2.71027,-0.99768 -0.78519,0.3013 -2.31701,-0.46572 -3.40404,-1.70449 -1.14284,-1.30237 -1.80536,-1.61968 -1.57081,-0.75232 0.23478,0.86825 -1.00166,2.46281 -2.93575,3.78605 -1.83775,1.25733 -3.34136,2.90597 -3.34136,3.66364 0,0.75767 1.79543,3.55395 3.98984,6.21395 2.19441,2.66 5.8535,7.48618 8.13131,10.72485 l 4.14147,5.88849 1.54853,-3.88849 c 0.87396,-2.19457 1.58499,-7.15566 1.63221,-11.38849 z m 131.78506,-7 c 1.36441,0 4.77158,-2.98335 4.77158,-4.17804 0,-0.47744 -1.1634,-0.10577 -2.58534,0.82592 -2.20314,1.44355 -2.72278,1.48392 -3.51502,0.27305 -0.74907,-1.14489 -1.50957,-0.78649 -3.91466,1.84485 -4.0223,4.40068 -3.76617,5.89269 0.57218,3.333 1.95644,-1.15433 4.0585,-2.09878 4.67126,-2.09878 z m -7.13464,-8.30622 c -0.79171,-0.79171 -1.09378,-0.53223 -1.09378,0.93955 0,2.64375 1.39845,4.04704 1.84378,1.85016 0.18908,-0.93276 -0.14842,-2.18813 -0.75,-2.78971 z m -121.12546,-5.69378 c 0.44817,0 1.12307,-1.22798 1.49976,-2.72885 0.87745,-3.49603 -2.2551,-6.27115 -7.07886,-6.27115 -3.19098,0 -3.38922,0.19984 -3.38922,3.41667 0,1.87916 -0.53438,3.59479 -1.1875,3.8125 -0.76429,0.25476 -0.40789,1.17543 1,2.58333 1.20312,1.20312 2.1875,2.6775 2.1875,3.27639 0,0.59889 1.38453,-0.0761 3.07673,-1.5 1.69219,-1.42389 3.44341,-2.58889 3.89159,-2.58889 z m -14.98507,-18.86663 -0.0168,-7.63337 -2.80862,5.5 c -2.2109,4.3295 -2.62026,6.062 -1.92351,8.14076 0.65511,1.9545 1.38934,2.5089 2.82538,2.13337 1.70855,-0.4468 1.93826,-1.419 1.92351,-8.14076 z m -11.51718,5.18142 c 2.69834,-1.28675 3.53031,-2.29166 3.51862,-4.25 -0.008,-1.41064 -0.40585,-3.18128 -0.88317,-3.93477 -0.7012,-1.1069 -1.06658,-1.01488 -1.9027,0.47919 -0.98245,1.75555 -1.13158,1.76162 -2.94557,0.11998 -3.01545,-2.72894 -3.60046,-2.02705 -1.34806,1.6174 2.37811,3.84787 1.97454,4.65341 -2.33131,4.65341 -2.00978,0 -3.53016,-0.70034 -4.34181,-2 -0.68696,-1.1 -2.2577,-1.98382 -3.49054,-1.96404 -2.14705,0.0345 -2.12002,0.13533 0.64121,2.39341 1.58551,1.2966 4.28551,2.80948 6,3.36195 1.71449,0.55248 3.21449,1.05044 3.33333,1.10659 0.11884,0.0562 1.80634,-0.65626 3.75,-1.58312 z"
       id="path2996"
       inkscape:connector-curvature="0" />
  </g>
</svg>
