<?xml version="1.0" encoding="UTF-8" standalone="no"?>
<!-- Generator: Adobe Illustrator 15.1.0, SVG Export Plug-In . SVG Version: 6.00 Build 0)  -->

<svg
   xmlns:dc="http://purl.org/dc/elements/1.1/"
   xmlns:cc="http://creativecommons.org/ns#"
   xmlns:rdf="http://www.w3.org/1999/02/22-rdf-syntax-ns#"
   xmlns:svg="http://www.w3.org/2000/svg"
   xmlns="http://www.w3.org/2000/svg"
   xmlns:sodipodi="http://sodipodi.sourceforge.net/DTD/sodipodi-0.dtd"
   xmlns:inkscape="http://www.inkscape.org/namespaces/inkscape"
   inkscape:export-ydpi="252.69"
   inkscape:export-xdpi="252.69"
   inkscape:export-filename="/home/maartend/htdocs/spacebillboard/docroot/sites/all/themes/sbbtheme/resources/img/for-advertisers/first.png"
   sodipodi:docname="first.svg"
   inkscape:version="0.48.5 r10040"
   xml:space="preserve"
   enable-background="new 0 0 100 100"
   viewBox="0 0 71.232788 71.232899"
   height="71.232895"
   width="71.232788"
   y="0px"
   x="0px"
   id="Layer_1"
   version="1.1"><sodipodi:namedview
     pagecolor="#ffffff"
     bordercolor="#666666"
     borderopacity="1"
     objecttolerance="10"
     gridtolerance="10"
     guidetolerance="10"
     inkscape:pageopacity="0"
     inkscape:pageshadow="2"
     inkscape:window-width="1600"
     inkscape:window-height="834"
     id="namedview5"
     showgrid="false"
     inkscape:zoom="4.2692002"
     inkscape:cx="4.3354572"
     inkscape:cy="0.41452258"
     inkscape:window-x="0"
     inkscape:window-y="27"
     inkscape:window-maximized="1"
     inkscape:current-layer="Layer_1" /><metadata
     id="metadata9"><rdf:RDF><cc:Work
         rdf:about=""><dc:format>image/svg+xml</dc:format><dc:type
           rdf:resource="http://purl.org/dc/dcmitype/StillImage" /><dc:title></dc:title></cc:Work></rdf:RDF></metadata><defs
     id="defs7" /><g
     transform="matrix(0.80598935,0,0,0.80598935,-283.4345,-32.615824)"
     id="g3875"><g
       id="g3871"><path
         inkscape:connector-curvature="0"
         style="fill:#0086d5;fill-opacity:1"
         id="path3"
         d="m 417.89234,51.864082 c 0.68658,-6.646748 0.75214,-11.397264 0.75214,-11.397264 H 373.0563 c 0,0 0.0646,4.750516 0.75214,11.397264 -4.77607,0 -13.57482,0 -13.57482,0 v 2.136989 c 0,26.350466 19.12041,33.013599 25.50059,34.501639 2.24103,2.36922 4.87663,3.99118 7.97882,4.50263 v 5.16011 c 0,4.98631 -10.68495,9.26029 -14.95892,9.26029 -1.17949,0 -2.13699,0.95737 -2.13699,2.13699 0,1.17961 0.9575,2.13699 2.13699,2.13699 h 17.09591 17.09591 c 1.17949,0 2.13698,-0.95738 2.13698,-2.13699 0,-1.17962 -0.95749,-2.13699 -2.13698,-2.13699 -4.27398,0 -14.95893,-4.27398 -14.95893,-9.26029 v -5.16011 c 3.10219,-0.51215 5.73928,-2.13269 7.98031,-4.50263 6.38167,-1.48946 25.4991,-8.152589 25.4991,-34.501639 v -2.136989 c 0,0 -9.80939,0 -13.57407,0 z m -53.33781,4.273977 h 9.75675 c 1.13851,8.617756 3.30307,19.059079 7.40968,26.661033 -6.7591,-2.81938 -16.4133,-9.783838 -17.16643,-26.661033 z m 35.37652,2.921984 2.52287,7.76296 -6.6039,-4.797547 -6.60391,4.797547 2.52237,-7.76296 -6.60341,-4.797548 h 8.16257 l 2.52238,-7.762967 2.52237,7.762967 h 8.16257 l -6.60391,4.797548 z m 10.04877,23.739049 c 4.10711,-7.601954 6.27191,-18.043997 7.40819,-26.661033 h 9.75675 c -0.75215,16.877195 -10.40634,23.842348 -17.16494,26.661033 z" /><rect
         transform="translate(-4.9560943e-6,0)"
         y="43.703545"
         x="382.91629"
         height="27.415369"
         width="26.816126"
         id="rect3865"
         style="fill:#0086d5;fill-opacity:1;fill-rule:nonzero;stroke:none" /></g><text
       xml:space="preserve"
       style="font-size:20px;font-style:normal;font-variant:normal;font-weight:bold;font-stretch:normal;text-align:center;line-height:129.99999523%;letter-spacing:0px;word-spacing:0px;writing-mode:lr-tb;text-anchor:middle;fill:#0c0c0c;fill-opacity:1;stroke:none;font-family:Istok Web;-inkscape-font-specification:Istok Web Bold"
       x="394.74222"
       y="63.853092"
       id="text3867"
       sodipodi:linespacing="130%"><tspan
         sodipodi:role="line"
         id="tspan3869"
         x="394.74222"
         y="63.853092"
         style="fill:#ffffff;fill-opacity:1">1</tspan></text>
</g></svg>