<?xml version="1.0" encoding="UTF-8" standalone="no"?>
<svg
   xmlns:dc="http://purl.org/dc/elements/1.1/"
   xmlns:cc="http://creativecommons.org/ns#"
   xmlns:rdf="http://www.w3.org/1999/02/22-rdf-syntax-ns#"
   xmlns:svg="http://www.w3.org/2000/svg"
   xmlns="http://www.w3.org/2000/svg"
   xmlns:sodipodi="http://sodipodi.sourceforge.net/DTD/sodipodi-0.dtd"
   xmlns:inkscape="http://www.inkscape.org/namespaces/inkscape"
   version="1.1"
   id="Layer_1"
   x="0px"
   y="0px"
   width="75px"
   height="75px"
   viewBox="0 0 75 75"
   enable-background="new 0 0 75 75"
   xml:space="preserve"
   inkscape:version="0.48.5 r10040"
   sodipodi:docname="global.svg"
   inkscape:export-filename="/home/maartend/htdocs/spacebillboard/docroot/sites/all/themes/sbbtheme/resources/img/for-advertisers/global.png"
   inkscape:export-xdpi="240"
   inkscape:export-ydpi="240"><metadata
     id="metadata47"><rdf:RDF><cc:Work
         rdf:about=""><dc:format>image/svg+xml</dc:format><dc:type
           rdf:resource="http://purl.org/dc/dcmitype/StillImage" /><dc:title></dc:title></cc:Work></rdf:RDF></metadata><defs
     id="defs45" /><sodipodi:namedview
     pagecolor="#ffffff"
     bordercolor="#666666"
     borderopacity="1"
     objecttolerance="10"
     gridtolerance="10"
     guidetolerance="10"
     inkscape:pageopacity="0"
     inkscape:pageshadow="2"
     inkscape:window-width="1600"
     inkscape:window-height="834"
     id="namedview43"
     showgrid="false"
     inkscape:zoom="2"
     inkscape:cx="4.6100065"
     inkscape:cy="-61.555516"
     inkscape:window-x="0"
     inkscape:window-y="27"
     inkscape:window-maximized="1"
     inkscape:current-layer="Layer_1" /><g
     id="g3"
     style="fill:#0086d7;fill-opacity:1"><g
       id="g5"
       style="fill:#0086d7;fill-opacity:1"><g
         id="g7"
         style="fill:#0086d7;fill-opacity:1"><path
           d="M14.291,23.127l-1.135,2.508c1.796,1.206,3.72,2.119,5.757,2.738c0.263-1.003,0.713-1.983,1.072-2.967     c0.146-0.398-0.252-1.393,0.857-0.933c0.088-0.273,0.301-0.583,0.236-0.814c-0.134-0.477-0.427-0.908-0.633-1.367     c-0.095-0.21-0.237-0.468-0.189-0.664c0.38-1.584-0.036-3.172,0.041-4.756c0.006-0.128-0.278-0.28-0.439-0.403     c-0.185-0.141-0.395-0.249-0.574-0.396c-1.463-1.198-2.426-1.385-3.374-0.132c-0.15,0.199-0.342,0.378-0.545,0.522     c-0.257,0.181-0.546,0.317-0.822,0.472c-0.038-0.375-0.18-0.78-0.085-1.118c0.086-0.307,0.402-0.572,0.664-0.801     c0.416-0.365,0.884-0.671,1.306-1.031c0.252-0.215,0.657-0.461,0.264-0.834c-0.083-0.08-0.534,0.103-0.719,0.271     c-1.99,1.808-3.815,3.777-5.269,6.041c-0.494,0.769-0.956,1.545-1.386,2.328L14.291,23.127z"
           id="path9"
           style="fill:#0086d7;fill-opacity:1" /></g><g
         id="g11"
         style="fill:#0086d7;fill-opacity:1"><path
           d="M42.123,70.074c0.229-1.125-1.058-2.229-0.039-3.361c0.114-0.125,0.1-0.384,0.111-0.584     c0.045-0.854-0.042-1.737,0.143-2.56c0.435-1.93-0.199-3.083-2.059-3.853c-0.734-0.304-1.191-1.295-1.76-1.986     c-0.47-0.573-0.929-1.158-1.372-1.753c-0.136-0.184-0.329-0.47-0.27-0.622c0.149-0.387,0.425-0.726,0.651-1.084     c-0.604-0.302-0.548-0.758-0.238-1.217c0.247-0.365,0.524-0.724,0.851-1.016c0.798-0.714,0.845-1.546,0.498-2.474     c-0.14-0.376-0.271-0.755-0.407-1.131c-0.316,0.009-0.633,0.019-0.949,0.028c-0.189,0.171-0.423,0.519-0.559,0.484     c-0.883-0.226-1.81-0.594-2.244-1.382c-0.983-1.784-3.254-1.469-4.415-2.893c-0.024-0.03-0.102-0.041-0.145-0.029     c-1.508,0.432-2.595-0.568-3.797-1.139c-0.696-0.33-1.188-0.803-1.264-1.716c-0.054-0.651-0.482-1.281-0.789-1.898     c-0.199-0.398-0.511-0.739-0.717-1.134c-0.487-0.935-0.935-1.89-1.418-2.825c-0.083-0.163-0.263-0.276-0.398-0.412     c-0.117,0.185-0.246,0.365-0.343,0.559c-0.041,0.083,0.001,0.202-0.019,0.3c-0.018,0.092-0.068,0.177-0.105,0.265     c-0.109-0.091-0.282-0.163-0.317-0.276c-0.148-0.481-0.236-0.98-0.384-1.461c-0.101-0.328-0.177-0.737-0.411-0.937     c-0.652-0.556-1.007-1.2-1.184-1.884c-2.671-0.345-5.112-1.27-7.284-2.765l-1.398,3.093l-2.875-6.104     c-2.17,5.689-2.716,11.709-1.477,18.058c1.486,7.615,5.257,13.979,11.167,18.969c6.647,5.611,14.416,8.19,23.113,7.858     c1.215-0.045,2.419-0.38,3.628-0.588c-0.336-0.022-0.68-0.011-0.996-0.099C42.442,70.447,42.1,70.183,42.123,70.074z"
           id="path13"
           style="fill:#0086d7;fill-opacity:1" /></g><g
         id="g15"
         style="fill:#0086d7;fill-opacity:1"><path
           d="M43.697,70.597c-0.018,0.002-0.032,0.007-0.048,0.009c0.019,0.001,0.037,0.001,0.057,0.004L43.697,70.597z"
           id="path17"
           style="fill:#0086d7;fill-opacity:1" /></g></g><g
       id="g19"
       style="fill:#0086d7;fill-opacity:1"><g
         id="g21"
         style="fill:#0086d7;fill-opacity:1"><path
           d="M44.946,47.787c0.211-0.075,0.406-0.112,0.591-0.123c-0.074-6.17-2.747-10.923-5.274-14.042     c-0.16,0.211-0.374,0.392-0.655,0.544c-0.482,0.262-0.881,0.676-1.346,0.978c-0.671,0.436-0.97,0.965-0.732,1.79     c0.166,0.577,0.24,1.188,0.281,1.788c0.015,0.211-0.189,0.438-0.294,0.657c-0.169-0.144-0.392-0.257-0.493-0.438     c-0.145-0.258-0.258-0.562-0.282-0.854c-0.063-0.775-0.244-1.301-1.202-1.409c-0.676-0.077-1.391-0.661-2.016-0.203     c-0.136,0.101-0.265,0.191-0.39,0.268c-0.659,0.927-1.53,1.769-2.688,2.382l1.037,1.396l-2.849-0.192     c-0.024,0.221-0.046,0.441-0.068,0.662c-0.089,0.891,0.739,2.294,1.479,2.441c0.47,0.094,1.037,0.096,1.461-0.089     c0.348-0.151,0.552-0.638,0.815-0.979c0.061-0.08,0.091-0.231,0.161-0.249c0.465-0.114,0.937-0.201,1.407-0.298     c-0.063,0.305-0.119,0.611-0.191,0.913c-0.07,0.292-0.143,0.586-0.24,0.87c-0.383,1.129-0.386,1.125,0.883,1.235     c0.25,0.022,0.51,0.034,0.744,0.113c0.482,0.162,0.788,0.447,0.576,1.025c-0.086,0.235-0.147,0.487-0.17,0.734     c-0.11,1.202,0.456,1.75,1.791,1.754c0.316-0.01,0.633-0.02,0.949-0.028c0.407,0.23,0.763,0.638,1.188-0.065     c0.544-0.895,1.267-1.56,2.438-0.945c0.697-0.401,1.291-0.176,1.931,0.21C44.101,47.821,44.615,47.908,44.946,47.787z"
           id="path23"
           style="fill:#0086d7;fill-opacity:1" /></g><g
         id="g25"
         style="fill:#0086d7;fill-opacity:1"><path
           d="M70.885,31.56c-0.04-0.202-0.436-0.513-0.591-0.474c-0.293,0.074-0.677,0.317-0.766,0.577     c-0.207,0.612-1.774,1.397-1.826,1.096c-0.102-0.593-0.058-0.86-0.04-1.463c0.003-0.125,0.266-0.335,0.423-0.349     c0.866-0.074,1.17-0.32,0.767-1.008c-0.668-1.141,0.009-1.999,0.508-2.736c0.279-0.413,0.306-0.575,0.142-0.933     c-0.689-1.502-1.373-3.008-2.062-4.512c-0.062-0.137-0.141-0.268-0.216-0.4c-1.592-2.786-3.54-5.29-5.92-7.445     c-0.228-0.205-0.562-0.291-0.847-0.433c-0.112,0.374-0.336,0.759-0.302,1.118c0.028,0.292,0.373,0.55,0.569,0.828     c0.054,0.076,0.128,0.183,0.107,0.25c-0.019,0.063-0.188,0.15-0.228,0.126c-0.823-0.5-1.408,0.431-2.087,0.366     c-1.019-0.097-1.347,0.444-1.589,1.23c-0.119,0.385-0.243,0.772-0.421,1.13c-0.05,0.102-0.342,0.193-0.447,0.14     c-1.038-0.521-1.803-1.228-1.807-2.525c-0.001-0.412-0.219-0.83-0.37-1.233c-0.121-0.324-0.243-0.588,0.299-0.573     c0.07,0.002,0.178-0.266,0.218-0.421c0.428-1.654-1.274-2.442-1.593-3.831c-0.12-0.521-0.86-0.91-1.346-1.328     c-0.141-0.121-0.377-0.128-0.568-0.193c-0.285-0.098-0.568-0.202-0.815-0.29c0.336-0.271,0.659-0.532,0.983-0.792     c-0.388-0.205-0.763-0.442-1.168-0.603c-0.368-0.146-0.823-0.123-1.146-0.325c-0.634-0.396-1.821-0.603-1.957-0.688     c-0.165-0.105-0.372-0.195-0.562-0.197c-0.244-0.002-1.476-0.307-1.5-0.315c-0.281-0.104-0.577-0.188-0.876-0.231     c-0.998-0.146-1.995-0.333-2.998-0.396c-4.959-0.305-9.782,0.368-14.425,2.158c-1.222,0.472-2.392,1.078-3.577,1.641     c-0.1,0.048-0.133,0.235-0.197,0.358c0.093,0.035,0.184,0.091,0.28,0.101c0.749,0.075,1.528,0.039,2.237,0.247     c0.447,0.131,0.813,0.195,1.284,0.147c1.2-0.122,2.388-0.598,3.617-0.239c0.614,0.18,1.344,0.245,1.8,0.626     c0.724,0.607,0.649,0.685,1.103,0.774c0.169,0.033,0.454,0.151,0.46,0.244c0.03,0.483,0.136,0.481,0.513,0.216     c0.379-0.266,0.874-0.625,1.264-0.569c0.831,0.119,1.726,0.333,2.41,0.785c0.696,0.461,1.001,0.008,1.431-0.248     c0.511-0.305,0.935-0.651,0.4-1.322c-0.06-0.076,0.209-0.476,0.394-0.657c0.122-0.12,0.365-0.118,0.555-0.17     c0.048,0.224,2.202,2.091,2.588,1.864c0.16-0.096,0.46-0.011,0.673,0.062c0.094,0.032,0.128,0.238,0.19,0.365     c-0.487,0.153-2.604,1.273-3.101,1.833c-0.285,0.321-0.683,0.639-1.085,0.742c-1.436,0.364-2.49,1.286-3.504,2.265     c-0.378,0.365-0.179,2.516,0.192,2.522c1.328,0.02,1.899,1.302,2.991,1.645c0.655,0.205,0.732,0.592,0.594,1.155     c-0.048,0.19-0.147,0.459-0.062,0.576c0.278,0.383,0.631,0.712,0.955,1.062c0.233-0.354,0.647-0.699,0.663-1.062     c0.033-0.793,0.097-1.395,1.008-1.694c0.299-0.098,0.691-0.808,0.592-1.061c-0.411-1.039,0.292-1.82,0.464-2.709     c0.179-0.923,0.243-0.911,1.209-0.688c0.818,0.19,1.869,1.183,1.646,1.743c-0.295,0.736,0.219,1.058,0.558,1.344     c0.154,0.131,0.753-0.25,1.143-0.418c0.082-0.036,0.122-0.158,0.192-0.229c0.271-0.278,0.374-0.13,0.512,0.156     c0.512,1.059,0.369,2.389,1.301,3.276c0.479-0.039,0.966-0.061,1.457-0.061c2.556,0,4.992,0.559,7.249,1.661l0.925-3.267     l7.321,10.958l-10.095-1.151l0.749-2.65c-2.921-1.383-6.06-2.084-9.33-2.084c-0.607,0-1.2,0.025-1.777,0.069     c0.069,0.053,0.162,0.076,0.272,0.045c0.024,0.343,0.013,0.693,0.086,1.025c0.053,0.236,0.187,0.475,0.341,0.666     c0.447,0.554,0.242,0.918-0.312,1.187c-0.148,0.072-0.33,0.079-0.495,0.115c0.031-0.14,0.049-0.286,0.099-0.419     c0.048-0.129,0.13-0.244,0.196-0.366c-0.143-0.027-0.309-0.113-0.427-0.07c-0.467,0.169-0.914,0.387-1.376,0.57     c-0.54,0.215-1.033,0.503-1.104,1.13c-0.044,0.39-1.923,2.045-2.811,2.966c3.861,3.009,8.551,8.17,8.444,15.437l3.349-0.553     l-1.981,3.287c0.739,0.45,1.018,1.367,0.633,2.36c-0.179,0.462,0.049,0.536,0.384,0.541c0.299,0.004,0.598-0.058,0.897-0.087     c0.246-0.023,0.601-0.155,0.724-0.041c1.075,0.997,2.701,0.063,3.777,1.15c0.629,0.637,0.919,1.003,0.327,1.617     c-1.161,1.207-1.657,2.707-2.265,4.186c-0.262,0.637-0.741,1.098-1.472,1.409c-1.031,0.438-1.832,1.15-2.555,2.165     c-0.787,1.104-1.541,2.694-3.376,2.671c-0.099-0.001-0.306,0.282-0.283,0.321c0.357,0.576-0.064,0.732-0.464,0.844     c-1.797,0.496-2.938,1.652-3.52,3.397c0.646-0.058,1.31-0.038,1.934-0.188c10.304-2.476,17.83-8.468,22.662-17.893     c0.796-1.553,1.176-3.215,1.628-4.867c0.104-0.377-0.033-0.477-0.297-0.688c-0.343-0.275-0.504-0.123-0.762,0.069     c-0.36,0.27-0.762,0.482-1.138,0.73c-0.413,0.271-0.738,0.248-0.991-0.222c-0.31-0.57-0.591-1.165-0.974-1.683     c-0.475-0.642-0.496-1.264-0.264-1.995c0.181-0.57,0.394-1.218,0.289-1.775c-0.284-1.511,0.479-2.607,1.202-3.762     c0.287-0.454,0.633-0.958,0.673-1.463c0.111-1.383,1.089-1.854,2.146-2.259c0.416-0.159,0.821-0.055,0.869,0.513     c0.06,0.707,0.253,1.345,0.926,1.947C71.742,35.075,71.238,33.324,70.885,31.56z M49.673,14.441     c-0.057,0.034-0.298-0.083-0.314-0.162c-0.156-0.735-0.726-0.739-1.285-0.751c-0.6-0.015-1.098-0.012-0.959-0.914     c0.05-0.316-0.437-0.712-0.675-1.074c-0.537-0.815-1.135-1.479-2.272-1.259c-0.323,0.062-0.688-0.131-1.038-0.154     c-0.643-0.041-0.621-0.611-0.715-0.984C42.362,8.94,42.659,8.567,42.891,8.4c0.214-0.152,0.551-0.129,0.833-0.183     c-0.135,0.202-0.313,0.389-0.389,0.611c-0.056,0.159,0.025,0.365,0.046,0.55c0.143-0.087,0.301-0.158,0.426-0.267     c0.187-0.164,0.326-0.396,0.534-0.52c0.154-0.092,0.551-0.094,0.554-0.078c0.227,1.113,1.494,0.802,2.05,1.526     c0.559,0.726,1.426,1.17,1.582,2.247c0.056,0.389,0.689,0.683,1.03,1.046c0.188,0.199,0.313,0.454,0.45,0.656     C49.854,14.21,49.79,14.37,49.673,14.441z"
           id="path27"
           style="fill:#0086d7;fill-opacity:1" /></g><g
         id="g29"
         style="fill:#0086d7;fill-opacity:1"><polygon
           points="43.706,70.609 43.71,70.596 43.697,70.597    "
           id="polygon31"
           style="fill:#0086d7;fill-opacity:1" /></g></g></g><path
     d="M21.209,31.595c-3.637,0-6.887-1.019-9.662-3.027l-0.321-0.233l-1.145,2.534l-4.421-9.39l7.728,2.076l-1.044,2.309  l0.223,0.153c3.826,2.637,8.221,3.974,13.062,3.974c0,0,0,0,0.001,0c2.068,0,3.894-0.247,5.332-0.539  C28.57,30.46,25.03,31.595,21.209,31.595z"
     id="path33"
     style="fill:#0086d7;fill-opacity:1" /><path
     d="M57.879,29.147l0.689-2.438l-0.243-0.119c-3.079-1.504-6.396-2.268-9.857-2.268c-3.586,0-6.71,0.83-8.878,1.623  c2.724-1.665,7.165-3.794,12.058-3.794c2.585,0,5.042,0.594,7.306,1.765l0.353,0.183l0.758-2.675l5.765,8.629L57.879,29.147z"
     id="path35"
     style="fill:#0086d7;fill-opacity:1" /><path
     d="M43.756,48.949l2.501-0.413l0.003-0.27c0.128-8.344-4.388-14.241-7.396-17.234c3.938,2.604,10.41,8.196,10.084,16.666  l-0.016,0.396l2.743-0.453l-5.358,8.889L43.756,48.949z"
     id="path37"
     style="fill:#0086d7;fill-opacity:1" /><path
     d="M26.173,39.51l2.163-2.233l0.662,0.89l0.243-0.12c2.622-1.3,4.11-3.346,4.944-5.088c-0.504,2.05-1.661,4.524-4.295,5.756  l-0.36,0.167l0.667,0.898L26.173,39.51z"
     id="path39"
     style="fill:#0086d7;fill-opacity:1" /><path
     d="M32.481,24.355c-1.595-1.383-3.271-3.539-3.167-6.445l0.015-0.397l-1.104,0.185l2.074-3.459l1.002,2.943l-1.094,0.184  l-0.003,0.271C30.167,20.562,31.31,22.818,32.481,24.355z"
     id="path41"
     style="fill:#0086d7;fill-opacity:1" /></svg>