<?xml version="1.0" encoding="UTF-8" standalone="no"?>
<!-- Created with Inkscape (http://www.inkscape.org/) -->

<svg
   xmlns:dc="http://purl.org/dc/elements/1.1/"
   xmlns:cc="http://creativecommons.org/ns#"
   xmlns:rdf="http://www.w3.org/1999/02/22-rdf-syntax-ns#"
   xmlns:svg="http://www.w3.org/2000/svg"
   xmlns="http://www.w3.org/2000/svg"
   xmlns:sodipodi="http://sodipodi.sourceforge.net/DTD/sodipodi-0.dtd"
   xmlns:inkscape="http://www.inkscape.org/namespaces/inkscape"
   width="300"
   height="300"
   id="svg2"
   version="1.1"
   inkscape:version="0.48.5 r10040"
   sodipodi:docname="innovation.svg"
   inkscape:export-filename="/home/maartend/htdocs/spacebillboard/docroot/sites/all/themes/sbbtheme/resources/img/our-mission/power.png"
   inkscape:export-xdpi="11.348722"
   inkscape:export-ydpi="11.348722">
  <defs
     id="defs4" />
  <sodipodi:namedview
     id="base"
     pagecolor="#ffffff"
     bordercolor="#666666"
     borderopacity="1.0"
     inkscape:pageopacity="0.0"
     inkscape:pageshadow="2"
     inkscape:zoom="0.24748737"
     inkscape:cx="-604.19464"
     inkscape:cy="-320.12872"
     inkscape:document-units="px"
     inkscape:current-layer="layer1"
     showgrid="false"
     inkscape:window-width="1600"
     inkscape:window-height="834"
     inkscape:window-x="0"
     inkscape:window-y="27"
     inkscape:window-maximized="1" />
  <metadata
     id="metadata7">
    <rdf:RDF>
      <cc:Work
         rdf:about="">
        <dc:format>image/svg+xml</dc:format>
        <dc:type
           rdf:resource="http://purl.org/dc/dcmitype/StillImage" />
        <dc:title />
      </cc:Work>
    </rdf:RDF>
  </metadata>
  <g
     inkscape:label="Layer 1"
     inkscape:groupmode="layer"
     id="layer1"
     transform="translate(233.79195,469.6304)">
    <g
       id="g3811"
       transform="translate(1.5685315,-1.4232309)">
      <g
         transform="matrix(0.13568681,0,0,0.13568681,-253.97738,-323.91743)"
         id="g3022">
        <path
           inkscape:connector-curvature="0"
           id="path3010"
           d="m 1221.8572,1136.3237 c -8.3137,-0.9992 -23.2546,-5.8831 -33,-10.7871 -27.7057,-13.9419 -50.7259,-39.9105 -60.054,-67.7458 -2.2771,-6.7949 -2.5985,-9.1068 -2.1333,-15.3473 0.9843,-13.2039 8.2759,-23.6148 20.6873,-29.5376 5.7675,-2.7522 7.4578,-3.092 15,-3.0153 16.2474,0.1652 25.5694,6.9894 33.9227,24.8333 9.6694,20.6549 25.1849,31.6022 44.9536,31.7179 10.3765,0.061 14.3864,-0.7838 22.9461,-4.8324 11.0427,-5.2231 17.6439,-12.3646 24.597,-26.6099 6.341,-12.9915 11.0291,-18.167 20.4054,-22.5266 4.7149,-2.1923 7.1169,-2.6425 14.1962,-2.6604 7.6358,-0.02 9.2146,0.3198 15.1973,3.265 10.7345,5.2846 17.4824,14.1208 19.807,25.9368 1.5419,7.8373 -0.2779,16.7529 -5.8443,28.6312 -15.4676,33.0071 -44.543,57.39 -79.681,66.8213 -8.0614,2.1638 -39.0565,3.2922 -51,1.8569 z M 1090.6432,1011.84 c -10.7007,-3.3442 -18.8238,-10.9581 -22.3281,-20.92851 -5.1177,-14.5608 0.9905,-30.9818 14.3659,-38.6208 5.7443,-3.2807 9.4636,-4.2183 28.1761,-7.1028 7.1501,-1.1021 17.0501,-2.6319 22,-3.3996 4.9501,-0.7677 25.4251,-3.8889 45.5,-6.936 20.0751,-3.0472 43.7001,-6.6529 52.5,-8.0127 8.8001,-1.3598 23.6501,-3.6375 33,-5.0617 9.3501,-1.4242 23.9751,-3.6816 32.5,-5.0165 49.3326,-7.7248 87.9858,-13.4706 90.6195,-13.4706 4.7872,0 12.5588,2.6828 17.7692,6.1341 9.7006,6.4253 15.9062,20.7931 13.7081,31.7381 -1.5157,7.5475 -4.2842,12.9038 -9.3344,18.0598 -6.0252,6.1515 -12.1105,8.5515 -27.7624,10.9494 -7.425,1.1376 -24.075,3.6686 -37,5.6244 -12.925,1.9558 -36.325,5.5545 -52,7.997 -15.675,2.4425 -50.775,7.8274 -78,11.9663 -27.2249,4.1389 -53.55,8.18831 -58.5,8.99871 -4.95,0.8103 -13.7249,2.1793 -19.5,3.0422 -5.775,0.8629 -15.9672,2.4512 -22.6495,3.5295 -13.9824,2.2563 -17.2452,2.3284 -23.0644,0.5097 z m 1.7128,-85.46631 c -5.3666,-1.0533 -13.8436,-6.0836 -17.551,-10.4149 -14.2175,-16.6099 -9.6106,-40.7847 9.6032,-50.3929 5.2481,-2.6245 9.5214,-3.6976 22.9489,-5.7632 9.0751,-1.396 50.25,-7.707 91.5,-14.0245 41.25,-6.3174 81.9751,-12.607 90.5,-13.9767 8.5251,-1.3697 20.2251,-3.1647 26,-3.9889 5.7751,-0.8242 14.7751,-2.1717 20,-2.9945 5.2251,-0.8228 16.595,-2.6163 25.2667,-3.9855 23.9273,-3.7781 27.5892,-4.0163 33.8322,-2.2014 7.6165,2.2141 14.5038,7.0891 18.4593,13.0657 8.7748,13.2585 7.7374,28.6386 -2.7023,40.0612 -7.327,8.017 -12.1874,9.9442 -32.8559,13.0278 -9.625,1.436 -21.5499,3.2393 -26.5,4.0073 -4.9499,0.768 -18,2.7632 -29,4.4339 -11,1.6707 -22.6999,3.4959 -26,4.056 -3.2999,0.5602 -22.4249,3.5089 -42.5,6.5527 -46.4603,7.0445 -86.7565,13.2251 -123.4997,18.9425 -29.6517,4.6139 -31.4386,4.7853 -37.5014,3.5954 z m -0.9988,-86.018 c -8.7428,-2.6691 -17.4442,-10.3868 -21.297,-18.8892 -1.5921,-3.5135 -2.1187,-6.6642 -2.1187,-12.6757 0,-6.0115 0.5266,-9.1622 2.1187,-12.6757 2.9338,-6.4744 9.5173,-13.2957 15.7977,-16.3685 10.6158,-5.1938 14.2032,-5.3831 102.7262,-5.4209 l 81.7269,-0.035 1.4452,2.25 c 2.4502,3.8149 2.9373,10.8887 1.2131,17.6187 -1.7891,6.9836 -3.461,10.0115 -8.5406,15.4677 -6.7013,7.1982 -11.0552,8.6651 -37.5715,12.658 -7.7,1.1594 -18.1625,2.76 -23.25,3.5569 -23.8645,3.7376 -28.6609,4.4754 -41.75,6.4216 -7.7,1.1449 -18.05,2.7363 -23,3.5364 -34.9547,5.6501 -41.7728,6.304 -47.5,4.5556 z m 33.5,-81.7445 c -17.1283,-2.1689 -39.1857,-9.3618 -56.343,-18.3734 -19.5832,-10.2858 -43.8924,-28.3167 -56.0975,-41.6094 -14.00417,-15.25214 -27.54991,-39.50984 -33.4138,-59.83764 -4.51887,-15.6651 -5.75684,-25.6232 -6.65101,-53.5 -0.49886,-15.5523 -1.51126,-30.4247 -2.45061,-36 -1.62519,-9.64596 -6.47908,-29.2166 -9.05271,-36.5 -0.77738,-2.2 -4.37808,-12.55 -8.00156,-23 -8.7159,-25.13637 -21.45902,-51.00331 -48.27884,-98 C 890.73113,367.54394 869.95845,333.26684 857.024,313.3379 807.67728,237.30623 782.40468,169.75412 773.20346,89.29075 c -1.73396,-15.16324 -1.71269,-105.77815 0.0293,-125 8.38563,-92.52836 41.02939,-171.5999 100.52612,-243.5 12.96919,-15.67289 47.67229,-50.28336 63.94148,-63.7708 25.55341,-21.18422 49.45126,-36.50864 82.15674,-52.68273 54.2669,-26.83702 108.8903,-43.72686 165.5,-51.17347 14.6623,-1.92873 21.1221,-2.16967 58,-2.16336 36.878,0.006 43.3377,0.24956 58,2.18398 49.8384,6.57525 88.0761,17.36831 138.5,39.09338 50.4482,21.73552 88.5458,46.23449 127.0001,81.66837 43.8477,40.40381 78.7196,86.40401 102.9812,135.84463 28.1401,57.34407 41.7188,114.64297 43.3675,183 0.9701,40.21973 -0.2332,86.67509 -2.7251,105.21229 -10.5479,78.46334 -35.1654,143.47092 -80.5799,212.78771 -25.8904,39.51689 -58.8173,96.17637 -79.0346,136 -11.033,21.73263 -21.5003,48.79967 -29.0038,75 -6.3706,22.2442 -7.5582,30.5854 -8.5427,60 -1.3804,41.2441 -4.4476,56.3539 -16.4427,81 -9.5274,19.5757 -21.3483,35.02934 -36.52,47.74284 -32.7622,27.454 -65.8654,43.5482 -98.212,47.749 -6.8188,0.8855 -230.4444,1.1953 -237.288,0.3286 z m 176.736,-96.32044 c 10.923,-160.44048 22.0887,-295.09433 31.8161,-383.68753 0.6152,-5.60315 0.9677,-10.9382 0.7832,-11.85568 -0.2888,-1.43673 -2.2747,-1.7275 -14.3155,-2.09604 -27.4817,-0.84115 -46.6623,-5.2541 -69.7626,-16.05058 l -7.7427,-3.61875 -9.7573,4.58321 c -12.4422,5.84439 -22.0788,9.05102 -35.2572,11.73211 -11.2002,2.2786 -37.431,4.36953 -42.6355,3.39859 -1.7245,-0.32172 -3.4055,-0.14813 -3.7354,0.38576 -0.33,0.53388 0.043,6.5368 0.83,13.3398 3.3666,29.12256 9.6125,94.23065 13.034,135.86911 0.7909,9.625 2.3483,28.3 3.4609,41.5 1.8325,21.74228 4.2104,51.73314 7.0169,88.5 2.028,26.5689 5.0576,69.1082 7.4998,105.3083 1.3658,20.2445 2.7475,37.23574 3.0704,37.75824 0.3626,0.5868 22.2567,0.8512 57.273,0.6917 l 56.6859,-0.2582 1.736,-25.50004 z m -171.6556,14.25 c -1.538,-23.8749 -6.6843,-97.9721 -8.0739,-116.25 -6.627,-87.16819 -11.1934,-142.07944 -16.9229,-203.5 -4.6715,-50.0798 -10.2144,-99.55736 -11.255,-100.46713 -0.4557,-0.39845 -5.1036,-2.19031 -10.3286,-3.98191 -40.2988,-13.81799 -70.9058,-41.68271 -81.8878,-74.55096 -7.71916,-23.10268 -6.09517,-44.16904 5.0644,-65.69538 9.5733,-18.46656 27.4517,-33.8332 44.4677,-38.22043 28.1033,-7.24586 56.0083,10.94436 73.4218,47.861 2.6868,5.69613 5.993,14.17943 7.347,18.85177 2.3467,8.09788 6.5923,31.85791 10.1322,56.70304 0.9011,6.325 1.8575,11.72291 2.1253,11.99537 1.0869,1.10603 23.9599,1.14243 33.3305,0.053 10.902,-1.2674 19.9989,-3.57254 19.9989,-5.06769 0,-0.51802 -1.5151,-3.31308 -3.3668,-6.21126 -16.4081,-25.68085 -24.7339,-58.35907 -21.7057,-85.19271 3.0613,-27.12646 16.8684,-49.34424 36.8934,-59.36703 11.8724,-5.94233 20.317,-7.53407 36.9815,-6.97068 15.3082,0.51753 23.5318,2.68916 33.8389,8.93592 6.7767,4.10706 16.5375,13.82801 21.0146,20.9288 4.4299,7.02584 9.1617,19.43975 10.9274,28.66819 1.8662,9.75349 1.803,29.74615 -0.129,40.8471 -2.8764,16.52683 -11.3449,37.92654 -20.952,52.94478 -1.9895,3.11006 -3.4129,5.85895 -3.1632,6.10866 1.0746,1.07466 11.8517,3.35196 20.7683,4.38858 12.0893,1.40545 31.6645,0.9325 32.7272,-0.79071 0.417,-0.67633 1.5681,-6.97633 2.5578,-14 5.103,-36.21342 8.1522,-50.70291 13.5977,-64.61509 13.9894,-35.73999 38.3812,-57.65523 64.1707,-57.65523 26.1696,0 52.1664,21.90664 63.0751,53.1512 3.1742,9.09146 3.2625,9.78923 3.2073,25.3488 -0.055,15.34977 -0.1886,16.38608 -3.2992,25.5 -5.9133,17.32542 -14.4765,30.3811 -28.971,44.16996 -4.816,4.58152 -12.3376,10.72383 -16.7147,13.64957 -9.6597,6.45672 -27.1027,15.08142 -37.9584,18.76851 -4.3999,1.49445 -8.5134,3.211 -9.141,3.81457 -2.7216,2.61743 -16.0864,143.85032 -25.843,273.09739 -0.8719,11.55 -2.233,29.55 -3.0248,40 -0.7917,10.45 -2.3723,32.725 -3.5126,49.5 -1.1402,16.775 -2.6801,38.6 -3.422,48.5 -0.7419,9.9 -1.143,18.33924 -0.8914,18.75374 1.1102,1.8292 16.6664,-3.36814 28.6602,-9.57534 13.8399,-7.1627 33.8746,-22.5181 40.0509,-30.6967 5.9428,-7.8695 12.9684,-22.2397 15.1634,-31.0154 1.1196,-4.4764 1.8882,-14.4672 2.4974,-32.4663 0.9235,-27.2814 2.243,-39.32061 6.5408,-59.67951 3.8362,-18.17221 14.9445,-53.07299 24.9354,-78.34357 3.2925,-8.32802 19.4538,-40.93561 27.2482,-54.97692 26.6921,-48.0847 48.8855,-85.4885 69.4215,-117 57.7418,-88.60192 78.5623,-168.7753 72.8016,-280.33577 -4.7227,-91.46008 -30.5337,-159.2001 -86.432,-226.8377 -10.6609,-12.8998 -38.3673,-40.81798 -51.265,-51.65678 -27.4149,-23.03855 -59.3151,-41.92324 -99.7876,-59.07353 -91.5691,-38.8026 -187.7074,-44.28573 -279.5,-15.94094 -47.25,14.59045 -90.4283,35.04688 -122.6879,58.12544 -30.21854,21.61841 -64.55801,55.67323 -87.94829,87.21928 -38.82318,52.36014 -61.91835,111.1706 -69.31247,176.5 -3.29081,29.07539 -4.00565,81.54457 -1.52823,112.17136 5.65596,69.92088 27.79666,132.04694 70.3187,197.31188 35.447,54.40579 83.55895,139.37332 96.55329,170.51676 5.3824,12.89993 18.0834,49.65893 22.1729,64.1722 7.2593,25.76282 10.4213,47.4962 10.4494,71.8217 0.032,27.3861 2.224,40.0979 9.487,55.0061 5.6553,11.6084 11.5802,18.9736 21.7791,27.0733 16.7072,13.2685 31.8514,21.9215 45.4742,25.9827 11.4207,3.40464 10.6207,4.08114 9.8228,-8.306 z m -43.5804,-482.73168 c 0,-1.6774 -5.0719,-30.94424 -6.0705,-35.02948 -2.7183,-11.12026 -13.5704,-30.48884 -17.0827,-30.48884 -2.2749,0 -6.6554,5.38803 -9.6152,11.82688 -6.8936,14.9966 2.4927,34.78047 23.0612,48.60671 7.7229,5.19133 9.7072,6.23072 9.7072,5.08473 z m 323,-5.45549 c 7.9351,-5.35625 16.8718,-15.08327 20.475,-22.28564 6.2268,-12.44651 5.5245,-22.76834 -2.2445,-32.98741 -4.6083,-6.06174 -6.0291,-6.55387 -8.8867,-3.07817 -3.4644,4.21372 -10.9543,19.07537 -12.7447,25.28839 -1.6245,5.63705 -6.5991,33.60835 -6.5991,37.10515 0,1.81417 0.1865,1.8461 2.75,0.47071 1.5125,-0.81152 4.775,-2.84239 7.25,-4.51303 z m -159.1006,-28.60767 c 6.0426,-12.17074 8.4719,-21.97007 8.5418,-34.45516 0.066,-11.74427 -1.6331,-17.95268 -6.047,-22.09933 -2.2582,-2.12153 -3.4863,-2.40067 -10.5614,-2.40067 -7.5052,0 -8.1549,0.17304 -10.3856,2.76638 -5.1978,6.04286 -6.9747,21.86423 -4.0207,35.79937 1.9084,9.00236 6.4262,20.26226 10.9815,27.36942 l 3.804,5.93516 1.8466,-2.43516 c 1.0157,-1.33935 3.644,-6.05535 5.8408,-10.48001 z"
           style="fill:#d0e7f6" />
        <path
           inkscape:connector-curvature="0"
           id="path3008"
           d="m 1228.3572,1136.2316 c -38.1333,-3.084 -77.5635,-31.508 -94.4101,-68.0573 -5.2073,-11.2976 -6.9076,-18.1993 -6.362,-25.8246 0.9003,-12.5839 8.3857,-23.2975 20.0377,-28.6794 5.3646,-2.4778 7.4202,-2.873 14.7344,-2.8327 15.8403,0.087 24.7671,6.7398 33.5234,24.983 6.6741,13.9049 13.0844,20.6916 25.2279,26.7095 7.7049,3.8182 8.9404,4.1197 18.6533,4.5516 12.5073,0.5563 20.7752,-1.5222 30.1452,-7.5783 8.5252,-5.5102 13.774,-12.0153 20.0199,-24.812 6.1272,-12.5534 10.1291,-16.9605 19.3102,-21.2654 4.6907,-2.1995 7.0256,-2.6352 14.1201,-2.6352 10.3269,0 17.4055,2.8529 24.3776,9.825 5.5365,5.5365 8.0702,10.38 9.6617,18.4696 1.4889,7.5678 0.4782,13.699 -4.0517,24.5805 -8.8507,21.2602 -24.5698,40.2469 -44.0659,53.226 -17.2585,11.4894 -35.0263,17.8402 -54.4217,19.4522 -12.0718,1.0032 -12.7389,1.0004 -26.5,-0.1125 z m -138.6858,-125.798 c -7.3587,-2.5428 -12.6742,-6.3522 -16.3806,-11.73921 -10.8775,-15.81 -6.1392,-36.831 10.3512,-45.9214 6.6402,-3.6604 6.1928,-3.5751 68.2152,-13.0086 79.1454,-12.0378 68.5363,-10.4128 182.6842,-27.9808 26.7763,-4.1211 50.4969,-7.4928 52.7124,-7.4928 12.0861,0 25.2255,10.1805 29.0278,22.4909 2.5778,8.346 2.5858,10.6464 0.065,18.8071 -1.4289,4.6263 -3.3224,7.9681 -6.5474,11.555 -7.0568,7.8488 -11.8244,9.6348 -34.9423,13.0899 -11,1.644 -33.275,5.0485 -49.5,7.5655 -118.1097,18.3228 -224.7685,34.48641 -227.3841,34.45901 -1.7137,-0.018 -5.4494,-0.8391 -8.3016,-1.8246 z m 2.0184,-85.10201 c -5.7867,-1.3783 -13.7508,-6.6311 -17.4921,-11.5369 -12.2535,-16.0678 -7.2535,-38.7862 10.4451,-47.4588 6.1963,-3.0363 15.741,-4.7868 74.2144,-13.6111 5.5,-0.83 39.25,-6.0153 75,-11.523 35.75,-5.5076 72.2,-11.0946 81,-12.4155 8.8,-1.3209 27.925,-4.2602 42.5,-6.5318 17.5392,-2.7335 28.3809,-3.9707 32.0625,-3.6587 11.9561,1.0131 23.2147,10.3777 26.9271,22.397 1.1057,3.5798 2.0104,7.7639 2.0104,9.298 0,6.1297 -3.9298,15.7056 -8.5578,20.853 -7.1341,7.9348 -11.4557,9.4615 -38.4422,13.5806 -12.925,1.9728 -27.55,4.2518 -32.5,5.0644 -4.95,0.8125 -22.275,3.4964 -38.5,5.9641 -51.731,7.868 -139.5366,21.3383 -169.5,26.0031 -29.3077,4.5628 -33.4395,4.94 -39.1674,3.5756 z m -0.9679,-86.1299 c -4.8444,-1.404 -12.4525,-6.9551 -16.0729,-11.7273 -11.0537,-14.5705 -6.5913,-36.4774 9.3313,-45.8086 10.138,-5.9413 7.1504,-5.7596 100.5719,-6.119 82.7685,-0.3185 85.7292,-0.2661 86.6927,1.5342 0.5486,1.0251 1.2981,4.1302 1.6656,6.9001 1.2917,9.7373 -4.3192,22.23 -12.7164,28.3128 -6.0051,4.3501 -10.7345,5.7234 -29.3369,8.5184 -9.35,1.4048 -27.125,4.1136 -39.5,6.0196 -12.375,1.906 -27,4.1459 -32.5,4.9776 -5.5,0.8317 -14.05,2.1664 -19,2.966 -36.0161,5.8179 -42.3612,6.3895 -49.1353,4.4262 z m 33.6353,-81.5654 c -20.2811,-3.3223 -33.2306,-7.3774 -50.5,-15.8142 -27.4361,-13.4037 -55.1672,-35.0181 -69.1768,-53.9185 -14.91122,-20.11674 -24.32044,-41.81234 -28.90213,-66.64194 -0.94191,-5.1045 -1.90578,-19.0022 -2.42541,-34.9709 -1.32323,-40.66437 -3.77705,-52.36213 -21.18664,-101 -4.9551,-13.84326 -9.95942,-25.30179 -17.25093,-39.5 -19.54508,-38.05862 -47.15133,-85.90419 -71.83483,-124.5 -25.98565,-40.6319 -36.53954,-59.23443 -48.50726,-85.5 -19.73387,-43.30994 -33.104,-89.87116 -39.1962,-136.5 -4.4879,-34.34976 -4.7429,-102.86476 -0.53035,-142.5 5.70257,-53.65456 19.17935,-100.87693 41.95229,-147 15.86698,-32.13609 31.4707,-56.27014 55.39524,-85.67899 13.18208,-16.20386 47.6387,-51.23128 62.66297,-63.70102 39.33377,-32.64598 79.16185,-55.56116 131.00005,-75.37119 49.2169,-18.80832 89.2364,-28.44147 136,-32.73676 14.379,-1.32074 68.803,-1.29544 83.5,0.0388 45.9023,4.16723 87.8038,14.16884 132,31.50752 74.1164,29.07675 125.4338,63.41664 175.743,117.60136 68.2984,73.55967 105.6332,153.48896 116.7,249.84026 5.1536,44.86879 4.7672,108.27218 -0.9221,151.28613 -6.5692,49.66725 -21.1975,98.26294 -43.4214,144.24754 -9.8945,20.47332 -20.9358,39.693 -37.6089,65.46633 -27.1971,42.04155 -63.2039,104.34052 -80.0483,138.5 -11.3774,23.07255 -25.5374,62.59433 -30.8125,86 -3.277,14.5402 -3.8006,19.7092 -4.6593,46 -0.9835,30.1087 -2.8063,43.7285 -7.9609,59.4824 -9.3149,28.469 -25.4723,52.13266 -48.0096,70.31346 -28.8718,23.2907 -53.6029,36.0456 -84,43.3222 -6.9755,1.6698 -15.8232,1.8074 -126.5,1.9662 -65.45,0.094 -120.125,-0.014 -121.5,-0.2387 z m 175.7197,-69.5955 c 0.5305,-0.6875 1.5129,-10.47504 2.1831,-21.75004 6.1162,-102.8939 23.2086,-309.38099 32.1175,-388 0.5298,-4.675 0.9669,-9.66762 0.9715,-11.09471 l 0.01,-2.59472 -15.4691,-0.667 c -26.7566,-1.15369 -47.2728,-5.81427 -67.8039,-15.40274 l -9.773,-4.56422 -9.727,4.57755 c -22.1683,10.43249 -39.5184,14.37004 -67.5075,15.32063 -8.328,0.28284 -15.2689,0.64136 -15.4243,0.7967 -0.1553,0.15535 0.1553,3.84782 0.6903,8.20548 4.3552,35.47586 14.0308,142.35171 20.9961,231.92303 5.0986,65.5662 7.1607,93.9304 11.0141,151.5 1.1229,16.775 2.2441,31.06254 2.4916,31.75004 0.3528,0.9801 12.7384,1.25 57.3589,1.25 44.3461,0 57.1219,-0.2759 57.8736,-1.25 z m -169.1114,-1.1719 c 1.1566,-3.01384 -12.2419,-185.82547 -20.124,-274.57814 -8.5686,-96.4825 -14.7778,-154.77212 -16.6711,-156.50194 -0.7223,-0.65996 -5.5882,-2.65752 -10.8132,-4.43902 -36.6857,-12.50829 -67.1573,-38.68576 -78.9628,-67.8352 -6.69228,-16.52413 -8.48189,-36.2035 -4.69391,-51.61626 3.91441,-15.92715 15.17931,-34.04561 27.47111,-44.18444 24.9113,-20.54803 52.5301,-19.26662 75.2616,3.49185 8.5658,8.57605 13.8353,15.96462 19.6735,27.58501 8.3418,16.60352 11.307,28.00156 16.7798,64.5 1.4432,9.625 2.937,19.52231 3.3195,21.99402 0.8369,5.40762 1.6959,5.71088 16.6774,5.88767 14.554,0.17174 37.0573,-3.04716 39.6581,-5.67276 0.3863,-0.38991 -0.8963,-3.18393 -2.8501,-6.20893 -8.9821,-13.90677 -17.2742,-34.10555 -20.9585,-51.05258 -2.7751,-12.76495 -2.5255,-36.55415 0.5029,-47.94742 7.1933,-27.06138 23.1778,-44.29768 47.2726,-50.9747 9.3373,-2.5875 29.9111,-2.8282 39.2044,-0.45867 11.2642,2.87203 20.3914,8.1456 29.269,16.91122 6.8285,6.74241 8.8477,9.53765 12.6573,17.52215 6.5267,13.67921 7.9054,19.88451 8.4512,38.0384 0.3578,11.90061 0.076,17.62796 -1.2053,24.46372 -3.3841,18.06007 -11.0607,37.4671 -20.63,52.1547 -2.4432,3.75001 -3.8217,6.80228 -3.2979,7.30237 1.8119,1.72971 11.9046,4.03025 22.5894,5.14901 10.3135,1.07989 31.1655,0.87029 32.3611,-0.32529 0.2998,-0.29978 1.0023,-3.63607 1.5613,-7.41398 6.5646,-44.37231 8.5651,-55.12827 12.2893,-66.07807 4.9663,-14.60158 13.6602,-30.50157 22.3846,-40.93879 8.3059,-9.93658 22.3138,-18.90952 33.3556,-21.36641 7.444,-1.65637 19.8258,-0.81707 27.248,1.84699 16.3395,5.86482 34.2887,23.86937 42.5214,42.65271 6.4612,14.74131 8.0497,35.189 4.0067,51.57425 -8.8209,35.74913 -40.935,66.47974 -85.6809,81.98964 -7.249,2.51265 -9.3607,3.672 -9.7101,5.33086 -1.7499,8.31021 -9.2853,85.01335 -17.0074,173.11989 -3.7307,42.56674 -11.1324,139.3782 -15.0234,196.5 -0.8804,12.925 -2.1538,31.5074 -2.8298,41.2942 -0.676,9.7868 -0.9614,18.22744 -0.6342,18.75684 0.8972,1.4517 15.3046,-2.53264 23.9685,-6.62834 17.2209,-8.1409 38.9207,-24.2744 46.6655,-34.6951 6.0464,-8.1355 12.6955,-22.3213 14.8712,-31.7276 1.2414,-5.3672 1.9584,-14.7514 2.5213,-33 1.0412,-33.75516 3.4478,-49.83018 11.9741,-79.98427 3.6998,-13.08455 15.58,-47.27075 20.6827,-59.51573 13.0769,-31.38119 60.0807,-114.45976 96.4646,-170.5 43.1663,-66.48675 64.2889,-126.32564 70.9513,-201 1.6075,-18.01814 1.6291,-69.34948 0.038,-90.5 -4.2058,-55.90806 -16.6543,-101.56829 -39.9409,-146.5 -27.4008,-52.87024 -76.0459,-107.60622 -125.2278,-140.90782 -39.2503,-26.57675 -93.2914,-49.96773 -142,-61.46283 -59.7419,-14.09893 -125.1072,-14.11031 -184,-0.032 -34.3772,8.21781 -71.792,22.10446 -105.1172,39.01463 -39.6974,20.14364 -73.03745,45.83875 -104.56295,80.58657 -28.36603,31.26542 -47.00837,58.41095 -63.38853,92.30149 -19.81234,40.99173 -30.9617,82.90558 -35.11286,132 -1.70594,20.1755 -1.7116,84.94763 -0.009,102.5 4.97925,51.33088 18.29849,97.2816 41.81739,144.26789 8.83731,17.65528 13.49861,25.70629 27.92497,48.23211 31.93506,49.8645 59.35089,96.87553 83.68615,143.5 9.56543,18.32662 14.99383,30.96506 22.76433,53 17.942,50.87832 21.5983,68.39759 23.0506,110.4477 1.1561,33.4749 2.6509,42.123 9.6844,56.0307 6.6517,13.153 12.5095,19.7893 27.1396,30.7465 16.1391,12.0874 30.0495,19.3772 44.2837,23.20694 6.815,1.8336 6.8004,1.8333 7.4477,0.1463 z m -43.6083,-492.36278 c 0,-1.77702 -5.121,-31.82471 -6.1517,-36.09526 -1.4564,-6.03448 -8.8443,-21.47069 -12.8603,-26.8701 -1.7386,-2.3375 -3.9339,-4.25 -4.8784,-4.25 -2.2864,0 -7.3362,5.42745 -10.2345,11 -1.8805,3.61552 -2.3423,6.07241 -2.3497,12.5 -0.01,7.05557 0.3875,8.81334 3.3504,14.88962 2.2835,4.68274 5.6442,9.1871 10.4919,14.06204 9.3417,9.39431 22.6322,18.06412 22.6322,14.7637 z m 316.9121,-1.85949 c 16.368,-9.43344 27.0046,-22.54347 30.1358,-37.14364 1.9543,-9.11269 -3.4482,-23.15227 -10.7502,-27.93673 -2.5426,-1.66592 -2.6316,-1.63812 -5.4081,1.68765 -3.2305,3.86962 -8.7686,14.09752 -11.7881,21.77077 -1.92,4.87884 -8.1015,36.91787 -8.1015,41.98988 0,2.87017 0.3292,2.84968 5.9121,-0.36793 z m -157.8497,-24.10587 c 10.1628,-15.99326 15.3201,-36.33176 13.0017,-51.27424 -2.2317,-14.38413 -6.8048,-18.67175 -18.8809,-17.70239 -11.3566,0.91159 -14.7228,6.95083 -14.6181,26.22663 0.067,12.38748 0.8181,16.40153 5.1439,27.5 2.7162,6.96892 10.2371,20 11.543,20 0.4356,0 2.1503,-2.1375 3.8104,-4.75 z"
           style="fill:#afd8f1" />
        <path
           inkscape:connector-curvature="0"
           id="path3006"
           d="m 1218.3572,1134.3239 c -23.352,-5.017 -43.2037,-15.8939 -60.042,-32.8975 -5.248,-5.2996 -12.1785,-13.6129 -15.4011,-18.4741 -6.9271,-10.4495 -13.3814,-24.8813 -14.6497,-32.7569 -2.3014,-14.2902 5.0939,-28.674 18.3084,-35.6096 4.746,-2.4909 6.3031,-2.7746 15.2844,-2.7842 8.6412,-0.01 10.6793,0.3257 15,2.4653 8.0261,3.9748 12.7299,9.525 18.8343,22.2233 4.643,9.6583 6.4509,12.3037 11.8564,17.3483 20.7647,19.3784 51.1366,19.0667 70.9769,-0.7283 4.3586,-4.3487 7.0152,-8.3779 11.3302,-17.1846 8.7158,-17.7885 16.2988,-23.6643 31.5022,-24.4098 11.4477,-0.5614 18.2954,1.94 25.7681,9.4127 7.8256,7.8256 9.7511,12.6876 9.648,24.3623 -0.074,8.3597 -0.4689,10.4002 -3.2909,17 -4.3214,10.1061 -10.1525,19.8428 -17.7545,29.646 -16.6217,21.4347 -42.292,36.9935 -70.5786,42.7778 -10.9186,2.2328 -35.5379,2.0272 -46.7921,-0.3907 z m -129.1178,-124.4137 c -8.0242,-2.8674 -14.1331,-8.0716 -17.7756,-15.14301 -8.1314,-15.786 -1.7948,-34.7112 14.1853,-42.3663 5.5953,-2.6804 11.7851,-3.823 62.708,-11.5759 108.3397,-16.4945 128.6863,-19.6092 157,-24.0343 83.0842,-12.985 84.8923,-13.1602 93.6643,-9.0759 6.4197,2.9891 12.2446,8.7158 15.4128,15.1531 1.993,4.0494 2.4205,6.4311 2.4089,13.4229 -0.012,7.2365 -0.4059,9.2432 -2.6504,13.5 -3.2969,6.2528 -8.843,11.8411 -14.4411,14.5511 -4.4601,2.1591 -8.241,2.8227 -70.8945,12.4432 -19.8,3.0403 -63.9,9.8147 -98,15.0541 -34.0999,5.2394 -64.925,9.95381 -68.5,10.47641 -3.575,0.5225 -18.1848,2.7558 -32.4663,4.9627 -27.4817,4.2467 -34.8058,4.7209 -40.6514,2.6319 z m -3.66,-87.66621 c -17.5563,-8.773 -23.0219,-30.542 -11.6136,-46.2554 3.768,-5.1898 10.7574,-10.1808 16.376,-11.6936 4.2012,-1.1312 33.8505,-5.7558 195.5154,-30.4957 30.8,-4.7134 64.593,-9.9061 75.0955,-11.5392 23.7805,-3.6978 31.0735,-3.8022 38.0687,-0.5453 6.4197,2.9891 12.2446,8.7158 15.4128,15.1531 1.993,4.0494 2.4205,6.4311 2.4089,13.4229 -0.012,7.2662 -0.4031,9.2414 -2.6947,13.6076 -3.4662,6.6044 -11.5215,13.8277 -17.571,15.7561 -2.5961,0.8276 -9.6702,2.2362 -15.7202,3.1302 -6.05,0.8939 -25.175,3.8334 -42.5,6.532 -17.325,2.6986 -47.7,7.3789 -67.5,10.4006 -19.8,3.0216 -55.35,8.4706 -79,12.1088 -23.65,3.6382 -45.9167,7.0441 -49.4814,7.5685 -3.5648,0.5245 -13.372,2.0657 -21.7937,3.4249 -21.0709,3.4007 -27.2489,3.2991 -35.0027,-0.5755 z m 6.1019,-83.3927 c -9.2014,-2.8771 -17.9165,-10.9811 -20.749,-19.2941 -2.0219,-5.9339 -2.0143,-15.6212 0.017,-21.5825 2.1097,-6.1917 9.2604,-13.9806 15.7053,-17.1069 10.7732,-5.2258 17.1283,-5.5686 103.3302,-5.573 72.4458,0 79.2434,0.1359 80.5,1.6527 0.9331,1.1264 1.3648,4.4073 1.3485,10.25 -0.02,7.3252 -0.4148,9.3405 -2.6723,13.6568 -3.1335,5.9908 -9.3834,11.9207 -15.3424,14.5566 -3.704,1.6385 -45.962,8.7836 -84.9614,14.3656 -5.5,0.7873 -22.9584,3.475 -38.7965,5.9728 -31.3746,4.9481 -32.2492,5.0188 -38.3793,3.102 z m 33.6759,-81.6626 c -31.6772,-3.7267 -64.7631,-19.2716 -96.3995,-45.2919 -12.8977,-10.608 -19.8629,-18.2354 -28.7245,-31.45524 -8.8706,-13.2335 -14.82055,-25.6783 -19.19634,-40.1508 -5.11907,-16.9309 -6.71685,-29.1246 -7.66548,-58.5 -1.26557,-39.19019 -4.60012,-53.68784 -24.90305,-108.27136 C 939.00742,448.08417 894.08648,368.06377 857.46249,311.40516 838.54283,282.13578 826.53718,260.77918 815.79897,237.29075 791.48912,184.11616 777.69689,130.84386 773.29286,73.1115 c -1.37932,-18.08155 -0.71249,-87.32138 1.01913,-105.82075 10.21545,-109.13422 50.23365,-195.95161 126.01004,-273.3722 40.69818,-41.58126 75.89982,-67.22334 124.53517,-90.71567 19.0306,-9.19236 22.637,-10.69835 50.2189,-20.9707 57.878,-21.55552 108.9251,-30.94143 168.281,-30.94143 67.6864,0 125.3943,12.21573 192.5,40.74879 49.9088,21.22097 86.6287,44.15205 124.0375,77.45962 49.3637,43.95193 91.0217,99.64592 114.9852,153.72759 21.9271,49.48589 33.1522,97.92311 36.9783,159.564 5.5309,89.10527 -5.3408,164.27127 -33.9821,234.94913 -12.3301,30.427 -26.9799,57.83669 -50.0006,93.55087 -42.1723,65.42579 -81.5044,136.70052 -93.8125,170 -18.1299,49.05033 -21.302,63.80924 -22.6743,105.5 -0.6587,20.012 -1.4043,29.5882 -2.8808,37 -7.1036,35.6585 -24.888,65.92794 -51.5775,87.78564 -28.5375,23.3713 -55.196,37.031 -85.5732,43.8472 l -10.5,2.3561 -114,0.1457 c -62.6999,0.08 -117.375,-0.2514 -121.5,-0.7367 z m 176.0064,-69.1479 c 0.05,-9.54794 12.6929,-183.13996 16.9884,-233.25004 0.5186,-6.05 1.8663,-21.8 2.9949,-35 4.3178,-50.49931 10.6337,-116.55239 13.5604,-141.81727 0.8166,-7.0495 1.2253,-13.237 0.9083,-13.75 -0.3171,-0.513 -5.8374,-0.93642 -12.2675,-0.94093 -26.8103,-0.0188 -48.89,-4.76096 -71.6174,-15.38155 l -9.7373,-4.55024 -7.6681,3.85443 c -21.0928,10.60241 -45.5851,16.02519 -72.5632,16.06604 l -12.895,0.0195 0.5871,6.75 c 0.3229,3.7125 1.9463,19.8 3.6076,35.75 5.1879,49.80703 12.4223,131.69465 17.5807,199 0.801,10.45 2.3583,30.7 3.4608,45 2.818,36.5511 7.8646,109.601 8.6009,124.5 0.3398,6.875 0.7916,13.06256 1.004,13.75006 0.3032,0.9814 12.9651,1.25 58.9176,1.25 46.1549,0 58.5327,-0.2643 58.5378,-1.25 z m -169.6724,-0.5 c 0.2487,-0.4125 -0.1726,-9.75004 -0.9362,-20.75004 -6.5192,-93.9172 -8.1196,-115.6325 -13.4499,-182.5 -8.8563,-111.09832 -20.1023,-226.45269 -22.2931,-228.66742 -0.6352,-0.64208 -4.7548,-2.35442 -9.1548,-3.8052 -10.4934,-3.4599 -28.2639,-12.01173 -37.2175,-17.91037 -24.376,-16.05896 -41.5517,-38.72516 -47.8679,-63.16946 -2.29748,-8.8917 -2.52127,-11.3274 -2.10842,-22.94755 0.34277,-9.64755 1.03329,-14.80517 2.67762,-20 8.7765,-27.72629 31.5537,-49.85354 55.2165,-53.64085 15.0787,-2.4134 30.2969,3.12034 43.9799,15.99235 4.3174,4.06151 10.2687,11.04395 13.2251,15.51654 14.2837,21.60892 18.658,36.22462 25.985,86.82145 1.3293,9.17922 2.7118,17.16672 3.0723,17.75 1.0194,1.64944 31.4654,1.33442 41.4872,-0.42927 10.2546,-1.80464 15.0502,-3.31171 15.0502,-4.72971 0,-0.58541 -1.7482,-3.83241 -3.8849,-7.21556 -8.8075,-13.94579 -15.4256,-29.55642 -19.3127,-45.55429 -2.9663,-12.20875 -3.6371,-35.78272 -1.3409,-47.12549 7.7408,-38.23705 34.1313,-59.36897 71.9867,-57.64265 26.2,1.19481 45.5312,13.58859 56.5526,36.25748 6.753,13.88971 8.4922,22.43103 8.4504,41.5 -0.032,14.42491 -0.368,17.82605 -2.6748,27.04408 -4.3109,17.22674 -11.2748,33.44568 -19.9312,46.4203 -4.7489,7.11783 -4.5107,7.48843 6.5231,10.14841 9.6503,2.32648 44.6705,3.26368 46.3169,1.23953 0.605,-0.74378 2.0869,-8.32732 3.2931,-16.85232 5.4323,-38.39122 8.6579,-52.58824 15.4697,-68.08707 15.9798,-36.35893 43.0975,-56.06814 69.6838,-50.64642 14.0712,2.86953 25.845,10.33455 37.0568,23.49548 23.816,27.95612 25.9855,66.02493 5.656,99.24673 -6.3363,10.35459 -23.8589,28.21468 -34.84,35.51102 -10.5931,7.03863 -26.3687,14.77733 -37.7648,18.52559 -5.3569,1.76192 -10.0555,3.48572 -10.4414,3.83065 -0.78,0.69725 -7.3184,59.85641 -11.2317,101.62402 -6.3272,67.53087 -14.9101,174.53643 -21.0151,262 -0.8446,12.1 -2.2142,31.3452 -3.0436,42.7672 -1.9983,27.51824 -2.0212,26.73284 0.7819,26.73284 3.6024,0 13.5997,-2.84344 20.1904,-5.74254 15.8718,-6.9817 41.7059,-25.542 48.6745,-34.97 8.7395,-11.8237 13.6526,-22.4876 16.4185,-35.6364 0.904,-4.2974 1.8479,-17.5079 2.4017,-33.6154 0.9423,-27.402 2.14,-37.89044 6.5956,-57.75648 6.3919,-28.4995 20.8161,-69.0972 34.5601,-97.27106 19.1217,-39.19782 56.933,-104.87611 86.1249,-149.59906 20.0502,-30.71757 34.1673,-57.37297 45.1565,-85.26307 14.5342,-36.88699 22.3314,-69.53655 26.7822,-112.14603 1.7136,-16.40534 1.6989,-86.6298 -0.022,-104.5 -8.3788,-87.01436 -38.7085,-155.72016 -97.3571,-220.54319 -10.5711,-11.68407 -31.0032,-31.21544 -43.3152,-41.40576 -25.3055,-20.94467 -58.173,-40.15156 -95.5,-55.80773 -57.7071,-24.20418 -104.4415,-33.95282 -163,-34.00127 -45.0752,-0.0373 -85.0988,6.28931 -125.8742,19.89716 -55.1841,18.4164 -95.2869,39.14662 -131.8101,68.13608 -14.15588,11.23592 -49.30646,46.51348 -61.50254,61.72471 -33.01873,41.18172 -55.87585,85.06067 -68.73017,131.94174 -10.54289,38.45104 -14.47302,73.09932 -14.46885,127.55826 0.004,49.1632 4.0254,80.6274 15.50003,121.26819 11.07116,39.21177 31.59173,83.2528 54.8419,117.70104 14.58092,21.6036 51.07881,82.80687 70.08817,117.53077 11.36396,20.75824 25.73566,49.53696 29.46386,59 5.7061,14.48335 16.4526,45.45158 19.9485,57.48538 7.8823,27.13302 10.3337,44.0622 11.5137,79.51462 0.7,21.0313 1.2614,27.5288 2.9376,34 2.5779,9.9519 9.5472,24.1646 15.5807,31.7739 7.3836,9.3122 27.1108,24.1457 42.5114,31.9659 12.1907,6.19024 26.9209,10.35454 28.334,8.01024 z m -44.334,-494.36401 c 0,-4.50183 -4.6721,-31.41972 -6.5758,-37.88603 -3.31,-11.24295 -14.2695,-29 -17.8986,-29 -2.0539,0 -7.5681,6.85101 -10.2775,12.76911 -2.0793,4.54177 -2.4001,6.53731 -2.1011,13.06734 0.6552,14.30749 9.4946,27.22626 26.1256,38.18261 4.9932,3.28951 9.4496,5.98094 9.903,5.98094 0.4534,0 0.8244,-1.40129 0.8244,-3.11397 z m 323,-3.91339 c 8.5053,-5.78103 17.5913,-15.88652 21.2734,-23.66053 2.7988,-5.90909 3.2266,-7.8726 3.2266,-14.81211 0,-6.24547 -0.4868,-8.98692 -2.2196,-12.5 -2.6618,-5.39665 -8.8387,-12 -11.225,-12 -3.0971,0 -12.4762,15.58344 -16.4546,27.33928 -1.9635,5.80198 -7.8077,40.51702 -7.0322,41.77183 0.6551,1.05989 4.99,-1.08064 12.4313,-6.13847 z m -160.5177,-25.38537 c 12.1493,-21.76287 14.0901,-51.21485 4.0373,-61.26764 -3.1612,-3.16118 -3.6705,-3.31893 -10.6696,-3.30489 -8.8517,0.0178 -11.6429,1.2741 -14.5537,6.55073 -8.0657,14.62153 -2.8983,45.50156 10.7715,64.36999 l 3.2134,4.43545 1.9014,-2.34818 c 1.0458,-1.2915 3.4307,-5.08746 5.2997,-8.43546 z"
           style="fill:#8fc8eb" />
        <path
           inkscape:connector-curvature="0"
           id="path3004"
           d="m 1222.8572,1134.8125 c -41.5611,-7.2779 -78.577,-38.0418 -91.7473,-76.2513 -4.0099,-11.6336 -3.6562,-19.9191 1.2426,-29.1104 3.8954,-7.3084 8.3041,-11.4684 15.959,-15.0589 4.6527,-2.1823 6.9143,-2.5932 14.0457,-2.5518 7.5185,0.044 9.2066,0.4129 14.6198,3.1987 7.4231,3.8201 13.3611,10.3105 16.4848,18.0184 5.1436,12.6924 11.1942,20.5824 20.5419,26.7871 16.2803,10.8062 35.895,11.6137 53.6242,2.2074 6.7104,-3.5602 17.2085,-14.3065 20.3605,-20.8419 1.1722,-2.4305 3.3238,-6.9676 4.7813,-10.0827 3.3352,-7.1279 9.138,-12.9771 16.4238,-16.555 4.8847,-2.3988 6.8327,-2.7745 14.1637,-2.7319 10.2476,0.06 15.6444,2.1671 22.8794,8.9346 10.8875,10.184 13.4459,24.4512 7.1735,40.0043 -14.8086,36.7197 -45.298,63.048 -84.053,72.5817 -11.093,2.7289 -34.9526,3.4737 -46.5,1.4517 z m -132,-124.914 c -8.4638,-2.663 -15.2469,-8.2978 -19.3137,-16.04421 -2.2721,-4.3279 -2.6583,-6.2984 -2.6583,-13.5635 0,-7.2699 0.3835,-9.2236 2.6496,-13.5 3.3725,-6.3643 9.0399,-11.8354 14.971,-14.4526 4.5921,-2.0264 18.5876,-4.4449 75.3514,-13.0215 14.85,-2.2437 31.275,-4.7504 36.5,-5.5704 14.9565,-2.3472 150.6268,-23.2098 169.5,-26.0646 22.3531,-3.3813 29.3991,-2.4408 38.3429,5.118 7.0469,5.9557 11.9691,18.3264 10.6682,26.8118 -1.8431,12.0229 -10.771,22.7162 -21.6227,25.8987 -2.9636,0.8691 -22.4884,4.1205 -43.3885,7.2253 -20.8999,3.1047 -40.25,6.0446 -43,6.5329 -6.971,1.238 -16.4116,2.6954 -87.5,13.5076 -34.375,5.2284 -65.1999,9.96131 -68.5,10.51781 -18.4397,3.1092 -52.2029,7.9877 -54.8836,7.9301 -1.714,-0.037 -4.9164,-0.6332 -7.1164,-1.3254 z m 0,-86.00651 c -8.8849,-2.8099 -15.2534,-8.1953 -19.632,-16.6012 -1.9226,-3.691 -2.3437,-6.0281 -2.342,-13 0,-7.2675 0.3862,-9.225 2.6516,-13.5 3.3885,-6.3944 9.0456,-11.8379 15.0614,-14.4926 3.5045,-1.5465 34.3726,-6.6474 118.5,-19.5817 62.5685,-9.6197 128.386,-19.7628 146.261,-22.5403 21.7856,-3.3851 34.206,-4.8843 37.6749,-4.5476 13.941,1.353 24.2613,10.9406 27.3675,25.4247 2.8079,13.0927 -5.5742,28.2128 -18.6992,33.7304 -1.7362,0.7299 -18.1612,3.6324 -36.5,6.4499 -18.3388,2.8175 -37.3932,5.7807 -42.3432,6.5847 -4.95,0.8041 -31.05,4.8217 -58,8.9281 -64.931,9.8935 -102.5625,15.6782 -133.5,20.5214 -27.6317,4.3256 -30.474,4.53 -36.5,2.6242 z m -0.8021,-86.0451 c -8.3742,-2.9871 -15.139,-9.6755 -18.7678,-18.5561 -2.3373,-5.7199 -1.8191,-17.5695 1.0243,-23.4229 2.9869,-6.1488 8.3371,-11.5716 14.2325,-14.4256 10.2474,-4.9606 13.9997,-5.1515 101.2786,-5.1515 73.7183,0 81.4148,0.1509 82.6342,1.6202 0.853,1.0277 1.339,4.2276 1.3291,8.75 -0.019,8.4973 -3.0486,15.9959 -8.8445,21.8882 -7.0508,7.1681 -9.6286,7.845 -57.5843,15.1211 -12.8117,1.9438 -26.8703,4.1167 -68.694,10.6169 -33.8791,5.2655 -40.4242,5.7654 -46.6081,3.5597 z m 28.8021,-82.1667 c -30.8464,-5.5183 -57.9421,-18.7552 -88.5,-43.2346 -13.3431,-10.6888 -20.5272,-18.5654 -30.1848,-33.09434 -11.7501,-17.677 -18.66033,-34.5216 -22.84613,-55.6906 -1.66282,-8.4095 -2.3438,-16.9814 -3.00852,-37.8699 -1.1569,-36.3548 -3.39274,-48.79675 -14.83761,-82.56757 -11.07352,-32.67504 -17.91624,-48.54556 -31.86675,-73.90944 -14.11067,-25.65508 -19.99655,-36.07879 -31.06937,-55.02299 -15.85386,-27.12393 -24.94343,-41.94953 -39.23838,-64 -49.87395,-76.93232 -74.57874,-145.42449 -83.14025,-230.5 -1.68437,-16.73758 -1.67954,-81.22676 0.008,-103.5 8.21671,-108.46846 44.9391,-193.81919 117.31114,-272.65685 26.19346,-28.53355 51.90861,-50.67313 82.28516,-70.84379 42.02881,-27.908 98.39841,-52.41301 152.95581,-66.49295 99.0812,-25.57048 203.5291,-17.71722 300.2989,22.57896 67.9757,28.30594 109.64,56.15651 157.8656,105.52542 43.9439,44.98581 75.0689,92.05816 96.4641,145.88921 18.8253,47.3649 26.9656,87.90176 30.5235,152 3.9675,71.4796 -4.4486,139.51586 -24.5552,198.50357 -14.2474,41.79849 -31.9563,77.28151 -60.6364,121.49643 -25.5861,39.44488 -59.6675,98.17591 -77.7598,134 -9.4886,18.78805 -15.8496,34.5752 -24.74,61.40137 -9.7165,29.31882 -11.6478,40.57017 -12.8045,74.59863 -1.3498,39.7102 -4.6669,56.1202 -16.0698,79.5 -12.2414,25.09884 -26.7421,41.59564 -53.213,60.53774 -26.3323,18.843 -52.9481,30.2419 -79.1089,33.8805 -5.2378,0.7285 -45.0626,1.0525 -121.9552,0.9921 -94.3608,-0.074 -115.5661,-0.3382 -122.1777,-1.5209 z m 182.0629,-66.1547 c 0.622,-0.4299 1.5759,-9.44704 2.2991,-21.73474 1.4356,-24.3888 8.4209,-123.43853 10.6138,-150.5 0.8245,-10.175 2.4132,-29.975 3.5306,-44 1.1173,-14.025 2.6879,-32.925 3.49,-42 4.118,-46.5861 8.8857,-98.10321 11.0592,-119.5 5.1346,-50.54563 4.9287,-47.57827 3.3708,-48.59253 -0.7845,-0.51078 -3.0084,-0.67719 -4.942,-0.3698 -5.4692,0.8695 -32.1639,-1.33258 -43.0517,-3.55137 -11.5022,-2.344 -24.1744,-6.64497 -35.6232,-12.09055 -4.5047,-2.14266 -8.68,-3.89575 -9.2785,-3.89575 -0.5984,0 -3.7583,1.34791 -7.0219,2.99537 -14.0333,7.08401 -32.8098,12.87599 -48.5091,14.96365 -4.4,0.5851 -14.4459,1.227 -22.3241,1.42645 -7.8782,0.19945 -14.7257,0.76425 -15.2165,1.25512 -0.5234,0.52332 0.1108,10.19261 1.533,23.37595 9.2114,85.38411 21.7084,236.67348 30.5204,369.48346 1.1313,17.05 2.2521,31.56254 2.4907,32.25004 0.3403,0.9808 12.8769,1.2467 58.2151,1.2347 31.7797,-0.01 58.2597,-0.3459 58.8443,-0.75 z m -168.9288,-1.7236 c 0.7019,-1.8291 -1.9331,-41.60244 -10.104,-152.51114 -2.0178,-27.38837 -7.1855,-91.48114 -9.0304,-112 -6.8401,-76.0758 -10.8586,-117.4636 -14.5617,-149.97621 -1.0947,-9.61191 -2.3162,-17.80095 -2.7143,-18.19786 -0.398,-0.39691 -5.4077,-2.35152 -11.1326,-4.34356 -34.857,-12.12892 -62.8337,-34.61899 -75.9808,-61.07997 -17.52479,-35.27181 -11.26986,-72.19934 16.6984,-98.58318 13.1253,-12.3817 25.8053,-17.47825 41.1912,-16.55626 17.966,1.07659 33.7415,11.58871 47.1003,31.38561 13.5963,20.14886 18.4813,36.29403 25.3704,83.85143 1.4341,9.9 2.8358,18.75773 3.1148,19.68384 0.3608,1.19767 2.1417,1.88804 6.168,2.3911 7.1535,0.89376 29.9967,-0.0736 37.2465,-1.57731 7.9552,-1.65001 15,-4.02027 15,-5.04681 0,-0.48865 -1.968,-3.93999 -4.3733,-7.66964 -6.2248,-9.65197 -10.9494,-19.41848 -14.9403,-30.88422 -5.6276,-16.16749 -7.1275,-24.94806 -7.1572,-41.89696 -0.032,-18.29113 1.528,-25.55071 8.7028,-40.5 4.2636,-8.88377 6.2114,-11.65963 12.6537,-18.03365 13.2896,-13.14876 25.9359,-17.96635 47.1619,-17.96635 27.0743,0 44.9216,9.43941 57.8154,30.57855 7.6544,12.54935 11.1371,26.95874 11.1371,46.07974 0,25.38959 -8.1912,52.13711 -22.4334,73.25456 -2.0078,2.97706 -3.5141,6.12167 -3.3472,6.98802 0.3967,2.05983 10.1335,4.67737 22.9354,6.16566 11.5151,1.3387 32.2526,0.92601 33.8523,-0.67369 0.6026,-0.60263 2.3941,-9.89255 3.9811,-20.64426 5.9298,-40.17426 8.9289,-52.39697 16.9287,-68.99175 5.9873,-12.42012 11.5825,-20.40114 20.5141,-29.26116 18.4688,-18.32086 39.4541,-22.45615 60.8242,-11.98579 13.1941,6.46449 26.4938,20.81094 34.24,36.93506 6.1414,12.78351 7.8798,21.72891 7.2742,37.43015 -0.4182,10.84246 -0.9536,14.01738 -3.7919,22.48758 -9.2973,27.74581 -31.304,50.84144 -63.4775,66.61857 -5.5,2.69706 -14.05,6.25745 -19,7.91197 -4.9615,1.65833 -9.5142,3.81561 -10.1458,4.8075 -0.6302,0.98961 -1.9035,8.99929 -2.8296,17.79929 -0.9261,8.8 -2.3384,22.075 -3.1384,29.5 -7.287,67.63199 -16.774,180.82174 -25.8988,309 -5.0064,70.3265 -5.2232,74.47094 -3.9665,75.83974 1.0263,1.1179 2.257,1.0766 7.4316,-0.249 15.4808,-3.96604 32.7817,-13.25224 49.2433,-26.43124 10.505,-8.4101 15.2341,-13.811 21.592,-24.6595 8.2542,-14.0842 11.2122,-28.0578 11.2122,-52.9664 0,-30.093 4.3317,-57.67152 13.9718,-88.95356 6.9403,-22.5208 17.7478,-51.08583 25.1905,-66.58004 19.2679,-40.11181 56.3158,-104.60908 89.8501,-156.42128 39.8446,-61.56197 60.6708,-116.38602 68.9245,-181.44044 5.8486,-46.09834 4.8856,-105.60945 -2.4377,-150.63828 -12.6167,-77.57635 -48.3046,-144.68923 -108.9387,-204.86489 -36.8663,-36.5876 -71.2759,-59.24941 -123.6366,-81.42588 -58.8561,-24.92749 -112.543,-35.45197 -172.9239,-33.89906 -50.1573,1.28998 -89.0497,9.25337 -141.5,28.97276 -64.4138,24.21718 -112.32379,57.12457 -156.75378,107.66772 -45.15156,51.36399 -73.06572,106.61244 -86.16968,170.54935 -5.77251,28.16523 -8.55429,61.22431 -8.56792,101.82242 -0.0316,94.19328 20.85789,163.77773 73.39482,244.48328 38.34975,58.91166 84.91764,142.25527 97.88906,175.1943 7.4053,18.80467 20.3551,58.64002 23.1419,71.18776 4.4761,20.15386 5.6568,30.51914 6.5854,57.81224 1.1293,33.1877 2.5154,41.1263 9.6805,55.4403 7.7282,15.4389 15.9452,23.9272 37.0428,38.266 11.576,7.8674 23.4931,13.6601 33.4932,16.28034 8.9546,2.3464 9.6845,2.3832 10.3978,0.5245 z m -43.6341,-492.79578 c 0,-2.77236 -5.1636,-32.55661 -6.6253,-38.21536 -2.0609,-7.97857 -9.8062,-22.81816 -14.4668,-27.71742 -3.6165,-3.80177 -3.8266,-3.88196 -6.1619,-2.35184 -3.604,2.36141 -8.3426,9.45993 -10.2905,15.41536 -5.2045,15.91177 5.5032,35.81247 26.5445,49.33398 7.5056,4.82325 11,5.94631 11,3.53528 z m 320.5111,-4.19407 c 10.5487,-7.01883 18.3926,-15.52416 23.0988,-25.04652 3.283,-6.64276 3.7182,-8.38781 3.6799,-14.75429 -0.03,-5.04694 -0.6681,-8.64123 -2.1182,-11.94018 -2.1896,-4.98144 -9.604,-13.7803 -11.6119,-13.7803 -3.1751,0 -10.9907,11.92156 -15.9618,24.34717 -2.4291,6.07183 -8.5944,37.55706 -8.5969,43.90283 0,4.03151 2.0983,3.5337 11.5101,-2.72871 z m -159.4931,-25.24571 c 8.8776,-15.49175 13.3646,-35.27402 11.0691,-48.80134 -2.2397,-13.1986 -7.3576,-18.46961 -17.936,-18.47269 -8.0741,-0.002 -11.9217,2.28173 -15.0385,8.92755 -2.413,5.14517 -2.6073,6.56436 -2.5431,18.5709 0.061,11.42727 0.4078,14.02833 2.8654,21.5 4.482,13.62663 12.3093,27.3926 15.2483,26.81741 0.892,-0.17457 3.7427,-4.0184 6.3348,-8.54183 z"
           style="fill:#6db8e6" />
        <path
           inkscape:connector-curvature="0"
           id="path3002"
           d="m 1233.8572,1135.6434 c -10.4529,-1.2118 -19.0051,-2.8778 -25.8806,-5.0418 -34.8447,-10.9669 -62.0509,-36.069 -75.6752,-69.8225 -4.409,-10.923 -4.5628,-20.1792 -0.4858,-29.2358 7.4735,-16.6016 26.9667,-24.1104 43.4215,-16.7259 7.8306,3.5142 14.9027,10.9297 18.0944,18.9734 12.21,30.7707 44.5292,43.885 72.8808,29.5731 11.5435,-5.8271 20.3034,-16.0225 26.069,-30.3408 10.5421,-26.1802 46.6995,-28.3653 60.1065,-3.6324 3.2803,6.0514 3.4671,6.9177 3.4277,15.9001 -0.038,8.6996 -0.3454,10.1824 -3.6478,17.5999 -12.6643,28.4455 -31.8954,48.4432 -59.0678,61.4224 -18.29,8.7364 -42.1892,13.3072 -59.2427,11.3303 z M 1093.3294,1009.908 c -14.6986,-3.1023 -24.1879,-14.68851 -24.3254,-29.70041 -0.114,-12.4506 7.8947,-23.9921 19.6741,-28.3526 2.2985,-0.8508 35.0041,-6.2573 72.6791,-12.0143 68.3605,-10.446 88.1381,-13.4806 174,-26.6984 25.025,-3.8525 48.2836,-7.0039 51.6858,-7.0032 7.5593,0 13.4914,2.4304 19.5292,7.9958 6.9398,6.3968 9.2877,12.008 9.2709,22.1559 -0.012,7.2724 -0.4023,9.2399 -2.7027,13.6233 -4.8103,9.1664 -13.4904,15.0596 -24.7833,16.8262 -17.3182,2.7092 -249.2724,38.18571 -265,40.53081 -11.2749,1.6812 -21.3999,3.2247 -22.5,3.4302 -1.0999,0.2054 -4.4874,-0.1516 -7.5277,-0.7933 z m -7.6822,-88.58861 c -3.4154,-1.7295 -7.4249,-4.581 -8.9098,-6.3366 -14.6162,-17.2801 -7.3235,-43.6856 13.733,-49.7245 1.805,-0.5177 33.9054,-5.6582 71.3343,-11.4235 114.9432,-17.7049 127.7496,-19.6797 137.0524,-21.1334 4.9501,-0.7735 15.0751,-2.3005 22.5,-3.3933 7.4251,-1.0928 17.7751,-2.6694 23,-3.5035 5.2251,-0.8342 12.4251,-1.9543 16,-2.4892 3.5751,-0.5348 10.9188,-1.6416 16.3194,-2.4595 14.7541,-2.2343 23.2903,0.1078 31.3434,8.5998 5.9227,6.2455 7.8389,11.3488 7.8232,20.8351 -0.012,7.2488 -0.4053,9.2454 -2.6723,13.5635 -3.0773,5.8616 -9.1335,11.6929 -14.5414,14.0013 -3.5178,1.5016 -12.174,3.1168 -36.7723,6.8612 -5.5,0.8372 -14.275,2.1976 -19.5,3.0231 -14.082,2.2247 -25.0091,3.9058 -61.5,9.4614 -79.2945,12.0723 -144.6961,22.1723 -160,24.7089 -4.95,0.8204 -13.5,1.7307 -19,2.0228 -9.7215,0.5163 -10.1728,0.4436 -16.2099,-2.6136 z m 4.9149,-83.9228 c -9.2089,-3.1808 -16.7493,-10.938 -19.2515,-19.8049 -1.7718,-6.2792 -0.8615,-16.9375 1.9048,-22.3009 4.5257,-8.7747 11.0404,-13.6714 22.1553,-16.6528 5.8659,-1.5734 14.4994,-1.773 90.245,-2.0863 l 83.7585,-0.3464 0.9915,2.6079 c 1.2672,3.3332 1.2664,11.9477 0,16.5121 -1.5209,5.4746 -6.4791,12.5706 -11.1451,15.9506 -5.4875,3.9751 -10.7104,5.3927 -31.3619,8.5119 -14.8468,2.2425 -26.4898,4.0276 -71.5,10.9623 -5.225,0.805 -19.6689,3.056 -32.0977,5.0022 -25.9588,4.0648 -26.5991,4.0961 -33.6973,1.6443 z m 34.295,-81.2177 c -32.5204,-4.1737 -66.0906,-20.3632 -98.325,-47.4182 -25.9427,-21.7742 -43.9144,-54.52364 -49.64668,-90.46994 -0.97408,-6.1083 -2.02975,-21.3747 -2.52397,-36.5 -0.82207,-25.159 -1.98471,-35.49249 -5.62561,-50 -5.92969,-23.62733 -19.66476,-61.12957 -29.8491,-81.5 -19.65188,-39.30709 -54.26862,-98.93932 -83.12127,-143.18816 -44.85242,-68.78629 -71.18471,-139.98 -79.82196,-215.81184 -3.63324,-31.89859 -4.04042,-61.36081 -1.4926,-108 6.25361,-114.47516 46.75203,-206.84128 126.87792,-289.37472 49.70655,-51.20009 100.67717,-83.66124 174.02837,-110.83167 41.4743,-15.36275 73.5144,-23.11816 117.5,-28.44126 21.1453,-2.55899 79.3103,-2.58449 101,-0.0443 49.7168,5.82265 89.7131,16.52032 139,37.17785 64.7534,27.14001 111.9984,59.95847 158.839,110.33667 50.1028,53.88687 82.3105,108.99207 101.5104,173.67741 18.2189,61.38049 23.9382,144.03371 15.1295,218.64615 -9.2123,78.03182 -33.9213,143.70432 -81.5903,216.85385 -24.7946,38.04813 -62.2663,102.76786 -79.8696,137.94795 -10.5512,21.08645 -25.2363,61.3352 -30.4633,83.49381 -4.0279,17.07494 -5.1436,27.13224 -6.0526,54.55824 -0.6804,20.5293 -1.4088,29.9081 -2.8736,37 -7.2685,35.1923 -24.5503,64.54106 -50.7546,86.19386 -27.9116,23.0635 -55.2271,37.1789 -85.1136,43.9827 -9.7525,2.2202 -9.8658,2.2224 -124.7614,2.4161 -63.4568,0.107 -118.1374,-0.2088 -122,-0.7045 z m 177.7177,-67.7352 c -0.6997,-3.33784 12.9924,-192.06068 18.2577,-251.65294 7.5474,-85.42154 10.59,-117.65238 14.5677,-154.32082 1.0931,-10.07644 1.729,-18.73894 1.4132,-19.25 -0.3159,-0.51105 -5.9655,-0.92918 -12.5547,-0.92918 -28.1915,0 -54.1092,-5.85679 -76.0634,-17.18855 l -5.6619,-2.9224 -7.8381,3.93991 c -20.3586,10.23343 -40.5032,14.99249 -67.1777,15.87037 -14.2563,0.46919 -18.4574,0.91102 -18.8694,1.98451 -0.2914,0.75952 -0.019,6.20386 0.606,12.09855 5.6852,53.64283 9.358,92.49782 14.5776,154.21761 7.8692,93.05019 18.5221,238.9793 18.5244,253.7578 l 9e-4,6.25784 60.25,-0.2578 c 49.8894,-0.2135 60.2015,-0.4895 59.9677,-1.6049 z m -169.9687,-0.4029 c 0.4588,-1.2387 -0.3255,-14.19804 -4.2517,-70.25004 -4.0706,-58.1131 -11.5728,-155.52861 -14.517,-188.5 -4.6365,-51.92375 -8.8773,-97.28823 -10.9842,-117.5 -5.181,-49.70189 -5.8404,-55.43915 -6.4936,-56.49596 -0.3719,-0.60186 -4.6871,-2.45578 -9.5893,-4.11983 -22.3816,-7.59742 -41.3874,-18.90264 -56.6101,-33.67337 -15.5807,-15.11799 -24.4105,-30.04445 -28.9119,-48.87441 -2.7737,-11.60255 -2.28281,-30.11189 1.083,-40.83643 8.312,-26.4845 30.5219,-48.48402 53.0258,-52.52356 28.852,-5.17902 57.3839,18.42063 71.964,59.52356 4.1563,11.71715 6.7003,25.05977 12.9337,67.83334 0.5477,3.75834 1.5249,7.47084 2.1715,8.25 1.659,1.99902 30.3912,1.94886 41.8807,-0.0731 16.4935,-2.90259 18.4046,-4.26615 14.1408,-10.08944 -8.7134,-11.90032 -18.5999,-35.2914 -22.0296,-52.12119 -3.0447,-14.94079 -2.8902,-34.77465 0.3712,-47.63133 8.9096,-35.12256 33.8674,-53.96262 69.4577,-52.43194 17.9298,0.77113 30.1695,5.49343 41.8509,16.14689 16.1269,14.70784 24.1389,37.46589 22.9244,65.11679 -1.0489,23.88041 -8.4259,46.28158 -22.3515,67.87338 -2.4382,3.78036 -4.2225,7.42197 -3.9652,8.09246 0.5444,1.41873 9.3395,4.00557 18.6514,5.4858 3.575,0.56829 13.5554,1.03665 22.1786,1.04081 18.0502,0.009 18.1884,-0.0501 19.2231,-8.17627 1.5507,-12.1782 5.811,-39.03408 7.7335,-48.74982 8.3117,-42.00369 32.3178,-73.83902 60.0999,-79.70049 28.6908,-6.05318 60.6145,18.37882 70.9959,54.33495 3.1127,10.78082 3.0832,30.15457 -0.063,41.67734 -4.476,16.39094 -13.1716,30.71387 -27.1221,44.67379 -15.0096,15.01973 -34.0772,26.5978 -56.0455,34.03154 -5.225,1.76806 -10.038,3.71007 -10.6956,4.31558 -3.6192,3.33253 -20.8275,194.22966 -32.2808,358.10093 -1.1148,15.95 -2.7477,39.0166 -3.6287,51.2592 -0.881,12.2426 -1.3225,22.98702 -0.9812,23.87662 0.505,1.3159 1.532,1.4964 5.5116,0.9685 21.3724,-2.8352 58.1526,-26.91602 70.8404,-46.38082 10.9138,-16.7433 13.9936,-28.826 14.7722,-57.9543 1.2354,-46.21911 5.3477,-66.78341 23.6504,-118.2692 8.1889,-23.03562 18.4815,-45.66493 32.5208,-71.5 21.5189,-39.59919 45.927,-80.98919 68.1115,-115.5 29.8218,-46.3917 43.2662,-73.1753 56.2532,-112.0662 13.9319,-41.72037 19.6053,-77.23445 20.6273,-129.12251 1.4945,-75.87659 -7.0468,-127.77151 -29.9242,-181.81131 -10.5696,-24.96697 -26.0817,-51.50451 -44.1323,-75.5 -17.4551,-23.20375 -48.4767,-55.44479 -70.1446,-72.90196 -45.4646,-36.62934 -114.428,-68.19722 -177,-81.02145 -27.297,-5.59455 -50.0325,-7.80179 -80.5,-7.81521 -58.7491,-0.0259 -109.4224,10.88935 -171.3506,36.90951 -58.3791,24.52895 -107.76517,62.4949 -150.46299,115.66967 -42.44463,52.85946 -69.33979,115.97384 -77.62425,182.15944 -4.32742,34.57223 -5.33123,91.79958 -2.16628,123.5 5.7276,57.36835 21.05662,107.37604 48.16285,157.12121 6.38627,11.72003 12.56067,21.81498 31.18165,50.98098 28.83471,45.16376 65.7923,110.36932 82.40942,145.39781 6.9499,14.65009 20.4503,51.32509 26.2493,71.30823 7.8838,27.16752 10.4895,44.97383 11.5882,79.19177 0.6989,21.7644 1.2256,27.9296 2.9477,34.5 3.63,13.85 12.3718,29.8291 20.8284,38.072 5.0837,4.9553 20.478,16.4606 29.3117,21.907 14.9707,9.23 36.7117,16.21874 38.1738,12.27104 z m -44.2489,-494.04156 c 0,-4.99559 -4.8609,-33.53359 -6.6784,-39.20848 -3.7251,-11.63102 -13.4299,-27.76481 -17.473,-29.04803 -2.9567,-0.93843 -9.0305,5.33361 -12.369,12.77271 -2.3163,5.16133 -2.6343,7.02362 -2.331,13.64782 0.4977,10.86599 4.6736,19.12537 14.7653,29.20325 6.9464,6.93699 19.8122,15.90556 22.8361,15.91878 0.7479,0.003 1.25,-1.31658 1.25,-3.28605 z m 315.9191,0.16863 c 13.364,-7.4781 23.2565,-17.605 28.8359,-29.51907 3.5927,-7.67167 3.8667,-19.35096 0.6199,-26.41885 -2.6679,-5.80765 -9.3977,-12.93919 -12.2104,-12.93919 -3.7397,0 -12.5994,14.26236 -17.2836,27.82339 -2.2747,6.58556 -8.2732,41.73285 -7.3714,43.19199 0.8765,1.41822 1.2428,1.31252 7.4096,-2.13827 z m -156.1465,-25.9285 c 4.9595,-7.48549 9.7964,-19.42432 11.924,-29.43209 2.2259,-10.4703 1.3643,-24.51942 -1.9473,-31.7529 -3.2962,-7.19981 -6.1629,-8.76362 -16.0648,-8.76362 -6.0122,0 -7.9185,0.39622 -10.0776,2.09453 -9.0168,7.09263 -10.7871,28.53421 -4.0234,48.73145 3.881,11.5892 12.4323,26.63836 14.7357,25.93287 0.6494,-0.1989 3.1034,-3.26351 5.4534,-6.81024 z"
           style="fill:#50aae1" />
        <path
           inkscape:connector-curvature="0"
           id="path3000"
           d="m 1227.8572,1134.5687 c -39.1309,-5.5106 -73.293,-29.6901 -90.5328,-64.078 -10.8472,-21.6367 -10.4907,-35.4221 1.2369,-47.8222 6.7872,-7.1765 13.0431,-9.8199 23.3169,-9.8523 7.0816,-0.022 8.806,0.3611 14.7238,3.2744 8.1066,3.9908 12.5917,9.1038 16.6776,19.0121 6.7311,16.3231 18.7332,27.5777 34.5441,32.3928 24.0632,7.3283 50.8466,-4.661 61.8909,-27.7047 2.1088,-4.4 4.5785,-9.5008 5.4883,-11.3351 2.2571,-4.5506 9.2284,-10.8122 14.9346,-13.414 3.6177,-1.6496 6.7043,-2.1605 13.2197,-2.1882 7.2989,-0.031 9.2999,0.3549 14.1613,2.7313 3.1138,1.5221 7.3279,4.6121 9.3649,6.8667 9.8136,10.8625 11.5415,23.7299 5.2208,38.8787 -4.6409,11.1228 -9.6001,19.5762 -17.3434,29.5634 -17.1248,22.0872 -43.8089,37.7955 -72.789,42.8492 -8.1486,1.421 -26.6994,1.8701 -34.1146,0.8259 z m -138.1676,-126.129 c -24.8485,-8.58701 -27.3591,-43.18221 -3.9643,-54.62821 5.4488,-2.6658 7.2494,-2.9639 145.1319,-24.0246 40.4766,-6.1825 67.322,-10.3307 103.5,-15.993 53.5948,-8.3881 55.6176,-8.5352 64.3384,-4.6776 14.0279,6.2052 20.9872,24.5814 14.7276,38.8883 -2.5847,5.9076 -9.9737,13.3851 -15.5141,15.7001 -2.0102,0.8399 -23.0942,4.4814 -46.8534,8.0923 -23.7592,3.6108 -48.5985,7.4439 -55.1985,8.5179 -6.6,1.074 -40.125,6.2418 -74.5,11.484 -34.375,5.2422 -66.775,10.19921 -72,11.01571 -55.1777,8.622 -51.8919,8.3122 -59.6676,5.6251 z m 0.1466,-85.95031 c -9.6378,-3.3326 -16.1718,-10.0575 -18.9889,-19.5437 -2.0281,-6.8293 -1.8714,-12.5609 0.5179,-18.9467 2.6686,-7.1327 7.8777,-13.0198 14.2677,-16.125 5.6345,-2.738 6.3593,-2.8592 132.2243,-22.1151 34.1,-5.2169 70.55,-10.8113 81,-12.4321 10.45,-1.6208 22.15,-3.4069 26,-3.9691 3.85,-0.5623 18.6014,-2.8323 32.7808,-5.0446 28.9373,-4.5148 30.37,-4.6121 37.3528,-2.5385 12.1251,3.6008 20.8374,15.5566 20.7195,28.433 -0.075,8.2189 -2.8432,14.943 -8.5522,20.7751 -5.2578,5.3713 -11.2825,7.9204 -22.9478,9.7094 -5.1442,0.7889 -46.2531,7.1117 -91.3531,14.0507 -45.1,6.9389 -95.275,14.6518 -111.5,17.1398 -16.225,2.4879 -40.75,6.2941 -54.5,8.4583 -28.2671,4.449 -30.0659,4.5534 -37.021,2.1485 z m -0.1548,-85.8361 c -5.7344,-2.032 -12.8878,-8.5912 -16.0744,-14.7392 -2.2257,-4.2942 -2.6555,-6.4179 -2.6555,-13.1233 0,-6.6825 0.4323,-8.8339 2.6251,-13.0635 2.995,-5.7768 9.347,-11.9396 14.5445,-14.1112 9.8068,-4.0976 15.0602,-4.3253 99.7855,-4.3253 l 81.3735,0 1.1252,4.1789 c 2.9151,10.8257 -3.6539,25.0546 -14.4353,31.2677 -4.836,2.7869 -7.6215,3.3725 -38.6128,8.1183 -12.925,1.9792 -26.2,4.0176 -29.5,4.5297 -3.3,0.5122 -11.85,1.7976 -19,2.8566 -7.15,1.059 -24.6388,3.7532 -38.864,5.9871 -27.7928,4.3646 -33.8138,4.7267 -40.3118,2.4242 z m 27.6423,-82.3301 c -29.9952,-5.5981 -56.407,-18.6144 -86.0897,-42.4268 -17.7965,-14.2768 -29.466,-28.79834 -39.8295,-49.56344 -11.40256,-22.8472 -14.79195,-38.9283 -16.02727,-76.0422 -1.37022,-41.16677 -4.02036,-53.64322 -21.92438,-103.21654 -6.86274,-19.00183 -11.1965,-28.59656 -21.71497,-48.07581 -25.15462,-46.58408 -45.74103,-81.71102 -71.32767,-121.70765 -19.30549,-30.17804 -25.44603,-40.74929 -36.39642,-62.65828 -27.28729,-54.59506 -42.52214,-107.8754 -48.85003,-170.84172 -1.67825,-16.69954 -1.6688,-81.16761 0.0152,-103.5 6.21225,-82.38568 28.76535,-150.38107 70.98076,-214 26.28155,-39.60649 68.97797,-85.06164 107.21435,-114.14173 38.69711,-29.4305 89.54433,-54.82453 146.48313,-73.15631 99.7553,-32.11682 210.9231,-29.44507 308.2467,7.40825 25.8109,9.77378 59.6789,25.30436 78.5674,36.028 63.5755,36.0941 123.7809,95.45429 163.7795,161.48016 17.6762,29.17816 33.4095,65.18873 42.7653,97.88163 10.4612,36.55561 14.9251,65.60956 17.6674,114.99201 4.1029,73.88032 -5.2132,144.57778 -27.0145,205.00799 -14.6152,40.51157 -30.8867,72.49014 -57.8288,113.65231 -24.6637,37.68125 -60.8065,100.10544 -79.0376,136.51031 -10.9628,21.89129 -24.6215,58.53403 -30.5051,81.83738 -4.2347,16.77274 -5.3008,25.8996 -6.1906,53 -0.8638,26.3047 -2.0476,37.2994 -5.4414,50.5361 -7.6141,29.6967 -24.6169,56.92714 -47.2986,75.74994 -30.9485,25.6831 -59.5328,40.055 -90.0375,45.27 -10.8328,1.852 -16.7968,1.9395 -126.0216,1.8498 -105.4265,-0.087 -115.4176,-0.2373 -124.1841,-1.8734 z m 187.0335,-63.934 c 2.3614,-0.6633 2.3935,-0.7622 0.5798,-1.7853 -1.8591,-1.0486 -1.8812,-1.7304 -0.6949,-21.44814 5.552,-92.2846 19.5719,-266.62874 28.1746,-350.365 5.3611,-52.18419 5.4591,-53.55606 3.9009,-54.6043 -0.8033,-0.54034 -3.4185,-0.78806 -5.8117,-0.55049 -7.7217,0.76652 -32.4846,-1.18366 -43.185,-3.40101 -12.4104,-2.57169 -24.6055,-6.73752 -35.2819,-12.0523 -4.2999,-2.14054 -8.4736,-3.8919 -9.2749,-3.8919 -0.8013,0 -4.4831,1.50763 -8.1819,3.3503 -14.0803,7.01455 -32.7918,12.69185 -48.225,14.63205 -4.675,0.58772 -14.9137,1.19326 -22.7526,1.34564 -7.9972,0.15546 -14.7019,0.7265 -15.2765,1.3011 -0.6988,0.69874 -0.3876,6.87672 0.9796,19.44748 6.9099,63.53447 13.8485,142.39243 23.0025,261.42343 3.1174,40.5368 4.5936,61.1107 8.0693,112.4639 l 2.0619,30.46404 -2.2411,1.6904 -2.2411,1.6905 2.449,0.4594 c 4.0155,0.7533 121.2342,0.5928 123.949,-0.1698 z m -171.3436,-1.6455 c 0.6229,-1.6233 0.093,-10.49734 -4.7156,-78.95294 -4.309,-61.34491 -11.4819,-153.80726 -14.4292,-186 -0.8057,-8.8 -2.6122,-28.825 -4.0145,-44.5 -5.9998,-67.06385 -12.0322,-122.73479 -13.4896,-124.49095 -0.5827,-0.70204 -5.2102,-2.71516 -10.2835,-4.4736 -35.7657,-12.39679 -63.2572,-34.24364 -76.6674,-60.9259 -15.41536,-30.67179 -12.3623,-63.19242 8.3865,-89.33138 8.8023,-11.08902 23.4567,-21.13641 34.5569,-23.69288 5.7673,-1.32829 16.2326,-1.32829 22,0 17.3915,4.00546 35.6664,21.66864 47.0106,45.43706 7.6204,15.9663 11.6079,32.82341 17.0259,71.97765 1.3318,9.62455 2.7759,16.5977 3.6243,17.5 1.8648,1.98331 21.9202,2.62942 34.6277,1.11557 11.9236,-1.42045 22.7729,-4.2057 23.9824,-6.15675 0.7073,-1.14097 -0.1339,-3.21834 -3.2394,-8 -9.0888,-13.99416 -16.9788,-33.13202 -20.6923,-50.19064 -2.6717,-12.27278 -2.4209,-36.43694 0.4906,-47.26818 7.1394,-26.56017 23.5711,-43.98854 47.1702,-50.03107 5.0919,-1.3038 9.641,-1.57048 21,-1.23108 12.781,0.38189 15.3891,0.76406 22,3.22377 27.5994,10.26889 43.2072,36.32665 43.1488,72.03838 -0.041,25.30808 -7.6822,50.11395 -22.463,72.92633 -2.4682,3.80949 -4.2605,7.51845 -3.9828,8.24214 0.6866,1.78926 8.7698,4.1047 20.797,5.95727 10.9354,1.68442 36.6939,1.58036 38.4295,-0.15525 0.544,-0.54404 2.1481,-8.85996 3.5645,-18.47982 6.5817,-44.69819 9.5592,-56.39038 19.097,-74.99067 6.8038,-13.26852 13.9285,-22.73472 22.3242,-29.66069 12.2632,-10.11653 23.3633,-14.02566 37.0848,-13.06023 13.0811,0.92038 24.1024,6.41748 35.6869,17.79972 16.1429,15.86102 24.3131,34.85263 24.3131,56.51579 0,25.96755 -9.9783,47.69063 -31.2316,67.99258 -14.6575,14.00138 -34.5038,25.70095 -55.1017,32.48296 -7.3509,2.42032 -10.0266,3.76682 -10.5989,5.33376 -0.8547,2.33997 -6.7826,56.20148 -10.5761,96.09611 -7.2516,76.26172 -17.4926,206.0766 -23.943,303.5 -0.8557,12.925 -1.723,25.4035 -1.9272,27.73 -0.5821,6.63084 0.8036,7.73874 7.8493,6.27614 16.0835,-3.339 32.3236,-12.08694 53.2498,-28.68384 10.2648,-8.141 17.3128,-17.0802 22.9624,-29.1238 6.2834,-13.3947 7.3859,-19.8287 8.3447,-48.6985 1.3201,-39.74972 4.4895,-58.57619 15.6563,-93 15.2348,-46.96404 25.7923,-69.8066 59.6219,-129 19.0921,-33.40649 33.841,-57.74349 55.291,-91.23487 17.9443,-28.01765 27.4698,-45.70475 38.4912,-71.47093 27.3228,-63.87627 37.1282,-133.80593 30.8891,-220.2942 -4.9049,-67.9931 -24.06,-124.98655 -60.3288,-179.5 -27.6455,-41.55241 -68.2249,-82.70429 -107.1484,-108.66031 -36.2196,-24.15285 -90.018,-47.8798 -133.3593,-58.81602 -36.1362,-9.11818 -60.335,-12.02367 -100.1407,-12.02367 -49.5325,0 -85.988,5.96375 -131.4579,21.50518 -53.089,18.14558 -91.8587,38.54983 -128.54215,67.65099 -10.91411,8.65822 -47.25283,44.93673 -57.67824,57.58267 -36.95343,44.82422 -61.87176,94.16143 -74.83577,148.17162 -8.21531,34.22629 -11.49109,67.20363 -11.4803,115.57247 0.0151,67.66594 10.28935,118.65049 35.37202,175.52868 9.17386,20.80293 19.10849,38.64699 38.40907,68.98839 36.12441,56.78924 69.62677,115.23903 88.73107,154.80438 10.1078,20.93352 26.711,68.15258 31.9503,90.866 4.3264,18.756 5.6821,30.65352 6.5327,57.32962 1.1422,35.8196 3.207,45.5177 13.4127,63 10.7091,18.3446 44.1457,42.3039 67.5865,48.42984 9.2364,2.4139 10.9022,2.4886 11.6564,0.5231 z M 1088.6171,192.1848 c -0.3222,-7.23469 -4.8885,-33.58983 -6.7185,-38.77654 -4.1357,-11.72186 -15.2793,-29.11751 -18.6526,-29.11751 -2.1369,0 -9.0688,7.66658 -11.6091,12.83946 -2.3363,4.75757 -2.7797,6.93671 -2.7797,13.66054 0,6.88057 0.4336,8.90954 3.0988,14.5 4.0428,8.47997 10.0753,15.96897 17.5599,21.79946 7.0767,5.5128 16.9133,11.32114 18.3413,10.83015 0.55,-0.18913 0.8919,-2.77012 0.7599,-5.73556 z m 320.6729,-0.36781 c 26.6425,-17.78651 34.8762,-42.94868 20.0791,-61.3617 -4.1038,-5.1067 -7.1065,-6.71949 -9.8133,-5.27088 -2.8221,1.51035 -10.4481,14.03668 -14.0759,23.12097 -4.0485,10.13737 -10.2879,44.50673 -8.7889,48.41295 0.7973,2.07785 4.0266,0.82157 12.599,-4.90134 z m -160.1818,-24.02624 c 9.5314,-15.53209 14.5165,-35.5116 12.4359,-49.84196 -1.2502,-8.6107 -4.1753,-14.86292 -8.4235,-18.00467 -3.3645,-2.48822 -13.0208,-3.38361 -18.1685,-1.6847 -14.04,4.6336 -15.5926,37.21057 -2.9722,62.36278 0.8744,1.7427 3.2295,5.76479 5.2335,8.93798 4.7702,7.55301 6.315,7.32321 11.8948,-1.76943 z"
           style="fill:#2b98db" />
        <path
           inkscape:connector-curvature="0"
           id="path2998"
           d="m 1227.3572,1133.6089 c -32.3146,-5.2942 -58.0484,-20.0419 -76.4596,-43.8181 -12.4995,-16.1417 -20.5404,-33.4981 -20.5404,-44.3365 0,-22.4031 21.7819,-37.722 42.7124,-30.0391 8.0411,2.9516 16.0191,11.1169 19.2105,19.6615 13.8571,37.1006 59.6286,47.3935 87.6668,19.7141 6.0101,-5.9332 7.9567,-8.7833 12.7725,-18.7011 4.3876,-9.0358 6.6451,-12.4904 9.9108,-15.1665 13.0143,-10.6642 31.4123,-9.9471 43.0368,1.6774 9.7911,9.7912 11.849,23.6155 5.6848,38.1902 -16.4127,38.807 -48.7941,64.8745 -89.38,71.952 -8.0882,1.4105 -28.2174,1.9141 -34.6146,0.8661 z M 1090.8563,1007.903 c -6.1055,-1.9137 -12.1508,-6.3709 -15.5009,-11.42861 -10.7879,-16.2867 -3.0732,-38.1964 15.3827,-43.6868 2.8155,-0.8376 18.3941,-3.5271 34.619,-5.9768 16.2251,-2.4496 40.0751,-6.0752 53,-8.0568 12.9251,-1.9817 29.125,-4.4514 36,-5.4885 6.875,-1.037 17,-2.5824 22.5,-3.4343 5.5,-0.8519 15.8501,-2.4401 23,-3.5294 7.1501,-1.0893 17.0501,-2.6189 22,-3.3992 46.3251,-7.3026 102.1038,-15.6118 104.7998,-15.6118 6.2816,0 13.3168,2.8497 18.4673,7.4805 15.1463,13.6178 12.1184,37.8555 -5.8784,47.0554 -5.1893,2.6527 -4.0668,2.445 -53.8887,9.9721 -20.0749,3.0329 -40.5499,6.1737 -45.5,6.9796 -7.3839,1.2021 -76.9321,11.8847 -133.5,20.5055 -6.875,1.04771 -24.4249,3.72691 -39,5.95361 -28.8036,4.4006 -30.5566,4.5286 -36.5008,2.6655 z m -2.2347,-86.66211 c -21.1807,-8.4111 -24.5966,-38.2684 -5.8024,-50.7172 5.388,-3.5688 10.9754,-4.9147 36.038,-8.6809 20.0556,-3.0138 157.2447,-24.1123 183,-28.1438 4.95,-0.7748 13.5,-2.0658 19,-2.8688 5.5,-0.803 16.075,-2.401 23.5,-3.551 43.9204,-6.8025 44.1873,-6.8254 51.316,-4.3964 11.1074,3.7847 19.055,15.2576 19.0038,27.4333 -0.069,16.4725 -10.5576,26.6134 -30.5172,29.5062 -16.0027,2.3193 -30.0874,4.4882 -35.8027,5.5132 -3.0249,0.5425 -33.625,5.2535 -68,10.4689 -34.375,5.2153 -71.0499,10.8193 -81.5,12.4532 -10.4499,1.634 -26.6499,4.1501 -36,5.5913 -27.6199,4.2576 -35.5015,5.4887 -45,7.0291 -16.1383,2.6171 -23.3339,2.7065 -29.2355,0.3629 z m 1.1209,-85.5673 c -5.7564,-2.0415 -11.9853,-7.6904 -15.156,-13.7449 -2.2685,-4.3318 -2.6907,-6.393 -2.6907,-13.1379 0,-6.714 0.424,-8.8038 2.6374,-13 4.719,-8.9462 11.4003,-13.4767 23.6372,-16.0282 6.0152,-1.2542 19.7563,-1.444 88.8964,-1.2277 l 81.7815,0.2559 0.8606,4.0799 c 2.5686,12.1768 -7.2618,28.1646 -19.3128,31.4096 -3.336,0.8983 -22.7674,4.091 -45.5389,7.4824 -12.78,1.9033 -41.388,6.3237 -52,8.0349 -48.8398,7.8752 -55.6816,8.5122 -63.1147,5.876 z m 25.1146,-82.8144 c -22.7995,-4.7691 -41.8379,-12.9512 -63.0588,-27.1008 -29.7811,-19.8572 -45.6773,-36.5634 -58.16858,-61.13254 -12.76994,-25.1172 -15.99075,-39.7052 -17.29523,-78.3351 -1.3895,-41.14794 -4.5289,-55.93831 -21.94434,-103.38444 -7.84281,-21.36672 -12.57695,-31.436 -28.49882,-60.61556 -22.12635,-40.55032 -45.1042,-79.24665 -69.20531,-116.54662 -14.68451,-22.7264 -23.36898,-38.1258 -34.65656,-61.45338 -27.75894,-57.36827 -42.47122,-113.35258 -46.77716,-178 -1.26185,-18.94493 -0.66746,-69.877 1.07949,-92.5 4.82812,-62.52384 19.07049,-115.59338 44.54974,-166 21.889,-43.30388 48.34764,-79.40434 85.43885,-116.57373 29.71209,-29.7747 52.95931,-48.16672 86.53677,-68.46345 34.25345,-20.70536 90.65295,-43.50019 135.99995,-54.96677 79.4731,-20.09576 164.0355,-18.84342 242.6561,3.59366 38.65,11.03011 88.494,32.26684 121.0862,51.59052 56.0301,33.21978 109.0443,84.38624 147.4592,142.31977 33.0531,49.84729 55.2003,107.39235 64.2406,166.91592 7.4594,49.11422 8.6351,109.95161 3.0591,158.28927 -9.2873,80.51076 -33.3255,145.31917 -81.3389,219.29481 -37.2593,57.40651 -81.5006,136.52029 -91.9902,164.5 -12.1128,32.30911 -17.4704,49.53288 -21.3076,68.5 -2.0007,9.8892 -2.5846,16.8373 -3.3198,39.5 -0.9387,28.9385 -2.7931,43.8734 -7.0774,57 -8.8716,27.1813 -24.9215,52.13744 -43.5167,67.66454 -31.5612,26.3535 -59.7681,40.7669 -90.67,46.3313 -10.7323,1.9325 -15.263,2.0019 -126.7054,1.9388 l -115.5752,-0.065 -11,-2.3009 z m 196.8957,-61.376 c 5.662,-1.0063 4.9536,-2.5577 -1.6457,-3.6043 l -5.75,-0.9118 0,-4.08824 c 0,-3.9559 1.2524,-23.6652 4.4739,-70.5881 7.4781,-108.92128 19.3119,-249.21015 27.0352,-320.5 3.0519,-28.17064 3.0672,-29.1194 0.4901,-30.49862 -1.2795,-0.68479 -3.8084,-0.97002 -5.7734,-0.65115 -5.9919,0.97236 -33.3763,-1.15788 -43.7348,-3.40214 -12.1281,-2.62765 -24.5043,-6.92757 -34.7222,-12.06366 -4.2499,-2.13643 -8.3467,-3.88443 -9.1036,-3.88443 -0.7569,0 -5.6043,1.96834 -10.7722,4.37409 -11.302,5.26134 -22.3769,9.05143 -34.0821,11.66368 -9.2684,2.06842 -39.2436,4.39448 -43.3496,3.36391 -3.2796,-0.82311 -7.1027,0.21346 -7.8361,2.12463 -0.3258,0.84897 0.2771,9.51536 1.3397,19.25864 5.4755,50.20654 13.5468,139.3439 19.4876,215.21505 0.8398,10.725 1.9966,25.35 2.5707,32.5 0.5741,7.15 1.4695,19.075 1.9897,26.5 0.5203,7.425 1.4055,19.125 1.9672,26 2.4301,29.7445 7.0634,103.1156 6.5628,103.92574 -0.3015,0.4878 -2.7067,1.1838 -5.3449,1.5466 -5.6623,0.7788 -8.4967,2.1246 -6.173,2.9309 0.8096,0.2809 2.8219,0.6877 4.4719,0.904 5.3754,0.7044 133.8881,0.5974 137.8957,-0.1148 z m -178.4185,-1.6648 c 0.9574,-1.1537 0.9722,-5.32124 0.068,-19.25004 -1.4461,-22.2815 -7.6719,-110.3768 -9.0302,-127.7776 -4.2011,-53.81967 -5.3092,-67.81628 -7.0465,-89 -1.0825,-13.2 -2.424,-28.95 -2.981,-35 -0.5571,-6.05 -2.3729,-26.075 -4.0352,-44.5 -6.5598,-72.70912 -11.6644,-119.11434 -13.2662,-120.60093 -0.6525,-0.60551 -5.4613,-2.55745 -10.6863,-4.33763 -27.9027,-9.5066 -52.6016,-26.45589 -67.5751,-46.37247 -11.2252,-14.93086 -18.5154,-36.09211 -18.39,-53.38052 0.2121,-29.23417 20.1313,-59.69911 46.071,-70.46217 7.386,-3.06467 24.8862,-3.3024 32.3941,-0.44007 18.3712,7.00386 34.1792,24.85392 44.8229,50.61294 5.6179,13.59589 8.6002,27.61183 13.7896,64.80651 1.2527,8.97912 2.8288,17.07912 3.5025,18 1.8381,2.51293 34.3655,2.36357 46.385,-0.21299 11.0371,-2.36594 15.0056,-4.03821 14.9786,-6.31164 -0.012,-0.99057 -2.0731,-4.95103 -4.5809,-8.80103 -5.3638,-8.23484 -12.2471,-22.34499 -15.3666,-31.5 -6.6372,-19.47884 -8.6867,-42.51037 -5.2544,-59.04929 7.0351,-33.89987 26.537,-52.73991 58.2075,-56.23193 20.591,-2.27039 40.1253,4.17038 53.6099,17.67604 14.4245,14.44699 22.7972,39.73162 20.8967,63.10518 -1.9532,24.02016 -9.4714,46.06838 -22.809,66.89006 l -5.054,7.89007 2.2025,1.78351 c 2.5675,2.07904 13.0523,4.62631 25.1508,6.11038 11.8211,1.45003 32.5742,0.69924 34.5224,-1.24893 0.8718,-0.87178 2.0935,-5.80057 2.9631,-11.95424 2.366,-16.74302 5.222,-34.7587 7.0499,-44.47085 4.5737,-24.30151 16.4233,-48.28385 30.8577,-62.45271 13.0815,-12.84087 24.5214,-17.63911 40.1106,-16.82369 8.3288,0.43565 10.1448,0.90981 17.9461,4.68585 24.5183,11.86756 41.6636,40.07941 41.6848,68.59055 0.014,18.19969 -4.7704,33.4371 -15.7813,50.26514 -5.076,7.75779 -21.147,23.56522 -30.4324,29.93339 -9.9551,6.82747 -27.0563,15.31066 -38.902,19.2976 -5.225,1.75859 -10.1069,3.77688 -10.8487,4.48507 -1.2749,1.21718 -2.597,11.41258 -7.5885,58.5188 -2.4498,23.11952 -6.8759,69.47858 -8.5927,90 -0.5752,6.875 -1.9342,22.85 -3.0202,35.5 -2.2344,26.02797 -4.0771,49.08646 -6.9925,87.5 -4.4046,58.0352 -6.0477,80.4567 -7.4748,102 -0.8197,12.375 -1.9284,28.125 -2.4638,35 -0.5354,6.875 -0.9836,15.9572 -0.9961,20.1826 -0.027,9.23364 0.6426,9.71584 10.1579,7.31114 18.6923,-4.72374 36.4665,-14.86514 56.6347,-32.31374 10.7379,-9.29 19.8855,-24.7109 24.2059,-40.8061 1.75,-6.5197 2.2608,-12.4314 2.9698,-34.3739 1.3735,-42.51226 5.6363,-64.41755 21.2112,-109 8.2943,-23.7421 12.3383,-33.64906 20.6136,-50.5 15.9348,-32.44812 59.252,-107.59748 82.7154,-143.5 40.8042,-62.43669 61.5663,-113.29627 71.439,-175 9.661,-60.38009 7.076,-138.7524 -6.3826,-193.51507 -16.5255,-67.24151 -50.8822,-125.29487 -106.2279,-179.4959 -35.8813,-35.13918 -66.7521,-55.63005 -116.3596,-77.2351 -83.6605,-36.43573 -163.6106,-45.61596 -249.5,-28.64871 -40.2823,7.95766 -95.4532,28.46885 -131.8097,49.00361 -48.57494,27.43592 -96.76474,73.02518 -130.42978,123.39117 -34.37256,51.4245 -53.67479,106.84371 -59.90673,172 -2.51368,26.28118 -2.54331,89.87707 -0.0522,112 5.79572,51.46963 18.96655,96.10228 41.82537,141.73568 5.74521,11.46925 20.18618,36.32583 26.87826,46.26432 10.84812,16.11066 30.78567,48.76271 52.20684,85.5 8.49613,14.57085 27.95026,50.36128 34.86911,64.14989 8.57423,17.08753 12.03823,25.33382 20.10063,47.85011 17.7206,49.4894 21.4443,67.19681 22.8164,108.5 0.9625,28.9734 2.3583,39.4876 6.6826,50.3367 6.12,15.3543 13.9434,25.9852 26.3191,35.7641 17.9524,14.1855 34.9594,23.645 49.2364,27.38584 8.9354,2.3413 10.1983,2.3995 11.7408,0.541 z m -43.3886,-491.89775 c 0.993,-2.58777 -4.4597,-36.53858 -7.1329,-44.41231 -3.7192,-10.95462 -13.3558,-27.02339 -17.5534,-29.26989 -2.4738,-1.32396 -4.5524,-0.18425 -9.3512,5.12745 -5.8881,6.51746 -7.9611,12.06925 -7.9998,21.42486 -0.03,7.21648 0.3349,8.77245 3.7236,15.88697 4.7939,10.06455 15.6456,21.21737 27.2042,27.95912 8.4753,4.94334 10.2692,5.47357 11.1095,3.2838 z m 316.4574,-3.224 c 14.4684,-8.91722 24.2626,-19.50353 28.8783,-31.21379 3.0068,-7.62819 2.8623,-18.96099 -0.3292,-25.81514 -2.8523,-6.12582 -10.4563,-14.37696 -13.2493,-14.37696 -3.8061,0 -11.4767,10.98554 -16.8173,24.08484 -4.8203,11.82345 -11.2284,48.88185 -8.8618,51.24849 1.2783,1.27823 2.9744,0.63643 10.3793,-3.92744 z m -156.5519,-26.15589 c 10.0148,-17.08511 14.7832,-36.1816 12.6722,-50.75 -1.5703,-10.83695 -4.4931,-16.37738 -10.1552,-19.25 -5.1674,-2.62165 -13.2827,-2.999 -18.4113,-0.85611 -16.8466,7.03895 -14.9022,47.39167 3.5828,74.35611 4.5377,6.61927 6.7481,5.99088 12.3115,-3.5 z"
           style="fill:#0084d5" />
      </g>
      <g
         style="fill:#0086d7;fill-opacity:1"
         transform="matrix(3.2984771,0,0,3.2984771,-237.51334,-979.5984)"
         id="g3032">
        <polygon
           style="fill:#0086d7;fill-opacity:1"
           id="polygon10"
           points="51.922,28.252 49.994,5.531 48.078,28.252 "
           transform="translate(-3.8717857,149.93907)" />
        <polygon
           style="fill:#0086d7;fill-opacity:1"
           id="polygon12"
           points="37.19,32.199 40.523,30.277 27.496,11.564 "
           transform="translate(-3.8717857,149.93907)" />
        <polygon
           style="fill:#0086d7;fill-opacity:1"
           id="polygon14"
           points="29.738,41.062 31.665,37.726 11.03,28.04 "
           transform="translate(-3.8717857,149.93907)" />
        <polygon
           style="fill:#0086d7;fill-opacity:1"
           id="polygon16"
           points="27.72,52.46 27.72,48.615 5,50.539 "
           transform="translate(-3.8717857,149.93907)" />
        <polygon
           style="fill:#0086d7;fill-opacity:1"
           id="polygon18"
           points="29.738,60.009 11.03,73.036 31.665,63.35 "
           transform="translate(-3.8717857,149.93907)" />
        <polygon
           style="fill:#0086d7;fill-opacity:1"
           id="polygon20"
           points="70.266,60.006 68.336,63.338 88.973,73.024 "
           transform="translate(-3.8717857,149.93907)" />
        <polygon
           style="fill:#0086d7;fill-opacity:1"
           id="polygon22"
           points="72.283,48.608 72.277,52.458 95,50.528 "
           transform="translate(-3.8717857,149.93907)" />
        <polygon
           style="fill:#0086d7;fill-opacity:1"
           id="polygon24"
           points="68.328,37.719 70.26,41.06 88.959,28.027 "
           transform="translate(-3.8717857,149.93907)" />
        <polygon
           style="fill:#0086d7;fill-opacity:1"
           id="polygon26"
           points="62.799,32.199 72.484,11.559 59.467,30.277 "
           transform="translate(-3.8717857,149.93907)" />
      </g>
    </g>
  </g>
</svg>
