<?xml version="1.0" encoding="UTF-8" standalone="no"?>
<!-- Created with Inkscape (http://www.inkscape.org/) -->

<svg
   xmlns:dc="http://purl.org/dc/elements/1.1/"
   xmlns:cc="http://creativecommons.org/ns#"
   xmlns:rdf="http://www.w3.org/1999/02/22-rdf-syntax-ns#"
   xmlns:svg="http://www.w3.org/2000/svg"
   xmlns="http://www.w3.org/2000/svg"
   xmlns:sodipodi="http://sodipodi.sourceforge.net/DTD/sodipodi-0.dtd"
   xmlns:inkscape="http://www.inkscape.org/namespaces/inkscape"
   width="535.14001"
   height="535.14001"
   id="svg2"
   version="1.1"
   inkscape:version="0.48.5 r10040"
   sodipodi:docname="smartphone.svg"
   inkscape:export-filename="/home/maartend/htdocs/spacebillboard/docroot/sites/all/themes/sbbtheme/resources/img/for-advertisers/smartphone.png"
   inkscape:export-xdpi="32.142857"
   inkscape:export-ydpi="32.142857">
  <sodipodi:namedview
     id="base"
     pagecolor="#ffffff"
     bordercolor="#666666"
     borderopacity="1.0"
     inkscape:pageopacity="0.0"
     inkscape:pageshadow="2"
     inkscape:zoom="0.7"
     inkscape:cx="-205.34692"
     inkscape:cy="111.81533"
     inkscape:document-units="px"
     inkscape:current-layer="layer1"
     showgrid="false"
     inkscape:window-width="1600"
     inkscape:window-height="834"
     inkscape:window-x="0"
     inkscape:window-y="27"
     inkscape:window-maximized="1" />
  <defs
     id="defs4">
    <marker
       style="overflow:visible"
       id="Arrow2Mend"
       refX="0"
       refY="0"
       orient="auto"
       inkscape:stockid="Arrow2Mend">
      <path
         transform="scale(-0.6,-0.6)"
         d="M 8.7185878,4.0337352 -2.2072895,0.01601326 8.7185884,-4.0017078 c -1.7454984,2.3720609 -1.7354408,5.6174519 -6e-7,8.035443 z"
         style="fill-rule:evenodd;stroke-width:0.625;stroke-linejoin:round"
         id="path3855"
         inkscape:connector-curvature="0" />
    </marker>
    <marker
       style="overflow:visible"
       id="Arrow2Mend3"
       refX="0"
       refY="0"
       orient="auto"
       inkscape:stockid="Arrow2Mend3">
      <path
         transform="scale(-0.6,-0.6)"
         d="M 8.7185878,4.0337352 -2.2072895,0.01601326 8.7185884,-4.0017078 c -1.7454984,2.3720609 -1.7354408,5.6174519 -6e-7,8.035443 z"
         style="fill:#808080;fill-rule:evenodd;stroke:#808080;stroke-width:0.625;stroke-linejoin:round"
         id="path4273"
         inkscape:connector-curvature="0" />
    </marker>
  </defs>
  <metadata
     id="metadata7">
    <rdf:RDF>
      <cc:Work
         rdf:about="">
        <dc:format>image/svg+xml</dc:format>
        <dc:type
           rdf:resource="http://purl.org/dc/dcmitype/StillImage" />
        <dc:title></dc:title>
      </cc:Work>
    </rdf:RDF>
  </metadata>
  <g
     transform="translate(-484.91865,491.85216)"
     id="layer1"
     inkscape:groupmode="layer"
     inkscape:label="Layer 1">
    <g
       transform="matrix(0.30793381,0,0,0.30793381,363.37398,-363.70621)"
       id="g3022">
      <path
         inkscape:connector-curvature="0"
         id="path3010"
         d="m 964.07143,1320.7853 c -26.97938,-0.8356 -37.74243,-2.4424 -53.68841,-8.0155 -39.2576,-13.7203 -62.1532,-41.84 -71.89158,-88.2952 -2.20781,-10.5319 -2.66524,-16.1574 -3.50562,-43.1124 -0.60293,-19.3386 -0.84368,-305.41852 -0.64,-760.50002 0.30833,-688.87983 0.42353,-729.97219 2.06882,-737.98011 5.65994,-27.54799 18.79768,-51.36056 37.15998,-67.35365 14.80256,-12.89265 31.77422,-21.48073 55.15577,-27.91019 l 11.84104,-3.25605 318.99997,-0.29962 c 214.3031,-0.20128 321.9554,0.0384 328.0046,0.73043 20.2636,2.31801 44.051,13.59694 61.8517,29.32731 24.3601,21.52692 40.2226,56.88429 42.7288,95.24188 0.6305,9.65038 0.8649,280.16298 0.6572,758.5 -0.3026,697.03872 -0.4295,743.93742 -2.0305,750.50002 -5.3787,22.0471 -7.3812,27.9055 -14.1163,41.2987 -13.4413,26.7292 -35.7655,45.4489 -65.5955,55.0045 -14.2057,4.5506 -17.7563,5.1142 -39,6.1901 -22.8911,1.1593 -570.3391,1.0961 -607.99997,-0.07 z m 317.49997,-69.4154 c 9.0289,-2.4559 23.2313,-9.7542 30.1868,-15.5124 33.0125,-27.33 39.678,-76.1563 15.2252,-111.5285 -15.1528,-21.9193 -38.9972,-34.5264 -65.412,-34.5849 -41.9,-0.093 -76.0987,31.0846 -80.4728,73.3636 -4.3303,41.8554 23.0185,79.9539 64.0846,89.2735 8.0839,1.8345 27.9559,1.2823 36.3882,-1.0113 z m -44.5769,-54.4308 -2.9231,-2.9231 0,-22.1538 0,-22.1538 2.9231,-2.9231 2.9231,-2.9231 20.1266,0 c 21.9074,0 24.5884,0.5468 26.8325,5.4721 1.5651,3.4349 1.6635,42.7835 0.1142,45.6783 -2.176,4.0659 -6.6141,4.8496 -27.4643,4.8496 l -19.609,0 -2.9231,-2.9231 z m 404.8278,-742.32692 -0.2509,-571.25 -378,0 -377.99997,0 -0.25562,570 c -0.14058,313.5 -0.0422,570.56252 0.21862,571.25002 0.37823,0.997 77.00027,1.25 378.50647,1.25 l 378.0323,0 -0.2509,-571.25002 z m -307.366,-707.17794 c 10.4164,-5.16936 12.7873,-19.63069 4.4601,-27.20509 -6.2124,-5.65087 -2.9082,-5.43089 -77.1628,-5.13723 l -68.3389,0.27026 -3.7568,2.86583 c -5.1181,3.90432 -7.5782,8.25958 -7.5827,13.42401 -0.01,7.99932 5.1604,14.75954 13.0328,17.05007 2.1994,0.63993 27.5519,0.94429 69.4634,0.83391 62.9748,-0.16585 66.1781,-0.26219 69.8849,-2.10176 z m 81.7159,1.29188 c 3.9682,-1.32621 8.4854,-5.23009 10.4885,-9.06428 0.7759,-1.48519 1.4091,-5.08519 1.407,-8 0,-6.23968 -2.1142,-10.26235 -7.5614,-14.41716 -3.0862,-2.35397 -4.7087,-2.84701 -9.3352,-2.83677 -9.4958,0.021 -16.0289,5.66184 -16.8857,14.57975 -0.6931,7.21253 0.4478,11.21947 4.3337,15.22068 4.9795,5.12721 11.0527,6.6903 17.5531,4.51778 z"
         style="fill:#cce6f5" />
      <path
         inkscape:connector-curvature="0"
         id="path3008"
         d="m 951.57143,1320.2053 c -12.96559,-0.8121 -33.22799,-5.0913 -44.5,-9.3979 -17.34026,-6.625 -34.48169,-19.0323 -44.51781,-32.2226 -13.86058,-18.2169 -23.10058,-44.4192 -26.42443,-74.9332 -0.73414,-6.7396 -1.05596,-238.4985 -1.05187,-757.50001 0.006,-814.13768 -0.40854,-755.26188 5.46791,-775.78941 3.15634,-11.02569 11.0578,-27.67948 17.29788,-36.45851 9.4458,-13.28909 25.62497,-26.77291 41.8603,-34.88663 8.254,-4.12499 27.82049,-10.5819 38.86802,-12.82637 8.60756,-1.74876 22.95338,-1.82849 328.99997,-1.82849 l 320,0 10,2.89817 c 36.7645,10.65496 62.7991,31.88243 78.3329,63.86919 9.9592,20.50769 14.7597,39.84771 16.1918,65.23264 1.1722,20.77917 1.1954,1457.75512 0.024,1478.50002 -1.4508,25.6887 -6.3514,44.8445 -16.6417,65.0494 -15.3408,30.1218 -40.4715,48.5762 -79.3175,58.2461 l -8.5893,2.1381 -315.5,0.1113 c -173.525,0.061 -317.75005,-0.03 -320.50005,-0.2018 z m 324.11777,-66.8343 c 49.5453,-9.4796 78.5568,-60.2235 62.2964,-108.9625 -9.1808,-27.5185 -32.6773,-48.3743 -60.9118,-54.066 -10.1434,-2.0448 -27.1598,-1.604 -36.5024,0.9455 -24.442,6.6701 -44.6391,24.542 -54.4979,48.2238 -4.9512,11.8934 -6.2393,19.8147 -5.7485,35.3504 0.3711,11.7439 0.8338,14.7358 3.5567,23 12.9157,39.2 52.3694,63.0546 91.8075,55.5088 z m -38.1632,-56.9633 -2.4546,-2.4546 0,-22.0909 0,-22.0909 2.4546,-2.4546 c 2.4473,-2.4473 2.5149,-2.4545 23.0769,-2.4545 l 20.6224,0 2.8374,2.8374 c 1.9137,1.9137 3.062,4.3348 3.5272,7.4369 0.866,5.7749 0.1018,36.6068 -0.967,39.0127 -1.8062,4.0659 -5.4511,4.713 -26.5473,4.713 -20.0022,0 -20.1064,-0.011 -22.5496,-2.4545 z m 405.2963,-741.48597 c 0.2004,-456.4933 -8e-4,-571.6002 -1,-572.23468 -1.9582,-1.24337 -753.49114,-1.03424 -755.81661,0.21031 -1.90887,1.0216 -1.93426,8.51503 -1.93426,570.91822 0,313.4357 0.27337,570.59542 0.60749,571.46612 0.55292,1.4409 34.62175,1.5605 379.24998,1.3318 l 378.6425,-0.2513 0.2509,-571.44047 z m -308.2509,-706.70314 c 4.9095,-2.63099 6.9678,-4.83829 8.9619,-9.61089 3.6171,-8.65696 0.2528,-17.46158 -8.3993,-21.98147 l -5.2909,-2.76405 -66.6359,0.01 -66.6358,0.01 -5.0959,2.37282 c -6.1028,2.84172 -9.5173,7.73034 -10.1742,14.56702 -0.8666,9.01912 5.197,16.61265 15.2701,19.12278 1.65,0.41117 32.475,0.67339 68.5,0.58271 64.8952,-0.16335 65.537,-0.18466 69.5,-2.30846 z m 84.9476,0.10147 c 12.2304,-5.80373 12.6834,-25.19454 0.7519,-32.18686 -12.6352,-7.40476 -27.1995,1.01747 -27.1995,15.72898 0,14.33146 13.3811,22.6583 26.4476,16.45788 z"
         style="fill:#afd8f1" />
      <path
         inkscape:connector-curvature="0"
         id="path3006"
         d="m 951.57143,1319.8063 c -12.45207,-0.9816 -28.30655,-4.1649 -39.72251,-7.9758 -38.21811,-12.758 -61.36924,-40.1394 -71.21373,-84.2265 -5.92688,-26.5426 -5.54138,27.7057 -5.55305,-781.4406 -0.0117,-809.90981 -0.42312,-752.03716 5.50477,-774.30122 3.42551,-12.86562 12.7358,-31.48686 20.80433,-41.61015 18.03975,-22.63384 42.32982,-36.06804 79.68019,-44.06903 8.10168,-1.73549 23.14396,-1.83427 320.99997,-2.10792 219.2708,-0.20145 314.9705,0.0346 320.7808,0.79134 17.1756,2.23684 37.0784,9.7254 51.6935,19.44995 28.4312,18.91742 46.534,48.26073 54.7295,88.71202 l 2.2962,11.33379 0,751.5 0,751.50002 -2.7257,12.6016 c -12.0036,55.4948 -41.2458,85.8305 -94.5753,98.1117 l -9.699,2.2336 -311.5,0.1427 c -171.325,0.079 -315.99997,-0.212 -321.49997,-0.6455 z m 334.10187,-68.3793 c 22.2187,-7.4919 39.5946,-22.8586 49.2631,-43.5667 5.3695,-11.5005 7.0977,-18.4918 7.786,-31.4981 1.6162,-30.5363 -11.7526,-57.7381 -36.5175,-74.3031 -24.5337,-16.4103 -54.8578,-18.4081 -80.8729,-5.3279 -32.5263,16.3539 -50.9534,52.2809 -45.2028,88.131 5.3305,33.2314 31.2325,61.2694 63.3517,68.5762 4.1132,0.9357 10.6357,1.2776 20.0905,1.053 12.06,-0.2864 15.1228,-0.7111 22.1019,-3.0644 z m -48.1969,-55.6698 c -1.751,-1.9349 -1.905,-3.8718 -1.905,-23.9722 0,-28.6334 -2.0524,-26.315 23.6685,-26.7349 28.7716,-0.4696 27.8315,-1.4089 27.8315,27.8079 0,27.0749 2.178,25.0042 -26.2995,25.0042 -20.4761,0 -21.4719,-0.09 -23.2955,-2.105 z m 405.3459,-741.14502 -0.2509,-572.25 -379,0 -378.99997,0 -0.25561,571 c -0.14059,314.05 -0.0422,571.56252 0.21861,572.25002 0.37823,0.997 77.20027,1.25 379.50647,1.25 l 379.0323,0 -0.2509,-572.25002 z m -307.9327,-706.34667 c 6.7654,-3.37136 10.1818,-8.8376 10.1818,-16.29085 0,-7.80933 -3.103,-12.53308 -11,-16.74551 -3.2954,-1.75783 -7.2641,-1.88402 -67.8908,-2.15863 -43.0913,-0.19518 -66.1009,0.0634 -69.5604,0.78155 -13.4225,2.78648 -19.825,16.03763 -13.206,27.33209 2.7258,4.65123 4.5653,6.16379 10.1572,8.35194 2.1822,0.85391 21.1425,1.19466 69.5537,1.25 l 66.5536,0.0761 5.2109,-2.59667 z m 83.4796,1.24563 c 4.4065,-1.84115 9.3849,-7.75657 10.729,-12.74845 4.9802,-18.49497 -17.7743,-31.81961 -31.2781,-18.31588 -11.7044,11.70448 -3.3784,32.41156 13.0334,32.41458 2.3552,4.4e-4 5.7372,-0.60718 7.5157,-1.35025 z"
         style="fill:#8fc9ec" />
      <path
         inkscape:connector-curvature="0"
         id="path3004"
         d="m 954.90339,1319.7912 c -23.42672,-1.9585 -40.84119,-6.3301 -57.47587,-14.4285 -19.89837,-9.6872 -33.6752,-23.2063 -44.1236,-43.2979 -8.05776,-15.4946 -12.98237,-32.6289 -16.44075,-57.2026 -1.68509,-11.9735 -2.42803,-1487.99951 -0.75752,-1505.00002 2.03953,-20.75594 5.85319,-34.79421 13.71892,-50.5 6.04878,-12.0778 9.15083,-16.41643 19.18838,-26.83747 20.11289,-20.88131 48.94875,-33.56633 85.55848,-37.63755 7.18136,-0.79861 97.23687,-1.02932 319.49997,-0.81852 l 309.5,0.29354 11.6087,3.14561 c 30.0448,8.14126 51.7685,22.46611 68.8355,45.39088 14.1589,19.01846 24.0919,46.90063 27.0106,75.81946 1.4731,14.59553 1.4631,1480.37807 -0.01,1493.93347 -1.2988,11.9496 -5.2942,30.2654 -8.6539,39.6708 -3.7918,10.615 -10.6796,23.9717 -16.1931,31.4012 -5.6863,7.6624 -18.5491,20.3859 -25.0976,24.8257 -11.8749,8.0512 -29.5391,15.1443 -48.5,19.4753 l -10,2.2842 -309,0.1453 c -169.95,0.08 -313.35059,-0.2184 -318.66801,-0.6629 z m 327.16801,-66.9688 c 27.3562,-7.5535 47.737,-27.1608 57.6481,-55.4602 2.6399,-7.5376 2.8033,-8.9826 2.8269,-25 0.028,-19.048 -1.258,-25.1885 -8.168,-39 -11.3736,-22.7329 -32.5858,-38.8753 -57.9987,-44.1368 -15.5205,-3.2133 -36.2277,-0.4407 -50.6369,6.78 -21.2527,10.6502 -35.4504,27.3405 -43.2616,50.8568 -2.6336,7.9288 -2.8252,9.6087 -2.8504,25 -0.026,16.0616 0.059,16.7484 3.2215,25.8506 10.719,30.8546 35.4919,52.294 66.0224,57.1386 8.4316,1.3379 24.5768,0.3511 33.1967,-2.029 z m -44,-56.9602 c -1.8788,-1.8788 -2,-3.3333 -2,-24 0,-20.6667 0.1212,-22.1212 2,-24 1.872,-1.872 3.3334,-2 22.8257,-2 l 20.8257,0 2.4243,2.5779 c 2.3595,2.5091 2.433,3.077 2.7479,21.25 0.3592,20.7312 -0.3599,25.1842 -4.3614,27.0074 -1.6723,0.7619 -9.456,1.1647 -22.5092,1.1647 -18.6196,0 -20.0866,-0.1336 -21.953,-2 z m 404.8785,-169.3535 c 0.8288,-0.9987 1.0575,-151.14242 0.8724,-572.75003 l -0.2509,-571.39649 -379.75,-0.2513 -379.74997,-0.25131 0,572.33464 c 0,314.78407 0.3,572.63469 0.66667,573.00129 0.36666,0.3667 170.8616,0.6667 378.8776,0.6667 316.775,0 378.3933,-0.2199 379.3342,-1.3535 z M 1420.2738,-251.24106 c 2.0875,-1.06495 5.0334,-3.80702 6.5465,-6.09349 2.3085,-3.48839 2.7511,-5.22644 2.7511,-10.80327 0,-5.57367 -0.443,-7.31554 -2.7457,-10.79514 -10.4208,-15.74687 -34.7103,-8.19266 -34.7103,10.79514 0,15.02582 14.6243,23.80133 28.1584,16.89676 z m -85.661,0.22358 c 14.7588,-6.70398 14.9506,-26.21139 0.3294,-33.49743 l -5.2635,-2.62291 -66.5536,0.01 -66.5537,0.01 -5.1856,2.4144 c -14.8057,6.89347 -14.7199,26.93455 0.1443,33.6864 3.793,1.72294 8.1889,1.83574 71.5413,1.83574 63.3524,0 67.7484,-0.1128 71.5414,-1.83574 z"
         style="fill:#7ec0e9" />
      <path
         inkscape:connector-curvature="0"
         id="path3002"
         d="m 958.07143,1319.7386 c -40.58827,-3.3225 -69.18902,-14.5408 -88.02523,-34.5266 -18.2384,-19.3516 -28.09891,-44.4438 -33.14689,-84.3498 -1.58606,-12.5383 -2.46764,-1466.82644 -0.90413,-1491.50002 2.05519,-32.43288 7.53893,-51.18583 20.90803,-71.5 18.84427,-28.6336 49.25281,-45.54325 93.64587,-52.07481 12.60957,-1.85525 22.69257,-1.91612 318.09742,-1.92058 299.6411,-0.005 305.2697,0.0306 316,1.97405 59.7932,10.8294 95.9843,51.43712 105.6308,118.52134 1.0496,7.29953 1.2941,149.28847 1.2941,751.5 0,703.93402 -0.091,743.07582 -1.7603,753.58482 -4.166,26.2336 -11.071,45.1503 -22.8178,62.5102 -15.8191,23.3782 -42.6254,39.364 -77.4219,46.17 l -11,2.1515 -305,0.1597 c -167.75,0.088 -309.72497,-0.227 -315.49997,-0.6998 z m 319.79217,-65.4559 c 34.5992,-7.0902 61.1961,-36.5713 65.4121,-72.5054 5.8668,-50.0038 -32.2583,-93.9739 -81.7043,-94.2305 -17.8838,-0.093 -34.9518,5.5304 -49.4825,16.3025 -28.6153,21.2134 -40.9491,60.4024 -29.5543,93.9047 4.7642,14.0072 10.2319,22.8642 20.5036,33.2131 12.8379,12.9344 24.9327,19.7524 41.5332,23.413 8.3192,1.8345 24.0899,1.7883 33.2922,-0.097 z m -39.2642,-58.8017 -2.528,-2.5279 0,-21.0909 c 0,-28.1114 -2.0154,-26 24.8182,-26 l 19.9091,0 2.6364,2.6364 2.6363,2.6363 0,20.7529 c 0,27.7612 2.2516,25.3789 -24.382,25.7978 l -20.5621,0.3234 -2.5279,-2.528 z m 405.2229,-740.55927 c 0.2004,-457.2933 -8e-4,-572.6002 -1,-573.23468 -0.688,-0.43684 -171.3734,-0.80114 -379.3009,-0.80956 -292.72259,-0.0118 -378.32082,0.25553 -379.24997,1.18469 -0.93053,0.93053 -1.2,129.56296 -1.2,572.83333 0,314.39837 0.30059,571.93399 0.66797,572.30129 0.36738,0.3674 171.4799,0.5549 380.25,0.4167 l 379.582,-0.2513 0.2509,-572.44047 z M 1336.2949,-251.4144 c 2.9941,-1.76008 5.6913,-4.42827 7.3674,-7.28823 2.2607,-3.85766 2.5816,-5.37361 2.2139,-10.45807 -0.4991,-6.89885 -3.8535,-11.96628 -10.3998,-15.71067 l -3.905,-2.23355 -68.2996,-0.0165 c -74.7424,-0.018 -70.9099,-0.30703 -77.5397,5.84771 -4.1761,3.87693 -5.6607,7.38866 -5.6607,13.3904 0,8.8658 5.62,15.92184 14.9936,18.82495 1.3785,0.42695 32.6564,0.69623 69.5064,0.59839 l 67,-0.1779 4.7234,-2.77658 z m 81.5586,1.7259 c 7.8127,-3.25858 14.1122,-13.21714 12.7036,-20.08246 -0.2671,-1.30177 -0.7172,-3.48361 -1.0001,-4.84852 -1.292,-6.23233 -11.208,-13.45107 -18.5392,-13.49638 -5.9052,-0.0365 -13.5595,4.46175 -16.6942,9.81072 -9.4391,16.10665 6.6397,35.66136 23.5299,28.61664 z"
         style="fill:#55ace2" />
      <path
         inkscape:connector-curvature="0"
         id="path3000"
         d="m 967.57143,1319.7832 c -4.4,-0.455 -12.95,-1.3226 -19,-1.928 -71.74254,-7.1786 -105.46865,-45.4544 -111.45729,-126.493 -1.45577,-19.6996 -1.44271,-1474.54112 0.0134,-1490.50002 4.02644,-44.13008 21.79264,-75.05608 54.71293,-95.23997 14.0944,-8.64148 36.91915,-16.23649 56.23098,-18.71106 4.675,-0.59904 11.425,-1.55627 15,-2.12718 4.41933,-0.70574 103.33115,-0.93938 308.99995,-0.7299 l 302.5,0.30811 11.158,2.24565 c 40.9795,8.24748 70.7732,30.14501 88.1047,64.75435 8.2868,16.54804 14.1517,38.05954 16.222,59.5 0.8062,8.3492 1.0145,214.52079 0.76,752.5 -0.3168,669.82062 -0.502,741.76852 -1.9276,749.00002 -5.892,29.8862 -14.2442,49.7368 -27.8716,66.2419 -17.8094,21.5704 -42.8695,34.2361 -79.1182,39.9876 -9.3789,1.4881 -37.6916,1.656 -308.3273,1.8286 -163.9,0.1046 -301.59995,-0.1821 -305.99995,-0.6371 z m 313.99997,-65.4702 c 7.4504,-2.0093 20.7799,-8.1713 27.1367,-12.5448 25.4778,-17.5292 39.7271,-51.1804 34.9751,-82.5972 -5.2044,-34.4074 -29.3734,-61.5291 -62.2662,-69.873 -32.0048,-8.1187 -66.2481,3.836 -85.8578,29.9739 -34.6034,46.123 -16.8688,110.4778 36.4112,132.1274 13.4317,5.4578 35.3853,6.7474 49.601,2.9137 z m -42.9433,-59.6733 c -1.2896,-1.8413 -1.5567,-5.846 -1.5567,-23.345 0,-19.1932 0.1671,-21.2737 1.8288,-22.7775 1.5744,-1.4249 4.6337,-1.655 22,-1.655 18.5865,0 20.3227,0.1515 22.0992,1.9279 2.717,2.7171 3.3319,8.5161 2.9261,27.5977 -0.4688,22.0488 1.485,20.4744 -25.4082,20.4744 -19.8774,0 -20.3673,-0.05 -21.8892,-2.2225 z m 405.2433,-166.9775 c 0.9306,-0.9305 1.2,-129.71662 1.2,-573.52477 l 0,-572.32475 -2.5753,-0.97916 c -3.2022,-1.21747 -757.87178,-0.85759 -759.09135,0.36199 -1.27345,1.27345 -1.57322,1143.34989 -0.30074,1145.72759 1.02413,1.9136 6.0305,1.9391 380.30259,1.9391 293.6504,0 379.5357,-0.2709 380.4648,-1.2 z M 1335.289,-249.96131 c 8.9278,-4.39716 13.519,-14.39163 10.8072,-23.52604 -1.5445,-5.20247 -8.5683,-12.15214 -13.7305,-13.58567 -2.4817,-0.68916 -26.7231,-1.05558 -70.0764,-1.05922 -72.393,-0.006 -70.2757,-0.16643 -76.5594,5.79747 -11.842,11.23921 -6.9136,29.43096 9.1621,33.81937 3.6118,0.98598 19.623,1.23181 70.1794,1.0775 l 65.5,-0.19992 4.7176,-2.32349 z m 81.0598,1.76336 c 2.0775,-0.57693 5.3665,-2.44432 7.3089,-4.14974 9.9634,-8.74796 9.957,-22.83786 -0.014,-31.59273 -8.8563,-7.77592 -22.3724,-5.86506 -29.3083,4.14352 -2.4316,3.50871 -2.7638,4.91014 -2.7638,11.65908 0,6.72421 0.3366,8.15673 2.7273,11.60647 2.7869,4.02148 6.8803,6.98836 11.6154,8.41884 3.758,1.13529 6.1081,1.11605 10.4347,-0.0854 z"
         style="fill:#2696da" />
      <path
         inkscape:connector-curvature="0"
         id="path2998"
         d="m 1131.4022,1320.1122 c 79.1069,-0.1412 208.2569,-0.1412 287,0 78.7431,0.1413 14.0192,0.2569 -143.8308,0.2568 -157.85,0 -222.2761,-0.1155 -143.1692,-0.2568 z m -171.33077,-1.9508 c -45.77093,-3.5736 -75.49799,-16.3936 -94.46965,-40.7404 -13.96155,-17.9172 -22.3771,-41.24 -26.72261,-74.0588 -1.67898,-12.6803 -2.46193,-1479.36489 -0.80073,-1500.00002 2.77678,-34.49275 12.57602,-58.76345 31.76055,-78.66436 20.09374,-20.84407 46.16745,-32.68146 82.07418,-37.26143 10.99119,-1.40194 45.73531,-1.57386 317.50003,-1.57102 270.5797,0.003 306.1781,0.17819 314.1582,1.54749 61.2166,10.504 98.5825,54.40236 105.5046,123.94932 0.7855,7.89157 1.0041,220.11279 0.7739,751 -0.3008,693.40862 -0.4289,740.59812 -2.0337,749.50002 -6.0011,33.2892 -15.5081,53.5905 -33.7448,72.0581 -15.3009,15.4947 -31.0076,24.2685 -53.3902,29.8239 -21.4838,5.3322 -5.3694,5.0936 -332.6098,4.925 -166.925,-0.086 -305.52497,-0.3145 -307.99997,-0.5078 z m 313.35647,-61.33 c 17.8473,-2.5801 33.5274,-10.7139 47.1435,-24.455 13.5373,-13.6614 20.6868,-27.5552 23.8975,-46.4404 1.9746,-11.615 1.9962,-16.1001 0.1328,-27.5738 -5.6518,-34.7991 -29.878,-61.6153 -63.3305,-70.1012 -49.523,-12.5626 -98.7851,22.7729 -104.1587,74.7125 -1.7268,16.69 1.0472,31.4712 8.8934,47.3887 16.4257,33.3227 51.0501,51.7273 87.422,46.4692 z m -34.3213,-62.9035 c -0.6152,-1.1496 -1.0352,-10.1009 -1.0352,-22.0657 0,-11.9648 0.42,-20.9161 1.0352,-22.0657 0.9713,-1.8149 2.2888,-1.9343 21.345,-1.9343 25.8274,0 23.9903,-1.4466 24.4648,19.2652 0.3933,17.1666 -0.3295,25.0764 -2.4884,27.2354 -1.2345,1.2345 -5.1023,1.4994 -21.8928,1.4994 -19.1389,0 -20.4571,-0.119 -21.4286,-1.9343 z m 405.7648,-165.2657 c 1.5211,-1.521 1.7415,-1145.39503 0.2212,-1147.80002 -0.8401,-1.32904 -44.257,-1.5 -380.9347,-1.5 -310.45042,0 -380.22436,0.23789 -381.28646,1.3 -1.06365,1.06364 -1.30001,105.47592 -1.30001,574.28647 0,508.23325 0.16951,573.09365 1.5,573.93475 2.40302,1.519 760.27977,1.299 761.79997,-0.2212 z m -309.8,-1277.38323 c 16.6446,-7.70536 17.2832,-29.17905 1.1188,-37.62342 l -5.3471,-2.79337 -67.7717,0 -67.7716,0 -5.3471,2.79337 c -18.3357,9.57869 -14.3682,35.05353 6.1187,39.28751 1.925,0.39783 32.975,0.65488 69,0.57123 64.1001,-0.14886 65.5962,-0.19663 70,-2.23532 z m 86.3402,-0.66611 c 2.2391,-1.23787 5.441,-4.20194 7.1154,-6.58682 2.7566,-3.92619 3.0444,-5.06761 3.0444,-12.07303 0,-6.75078 -0.3476,-8.26222 -2.7276,-11.85858 -9.3508,-14.13003 -30.7893,-12.40268 -37.2246,2.99928 -1.9819,4.74317 -1.9819,12.79377 0,17.53694 4.8473,11.60128 18.5558,16.19444 29.7924,9.98221 z M 1122.9023,-415.8878 c 82.132,-0.14111 216.232,-0.14111 298,1e-5 81.768,0.14112 14.5691,0.25657 -149.3309,0.25657 -163.9,-1e-5 -230.8011,-0.11547 -148.6691,-0.25658 z"
         style="fill:#0084d5" />
    </g>
  </g>
</svg>
