<?xml version="1.0" encoding="utf-8"?>
<!-- Generator: Adobe Illustrator 18.0.0, SVG Export Plug-In . SVG Version: 6.00 Build 0)  -->
<!DOCTYPE svg PUBLIC "-//W3C//DTD SVG 1.1//EN" "http://www.w3.org/Graphics/SVG/1.1/DTD/svg11.dtd">
<svg version="1.1" id="Layer_1" xmlns="http://www.w3.org/2000/svg" xmlns:xlink="http://www.w3.org/1999/xlink" x="0px" y="0px"
	 viewBox="0 0 669.3 669.3" enable-background="new 0 0 669.3 669.3" xml:space="preserve">
<rect x="0" y="0" display="none" fill="#DDDEDD" width="669.3" height="669.3"/>
<g>
	<g>
		<rect x="15.1" y="16.3" fill="#FFFFFF" width="79.2" height="79.2"/>
		<rect x="108.4" y="16.3" fill="#FFFFFF" width="79.2" height="79.2"/>
		<rect x="201.7" y="16.3" fill="#FFFFFF" width="79.2" height="79.2"/>
		<rect x="295" y="16.3" fill="#FFFFFF" width="79.2" height="79.2"/>
		<rect x="388.3" y="16.3" fill="#FFFFFF" width="79.2" height="79.2"/>
		<rect x="481.6" y="16.3" fill="#FFFFFF" width="79.2" height="79.2"/>
		<rect x="574.9" y="16.3" fill="#FFFFFF" width="79.2" height="79.2"/>
	</g>
	<g>
		<rect x="15.1" y="109.2" fill="#FFFFFF" width="79.2" height="79.2"/>
		<rect x="108.4" y="109.2" fill="#FFFFFF" width="79.2" height="79.2"/>
		<rect x="201.7" y="109.2" fill="#FFFFFF" width="79.2" height="79.2"/>
		<rect x="295" y="109.2" fill="#FFFFFF" width="79.2" height="79.2"/>
		<rect x="388.3" y="109.2" fill="#FFFFFF" width="79.2" height="79.2"/>
		<rect x="481.6" y="109.2" fill="#FFFFFF" width="79.2" height="79.2"/>
		<rect x="574.9" y="109.2" fill="#FFFFFF" width="79.2" height="79.2"/>
	</g>
	<g>
		<rect x="15.1" y="202.1" fill="#FFFFFF" width="79.2" height="79.2"/>
		<rect x="108.4" y="202.1" fill="#FFFFFF" width="79.2" height="79.2"/>
		<rect x="201.7" y="202.1" fill="#FFFFFF" width="79.2" height="79.2"/>
		<rect x="295" y="202.1" fill="#FFFFFF" width="79.2" height="79.2"/>
		<rect x="388.3" y="202.1" fill="#FFFFFF" width="79.2" height="79.2"/>
		<rect x="481.6" y="202.1" fill="#FFFFFF" width="79.2" height="79.2"/>
		<rect x="574.9" y="202.1" fill="#FFFFFF" width="79.2" height="79.2"/>
	</g>
	<g>
		<rect x="15.1" y="295" fill="#FFFFFF" width="79.2" height="79.2"/>
		<rect x="108.4" y="295" fill="#FFFFFF" width="79.2" height="79.2"/>
		<rect x="201.7" y="295" fill="#FFFFFF" width="79.2" height="79.2"/>
		<rect x="295" y="295" fill="#FFFFFF" width="79.2" height="79.2"/>
		<rect x="388.3" y="295" fill="#FFFFFF" width="79.2" height="79.2"/>
		<rect x="481.6" y="295" fill="#FFFFFF" width="79.2" height="79.2"/>
		<rect x="574.9" y="295" fill="#FFFFFF" width="79.2" height="79.2"/>
	</g>
	<g>
		<rect x="15.1" y="387.9" fill="#FFFFFF" width="79.2" height="79.2"/>
		<rect x="108.4" y="387.9" fill="#FFFFFF" width="79.2" height="79.2"/>
		<rect x="201.7" y="387.9" fill="#FFFFFF" width="79.2" height="79.2"/>
		<rect x="295" y="387.9" fill="#FFFFFF" width="79.2" height="79.2"/>
		<rect x="388.3" y="387.9" fill="#FFFFFF" width="79.2" height="79.2"/>
		<rect x="481.6" y="387.9" fill="#FFFFFF" width="79.2" height="79.2"/>
		<rect x="574.9" y="387.9" fill="#FFFFFF" width="79.2" height="79.2"/>
	</g>
	<g>
		<rect x="15.1" y="480.8" fill="#FFFFFF" width="79.2" height="79.2"/>
		<rect x="108.4" y="480.8" fill="#FFFFFF" width="79.2" height="79.2"/>
		<rect x="201.7" y="480.8" fill="#FFFFFF" width="79.2" height="79.2"/>
		<rect x="295" y="480.8" fill="#FFFFFF" width="79.2" height="79.2"/>
		<rect x="388.3" y="480.8" fill="#FFFFFF" width="79.2" height="79.2"/>
		<rect x="481.6" y="480.8" fill="#FFFFFF" width="79.2" height="79.2"/>
		<rect x="574.9" y="480.8" fill="#FFFFFF" width="79.2" height="79.2"/>
	</g>
	<g>
		<rect x="15.1" y="573.7" fill="#FFFFFF" width="79.2" height="79.2"/>
		<rect x="108.4" y="573.7" fill="#FFFFFF" width="79.2" height="79.2"/>
		<rect x="201.7" y="573.7" fill="#FFFFFF" width="79.2" height="79.2"/>
		<rect x="295" y="573.7" fill="#FFFFFF" width="79.2" height="79.2"/>
		<rect x="388.3" y="573.7" fill="#FFFFFF" width="79.2" height="79.2"/>
		<rect x="481.6" y="573.7" fill="#FFFFFF" width="79.2" height="79.2"/>
		<rect x="574.9" y="573.7" fill="#FFFFFF" width="79.2" height="79.2"/>
	</g>
</g>
<rect id="kaderke_19" x="15.1" y="16.3" fill="#8EC84E" width="172.5" height="172.1"/>
<rect id="kaderke_18" x="201.7" y="16.3" fill="#BECE47" width="172.5" height="79.2"/>
<rect id="kaderke_17" x="201.7" y="109.2" fill="#7CA03E" width="79.2" height="79.2"/>
<rect id="kaderke_16" x="295" y="109.2" fill="#8EC84E" width="172.5" height="79.2"/>
<rect id="kaderke_15" x="388.3" y="16.3" fill="#B1B740" width="265.8" height="79.2"/>
<rect id="kaderke_14" x="481.6" y="109.2" fill="#7CA03E" width="172.5" height="172.1"/>
<rect id="kaderke_13" x="15.1" y="202.1" fill="#BECE47" width="79.2" height="172.1"/>
<rect id="kaderke_12" x="108.4" y="202.1" fill="#B1B740" width="79.2" height="79.2"/>
<rect id="kaderke_11" x="108.4" y="295" fill="#8EC84E" width="79.2" height="172.1"/>
<rect id="kaderke_10" x="15.1" y="387.9" fill="#7CA03E" width="79.2" height="79.2"/>
<rect id="kaderke_9" x="201.7" y="387.9" fill="#BECE47" width="172.5" height="172.1"/>
<rect id="kaderke_8" x="15.1" y="480.8" fill="#B1B740" width="172.5" height="79.2"/>
<rect id="kaderke_7" x="15.1" y="573.7" fill="#7CA03E" width="265.8" height="79.2"/>
<rect id="kaderke_6" x="295" y="573.7" fill="#B1B740" width="172.5" height="79.2"/>
<rect id="kaderke_5" x="388.3" y="387.9" fill="#8EC84E" width="172.5" height="79.2"/>
<rect id="kaderke_4" x="481.6" y="480.8" fill="#7CA03E" width="172.5" height="172.1"/>
<rect id="kaderke_3" x="388.3" y="480.8" fill="#B1B740" width="79.2" height="79.2"/>
<rect id="kaderke_2" x="481.6" y="295" fill="#BECE47" width="79.2" height="79.2"/>
<rect id="kaderke_1" x="574.9" y="295" fill="#B1B740" width="79.2" height="172.1"/>
<g>
	<rect x="201.7" y="202.1" fill="#B1B740" width="265.8" height="172.1"/>
	<g>
		<g>
			<path fill="#FFFFFF" d="M313.9,321.6h-17.6c-3.1,0-6.1-0.4-9-1.3c-2.9-0.9-5.2-2.1-6.8-3.6c-0.8-0.7-1.5-1.7-2.1-2.9
				c-0.6-1.2-1.1-2.5-1.6-4c-0.4-1.4-0.8-2.9-1-4.5c-0.2-1.5-0.3-3-0.3-4.4v-63.6h7.6v63.6c0,1.1,0.1,2.1,0.3,3.2
				c0.2,1.1,0.4,2.1,0.6,3.1c0.2,1,0.5,1.8,0.9,2.5c0.3,0.7,0.7,1.2,1,1.5c0.3,0.4,0.8,0.7,1.5,1c0.7,0.3,1.5,0.6,2.5,0.9
				c0.9,0.3,1.9,0.5,3.1,0.6c1.1,0.2,2.2,0.3,3.3,0.3h17.6V321.6z"/>
			<path fill="#FFFFFF" d="M355.8,300.9c0,3.1-0.4,6.1-1.3,9c-0.9,2.9-2.1,5.1-3.6,6.6c-0.8,0.8-1.7,1.5-2.8,2.1
				c-1.1,0.6-2.3,1.1-3.6,1.6c-1.3,0.4-2.6,0.8-4,1c-1.4,0.3-2.6,0.4-3.9,0.4c-2.5,0-5.1-0.4-7.8-1.3c-2.7-0.9-4.8-2.1-6.4-3.6
				c-0.8-0.7-1.5-1.7-2.1-2.9c-0.6-1.2-1.1-2.5-1.6-4c-0.4-1.4-0.8-2.9-1-4.5c-0.2-1.5-0.3-3-0.3-4.4v-12.2c0-3,0.4-6,1.3-8.9
				c0.9-2.9,2-5.2,3.5-6.8c0.8-0.8,1.8-1.5,2.9-2.1c1.1-0.6,2.4-1.1,3.6-1.6s2.6-0.8,3.9-1c1.3-0.3,2.6-0.4,3.8-0.4
				c2.6,0,5.2,0.4,7.9,1.3c2.7,0.9,4.8,2.1,6.3,3.6c1.6,1.6,2.8,3.9,3.7,6.9c0.9,3,1.3,6,1.3,8.8V300.9z M347.9,285.5
				c-0.2-1.1-0.4-2.1-0.6-3c-0.3-0.9-0.6-1.8-0.9-2.5c-0.4-0.7-0.7-1.2-1-1.5c-0.6-0.6-1.8-1.3-3.5-1.9c-1.8-0.6-3.5-0.9-5.3-0.9
				c-1.8,0-3.5,0.3-5.2,0.9c-1.7,0.6-2.8,1.2-3.5,1.8c-0.4,0.3-0.7,0.8-1,1.5c-0.3,0.7-0.6,1.5-0.9,2.5c-0.3,0.9-0.5,1.9-0.6,3.1
				c-0.2,1.1-0.3,2.2-0.3,3.3v12.2c0,1.1,0.1,2.1,0.3,3.2c0.2,1.1,0.4,2.1,0.6,3.1c0.2,1,0.5,1.8,0.9,2.5c0.3,0.7,0.7,1.2,1,1.5
				c0.6,0.6,1.7,1.3,3.5,1.9c1.8,0.6,3.5,0.9,5.2,0.9c0.9,0,1.8-0.1,2.7-0.3c0.9-0.2,1.8-0.4,2.6-0.6c0.8-0.2,1.5-0.5,2.1-0.9
				s1.1-0.6,1.4-0.9c0.6-0.7,1.2-2.1,1.8-4.2c0.6-2.2,1-4.3,1-6.2v-12.2C348.2,287.6,348.1,286.6,347.9,285.5z"/>
			<path fill="#FFFFFF" d="M401.5,278.4c-0.3,0.3-0.6,0.8-0.9,1.5c-0.3,0.7-0.6,1.5-0.9,2.5c-0.3,0.9-0.5,1.9-0.6,3.1
				c-0.2,1.1-0.3,2.2-0.3,3.3v27.6c0,3.1-0.4,6.1-1.3,9c-0.9,2.9-2.1,5.1-3.6,6.6c-0.8,0.8-1.7,1.5-2.8,2.1
				c-1.1,0.6-2.3,1.1-3.6,1.6c-1.3,0.4-2.6,0.8-4,1c-1.4,0.3-2.6,0.4-3.9,0.4c-2.5,0-5.1-0.4-7.8-1.3s-4.8-2.1-6.4-3.6l-3.9-3.9
				l5.5-5.4l3.9,3.8c0.6,0.6,1.7,1.3,3.5,1.9c1.8,0.6,3.5,0.9,5.2,0.9c1.7,0,3.5-0.3,5.3-0.9c1.8-0.6,3-1.2,3.5-1.9
				c0.5-0.4,1-1.4,1.5-2.8c0.5-1.4,0.9-3.1,1.1-5c-1.6,0.9-3.4,1.6-5.6,2.1c-2.1,0.5-4.1,0.8-5.8,0.8c-2.5,0-5.1-0.4-7.8-1.3
				c-2.7-0.9-4.8-2.1-6.4-3.6c-0.8-0.7-1.5-1.7-2.1-2.9c-0.6-1.2-1.1-2.5-1.6-4c-0.4-1.4-0.8-2.9-1-4.5c-0.2-1.5-0.3-3-0.3-4.4
				v-12.2c0-3,0.4-6,1.3-8.9c0.9-2.9,2-5.2,3.5-6.8c0.8-0.8,1.8-1.5,2.9-2.1c1.1-0.6,2.4-1.1,3.6-1.6c1.3-0.4,2.6-0.8,3.9-1
				c1.3-0.3,2.6-0.4,3.8-0.4c2.6,0,5.2,0.4,7.9,1.3c2.7,0.9,4.8,2.1,6.4,3.6l1.1,1.4l1.2-1.4l3.9-3.8l5.4,5.4L401.5,278.4z
				 M390.2,307.1c0.6-2.2,1-4.3,1-6.2v-12.2c0-1.1-0.1-2.1-0.3-3.2c-0.2-1.1-0.4-2.1-0.6-3c-0.3-0.9-0.6-1.8-0.9-2.5
				c-0.4-0.7-0.7-1.2-1-1.5c-0.6-0.6-1.8-1.3-3.5-1.9c-1.8-0.6-3.5-0.9-5.3-0.9c-1.8,0-3.5,0.3-5.2,0.9c-1.7,0.6-2.8,1.2-3.5,1.8
				c-0.6,0.6-1.2,2-1.8,4.2c-0.6,2.1-1,4.2-1,6.1v12.2c0,1.1,0.1,2.1,0.3,3.2c0.2,1.1,0.4,2.1,0.6,3c0.2,0.9,0.5,1.8,0.9,2.5
				c0.3,0.8,0.6,1.3,0.9,1.6c0.6,0.6,1.8,1.3,3.6,1.9c1.8,0.6,3.5,0.9,5.2,0.9c1.7,0,3.5-0.3,5.3-0.9c1.8-0.6,3-1.2,3.5-1.9
				C389,310.6,389.6,309.3,390.2,307.1z"/>
			<path fill="#FFFFFF" d="M446.9,300.9c0,3.1-0.4,6.1-1.3,9c-0.9,2.9-2.1,5.1-3.6,6.6c-0.8,0.8-1.7,1.5-2.8,2.1
				c-1.1,0.6-2.3,1.1-3.6,1.6c-1.3,0.4-2.6,0.8-4,1c-1.4,0.3-2.6,0.4-3.9,0.4c-2.5,0-5.1-0.4-7.8-1.3c-2.7-0.9-4.8-2.1-6.4-3.6
				c-0.8-0.7-1.5-1.7-2.1-2.9c-0.6-1.2-1.1-2.5-1.6-4c-0.4-1.4-0.8-2.9-1-4.5c-0.2-1.5-0.3-3-0.3-4.4v-12.2c0-3,0.4-6,1.3-8.9
				c0.9-2.9,2-5.2,3.5-6.8c0.8-0.8,1.8-1.5,2.9-2.1c1.1-0.6,2.4-1.1,3.6-1.6c1.3-0.4,2.6-0.8,3.9-1c1.3-0.3,2.6-0.4,3.8-0.4
				c2.6,0,5.2,0.4,7.9,1.3c2.7,0.9,4.8,2.1,6.3,3.6c1.6,1.6,2.8,3.9,3.7,6.9c0.9,3,1.3,6,1.3,8.8V300.9z M439,285.5
				c-0.2-1.1-0.4-2.1-0.6-3c-0.3-0.9-0.6-1.8-0.9-2.5c-0.4-0.7-0.7-1.2-1-1.5c-0.6-0.6-1.8-1.3-3.5-1.9c-1.8-0.6-3.5-0.9-5.3-0.9
				c-1.8,0-3.5,0.3-5.2,0.9c-1.7,0.6-2.8,1.2-3.5,1.8c-0.4,0.3-0.7,0.8-1,1.5c-0.3,0.7-0.6,1.5-0.9,2.5c-0.3,0.9-0.5,1.9-0.6,3.1
				c-0.2,1.1-0.3,2.2-0.3,3.3v12.2c0,1.1,0.1,2.1,0.3,3.2c0.2,1.1,0.4,2.1,0.6,3.1c0.2,1,0.5,1.8,0.9,2.5c0.3,0.7,0.7,1.2,1,1.5
				c0.6,0.6,1.7,1.3,3.5,1.9c1.8,0.6,3.5,0.9,5.2,0.9c0.9,0,1.8-0.1,2.7-0.3c0.9-0.2,1.8-0.4,2.6-0.6c0.8-0.2,1.5-0.5,2.1-0.9
				s1.1-0.6,1.4-0.9c0.6-0.7,1.2-2.1,1.8-4.2c0.6-2.2,1-4.3,1-6.2v-12.2C439.3,287.6,439.2,286.6,439,285.5z"/>
		</g>
		<path fill="#FFFFFF" d="M457.3,316.5c0,0.6-0.1,1.2-0.3,1.8c-0.2,0.6-0.4,1-0.7,1.3c-0.2,0.2-0.3,0.3-0.6,0.4
			c-0.2,0.1-0.5,0.2-0.7,0.3s-0.5,0.2-0.8,0.2c-0.3,0-0.5,0.1-0.8,0.1c-0.5,0-1-0.1-1.5-0.3c-0.5-0.2-0.9-0.4-1.3-0.7
			c-0.2-0.1-0.3-0.3-0.4-0.6c-0.1-0.2-0.2-0.5-0.3-0.8c-0.1-0.3-0.1-0.6-0.2-0.9c0-0.3-0.1-0.6-0.1-0.9v-2.4c0-0.6,0.1-1.2,0.3-1.7
			s0.4-1,0.7-1.3c0.2-0.2,0.3-0.3,0.6-0.4c0.2-0.1,0.5-0.2,0.7-0.3s0.5-0.2,0.8-0.2c0.3,0,0.5-0.1,0.7-0.1c0.5,0,1,0.1,1.5,0.3
			c0.5,0.2,0.9,0.4,1.2,0.7c0.3,0.3,0.5,0.8,0.7,1.4c0.2,0.6,0.3,1.2,0.3,1.7V316.5z"/>
		<g>
			<path fill="#FFFFFF" d="M237.2,278c0,1.2,0.1,2.4,0.3,3.5c0.2,1.2,0.4,2.3,0.7,3.4c0.3,1.1,0.6,2,0.9,2.8
				c0.4,0.8,0.7,1.3,1.1,1.7c0.3,0.4,0.9,0.8,1.7,1.1c0.8,0.4,1.7,0.7,2.7,0.9c1,0.3,2.1,0.5,3.4,0.7c1.2,0.2,2.4,0.3,3.6,0.3h6.5
				v-13.3c0-3.1-0.5-6.4-1.5-9.7c-1-3.3-2.3-5.9-4.1-7.6c-1.7-1.7-4-3.1-6.9-4c-2.9-0.9-5.7-1.4-8.4-1.4V278z"/>
			<path fill="#FFFFFF" d="M251.6,300.7c-3.4,0-6.7-0.5-9.9-1.4c-3.2-0.9-5.7-2.3-7.4-4c-0.9-0.8-1.6-1.8-2.3-3.2
				c-0.7-1.3-1.2-2.8-1.7-4.4c-0.5-1.6-0.8-3.2-1.1-4.9c-0.2-1.7-0.4-3.3-0.4-4.9v-20.2c-0.1,0-0.2,0.1-0.4,0.1
				c-1.4,0.5-2.8,1-4,1.7c-1.3,0.7-2.3,1.4-3.2,2.3c-1.7,1.7-3,4.2-3.9,7.4c-0.9,3.2-1.4,6.5-1.4,9.8v13.5c0,1.6,0.1,3.2,0.4,4.9
				c0.2,1.7,0.6,3.3,1.1,4.9c0.5,1.6,1,3,1.7,4.4c0.7,1.3,1.4,2.4,2.3,3.2c1.7,1.7,4.1,3.1,7,4c3,0.9,5.8,1.4,8.6,1.4
				c1.3,0,2.8-0.1,4.2-0.4c1.5-0.3,3-0.6,4.4-1.1c1.4-0.5,2.7-1,4-1.7c1.2-0.7,2.3-1.4,3.1-2.3c1.7-1.7,3.1-4.1,4-7.3
				c0.2-0.6,0.3-1.1,0.4-1.7H251.6z"/>
		</g>
	</g>
</g>
</svg>
