<?xml version="1.0" encoding="utf-8"?>
<!-- Generator: Adobe Illustrator 18.0.0, SVG Export Plug-In . SVG Version: 6.00 Build 0)  -->
<!DOCTYPE svg PUBLIC "-//W3C//DTD SVG 1.1//EN" "http://www.w3.org/Graphics/SVG/1.1/DTD/svg11.dtd">
<svg version="1.1" id="Layer_1" xmlns="http://www.w3.org/2000/svg" xmlns:xlink="http://www.w3.org/1999/xlink" x="0px" y="0px"
	 viewBox="0 0 669.3 669.3" enable-background="new 0 0 669.3 669.3" xml:space="preserve">
<rect x="0" y="0" display="none" fill="#DDDEDD" width="669.3" height="669.3"/>
<g>
	<g>
		<rect x="15.1" y="16.3" fill="#FFFFFF" width="79.2" height="79.2"/>
		<rect x="108.4" y="16.3" fill="#FFFFFF" width="79.2" height="79.2"/>
		<rect x="201.7" y="16.3" fill="#FFFFFF" width="79.2" height="79.2"/>
		<rect x="295" y="16.3" fill="#FFFFFF" width="79.2" height="79.2"/>
		<rect x="388.3" y="16.3" fill="#FFFFFF" width="79.2" height="79.2"/>
		<rect x="481.6" y="16.3" fill="#FFFFFF" width="79.2" height="79.2"/>
		<rect x="574.9" y="16.3" fill="#FFFFFF" width="79.2" height="79.2"/>
	</g>
	<g>
		<rect x="15.1" y="109.2" fill="#FFFFFF" width="79.2" height="79.2"/>
		<rect x="108.4" y="109.2" fill="#FFFFFF" width="79.2" height="79.2"/>
		<rect x="201.7" y="109.2" fill="#FFFFFF" width="79.2" height="79.2"/>
		<rect x="295" y="109.2" fill="#FFFFFF" width="79.2" height="79.2"/>
		<rect x="388.3" y="109.2" fill="#FFFFFF" width="79.2" height="79.2"/>
		<rect x="481.6" y="109.2" fill="#FFFFFF" width="79.2" height="79.2"/>
		<rect x="574.9" y="109.2" fill="#FFFFFF" width="79.2" height="79.2"/>
	</g>
	<g>
		<rect x="15.1" y="202.1" fill="#FFFFFF" width="79.2" height="79.2"/>
		<rect x="108.4" y="202.1" fill="#FFFFFF" width="79.2" height="79.2"/>
		<rect x="201.7" y="202.1" fill="#FFFFFF" width="79.2" height="79.2"/>
		<rect x="295" y="202.1" fill="#FFFFFF" width="79.2" height="79.2"/>
		<rect x="388.3" y="202.1" fill="#FFFFFF" width="79.2" height="79.2"/>
		<rect x="481.6" y="202.1" fill="#FFFFFF" width="79.2" height="79.2"/>
		<rect x="574.9" y="202.1" fill="#FFFFFF" width="79.2" height="79.2"/>
	</g>
	<g>
		<rect x="15.1" y="295" fill="#FFFFFF" width="79.2" height="79.2"/>
		<rect x="108.4" y="295" fill="#FFFFFF" width="79.2" height="79.2"/>
		<rect x="201.7" y="295" fill="#FFFFFF" width="79.2" height="79.2"/>
		<rect x="295" y="295" fill="#FFFFFF" width="79.2" height="79.2"/>
		<rect x="388.3" y="295" fill="#FFFFFF" width="79.2" height="79.2"/>
		<rect x="481.6" y="295" fill="#FFFFFF" width="79.2" height="79.2"/>
		<rect x="574.9" y="295" fill="#FFFFFF" width="79.2" height="79.2"/>
	</g>
	<g>
		<rect x="15.1" y="387.9" fill="#FFFFFF" width="79.2" height="79.2"/>
		<rect x="108.4" y="387.9" fill="#FFFFFF" width="79.2" height="79.2"/>
		<rect x="201.7" y="387.9" fill="#FFFFFF" width="79.2" height="79.2"/>
		<rect x="295" y="387.9" fill="#FFFFFF" width="79.2" height="79.2"/>
		<rect x="388.3" y="387.9" fill="#FFFFFF" width="79.2" height="79.2"/>
		<rect x="481.6" y="387.9" fill="#FFFFFF" width="79.2" height="79.2"/>
		<rect x="574.9" y="387.9" fill="#FFFFFF" width="79.2" height="79.2"/>
	</g>
	<g>
		<rect x="15.1" y="480.8" fill="#FFFFFF" width="79.2" height="79.2"/>
		<rect x="108.4" y="480.8" fill="#FFFFFF" width="79.2" height="79.2"/>
		<rect x="201.7" y="480.8" fill="#FFFFFF" width="79.2" height="79.2"/>
		<rect x="295" y="480.8" fill="#FFFFFF" width="79.2" height="79.2"/>
		<rect x="388.3" y="480.8" fill="#FFFFFF" width="79.2" height="79.2"/>
		<rect x="481.6" y="480.8" fill="#FFFFFF" width="79.2" height="79.2"/>
		<rect x="574.9" y="480.8" fill="#FFFFFF" width="79.2" height="79.2"/>
	</g>
	<g>
		<rect x="15.1" y="573.7" fill="#FFFFFF" width="79.2" height="79.2"/>
		<rect x="108.4" y="573.7" fill="#FFFFFF" width="79.2" height="79.2"/>
		<rect x="201.7" y="573.7" fill="#FFFFFF" width="79.2" height="79.2"/>
		<rect x="295" y="573.7" fill="#FFFFFF" width="79.2" height="79.2"/>
		<rect x="388.3" y="573.7" fill="#FFFFFF" width="79.2" height="79.2"/>
		<rect x="481.6" y="573.7" fill="#FFFFFF" width="79.2" height="79.2"/>
		<rect x="574.9" y="573.7" fill="#FFFFFF" width="79.2" height="79.2"/>
	</g>
</g>
<rect id="kaderke_19" x="15.1" y="16.3" fill="#8EC84E" width="172.5" height="172.1"/>
<rect id="kaderke_18" x="201.7" y="16.3" fill="#BECE47" width="172.5" height="79.2"/>
<rect id="kaderke_17" x="201.7" y="109.2" fill="#7CA03E" width="79.2" height="79.2"/>
<rect id="kaderke_16" x="295" y="109.2" fill="#8EC84E" width="172.5" height="79.2"/>
<rect id="kaderke_15" x="388.3" y="16.3" fill="#B1B740" width="265.8" height="79.2"/>
<rect id="kaderke_13" x="15.1" y="202.1" fill="#BECE47" width="79.2" height="172.1"/>
<rect id="kaderke_11" x="574.9" y="109.2" fill="#8EC84E" width="79.2" height="172.1"/>
<rect id="kaderke_10" x="15.1" y="387.9" fill="#7CA03E" width="79.2" height="79.2"/>
<rect id="kaderke_8" x="15.1" y="480.8" fill="#B1B740" width="172.5" height="79.2"/>
<rect id="kaderke_7" x="15.1" y="573.7" fill="#7CA03E" width="265.8" height="79.2"/>
<rect id="kaderke_6" x="295" y="573.7" fill="#B1B740" width="172.5" height="79.2"/>
<rect id="kaderke_5" x="201.7" y="480.8" fill="#8EC84E" width="172.5" height="79.2"/>
<rect id="kaderke_4" x="481.6" y="480.8" fill="#7CA03E" width="172.5" height="172.1"/>
<rect id="kaderke_3" x="388.3" y="480.8" fill="#B1B740" width="79.2" height="79.2"/>
<rect id="kaderke_2" x="481.6" y="109.2" fill="#BECE47" width="79.2" height="79.2"/>
<rect id="kaderke_1" x="574.9" y="295" fill="#B1B740" width="79.2" height="172.1"/>
<rect id="kaderke_8_1_" x="109" y="202.1" fill="#B1B740" width="451.9" height="265"/>
<g>
	<rect x="130" y="202.1" fill="#B1B740" width="409.3" height="265"/>
	<g>
		<g>
			<path fill="#FFFFFF" d="M302.6,386.1h-27.1c-4.7,0-9.4-0.7-13.9-2c-4.5-1.3-8-3.2-10.4-5.6c-1.2-1.1-2.3-2.6-3.2-4.5
				c-0.9-1.9-1.7-3.9-2.4-6.1c-0.7-2.2-1.2-4.5-1.5-6.9c-0.3-2.4-0.5-4.6-0.5-6.9v-97.9h11.7v97.9c0,1.7,0.1,3.3,0.4,5
				c0.3,1.7,0.6,3.2,1,4.7c0.4,1.5,0.8,2.8,1.3,3.9c0.5,1.1,1,1.9,1.6,2.3c0.4,0.6,1.2,1.1,2.3,1.6c1.1,0.5,2.4,0.9,3.8,1.3
				c1.4,0.4,3,0.7,4.7,1c1.7,0.3,3.4,0.4,5,0.4h27.1V386.1z"/>
			<path fill="#FFFFFF" d="M367.2,354.3c0,4.7-0.7,9.4-2,13.9c-1.3,4.5-3.2,7.9-5.6,10.2c-1.2,1.2-2.7,2.3-4.4,3.2
				c-1.7,0.9-3.5,1.7-5.5,2.4c-2,0.7-4,1.2-6.1,1.6c-2.1,0.4-4.1,0.6-5.9,0.6c-3.9,0-7.8-0.7-12-2c-4.1-1.3-7.4-3.2-9.8-5.6
				c-1.2-1.1-2.3-2.6-3.2-4.5c-0.9-1.9-1.7-3.9-2.4-6.1c-0.7-2.2-1.2-4.5-1.5-6.9c-0.3-2.4-0.5-4.6-0.5-6.9v-18.8
				c0-4.6,0.7-9.2,2-13.7c1.3-4.5,3.1-8,5.4-10.4c1.2-1.2,2.7-2.3,4.5-3.2c1.8-0.9,3.6-1.7,5.6-2.4c2-0.7,4-1.2,6-1.6
				c2-0.4,4-0.6,5.9-0.6c4,0,8,0.7,12.1,2c4.1,1.3,7.3,3.2,9.7,5.6c2.4,2.4,4.3,6,5.7,10.6c1.4,4.7,2.1,9.2,2.1,13.6V354.3z
				 M355.1,330.5c-0.3-1.7-0.6-3.2-1-4.6c-0.4-1.4-0.9-2.7-1.4-3.8c-0.6-1.1-1-1.9-1.5-2.3c-0.9-1-2.7-2-5.4-2.9
				c-2.8-0.9-5.4-1.4-8.1-1.4c-2.8,0-5.4,0.4-8,1.3c-2.6,0.9-4.4,1.8-5.4,2.8c-0.6,0.4-1.1,1.2-1.6,2.3c-0.5,1.1-0.9,2.4-1.3,3.8
				c-0.4,1.4-0.7,3-1,4.7c-0.3,1.7-0.4,3.4-0.4,5v18.8c0,1.7,0.1,3.3,0.4,5c0.3,1.7,0.6,3.2,1,4.7c0.4,1.5,0.8,2.8,1.3,3.9
				c0.5,1.1,1,1.9,1.6,2.3c0.9,1,2.7,2,5.4,2.9c2.7,0.9,5.4,1.4,8,1.4c1.3,0,2.7-0.1,4.1-0.4c1.4-0.3,2.8-0.6,4-1
				c1.2-0.4,2.3-0.8,3.3-1.3s1.7-1,2.1-1.4c0.9-1.1,1.8-3.2,2.8-6.4c1-3.4,1.5-6.6,1.5-9.6v-18.8
				C355.5,333.8,355.3,332.1,355.1,330.5z"/>
			<path fill="#FFFFFF" d="M437.5,319.6c-0.4,0.4-0.9,1.2-1.4,2.3c-0.5,1.1-0.9,2.4-1.3,3.8c-0.4,1.4-0.7,3-1,4.7
				c-0.3,1.7-0.4,3.4-0.4,5v42.4c0,4.7-0.7,9.4-2,13.9c-1.3,4.5-3.2,7.9-5.6,10.2c-1.2,1.2-2.7,2.3-4.4,3.2
				c-1.7,0.9-3.5,1.7-5.5,2.4c-2,0.7-4,1.2-6.1,1.6c-2.1,0.4-4.1,0.6-5.9,0.6c-3.9,0-7.8-0.7-12-2s-7.4-3.2-9.8-5.6l-5.9-5.9
				l8.4-8.3l5.9,5.8c0.9,1,2.7,2,5.4,2.9c2.7,0.9,5.4,1.4,8,1.4c2.6,0,5.3-0.5,8.1-1.4c2.8-0.9,4.6-1.9,5.4-2.9
				c0.8-0.7,1.5-2.1,2.3-4.3c0.8-2.2,1.3-4.8,1.6-7.8c-2.4,1.4-5.3,2.5-8.6,3.3c-3.3,0.8-6.3,1.2-8.9,1.2c-3.9,0-7.8-0.7-12-2
				c-4.1-1.3-7.4-3.2-9.8-5.6c-1.2-1.1-2.3-2.6-3.2-4.5c-0.9-1.9-1.7-3.9-2.4-6.1c-0.7-2.2-1.2-4.5-1.5-6.9
				c-0.3-2.4-0.5-4.6-0.5-6.9v-18.8c0-4.6,0.7-9.2,2-13.7c1.3-4.5,3.1-8,5.4-10.4c1.2-1.2,2.7-2.3,4.5-3.2c1.8-0.9,3.6-1.7,5.6-2.4
				c2-0.7,4-1.2,6-1.6c2-0.4,4-0.6,5.9-0.6c4,0,8,0.7,12.1,2c4.1,1.3,7.4,3.2,9.8,5.6l1.7,2.1l1.8-2.1l5.9-5.8l8.3,8.3L437.5,319.6z
				 M420.2,363.8c1-3.4,1.5-6.6,1.5-9.6v-18.8c0-1.7-0.1-3.3-0.4-5c-0.3-1.7-0.6-3.2-1-4.6c-0.4-1.4-0.9-2.7-1.4-3.8
				c-0.6-1.1-1-1.9-1.5-2.3c-0.9-1-2.7-2-5.4-2.9c-2.8-0.9-5.4-1.4-8.1-1.4c-2.8,0-5.4,0.4-8,1.3c-2.6,0.9-4.4,1.8-5.4,2.8
				c-0.9,0.9-1.8,3-2.8,6.4c-1,3.3-1.5,6.4-1.5,9.4v18.8c0,1.7,0.1,3.3,0.4,5c0.3,1.7,0.6,3.2,1,4.6c0.4,1.4,0.8,2.7,1.3,3.9
				c0.5,1.2,1,2,1.4,2.4c1,1,2.8,2,5.5,2.9c2.7,0.9,5.4,1.4,8,1.4c2.6,0,5.3-0.5,8.1-1.4c2.8-0.9,4.6-1.9,5.4-2.9
				C418.3,369.2,419.2,367.1,420.2,363.8z"/>
			<path fill="#FFFFFF" d="M507.5,354.3c0,4.7-0.7,9.4-2,13.9c-1.3,4.5-3.2,7.9-5.6,10.2c-1.2,1.2-2.7,2.3-4.4,3.2
				c-1.7,0.9-3.5,1.7-5.5,2.4c-2,0.7-4,1.2-6.1,1.6c-2.1,0.4-4.1,0.6-5.9,0.6c-3.9,0-7.8-0.7-12-2c-4.1-1.3-7.4-3.2-9.8-5.6
				c-1.2-1.1-2.3-2.6-3.2-4.5c-0.9-1.9-1.7-3.9-2.4-6.1c-0.7-2.2-1.2-4.5-1.5-6.9c-0.3-2.4-0.5-4.6-0.5-6.9v-18.8
				c0-4.6,0.7-9.2,2-13.7c1.3-4.5,3.1-8,5.4-10.4c1.2-1.2,2.7-2.3,4.5-3.2c1.8-0.9,3.6-1.7,5.6-2.4c2-0.7,4-1.2,6-1.6
				c2-0.4,4-0.6,5.9-0.6c4,0,8,0.7,12.1,2c4.1,1.3,7.3,3.2,9.7,5.6c2.4,2.4,4.3,6,5.7,10.6c1.4,4.7,2.1,9.2,2.1,13.6V354.3z
				 M495.4,330.5c-0.3-1.7-0.6-3.2-1-4.6c-0.4-1.4-0.9-2.7-1.4-3.8c-0.6-1.1-1-1.9-1.5-2.3c-0.9-1-2.7-2-5.4-2.9
				c-2.8-0.9-5.4-1.4-8.1-1.4c-2.8,0-5.4,0.4-8,1.3c-2.6,0.9-4.4,1.8-5.4,2.8c-0.6,0.4-1.1,1.2-1.6,2.3c-0.5,1.1-0.9,2.4-1.3,3.8
				c-0.4,1.4-0.7,3-1,4.7c-0.3,1.7-0.4,3.4-0.4,5v18.8c0,1.7,0.1,3.3,0.4,5c0.3,1.7,0.6,3.2,1,4.7c0.4,1.5,0.8,2.8,1.3,3.9
				c0.5,1.1,1,1.9,1.6,2.3c0.9,1,2.7,2,5.4,2.9c2.7,0.9,5.4,1.4,8,1.4c1.3,0,2.7-0.1,4.1-0.4c1.4-0.3,2.8-0.6,4-1
				c1.2-0.4,2.3-0.8,3.3-1.3c1-0.5,1.7-1,2.1-1.4c0.9-1.1,1.8-3.2,2.8-6.4c1-3.4,1.5-6.6,1.5-9.6v-18.8
				C495.8,333.8,495.6,332.1,495.4,330.5z"/>
		</g>
		<path fill="#FFFFFF" d="M523.4,378.2c0,0.9-0.1,1.8-0.4,2.7c-0.3,0.9-0.6,1.6-1.1,2c-0.2,0.2-0.5,0.4-0.9,0.6
			c-0.3,0.2-0.7,0.3-1.1,0.5c-0.4,0.1-0.8,0.2-1.2,0.3c-0.4,0.1-0.8,0.1-1.2,0.1c-0.8,0-1.5-0.1-2.3-0.4c-0.8-0.3-1.5-0.6-1.9-1.1
			c-0.2-0.2-0.4-0.5-0.6-0.9c-0.2-0.4-0.3-0.8-0.5-1.2c-0.1-0.4-0.2-0.9-0.3-1.3c-0.1-0.5-0.1-0.9-0.1-1.3v-3.7
			c0-0.9,0.1-1.8,0.4-2.7c0.3-0.9,0.6-1.6,1.1-2c0.2-0.2,0.5-0.4,0.9-0.6c0.3-0.2,0.7-0.3,1.1-0.5c0.4-0.1,0.8-0.2,1.2-0.3
			c0.4-0.1,0.8-0.1,1.1-0.1c0.8,0,1.6,0.1,2.4,0.4c0.8,0.3,1.4,0.6,1.9,1.1c0.5,0.5,0.8,1.2,1.1,2.1c0.3,0.9,0.4,1.8,0.4,2.7V378.2z
			"/>
		<g>
			<path fill="#FFFFFF" d="M184.7,318.9c0,1.8,0.2,3.6,0.5,5.5c0.3,1.8,0.7,3.5,1.1,5.2c0.4,1.6,0.9,3.1,1.5,4.3
				c0.5,1.2,1.1,2.1,1.7,2.5c0.5,0.6,1.3,1.2,2.5,1.7c1.2,0.5,2.6,1,4.2,1.5c1.6,0.4,3.3,0.8,5.2,1.1c1.9,0.3,3.7,0.5,5.5,0.5h10
				v-20.5c0-4.8-0.8-9.8-2.3-15c-1.5-5.2-3.6-9.1-6.3-11.7c-2.5-2.7-6.1-4.7-10.6-6.2c-4.4-1.4-8.7-2.1-13-2.2V318.9z"/>
			<path fill="#FFFFFF" d="M206.9,354c-5.2,0-10.3-0.7-15.3-2.2c-5-1.5-8.8-3.5-11.4-6.2c-1.3-1.2-2.5-2.8-3.5-4.9
				c-1-2.1-1.9-4.3-2.6-6.7c-0.7-2.4-1.3-4.9-1.6-7.5c-0.4-2.6-0.5-5.1-0.5-7.5v-31.2c-0.2,0.1-0.4,0.1-0.6,0.2
				c-2.2,0.7-4.2,1.6-6.2,2.6c-1.9,1-3.6,2.2-4.9,3.5c-2.5,2.7-4.5,6.5-6,11.4c-1.5,5-2.2,10-2.2,15.1v20.7c0,2.4,0.2,4.9,0.5,7.5
				c0.4,2.6,0.9,5.1,1.6,7.5c0.7,2.4,1.6,4.7,2.6,6.7c1,2.1,2.2,3.7,3.5,4.9c2.7,2.7,6.3,4.7,10.8,6.2c4.5,1.5,8.9,2.2,13.2,2.2
				c2.1,0,4.2-0.2,6.5-0.6c2.3-0.4,4.5-1,6.7-1.7c2.2-0.7,4.2-1.6,6.1-2.6c1.9-1,3.5-2.2,4.8-3.5c2.7-2.5,4.7-6.3,6.2-11.3
				c0.3-0.9,0.5-1.7,0.7-2.6H206.9z"/>
		</g>
	</g>
</g>
</svg>
