<?xml version="1.0" encoding="UTF-8" standalone="no"?>
<svg
   xmlns:dc="http://purl.org/dc/elements/1.1/"
   xmlns:cc="http://creativecommons.org/ns#"
   xmlns:rdf="http://www.w3.org/1999/02/22-rdf-syntax-ns#"
   xmlns:svg="http://www.w3.org/2000/svg"
   xmlns="http://www.w3.org/2000/svg"
   xmlns:sodipodi="http://sodipodi.sourceforge.net/DTD/sodipodi-0.dtd"
   xmlns:inkscape="http://www.inkscape.org/namespaces/inkscape"
   version="1.1"
   id="Your_Icon"
   x="0px"
   y="0px"
   width="100px"
   height="100px"
   viewBox="0 0 100 100"
   enable-background="new 0 0 100 100"
   xml:space="preserve"
   inkscape:version="0.48.4 r9939"
   sodipodi:docname="graph.svg"
   inkscape:export-filename="/run/user/1000/gvfs/sftp:host=webfaction/home/sbb/webapps/beta/sites/all/themes/sbbtheme/resources/css/css-img/title-icons/graph.png"
   inkscape:export-xdpi="28.799999"
   inkscape:export-ydpi="28.799999"><metadata
     id="metadata9"><rdf:RDF><cc:Work
         rdf:about=""><dc:format>image/svg+xml</dc:format><dc:type
           rdf:resource="http://purl.org/dc/dcmitype/StillImage" /><dc:title></dc:title></cc:Work></rdf:RDF></metadata><defs
     id="defs7" /><sodipodi:namedview
     pagecolor="#ffffff"
     bordercolor="#666666"
     borderopacity="1"
     objecttolerance="10"
     gridtolerance="10"
     guidetolerance="10"
     inkscape:pageopacity="0"
     inkscape:pageshadow="2"
     inkscape:window-width="1600"
     inkscape:window-height="834"
     id="namedview5"
     showgrid="false"
     inkscape:zoom="2.36"
     inkscape:cx="50"
     inkscape:cy="50"
     inkscape:window-x="0"
     inkscape:window-y="27"
     inkscape:window-maximized="1"
     inkscape:current-layer="Your_Icon" /><path
     d="m 89.851101,19.338983 c -5.123452,0 -9.292202,4.16875 -9.292202,9.292202 0,1.715646 0.47559,3.317386 1.289377,4.698358 L 67.02514,48.151504 c -1.326954,-0.730412 -2.848841,-1.148462 -4.467021,-1.148462 -3.747177,0 -6.977665,2.234685 -8.445535,5.438164 L 39.674618,49.635813 c -0.942959,-4.132346 -4.639642,-7.226616 -9.052646,-7.226616 -5.123452,0 -9.292202,4.16875 -9.292202,9.292203 0,1.537153 0.381646,2.986234 1.045123,4.263867 l -8.471369,8.473719 c -1.193085,-0.557791 -2.516516,-0.877199 -3.9162767,-0.877199 -5.1246266,-0.0012 -9.29337655,4.167575 -9.29337655,9.291028 0,5.123452 4.16874995,9.292202 9.29220225,9.292202 5.124627,0 9.293377,-4.16875 9.293377,-9.292202 0,-1.417375 -0.327629,-2.756072 -0.898337,-3.958551 l 8.631074,-8.632248 c 1.10971,0.469718 2.329803,0.730412 3.609785,0.730412 3.605088,0 6.728715,-2.066761 8.269391,-5.072958 l 14.72332,2.861759 c 1.090921,3.918625 4.683091,6.807392 8.944611,6.807392 5.123452,0 9.292202,-4.16875 9.292202,-9.292202 0,-1.196607 -0.234859,-2.335674 -0.649386,-3.387843 L 86.736869,37.374991 c 0.974665,0.347592 2.020963,0.548397 3.113058,0.548397 5.123452,0 9.292202,-4.16875 9.292202,-9.292203 0,-5.123452 -4.167575,-9.292202 -9.291028,-9.292202 z M 9.986073,75.827306 c -1.6404911,0 -2.9744911,-1.335174 -2.9744911,-2.974491 0,-1.640491 1.334,-2.974491 2.9744911,-2.974491 1.640491,0 2.975665,1.334 2.975665,2.974491 0,1.640491 -1.334,2.974491 -2.975665,2.974491 z M 30.621972,54.675891 c -1.640491,0 -2.975665,-1.335175 -2.975665,-2.974491 0,-1.640492 1.335174,-2.974492 2.975665,-2.974492 1.640491,0 2.975666,1.334 2.975666,2.974492 0,1.639316 -1.335175,2.974491 -2.975666,2.974491 z m 31.937322,4.595019 c -1.640491,0 -2.974491,-1.335174 -2.974491,-2.974491 0,-1.640491 1.334,-2.974491 2.974491,-2.974491 1.639317,0 2.974491,1.334 2.974491,2.974491 0,1.639317 -1.335174,2.974491 -2.974491,2.974491 z M 89.851101,31.605676 c -1.640491,0 -2.974491,-1.334 -2.974491,-2.974491 0,-1.640491 1.334,-2.974491 2.974491,-2.974491 1.639317,0 2.974491,1.334 2.974491,2.974491 0,1.640491 -1.335174,2.974491 -2.974491,2.974491 z"
     id="path3"
     style="fill:#ff7f2a;fill-opacity:1"
     inkscape:connector-curvature="0" /></svg>