<?xml version="1.0" encoding="UTF-8" standalone="no"?>
<svg
   xmlns:dc="http://purl.org/dc/elements/1.1/"
   xmlns:cc="http://creativecommons.org/ns#"
   xmlns:rdf="http://www.w3.org/1999/02/22-rdf-syntax-ns#"
   xmlns:svg="http://www.w3.org/2000/svg"
   xmlns="http://www.w3.org/2000/svg"
   xmlns:sodipodi="http://sodipodi.sourceforge.net/DTD/sodipodi-0.dtd"
   xmlns:inkscape="http://www.inkscape.org/namespaces/inkscape"
   version="1.1"
   id="Happy_1_"
   x="0px"
   y="0px"
   width="82"
   height="82"
   viewBox="0 0 82 82"
   enable-background="new 0 0 100 100"
   xml:space="preserve"
   inkscape:version="0.48.3.1 r9886"
   sodipodi:docname="happy.svg"
   inkscape:export-filename="/home/maartend/.gvfs/SFTP on webfaction/home/sbb/webapps/beta/sites/all/themes/sbbtheme/resources/css/css-img/happy.png"
   inkscape:export-xdpi="35.119999"
   inkscape:export-ydpi="35.119999"><metadata
   id="metadata13"><rdf:RDF><cc:Work
       rdf:about=""><dc:format>image/svg+xml</dc:format><dc:type
         rdf:resource="http://purl.org/dc/dcmitype/StillImage" /><dc:title></dc:title></cc:Work></rdf:RDF></metadata><defs
   id="defs11" /><sodipodi:namedview
   pagecolor="#ffffff"
   bordercolor="#666666"
   borderopacity="1"
   objecttolerance="10"
   gridtolerance="10"
   guidetolerance="10"
   inkscape:pageopacity="0"
   inkscape:pageshadow="2"
   inkscape:window-width="1440"
   inkscape:window-height="876"
   id="namedview9"
   showgrid="false"
   fit-margin-top="0"
   fit-margin-left="0"
   fit-margin-right="0"
   fit-margin-bottom="0"
   inkscape:zoom="2.36"
   inkscape:cx="-108.15254"
   inkscape:cy="49"
   inkscape:window-x="0"
   inkscape:window-y="24"
   inkscape:window-maximized="1"
   inkscape:current-layer="Happy_1_" />



<g
   id="g3758"
   transform="translate(-9,-17)"
   style="fill:#ff7f2a;fill-opacity:1"><g
     id="Head_1_"
     style="fill:#ff7f2a;fill-opacity:1">
	<path
   id="path4"
   d="M 50,25 C 68.196,25 83,39.804 83,58 83,76.196 68.196,91 50,91 31.804,91 17,76.196 17,58 17,39.804 31.804,25 50,25 m 0,-8 C 27.357,17 9,35.355 9,58 9,80.645 27.356,99 50,99 72.644,99 91,80.645 91,58 91,35.355 72.645,17 50,17 l 0,0 z"
   inkscape:connector-curvature="0"
   style="fill:#ff7f2a;fill-opacity:1" />
</g><path
     d="M 65.941,72.211 C 64.509,78.652 57.837,83.525 49.825,83.525 41.811,83.525 35.14,78.65 33.71,72.207"
     clip-rule="evenodd"
     id="Smile"
     inkscape:connector-curvature="0"
     style="fill-rule:evenodd;fill:#ff7f2a;fill-opacity:1" /><circle
     r="6.5219998"
     cy="50.094002"
     cx="38.188"
     clip-rule="evenodd"
     id="Eye_3_"
     sodipodi:cx="38.188"
     sodipodi:cy="50.094002"
     sodipodi:rx="6.5219998"
     sodipodi:ry="6.5219998"
     style="fill-rule:evenodd;fill:#ff7f2a;fill-opacity:1"
     d="m 44.71,50.094002 c 0,3.602001 -2.919999,6.522 -6.522,6.522 -3.602001,0 -6.522,-2.919999 -6.522,-6.522 0,-3.602001 2.919999,-6.522 6.522,-6.522 3.602001,0 6.522,2.919999 6.522,6.522 z" /><circle
     r="6.5209999"
     cy="50.094002"
     cx="61.812"
     clip-rule="evenodd"
     id="Eye_2_"
     sodipodi:cx="61.812"
     sodipodi:cy="50.094002"
     sodipodi:rx="6.5209999"
     sodipodi:ry="6.5209999"
     style="fill-rule:evenodd;fill:#ff7f2a;fill-opacity:1"
     d="m 68.333,50.094002 c 0,3.601449 -2.919551,6.521 -6.521,6.521 -3.601449,0 -6.521,-2.919551 -6.521,-6.521 0,-3.601449 2.919551,-6.521 6.521,-6.521 3.601449,0 6.521,2.919551 6.521,6.521 z" /></g>
</svg>