<?xml version="1.0" encoding="UTF-8" standalone="no"?>
<svg
   xmlns:dc="http://purl.org/dc/elements/1.1/"
   xmlns:cc="http://creativecommons.org/ns#"
   xmlns:rdf="http://www.w3.org/1999/02/22-rdf-syntax-ns#"
   xmlns:svg="http://www.w3.org/2000/svg"
   xmlns="http://www.w3.org/2000/svg"
   xmlns:sodipodi="http://sodipodi.sourceforge.net/DTD/sodipodi-0.dtd"
   xmlns:inkscape="http://www.inkscape.org/namespaces/inkscape"
   version="1.1"
   x="0px"
   y="0px"
   width="95.940002"
   height="95.940002"
   viewBox="0 0 95.940003 95.940002"
   enable-background="new 0 0 100 100"
   xml:space="preserve"
   id="svg2"
   inkscape:version="0.48.3.1 r9886"
   sodipodi:docname="icon-handshake2.svg"
   inkscape:export-filename="/home/maartend/.gvfs/SFTP on webfaction/home/sbb/webapps/beta/sites/all/themes/sbbtheme/resources/css/css-img/icon-handshake2.png"
   inkscape:export-xdpi="28.799999"
   inkscape:export-ydpi="28.799999"><metadata
   id="metadata14"><rdf:RDF><cc:Work
       rdf:about=""><dc:format>image/svg+xml</dc:format><dc:type
         rdf:resource="http://purl.org/dc/dcmitype/StillImage" /><dc:title></dc:title></cc:Work></rdf:RDF></metadata><defs
   id="defs12" /><sodipodi:namedview
   pagecolor="#ffffff"
   bordercolor="#666666"
   borderopacity="1"
   objecttolerance="10"
   gridtolerance="10"
   guidetolerance="10"
   inkscape:pageopacity="0"
   inkscape:pageshadow="2"
   inkscape:window-width="1440"
   inkscape:window-height="876"
   id="namedview10"
   showgrid="false"
   inkscape:zoom="2.36"
   inkscape:cx="-27.00181"
   inkscape:cy="39.001238"
   inkscape:window-x="0"
   inkscape:window-y="24"
   inkscape:window-maximized="1"
   inkscape:current-layer="svg2"
   fit-margin-top="0"
   fit-margin-left="0"
   fit-margin-right="0"
   fit-margin-bottom="0" />
<g
   id="Captions"
   transform="translate(-2.0018096,6.9387649)">
</g>
<g
   id="Your_Icon"
   style="fill:#ff7f2a;fill-opacity:1"
   transform="translate(-2.0018096,-5.0111665)">
	<g
   id="g6"
   style="fill:#ff7f2a;fill-opacity:1">
		<path
   d="m 97.539,32.479 c 0.032,-1.433 0.081,-2.867 0.203,-4.295 0.018,-0.222 0.054,-0.529 0.063,-0.602 0.007,-0.059 0.016,-0.118 0.028,-0.174 0.207,-0.926 -0.547,-1.704 -1.411,-1.497 -4.816,1.152 -9.732,2.112 -14.657,2.502 -2.252,0.179 -4.251,0.204 -6.294,-0.837 -2.48,-1.264 -5.029,-2.39 -7.563,-3.527 -5.241,-2.355 -10.493,-4.749 -15.839,-6.826 -1.728,-0.672 -3.489,0.081 -5.113,0.778 -2.564,1.103 -5.025,2.475 -7.447,3.898 -0.184,-0.059 -0.366,-0.12 -0.55,-0.177 -2.333,-0.731 -4.261,-1.173 -6.635,-0.549 -4.729,1.243 -8.824,4.379 -13.433,5.98 -2.979,1.036 -6.441,0.254 -9.4,-0.496 -1.849,-0.47 -3.72,-1.098 -5.45,-1.944 -0.368,-0.18 -0.736,0.039 -0.838,0.511 -2.021,9.378 -1.12,19.854 0,29.652 0.154,1.349 0.198,3.168 0.93,4.348 0.288,0.462 0.661,0.46 1.136,0.392 2.184,-0.325 5.702,-0.286 7.844,0.318 0.734,0.207 1.458,0.523 2.17,0.894 -0.127,1.55 -0.255,3.103 -0.382,4.652 -0.175,2.146 -0.487,4.195 0.215,6.266 1.09,3.212 4.126,4.773 7.136,4.338 1.633,2.992 4.961,4.033 7.938,2.97 0.771,4.124 4.601,6.406 8.444,5.242 1.141,3.394 4.371,5.307 7.831,4.535 1.781,-0.396 3.227,-1.806 4.166,-3.389 0.235,-0.396 0.454,-0.808 0.669,-1.229 0.512,0.335 1.025,0.669 1.541,0.999 2.812,2.213 7.187,1.99 8.587,-1.903 0.489,-1.356 -0.928,-2.871 -1.784,-3.623 -0.636,-0.557 -1.293,-1.062 -1.876,-1.683 -0.125,-0.173 -0.249,-0.347 -0.373,-0.521 0.76,-0.558 1.361,-0.479 1.807,0.234 0.732,0.702 1.467,1.404 2.199,2.106 2.809,2.69 5.874,5.497 9.63,2.794 1.331,-0.956 1.527,-2.368 1.489,-3.941 -0.035,-1.435 -0.838,-2.191 -1.777,-3.108 -1.241,-1.214 -2.483,-2.429 -3.727,-3.644 -0.526,-0.515 -1.062,-1.019 -1.605,-1.518 -0.75,-0.688 0.507,-0.498 0.77,-0.337 0.455,0.276 0.85,0.693 1.243,1.058 2.394,2.231 4.962,6.031 8.421,6.251 3.724,0.235 6.373,-3.426 4.909,-7.123 -0.728,-1.835 -2.807,-3.197 -4.117,-4.567 -0.682,-0.712 -1.394,-1.404 -2.161,-2.013 -0.347,-0.273 -0.692,-0.523 -1.022,-0.821 -0.53,-0.378 -0.328,-0.603 0.606,-0.679 0.333,0.286 0.668,0.572 1,0.856 1.804,1.549 3.615,2.906 5.543,4.264 1.591,1.121 2.932,1.553 4.828,0.828 2.861,-1.098 3.265,-4.992 2.472,-7.648 -0.1,-0.337 -0.229,-0.642 -0.373,-0.934 0.673,-0.093 1.326,-0.233 1.854,-0.282 2.47,-0.227 4.939,-0.454 7.412,-0.682 0.603,-0.057 1.172,-0.514 1.146,-1.218 C 97.636,49.076 97.35,40.769 97.539,32.479 z M 40.521,82.36 c -0.133,-0.823 -1.08,-1.045 -1.685,-0.729 -3.316,1.745 -6.616,-0.58 -6.493,-4.418 0.03,-0.913 -1,-1.534 -1.726,-1.054 -2.542,1.688 -5.529,0.912 -6.744,-2.06 -0.202,-0.492 -0.845,-0.688 -1.296,-0.561 -2.613,0.752 -4.832,-0.663 -5.534,-3.396 -0.317,-1.237 -0.012,-2.682 0.09,-3.929 0.141,-1.715 0.281,-3.431 0.422,-5.146 0.232,-2.836 0.328,-5.395 3.21,-6.503 2.561,-0.985 4.88,0.956 5.501,3.52 0.213,0.881 1.321,1.188 1.917,0.537 2.661,-2.91 6.932,-1.491 7.594,2.458 0.166,0.992 1.319,1.055 1.917,0.538 1.938,-1.675 4.593,-1.476 6.284,0.438 1.679,1.899 0.718,4.611 0.044,6.693 -0.32,0.994 0.864,1.956 1.686,1.376 3.975,-2.817 8.138,1.392 6.579,5.828 -0.636,1.485 -1.293,2.962 -1.951,4.436 -0.723,1.624 -1.274,3.521 -2.433,4.861 -2.659,3.072 -6.803,0.686 -7.382,-2.889 z M 85.988,57.135 c -2.943,-2.963 -5.889,-5.925 -8.832,-8.887 -1.938,-1.95 -3.876,-3.9 -5.813,-5.851 -0.972,-0.977 -2.152,-1.359 -3.388,-1.904 -2.59,-1.145 -5.181,-2.291 -7.77,-3.436 -0.594,-0.263 -1.187,-0.526 -1.781,-0.788 0.59,0.261 -0.161,-0.12 -0.281,-0.187 -0.553,-0.309 -1.104,-0.62 -1.656,-0.928 -1.332,-0.746 -2.667,-1.493 -4,-2.239 -0.663,-0.372 -1.694,-1.239 -2.495,-1.239 -0.979,0 -2.211,1.184 -3.032,1.684 -1.422,0.868 -2.858,1.71 -4.293,2.554 -2.872,1.687 -5.751,3.347 -8.586,5.104 -0.021,0.012 -0.036,0.029 -0.056,0.043 -3.062,1.704 -5.463,-1.545 -6.188,-4.438 -0.374,-1.494 -0.239,-3.098 0.486,-4.44 0.694,-1.285 2.259,-1.958 3.415,-2.688 3.017,-1.904 6.043,-3.795 9.121,-5.589 2.788,-1.625 5.667,-3.349 8.732,-4.317 1.498,-0.475 2.623,0.266 4.064,0.865 2.814,1.17 5.613,2.388 8.407,3.611 3.074,1.347 6.143,2.712 9.189,4.131 1.762,0.819 3.622,2.117 5.518,2.519 3.854,0.821 8.197,-0.139 12.015,-0.781 2.206,-0.372 4.405,-0.802 6.594,-1.292 -0.092,1.2 -0.076,2.429 -0.107,3.582 -0.213,8.003 0.062,16.028 0.354,24.026 -1.718,0.159 -3.436,0.316 -5.153,0.475 -1.253,0.114 -2.507,0.229 -3.761,0.347 -0.235,0.021 -0.469,0.041 -0.703,0.063 z"
   id="path8"
   style="fill:#ff7f2a;fill-opacity:1"
   inkscape:connector-curvature="0" />
	</g>
</g>
</svg>