<?xml version="1.0" encoding="UTF-8" standalone="no"?>
<svg
   xmlns:dc="http://purl.org/dc/elements/1.1/"
   xmlns:cc="http://creativecommons.org/ns#"
   xmlns:rdf="http://www.w3.org/1999/02/22-rdf-syntax-ns#"
   xmlns:svg="http://www.w3.org/2000/svg"
   xmlns="http://www.w3.org/2000/svg"
   xmlns:sodipodi="http://sodipodi.sourceforge.net/DTD/sodipodi-0.dtd"
   xmlns:inkscape="http://www.inkscape.org/namespaces/inkscape"
   version="1.1"
   id="Layer_1"
   x="0px"
   y="0px"
   width="100"
   height="100"
   viewBox="0 0 100 100"
   enable-background="new 0 0 100 44.833"
   xml:space="preserve"
   inkscape:version="0.48.3.1 r9886"
   sodipodi:docname="icon-handshake.svg"
   inkscape:export-filename="/home/maartend/.gvfs/SFTP on webfaction/home/sbb/webapps/beta/sites/all/themes/sbbtheme/resources/css/css-img/icon-handshake.png"
   inkscape:export-xdpi="28.799999"
   inkscape:export-ydpi="28.799999"><metadata
   id="metadata25"><rdf:RDF><cc:Work
       rdf:about=""><dc:format>image/svg+xml</dc:format><dc:type
         rdf:resource="http://purl.org/dc/dcmitype/StillImage" /><dc:title></dc:title></cc:Work></rdf:RDF></metadata><defs
   id="defs23" /><sodipodi:namedview
   pagecolor="#ffffff"
   bordercolor="#666666"
   borderopacity="1"
   objecttolerance="10"
   gridtolerance="10"
   guidetolerance="10"
   inkscape:pageopacity="0"
   inkscape:pageshadow="2"
   inkscape:window-width="1440"
   inkscape:window-height="876"
   id="namedview21"
   showgrid="false"
   inkscape:zoom="2.92"
   inkscape:cx="-10.616438"
   inkscape:cy="22.4165"
   inkscape:window-x="0"
   inkscape:window-y="24"
   inkscape:window-maximized="1"
   inkscape:current-layer="Layer_1" />








<g
   id="g3002"
   transform="translate(0,-26.944469)"
   style="fill:#ff7f2a;fill-opacity:1"><path
     inkscape:connector-curvature="0"
     id="path3"
     d="m 100.005,78.799 c 0.407,1.403 -0.398,2.872 -1.802,3.28 L 82.696,86.59 c -1.403,0.407 -2.872,-0.399 -3.28,-1.803 l -6.299,-21.65 c -0.407,-1.404 0.399,-2.872 1.803,-3.281 l 15.506,-4.51 c 1.403,-0.408 2.873,0.398 3.28,1.802 l 6.299,21.651 z"
     style="fill:#ff7f2a;fill-opacity:1" /><path
     inkscape:connector-curvature="0"
     id="path5"
     d="m 71.89,63.602 c 0,0 -2.041,0.476 -4.035,0.523 -1.994,0.047 -5.271,-0.318 -6.043,-0.678 -0.772,-0.36 -1.268,-0.591 -1.879,-0.876 -3.032,-1.415 -5.557,-2.592 -5.558,-2.592 -0.084,-0.04 -0.172,-0.06 -0.259,-0.092 -0.02,-0.007 -0.04,-0.011 -0.06,-0.019 -0.312,-0.123 -0.646,-0.207 -0.998,-0.239 L 45.68,58.972 c -0.876,-0.08 -1.708,0.16 -2.38,0.624 -0.014,0.009 -0.037,0.026 -0.066,0.049 -0.164,0.119 -0.319,0.248 -0.461,0.392 -1.839,1.6 -7.704,6.917 -7.704,6.917 0.156,0.157 0.391,0.348 0.692,0.542 0.195,0.125 0.42,0.25 0.671,0.368 0.22,0.103 0.457,0.199 0.716,0.283 0.111,0.035 0.222,0.072 0.339,0.103 1.359,0.356 3.383,0.393 5.666,-1.177 0.213,-0.146 1.45,-1.005 1.826,-1.28 0.6,-0.438 1.681,-0.85 3.3,-0.729 1.62,0.122 4.183,0.846 4.183,0.846 L 76.924,80.918 71.89,63.602 z"
     style="fill:#ff7f2a;fill-opacity:1" /><path
     inkscape:connector-curvature="0"
     id="path7"
     d="m 45.059,89.245 c 0.412,-1.392 1.874,-2.185 3.264,-1.772 l 0,0 c 1.391,0.412 2.184,1.874 1.771,3.266 l -1.712,5.672 c -0.412,1.39 -1.874,2.184 -3.264,1.771 l 0,0 C 43.727,97.77 42.934,96.309 43.347,94.918 l 1.712,-5.673 z"
     style="fill:#ff7f2a;fill-opacity:1" /><path
     inkscape:connector-curvature="0"
     id="path9"
     d="m 39.298,85.444 c 0.413,-1.391 1.873,-2.184 3.264,-1.771 l 0,0 c 1.391,0.412 2.184,1.873 1.771,3.264 l -2.053,6.67 c -0.413,1.391 -1.873,2.183 -3.264,1.771 l 0,0 c -1.39,-0.413 -2.183,-1.874 -1.771,-3.265 l 2.053,-6.669 z"
     style="fill:#ff7f2a;fill-opacity:1" /><path
     inkscape:connector-curvature="0"
     id="path11"
     d="m 32.612,84.787 c 0.412,-1.391 1.874,-2.184 3.264,-1.771 l 0,0 c 1.391,0.412 2.184,1.874 1.771,3.265 l -1.343,4.361 c -0.413,1.391 -1.874,2.184 -3.265,1.771 l 0,0 c -1.391,-0.412 -2.183,-1.874 -1.771,-3.264 l 1.344,-4.362 z"
     style="fill:#ff7f2a;fill-opacity:1" /><path
     inkscape:connector-curvature="0"
     id="path13"
     d="m 26.238,83.108 c 0.413,-1.391 1.874,-2.184 3.265,-1.771 l 0,0 c 1.391,0.412 2.184,1.873 1.771,3.264 l -0.419,1.332 c -0.412,1.391 -1.874,2.184 -3.264,1.771 l 0,0 C 26.2,87.292 25.407,85.831 25.82,84.44 l 0.418,-1.332 z"
     style="fill:#ff7f2a;fill-opacity:1" /><path
     inkscape:connector-curvature="0"
     id="path15"
     d="m 20.201,85.522 c -0.513,1.369 -2.038,2.062 -3.406,1.551 L 1.671,81.409 C 0.302,80.896 -0.392,79.371 0.121,78.002 L 8.029,56.885 c 0.513,-1.369 2.038,-2.062 3.407,-1.55 l 15.123,5.664 c 1.369,0.513 2.063,2.038 1.55,3.407 l -7.908,21.116 z"
     style="fill:#ff7f2a;fill-opacity:1" /><path
     inkscape:connector-curvature="0"
     id="path17"
     d="M 57.619,93.859 54.406,91.887 C 54.403,91.885 54.4,91.884 54.397,91.882 L 51.52,90.116 c -0.011,0.334 -0.061,0.668 -0.157,0.997 l -1.291,4.275 4.799,2.946 c 1.235,0.759 2.854,0.372 3.612,-0.864 0.758,-1.236 0.372,-2.852 -0.864,-3.611 z"
     style="fill:#ff7f2a;fill-opacity:1" /><path
     inkscape:connector-curvature="0"
     id="path19"
     d="M 75.379,81.504 61.114,72.747 c -0.056,-0.034 -0.112,-0.063 -0.17,-0.092 l -9.019,-5.546 c -0.706,-0.185 -2.582,-0.637 -3.746,-0.724 -0.083,-0.007 -0.164,-0.011 -0.243,-0.014 -1.293,-0.048 -1.954,0.327 -2.177,0.491 -0.396,0.29 -1.663,1.169 -1.859,1.304 -1.644,1.13 -3.37,1.67 -5.127,1.604 -0.546,-0.021 -1.091,-0.101 -1.621,-0.24 -0.111,-0.029 -0.22,-0.063 -0.328,-0.097 L 36.752,69.41 c -0.309,-0.1 -0.602,-0.215 -0.884,-0.348 -0.287,-0.134 -0.564,-0.286 -0.822,-0.451 -0.361,-0.233 -0.677,-0.482 -0.917,-0.724 l -0.977,-0.982 1.026,-0.931 c 0.143,-0.129 2.198,-1.993 4.226,-3.818 -0.861,0.063 -1.685,0.154 -2.343,0.284 -2.548,0.503 -6.65,2.418 -6.65,2.418 l -6.324,16.935 c 0,0 1.425,2.391 1.46,2.27 l 0.426,-1.352 c 0.507,-1.709 2.124,-2.871 3.926,-2.804 0.33,0.013 0.659,0.066 0.977,0.161 1.012,0.3 1.846,0.976 2.349,1.902 0.109,0.201 0.196,0.409 0.268,0.621 0.742,-0.663 1.729,-1.045 2.78,-1.006 0.33,0.013 0.659,0.067 0.978,0.161 1.011,0.3 1.845,0.976 2.349,1.903 0.026,0.049 0.047,0.1 0.072,0.149 0.759,-0.998 1.973,-1.604 3.288,-1.556 0.33,0.012 0.659,0.066 0.978,0.16 1.011,0.301 1.845,0.976 2.348,1.902 0.368,0.678 0.524,1.432 0.466,2.182 0.592,-0.308 1.266,-0.471 1.97,-0.444 0.33,0.012 0.658,0.066 0.977,0.16 1.011,0.3 1.845,0.976 2.349,1.903 0.061,0.111 0.114,0.225 0.163,0.339 0.095,0.01 0.188,0.039 0.275,0.093 l 3.606,2.213 c 0.003,0.002 0.005,0.004 0.007,0.006 l 6.308,3.872 c 1.235,0.759 2.853,0.372 3.611,-0.864 0.759,-1.235 0.372,-2.853 -0.863,-3.612 l -7.065,-4.337 10e-4,-0.001 -2.396,-1.471 c -0.312,-0.192 -0.411,-0.602 -0.219,-0.915 0.191,-0.312 0.602,-0.41 0.915,-0.219 l 3.614,2.219 c 0.009,0.005 0.015,0.013 0.022,0.018 l 8.089,4.966 c 1.236,0.759 2.853,0.371 3.611,-0.864 0.759,-1.236 0.372,-2.853 -0.864,-3.611 l -8.73,-5.36 c -0.001,0 -0.002,0 -0.003,-0.001 L 57.3,78.224 c -0.332,-0.203 -0.436,-0.637 -0.231,-0.969 0.203,-0.332 0.638,-0.436 0.969,-0.232 l 3.498,2.147 v -0.001 l 11.095,6.812 c 1.235,0.759 2.853,0.373 3.611,-0.864 0.759,-1.237 0.372,-2.854 -0.863,-3.613 z"
     style="fill:#ff7f2a;fill-opacity:1" /></g>
</svg>