<?xml version="1.0" encoding="UTF-8" standalone="no"?>
<svg
   xmlns:dc="http://purl.org/dc/elements/1.1/"
   xmlns:cc="http://creativecommons.org/ns#"
   xmlns:rdf="http://www.w3.org/1999/02/22-rdf-syntax-ns#"
   xmlns:svg="http://www.w3.org/2000/svg"
   xmlns="http://www.w3.org/2000/svg"
   xmlns:sodipodi="http://sodipodi.sourceforge.net/DTD/sodipodi-0.dtd"
   xmlns:inkscape="http://www.inkscape.org/namespaces/inkscape"
   version="1.1"
   id="Layer_1"
   x="0px"
   y="0px"
   width="100"
   height="100"
   viewBox="0 0 100 99.999997"
   enable-background="new 0 0 100 64.844"
   xml:space="preserve"
   inkscape:version="0.48.3.1 r9886"
   sodipodi:docname="partner.svg"
   inkscape:export-filename="/home/maartend/.gvfs/SFTP on webfaction/home/sbb/webapps/beta/sites/all/themes/sbbtheme/resources/css/css-img/partner.png"
   inkscape:export-xdpi="28.799999"
   inkscape:export-ydpi="28.799999"><metadata
   id="metadata15"><rdf:RDF><cc:Work
       rdf:about=""><dc:format>image/svg+xml</dc:format><dc:type
         rdf:resource="http://purl.org/dc/dcmitype/StillImage" /><dc:title></dc:title></cc:Work></rdf:RDF></metadata><defs
   id="defs13" /><sodipodi:namedview
   pagecolor="#ffffff"
   bordercolor="#666666"
   borderopacity="1"
   objecttolerance="10"
   gridtolerance="10"
   guidetolerance="10"
   inkscape:pageopacity="0"
   inkscape:pageshadow="2"
   inkscape:window-width="1440"
   inkscape:window-height="876"
   id="namedview11"
   showgrid="false"
   inkscape:zoom="2.92"
   inkscape:cx="-70.890411"
   inkscape:cy="32.422001"
   inkscape:window-x="0"
   inkscape:window-y="24"
   inkscape:window-maximized="1"
   inkscape:current-layer="Layer_1" />



<g
   id="g3760"
   transform="translate(0,-17.578)"
   style="fill:#ff7f2a;fill-opacity:1"><path
     inkscape:connector-curvature="0"
     style="fill:#ff7f2a;fill-opacity:1"
     id="path3"
     d="m 24.948,46.600998 c 0,6.328 -5.13,11.445 -11.432,11.445 -6.341,0 -11.458,-5.117 -11.458,-11.445 -10e-4,-6.315 5.116,-11.445 11.458,-11.445 6.302,0 11.432,5.13 11.432,11.445 z" /><path
     inkscape:connector-curvature="0"
     style="fill:#ff7f2a;fill-opacity:1"
     id="path5"
     d="m 75.052,46.600998 c 0,6.328 5.131,11.445 11.433,11.445 6.341,0 11.472,-5.117 11.472,-11.445 -10e-4,-6.315 -5.132,-11.445 -11.473,-11.445 -6.301,0 -11.432,5.13 -11.432,11.445 z" /><path
     inkscape:connector-curvature="0"
     style="fill:#ff7f2a;fill-opacity:1"
     id="path7"
     d="m 43.672,85.936998 c -0.26,-2.435 0.677,-4.688 2.266,-6.328 -9.688,-1.849 -13.659,-6.575 -17.109,-10.847 -1.68,-2.096 -3.281,-4.088 -5.404,-5.495 -0.065,-0.039 -0.143,-0.039 -0.195,-0.091 -1.81,-1.498 -4.102,-2.448 -6.627,-2.448 H 10.418 C 4.688,60.728998 0,65.403998 0,71.132998 v 28.867 h 27.018 v -18.659 c 3.945,3.451 9.519,6.732 18.086,8.164 -0.716,-1.041 -1.276,-2.213 -1.432,-3.568 z" /><path
     inkscape:connector-curvature="0"
     style="fill:#ff7f2a;fill-opacity:1"
     id="path9"
     d="m 89.597,60.728998 h -6.198 c -2.513,0 -4.817,0.951 -6.614,2.448 -0.065,0.052 -0.144,0.052 -0.195,0.091 -2.123,1.406 -3.725,3.386 -5.417,5.495 -3.789,4.688 -8.086,10.039 -20.104,11.367 -2.721,0.312 -4.674,2.761 -4.375,5.482 0.273,2.539 2.422,4.414 4.921,4.414 0.183,0 0.365,-0.014 0.561,-0.026 10.182,-1.133 16.484,-4.753 20.82,-8.594 v 18.594 H 100 v -28.867 c 0,-5.729 -4.688,-10.404 -10.403,-10.404 z" /></g>
</svg>