<?xml version="1.0" encoding="UTF-8" standalone="no"?>
<svg
   xmlns:dc="http://purl.org/dc/elements/1.1/"
   xmlns:cc="http://creativecommons.org/ns#"
   xmlns:rdf="http://www.w3.org/1999/02/22-rdf-syntax-ns#"
   xmlns:svg="http://www.w3.org/2000/svg"
   xmlns="http://www.w3.org/2000/svg"
   xmlns:sodipodi="http://sodipodi.sourceforge.net/DTD/sodipodi-0.dtd"
   xmlns:inkscape="http://www.inkscape.org/namespaces/inkscape"
   version="1.1"
   x="0px"
   y="0px"
   width="100px"
   height="100px"
   viewBox="0 0 100 100"
   enable-background="new 0 0 100 100"
   xml:space="preserve"
   id="svg2"
   inkscape:version="0.48.3.1 r9886"
   sodipodi:docname="pencil.svg"
   inkscape:export-filename="/home/maartend/.gvfs/SFTP on webfaction/home/sbb/webapps/beta/sites/all/themes/sbbtheme/resources/css/css-img/pencil.png"
   inkscape:export-xdpi="28.799999"
   inkscape:export-ydpi="28.799999"><metadata
   id="metadata120"><rdf:RDF><cc:Work
       rdf:about=""><dc:format>image/svg+xml</dc:format><dc:type
         rdf:resource="http://purl.org/dc/dcmitype/StillImage" /><dc:title></dc:title></cc:Work></rdf:RDF></metadata><defs
   id="defs118">
	
	
	
	
	
	
	
	
	
	
	
	
	
	
	
	
	
	
	
	
	
	
	
	
	
	
	
</defs><sodipodi:namedview
   pagecolor="#ffffff"
   bordercolor="#666666"
   borderopacity="1"
   objecttolerance="10"
   gridtolerance="10"
   guidetolerance="10"
   inkscape:pageopacity="0"
   inkscape:pageshadow="2"
   inkscape:window-width="1440"
   inkscape:window-height="876"
   id="namedview116"
   showgrid="false"
   inkscape:zoom="2.36"
   inkscape:cx="-24.576271"
   inkscape:cy="50"
   inkscape:window-x="0"
   inkscape:window-y="24"
   inkscape:window-maximized="1"
   inkscape:current-layer="svg2" />

<g
   id="Your_Icon"
   style="fill:#ff7f2a;fill-opacity:1">
	<path
   fill="#000000"
   d="M97.848,30.041c-0.041-4.645-4.203-8.662-9.021-13.314c-0.923-0.891-1.869-1.805-2.814-2.75   c-0.944-0.945-1.858-1.892-2.75-2.815c-4.672-4.84-8.707-9.02-13.38-9.02c-2.563,0-5.078,1.424-7.689,4.037L52.525,16   c0,0-0.001,0-0.003,0L14.998,53.371c-0.079,0.08-0.137,0.099-0.167,0.206L2.027,97.181c-0.068,0.232-0.004,0.465,0.168,0.637   C2.321,97.944,2.491,98,2.664,98c0.062,0,0.125-0.014,0.187-0.031l43.638-12.808c0.107-0.03,0.205-0.088,0.282-0.167l35.576-35.576   l11.619-11.62C96.601,35.166,97.87,32.628,97.848,30.041z M29.748,70.237c0.255,0.259,0.675,0.262,0.938,0.008   c0.185-0.179,1.406-0.607,3.332-0.607c2.333,0,4.311,0.641,5.426,1.754c3.258,3.259,2.909,6.438,2.691,7.436l-24.214,7.26   l-4.016-4.018l7.259-24.21c0.277-0.057,0.724-0.127,1.291-0.127c1.518,0,3.817,0.488,6.146,2.815   c2.61,2.612,1.689,8.194,1.146,8.759C29.49,69.565,29.493,69.979,29.748,70.237z"
   id="path114"
   style="fill:#ff7f2a;fill-opacity:1" />
</g>
</svg>