<?xml version="1.0" encoding="UTF-8" standalone="no"?>
<svg
   xmlns:dc="http://purl.org/dc/elements/1.1/"
   xmlns:cc="http://creativecommons.org/ns#"
   xmlns:rdf="http://www.w3.org/1999/02/22-rdf-syntax-ns#"
   xmlns:svg="http://www.w3.org/2000/svg"
   xmlns="http://www.w3.org/2000/svg"
   xmlns:sodipodi="http://sodipodi.sourceforge.net/DTD/sodipodi-0.dtd"
   xmlns:inkscape="http://www.inkscape.org/namespaces/inkscape"
   version="1.1"
   id="Layer_1"
   x="0px"
   y="0px"
   width="100.003"
   height="100"
   viewBox="0 0 100.003 100"
   enable-background="new 0 0 100.003 62.861"
   xml:space="preserve"
   inkscape:version="0.48.3.1 r9886"
   sodipodi:docname="planet.svg"
   inkscape:export-filename="/home/maartend/.gvfs/SFTP on webfaction/home/sbb/webapps/beta/sites/all/themes/sbbtheme/resources/css/css-img/planet.png"
   inkscape:export-xdpi="28.799999"
   inkscape:export-ydpi="28.799999"><metadata
   id="metadata13"><rdf:RDF><cc:Work
       rdf:about=""><dc:format>image/svg+xml</dc:format><dc:type
         rdf:resource="http://purl.org/dc/dcmitype/StillImage" /><dc:title></dc:title></cc:Work></rdf:RDF></metadata><defs
   id="defs11" /><sodipodi:namedview
   pagecolor="#ffffff"
   bordercolor="#666666"
   borderopacity="1"
   objecttolerance="10"
   gridtolerance="10"
   guidetolerance="10"
   inkscape:pageopacity="0"
   inkscape:pageshadow="2"
   inkscape:window-width="1440"
   inkscape:window-height="876"
   id="namedview9"
   showgrid="false"
   inkscape:zoom="2.9199125"
   inkscape:cx="-10.616757"
   inkscape:cy="31.4305"
   inkscape:window-x="0"
   inkscape:window-y="24"
   inkscape:window-maximized="1"
   inkscape:current-layer="Layer_1" />


<g
   id="g3758"
   transform="translate(0,-18.568795)"
   style="fill:#ff7f2a;fill-opacity:1"><path
     inkscape:connector-curvature="0"
     id="path3"
     d="m 81.978,71.970001 c -0.193,2.585 -0.699,5.17 -1.53,7.698 2.648,3.388 3.696,6.219 2.66,8.015 -2.815,4.875 -19.92,0.271 -38.204,-10.286 -18.284,-10.556 -30.824,-23.067 -28.009,-27.943 1.036,-1.795 4.01,-2.304 8.265,-1.705 1.774,-1.984 3.76,-3.715 5.903,-5.175 -15.684,-5.98 -27.707,-7.327 -30.474,-2.534 -4.202,7.277 14.515,25.949 41.805,41.705 27.289,15.756 52.818,22.628999 57.02,15.352 2.768,-4.794 -4.412,-14.534 -17.436,-25.127 z"
     style="fill:#ff7f2a;fill-opacity:1" /><path
     inkscape:connector-curvature="0"
     id="path5"
     d="m 21.806,57.698001 c 0.696,0.815 1.505,1.691 2.447,2.631 5.199,5.187 12.872,10.82 21.603,15.861 8.731,5.042 17.446,8.869 24.538,10.778 1.282,0.346 2.442,0.608 3.493,0.802 4.212,-5.221 6.735,-11.861 6.735,-19.091 0,-16.806 -13.624,-30.43 -30.43,-30.43 -12.933,0 -23.981,8.07 -28.386,19.449 z"
     style="fill:#ff7f2a;fill-opacity:1" /><path
     inkscape:connector-curvature="0"
     id="path7"
     d="m 19.765,68.458001 c 0,0.074 -0.002,0.147 -0.002,0.221 0,16.806 13.624,30.431 30.43,30.431 5.624,0 10.891,-1.528 15.411,-4.188 -7.564,-3.074 -15.675,-7.069 -23.779,-11.749 -8.103,-4.677 -15.617,-9.702 -22.06,-14.715 z"
     style="fill:#ff7f2a;fill-opacity:1" /></g>
</svg>