<?xml version="1.0" encoding="UTF-8" standalone="no"?>
<svg
   xmlns:dc="http://purl.org/dc/elements/1.1/"
   xmlns:cc="http://creativecommons.org/ns#"
   xmlns:rdf="http://www.w3.org/1999/02/22-rdf-syntax-ns#"
   xmlns:svg="http://www.w3.org/2000/svg"
   xmlns="http://www.w3.org/2000/svg"
   xmlns:sodipodi="http://sodipodi.sourceforge.net/DTD/sodipodi-0.dtd"
   xmlns:inkscape="http://www.inkscape.org/namespaces/inkscape"
   version="1.1"
   x="0px"
   y="0px"
   width="75"
   height="75"
   viewBox="0 0 75 75"
   enable-background="new 0 0 100 100"
   xml:space="preserve"
   id="svg2"
   inkscape:version="0.48.3.1 r9886"
   sodipodi:docname="radio.svg"><metadata
   id="metadata22"><rdf:RDF><cc:Work
       rdf:about=""><dc:format>image/svg+xml</dc:format><dc:type
         rdf:resource="http://purl.org/dc/dcmitype/StillImage" /></cc:Work></rdf:RDF></metadata><defs
   id="defs20" /><sodipodi:namedview
   pagecolor="#ffffff"
   bordercolor="#666666"
   borderopacity="1"
   objecttolerance="10"
   gridtolerance="10"
   guidetolerance="10"
   inkscape:pageopacity="0"
   inkscape:pageshadow="2"
   inkscape:window-width="1440"
   inkscape:window-height="876"
   id="namedview18"
   showgrid="false"
   fit-margin-top="0"
   fit-margin-left="0"
   fit-margin-right="0"
   fit-margin-bottom="0"
   inkscape:zoom="2.36"
   inkscape:cx="-40.585767"
   inkscape:cy="35.402"
   inkscape:window-x="0"
   inkscape:window-y="24"
   inkscape:window-maximized="1"
   inkscape:current-layer="svg2" />
<g
   id="Captions"
   transform="translate(-15.585767,-10.401997)">
</g>
<g
   id="Your_Icon"
   transform="translate(-10.035883,-12.295)"
   style="fill:#ff7f2a;fill-opacity:1">
	<g
   id="g6"
   style="fill:#ff7f2a;fill-opacity:1">
		<path
   d="m 37.895,64.575 c -0.227,-0.544 -0.76,-0.899 -1.351,-0.899 H 24.643 c -0.59,0 -1.123,0.355 -1.35,0.899 l -7.594,18.8 c -0.189,0.451 -0.139,0.969 0.132,1.375 0.271,0.408 0.728,0.652 1.218,0.652 H 44.14 c 0.489,0 0.946,-0.244 1.217,-0.652 0.272,-0.406 0.321,-0.924 0.133,-1.375 l -7.595,-18.8 z"
   id="path8"
   inkscape:connector-curvature="0"
   style="fill:#ff7f2a;fill-opacity:1" />
		<path
   d="M 46.732,51.182 57.393,38.248 c 0.824,0.307 1.79,0.129 2.454,-0.535 0.906,-0.907 0.906,-2.378 0,-3.286 -0.907,-0.907 -2.378,-0.907 -3.287,0 -0.663,0.664 -0.84,1.629 -0.532,2.455 L 43.092,47.541 27.797,32.247 c -0.571,-0.571 -1.498,-0.572 -2.069,0 -2.145,2.145 -3.734,4.713 -4.724,7.635 -0.95,2.803 -1.31,5.808 -1.068,8.932 0.337,4.364 1.821,8.634 4.277,12.443 0.141,-0.015 0.285,-0.023 0.429,-0.023 h 11.901 c 1.581,0 2.996,0.942 3.604,2.401 l 4.468,10.701 c 0.927,0.108 1.858,0.163 2.788,0.163 h 0.001 c 5.706,0 10.931,-2.082 14.711,-5.863 0.275,-0.274 0.43,-0.646 0.43,-1.035 0,-0.388 -0.154,-0.76 -0.43,-1.034 L 46.732,51.182 z"
   id="path10"
   inkscape:connector-curvature="0"
   style="fill:#ff7f2a;fill-opacity:1" />
		<path
   d="m 55.926,27.806 c -0.733,0 -1.329,0.595 -1.329,1.328 0,0.733 0.596,1.328 1.329,1.328 4.018,0 7.288,3.269 7.288,7.288 0,0.733 0.594,1.328 1.327,1.328 0.733,0 1.327,-0.595 1.327,-1.328 0,-5.483 -4.46,-9.944 -9.942,-9.944 z"
   id="path12"
   inkscape:connector-curvature="0"
   style="fill:#ff7f2a;fill-opacity:1" />
		<path
   d="m 55.926,20.998 c -0.733,0 -1.329,0.595 -1.329,1.328 0,0.733 0.596,1.327 1.329,1.327 7.772,0 14.097,6.325 14.097,14.098 0,0.733 0.594,1.328 1.327,1.328 0.732,0 1.329,-0.595 1.329,-1.328 0,-9.238 -7.517,-16.753 -16.753,-16.753 z"
   id="path14"
   inkscape:connector-curvature="0"
   style="fill:#ff7f2a;fill-opacity:1" />
		<path
   d="m 72.585,21.09 c -4.45,-4.451 -10.367,-6.902 -16.659,-6.902 -0.733,0 -1.329,0.595 -1.329,1.328 0,0.733 0.596,1.328 1.329,1.328 5.584,0 10.833,2.174 14.781,6.124 3.95,3.948 6.125,9.199 6.125,14.783 0,0.733 0.594,1.328 1.327,1.328 0.733,0 1.327,-0.595 1.327,-1.328 0,-6.294 -2.45,-12.21 -6.901,-16.661 z"
   id="path16"
   inkscape:connector-curvature="0"
   style="fill:#ff7f2a;fill-opacity:1" />
	</g>
</g>
</svg>