<?xml version="1.0" encoding="UTF-8" standalone="no"?>
<svg
   xmlns:dc="http://purl.org/dc/elements/1.1/"
   xmlns:cc="http://creativecommons.org/ns#"
   xmlns:rdf="http://www.w3.org/1999/02/22-rdf-syntax-ns#"
   xmlns:svg="http://www.w3.org/2000/svg"
   xmlns="http://www.w3.org/2000/svg"
   xmlns:sodipodi="http://sodipodi.sourceforge.net/DTD/sodipodi-0.dtd"
   xmlns:inkscape="http://www.inkscape.org/namespaces/inkscape"
   version="1.1"
   x="0px"
   y="0px"
   width="55"
   height="55"
   viewBox="0 0 55 55"
   enable-background="new 0 0 100 100"
   xml:space="preserve"
   id="svg2"
   inkscape:version="0.48.3.1 r9886"
   sodipodi:docname="radio-bigger.svg"
   inkscape:export-filename="/home/maartend/.gvfs/SFTP on webfaction/home/sbb/webapps/beta/sites/all/themes/sbbtheme/resources/css/css-img/radio-bigger.png"
   inkscape:export-xdpi="52.360001"
   inkscape:export-ydpi="52.360001"><metadata
   id="metadata22"><rdf:RDF><cc:Work
       rdf:about=""><dc:format>image/svg+xml</dc:format><dc:type
         rdf:resource="http://purl.org/dc/dcmitype/StillImage" /><dc:title></dc:title></cc:Work></rdf:RDF></metadata><defs
   id="defs20">
	

		
		
		
		
		
	</defs><sodipodi:namedview
   pagecolor="#ffffff"
   bordercolor="#666666"
   borderopacity="1"
   objecttolerance="10"
   gridtolerance="10"
   guidetolerance="10"
   inkscape:pageopacity="0"
   inkscape:pageshadow="2"
   inkscape:window-width="1440"
   inkscape:window-height="876"
   id="namedview18"
   showgrid="false"
   fit-margin-top="0"
   fit-margin-left="0"
   fit-margin-right="0"
   fit-margin-bottom="0"
   inkscape:zoom="2.36"
   inkscape:cx="-96.559379"
   inkscape:cy="33.509"
   inkscape:window-x="0"
   inkscape:window-y="24"
   inkscape:window-maximized="1"
   inkscape:current-layer="svg2" />
<g
   id="Captions"
   transform="translate(-21.135651,-28.508998)">
</g>
<g
   id="g3019"
   transform="translate(4.0203835,-0.70818661)"><path
     style="fill:#ff7f2a;fill-opacity:1"
     inkscape:connector-curvature="0"
     id="path8"
     d="m 22.309233,34.172999 c -0.227,-0.544 -0.76,-0.899 -1.351,-0.899 H 9.0572335 c -0.59,0 -1.123,0.355 -1.35,0.899 l -7.594,18.8 c -0.189,0.451 -0.139,0.969 0.132,1.375 0.271,0.408 0.728,0.652 1.218,0.652 H 28.554233 c 0.489,0 0.946,-0.244 1.217,-0.652 0.272,-0.406 0.321,-0.924 0.133,-1.375 l -7.595,-18.8 z" /><path
     style="fill:#ff7f2a;fill-opacity:1"
     inkscape:connector-curvature="0"
     id="path10"
     d="m 31.146233,20.779999 10.661,-12.9339997 c 0.824,0.307 1.79,0.129 2.454,-0.535 0.906,-0.907 0.906,-2.378 0,-3.286 -0.907,-0.907 -2.378,-0.907 -3.287,0 -0.663,0.664 -0.84,1.629 -0.532,2.455 l -12.936,10.6589997 -15.295,-15.2939997 c -0.571,-0.571 -1.498,-0.572 -2.069,0 -2.1449995,2.145 -3.7339995,4.713 -4.7239995,7.635 -0.95,2.8029997 -1.31,5.8079997 -1.068,8.9319997 0.337,4.364 1.821,8.634 4.277,12.443 0.141,-0.015 0.285,-0.023 0.429,-0.023 H 20.957233 c 1.581,0 2.996,0.942 3.604,2.401 l 4.468,10.701 c 0.927,0.108 1.858,0.163 2.788,0.163 h 10e-4 c 5.706,0 10.931,-2.082 14.711,-5.863 0.275,-0.274 0.43,-0.646 0.43,-1.035 0,-0.388 -0.154,-0.76 -0.43,-1.034 l -15.383,-15.385 z" /></g>
</svg>