<?xml version="1.0" encoding="UTF-8" standalone="no"?>
<svg
   xmlns:dc="http://purl.org/dc/elements/1.1/"
   xmlns:cc="http://creativecommons.org/ns#"
   xmlns:rdf="http://www.w3.org/1999/02/22-rdf-syntax-ns#"
   xmlns:svg="http://www.w3.org/2000/svg"
   xmlns="http://www.w3.org/2000/svg"
   xmlns:sodipodi="http://sodipodi.sourceforge.net/DTD/sodipodi-0.dtd"
   xmlns:inkscape="http://www.inkscape.org/namespaces/inkscape"
   version="1.2"
   id="Layer_1"
   x="0px"
   y="0px"
   width="100px"
   height="100px"
   viewBox="0 0 100 100"
   xml:space="preserve"
   inkscape:version="0.48.3.1 r9886"
   sodipodi:docname="star.svg"
   inkscape:export-filename="/home/maartend/.gvfs/SFTP on webfaction/home/sbb/webapps/beta/sites/all/themes/sbbtheme/resources/css/css-img/star.png"
   inkscape:export-xdpi="28.799999"
   inkscape:export-ydpi="28.799999"><metadata
   id="metadata9"><rdf:RDF><cc:Work
       rdf:about=""><dc:format>image/svg+xml</dc:format><dc:type
         rdf:resource="http://purl.org/dc/dcmitype/StillImage" /><dc:title></dc:title></cc:Work></rdf:RDF></metadata><defs
   id="defs7" /><sodipodi:namedview
   pagecolor="#ffffff"
   bordercolor="#666666"
   borderopacity="1"
   objecttolerance="10"
   gridtolerance="10"
   guidetolerance="10"
   inkscape:pageopacity="0"
   inkscape:pageshadow="2"
   inkscape:window-width="1440"
   inkscape:window-height="876"
   id="namedview5"
   showgrid="false"
   inkscape:zoom="2.36"
   inkscape:cx="-24.576271"
   inkscape:cy="50"
   inkscape:window-x="0"
   inkscape:window-y="24"
   inkscape:window-maximized="1"
   inkscape:current-layer="Layer_1" />
<path
   d="M100,39.332c0-3.332-2.636-6.029-5.935-6.169c0.004-0.012,0.004-0.024,0.009-0.035H65.461L55.863,4.341  c-0.004,0-0.009,0.001-0.014,0.001C55.058,1.833,52.738,0,49.967,0c-2.938,0-5.384,2.048-6.023,4.789  c-0.007-0.001-0.015,0-0.021-0.002l-9.45,28.341H6.336c-0.048-0.001-0.092-0.014-0.139-0.014C2.773,33.113,0,35.888,0,39.31  c0,1.884,0.857,3.55,2.185,4.687c-0.007,0.01-0.011,0.021-0.019,0.031L26.24,62.535l-8.961,28.683  c-0.364,0.789-0.582,1.659-0.582,2.587c0,3.422,2.775,6.195,6.198,6.195c1.405,0,2.687-0.484,3.727-1.272  c0.011,0.01,0.025,0.017,0.036,0.026L50.027,80.84l22.536,17.317C73.688,99.294,75.245,100,76.97,100  c3.424,0,6.198-2.773,6.198-6.195c0-0.748-0.154-1.456-0.397-2.121c0.016-0.002,0.029-0.01,0.045-0.012l-9.077-29.016l23.718-18.332  c-0.002-0.001-0.005-0.003-0.007-0.005C98.988,43.192,100,41.386,100,39.332z"
   id="path3"
   style="fill:#ff7f2a;fill-opacity:1" />
</svg>