<?xml version="1.0" encoding="UTF-8" standalone="no"?>
<!-- Generator: Adobe Illustrator 14.0.0, SVG Export Plug-In . SVG Version: 6.00 Build 43363)  -->

<svg
   xmlns:dc="http://purl.org/dc/elements/1.1/"
   xmlns:cc="http://creativecommons.org/ns#"
   xmlns:rdf="http://www.w3.org/1999/02/22-rdf-syntax-ns#"
   xmlns:svg="http://www.w3.org/2000/svg"
   xmlns="http://www.w3.org/2000/svg"
   xmlns:sodipodi="http://sodipodi.sourceforge.net/DTD/sodipodi-0.dtd"
   xmlns:inkscape="http://www.inkscape.org/namespaces/inkscape"
   version="1.0"
   id="Layer_1"
   x="0px"
   y="0px"
   width="100"
   height="100"
   viewBox="0 0 100 100"
   enable-background="new 0 0 100 62.377"
   xml:space="preserve"
   inkscape:version="0.48.3.1 r9886"
   sodipodi:docname="trumpet.svg"
   inkscape:export-filename="/home/maartend/.gvfs/SFTP on webfaction/home/sbb/webapps/beta/sites/all/themes/sbbtheme/resources/css/css-img/trumpet.png"
   inkscape:export-xdpi="28.799999"
   inkscape:export-ydpi="28.799999"><metadata
   id="metadata9"><rdf:RDF><cc:Work
       rdf:about=""><dc:format>image/svg+xml</dc:format><dc:type
         rdf:resource="http://purl.org/dc/dcmitype/StillImage" /><dc:title></dc:title></cc:Work></rdf:RDF></metadata><defs
   id="defs7" /><sodipodi:namedview
   pagecolor="#ffffff"
   bordercolor="#666666"
   borderopacity="1"
   objecttolerance="10"
   gridtolerance="10"
   guidetolerance="10"
   inkscape:pageopacity="0"
   inkscape:pageshadow="2"
   inkscape:window-width="1440"
   inkscape:window-height="876"
   id="namedview5"
   showgrid="false"
   inkscape:zoom="2.92"
   inkscape:cx="-10.616438"
   inkscape:cy="31.188499"
   inkscape:window-x="0"
   inkscape:window-y="24"
   inkscape:window-maximized="1"
   inkscape:current-layer="Layer_1" />
<path
   d="m 100,42.517 c 0,-0.628 -0.363,-1.139 -1.183,-1.139 -0.7,0 -1.601,0.198 -2.017,1.051 -1.115,2.301 -7.629,3.133 -20.682,3.133 -6.31,0 -7.626,0 -12.27,0 C 15.196,45.562 4.561,34.118 4.561,20.113 4.563,19.395 3.979,18.812 3.261,18.812 H 1.301 C 0.582,18.812 0,19.395 0,20.113 c 0,6.409 0,54.655 0,59.52 0,0.719 0.582,1.301 1.301,1.301 h 1.96 c 0.718,0 1.302,-0.582 1.302,-1.301 0,-8.839 4.206,-16.762 19.593,-21.223 0.74,-0.215 1.051,0.105 0.53,1.068 -0.784,1.452 -1.182,2.994 -1.182,4.582 0,9.458 14.639,17.128 32.696,17.128 18.06,0 32.699,-7.67 32.699,-17.128 0,-3.122 -1.614,-6.027 -4.379,-8.571 -0.663,-0.607 -0.52,-1.164 0.277,-1.136 7.33,0.271 11.168,1.246 12.002,2.965 0.416,0.851 1.316,1.052 2.017,1.052 0.819,0 1.183,-0.513 1.183,-1.141 C 100,53.341 100,48.521 100,42.517 z M 56.182,74.76 c -13.76,0 -24.892,-4.646 -24.892,-10.699 0,-4.09 3.786,-8.59 19.961,-9.67 1.971,-0.131 8.176,-0.234 9.991,-0.261 8.939,-0.131 19.829,3.272 19.829,9.931 0,6.054 -11.131,10.699 -24.889,10.699 z"
   id="path3"
   style="fill:#ff7f2a;fill-opacity:1"
   inkscape:connector-curvature="0" />
</svg>