<?xml version="1.0" encoding="UTF-8" standalone="no"?>
<!-- Created with Inkscape (http://www.inkscape.org/) -->

<svg
   xmlns:dc="http://purl.org/dc/elements/1.1/"
   xmlns:cc="http://creativecommons.org/ns#"
   xmlns:rdf="http://www.w3.org/1999/02/22-rdf-syntax-ns#"
   xmlns:svg="http://www.w3.org/2000/svg"
   xmlns="http://www.w3.org/2000/svg"
   xmlns:sodipodi="http://sodipodi.sourceforge.net/DTD/sodipodi-0.dtd"
   xmlns:inkscape="http://www.inkscape.org/namespaces/inkscape"
   width="262"
   height="162"
   id="svg2"
   version="1.1"
   inkscape:version="0.48.4 r9939"
   sodipodi:docname="example-company-logo.svg"
   inkscape:export-filename="/home/maartend/example-company-logo.png"
   inkscape:export-xdpi="171.75999"
   inkscape:export-ydpi="171.75999">
  <defs
     id="defs4" />
  <sodipodi:namedview
     id="base"
     pagecolor="#ffffff"
     bordercolor="#666666"
     borderopacity="1.0"
     inkscape:pageopacity="0.0"
     inkscape:pageshadow="2"
     inkscape:zoom="1.4"
     inkscape:cx="359.69479"
     inkscape:cy="157.74986"
     inkscape:document-units="px"
     inkscape:current-layer="layer1"
     showgrid="false"
     fit-margin-top="0"
     fit-margin-left="0"
     fit-margin-right="0"
     fit-margin-bottom="0"
     inkscape:window-width="1600"
     inkscape:window-height="876"
     inkscape:window-x="0"
     inkscape:window-y="24"
     inkscape:window-maximized="1" />
  <metadata
     id="metadata7">
    <rdf:RDF>
      <cc:Work
         rdf:about="">
        <dc:format>image/svg+xml</dc:format>
        <dc:type
           rdf:resource="http://purl.org/dc/dcmitype/StillImage" />
        <dc:title></dc:title>
      </cc:Work>
    </rdf:RDF>
  </metadata>
  <g
     inkscape:label="Layer 1"
     inkscape:groupmode="layer"
     id="layer1"
     transform="translate(-194.01658,-143.79471)">
    <g
       id="g3137"
       transform="translate(-53.033009,-25.001276)">
      <path
         style="fill:#f7f8ec"
         d="m 247.04959,249.79599 0,-81 131,0 131,0 0,81 0,81 -131,0 -131,0 0,-81 z"
         id="path3141"
         inkscape:connector-curvature="0" />
      <path
         style="fill:#b7c230"
         d="m 247.04959,249.79599 0,-81 131,0 131,0 0,81 0,81 -131,0 -131,0 0,-81 z m 182.929,49.78146 c 5.36076,-1.82926 9.36693,-6.612 10.821,-12.91855 0.74921,-3.24944 1.25,-12.52645 1.25,-23.15576 0,-18.23495 0.35722,-20.19938 4.34541,-23.89651 1.7869,-1.65649 1.76457,-1.79157 -0.70455,-4.26068 -3.07297,-3.07298 -4.2302,-3.18581 -5.64086,-0.54996 -1.27526,2.38285 -2.61274,2.53012 -4.63275,0.51011 -0.81944,-0.81944 -3.96171,-2.20847 -6.98281,-3.08673 -4.64813,-1.35125 -6.29202,-1.40594 -10.68868,-0.3556 -6.22961,1.48821 -8.54847,2.67884 -11.17806,5.73943 -4.02004,4.67894 -5.65894,20.98692 -3.27947,32.63259 1.32509,6.48528 4.2396,10.7134 9.13274,13.24897 3.4921,1.80956 15.48961,1.99139 18.68153,0.28313 1.96712,-1.05277 2.16864,-0.99057 1.59913,0.49355 -0.3584,0.93397 -0.65163,2.52836 -0.65163,3.5431 0,2.32639 -5.18083,4.99145 -9.7033,4.99145 -3.45325,0 -8.43157,-2.04566 -11.4842,-4.71901 -1.50994,-1.32234 -1.98343,-1.20262 -4.5,1.13779 l -2.8125,2.61564 3.51019,3.31952 c 1.9306,1.82573 4.8556,3.80746 6.5,4.40384 4.09267,1.4843 12.10452,1.49586 16.41881,0.0237 z M 414.38932,275.3214 c -2.56767,-1.79847 -3.41333,-5.35293 -4.02106,-16.9012 -0.29522,-5.61006 -0.0718,-9.27104 0.60712,-9.95 0.59082,-0.59082 1.07421,-2.11582 1.07421,-3.38891 0,-2.97935 5.25417,-6.27782 10,-6.27782 8.78689,0 12.54687,6.6541 11.66161,20.63774 -0.77037,12.16893 -1.51168,14.96544 -4.30442,16.2379 -3.52195,1.6047 -12.52177,1.39033 -15.01746,-0.35771 z m -58.53223,5.55794 0.3075,-4.08335 -12.87717,0 c -18.7804,0 -17.23783,3.62492 -17.23783,-40.50761 l 0,-35.49239 -4.56707,0 -4.56707,0 0.31707,36.25 c 0.33876,38.72965 0.23547,37.91694 5.52162,43.44469 1.21249,1.26792 2.80999,2.30531 3.54999,2.30531 0.74,0 1.77296,0.41792 2.29546,0.9287 1.25797,1.22977 5.93907,1.60658 17.45,1.40465 l 9.5,-0.16666 0.3075,-4.08334 z m 33.77331,1.74356 c 2.78292,-1.2876 4.77071,-3.18062 6.25,-5.95201 1.9468,-3.64727 2.16919,-5.59202 2.16919,-18.9694 0,-9.27033 -0.37806,-14.9055 -1,-14.9055 -0.55,0 -1,-0.86724 -1,-1.9272 0,-2.83894 -6.26172,-7.50549 -12.06783,-8.99355 -6.0527,-1.55126 -12.46331,-0.23873 -17.68322,3.62053 -5.64008,4.16989 -6.24895,6.48404 -6.24895,23.75056 0,9.69977 0.37621,15.54966 1,15.54966 0.55,0 1.00055,0.5625 1.00122,1.25 6.7e-4,0.6875 1.01317,2.39968 2.25,3.80485 5.18505,5.89077 16.02499,7.07709 25.32959,2.77206 z m -19.4065,-8.14136 c -2.00465,-2.13386 -2.17431,-3.33965 -2.17431,-15.45295 0,-7.54038 0.47556,-14.18223 1.11611,-15.5881 1.6336,-3.58535 8.61218,-5.38432 13.99524,-3.60775 5.62335,1.85587 6.88865,5.35062 6.88865,19.02636 0,6.13388 -0.43304,11.08649 -1,11.43689 -0.55,0.33992 -1,1.32937 -1,2.19877 0,2.77672 -3.27394,4.23644 -9.57569,4.26943 -5.08188,0.0266 -6.43134,-0.34678 -8.25,-2.28265 z m 109.82569,8.77039 c 7.47597,-3.78556 9.96989,-10.02816 9.96989,-24.95594 0,-16.81946 -2.91571,-22.66054 -12.98019,-26.00342 -4.59073,-1.5248 -5.99876,-1.58996 -10.88138,-0.50358 -3.08457,0.68632 -5.83332,1.53116 -6.10832,1.87743 -0.275,0.34626 -1.36993,1.10964 -2.43317,1.6964 -1.06324,0.58676 -2.41324,1.93676 -3,3 -0.58676,1.06324 -1.36372,2.15963 -1.72658,2.43641 -1.23099,0.93897 -2.09086,16.82805 -1.37545,25.4164 0.79719,9.57018 2.82318,13.69375 8.19628,16.68222 5.28559,2.93979 14.90187,3.1072 20.33892,0.35408 z m -17.87036,-8.3263 c -3.53435,-3.53435 -3.99488,-29.40725 -0.58416,-32.81798 3.55356,-3.55356 10.44121,-4.23003 14.95452,-1.46877 4.14603,2.53655 5.77891,8.58927 5.20481,19.29308 -0.81541,15.20317 -1.89091,16.78356 -11.45481,16.83223 -4.80158,0.0244 -6.68345,-0.40165 -8.12036,-1.83856 z m 35.9361,8.83518 c 2.79474,-1.4957 2.74559,-8.57254 -0.0657,-9.46482 -1.1,-0.34913 -2.9,-0.34913 -4,0 -2.63406,0.83602 -2.80782,7.1663 -0.25,9.10795 2.14684,1.62969 1.96548,1.61469 4.31574,0.35687 z m -210.11621,-6.85364 c 6.64458,-2.52475 10.05047,-6.21938 10.05047,-10.90255 0,-1.68548 -0.95669,-1.9892 -7.75,-2.46038 -9.23639,-0.64063 -13.26399,-2.64915 -16.36063,-8.15888 -1.92303,-3.42156 -2.27077,-5.85115 -2.68512,-18.75999 -0.27316,-8.51017 -0.88636,-14.82938 -1.439,-14.82938 -3.25562,0 -7.80449,3.55205 -9.69244,7.56849 -1.80289,3.83547 -2.07281,6.32266 -2.07281,19.09961 0,16.53971 0.86157,20.32587 5.6716,24.92378 5.74055,5.48738 15.4096,6.889 24.27793,3.5193 z m 12.05047,-30.79018 c 0,-8.50354 -1.28929,-15.78339 -3.06761,-17.321 -0.31805,-0.275 -0.86102,-1.26717 -1.20661,-2.20482 -0.82315,-2.23339 -7.44795,-5.56721 -12.74656,-6.41449 l -4.20432,-0.6723 0.36758,15.07059 c 0.3468,14.21904 0.50137,15.21302 2.73561,17.59126 2.5275,2.69039 4.57171,3.24304 12.87191,3.47993 l 5.25,0.14983 0,-9.679 z"
         id="path3139"
         inkscape:connector-curvature="0" />
    </g>
  </g>
</svg>
