<?xml version="1.0" encoding="UTF-8" standalone="no"?>
<svg
   xmlns:dc="http://purl.org/dc/elements/1.1/"
   xmlns:cc="http://creativecommons.org/ns#"
   xmlns:rdf="http://www.w3.org/1999/02/22-rdf-syntax-ns#"
   xmlns:svg="http://www.w3.org/2000/svg"
   xmlns="http://www.w3.org/2000/svg"
   xmlns:xlink="http://www.w3.org/1999/xlink"
   xmlns:sodipodi="http://sodipodi.sourceforge.net/DTD/sodipodi-0.dtd"
   xmlns:inkscape="http://www.inkscape.org/namespaces/inkscape"
   version="1.1"
   id="Layer_1"
   x="0px"
   y="0px"
   width="400px"
   height="400px"
   viewBox="25.832 0 48.336 100"
   enable-background="new 25.832 0 48.336 100"
   xml:space="preserve"
   inkscape:version="0.48.3.1 r9886"
   sodipodi:docname="rocket.svg"
   inkscape:export-filename="/home/maartend/.gvfs/SFTP on webfaction/home/sbb/webapps/beta/sites/all/themes/sbbtheme/resources/img/contest/rocket.png"
   inkscape:export-xdpi="40.5"
   inkscape:export-ydpi="40.5"><metadata
   id="metadata20"><rdf:RDF><cc:Work
       rdf:about=""><dc:format>image/svg+xml</dc:format><dc:type
         rdf:resource="http://purl.org/dc/dcmitype/StillImage" /><dc:title /></cc:Work></rdf:RDF></metadata><defs
   id="defs18"><linearGradient
     inkscape:collect="always"
     id="linearGradient3792"><stop
       style="stop-color:#5a5a5a;stop-opacity:1;"
       offset="0"
       id="stop3794" /><stop
       style="stop-color:#5a5a5a;stop-opacity:0;"
       offset="1"
       id="stop3796" /></linearGradient><linearGradient
     inkscape:collect="always"
     xlink:href="#linearGradient3792"
     id="linearGradient3798"
     x1="50.603649"
     y1="101.26192"
     x2="50.603649"
     y2="86.659752"
     gradientUnits="userSpaceOnUse" /></defs><sodipodi:namedview
   pagecolor="#ffffff"
   bordercolor="#666666"
   borderopacity="1"
   objecttolerance="10"
   gridtolerance="10"
   guidetolerance="10"
   inkscape:pageopacity="0"
   inkscape:pageshadow="2"
   inkscape:window-width="1440"
   inkscape:window-height="876"
   id="namedview16"
   showgrid="false"
   inkscape:zoom="0.59"
   inkscape:cx="-31.692605"
   inkscape:cy="102.0235"
   inkscape:window-x="0"
   inkscape:window-y="24"
   inkscape:window-maximized="1"
   inkscape:current-layer="Layer_1" />
<g
   id="g3"
   transform="matrix(0.70194514,0,0,0.70194514,14.902743,14.902743)"
   style="fill:#5596c9;fill-opacity:1">
	<g
   id="g5"
   style="fill:#5596c9;fill-opacity:1">
		<path
   d="m 40.541,90.855 c 0.362,1.285 0.729,2.51 1.091,3.674 h 16.734 c 0.362,-1.165 0.728,-2.389 1.091,-3.674 H 40.541 z"
   id="path7"
   inkscape:connector-curvature="0"
   style="fill:#5596c9;fill-opacity:1" />
	</g>
	<g
   id="g9"
   style="fill:#5596c9;fill-opacity:1">
		<path
   d="M 65.094,67.932 C 68.209,51.667 69.211,33.352 61.487,17.035 H 38.511 c -7.722,16.316 -6.723,34.632 -3.606,50.897 -1.655,2.288 -9.073,10.48 -9.073,10.48 L 27.189,100 h 4.43 l 3.425,-14.012 3.729,-1.609 c 0.422,1.574 0.835,3.089 1.244,4.569 h 19.965 c 0.407,-1.48 0.823,-2.997 1.244,-4.569 L 64.955,85.988 68.38,100 h 4.431 l 1.357,-21.588 c 0,0 -7.421,-8.192 -9.074,-10.48 z M 50,29.86 c 2.665,0.052 4.808,2.178 4.808,4.807 0,2.626 -2.143,4.758 -4.808,4.809 -2.666,-0.051 -4.808,-2.183 -4.808,-4.809 0,-2.629 2.142,-4.755 4.808,-4.807 z"
   id="path11"
   inkscape:connector-curvature="0"
   style="fill:#5596c9;fill-opacity:1" />
	</g>
	<g
   id="_x3C_Path_x3E_"
   style="fill:#5596c9;fill-opacity:1">
		<path
   d="m 49.974,15.125 h 0.054 10.483 C 57.853,10.134 50.23,0 49.975,0 49.718,0 42.149,10.134 39.492,15.125 h 10.482 z"
   id="path14"
   inkscape:connector-curvature="0"
   style="fill:#5596c9;fill-opacity:1" />
	</g>
</g>
</svg>