<?xml version='1.0' encoding='UTF-8'?>
<svg height="33mm" version="1.1" width="33mm" xmlns="http://www.w3.org/2000/svg"><rect height="1mm" width="1mm" x="4mm" y="4mm" /><rect height="1mm" width="1mm" x="5mm" y="4mm" /><rect height="1mm" width="1mm" x="6mm" y="4mm" /><rect height="1mm" width="1mm" x="7mm" y="4mm" /><rect height="1mm" width="1mm" x="8mm" y="4mm" /><rect height="1mm" width="1mm" x="9mm" y="4mm" /><rect height="1mm" width="1mm" x="10mm" y="4mm" /><rect height="1mm" width="1mm" x="12mm" y="4mm" /><rect height="1mm" width="1mm" x="16mm" y="4mm" /><rect height="1mm" width="1mm" x="18mm" y="4mm" /><rect height="1mm" width="1mm" x="22mm" y="4mm" /><rect height="1mm" width="1mm" x="23mm" y="4mm" /><rect height="1mm" width="1mm" x="24mm" y="4mm" /><rect height="1mm" width="1mm" x="25mm" y="4mm" /><rect height="1mm" width="1mm" x="26mm" y="4mm" /><rect height="1mm" width="1mm" x="27mm" y="4mm" /><rect height="1mm" width="1mm" x="28mm" y="4mm" /><rect height="1mm" width="1mm" x="4mm" y="5mm" /><rect height="1mm" width="1mm" x="10mm" y="5mm" /><rect height="1mm" width="1mm" x="12mm" y="5mm" /><rect height="1mm" width="1mm" x="14mm" y="5mm" /><rect height="1mm" width="1mm" x="15mm" y="5mm" /><rect height="1mm" width="1mm" x="16mm" y="5mm" /><rect height="1mm" width="1mm" x="22mm" y="5mm" /><rect height="1mm" width="1mm" x="28mm" y="5mm" /><rect height="1mm" width="1mm" x="4mm" y="6mm" /><rect height="1mm" width="1mm" x="6mm" y="6mm" /><rect height="1mm" width="1mm" x="7mm" y="6mm" /><rect height="1mm" width="1mm" x="8mm" y="6mm" /><rect height="1mm" width="1mm" x="10mm" y="6mm" /><rect height="1mm" width="1mm" x="12mm" y="6mm" /><rect height="1mm" width="1mm" x="17mm" y="6mm" /><rect height="1mm" width="1mm" x="18mm" y="6mm" /><rect height="1mm" width="1mm" x="20mm" y="6mm" /><rect height="1mm" width="1mm" x="22mm" y="6mm" /><rect height="1mm" width="1mm" x="24mm" y="6mm" /><rect height="1mm" width="1mm" x="25mm" y="6mm" /><rect height="1mm" width="1mm" x="26mm" y="6mm" /><rect height="1mm" width="1mm" x="28mm" y="6mm" /><rect height="1mm" width="1mm" x="4mm" y="7mm" /><rect height="1mm" width="1mm" x="6mm" y="7mm" /><rect height="1mm" width="1mm" x="7mm" y="7mm" /><rect height="1mm" width="1mm" x="8mm" y="7mm" /><rect height="1mm" width="1mm" x="10mm" y="7mm" /><rect height="1mm" width="1mm" x="13mm" y="7mm" /><rect height="1mm" width="1mm" x="14mm" y="7mm" /><rect height="1mm" width="1mm" x="15mm" y="7mm" /><rect height="1mm" width="1mm" x="16mm" y="7mm" /><rect height="1mm" width="1mm" x="17mm" y="7mm" /><rect height="1mm" width="1mm" x="20mm" y="7mm" /><rect height="1mm" width="1mm" x="22mm" y="7mm" /><rect height="1mm" width="1mm" x="24mm" y="7mm" /><rect height="1mm" width="1mm" x="25mm" y="7mm" /><rect height="1mm" width="1mm" x="26mm" y="7mm" /><rect height="1mm" width="1mm" x="28mm" y="7mm" /><rect height="1mm" width="1mm" x="4mm" y="8mm" /><rect height="1mm" width="1mm" x="6mm" y="8mm" /><rect height="1mm" width="1mm" x="7mm" y="8mm" /><rect height="1mm" width="1mm" x="8mm" y="8mm" /><rect height="1mm" width="1mm" x="10mm" y="8mm" /><rect height="1mm" width="1mm" x="12mm" y="8mm" /><rect height="1mm" width="1mm" x="14mm" y="8mm" /><rect height="1mm" width="1mm" x="16mm" y="8mm" /><rect height="1mm" width="1mm" x="18mm" y="8mm" /><rect height="1mm" width="1mm" x="20mm" y="8mm" /><rect height="1mm" width="1mm" x="22mm" y="8mm" /><rect height="1mm" width="1mm" x="24mm" y="8mm" /><rect height="1mm" width="1mm" x="25mm" y="8mm" /><rect height="1mm" width="1mm" x="26mm" y="8mm" /><rect height="1mm" width="1mm" x="28mm" y="8mm" /><rect height="1mm" width="1mm" x="4mm" y="9mm" /><rect height="1mm" width="1mm" x="10mm" y="9mm" /><rect height="1mm" width="1mm" x="13mm" y="9mm" /><rect height="1mm" width="1mm" x="15mm" y="9mm" /><rect height="1mm" width="1mm" x="16mm" y="9mm" /><rect height="1mm" width="1mm" x="20mm" y="9mm" /><rect height="1mm" width="1mm" x="22mm" y="9mm" /><rect height="1mm" width="1mm" x="28mm" y="9mm" /><rect height="1mm" width="1mm" x="4mm" y="10mm" /><rect height="1mm" width="1mm" x="5mm" y="10mm" /><rect height="1mm" width="1mm" x="6mm" y="10mm" /><rect height="1mm" width="1mm" x="7mm" y="10mm" /><rect height="1mm" width="1mm" x="8mm" y="10mm" /><rect height="1mm" width="1mm" x="9mm" y="10mm" /><rect height="1mm" width="1mm" x="10mm" y="10mm" /><rect height="1mm" width="1mm" x="12mm" y="10mm" /><rect height="1mm" width="1mm" x="14mm" y="10mm" /><rect height="1mm" width="1mm" x="16mm" y="10mm" /><rect height="1mm" width="1mm" x="18mm" y="10mm" /><rect height="1mm" width="1mm" x="20mm" y="10mm" /><rect height="1mm" width="1mm" x="22mm" y="10mm" /><rect height="1mm" width="1mm" x="23mm" y="10mm" /><rect height="1mm" width="1mm" x="24mm" y="10mm" /><rect height="1mm" width="1mm" x="25mm" y="10mm" /><rect height="1mm" width="1mm" x="26mm" y="10mm" /><rect height="1mm" width="1mm" x="27mm" y="10mm" /><rect height="1mm" width="1mm" x="28mm" y="10mm" /><rect height="1mm" width="1mm" x="13mm" y="11mm" /><rect height="1mm" width="1mm" x="16mm" y="11mm" /><rect height="1mm" width="1mm" x="17mm" y="11mm" /><rect height="1mm" width="1mm" x="20mm" y="11mm" /><rect height="1mm" width="1mm" x="4mm" y="12mm" /><rect height="1mm" width="1mm" x="7mm" y="12mm" /><rect height="1mm" width="1mm" x="8mm" y="12mm" /><rect height="1mm" width="1mm" x="9mm" y="12mm" /><rect height="1mm" width="1mm" x="10mm" y="12mm" /><rect height="1mm" width="1mm" x="11mm" y="12mm" /><rect height="1mm" width="1mm" x="12mm" y="12mm" /><rect height="1mm" width="1mm" x="14mm" y="12mm" /><rect height="1mm" width="1mm" x="16mm" y="12mm" /><rect height="1mm" width="1mm" x="18mm" y="12mm" /><rect height="1mm" width="1mm" x="20mm" y="12mm" /><rect height="1mm" width="1mm" x="21mm" y="12mm" /><rect height="1mm" width="1mm" x="24mm" y="12mm" /><rect height="1mm" width="1mm" x="26mm" y="12mm" /><rect height="1mm" width="1mm" x="27mm" y="12mm" /><rect height="1mm" width="1mm" x="28mm" y="12mm" /><rect height="1mm" width="1mm" x="5mm" y="13mm" /><rect height="1mm" width="1mm" x="8mm" y="13mm" /><rect height="1mm" width="1mm" x="12mm" y="13mm" /><rect height="1mm" width="1mm" x="13mm" y="13mm" /><rect height="1mm" width="1mm" x="15mm" y="13mm" /><rect height="1mm" width="1mm" x="16mm" y="13mm" /><rect height="1mm" width="1mm" x="19mm" y="13mm" /><rect height="1mm" width="1mm" x="23mm" y="13mm" /><rect height="1mm" width="1mm" x="24mm" y="13mm" /><rect height="1mm" width="1mm" x="25mm" y="13mm" /><rect height="1mm" width="1mm" x="26mm" y="13mm" /><rect height="1mm" width="1mm" x="27mm" y="13mm" /><rect height="1mm" width="1mm" x="5mm" y="14mm" /><rect height="1mm" width="1mm" x="6mm" y="14mm" /><rect height="1mm" width="1mm" x="9mm" y="14mm" /><rect height="1mm" width="1mm" x="10mm" y="14mm" /><rect height="1mm" width="1mm" x="16mm" y="14mm" /><rect height="1mm" width="1mm" x="17mm" y="14mm" /><rect height="1mm" width="1mm" x="18mm" y="14mm" /><rect height="1mm" width="1mm" x="19mm" y="14mm" /><rect height="1mm" width="1mm" x="21mm" y="14mm" /><rect height="1mm" width="1mm" x="22mm" y="14mm" /><rect height="1mm" width="1mm" x="24mm" y="14mm" /><rect height="1mm" width="1mm" x="25mm" y="14mm" /><rect height="1mm" width="1mm" x="28mm" y="14mm" /><rect height="1mm" width="1mm" x="5mm" y="15mm" /><rect height="1mm" width="1mm" x="7mm" y="15mm" /><rect height="1mm" width="1mm" x="8mm" y="15mm" /><rect height="1mm" width="1mm" x="12mm" y="15mm" /><rect height="1mm" width="1mm" x="22mm" y="15mm" /><rect height="1mm" width="1mm" x="25mm" y="15mm" /><rect height="1mm" width="1mm" x="26mm" y="15mm" /><rect height="1mm" width="1mm" x="27mm" y="15mm" /><rect height="1mm" width="1mm" x="28mm" y="15mm" /><rect height="1mm" width="1mm" x="6mm" y="16mm" /><rect height="1mm" width="1mm" x="9mm" y="16mm" /><rect height="1mm" width="1mm" x="10mm" y="16mm" /><rect height="1mm" width="1mm" x="14mm" y="16mm" /><rect height="1mm" width="1mm" x="15mm" y="16mm" /><rect height="1mm" width="1mm" x="16mm" y="16mm" /><rect height="1mm" width="1mm" x="20mm" y="16mm" /><rect height="1mm" width="1mm" x="22mm" y="16mm" /><rect height="1mm" width="1mm" x="28mm" y="16mm" /><rect height="1mm" width="1mm" x="9mm" y="17mm" /><rect height="1mm" width="1mm" x="11mm" y="17mm" /><rect height="1mm" width="1mm" x="13mm" y="17mm" /><rect height="1mm" width="1mm" x="14mm" y="17mm" /><rect height="1mm" width="1mm" x="16mm" y="17mm" /><rect height="1mm" width="1mm" x="17mm" y="17mm" /><rect height="1mm" width="1mm" x="18mm" y="17mm" /><rect height="1mm" width="1mm" x="19mm" y="17mm" /><rect height="1mm" width="1mm" x="20mm" y="17mm" /><rect height="1mm" width="1mm" x="24mm" y="17mm" /><rect height="1mm" width="1mm" x="27mm" y="17mm" /><rect height="1mm" width="1mm" x="6mm" y="18mm" /><rect height="1mm" width="1mm" x="8mm" y="18mm" /><rect height="1mm" width="1mm" x="10mm" y="18mm" /><rect height="1mm" width="1mm" x="11mm" y="18mm" /><rect height="1mm" width="1mm" x="13mm" y="18mm" /><rect height="1mm" width="1mm" x="17mm" y="18mm" /><rect height="1mm" width="1mm" x="18mm" y="18mm" /><rect height="1mm" width="1mm" x="19mm" y="18mm" /><rect height="1mm" width="1mm" x="22mm" y="18mm" /><rect height="1mm" width="1mm" x="24mm" y="18mm" /><rect height="1mm" width="1mm" x="25mm" y="18mm" /><rect height="1mm" width="1mm" x="26mm" y="18mm" /><rect height="1mm" width="1mm" x="27mm" y="18mm" /><rect height="1mm" width="1mm" x="28mm" y="18mm" /><rect height="1mm" width="1mm" x="8mm" y="19mm" /><rect height="1mm" width="1mm" x="12mm" y="19mm" /><rect height="1mm" width="1mm" x="13mm" y="19mm" /><rect height="1mm" width="1mm" x="14mm" y="19mm" /><rect height="1mm" width="1mm" x="15mm" y="19mm" /><rect height="1mm" width="1mm" x="18mm" y="19mm" /><rect height="1mm" width="1mm" x="20mm" y="19mm" /><rect height="1mm" width="1mm" x="21mm" y="19mm" /><rect height="1mm" width="1mm" x="24mm" y="19mm" /><rect height="1mm" width="1mm" x="26mm" y="19mm" /><rect height="1mm" width="1mm" x="28mm" y="19mm" /><rect height="1mm" width="1mm" x="7mm" y="20mm" /><rect height="1mm" width="1mm" x="9mm" y="20mm" /><rect height="1mm" width="1mm" x="10mm" y="20mm" /><rect height="1mm" width="1mm" x="12mm" y="20mm" /><rect height="1mm" width="1mm" x="14mm" y="20mm" /><rect height="1mm" width="1mm" x="16mm" y="20mm" /><rect height="1mm" width="1mm" x="17mm" y="20mm" /><rect height="1mm" width="1mm" x="18mm" y="20mm" /><rect height="1mm" width="1mm" x="20mm" y="20mm" /><rect height="1mm" width="1mm" x="21mm" y="20mm" /><rect height="1mm" width="1mm" x="22mm" y="20mm" /><rect height="1mm" width="1mm" x="23mm" y="20mm" /><rect height="1mm" width="1mm" x="24mm" y="20mm" /><rect height="1mm" width="1mm" x="26mm" y="20mm" /><rect height="1mm" width="1mm" x="27mm" y="20mm" /><rect height="1mm" width="1mm" x="12mm" y="21mm" /><rect height="1mm" width="1mm" x="16mm" y="21mm" /><rect height="1mm" width="1mm" x="17mm" y="21mm" /><rect height="1mm" width="1mm" x="20mm" y="21mm" /><rect height="1mm" width="1mm" x="24mm" y="21mm" /><rect height="1mm" width="1mm" x="27mm" y="21mm" /><rect height="1mm" width="1mm" x="4mm" y="22mm" /><rect height="1mm" width="1mm" x="5mm" y="22mm" /><rect height="1mm" width="1mm" x="6mm" y="22mm" /><rect height="1mm" width="1mm" x="7mm" y="22mm" /><rect height="1mm" width="1mm" x="8mm" y="22mm" /><rect height="1mm" width="1mm" x="9mm" y="22mm" /><rect height="1mm" width="1mm" x="10mm" y="22mm" /><rect height="1mm" width="1mm" x="12mm" y="22mm" /><rect height="1mm" width="1mm" x="15mm" y="22mm" /><rect height="1mm" width="1mm" x="20mm" y="22mm" /><rect height="1mm" width="1mm" x="22mm" y="22mm" /><rect height="1mm" width="1mm" x="24mm" y="22mm" /><rect height="1mm" width="1mm" x="25mm" y="22mm" /><rect height="1mm" width="1mm" x="28mm" y="22mm" /><rect height="1mm" width="1mm" x="4mm" y="23mm" /><rect height="1mm" width="1mm" x="10mm" y="23mm" /><rect height="1mm" width="1mm" x="12mm" y="23mm" /><rect height="1mm" width="1mm" x="13mm" y="23mm" /><rect height="1mm" width="1mm" x="17mm" y="23mm" /><rect height="1mm" width="1mm" x="18mm" y="23mm" /><rect height="1mm" width="1mm" x="19mm" y="23mm" /><rect height="1mm" width="1mm" x="20mm" y="23mm" /><rect height="1mm" width="1mm" x="24mm" y="23mm" /><rect height="1mm" width="1mm" x="4mm" y="24mm" /><rect height="1mm" width="1mm" x="6mm" y="24mm" /><rect height="1mm" width="1mm" x="7mm" y="24mm" /><rect height="1mm" width="1mm" x="8mm" y="24mm" /><rect height="1mm" width="1mm" x="10mm" y="24mm" /><rect height="1mm" width="1mm" x="12mm" y="24mm" /><rect height="1mm" width="1mm" x="13mm" y="24mm" /><rect height="1mm" width="1mm" x="15mm" y="24mm" /><rect height="1mm" width="1mm" x="16mm" y="24mm" /><rect height="1mm" width="1mm" x="18mm" y="24mm" /><rect height="1mm" width="1mm" x="19mm" y="24mm" /><rect height="1mm" width="1mm" x="20mm" y="24mm" /><rect height="1mm" width="1mm" x="21mm" y="24mm" /><rect height="1mm" width="1mm" x="22mm" y="24mm" /><rect height="1mm" width="1mm" x="23mm" y="24mm" /><rect height="1mm" width="1mm" x="24mm" y="24mm" /><rect height="1mm" width="1mm" x="25mm" y="24mm" /><rect height="1mm" width="1mm" x="4mm" y="25mm" /><rect height="1mm" width="1mm" x="6mm" y="25mm" /><rect height="1mm" width="1mm" x="7mm" y="25mm" /><rect height="1mm" width="1mm" x="8mm" y="25mm" /><rect height="1mm" width="1mm" x="10mm" y="25mm" /><rect height="1mm" width="1mm" x="12mm" y="25mm" /><rect height="1mm" width="1mm" x="13mm" y="25mm" /><rect height="1mm" width="1mm" x="15mm" y="25mm" /><rect height="1mm" width="1mm" x="18mm" y="25mm" /><rect height="1mm" width="1mm" x="21mm" y="25mm" /><rect height="1mm" width="1mm" x="22mm" y="25mm" /><rect height="1mm" width="1mm" x="23mm" y="25mm" /><rect height="1mm" width="1mm" x="25mm" y="25mm" /><rect height="1mm" width="1mm" x="27mm" y="25mm" /><rect height="1mm" width="1mm" x="28mm" y="25mm" /><rect height="1mm" width="1mm" x="4mm" y="26mm" /><rect height="1mm" width="1mm" x="6mm" y="26mm" /><rect height="1mm" width="1mm" x="7mm" y="26mm" /><rect height="1mm" width="1mm" x="8mm" y="26mm" /><rect height="1mm" width="1mm" x="10mm" y="26mm" /><rect height="1mm" width="1mm" x="13mm" y="26mm" /><rect height="1mm" width="1mm" x="14mm" y="26mm" /><rect height="1mm" width="1mm" x="15mm" y="26mm" /><rect height="1mm" width="1mm" x="17mm" y="26mm" /><rect height="1mm" width="1mm" x="18mm" y="26mm" /><rect height="1mm" width="1mm" x="19mm" y="26mm" /><rect height="1mm" width="1mm" x="21mm" y="26mm" /><rect height="1mm" width="1mm" x="23mm" y="26mm" /><rect height="1mm" width="1mm" x="24mm" y="26mm" /><rect height="1mm" width="1mm" x="26mm" y="26mm" /><rect height="1mm" width="1mm" x="27mm" y="26mm" /><rect height="1mm" width="1mm" x="28mm" y="26mm" /><rect height="1mm" width="1mm" x="4mm" y="27mm" /><rect height="1mm" width="1mm" x="10mm" y="27mm" /><rect height="1mm" width="1mm" x="18mm" y="27mm" /><rect height="1mm" width="1mm" x="22mm" y="27mm" /><rect height="1mm" width="1mm" x="23mm" y="27mm" /><rect height="1mm" width="1mm" x="24mm" y="27mm" /><rect height="1mm" width="1mm" x="26mm" y="27mm" /><rect height="1mm" width="1mm" x="27mm" y="27mm" /><rect height="1mm" width="1mm" x="28mm" y="27mm" /><rect height="1mm" width="1mm" x="4mm" y="28mm" /><rect height="1mm" width="1mm" x="5mm" y="28mm" /><rect height="1mm" width="1mm" x="6mm" y="28mm" /><rect height="1mm" width="1mm" x="7mm" y="28mm" /><rect height="1mm" width="1mm" x="8mm" y="28mm" /><rect height="1mm" width="1mm" x="9mm" y="28mm" /><rect height="1mm" width="1mm" x="10mm" y="28mm" /><rect height="1mm" width="1mm" x="12mm" y="28mm" /><rect height="1mm" width="1mm" x="14mm" y="28mm" /><rect height="1mm" width="1mm" x="16mm" y="28mm" /><rect height="1mm" width="1mm" x="20mm" y="28mm" /><rect height="1mm" width="1mm" x="22mm" y="28mm" /><rect height="1mm" width="1mm" x="25mm" y="28mm" /><rect height="1mm" width="1mm" x="28mm" y="28mm" /></svg>