<?xml version="1.0" encoding="UTF-8" standalone="no"?>
<svg
   xmlns:dc="http://purl.org/dc/elements/1.1/"
   xmlns:cc="http://creativecommons.org/ns#"
   xmlns:rdf="http://www.w3.org/1999/02/22-rdf-syntax-ns#"
   xmlns:svg="http://www.w3.org/2000/svg"
   xmlns="http://www.w3.org/2000/svg"
   xmlns:sodipodi="http://sodipodi.sourceforge.net/DTD/sodipodi-0.dtd"
   xmlns:inkscape="http://www.inkscape.org/namespaces/inkscape"
   version="1.1"
   id="Layer_1"
   x="0px"
   y="0px"
   width="100px"
   height="100px"
   viewBox="0 0 100 100"
   enable-background="new 0 0 100 100"
   xml:space="preserve"
   inkscape:version="0.91pre0 r13343"
   sodipodi:docname="good-cause.svg"
   inkscape:export-filename="/home/maartend/htdocs/spacebillboard/docroot/sites/all/themes/sbbtheme/resources/img/the-billboard/good-cause.png"
   inkscape:export-xdpi="57.599998"
   inkscape:export-ydpi="57.599998"><metadata
     id="metadata9"><rdf:RDF><cc:Work
         rdf:about=""><dc:format>image/svg+xml</dc:format><dc:type
           rdf:resource="http://purl.org/dc/dcmitype/StillImage" /><dc:title /></cc:Work></rdf:RDF></metadata><defs
     id="defs7" /><sodipodi:namedview
     pagecolor="#ffffff"
     bordercolor="#666666"
     borderopacity="1"
     objecttolerance="10"
     gridtolerance="10"
     guidetolerance="10"
     inkscape:pageopacity="0"
     inkscape:pageshadow="2"
     inkscape:window-width="1600"
     inkscape:window-height="834"
     id="namedview5"
     showgrid="true"
     inkscape:zoom="2.36"
     inkscape:cx="-154.66102"
     inkscape:cy="33.050847"
     inkscape:window-x="0"
     inkscape:window-y="27"
     inkscape:window-maximized="1"
     inkscape:current-layer="Layer_1"
     inkscape:snap-bbox="true"><inkscape:grid
       type="xygrid"
       id="grid4100" /></sodipodi:namedview><rect
     style="opacity:1;fill:#0086d7;fill-opacity:1;fill-rule:nonzero;stroke:none;stroke-width:2;stroke-linecap:square;stroke-linejoin:miter;stroke-miterlimit:4;stroke-dasharray:none;stroke-dashoffset:0;stroke-opacity:1"
     id="rect4098"
     width="100"
     height="99.999992"
     x="0"
     y="0" /><rect
     style="opacity:1;fill:#ffffff;fill-opacity:1;fill-rule:nonzero;stroke:none;stroke-width:2;stroke-linecap:square;stroke-linejoin:miter;stroke-miterlimit:4;stroke-dasharray:none;stroke-dashoffset:0;stroke-opacity:1"
     id="rect4102"
     width="60"
     height="65"
     x="20"
     y="17.5" /><path
     d="M 50.000001,0.00999961 C 22.390999,0.00999961 0.009999,22.391 0.009999,50 c 0,27.608 22.381,49.99 49.990002,49.99 27.608999,0 49.99,-22.382 49.99,-49.99 0,-27.609 -22.381001,-49.99000039 -49.99,-49.99000039 z M 55.311001,72.979 c 0,4.048 -3.119,7.166 -7.335,7.166 -4.217,0 -7.336,-3.118 -7.336,-7.166 l 0,-0.169 c 0,-4.048 3.119,-7.168 7.336,-7.168 4.216,0 7.335,3.12 7.335,7.168 l 0,0.169 z M 70.07,37.477 c 0,10.709 -7.420999,15.096 -16.610999,16.951 l -0.253,3.06 c -0.339,2.191 -2.11,4.131 -4.555,4.131 l -2.825,0 c -2.446,0 -4.217,-1.854 -4.553,-4.131 l 0,-7.277 c -0.422,-2.783 2.486,-4.724 5.187,-5.061 7.335,-0.926 10.708,-3.203 10.708,-7.335 l 0,-0.169 c 0,-3.794 -2.867,-5.987 -7.759,-5.987 -3.625,0 -6.745,1.097 -9.78,3.373 -1.013,0.759 -2.362,1.35 -3.796,1.35 -3.204002,0 -5.903002,-2.7 -5.903002,-5.902 0,-1.604 0.675,-3.29 2.194,-4.555 4.469002,-3.709 10.118002,-6.072 17.538002,-6.072 12.144,0 20.407999,6.24 20.407999,17.455 l 0,0.169 z"
     id="path3"
     style="fill:#0086d7;fill-opacity:1;stroke:none;stroke-opacity:1"
     inkscape:export-xdpi="28.809999"
     inkscape:export-ydpi="28.809999"
     inkscape:connector-curvature="0" /></svg>