<?xml version="1.0" encoding="UTF-8" standalone="no"?>
<svg
   xmlns:dc="http://purl.org/dc/elements/1.1/"
   xmlns:cc="http://creativecommons.org/ns#"
   xmlns:rdf="http://www.w3.org/1999/02/22-rdf-syntax-ns#"
   xmlns:svg="http://www.w3.org/2000/svg"
   xmlns="http://www.w3.org/2000/svg"
   xmlns:sodipodi="http://sodipodi.sourceforge.net/DTD/sodipodi-0.dtd"
   xmlns:inkscape="http://www.inkscape.org/namespaces/inkscape"
   version="1.1"
   id="Your_Icon"
   x="0px"
   y="0px"
   width="100"
   height="44.330002"
   viewBox="0 0 100 44.330002"
   enable-background="new 0 0 100 100"
   xml:space="preserve"
   inkscape:version="0.48.5 r10040"
   sodipodi:docname="mail.svg"
   inkscape:export-filename="/home/maartend/htdocs/spacebillboard/docroot/sites/all/themes/sbbtheme/resources/img/contact/mail.png"
   inkscape:export-xdpi="135"
   inkscape:export-ydpi="135"><metadata
     id="metadata19"><rdf:RDF><cc:Work
         rdf:about=""><dc:format>image/svg+xml</dc:format><dc:type
           rdf:resource="http://purl.org/dc/dcmitype/StillImage" /><dc:title /></cc:Work></rdf:RDF></metadata><defs
     id="defs17" /><sodipodi:namedview
     pagecolor="#ffffff"
     bordercolor="#666666"
     borderopacity="1"
     objecttolerance="10"
     gridtolerance="10"
     guidetolerance="10"
     inkscape:pageopacity="0"
     inkscape:pageshadow="2"
     inkscape:window-width="1600"
     inkscape:window-height="834"
     id="namedview15"
     showgrid="false"
     inkscape:zoom="2.36"
     inkscape:cx="-130.41711"
     inkscape:cy="22.162881"
     inkscape:window-x="0"
     inkscape:window-y="27"
     inkscape:window-maximized="1"
     inkscape:current-layer="Your_Icon"
     fit-margin-top="0"
     fit-margin-left="0"
     fit-margin-right="0"
     fit-margin-bottom="0" /><g
     id="g3"
     transform="translate(-17.493381,-27.832882)"><g
       id="g5"><g
         id="g7"><g
           id="g9" /></g><g
         id="g11" /></g></g><path
     d="m 59.348415,23.425051 23.043876,18.928207 c -0.338509,1.139026 -1.396441,1.976741 -2.641855,1.976741 H 20.250308 c -1.245414,0 -2.303346,-0.837715 -2.641111,-1.976741 l 23.043132,-18.928951 6.601288,5.422089 c 0.790845,0.646514 1.775868,0.941872 2.746755,0.944104 0.971631,-0.0022 1.956654,-0.29759 2.746011,-0.94336 l 6.602032,-5.422089 z M 82.506119,39.93162 V 4.4023598 L 60.88026,22.16699 82.506119,39.93162 z M 17.493881,4.4023598 V 39.930876 L 39.11974,22.166246 17.493881,4.4023598 z M 79.750436,0.00323685 H 20.250308 c -1.24467,0 -2.302602,0.836971 -2.641111,1.97599695 l 1.418016,1.16432 29.461402,24.2000132 c 0.380915,0.316933 0.940384,0.502183 1.512501,0.500695 0.572117,0.0015 1.131586,-0.183762 1.512501,-0.500695 L 80.976507,3.1435538 82.393035,1.9799778 C 82.053782,0.84095185 80.99585,0.00323685 79.750436,0.00323685 z"
     id="path13"
     style="fill:#0086d7;fill-opacity:1"
     inkscape:connector-curvature="0" /></svg>