<?xml version="1.0" encoding="UTF-8" standalone="no"?>
<svg
   xmlns:dc="http://purl.org/dc/elements/1.1/"
   xmlns:cc="http://creativecommons.org/ns#"
   xmlns:rdf="http://www.w3.org/1999/02/22-rdf-syntax-ns#"
   xmlns:svg="http://www.w3.org/2000/svg"
   xmlns="http://www.w3.org/2000/svg"
   xmlns:sodipodi="http://sodipodi.sourceforge.net/DTD/sodipodi-0.dtd"
   xmlns:inkscape="http://www.inkscape.org/namespaces/inkscape"
   version="1.1"
   id="Glyphs_-_Devices"
   x="0px"
   y="0px"
   viewBox="0 0 40 24.016001"
   enable-background="new 0 0 40 40"
   xml:space="preserve"
   height="60.040001"
   width="100"
   inkscape:version="0.48.5 r10040"
   sodipodi:docname="phone.svg"
   inkscape:export-filename="/home/maartend/htdocs/spacebillboard/docroot/sites/all/themes/sbbtheme/resources/img/contact/phone.png"
   inkscape:export-xdpi="135"
   inkscape:export-ydpi="135"><metadata
     id="metadata8"><rdf:RDF><cc:Work
         rdf:about=""><dc:format>image/svg+xml</dc:format><dc:type
           rdf:resource="http://purl.org/dc/dcmitype/StillImage" /><dc:title /></cc:Work></rdf:RDF></metadata><defs
     id="defs6" /><sodipodi:namedview
     pagecolor="#ffffff"
     bordercolor="#666666"
     borderopacity="1"
     objecttolerance="10"
     gridtolerance="10"
     guidetolerance="10"
     inkscape:pageopacity="0"
     inkscape:pageshadow="2"
     inkscape:window-width="1600"
     inkscape:window-height="834"
     id="namedview4"
     showgrid="false"
     inkscape:zoom="2.36"
     inkscape:cx="-97.792551"
     inkscape:cy="30.035284"
     inkscape:window-x="0"
     inkscape:window-y="27"
     inkscape:window-maximized="1"
     inkscape:current-layer="Glyphs_-_Devices"
     fit-margin-top="0"
     fit-margin-left="0"
     fit-margin-right="0"
     fit-margin-bottom="0" /><path
     id="Phone_1_"
     clip-rule="evenodd"
     d="m 32.133275,19.101887 -6.3,-4.7 c -0.4,-0.3 -0.8,-0.2 -1.1,0.1 l -0.5,0.5 -1.6,1.6 c -0.5,0.5 -1.3,0.5 -1.9,0 l -5.9,-5.3 c -0.3,-0.2 -0.4,-0.6 -0.4,-1 0,-0.3999999 0.1,-0.6999999 0.4,-0.9999999 l 1.4,-1.4 0.3,-0.3 c 0.3,-0.3 0.3,-0.8 0.1,-1.1 l -4.3,-6.19999995 c -0.1,-0.1 -0.3,-0.3 -0.6,-0.3 -0.2,0 -0.5,0 -0.7,0.2 0,0 0,0 0,0 L 8.5332753,2.2018871 c -1,0.8 -1.2,2.1 -0.8,3.3 3.2999997,8.7999999 10.3999997,15.3999999 19.3999997,18.3999999 1,0.3 2.2,0 2.9,-0.8 0.5,-0.6 1.7,-2.1 1.9,-2.3 0.1,-0.1 0.2,-0.3 0.3,-0.4 0.2,-0.2 0.2,-0.4 0.2,-0.7 0.1,-0.3 -0.1,-0.5 -0.3,-0.6 z"
     style="fill:#0086d7;fill-opacity:1;fill-rule:evenodd"
     inkscape:connector-curvature="0" /></svg>