<?xml version="1.0" encoding="UTF-8" standalone="no"?>
<!-- Created with Inkscape (http://www.inkscape.org/) -->

<svg
   xmlns:dc="http://purl.org/dc/elements/1.1/"
   xmlns:cc="http://creativecommons.org/ns#"
   xmlns:rdf="http://www.w3.org/1999/02/22-rdf-syntax-ns#"
   xmlns:svg="http://www.w3.org/2000/svg"
   xmlns="http://www.w3.org/2000/svg"
   xmlns:sodipodi="http://sodipodi.sourceforge.net/DTD/sodipodi-0.dtd"
   xmlns:inkscape="http://www.inkscape.org/namespaces/inkscape"
   width="1555.3174"
   height="1076.5675"
   id="svg2"
   version="1.1"
   inkscape:version="0.48.5 r10040"
   sodipodi:docname="New document 1">
  <defs
     id="defs4" />
  <sodipodi:namedview
     id="base"
     pagecolor="#ffffff"
     bordercolor="#666666"
     borderopacity="1.0"
     inkscape:pageopacity="0.0"
     inkscape:pageshadow="2"
     inkscape:zoom="0.35"
     inkscape:cx="147.60304"
     inkscape:cy="227.2258"
     inkscape:document-units="px"
     inkscape:current-layer="layer1"
     showgrid="false"
     inkscape:window-width="1600"
     inkscape:window-height="834"
     inkscape:window-x="0"
     inkscape:window-y="27"
     inkscape:window-maximized="1" />
  <metadata
     id="metadata7">
    <rdf:RDF>
      <cc:Work
         rdf:about="">
        <dc:format>image/svg+xml</dc:format>
        <dc:type
           rdf:resource="http://purl.org/dc/dcmitype/StillImage" />
        <dc:title></dc:title>
      </cc:Work>
    </rdf:RDF>
  </metadata>
  <g
     inkscape:label="Layer 1"
     inkscape:groupmode="layer"
     id="layer1"
     transform="translate(-227.39696,316.97952)">
    <g
       id="g3022">
      <path
         style="fill:#d0e8f6"
         d="m 846.21429,758.9426 c -2.2,-0.4915 -6.1236,-0.9197 -8.7191,-0.9514 -8.76967,-0.1071 -25.66879,-6.8463 -37.79807,-15.0736 -11.1727,-7.5784 -21.86956,-20.0985 -26.89927,-31.484 -5.03399,-11.3952 -5.05297,-11.74319 -5.06878,-92.90216 l -0.0148,-75.90218 -5.29347,-5.09782 c -42.23237,-40.67146 -60.65458,-61.72923 -82.58206,-94.39662 -4.65741,-6.93858 -6.67098,-9.16675 -7.93307,-8.7786 -5.16513,1.58853 -20.21851,4.8713 -30.6914,6.69303 -15.20066,2.64411 -52.91814,3.70896 -69.57977,1.96438 -64.9821,-6.80401 -122.96118,-34.65932 -168.03511,-80.73033 -12.74446,-13.02638 -19.04332,-20.49582 -28.75574,-34.09969 l -7.31794,-10.25 -32.15572,-0.0349 c -35.70995,-0.0387 -42.25701,-0.73656 -55.0785,-5.87053 -11.69897,-4.6845 -19.11133,-9.62427 -28.64383,-19.08894 -13.36189,-13.26679 -21.08087,-28.05692 -23.22754,-44.50564 -1.3444,-10.30137 -1.37083,-54.73233 -0.0384,-64.53157 3.51688,-25.86434 20.9041,-48.96928 46.29363,-61.51712 11.67565,-5.77026 20.26807,-7.60145 39.0389,-8.31983 l 16.5,-0.63148 1.16151,-4 c 0.63883,-2.2 2.80037,-9.625 4.80342,-16.5 17.32629,-59.4685 55.37247,-111.88294 107.53508,-148.1461 l 6.5,-4.51876 0,-100.49215 0,-100.49214 2.77628,-3.64316 c 3.18673,-4.18177 8.72948,-6.30439 13.91983,-5.33068 1.86397,0.34969 12.59487,5.87165 23.84646,12.27103 11.25159,6.39938 36.43243,20.72887 55.95743,31.84332 19.525,11.11444 42.475,24.16268 51,28.99609 8.525,4.83341 29.9,16.9877 47.5,27.00954 34.60969,19.70753 53.74521,30.53275 57.16283,32.33777 1.9968,1.05462 3.15692,0.0109 15.11234,-13.59623 43.82024,-49.8742 93.86199,-88.29643 152.72483,-117.26267 47.9223,-23.58243 94.34324,-37.79802 148.50004,-45.47548 15.8922,-2.25294 23.2221,-2.70109 52,-3.17928 60.8322,-1.01081 95.0438,2.74027 143.1913,15.69999 48.8385,13.14568 104.2193,38.58746 144.9299,66.58027 84.5435,58.13263 146.4607,136.1574 182.8346,230.39864 9.752,25.26635 17.5588,52.38056 22.9545,79.72432 2.6351,13.35369 3.0695,14.56477 7.0981,19.78663 8.8428,11.46187 19.8512,19.38562 29.2416,21.04784 4.6955,0.83115 4.7166,0.063 0.185,-6.72151 -5.6097,-8.39864 -13.9901,-26.32123 -17.8885,-38.25675 -10.2137,-31.27099 -10.409,-63.84993 -0.5363,-89.45067 7.8261,-20.29373 23.7956,-35.27805 42.2295,-39.62429 26.8868,-6.3392 57.5373,10.64171 69.1928,38.33409 5.7241,13.59979 7.0498,21.85581 7.011,43.66034 -0.026,14.6461 -0.5047,22.5431 -1.7879,29.5 -3.5216,19.0936 -9.1036,37.47711 -15.869,52.26275 -1.7019,3.71951 -2.7622,7.09451 -2.3561,7.5 1.7011,1.69867 16.0739,0.54972 22.0695,-1.76422 7.4565,-2.87775 17.5837,-12.6886 22.1917,-21.49853 5.9539,-11.38319 10.3083,-29.5729 10.3083,-43.06125 0,-15.42163 3.9959,-23.64753 13.9362,-28.68875 10.4005,-5.27464 22.7109,-2.35151 29.8069,7.07774 l 3.2569,4.32774 -0.013,18.17226 c -0.01,13.92725 -0.4578,20.32698 -1.9167,27.3963 -5.3154,25.75766 -15.1093,45.28986 -30.4843,60.79562 -11.1704,11.26548 -22.0978,17.96056 -37.5859,23.02851 -7.6992,2.5193 -9.8661,2.78254 -23,2.79414 -15.7135,0.0139 -20.7465,-0.91797 -35.3656,-6.5478 l -7.8656,-3.02906 -9.6344,4.54049 c -12.3057,5.79945 -20.3441,7.70734 -32.1983,7.64224 -8.5572,-0.047 -17.3255,-1.70932 -28.5417,-5.41101 -2.0939,-0.69103 -2.1088,-0.55342 -2.6835,24.63396 -2.3421,102.66113 -36.6674,199.91439 -99.8742,282.97179 -9.6262,12.64937 -20.5583,25.5535 -30.507,36.00985 l -6.3297,6.65277 -0.017,90.84723 c -0.019,100.41523 0.1003,98.32303 -6.3954,112.00133 -8.472,17.8395 -24.8623,32.6789 -44.4281,40.2243 -9.8458,3.7969 -13.9485,4.6962 -28.2783,6.1982 -13.4057,1.4051 -29.2208,0.2088 -41.8808,-3.1679 -26.2846,-7.0109 -47.9048,-26.0902 -56.7879,-50.1142 l -2.6973,-7.2945 -0.3169,-34.83416 c -0.2403,-26.40946 -0.6048,-34.7274 -1.5074,-34.39275 -39.1195,14.50426 -82.2321,24.12544 -126.6905,28.27281 -18.1049,1.68894 -62.9018,1.91374 -80.5,0.40397 -31.9679,-2.74257 -73.59071,-10.28708 -96.75004,-17.53683 -1.6287,-0.50984 -1.75,0.91525 -1.75,20.55899 0,11.60874 -0.48388,25.47657 -1.0753,30.81737 -3.16656,28.596 -23.42198,51.653 -55.53433,63.2152 -9.1838,3.3067 -37.82699,5.8061 -45.89037,4.0044 z M 1098.8856,408.27862 c 1.6384,-1.48277 1.8303,-3.48587 1.844,-19.25 0.01,-9.67725 0.4075,-18.21412 0.8868,-18.97082 0.5191,-0.8195 5.4661,-2.13507 12.2347,-3.25356 49.0161,-8.09983 84.0535,-33.36461 100.6582,-72.58262 5.7723,-13.63347 6.7056,-19.10692 6.6987,-39.28801 -0.01,-14.48863 -0.4098,-20.23465 -1.8671,-26.5 -7.3123,-31.43736 -26.007,-53.42954 -59.5328,-70.03326 -14.1775,-7.02143 -32.9289,-13.58586 -49.975,-17.49509 -9.6237,-2.20702 -9.1188,-0.0283 -9.1188,-39.34921 0,-29.20444 0.2238,-34.56326 1.487,-35.61166 2.0493,-1.70075 5.5554,-0.62255 10.6761,3.2831 8.9062,6.79298 15.1088,18.34275 16.4902,30.70612 1.0716,9.59013 -1.6088,9 40.8792,9 31.9459,0 37.3999,-0.21366 38.4735,-1.5072 0.9243,-1.11378 1.0623,-3.91986 0.5284,-10.75 -1.3597,-17.39571 -7.9268,-36.95884 -17.0957,-50.92764 -5.7915,-8.82324 -18.5787,-21.80118 -27.3445,-27.75235 -13.4864,-9.15598 -35.5879,-17.63944 -55.0942,-21.14741 -3.575,-0.64292 -7.0625,-1.87291 -7.75,-2.7333 -0.8778,-1.09853 -1.2546,-6.19738 -1.2653,-17.12323 -0.01,-8.55738 -0.3459,-16.054 -0.75,-16.65917 -1.8308,-2.74192 -5.615,-3.3997 -19.5582,-3.3997 -20.0686,0 -19.0306,-1.08858 -19.6765,20.63707 l -0.5,16.81924 -2.5,0.72088 c -1.375,0.39648 -6.775,1.4608 -12,2.36515 -19.062,3.29928 -41.9177,12.7493 -55.50001,22.94729 -19.88461,14.92988 -32.24653,33.10388 -38.76173,56.98595 -1.89297,6.93885 -2.1896,10.59481 -2.19265,27.02442 -0.004,19.96479 0.70692,24.67265 5.66048,37.5 8.07101,20.90011 23.72509,36.23127 49.65871,48.63428 9.7502,4.66317 34.94,13.41064 46.0732,15.99954 11.1934,2.60286 10.062,-2.60068 10.062,46.27892 0,37.74699 -0.1871,42.99764 -1.5731,44.14793 -1.3266,1.10099 -2.6976,0.74681 -8.75,-2.26041 -17.9282,-8.90794 -27.5339,-23.90535 -29.6068,-46.22548 -0.6326,-6.81133 -1.258,-9.23899 -2.6406,-10.25 -2.6774,-1.95776 -73.21634,-1.93235 -75.89638,0.0273 -1.66526,1.21768 -1.7818,2.30986 -1.17202,10.98465 1.39877,19.89918 10.25229,47.33124 20.76666,64.34415 6.17851,9.99722 21.21242,25.83995 30.37223,32.00623 15.25681,10.2707 34.15651,17.48335 54.68191,20.86812 5.6749,0.93583 11.1056,2.10957 12.0681,2.60831 1.5668,0.81189 1.75,2.76378 1.75,18.64911 0,14.43971 0.2898,18.15601 1.5567,19.96481 1.5024,2.14504 2.1359,2.22251 18.1713,2.22251 14.0567,0 16.8961,-0.25479 18.4433,-1.65499 z m 2.9148,-111.18413 c -0.7221,-1.34928 -1.0861,-13.75707 -1.0861,-37.02371 0,-30.79358 0.1927,-35.18702 1.6054,-36.59969 1.8254,-1.82539 2.3363,-1.71756 14.0381,2.9628 19.6285,7.85074 26.2844,17.13919 25.1334,35.07404 -0.9229,14.38176 -9.3,25.77905 -24.1696,32.88358 -9.644,4.60779 -14.0876,5.38164 -15.5212,2.70298 z m -49.9238,-171.1533 c -17.0713,-6.14158 -24.1691,-15.87614 -22.9202,-31.43488 1.1287,-14.06155 9.6466,-24.55193 23.6562,-29.13424 8.3903,-2.74431 8.1017,-3.83019 8.1017,30.48398 0,21.74921 -0.3206,29.99814 -1.2,30.87756 -1.49,1.48999 -1.2137,1.51865 -7.6377,-0.79242 z m 593.9209,-56.00758 c 5.6976,-17.58093 7.2396,-26.93919 7.3323,-44.5 0.1004,-19.00439 -1.4444,-25.52887 -7.4711,-31.55558 -6.953,-6.95304 -12.314,-5.66984 -17.1356,4.10162 -7.2431,14.67863 -6.0214,43.31989 2.7709,64.95779 2.9903,7.35928 7.1486,15.8634 8.7006,17.7935 1.458,1.81327 2.1081,0.60358 5.8029,-10.79733 z m -707.73984,-190.8439 c 75.47654,-56.41313 176.09604,-64.95803 259.73874,-22.05776 7.6319,3.91439 28.9376,17.31651 35.5464,22.36006 0.8798,0.67141 1.8345,0.22224 3.1884,-1.5 20.2015,-25.69736 30.1357,-38.58432 30.1569,-39.12062 0.046,-1.15696 -21.5065,-16.0029 -32.0847,-22.10096 -8.63,-4.97503 -30.3603,-15.45173 -39.8891,-19.23149 -20.3895,-8.08788 -46.5226,-14.82391 -70.5,-18.17199 -18.3786,-2.56629 -58.8151,-2.5653 -77,0.002 -51.42106,7.25914 -97.70105,25.6811 -137.00001,54.53345 -12.1518,8.92156 -15.5,11.63954 -15.5,12.58251 0,0.34683 5.03684,6.5747 11.19298,13.83971 17.21497,20.31579 21.9319,25.70909 22.48495,25.70909 0.27985,0 4.6293,-3.07976 9.66544,-6.8439 z"
         id="path3010"
         inkscape:connector-curvature="0" />
      <path
         style="fill:#aed7f0"
         d="m 840.39292,757.9507 c -18.423,-2.3379 -36.48907,-11.0812 -50.54072,-24.4598 -7.13184,-6.7902 -10.92711,-11.9016 -15.08942,-20.3223 -5.6918,-11.5149 -5.44911,-7.764 -6.01875,-93.02469 l -0.52974,-79.2897 -6,-5.10722 c -3.3,-2.80897 -13.20867,-12.35361 -22.01927,-21.2103 -23.10196,-23.22282 -38.19967,-41.24783 -56.40882,-67.34594 -5.08188,-7.28357 -9.56658,-13.44483 -9.96598,-13.69167 -0.3994,-0.24685 -5.0112,0.63927 -10.24844,1.96915 -23.16476,5.88216 -33.04931,6.9292 -65.35749,6.92311 -32.87659,-0.006 -41.94829,-1.02443 -67.37469,-7.56238 -60.21103,-15.4822 -114.25563,-51.81243 -150.83501,-101.39535 -4.05758,-5.5 -8.502,-11.4625 -9.87649,-13.25 l -2.49907,-3.25 -32.20737,-0.0349 c -35.72757,-0.0387 -42.31034,-0.73722 -55.06089,-5.84279 -24.78533,-9.92453 -44.52937,-32.42518 -50.58193,-57.64402 -1.71615,-7.15057 -2.55586,-52.7071 -1.20062,-65.13669 3.04776,-27.95254 19.95001,-51.82842 45.81507,-64.71773 12.363,-6.16084 19.68933,-7.73922 39.321,-8.47129 l 17.5,-0.65258 2.71934,-10.5 c 16.80036,-64.87004 55.72022,-120.7172 110.16983,-158.0857 l 7.88918,-5.4143 -0.63671,-99.29468 c -0.62258,-97.09321 -0.59352,-99.37933 1.31095,-103.11239 2.14423,-4.20304 6.97862,-7.09293 11.86549,-7.09293 3.67781,0 7.07204,1.78737 52.03138,27.39925 19.6078,11.16992 45.77554,26.06393 58.15054,33.09779 12.375,7.03385 40.05,22.7767 61.5,34.9841 60.90006,34.65881 66.92324,38.01886 68.152,38.01886 0.6336,0 5.56293,-5.175 10.95406,-11.5 32.64259,-38.29699 75.6006,-74.46969 120.51054,-101.47563 28.1037,-16.89976 67.93431,-35.02794 98.8834,-45.00499 78.72691,-25.37917 167.63171,-30.35712 248.00001,-13.886 163.0871,33.42397 298.2804,148.00256 357.9476,303.36662 10.5773,27.54182 20.1501,61.51361 24.0927,85.5 0.8098,4.92673 2.1557,8.5455 4.5441,12.21809 4.5255,6.95836 13.3737,15.53904 19.8369,19.23687 5.9792,3.42096 15.1306,5.8937 16.5507,4.47209 0.5683,-0.56892 -0.84,-3.63123 -3.6455,-7.92705 -2.5144,-3.85 -6.7334,-11.5 -9.3756,-17 -28.456,-59.23408 -18.6421,-125.29704 21.5491,-145.0603 15.5424,-7.64268 31.6314,-7.09409 49.4419,1.68583 16.5626,8.16472 28.1784,23.5307 33.7533,44.65064 3.4724,13.15458 4.2933,36.46203 1.8753,53.24677 -3.0212,20.97242 -8.7371,41.33572 -16.2585,57.92229 -1.8569,4.09487 -3.1687,7.98574 -2.9152,8.64637 0.6985,1.82043 9.4134,2.62196 15.6032,1.43506 20.6169,-3.95332 34.2813,-22.09319 39.4777,-52.40765 0.8373,-4.88454 1.5248,-12.30954 1.5279,-16.5 0,-4.19046 0.5029,-9.41034 1.1107,-11.59975 4.8275,-17.38886 25.9648,-23.28435 38.5085,-10.74059 6.1578,6.15777 6.7268,8.71908 6.0356,27.1681 -0.3411,9.10427 -1.08,18.80323 -1.642,21.55323 -4.4091,21.5759 -13.5742,42.6742 -24.3428,56.03785 -11.3559,14.09255 -26.2527,24.33904 -43.6756,30.04142 -7.7002,2.5202 -9.8644,2.78316 -23,2.79455 -15.7718,0.0137 -20.9222,-0.95187 -35.2859,-6.61507 l -7.7859,-3.06976 -9.7141,4.57872 c -5.3428,2.5183 -12.6679,5.28828 -16.278,6.15551 -9.9143,2.38161 -23.5815,1.98344 -34.4361,-1.00324 -4.95,-1.36201 -9.9511,-2.72941 -11.1135,-3.03866 -2.101,-0.55896 -2.1168,-0.40939 -2.6735,25.2782 -0.588,27.13142 -2.0198,42.67973 -6.2934,68.34048 -11.0112,66.11638 -35.7676,129.11424 -72.9731,185.69568 -15.5326,23.62152 -34.4665,47.78372 -52.0949,66.48008 l -5.3516,5.67577 -0.017,90.82423 c -0.019,101.39453 0.1531,98.58334 -6.9199,112.82423 -9.8982,19.9294 -28.4771,34.4664 -53.9344,42.2007 -8.0758,2.4536 -9.9089,2.6214 -28.6283,2.6214 -18.8601,0 -20.5129,-0.1543 -29,-2.7078 -28.5664,-8.5946 -48.4356,-25.8739 -57.2871,-49.8198 l -2.6964,-7.29449 -0.3157,-34.5 c -0.1736,-18.975 -0.6484,-34.83608 -1.055,-35.24684 -0.4067,-0.41077 -4.6562,0.6191 -9.4432,2.28858 -71.8797,25.06804 -146.5361,32.88542 -223.2026,23.37184 -16.9127,-2.0987 -41.36941,-6.82453 -59.30154,-11.45899 -8.41625,-2.17502 -15.50375,-3.95459 -15.7504,-3.95459 -0.24666,0 -0.44847,10.24931 -0.44847,22.77623 0,33.95447 -1.8632,44.04686 -10.74892,58.22376 -10.16046,16.2107 -30.97478,30.7027 -51.75108,36.0316 -9.16899,2.3518 -33.45674,3.4277 -44.82137,1.9855 z M 1099.7143,408.93361 c 1.8508,-1.85084 2,-3.33333 2,-19.87756 0,-13.12165 0.3325,-18.13379 1.25,-18.84078 0.6875,-0.52978 6.1165,-1.73588 12.0644,-2.68022 37.8752,-6.01339 68.8755,-23.87693 87.9294,-50.66826 6.3448,-8.92124 12.1636,-20.53039 16.0058,-31.93318 3.1621,-9.3846 3.2013,-9.73688 3.2257,-29 0.02,-15.54327 -0.3527,-21.12327 -1.8354,-27.5 -9.8854,-42.5145 -41.7511,-69.65235 -100.8828,-85.91501 -8.8166,-2.42477 -16.4118,-5.01084 -16.8783,-5.74683 -1.1259,-1.77627 -1.0982,-67.94338 0.029,-69.72351 1.2307,-1.94329 4.6419,-0.81669 10.3942,3.43291 7.9126,5.8454 14.0358,17.53353 15.3095,29.22309 0.3434,3.15114 1.2566,6.74185 2.0294,7.97935 l 1.405,2.25 37.6482,0 c 42.5661,0 41.3108,0.22508 41.2998,-7.40499 -0.017,-11.85044 -5.6337,-34.92394 -11.2205,-46.09501 -7.0464,-14.08921 -21.4439,-30.55226 -34.2736,-39.19048 -13.9424,-9.3875 -31.4877,-16.40803 -50.9758,-20.39732 -5.4867,-1.12316 -10.5492,-2.51797 -11.25,-3.09959 -0.9337,-0.77489 -1.2742,-5.27107 -1.2742,-16.82427 0,-21.32218 0.8234,-20.37443 -18.1043,-20.83862 -15.0858,-0.36997 -21.0739,0.58954 -22.5256,3.60942 -0.4602,0.95747 -1.0693,8.89313 -1.3535,17.63479 -0.4146,12.75443 -0.8129,16.04421 -2.0166,16.6547 -0.825,0.41842 -6,1.5235 -11.5,2.45572 -39.1841,6.6415 -73.05123,29.71192 -87.96609,59.92276 -7.06234,14.30514 -9.61403,25.16349 -10.23956,43.57289 -1.01954,30.00549 5.66494,50.0459 22.8199,68.41527 8.27133,8.85686 18.33805,15.85956 32.64525,22.70895 10.557,5.05407 35.625,13.823 47.2318,16.52194 3.5702,0.83019 7.0577,1.97953 7.75,2.55408 1.9555,1.62296 1.8222,85.64629 -0.1371,86.39814 -2.023,0.77632 -12.599,-4.83918 -18.2482,-9.6892 -10.8059,-9.27722 -16.8112,-21.81866 -18.3901,-38.40563 -1.2826,-13.47408 1.9273,-12.50355 -41.35419,-12.50355 -41.84522,0 -40.61172,-0.24648 -40.61172,8.11515 0,16.65312 8.36642,46.9272 17.63916,63.82766 8.035,14.64458 21.97024,30.07233 35.23068,39.00401 14.54427,9.7964 34.42027,17.29575 54.82317,20.68513 5.3938,0.89604 10.3695,2.07551 11.057,2.62105 0.9133,0.72473 1.25,5.6361 1.25,18.23459 0,15.92977 0.1578,17.44332 2.0726,19.87755 l 2.0725,2.63486 16.9275,0 c 15.5941,0 17.0849,-0.15754 18.9274,-2 z m 2.607,-112.58179 c -0.3339,-0.86998 -0.607,-17.23988 -0.607,-36.37755 0,-29.08138 0.2367,-34.99223 1.4414,-35.99206 1.1487,-0.95329 3.3323,-0.44323 10.75,2.51106 21.463,8.54816 27.7622,16.77293 26.5997,34.73082 -1.022,15.78633 -10.4863,27.45638 -27.7307,34.19363 -7.4871,2.92512 -9.6164,3.11539 -10.4534,0.9341 z m -50.6759,-171.52086 c -14.1895,-4.9663 -21.9311,-14.28366 -21.9311,-26.39516 0,-7.98602 2.2489,-15.35874 6.3166,-20.70806 4.9656,-6.5302 18.1391,-13.7077 22.258,-12.12713 2.0339,0.78049 2.1377,59.84569 0.1065,60.62513 -0.7254,0.27835 -3.7629,-0.34929 -6.75,-1.39478 z m 593.4557,-49.68524 c 9.4045,-26.38594 12.2021,-57.05111 6.6466,-72.85741 -3.5834,-10.19548 -11.8514,-16.05154 -18.1003,-12.82011 -3.7171,1.92219 -8.5256,11.94271 -10.0376,20.91742 -2.4057,14.27971 0.2402,35.9071 6.3062,51.54799 2.458,6.33769 8.5385,18.89075 10.0716,20.79238 1.4463,1.79392 2.1375,0.76925 5.1135,-7.58027 z M 935.2895,-117.70977 c 19.33936,-15.15665 48.76095,-30.89262 72.4248,-38.73599 74.5509,-24.70988 157.3217,-12.45336 219.2712,32.46922 3.7242,2.70058 7.1502,4.91015 7.6132,4.91015 0.9072,0 31.9197,-39.32589 32.7795,-41.56662 0.9247,-2.40953 -22.8758,-18.57119 -43.6639,-29.64998 -61.0983,-32.56157 -138.0575,-42.17878 -206.5463,-25.81105 -25.09168,5.9965 -41.55571,11.95214 -65.07623,23.54041 -22.90047,11.28279 -59.0073,35.54745 -58.16106,39.08564 0.45883,1.91843 33.18064,40.38976 34.35879,40.39595 0.59136,0.003 3.74136,-2.08387 7,-4.63773 z"
         id="path3008"
         inkscape:connector-curvature="0" />
      <path
         style="fill:#8fc8eb"
         d="m 846.21429,758.2774 c -15.95872,-1.2765 -34.18631,-8.0879 -47,-17.5631 -11.60506,-8.5816 -19.14092,-17.5149 -24.58035,-29.1387 -5.8477,-12.49629 -5.88329,-13.07039 -5.90229,-95.21387 l -0.0174,-75.07188 -14.75,-13.92812 c -28.97604,-27.36147 -50.05231,-51.8289 -71.64973,-83.17812 -4.26275,-6.1875 -8.363,-11.25 -9.11166,-11.25 -0.74866,0 -6.00237,1.12759 -11.6749,2.50575 -20.9603,5.09237 -36.3705,6.80307 -61.81371,6.86202 -23.95123,0.0555 -34.02148,-0.78522 -53.20087,-4.44145 -41.05848,-7.82712 -84.64516,-28.01753 -117.79913,-54.56742 -18.71998,-14.99107 -39.0631,-36.7172 -53.28464,-56.90717 l -6.30548,-8.95173 -34.95494,-0.59768 c -31.60208,-0.54036 -35.7223,-0.80566 -42.95494,-2.7659 -30.854,-8.36227 -54.02887,-31.87169 -61.03871,-61.91985 -2.28771,-9.80643 -2.28418,-63.14261 0.005,-72.33474 7.30803,-29.34784 28.51057,-52.00895 56.84129,-60.75152 7.4571,-2.30118 23.56319,-4.12817 36.40408,-4.12947 l 8.21145,-8.4e-4 1.1099,-4.25 c 7.65256,-29.30305 12.87498,-43.55184 23.57997,-64.33525 20.71862,-40.22459 52.14143,-75.82423 88.88722,-100.70243 3.3,-2.23421 6.31899,-4.5426 6.70888,-5.12974 0.38988,-0.58715 0.43098,-45.62092 0.0913,-100.07506 -0.68616,-110.01006 -1.04305,-103.52066 5.89038,-107.10608 6.40709,-3.31323 9.40349,-2.36533 30.59502,9.67861 37.85319,21.5134 70.92553,40.31807 99.21439,56.41253 15.675,8.91802 42.225,24.00952 59,33.53667 16.775,9.52714 36.27858,20.61803 43.34128,24.64642 7.0627,4.02838 13.5877,7.29765 14.5,7.26505 0.9123,-0.0326 4.80872,-3.93771 8.65872,-8.67799 9.90764,-12.19872 44.85624,-47.10287 58.5,-58.4256 32.1994,-26.72172 62.76864,-46.66427 98.50003,-64.25876 67.92214,-33.44553 139.61795,-50.0684 215.50005,-49.96426 44.9927,0.0617 85.1517,5.36383 128,16.89944 56.9686,15.33711 115.2079,43.88245 163.9942,80.37996 33.4994,25.06115 70.8,62.35963 96.612,96.60649 44.8155,59.46028 75.6303,128.77787 89.3537,201 1.7175,9.03865 2.7312,11.93573 5.6855,16.24792 5.2252,7.62707 15.768,17.05944 22.7704,20.37217 6.4346,3.0441 14.6027,3.95829 14.5628,1.62991 -0.012,-0.6875 -2.0732,-4.4 -4.5809,-8.25 -10.1494,-15.58193 -19.2894,-39.0309 -22.9971,-59 -2.2997,-12.38584 -2.5687,-37.63395 -0.5113,-48 7.1114,-35.8314 29.2634,-58.5 57.1668,-58.5 10.6511,0 16.9041,1.44623 26.9439,6.23174 6.7304,3.20805 10.0706,5.63557 16.044,11.65991 12.3239,12.42902 18.7518,27.83275 21.1283,50.63193 2.7185,26.07966 -4.1887,63.25412 -17.2757,92.97767 -2.3083,5.24252 -3.8657,9.86191 -3.4611,10.2653 0.4047,0.4034 5.0847,0.73345 10.4001,0.73345 8.3928,0 10.4168,-0.35263 15.3825,-2.68006 19.1014,-8.95282 30.4966,-32.0721 32.3989,-65.73298 0.5922,-10.47884 1.0948,-13.14792 3.291,-17.47727 8.2501,-16.26353 30.9281,-16.03552 39.4367,0.3965 2.8113,5.42908 2.8381,5.64697 2.274,18.49381 -1.0558,24.04737 -5.2502,41.89473 -14.1006,60 -11.8072,24.15396 -30.9291,41.48251 -54.1877,49.10574 -8.2494,2.70382 -9.8832,2.89426 -24.8304,2.89426 -17.1916,0 -23.126,-1.16455 -36.7241,-7.2065 l -5.724,-2.54335 -7.8326,4.07492 c -12.0397,6.26376 -21.5667,8.60046 -34.7193,8.51562 -10.6857,-0.0689 -14.0644,-0.74911 -29.5887,-5.95667 -1.4078,-0.47223 -1.6617,2.00959 -2.2301,21.79153 -1.7243,60.01957 -11.4395,110.89291 -31.1504,163.11894 -22.4239,59.41439 -55.6198,112.82437 -99.7648,160.51491 l -6.766,7.30939 0,91.89139 c 0,62.41628 -0.3497,93.59112 -1.0901,97.19062 -1.4846,7.21689 -7.843,20.08599 -13.3507,27.02099 -13.4401,16.923 -37.5762,29.3458 -61.9366,31.8785 -37.8137,3.9315 -73.6174,-11.1679 -91.0313,-38.3902 -9.103,-14.2301 -10.5113,-22.40749 -10.5564,-61.29342 -0.019,-16.54584 -0.2869,-30.33532 -0.5949,-30.6433 -0.3079,-0.30798 -4.2454,0.75536 -8.75,2.36298 -49.7232,17.74567 -108.5642,27.85198 -162.19,27.85716 -40.7091,0.004 -86.94637,-6.10506 -125.00005,-16.51531 -6.6,-1.80555 -12.3375,-3.07522 -12.75,-2.82149 -0.4125,0.25373 -0.75781,12.24727 -0.76736,26.65231 -0.0192,29.00648 -0.85149,35.53967 -5.90229,46.33297 -3.79946,8.1193 -7.85096,13.9686 -13.81023,19.9385 -20.22053,20.2566 -47.81352,29.3995 -80.77012,26.7633 z m 253.19421,-348.75487 2.8058,-2.41109 0.5,-18.33891 0.5,-18.33892 3.5,-0.72984 c 1.925,-0.40142 8.2693,-1.62988 14.0984,-2.72992 28.2813,-5.33711 52.0166,-17.30558 70.1873,-35.39175 14.1194,-14.05366 23.5047,-29.91138 29.3843,-49.64849 2.6212,-8.79921 2.8266,-10.71717 2.7836,-26 -0.05,-17.75139 -1.4996,-27.44343 -6.0551,-40.48308 -7.482,-21.41669 -24.5982,-40.50511 -48.5188,-54.10962 -15.0944,-8.58475 -29.3924,-13.96584 -58.8797,-22.15961 l -6.5,-1.80619 -0.2628,-35.22075 c -0.2599,-34.82894 -0.2402,-35.22075 1.7699,-35.22075 2.8075,0 8.9411,4.03804 12.787,8.41835 5.9212,6.74378 9.1845,14.91758 10.7207,26.85272 0.3832,2.97777 1.4125,5.5149 2.7382,6.75 2.0369,1.89769 3.6372,1.97893 38.981,1.97893 l 36.8569,0 2.4545,-2.45455 c 2.8527,-2.85267 2.8492,-2.79541 1.0145,-16.54545 -5.3308,-39.95165 -27.7684,-69.84344 -64.5599,-86.00804 -8.7091,-3.82641 -24.2339,-8.4618 -33.8194,-10.0978 -3.6744,-0.62711 -7.2431,-1.58994 -7.9306,-2.13962 -0.8996,-0.71922 -1.25,-5.18457 -1.25,-15.92664 0,-15.49226 -0.9272,-19.8185 -4.5448,-21.20672 -0.8903,-0.34165 -8.8655,-0.62118 -17.7226,-0.62118 -21.774,0 -20.7326,-1.00719 -20.7326,20.05187 0,11.95187 -0.3221,15.97051 -1.3481,16.82203 -0.7414,0.61534 -5.3539,1.80678 -10.25,2.64764 -44.8271,7.69876 -79.21686,32.4571 -93.3612,67.2138 -5.6375,13.85294 -7.43042,24.12549 -7.37668,42.26466 0.0429,14.49116 0.36538,17.69356 2.64842,26.30356 9.97043,37.60137 35.06548,57.93584 91.68756,74.29423 8.8609,2.55995 16.0354,5.18615 16.75,6.13124 0.9513,1.25815 1.25,11.14703 1.25,41.38031 0,21.8499 -0.2732,40.43889 -0.607,41.30887 -0.8851,2.30662 -2.8764,1.9696 -9.753,-1.65068 -11.8277,-6.2268 -21.6713,-18.79327 -25.276,-32.26753 -0.7356,-2.75 -1.636,-8.521 -2.0008,-12.82444 -1.1079,-13.07115 1.8566,-12.12335 -39.02391,-12.47664 -19.16161,-0.16559 -36.30521,-0.0321 -38.09687,0.29674 -1.94737,0.35737 -3.9319,1.62697 -4.93418,3.15664 -1.50916,2.30327 -1.5518,3.57205 -0.42695,12.70327 1.53198,12.43619 6.12778,31.08129 10.21078,41.42501 16.51072,41.82767 48.85962,66.97167 96.83843,75.27014 6.2868,1.08737 11.6868,2.23215 12,2.54396 0.3132,0.31181 0.7115,8.73255 0.8851,18.71276 0.2046,11.75812 0.7204,18.63346 1.4653,19.53106 2.1357,2.57329 5.1748,3.03454 20.4133,3.09811 14.66,0.0612 15.2929,-0.0214 18,-2.34769 z m 3.3058,-148.48864 c 0,-29.4094 0.2517,-36.25965 1.3479,-36.6803 2.9618,-1.13654 22.2371,7.52076 27.9889,12.57088 7.8632,6.90399 10.4277,22.86045 5.6794,35.33677 -4.1267,10.8426 -19.4195,22.84375 -31.1069,24.41136 l -3.9093,0.52435 0,-36.16306 z m -52.2326,-137.13125 c -14.2807,-5.79949 -19.8754,-13.03303 -20.0433,-25.91485 -0.172,-13.19397 6.2465,-23.75972 17.7355,-29.19499 6.8056,-3.21962 10.043,-3.59785 10.9334,-1.2774 0.3338,0.86998 0.607,13.65818 0.607,28.41821 0,14.76003 -0.2732,27.54823 -0.607,28.41821 -0.7801,2.03279 -2.7689,1.92921 -8.6256,-0.44918 z m 594.4876,-46.71903 c 12.7316,-34.55844 13.6519,-73.56879 1.9921,-84.44348 -6.4312,-5.99821 -11.6007,-6.44567 -16.041,-1.38848 -9.5066,10.82739 -11.5648,37.35563 -4.725,60.89956 3.9084,13.45341 12.4928,31.6824 14.9199,31.6824 0.7757,0 2.4432,-2.92033 3.854,-6.75 z m -706.32064,-196.6527 c 59.69977,-44.43006 133.95614,-59.55063 206.06564,-41.96045 28.5396,6.96186 62.5548,22.95114 84.5435,39.74079 2.7961,2.13497 5.2076,3.29044 5.9576,2.85459 2.4244,-1.40884 32.4989,-40.62115 32.4989,-42.37326 0,-1.09975 -3.688,-4.37466 -9.75,-8.65793 -70.4207,-49.75762 -156.987,-66.29137 -242.75,-46.36414 -30.48295,7.08278 -68.15565,23.42461 -94.50001,40.99262 -13.22856,8.8216 -27.2074,19.43887 -27.79789,21.11318 -0.41101,1.16539 34.10004,42.0573 35.49459,42.0573 0.15994,0 4.76689,-3.33122 10.23767,-7.4027 z"
         id="path3006"
         inkscape:connector-curvature="0" />
      <path
         style="fill:#6cb7e6"
         d="m 836.71429,756.4086 c -27.88853,-5.737 -50.44244,-22.0008 -60.98256,-43.975 -2.11049,-4.4 -4.3278,-10.3846 -4.92735,-13.29919 -0.73027,-3.5501 -1.09009,-30.1772 -1.09009,-80.66823 0,-41.45295 -0.25096,-76.02299 -0.55769,-76.82232 -0.30673,-0.79932 -6.98059,-7.35739 -14.8308,-14.57347 -26.43104,-24.29601 -52.81545,-55.15471 -73.51836,-85.98571 -5.27154,-7.85044 -6.62362,-9.2681 -8.43546,-8.84462 -1.18673,0.27737 -7.17062,1.67545 -13.29754,3.10684 -19.25292,4.49795 -29.87385,5.74963 -53.50059,6.3051 -35.79443,0.84153 -60.56672,-2.70034 -92.4964,-13.22486 -55.67944,-18.35281 -106.23304,-56.37875 -138.47541,-104.15988 -3.02367,-4.48088 -5.79205,-7.4971 -7.15896,-7.79986 -1.22583,-0.27152 -17.75379,-0.65039 -36.72879,-0.84192 -39.45424,-0.39826 -41.69289,-0.76228 -58.48679,-9.5105 -7.16182,-3.73071 -10.92629,-6.61057 -18.53749,-14.18137 -9.91681,-9.86416 -14.89168,-17.1338 -19.34782,-28.2724 -4.88772,-12.21736 -5.6279,-18.55201 -5.6279,-48.16475 0,-25.68997 0.14515,-27.87863 2.45214,-36.97304 7.73426,-30.48933 32.56205,-54.4141 62.9836,-60.69277 6.23315,-1.28646 13.32066,-1.87487 22.69181,-1.8839 9.68062,-0.009 13.92141,-0.37518 14.64214,-1.26314 0.55801,-0.6875 2.41547,-6.52372 4.12767,-12.96938 16.63109,-62.60826 54.91797,-117.30725 108.10264,-154.44206 l 8.5,-5.93491 0,-100.49207 c 0,-94.22612 0.1097,-100.65974 1.75942,-103.18102 2.48415,-3.79655 7.30821,-6.05189 11.68814,-5.46442 3.45853,0.46389 16.43496,7.61663 92.05244,50.74024 15.675,8.93924 36.6,20.84585 46.5,26.45915 9.9,5.61329 36.3516,20.62989 58.78134,33.37023 22.42973,12.74033 41.17732,23.16424 41.66131,23.16424 0.48398,0 4.63021,-4.3875 9.21384,-9.75 56.4923,-66.09176 126.59532,-114.78008 207.10951,-143.8428 72.35942,-26.11915 154.22921,-34.54372 231.23401,-23.79446 53.3481,7.44697 100.2144,21.82984 148,45.4199 122.0046,60.22943 212.8411,167.78001 251.5005,297.77743 4.6349,15.58537 10.9418,41.90349 12.5069,52.18993 2.0876,13.72049 22.6624,32.60912 37.7229,34.6313 6.6469,0.89249 6.9979,-0.93236 1.6846,-8.75656 -15.6027,-22.97603 -25.959,-56.92675 -26.0427,-85.37474 -0.1083,-36.85775 13.2464,-64.53917 36.8565,-76.39539 19.2973,-9.69046 46.2884,-4.42533 63.4949,12.38584 10.1698,9.93622 16.1915,21.98613 19.8315,39.68464 1.8257,8.8767 2.0595,12.7094 1.6672,27.32491 -0.7196,26.80698 -5.9325,50.32428 -16.6726,75.21495 -5.8641,13.5905 -5.7556,13.82454 6.354,13.70538 28.0379,-0.27591 45.9976,-25.43999 48.4698,-67.91328 0.6505,-11.17537 1.2422,-14.84081 2.9271,-18.13126 8.3855,-16.37686 31.017,-16.41467 39.3576,-0.0658 1.7655,3.46064 2.0527,5.7493 1.9499,15.53772 -0.4019,38.27898 -13.0384,70.89051 -35.6737,92.0647 -24.3973,22.82251 -58.2228,29.0751 -89.5296,16.54944 -4.759,-1.90404 -9.1801,-3.46189 -9.8246,-3.46189 -0.6445,0 -5.3137,1.98704 -10.376,4.41565 -5.0623,2.4286 -12.443,5.1286 -16.4016,6 -13.3331,2.93499 -30.3589,1.48971 -42.1892,-3.58137 -2.4437,-1.0475 -4.7692,-1.55124 -5.1677,-1.11941 -0.3985,0.43182 -0.9665,12.26013 -1.2622,26.28513 -0.9234,43.79044 -6.4016,80.3863 -18.188,121.5 -8.5614,29.86409 -17.0385,51.65639 -31.5086,81 -21.8789,44.36752 -46.2599,79.71011 -81.4022,118 l -5.5067,6 -0.039,90.68462 c -0.044,101.40121 0.1127,98.87408 -7.0165,113.41611 -9.1942,18.754 -30.3138,34.8698 -54.5225,41.6046 -7.0257,1.9545 -10.3749,2.2237 -27.5,2.2104 -18.3436,-0.014 -20.0212,-0.1757 -28.2883,-2.7221 -16.9192,-5.2115 -30.2132,-13.2153 -41.2124,-24.8124 -8.1879,-8.6329 -13.7152,-18.4956 -16.5273,-29.4907 -1.7627,-6.89213 -1.972,-11.13653 -1.972,-39.99148 0,-21.15639 -0.3565,-32.50131 -1.0343,-32.92027 -0.5689,-0.35159 -9.2314,2.06387 -19.25,5.36769 -50.4267,16.6291 -99.2462,24.45609 -152.2157,24.40396 -41.6797,-0.041 -83.0844,-5.28231 -121.07135,-15.32604 -17.19463,-4.54626 -17.03433,-4.53032 -17.7741,-1.76721 -0.34499,1.28855 -0.63874,14.26782 -0.65277,28.84282 -0.0283,29.3919 -0.47817,32.51183 -6.41634,44.50003 -10.76381,21.7304 -35.09235,38.504 -63.01911,43.4493 -8.12177,1.4382 -31.63969,1.1562 -39.56634,-0.4743 z M 1099.8535,410.02446 c 2.2876,-1.84995 2.3763,-2.47459 2.8608,-20.14351 0.4072,-14.8511 0.7783,-18.3751 2,-18.9929 0.825,-0.4172 7.575,-1.91101 15,-3.31958 21.9205,-4.15847 37.2404,-10.06521 53.2576,-20.53404 9.1544,-5.98335 22.8979,-18.89346 29.881,-28.06915 7.0701,-9.28999 15.2422,-26.54728 18.4283,-38.91548 2.538,-9.85228 2.6493,-11.28557 2.1747,-28 -0.4176,-14.70431 -0.9314,-19.25735 -3.1086,-27.54481 -10.7151,-40.78606 -43.6309,-67.79188 -101.4051,-83.19809 -7.5504,-2.01339 -14.2904,-4.10114 -14.9779,-4.63944 -1.9518,-1.52824 -1.8,-68.58556 0.1569,-69.33652 3.3732,-1.29438 14.5347,8.6476 18.5545,16.52711 2.4971,4.89467 5.0386,14.34214 5.0386,18.7299 0,1.9763 0.9382,4.32536 2.4123,6.0399 l 2.4122,2.80576 34.3378,0.30735 c 18.8857,0.16905 35.8253,0.0315 37.6435,-0.30577 7.4795,-1.38725 8.5265,-5.73697 5.65,-23.47411 -7.8857,-48.62472 -41.0615,-80.63029 -95.4558,-92.08859 -5.775,-1.21651 -10.8306,-2.71293 -11.2347,-3.32536 -0.4041,-0.61244 -0.7416,-8.12258 -0.75,-16.68921 -0.015,-15.44393 -0.037,-15.59619 -2.597,-18 -2.5233,-2.3695 -2.9662,-2.42431 -19.5872,-2.42431 l -17.0054,0 -2.4129,2.80576 c -2.332,2.71175 -2.4128,3.33941 -2.4128,18.73095 0,15.70399 -0.031,15.93195 -2.25,16.41237 -1.2375,0.26795 -6.2837,1.20906 -11.2137,2.09134 -38.4452,6.88018 -70.72134,28.38913 -86.48754,57.63556 -4.9738,9.22645 -9.54488,23.12627 -11.0977,33.74609 -1.76647,12.08091 -0.78674,34.48097 1.96757,44.98566 9.47856,36.15043 35.53483,57.6197 89.08137,73.39928 4.675,1.37767 11.0875,3.23476 14.25,4.12686 l 5.75,1.622 0,41.91305 c 0,23.05217 -0.3762,42.14553 -0.8359,42.42967 -2.003,1.23789 -13.6348,-5.68413 -19.6358,-11.68506 -9.7513,-9.75138 -14.0466,-19.59046 -15.4991,-35.50409 -0.606,-6.63826 -1.2173,-8.78071 -3.0673,-10.75 l -2.3105,-2.45944 -37.15141,0 -37.15137,0 -2.0253,2.25 c -1.11392,1.2375 -2.27212,2.9564 -2.57377,3.81977 -1.02405,2.93093 3.28266,27.92019 6.84233,39.70196 6.7159,22.22825 16.02875,38.65897 29.90811,52.76706 18.03282,18.32999 40.24971,29.3126 70.46781,34.83484 l 12.5322,2.2902 0.5,18.75863 c 0.6454,24.21486 -0.95,22.57754 22,22.57754 15.0213,0 17.0257,-0.19994 19.1392,-1.90915 z m 3.5275,-113.75752 c -1.209,-1.20899 -0.7782,-69.82181 0.446,-71.04608 2.0544,-2.0544 20.7953,6.05901 27.4093,11.86621 6.3701,5.59301 7.9832,9.92896 7.9415,21.34654 -0.029,8.05081 -0.4543,10.91021 -2.18,14.66967 -4.2521,9.26303 -13.2647,17.03088 -24.796,21.37125 -7.0499,2.65359 -7.806,2.80723 -8.8208,1.79241 z m -52.1667,-172.6653 c -10.1524,-3.99266 -17.555,-10.60243 -19.4279,-17.34725 -1.519,-5.47036 -1.319,-13.12645 0.5033,-19.26273 2.6949,-9.07458 14.3348,-19.31245 23.0183,-20.2457 l 2.9063,-0.31235 0.2651,29.25 0.2651,29.25 -2.2651,-0.0761 c -1.2458,-0.0418 -3.6151,-0.60699 -5.2651,-1.25589 z m 594.3021,-46.4645 c 7.0525,-18.46845 10.9026,-41.34545 9.8798,-58.70353 -0.6946,-11.78739 -2.5664,-18.66007 -6.5979,-24.22533 -3.615,-4.99039 -10.7741,-8.19251 -14.5104,-6.49017 -3.5029,1.59602 -7.1087,6.88212 -9.6968,14.2155 -1.991,5.64139 -2.2995,8.48141 -2.3354,21.5 -0.047,17.13806 1.4425,25.43487 7.1827,40 4.1858,10.62121 10.2078,21.5 11.9014,21.5 0.6597,0 2.5392,-3.50841 4.1766,-7.79647 z M 936.0725,-116.92228 c 41.07453,-32.47479 95.5421,-51.15139 149.1418,-51.13986 50.1671,0.0108 96.1269,14.2604 137.9491,42.7704 8.3547,5.69539 11.3166,7.23397 12.5,6.49332 2.5216,-1.57812 32.9251,-40.62218 32.9908,-42.36653 0.073,-1.93341 -15.1561,-12.99382 -30.7419,-22.32729 -71.0308,-42.53633 -160.1849,-53.07854 -240.55184,-28.44457 -31.63797,9.69763 -65.15798,26.72423 -91.66098,46.55949 -12.40944,9.28742 -13.781,10.80698 -12.13433,13.44373 3.28473,5.25968 33.55453,39.8672 34.87023,39.8672 0.82243,0 4.25913,-2.18515 7.63712,-4.85589 z"
         id="path3004"
         inkscape:connector-curvature="0" />
      <path
         style="fill:#51aae1"
         d="m 838.41255,756.3441 c -18.28302,-3.3045 -35.50296,-12.1986 -48.21115,-24.9012 -8.7135,-8.7096 -14.29903,-17.3646 -17.7533,-27.5093 -2.19176,-6.43689 -2.2182,-7.26439 -2.72353,-85.21468 l -0.51028,-78.7147 -7.5,-6.67548 C 749.16186,522.15626 724.79828,497.122 714.12611,484.43056 703.46289,471.74975 689.8604,453.71013 680.71429,440.1198 c -3.52759,-5.2417 -6.15749,-8.17498 -7.33339,-8.17936 -1.00836,-0.004 -5.28336,0.87067 -9.5,1.94317 -43.95106,11.17894 -94.2109,10.43432 -138.47932,-2.05161 -60.55764,-17.08031 -114.9731,-55.88783 -149.89169,-106.89839 -2.82371,-4.125 -5.31933,-7.725 -5.54582,-8 -0.22649,-0.275 -16.23784,-0.77107 -35.58079,-1.10237 -31.62396,-0.54165 -35.97539,-0.81826 -43.16899,-2.74416 -27.71236,-7.41923 -49.25253,-27.60655 -58.32523,-54.66204 -3.59669,-10.72559 -4.40809,-20.63558 -3.9011,-47.64567 0.40422,-21.53476 0.78465,-26.45273 2.53016,-32.70785 6.5328,-23.41072 22.35368,-42.73068 43.50155,-53.12276 12.04242,-5.91765 20.84159,-7.80205 40.26115,-8.62218 19.08197,-0.80588 17.05515,0.47695 20.37042,-12.89297 14.74798,-59.47603 50.75574,-112.91307 101.50468,-150.6372 6.6321,-4.92996 13.03721,-9.77687 14.23358,-10.7709 l 2.17521,-1.80733 -0.58328,-100.08421 -0.58328,-100.08422 3.55807,-3.55807 c 3.05559,-3.05559 4.21373,-3.55807 8.20077,-3.55807 5.2149,0 -8.91325,-7.78347 151.41571,83.41784 48.04712,27.33107 88.17535,49.55544 89.17383,49.3875 0.99849,-0.16793 5.26884,-4.35534 9.48967,-9.30534 52.84741,-61.97706 119.00676,-109.30426 193.97809,-138.76257 43.00058,-16.89611 90.76046,-27.93328 137.56831,-31.79162 18.8097,-1.55048 61.6671,-1.56947 79.4317,-0.0352 62.9604,5.43765 123.255,22.40771 178.2619,50.17225 114.2587,57.67163 200.8252,156.95972 241.8724,277.41715 7.5663,22.20415 14.4754,48.37743 17.9357,67.94431 1.0599,5.99383 2.3074,9.30832 5.0811,13.5 8.6804,13.11823 24.3322,24.05569 34.4242,24.05569 2.6437,0 5.0801,-0.44245 5.4143,-0.98323 0.3343,-0.54077 -1.2147,-3.66679 -3.442,-6.9467 -5.4473,-8.02141 -14.1466,-25.64456 -17.8054,-36.07007 -17.8745,-50.93265 -8.6974,-102.50397 21.8733,-122.91828 13.0766,-8.73223 30.0037,-10.62381 45.8172,-5.11999 9.8223,3.41857 20.3693,10.2745 26.3845,17.15076 24.7976,28.34745 24.44,86.59006 -0.8823,143.66285 -3.4716,7.82465 -2.9039,8.56112 6.9849,9.06048 29.0668,1.4678 48.6066,-25.15816 51.0963,-69.62633 0.7884,-14.08263 3.1808,-20.34147 9.4311,-24.67289 11.7475,-8.14105 26.9584,-3.61026 32.5021,9.68128 3.9734,9.52638 0.012,42.86188 -7.6397,64.28212 -9.1075,25.49712 -28.3478,47.32985 -50.2432,57.01304 -11.8283,5.23105 -20.55,6.74455 -35.9721,6.24232 -14.8374,-0.4832 -21.255,-1.90067 -33.8231,-7.4706 l -5.7289,-2.5389 -9.2711,4.62983 c -19.3229,9.64946 -36.5491,10.89942 -56.2931,4.08472 -3.9207,-1.35323 -7.5865,-2.46041 -8.1464,-2.46041 -0.6425,0 -1.2468,8.39002 -1.6387,22.75 -2.17,79.51656 -19.4829,147.93969 -54.5904,215.75 -20.0951,38.81353 -41.7186,69.58514 -74.3134,105.75254 l -8.7892,9.75254 0,91.94824 c 0,63.66855 -0.3422,93.57808 -1.1128,97.24748 -2.3955,11.40819 -11.0414,25.83629 -20.7348,34.60199 -29.0166,26.2393 -75.9301,31.7545 -112.0949,13.1779 -16.2325,-8.3381 -27.6929,-19.3721 -34.8398,-33.5437 -6.1494,-12.1935 -6.4838,-14.69509 -6.9426,-51.93699 -0.2304,-18.7 -0.7565,-34.34746 -1.1691,-34.77213 -0.4127,-0.42468 -3.7938,0.37345 -7.5137,1.77362 -9.1852,3.45731 -33.4733,10.72301 -48.0923,14.38667 -55.7679,13.97595 -118.6188,17.5515 -176.9044,10.06396 -24.1676,-3.10465 -53.85191,-9.10133 -70.94271,-14.33151 -2.6659,-0.81582 -5.4784,-1.24106 -6.25,-0.94498 -1.15468,0.4431 -1.40597,5.2524 -1.42026,27.18136 -0.0201,30.89141 -0.80514,36.2977 -7.13564,49.143 -7.8975,16.0249 -25.54113,30.7199 -45.59744,37.9771 -16.20292,5.8629 -37.20017,7.5694 -54.5513,4.4334 z M 1098.6555,411.46399 c 4.254,-2.19983 5.0588,-6.03908 5.0588,-24.13429 l 0,-16.30546 3.75,-0.59842 c 38.8446,-6.19873 62.8202,-17.04969 83.8496,-37.94889 29.7156,-29.53161 39.8958,-67.43703 29.2789,-109.019 -8.3007,-32.51096 -33.4685,-57.57717 -73.8785,-73.58042 -5.775,-2.28703 -17.3698,-6.11296 -25.7662,-8.50206 -8.3964,-2.38911 -15.7089,-4.61744 -16.25,-4.95185 -0.6138,-0.37935 -0.9838,-13.37303 -0.9838,-34.54901 0,-27.23865 0.2575,-33.94098 1.3042,-33.94098 0.7173,0 3.3669,1.30809 5.8879,2.90688 7.3831,4.68224 13.9848,15.71321 15.3166,25.59312 0.3707,2.75 1.0958,6.67102 1.6113,8.71339 1.7398,6.89241 1.0823,6.78661 42.1794,6.78661 l 36.8544,0 2.9231,-2.92308 c 3.4176,-3.41756 3.3695,-2.8073 1.3569,-17.23717 -3.4718,-24.89155 -12.3684,-44.34005 -27.6399,-60.42243 -18.2923,-19.26356 -39.5737,-30.21366 -70.5545,-36.30304 l -8.7394,-1.71774 -0.5,-16.78724 -0.5,-16.78724 -2.8058,-2.41103 c -2.727,-2.34334 -3.2827,-2.41103 -19.7954,-2.41103 -16.7051,0 -17.0308,0.0411 -19.4443,2.45455 -2.3905,2.39054 -2.4549,2.85337 -2.4698,17.75 -0.01,8.4125 -0.3459,15.80565 -0.75,16.42923 -0.4041,0.62359 -5.9097,2.11499 -12.2347,3.31423 -28.5596,5.41501 -51.83839,16.972 -69.52262,34.51518 -13.93599,13.82485 -22.281,28.61067 -27.18128,48.16024 -2.41201,9.62266 -2.72286,12.72113 -2.69637,26.87657 0.0244,13.00811 0.43758,17.64684 2.20988,24.80698 7.12054,28.7671 22.78518,47.44308 52.16339,62.19127 10.8821,5.46293 22.5878,9.79035 40.5733,14.99944 8.7444,2.53262 16.2419,5.14421 16.661,5.80353 0.4191,0.65933 0.769,19.3254 0.7774,41.48016 0.013,33.59778 -0.2168,40.37045 -1.3835,40.81815 -2.4209,0.92898 -11.7963,-4.62065 -18.2093,-10.7787 -9.7733,-9.38481 -14.7398,-20.5623 -16.0345,-36.08699 -0.5185,-6.21741 -1.1645,-8.56083 -2.924,-10.60718 l -2.2584,-2.62666 -36.33751,-0.25461 c -39.19066,-0.27461 -39.88659,-0.19373 -42.78613,4.97216 -1.35262,2.40986 -1.33142,3.91173 0.2045,14.48553 6.09288,41.94552 22.45446,72.11496 50.27613,92.70514 7.87618,5.82899 23.78601,13.70624 34.46801,17.06581 9.5912,3.01648 25.1444,6.48671 29.1786,6.5103 5.3926,0.0316 5.8214,1.53522 5.8214,20.41278 0,16.62011 0.083,17.3295 2.25,19.3013 3.3342,3.0334 3.9781,3.13691 20.0497,3.22264 11.1873,0.0597 15.4933,-0.27975 17.6415,-1.39067 z m 5.0588,-150.89954 c 0,-23.82957 0.3419,-35.63084 1.0322,-35.63084 2.7155,0 17.601,6.57503 22.9066,10.11797 4.638,3.09713 6.5133,5.13738 8.4395,9.18197 6.3125,13.25483 3.3616,28.93923 -7.4464,39.57808 -5.0525,4.97342 -15.8891,10.91622 -21.5936,11.84194 l -3.3383,0.54172 0,-35.63084 z m -56.9449,-139.72331 c -12.307,-6.15986 -17.0516,-14.54299 -15.4435,-27.28717 1.4172,-11.23127 7.5876,-19.53312 18.0928,-24.34257 9.2353,-4.22808 8.7554,-5.53587 9.0765,24.73547 0.2937,27.6819 0.061,30.98674 -2.1842,30.98674 -0.7508,0 -5.0445,-1.84161 -9.5416,-4.09247 z m 598.7803,-42.65753 c 6.8026,-17.68717 10.4391,-36.19276 10.4638,-53.25 0.028,-19.29154 -3.8283,-30.88161 -11.8367,-35.57486 -5.8749,-3.44289 -9.9366,-3.19835 -13.7009,0.82486 -6.1949,6.62099 -9.1865,17.85557 -9.1203,34.25 0.051,12.54377 1.3043,20.17505 5.4211,33 4.1587,12.95539 12.351,28.5 15.0199,28.5 0.4248,0 2.1137,-3.4875 3.7531,-7.75 z M 938.28792,-118.12173 c 39.11879,-29.40234 84.54538,-46.16604 132.47498,-48.88703 54.755,-3.10848 104.0808,10.25593 149.7181,40.56486 7.8467,5.21119 14.6905,9.21301 15.2084,8.89292 0.5179,-0.32008 7.9974,-9.6795 16.6211,-20.79869 8.6237,-11.1192 16.1295,-20.78766 16.6796,-21.48548 1.4148,-1.7947 -1.0947,-4.29506 -11.7758,-11.73285 -55.6389,-38.74404 -119.9736,-56.9831 -188.2521,-53.36992 -27.9056,1.47671 -55.1362,6.76454 -81.74791,15.87437 -18.86727,6.45874 -51.11948,22.2424 -66.5,32.54393 -13.55221,9.07696 -27.93695,20.12534 -28.66168,22.01396 -0.52157,1.35918 34.31716,43.43927 35.96402,43.43927 0.48642,0 5.1085,-3.1749 10.27129,-7.05534 z"
         id="path3002"
         inkscape:connector-curvature="0" />
      <path
         style="fill:#2b98db"
         d="m 845.77244,756.8119 c -35.92435,-4.1623 -66.21571,-27.3653 -73.5495,-56.3384 -1.27772,-5.04779 -1.51407,-17.59949 -1.54409,-81.99999 -0.0269,-57.79415 -0.32687,-76.53559 -1.25,-78.10569 -0.66801,-1.13618 -5.26456,-5.6884 -10.21456,-10.11604 -23.84434,-21.3281 -50.53585,-51.43267 -69.78545,-78.70895 -6.168,-8.73993 -12.1588,-17.03088 -13.31288,-18.42434 l -2.09833,-2.53354 -5.90167,1.65064 c -33.65806,9.41386 -78.80043,11.42852 -115.90167,5.17257 -43.29141,-7.29971 -86.5116,-26.7873 -122.5,-55.23413 -14.0254,-11.08629 -36.10397,-33.83475 -46.81987,-48.24042 -5.11408,-6.875 -10.38836,-13.92797 -11.72063,-15.67326 l -2.4223,-3.17327 -36.2686,-0.41834 c -40.87836,-0.47151 -41.63288,-0.58043 -57.2686,-8.26691 -16.51642,-8.11944 -28.98488,-20.55707 -37.05985,-36.96822 -7.36217,-14.96249 -7.7328,-17.21498 -8.19396,-49.79874 -0.52994,-37.44435 0.86508,-45.21192 11.32565,-63.06189 8.61526,-14.70113 23.74093,-27.49518 39.92816,-33.77324 10.98029,-4.2586 20.60073,-5.79021 36.62755,-5.83124 9.69931,-0.0248 13.89843,-0.39521 14.56724,-1.28489 0.51682,-0.6875 2.57961,-7.41095 4.58399,-14.941 5.07821,-19.07788 9.48085,-30.61196 19.23611,-50.39492 8.76394,-17.77263 19.54694,-34.87588 31.15386,-49.41408 14.64363,-18.34182 39.01135,-40.73767 59.38048,-54.57532 l 7.24917,-4.92468 -0.62112,-99.34931 c -0.52322,-83.68866 -0.40152,-99.87491 0.77202,-102.68359 1.77081,-4.23814 6.62891,-6.86036 11.46345,-6.18755 2.23986,0.31172 25.18458,12.79105 61.08725,33.22455 31.625,17.99893 65.6,37.32527 75.5,42.94742 9.9,5.62215 36.75008,20.87053 59.66685,33.88529 22.91677,13.01475 42.28313,23.66319 43.03635,23.66319 0.75322,0 5.00226,-4.3875 9.44232,-9.75 11.8245,-14.28109 34.2793,-37.19664 49.5241,-50.54031 34.31015,-30.03141 67.2089,-52.09095 106.98856,-71.73884 53.62031,-26.48402 105.53273,-41.19995 169.84183,-48.14606 15.4889,-1.67298 72.8337,-1.6753 89,-0.004 64.4208,6.66151 117.3331,21.8305 173,49.59587 92.4075,46.09076 168.6725,121.85776 215.3467,213.94047 20.8976,41.2285 34.5625,80.89684 44.0492,127.87154 2.82,13.96337 5.2941,18.38306 15.9254,28.44894 8.1815,7.74628 16.4865,12.24024 24.0662,13.02253 7.9785,0.82346 8.472,-0.71506 2.9585,-9.2232 -29.9608,-46.23344 -35.2261,-105.95608 -12.4483,-141.19773 4.8985,-7.57892 15.0593,-16.67964 22.6868,-20.31993 26.4548,-12.62572 60.348,0.86317 74.3904,29.60607 6.8632,14.04822 8.49,22.75598 8.4877,45.43425 0,20.64727 -1.0075,28.73925 -5.9898,48.20607 -2.9268,11.43568 -6.2641,20.93816 -11.6789,33.25414 -4.5656,10.38433 -4.3489,10.95171 4.6096,12.071 12.0573,1.50646 24.7999,-3.71772 34.5866,-14.17982 11.2868,-12.06556 17.4413,-29.98742 18.886,-54.9954 0.7386,-12.78633 1.0803,-14.60588 3.5262,-18.77944 1.4895,-2.54173 4.563,-5.84876 6.8299,-7.34894 3.5348,-2.33918 5.1523,-2.72761 11.3586,-2.72761 6.4278,0 7.7131,0.3354 11.4963,3 2.3426,1.65 5.3064,4.98328 6.5861,7.40728 2.0498,3.88264 2.3261,5.78729 2.3209,16 -0.017,33.14049 -11.1119,65.2157 -29.8232,86.21742 -5.6483,6.33981 -17.2376,15.00396 -25.7556,19.25501 -12.1559,6.06654 -21.0229,8.0556 -35.9153,8.05656 -14.2998,9.2e-4 -23.0388,-1.76435 -35.9037,-7.25253 l -6.8261,-2.912 -8.6351,4.36097 c -18.6129,9.40005 -37.1793,10.87765 -55.8996,4.44876 -5.0955,-1.74987 -9.6446,-2.94668 -10.1092,-2.65956 -0.4645,0.28712 -1.1039,12.34715 -1.4207,26.80007 -0.7781,35.49044 -4.0537,63.17975 -11.2713,95.27802 -18.608,82.75392 -60.4253,161.90548 -118.1843,223.69872 l -7.25,7.75638 0,90.43448 c 0,100.22882 0.034,99.61932 -6.399,112.93491 -14.3615,29.7242 -52.8466,48.5667 -91.2224,44.6631 -37.8522,-3.8503 -67.6488,-26.2645 -75.4467,-56.754 -1.7168,-6.71249 -1.9319,-11.21329 -1.9319,-40.42494 0,-28.76171 -0.1937,-32.94575 -1.5493,-33.46595 -0.8522,-0.327 -7.7147,1.483 -15.25,4.02222 -45.1771,15.22344 -86.0622,22.89671 -136.5919,25.63541 -42.3293,2.29424 -94.2902,-3.16091 -138.71259,-14.56283 -19.83993,-5.09233 -20.47067,-5.16004 -21.24163,-2.28045 -0.345,1.28862 -0.63343,14.58222 -0.64094,29.54133 -0.0131,26.13022 -0.1107,27.50562 -2.48484,35.02111 -9.00703,28.5123 -37.69514,49.1474 -74.02881,53.2483 -10.09148,1.139 -11.90122,1.1318 -22.44185,-0.089 z M 1101.0558,410.31936 c 2.6026,-2.60255 2.6155,-2.695 2.8864,-20.66695 l 0.2721,-18.0527 12.2817,-2.24527 c 21.2952,-3.89308 36.2932,-9.15438 51.1912,-17.95787 27.7049,-16.37132 46.8911,-41.44586 54.5948,-71.35013 2.537,-9.84846 2.6484,-11.28329 2.1739,-27.99664 -0.5832,-20.53783 -2.992,-31.87398 -9.7856,-46.05195 -14.9459,-31.19154 -47.3606,-53.11993 -98.456,-66.60492 -5.5,-1.45155 -10.5625,-3.10381 -11.25,-3.6717 -0.9535,-0.78758 -1.25,-8.79203 -1.25,-33.7434 0,-17.99099 0.282,-32.99294 0.6268,-33.33767 0.8791,-0.87915 5.7024,1.76562 9.8313,5.39083 6.2737,5.5084 12.5419,19.67542 12.5419,28.34662 0,4.59307 2.6682,8.37794 6.7558,9.58322 2.5163,0.74195 15.3331,1.00051 39.0819,0.7884 l 35.3377,-0.31562 2.4123,-2.80576 c 2.9371,-3.41615 3.1507,-8.93651 0.8538,-22.0678 -6.5581,-37.49224 -26.9954,-64.68691 -60.9415,-81.0913 -9.8327,-4.75163 -24.5397,-9.5447 -36.9146,-12.03063 -4.353,-0.87446 -8.2905,-1.82226 -8.75,-2.10623 -0.4595,-0.28397 -0.8354,-7.71021 -0.8354,-16.50275 0,-15.47709 -0.075,-16.06182 -2.3658,-18.35226 -3.0357,-3.03572 -9.8437,-3.92492 -25.7173,-3.35897 -11.4319,0.40759 -12.1079,0.55204 -14.6999,3.14074 -2.6825,2.67907 -2.7234,2.91878 -3.217,18.88767 l -0.5,16.17415 -10.5,1.84724 c -5.775,1.01598 -15.9,3.65009 -22.5,5.85358 -43.20694,14.42516 -70.98443,45.28923 -77.52995,86.14493 -1.81921,11.35509 -0.76763,35.99768 1.97438,46.26739 5.58695,20.92491 17.98703,38.2299 36.31029,50.67298 13.24675,8.9957 40.99708,20.28367 65.24528,26.53978 l 7,1.80602 0.2611,41.24061 c 0.2978,47.03759 1.0645,43.70209 -8.7515,38.07368 -14.7778,-8.47345 -24.9463,-26.22421 -24.9948,-43.63273 -0.016,-5.79654 -1.9593,-10.56509 -4.9594,-12.1707 -2.7043,-1.44728 -74.49487,-1.4 -77.20581,0.0509 -4.12627,2.20831 -4.93021,6.63312 -3.27988,18.05202 7.24467,50.1268 29.12051,84.12649 66.31099,103.06133 11.8355,6.0258 21.7967,9.27158 39.1193,12.74669 l 13.5,2.70825 0.5,18.26482 0.5,18.26481 2.8058,2.4108 c 2.7312,2.34674 3.2652,2.41074 20.1136,2.41074 l 17.3079,0 2.6142,-2.61425 z m 3.3362,-115.04142 c -0.3728,-0.37271 -0.6777,-16.18391 -0.6777,-35.136 l 0,-34.45833 3.0182,0.60364 c 5.2679,1.05358 17.3107,6.56294 22.2074,10.15951 7.3668,5.41081 9.2767,9.9443 9.2629,21.98685 -0.014,11.92823 -2.0415,17.1074 -9.7098,24.8008 -5.813,5.83214 -22.1491,13.99544 -24.101,12.04353 z m -57.4669,-174.87527 c -11.2766,-5.64146 -15.1927,-11.59193 -15.2052,-23.10423 -0.014,-12.48223 7.693,-23.86666 19.0289,-28.11031 3.006,-1.12532 5.803,-1.84138 6.2155,-1.59126 0.4125,0.25013 0.75,13.02822 0.75,28.39576 0,32.32565 0.9114,30.26363 -10.7892,24.41004 z m 599.1143,-41.80832 c 13.2127,-33.00482 14.1122,-75.24726 1.8523,-86.99013 -3.4691,-3.32283 -9.8559,-5.96813 -12.6912,-5.2565 -4.0749,1.02274 -9.2483,8.00902 -11.6942,15.79223 -1.991,6.33598 -2.285,9.32887 -2.2385,22.79366 0.044,12.78367 0.4455,16.95931 2.2909,23.82716 3.7685,14.02461 11.2207,31.06829 15.9241,36.41931 2.1205,2.4125 3.5152,1.01165 6.5566,-6.58573 z M 939.0845,-117.99694 c 41.44478,-31.46133 93.8789,-49.06778 146.1298,-49.06778 50.3828,0 99.4054,15.57899 140.3857,44.61343 4.1803,2.96169 8.3373,5.3849 9.2378,5.3849 1.8642,0 34.202,-40.97881 34.687,-43.9557 0.6475,-3.97454 -26.2441,-21.72626 -52.3105,-34.53131 -27.2399,-13.38153 -50.3926,-20.91479 -80,-26.02992 -85.1077,-14.70364 -171.93875,7.40159 -239.25001,60.90766 -3.56108,2.83072 -6.25,5.75186 -6.25,6.78976 0,2.67597 34.07191,42.76797 36.37021,42.79639 1.02861,0.0127 5.97861,-3.09563 11,-6.90743 z"
         id="path3000"
         inkscape:connector-curvature="0" />
      <path
         style="fill:#0084d5"
         d="m 842.24967,755.3469 c -31.86038,-4.9509 -57.02728,-23.2565 -67.24709,-48.9133 l -2.78829,-6.99999 -0.5,-79.79519 -0.5,-79.79518 -8.5,-7.59769 c -29.08882,-26.0009 -58.65009,-60.07329 -81.29721,-93.70332 -3.48961,-5.18192 -6.47628,-8.60862 -7.50318,-8.60862 -0.93829,0 -4.85251,0.89983 -8.69827,1.99962 -20.72909,5.92798 -44.91456,8.43512 -74.37706,7.71013 -25.67893,-0.63188 -36.77033,-2.09338 -58.62428,-7.72482 -44.38718,-11.43792 -80.99034,-31.1505 -115.89366,-62.41436 -13.51019,-12.10144 -32.92492,-34.87694 -42.8794,-50.30199 -1.5019,-2.32729 -3.74238,-4.45598 -4.97884,-4.73043 -1.23645,-0.27444 -17.9981,-0.66295 -37.2481,-0.86333 -29.59974,-0.30812 -35.92576,-0.6338 -41,-2.11078 -22.08217,-6.42755 -40.91696,-21.96417 -50.99358,-42.06404 -7.40592,-14.77262 -7.79776,-17.12899 -8.25906,-49.66697 -0.32209,-22.71926 -0.0929,-30.32931 1.10476,-36.67918 3.39374,-17.99359 12.60269,-33.57347 27.21471,-46.04239 8.29155,-7.07547 15.2788,-10.98021 26.72836,-14.93685 9.85222,-3.40465 10.8142,-3.54188 27.8422,-3.97194 9.70057,-0.245 18.15431,-0.76491 18.78607,-1.15537 0.63177,-0.39045 2.92776,-7.31798 5.10221,-15.39452 5.32535,-19.7799 9.61985,-31.12961 19.02625,-50.28348 20.23452,-41.20269 50.57743,-76.35711 88.94808,-103.05264 l 8.5,-5.91369 0,-101.28004 0,-101.28003 3.26578,-2.92145 c 3.95619,-3.53907 7.685,-3.7524 13.52406,-0.77372 2.31559,1.18125 20.41016,11.36163 40.21016,22.62306 19.8,11.26143 42.75,24.29668 51,28.96722 8.25,4.67053 17.925,10.19334 21.5,12.27291 6.13688,3.56981 65.20721,37.15164 102.57882,58.31667 9.39335,5.31982 17.77158,9.67241 18.61829,9.67241 0.84671,0 4.88846,-3.9375 8.98166,-8.75 46.15008,-54.25997 97.51512,-94.24902 160.32123,-124.81436 90.2401,-43.91643 188.49671,-58.03839 291.50001,-41.89596 27.1228,4.25062 62.2251,13.64048 89.178,23.8551 139.6652,52.93042 246.4442,164.87632 291.9766,306.10522 4.0199,12.4686 11.1751,40.46537 14.2665,55.82136 2.9567,14.68778 4.7395,17.96532 15.6122,28.70265 8.6245,8.51713 17.9615,13.27212 26.2955,13.39139 8.8199,0.12622 9.0904,-1.16284 2.4042,-11.45699 -21.6648,-33.35562 -30.6623,-74.70113 -23.82,-109.45841 7.0876,-36.00285 32.5442,-58.04712 62.0641,-53.74455 9.1975,1.34056 20.6969,6.2481 28.5712,12.19326 10.1706,7.67885 18.6592,21.83207 22.723,37.88646 2.9838,11.78785 3.1913,42.4277 0.3906,57.66483 -3.5847,19.50217 -10.1545,40.52783 -16.7861,53.72148 -1.5817,3.14682 -2.8758,6.39349 -2.8758,7.21482 0,2.61325 4.2334,3.89059 13.0739,3.94481 6.8694,0.0421 9.8401,-0.44182 14.8193,-2.4142 21.025,-8.32851 34.0823,-32.27305 35.7001,-65.46691 0.6928,-14.21532 2.3063,-20.06442 6.6791,-24.21362 5.3051,-5.03369 9.285,-6.55878 15.8726,-6.08227 6.1902,0.44776 10.8629,3.25114 15.2903,9.17352 4.1923,5.60788 3.1462,33.40302 -2.0051,53.27349 -5.3176,20.51224 -13.4258,35.8961 -25.8862,49.11429 -11.7898,12.50676 -23.8609,20.03005 -39.2448,24.45915 -6.2932,1.81183 -10.3095,2.24557 -20.7992,2.24619 -14.343,8.5e-4 -22.9925,-1.76559 -36.0388,-7.36006 l -6.9612,-2.98505 -5.1448,2.88636 c -19.4052,10.88677 -39.1896,12.82439 -59.79,5.85564 -8.232,-2.78474 -9.8317,-3.05956 -10.6138,-1.8233 -0.5064,0.80061 -0.9277,9.57821 -0.9361,19.50577 -0.1012,119.30845 -45.5353,234.31192 -128.2189,324.54992 l -8.7964,9.60002 0,90.56201 c 0,99.53454 0.01,99.36364 -6.018,112.12023 -11.5542,24.4544 -37.8204,40.957 -71.2897,44.79 -35.5574,4.0721 -73.6461,-14.0942 -88.6764,-42.2939 -6.2546,-11.7347 -7.0159,-17.53569 -7.0159,-53.45657 0,-17.74203 -0.2731,-32.97005 -0.607,-33.84003 -0.8999,-2.3452 -3.8301,-1.96113 -14.7111,1.92828 -41.5653,14.85744 -87.8457,23.68851 -139.1819,26.55824 -40.7656,2.27883 -94.4681,-3.30815 -137.00001,-14.25291 -19.57492,-5.03723 -22.62091,-5.27158 -23.5956,-1.8154 -0.38777,1.375 -0.75592,14.875 -0.8181,30 l -0.11306,27.5 -2.90074,8.33389 c -9.25945,26.6026 -34.99077,45.6096 -68.5725,50.6526 -11.95271,1.795 -18.03791,1.7801 -29.96462,-0.073 z m 259.15883,-343.82408 2.8058,-2.4108 0.5,-18.26481 0.5,-18.26482 13.5,-2.66296 c 30.9039,-6.09598 52.4265,-16.38848 71.5621,-34.22222 15.4089,-14.36063 27.898,-35.29695 32.9605,-55.25378 4.3185,-17.02422 3.1315,-44.61691 -2.6893,-62.50982 -4.7286,-14.53576 -11.5252,-25.68845 -22.7652,-37.35582 -18.1853,-18.8767 -44.8264,-32.36811 -85.5681,-43.33283 l -7,-1.8839 -0.2637,-32.71372 c -0.289,-35.85852 -0.4805,-34.82057 5.5981,-30.33593 7.4864,5.52329 12.5766,14.32888 14.2699,24.68537 1.7373,10.62601 2.2899,12.14197 5.2256,14.33506 2.7077,2.02278 4.079,2.11332 36.4917,2.4092 18.5231,0.16908 35.5511,0.035 37.8401,-0.29803 2.5516,-0.37122 5.163,-1.60679 6.75,-3.19379 2.1707,-2.17078 2.5878,-3.49393 2.5851,-8.20197 0,-7.76192 -2.5732,-22.06037 -5.6795,-31.61364 -13.1634,-40.48356 -44.9703,-66.62092 -93.1774,-76.56853 -5.148,-1.06231 -9.5355,-1.93147 -9.75,-1.93147 -0.2144,0 -0.3899,-7.16547 -0.3899,-15.92327 0,-15.67168 -0.041,-15.97189 -2.5889,-19 l -2.5889,-3.07673 -17.9768,0 c -10.3408,0 -18.7888,0.43451 -19.8882,1.02292 -3.7142,1.98777 -4.4439,5.06604 -4.9572,20.91291 l -0.5,15.43582 -11.9017,2.33822 c -54.89831,10.78537 -91.67448,45.52517 -98.64263,93.18062 -1.73202,11.8454 -0.74044,35.31305 1.92715,45.60951 6.01404,23.21326 21.41461,42.60595 44.67233,56.25226 12.31535,7.22594 38.36355,17.1071 57.19485,21.69633 l 7.25,1.76685 0,40.39228 c 0,33.16821 -0.2405,40.39228 -1.345,40.39228 -2.4275,0 -13.06,-7.58058 -17.8122,-12.69943 -7.9228,-8.53404 -11.5537,-17.69027 -12.7804,-32.22958 -0.7494,-8.88218 -0.9844,-9.61208 -3.9454,-12.25778 l -3.1486,-2.81321 -37.40746,0 -37.4075,0 -2.95805,2.48904 c -3.89851,3.28037 -4.29548,6.06166 -2.57071,18.01096 5.02845,34.83729 17.36131,62.24884 36.87531,81.96063 17.91611,18.09771 42.05001,29.82127 72.25001,35.09695 l 10.25,1.79058 0,16.89166 c 0,25.12117 -0.405,24.70703 24.1942,24.73794 17.2721,0.0217 17.7612,-0.0353 20.5,-2.38855 z m 3.9236,-117.30472 c -1.067,-1.06701 -0.7133,-67.28449 0.3594,-67.28449 1.9209,0 14.0782,4.94814 18.4453,7.50743 5.9011,3.45828 11.1969,9.45983 12.5054,14.17179 1.5785,5.68467 1.295,15.40078 -0.6226,21.33836 -1.9869,6.15212 -9.3546,14.75491 -15.9435,18.61629 -5.5287,3.24004 -13.9335,6.46115 -14.744,5.65062 z m -57.224,-174.17481 c -11.9088,-5.63383 -16.0506,-12.49621 -15.155,-25.10968 0.7566,-10.65607 6.0872,-18.99028 14.981,-23.42225 9.3851,-4.67678 8.7802,-6.35931 8.7802,24.42225 0,20.93375 -0.2808,26.99982 -1.25,26.99921 -0.6875,-4.3e-4 -3.9978,-1.30072 -7.3562,-2.88953 z m 597.4204,-37.5467 c 7.2784,-15.33032 12.7676,-44.23899 11.8796,-62.56298 -0.9184,-18.95136 -5.0905,-28.46099 -14.3452,-32.69796 -8.202,-3.75497 -13.1263,-1.54352 -17.7903,7.98934 -9.2766,18.96059 -6.8117,50.73233 5.99,77.20862 8.4512,17.47883 10.1696,18.69096 14.2659,10.06298 z M 938.17194,-116.06113 c 25.53096,-19.86803 56.69279,-34.94112 88.70356,-42.90624 24.5989,-6.12085 55.721,-8.51851 80.6451,-6.21292 42.2023,3.90391 83.8014,19.32907 117.6815,43.63694 4.1985,3.01233 8.5119,5.47696 9.5853,5.47696 1.2953,0 4.8896,-3.74369 10.6892,-11.13338 4.8057,-6.12336 12.4502,-15.85529 16.9877,-21.62651 4.7638,-6.05901 8.25,-11.44118 8.25,-12.73665 0,-2.31836 -9.8511,-9.92694 -26.9471,-20.81275 -11.5111,-7.32965 -42.0212,-22.03855 -56.3084,-27.14622 -47.41,-16.94908 -101.8467,-21.8257 -150.9067,-13.51875 -51.00143,8.63567 -94.23091,27.41112 -135.85658,59.0053 -8.91893,6.76953 -10.24068,8.22635 -9.80799,10.81026 0.34971,2.08841 34.16592,42.75041 36.14587,43.46327 1.6223,0.5841 4.07728,-0.80429 11.13854,-6.29931 z"
         id="path2998"
         inkscape:connector-curvature="0" />
    </g>
  </g>
</svg>
