<?xml version="1.0" encoding="UTF-8" standalone="no"?>
<svg
   xmlns:dc="http://purl.org/dc/elements/1.1/"
   xmlns:cc="http://creativecommons.org/ns#"
   xmlns:rdf="http://www.w3.org/1999/02/22-rdf-syntax-ns#"
   xmlns:svg="http://www.w3.org/2000/svg"
   xmlns="http://www.w3.org/2000/svg"
   xmlns:sodipodi="http://sodipodi.sourceforge.net/DTD/sodipodi-0.dtd"
   xmlns:inkscape="http://www.inkscape.org/namespaces/inkscape"
   version="1.1"
   x="0px"
   y="0px"
   width="100px"
   height="100px"
   viewBox="0 0 100 100"
   enable-background="new 0 0 100 100"
   xml:space="preserve"
   id="svg2"
   inkscape:version="0.48.5 r10040"
   sodipodi:docname="education.svg"
   inkscape:export-filename="/home/maartend/htdocs/spacebillboard/docroot/sites/all/themes/sbbtheme/resources/img/our-mission/education.png"
   inkscape:export-xdpi="180"
   inkscape:export-ydpi="180"><metadata
     id="metadata16"><rdf:RDF><cc:Work
         rdf:about=""><dc:format>image/svg+xml</dc:format><dc:type
           rdf:resource="http://purl.org/dc/dcmitype/StillImage" /><dc:title></dc:title></cc:Work></rdf:RDF></metadata><defs
     id="defs14" /><sodipodi:namedview
     pagecolor="#ffffff"
     bordercolor="#666666"
     borderopacity="1"
     objecttolerance="10"
     gridtolerance="10"
     guidetolerance="10"
     inkscape:pageopacity="0"
     inkscape:pageshadow="2"
     inkscape:window-width="1600"
     inkscape:window-height="834"
     id="namedview12"
     showgrid="false"
     inkscape:zoom="2.36"
     inkscape:cx="-25.211864"
     inkscape:cy="50"
     inkscape:window-x="0"
     inkscape:window-y="27"
     inkscape:window-maximized="1"
     inkscape:current-layer="svg2" /><g
     id="Captions" /><g
     id="Your_Icon"
     style="fill:#2493d6;fill-opacity:1"><g
       id="g6"
       style="fill:#2493d6;fill-opacity:1"><path
         d="M49.919,64.35c-0.147,0-0.294-0.031-0.435-0.089L27.857,55v13.661c0,0,8.729,10.173,22.252,10.199v0.002    c0.008,0,0.017-0.002,0.025-0.002c0.005,0,0.013,0.002,0.021,0.002V78.86c13.523-0.026,22.252-10.199,22.252-10.199V55.039    l-22.062,9.226C50.211,64.321,50.065,64.35,49.919,64.35z"
         id="path8"
         style="fill:#2493d6;fill-opacity:1" /><path
         d="M48.721,46.977c-8.465-1.005-18.707-2.066-23.296,3.45l2.432,1.087v0.003l22.068,9.448l0.002-0.002v0.002L93,42.954    L50.193,24.686L7.268,42.696l13.785,5.901c-0.83,1.074-2.46,4.405-3.057,5.689c-1.003,0.169-1.779,0.999-1.779,2.05    c0,0.748,0.411,1.375,0.997,1.751h-0.069l-1.625,10.38h5.443l-1.435-10.38h-0.069c0.588-0.376,0.999-1.003,0.999-1.751    c0-0.456-0.177-0.854-0.419-1.2c2.434-5.186,7.922-10.538,14.543-11.759c4.585-0.696,9.637-0.491,14.146,0.043    c0.607,0.071,1.479,1.477,1.407,2.082C50.062,46.107,49.331,47.059,48.721,46.977z"
         id="path10"
         style="fill:#2493d6;fill-opacity:1" /></g></g></svg>