<?xml version="1.0" encoding="UTF-8" standalone="no"?>
<!-- Created with Inkscape (http://www.inkscape.org/) -->

<svg
   xmlns:dc="http://purl.org/dc/elements/1.1/"
   xmlns:cc="http://creativecommons.org/ns#"
   xmlns:rdf="http://www.w3.org/1999/02/22-rdf-syntax-ns#"
   xmlns:svg="http://www.w3.org/2000/svg"
   xmlns="http://www.w3.org/2000/svg"
   xmlns:sodipodi="http://sodipodi.sourceforge.net/DTD/sodipodi-0.dtd"
   xmlns:inkscape="http://www.inkscape.org/namespaces/inkscape"
   width="1553.4513"
   height="512"
   id="svg3033"
   version="1.1"
   inkscape:version="0.48.5 r10040"
   sodipodi:docname="fastest-bullet.svg">
  <sodipodi:namedview
     id="base"
     pagecolor="#ffffff"
     bordercolor="#666666"
     borderopacity="1.0"
     inkscape:pageopacity="0.0"
     inkscape:pageshadow="2"
     inkscape:zoom="0.175"
     inkscape:cx="862.28686"
     inkscape:cy="-342.57513"
     inkscape:document-units="px"
     inkscape:current-layer="layer1"
     showgrid="false"
     inkscape:window-width="1018"
     inkscape:window-height="665"
     inkscape:window-x="0"
     inkscape:window-y="66"
     inkscape:window-maximized="0" />
  <defs
     id="defs3035" />
  <metadata
     id="metadata3038">
    <rdf:RDF>
      <cc:Work
         rdf:about="">
        <dc:format>image/svg+xml</dc:format>
        <dc:type
           rdf:resource="http://purl.org/dc/dcmitype/StillImage" />
        <dc:title />
      </cc:Work>
    </rdf:RDF>
  </metadata>
  <g
     transform="translate(499.58867,103.63782)"
     id="layer1"
     inkscape:groupmode="layer"
     inkscape:label="Layer 1">
    <g
       transform="translate(-365.71429,-531.42857)"
       id="g3103">
      <path
         inkscape:connector-curvature="0"
         id="path3091"
         d="m -80.21429,938.79075 c -0.33992,-0.55 -1.40695,-1 -2.37119,-1 -0.96423,0 -3.61594,-0.9 -5.89267,-2 -2.27674,-1.1 -4.75782,-2 -5.51352,-2 -1.5853,0 -5.72262,-4.1152 -5.72262,-5.692 0,-0.5847 -0.64922,-1.6019 -1.4427,-2.2604 -1.76087,-1.4614 -10.55256,-18.9754 -10.56935,-21.0553 -0.007,-0.8208 -1.13162,-3.4507 -2.5,-5.8444 -1.36837,-2.3936 -2.48795,-5.1796 -2.48795,-6.191 0,-1.0114 -0.45,-2.117 -1,-2.4569 -0.55,-0.3399 -1,-2.1399 -1,-4 0,-1.8601 -0.45,-3.66008 -1,-4 -0.55,-0.33992 -1,-3.20148 -1,-6.35902 0,-3.15754 -0.40637,-6.16848 -0.90305,-6.69098 -1.08288,-1.13918 -2.03249,-7.91365 -2.72641,-19.45 -0.2812,-4.675 -0.92961,-8.9275 -1.44091,-9.45 -0.54631,-0.55829 -0.92963,-20.42891 -0.92963,-48.19098 0,-30.4153 -0.35617,-47.46111 -1,-47.85902 -0.55,-0.33992 -1,-2.13992 -1,-4 0,-1.86008 -0.45,-3.66008 -1,-4 -0.57486,-0.35528 -1,-5.61334 -1,-12.36789 0,-8.78311 -0.37071,-12.23997 -1.4682,-13.69098 -2.017,-2.66672 -2.01237,-13.31001 0.007,-16.19314 1.38514,-1.97757 1.38514,-2.49428 0,-5.17285 -2.1603,-4.17755 -2.30888,-73.77743 -0.16634,-77.92085 2.99312,-5.78826 3.62754,-10.29613 3.62754,-25.77529 0,-8.78845 0.42369,-16.4065 0.94152,-16.929 0.51784,-0.5225 1.19402,-6.575 1.50262,-13.45 1.97358,-43.96728 2.98695,-56.69752 4.65281,-58.45 0.49668,-0.5225 0.90305,-1.95844 0.90305,-3.19098 0,-1.23254 0.45,-2.5191 1,-2.85902 0.55,-0.33992 1,-1.68992 1,-3 0,-1.31008 0.45,-2.66008 1,-3 0.55,-0.33992 1,-1.71648 1,-3.05902 0,-1.34254 0.89794,-3.33892 1.99543,-4.43641 2.78355,-2.78355 7.00457,-11.84482 7.00457,-15.03674 0,-1.46182 0.9,-3.47234 2,-4.46783 1.1,-0.99549 2,-2.34549 2,-3 0,-0.65451 0.9,-2.00451 2,-3 1.1,-0.99549 2,-2.34549 2,-3 0,-0.65451 0.83767,-1.94811 1.86149,-2.87465 1.02382,-0.92655 2.67957,-3.58379 3.67944,-5.90499 0.99987,-2.3212 3.40352,-5.90786 5.34146,-7.97036 l 3.52351,-3.75 20.64341,0 c 16.06261,0 21.2906,0.32286 23.55994,1.45495 2.95604,1.47467 6.8368,8.4589 9.47102,17.04505 4.24814,13.84665 3.45744,13.5 30.79298,13.5 l 22.42824,0 7.13875,-7.25 c 7.14957,-7.26098 14.08852,-12.18013 19.28631,-13.67242 1.5254,-0.43794 4.57345,-2.0183 6.77345,-3.5119 2.2,-1.4936 5.24686,-2.96502 6.77081,-3.26982 1.52394,-0.3048 3.013,-0.94606 3.30902,-1.42502 0.29601,-0.47896 1.77165,-0.87084 3.27919,-0.87084 1.50754,0 3.20115,-0.46017 3.76359,-1.02261 1.74286,-1.74286 120.16574,0.1939 123.87739,2.02597 2.78516,1.37475 40.52832,2.06012 111.25,2.02017 111.64728,-0.0631 412.6892,-0.0326 483,0.049 38.3625,0.0445 73.9607,-0.21181 79.1071,-0.56954 8.7905,-0.61104 9.5019,-0.5143 11.75,1.59762 2.0155,1.89348 2.3929,3.2079 2.3929,8.33394 0,5.13185 0.3983,6.51541 2.5405,8.82569 2.8491,3.07266 5.1539,3.43816 8.0184,1.27158 2.8925,-2.18776 74.9897,-2.18776 77.8822,0 1.609,1.21698 7.2556,1.47069 32.99999,1.48275 26.6806,0.0125 31.6933,0.25257 35.5589,1.70296 2.475,0.92862 9,2.03481 14.5,2.4582 5.5,0.42339 13.825,1.22627 18.5,1.78418 4.675,0.55792 11.2,1.28477 14.5,1.61524 3.3,0.33046 6.4275,1.01125 6.95,1.51286 0.5225,0.5016 4.37,0.91201 8.55,0.91201 4.18,0 8.0275,0.41041 8.55,0.91201 0.5225,0.50161 3.5375,1.17661 6.7,1.5 3.1625,0.3234 8.3375,0.85747 11.5,1.18683 3.1625,0.32937 6.3808,1.11687 7.1518,1.75 0.7711,0.63314 4.5961,1.46093 8.5,1.83954 3.904,0.37861 9.5732,1.18898 12.5982,1.80082 3.025,0.61184 7.1903,1.36211 9.2563,1.66725 2.0659,0.30515 4.005,0.95728 4.309,1.44918 0.304,0.4919 1.6246,0.89437 2.9347,0.89437 1.3101,0 2.6601,0.45 3,1 0.3399,0.55 1.6558,1 2.9242,1 1.2683,0 3.5063,0.94413 4.9733,2.09806 2.4147,1.89938 8.9018,4.73768 15.6609,6.8521 1.4072,0.44019 3.9723,1.53148 5.7004,2.42509 1.728,0.89361 4.1767,1.63887 5.4415,1.65613 1.2649,0.0173 4.8683,1.30847 8.0078,2.86934 3.5712,1.77556 6.6596,2.65606 8.25,2.35204 1.6023,-0.3063 2.5419,-0.0336 2.5419,0.73765 0,0.70837 0.6706,0.96625 1.5925,0.61245 1.0197,-0.39128 1.7588,0.0199 2.0547,1.14301 0.4862,1.84529 5.1454,4.3275 11.8528,6.31462 2.2,0.65176 4.7814,1.57978 5.7364,2.06227 0.9551,0.48248 2.5875,0.87724 3.6276,0.87724 1.0401,0 2.4427,0.66466 3.1169,1.47703 1.4898,1.79501 9.8782,5.77459 16.0191,7.59961 2.475,0.73555 6.5904,2.36921 9.1452,3.63036 2.5549,1.26115 5.7908,2.293 7.191,2.293 1.4002,0 2.8291,0.45847 3.1754,1.01883 0.3464,0.56035 5.6604,3.52431 11.8091,6.58657 6.1486,3.06226 11.8543,6.15325 12.6793,6.86888 2.2082,1.91545 13.2507,7.29865 18.7347,9.13312 2.6209,0.87673 5.6653,2.41924 6.7653,3.4278 1.1,1.00856 5.6474,3.63337 10.1053,5.83293 4.8845,2.41007 9.1417,5.31697 10.7135,7.31553 1.4345,1.82399 3.3414,3.99134 4.2376,4.81634 11.3141,10.41539 18.5542,18.35832 20.9649,23 1.5711,3.025 5.4057,8.2 8.5215,11.5 5.8674,6.21449 10.9572,14.38781 10.9572,17.59554 0,1.01399 0.9,3.446 2,5.40446 1.1,1.95846 2,4.87059 2,6.4714 0,1.60081 0.3981,3.15662 0.8847,3.45734 0.4866,0.30073 1.1786,2.01479 1.5379,3.80902 0.3592,1.79423 1.1597,5.51224 1.7788,8.26224 1.4062,6.24628 1.4707,63.30709 0.082,72.5 -0.9687,6.41237 -3.6069,15.85307 -5.3756,19.23643 -0.4992,0.95504 -0.9077,2.58744 -0.9077,3.62756 0,1.04011 -0.7147,2.48428 -1.5882,3.20924 -0.8736,0.72497 -3.5339,5.19201 -5.9118,9.92677 -2.3779,4.73476 -5.0711,9.2291 -5.9848,9.98743 -0.9138,0.75832 -2.5638,3.14775 -3.6669,5.30984 -1.103,2.16208 -2.8552,4.15327 -3.8937,4.42487 -1.0386,0.27159 -2.1586,1.34521 -2.4889,2.38583 -0.3302,1.04062 -1.1845,1.89203 -1.8982,1.89203 -2.5999,0 -6.7969,4.40711 -9.4169,9.88828 -2.3239,4.86167 -3.376,5.93277 -7.8717,8.01377 -3.6688,1.69823 -5.4722,3.21382 -6.1551,5.17252 -0.5311,1.52376 -2.0138,3.32045 -3.2948,3.99265 -1.2809,0.67219 -3.904,2.42135 -5.829,3.88702 -1.925,1.46567 -5.525,3.24442 -8,3.95277 -2.475,0.70836 -5.2814,1.69406 -6.2364,2.19045 -0.9551,0.4964 -2.3484,0.90254 -3.0964,0.90254 -1.998,0 -6.3898,2.51883 -13.1672,7.5519 -7.1138,5.28287 -18.6471,11.4481 -21.416,11.4481 -1.0813,0 -2.2184,0.40838 -2.5268,0.90751 -0.3085,0.49913 -3.1476,1.66152 -6.3091,2.58309 -3.1614,0.92157 -6.5295,2.08819 -7.4845,2.59249 -0.9551,0.5043 -2.5728,0.91691 -3.595,0.91691 -1.0223,0 -2.6731,0.9 -3.6686,2 -0.9955,1.1 -2.6289,2 -3.6299,2 -1.0009,0 -8.4415,3.375 -16.5347,7.5 -8.0931,4.125 -15.2907,7.5 -15.9947,7.5 -0.7039,0 -2.8822,0.9 -4.8407,2 -1.9585,1.1 -4.5006,2 -5.6491,2 -2.6917,0 -14.3286,3.73475 -18.8509,6.05002 -5.7183,2.92755 -12.2543,4.9199 -16.191,4.93543 -2.03,0.008 -3.9691,0.46455 -4.309,1.01455 -0.3399,0.55 -1.9476,1 -3.5726,1 -1.625,0 -3.7359,0.40614 -4.691,0.90254 -0.955,0.49639 -3.7614,1.44665 -6.2364,2.11166 -2.475,0.665 -6.1363,2.0589 -8.1362,3.0975 -1.9998,1.0386 -4.4748,1.9026 -5.5,1.9201 -1.0251,0.018 -2.7373,0.6925 -3.8049,1.5 -1.0677,0.8075 -2.9536,1.4682 -4.191,1.4682 -1.2374,0 -2.528,0.45 -2.8679,1 -0.3399,0.55 -1.6899,1 -3,1 -1.3101,0 -2.6601,0.45 -3,1 -0.3399,0.55 -2.2853,1 -4.3231,1 -2.0378,0 -6.1674,0.9 -9.1769,2 -3.0095,1.1 -6.6891,2 -8.1769,2 -1.4878,0 -2.9832,0.45 -3.3231,1 -0.3399,0.55 -1.7699,1 -3.1777,1 -2.2502,0 -9.3268,1.9459 -18.8223,5.1757 -8.4277,2.8666 -13.4604,3.226 -55,3.9273 -45.1661,0.7625 -57.29329,1.3751 -58.94999,2.9779 -0.5467,0.5289 -18.6691,0.9191 -42.691,0.9191 -26.7486,0 -41.9629,0.3592 -42.359,1 -0.3399,0.55 -3.6515,1 -7.359,1 -7.1379,0 -9.141,0.987 -9.141,4.5038 0,1.1571 -1.4811,3.5394 -3.2913,5.2939 l -3.2913,3.1901 -159.4587,0.4815 c -87.7023,0.2649 -179.7087,0.9496 -204.4587,1.5217 -24.75,0.572 -86.85,1.4822 -138,2.0225 -137.43725,1.4519 -255.18958,2.885 -287.7312,3.5018 -31.31899,0.5936 -29.66268,0.8192 -38.85929,-5.2935 -1.42477,-0.947 -4.46227,-2.9649 -6.75,-4.4843 -2.28773,-1.5194 -4.15951,-3.4207 -4.15951,-4.2251 0,-0.8043 -1.9125,-2.3375 -4.25,-3.407 -2.3375,-1.0696 -5.6,-3.369 -7.25,-5.1098 -1.65,-1.7409 -5.63368,-4.477 -8.85262,-6.0804 -5.78323,-2.8806 -6.0567,-2.9152 -23.06291,-2.9152 l -17.21029,0 -2.47321,2.75 c -3.46651,3.8545 -6.90097,10.5644 -6.90097,13.4825 0,3.7608 -2.71422,8.3806 -6.28396,10.6958 -1.76882,1.1472 -4.74509,3.2077 -6.61392,4.5788 -3.29331,2.4162 -3.89933,2.4929 -19.69099,2.4929 -9.78337,0 -16.54002,-0.3995 -16.91113,-1 z"
         style="fill:#f0ffff" />
      <path
         inkscape:connector-curvature="0"
         id="path3089"
         d="m -81.21429,937.55875 c -1.65,-0.5605 -4.73003,-1.8627 -6.8445,-2.8936 -2.11448,-1.0309 -4.67223,-1.8744 -5.6839,-1.8744 -1.02631,0 -3.16677,-1.8787 -4.84221,-4.25 -3.27778,-4.6392 -12.12939,-21.9466 -12.12939,-23.7164 0,-0.605 -1.04384,-3.2226 -2.31965,-5.8168 -1.27581,-2.5943 -2.8813,-6.7418 -3.56776,-9.2168 -0.68646,-2.475 -1.66762,-5.8819 -2.18035,-7.571 -0.51273,-1.68905 -0.93224,-5.08655 -0.93224,-7.55 0,-2.46345 -0.40637,-4.9065 -0.90305,-5.429 -0.9271,-0.97531 -1.40232,-3.98612 -3.22777,-20.45 -0.57933,-5.225 -1.23498,-30.425 -1.45701,-56 -0.22428,-25.8347 -0.8197,-47.38883 -1.33978,-48.5 -1.53397,-3.27734 -2.23755,-8.33205 -2.92304,-21 -0.35714,-6.6 -1.21185,-12.98292 -1.89935,-14.18426 -1.76135,-3.07779 -1.57336,-11.89259 0.31508,-14.77473 1.42011,-2.16736 1.42011,-2.66896 0,-5.41515 -1.33622,-2.58398 -1.56508,-8.36249 -1.56508,-39.51718 0,-22.31301 0.37414,-36.72188 0.96297,-37.0858 0.52964,-0.32733 1.51394,-2.26639 2.18734,-4.30901 1.10795,-3.36071 1.5683,-10.28367 3.40555,-51.21387 0.3086,-6.875 0.98478,-12.9275 1.50262,-13.45 0.51783,-0.5225 0.94152,-8.70844 0.94152,-18.19098 0,-10.4153 0.3959,-17.48566 1,-17.85902 0.55,-0.33992 1,-2.24703 1,-4.23802 0,-4.00039 1.28493,-8.62807 4.87549,-17.55903 0.61848,-1.53838 1.12451,-3.62078 1.12451,-4.62756 0,-1.00677 0.71172,-2.42118 1.5816,-3.14311 2.47934,-2.05767 7.4184,-12.56463 7.4184,-15.78132 0,-1.59834 0.72188,-3.50518 1.60418,-4.23742 0.88229,-0.73224 2.01693,-2.24984 2.52141,-3.37244 0.50448,-1.12261 2.26647,-3.8411 3.91553,-6.0411 1.64906,-2.2 3.93713,-5.8 5.08461,-8 1.14747,-2.2 3.70494,-5.6875 5.68324,-7.75 l 3.59693,-3.75 19.84671,0 c 15.1904,0 20.49107,0.33321 22.59318,1.42026 2.57715,1.33269 8.15421,10.46865 8.15421,13.35766 0,0.68707 0.42282,2.03061 0.9396,2.98565 0.51678,0.95504 1.19828,2.96568 1.51445,4.46809 0.31616,1.50241 1.96496,4.31491 3.66399,6.25 l 3.08914,3.51834 23.01125,0 23.01124,0 7.70697,-7.5 c 4.23883,-4.125 8.18205,-7.5 8.76272,-7.5 0.58066,0 1.62284,-0.6833 2.31596,-1.51845 0.69311,-0.83515 2.88571,-2.2227 4.87244,-3.08343 5.71456,-2.47578 9.37924,-4.27807 12.61224,-6.20271 1.65,-0.98226 5.025,-2.37936 7.5,-3.10465 2.475,-0.7253 5.4,-1.73018 6.5,-2.23307 2.45351,-1.12167 72.51644,-0.34914 102.5,1.1302 11.825,0.58342 32.51827,1.29059 45.98505,1.57149 13.64799,0.28468 24.91214,0.93781 25.45,1.47567 1.3422,1.3422 121.23504,1.30777 122.06495,-0.035 0.85568,-1.38453 351.1443,-1.38453 352,0 0.4025,0.65123 24.9907,1 70.5,1 45.5093,0 70.0975,-0.34877 70.5,-1 0.3399,-0.55 4.4165,-1 9.059,-1 11.0017,0 12.441,1.20444 12.441,10.41111 0,5.93135 0.2302,6.60484 3.0767,9 3.4976,2.94297 5.6899,3.23264 8.4822,1.12069 2.8781,-2.17691 74.419,-2.24763 77.732,-0.0768 1.8093,1.18549 8.0505,1.48689 33.69719,1.62733 18.1307,0.0993 32.5441,0.59515 33.9943,1.16954 1.3847,0.54845 3.4176,1.37923 4.5176,1.84617 1.1,0.46694 6.275,1.07606 11.5,1.35361 17.9849,0.95533 25.5024,1.70098 26.45,2.62353 0.5225,0.50867 3.47,0.92485 6.55,0.92485 3.08,0 6.0275,0.41618 6.55,0.92485 0.5225,0.50866 4.325,1.16861 8.45,1.46654 13.4348,0.97035 19.4825,1.76783 20.45,2.6966 0.5225,0.5016 3.1396,0.91201 5.8157,0.91201 2.6762,0 5.8487,0.55106 7.05,1.22457 1.2014,0.67351 5.3343,1.54578 9.1843,1.93838 7.2447,0.73877 13.7435,1.89825 21.5,3.83594 2.475,0.61829 5.743,1.37336 7.2622,1.67793 1.5193,0.30458 3.0083,0.95189 3.3091,1.43848 0.3007,0.48658 1.5901,0.8847 2.8653,0.8847 1.2752,0 2.871,0.66566 3.5462,1.47925 1.5179,1.82894 6.7709,4.50972 8.9208,4.55255 0.878,0.0175 2.4699,0.6925 3.5375,1.5 1.0677,0.80751 2.7415,1.4682 3.7196,1.4682 0.9782,0 3.3808,0.9 5.3393,2 1.9585,1.1 4.685,2 6.0589,2 1.374,0 5.1725,1.35 8.4411,3 3.2686,1.65 6.6308,3 7.4715,3 0.8407,0 1.5285,0.45 1.5285,1 0,0.55 0.6811,1 1.5136,1 0.8324,0 2.4074,0.45 3.5,1 1.0925,0.55 2.8842,1.45244 3.9815,2.00543 3.0453,1.53463 16.6669,5.99457 18.3088,5.99457 0.7982,0 1.9933,0.65318 2.6559,1.45152 1.5735,1.89594 10.9358,6.54848 13.1775,6.54848 0.9596,0 2.0228,0.45 2.3627,1 0.3399,0.55 1.379,1.00188 2.309,1.00419 0.9301,0.002 3.9048,1.1273 6.6105,2.5 2.7057,1.37269 6.1381,2.49581 7.6275,2.49581 1.4895,0 3.2305,0.62948 3.869,1.39884 0.6386,0.76936 5.5312,3.54075 10.8725,6.15865 5.3413,2.6179 10.4023,5.34567 11.2466,6.0617 2.5648,2.17505 17.1249,9.38081 18.9552,9.38081 0.9426,0 3.243,1.09951 5.1118,2.44335 1.8689,1.34384 7.4892,4.49219 12.4896,6.99633 9,4.50706 11.5368,6.45682 12.7085,9.76762 0.3324,0.93901 2.3133,2.79046 4.402,4.11432 2.0888,1.32386 5.9654,4.83058 8.6146,7.7927 2.6493,2.96212 5.6399,6.28568 6.6458,7.38568 1.0059,1.1 2.9538,4.25 4.3287,7 1.3749,2.75 5.1353,7.925 8.3564,11.5 5.9962,6.65492 10.3523,13.53721 10.3523,16.35574 0,0.87088 0.9,3.1858 2,5.14426 1.1,1.95846 2.0065,4.55965 2.0146,5.78042 0.01,1.22077 0.7502,4.24458 1.6494,6.71958 3.1794,8.75153 3.6626,14.76913 3.6137,45 -0.048,29.95108 -0.5365,39.51816 -2.2195,43.5 -0.4649,1.1 -2.0739,5.94537 -3.5755,10.76749 -1.5017,4.82212 -3.1374,9.01908 -3.6349,9.32659 -0.4976,0.3075 -2.8707,4.46213 -5.2736,9.23251 -2.403,4.77037 -5.5402,9.76435 -6.9716,11.09772 -1.4314,1.33338 -2.6026,2.93 -2.6026,3.54806 0,0.61806 -2.0605,2.90212 -4.5789,5.07569 -2.5184,2.17356 -6.1229,5.30194 -8.0101,6.95194 -1.8872,1.65 -4.4392,5.025 -5.6711,7.5 -1.6715,3.35815 -3.4536,5.13436 -7.0229,7 -2.6606,1.39061 -5.6561,3.95327 -6.7505,5.77493 -1.0821,1.8012 -2.9797,3.66596 -4.217,4.1439 -1.2372,0.47793 -3.3404,2.04172 -4.6738,3.47507 -1.3334,1.43336 -3.252,2.6061 -4.2636,2.6061 -1.0116,0 -2.6206,0.41261 -3.5757,0.91691 -0.955,0.5043 -4.22,1.63848 -7.2554,2.52041 -3.0355,0.88193 -7.0493,2.60682 -8.9196,3.83309 -1.8703,1.22628 -4.2411,2.7295 -5.2685,3.34049 -1.0273,0.611 -2.9331,2.11164 -4.2351,3.33477 -2.8091,2.63903 -15.2505,9.05433 -17.5593,9.05433 -0.8889,0 -2.4897,0.66069 -3.5574,1.4682 -1.0676,0.8075 -2.927,1.4825 -4.1321,1.5 -1.205,0.0175 -2.4691,0.4818 -2.809,1.0318 -0.3399,0.55 -1.6899,1 -3,1 -1.3101,0 -2.6601,0.45 -3,1 -0.3399,0.55 -1.6467,1 -2.904,1 -1.2573,0 -3.1005,0.9 -4.096,2 -0.9955,1.1 -2.658,2 -3.6944,2 -1.0364,0 -8.5698,3.375 -16.7408,7.5 -8.171,4.125 -15.3712,7.5 -16.0004,7.5 -0.6293,0 -2.9082,0.9 -5.0644,2 -2.1562,1.1 -5.1983,2 -6.7602,2 -1.5619,0 -3.2673,0.37175 -3.7898,0.82612 -0.5225,0.45437 -2.975,1.39589 -5.45,2.09227 -2.475,0.69639 -6.75,2.35667 -9.5,3.68952 -2.75,1.33285 -5.7609,2.41633 -6.691,2.40773 -0.93,-0.009 -1.9691,0.43436 -2.309,0.98436 -0.3399,0.55 -2.247,1 -4.238,1 -1.991,0 -5.002,0.41951 -6.691,0.93224 -1.6891,0.51273 -5.096,1.45659 -7.571,2.09746 -2.475,0.64088 -5.2814,1.57137 -6.2364,2.06776 -0.9551,0.4964 -2.4055,0.90254 -3.2233,0.90254 -0.8177,0 -3.6363,0.9533 -6.2635,2.1184 -8.4379,3.742 -10.6883,4.6164 -15.2768,5.9356 -2.475,0.7116 -4.9275,1.6655 -5.45,2.1199 -0.5225,0.4543 -2.5156,0.8261 -4.429,0.8261 -3.4187,0 -8.936,1.3942 -12.3574,3.1228 -0.9551,0.4824 -3.066,0.8772 -4.691,0.8772 -1.625,0 -3.2327,0.45 -3.5726,1 -0.3399,0.55 -1.8353,1 -3.3231,1 -1.4878,0 -5.1674,0.9 -8.1769,2 -3.0095,1.1 -6.6296,2 -8.0448,2 -1.4151,0 -3.4464,0.6607 -4.5141,1.4682 -1.0676,0.8075 -3.377,1.4825 -5.1321,1.5 -1.755,0.017 -3.4691,0.4818 -3.809,1.0318 -0.3968,0.642 -16.2771,1 -44.359,1 -25.2378,0 -44.1429,0.3888 -44.691,0.9191 -1.61609,1.5635 -13.40759,2.2014 -56.94999,3.0809 -56.8094,1.1474 -59.5,1.4851 -59.5,7.4679 0,1.1869 -1.2593,3.3644 -2.7983,4.8389 l -2.7984,2.681 -159.4516,0.4908 c -191.10791,0.5882 -246.73612,1.1519 -249.4517,2.5274 -1.28618,0.6515 -34.83583,1.1857 -94,1.4968 -90.66088,0.4767 -230.73626,1.9489 -286.57898,3.012 -22.28285,0.4242 -29.11235,0.2595 -31,-0.7475 -6.27889,-3.3497 -16.98492,-11.0182 -17.98104,-12.8795 -0.61107,-1.1417 -2.98644,-2.9055 -5.27861,-3.9194 -2.29218,-1.014 -5.51619,-3.2642 -7.16448,-5.0005 -1.64829,-1.7363 -5.57156,-4.4644 -8.71837,-6.0624 -5.66144,-2.875 -5.90312,-2.9055 -23.0275,-2.9055 -13.79834,0 -17.74198,0.3054 -19.45698,1.5066 -2.70757,1.8965 -8.29404,12.092 -8.29404,15.1371 0,3.0107 -3.05933,9.3563 -4.5109,9.3563 -0.62726,0 -2.23141,1.1678 -3.56479,2.595 -4.61473,4.9397 -6.68026,5.413 -23.12465,5.2986 -8.41481,-0.059 -16.64966,-0.565 -18.29966,-1.1256 z"
         style="fill:#c0f7ff" />
      <path
         inkscape:connector-curvature="0"
         id="path3087"
         d="m -80.21429,937.54905 c -1.65,-0.5659 -4.8,-1.8438 -7,-2.8398 -2.2,-0.9959 -4.86237,-1.9476 -5.91637,-2.1147 -4.64365,-0.7362 -15.16159,-20.2075 -21.7712,-40.3038 -1.08536,-3.3 -2.44813,-7.35 -3.02837,-9 -0.58025,-1.65 -1.42088,-5.7 -1.86808,-9 -0.4472,-3.3 -1.32117,-8.475 -1.94217,-11.5 -2.45121,-11.94032 -3.17401,-26.34903 -3.56164,-71 -0.22428,-25.8347 -0.8197,-47.38883 -1.33978,-48.5 -1.46475,-3.12945 -2.20371,-8.04752 -3.15535,-21 -0.48491,-6.6 -1.15355,-15.31357 -1.48586,-19.36349 -0.38999,-4.75286 -0.21899,-7.7487 0.48231,-8.45 1.36299,-1.36299 1.41893,-5.36303 0.0865,-6.18651 -0.63721,-0.39382 -1,-13.90338 -1,-37.23802 0,-35.28651 0.25348,-38.9967 3.12646,-45.76198 0.46713,-1.1 1.07181,-9.425 1.34372,-18.5 0.87394,-29.1678 1.6245,-41.47753 2.5883,-42.45 0.51783,-0.5225 0.94152,-8.70844 0.94152,-18.19098 0,-10.4153 0.3959,-17.48566 1,-17.85902 0.55,-0.33992 1,-2.28533 1,-4.32313 0,-2.03781 0.928,-6.17375 2.06223,-9.19099 1.13423,-3.01723 2.78649,-7.73588 3.67168,-10.48588 0.8852,-2.75 2.1559,-5.675 2.82377,-6.5 2.38254,-2.94305 6.44233,-11.97465 6.44233,-14.3319 0,-1.31911 0.7875,-3.47674 1.75,-4.79472 0.9625,-1.31799 2.2,-3.13267 2.75,-4.03263 0.55,-0.89996 2.47796,-3.75275 4.28435,-6.33954 1.80639,-2.58679 4.37177,-6.84918 5.70084,-9.47197 1.32906,-2.6228 3.82313,-5.95234 5.54237,-7.39898 l 3.12589,-2.63026 18.88935,0 c 22.36892,0 24.2774,0.54158 27.57271,7.82453 1.16353,2.57151 2.706,6.70047 3.42772,9.17547 1.72384,5.91164 3.72015,9.98537 6.24806,12.75 2.02409,2.21363 2.44508,2.25 26.04696,2.25 l 23.98963,0 7.3316,-7.5 c 4.03238,-4.125 7.95351,-7.5 8.71362,-7.5 0.7601,0 1.93446,-0.66566 2.60968,-1.47925 1.57743,-1.90069 6.82156,-4.52075 9.04841,-4.52075 0.94816,0 2.29101,-0.6833 2.98413,-1.51845 1.6522,-1.99078 10.56348,-5.84327 19.48468,-8.42353 7.54114,-2.18111 118.92225,0.25293 123.18426,2.69198 1.58076,0.90463 8.81721,1.25 26.19098,1.25 14.9258,0 24.24051,0.37827 24.62476,1 0.4008,0.6485 21.49071,1 60,1 38.50929,0 59.5992,-0.3515 60,-1 0.86304,-1.39643 352.7171,-1.38285 354.1137,0.0137 1.0992,1.09919 131.3637,0.64546 148.1965,-0.51619 11.605,-0.80087 12.1898,-0.41474 12.1898,8.04805 0,5.74114 0.2812,6.58185 3.1669,9.46748 2.8035,2.80353 3.5779,3.08286 6.75,2.43473 5.5852,-1.14121 77.8586,-1.63826 79.893,-0.54945 0.9718,0.52008 15.9246,1.0601 33.22849,1.20005 17.3039,0.13995 32.5866,0.68111 33.9616,1.20257 1.375,0.52147 3.4,1.33017 4.5,1.79711 1.1,0.46694 6.275,1.07376 11.5,1.34849 17.0087,0.89432 24.4635,1.60928 26.5,2.54151 1.968,0.90088 5.1277,1.32208 21,2.79933 4.4,0.40951 8.9829,1.29989 10.1843,1.97861 1.2013,0.67873 4.4372,1.23405 7.1909,1.23405 2.7537,0 5.2849,0.45 5.6248,1 0.3399,0.55 3.0399,1 6,1 2.9601,0 5.6601,0.45 6,1 0.3399,0.55 3.7149,1 7.5,1 3.7851,0 7.1601,0.45 7.5,1 0.3399,0.55 2.247,1 4.238,1 1.991,0 5.002,0.41951 6.691,0.93224 1.6891,0.51273 5.096,1.45659 7.571,2.09746 2.475,0.64088 5.2814,1.57137 6.2364,2.06776 0.9551,0.4964 2.5875,0.90254 3.6276,0.90254 1.0401,0 2.4786,0.70789 3.1967,1.57309 1.7507,2.10954 8.3773,5.42691 10.8404,5.42691 1.0895,0 2.259,0.45 2.5989,1 0.3399,0.55 1.4778,1 2.5286,1 1.0508,0 3.5129,0.9 5.4714,2 1.9585,1.1 4.6563,2 5.9953,2 1.339,0 7.5128,2.44609 13.7196,5.43576 10.8205,5.21198 27.8661,11.56424 31.0313,11.56424 0.8299,0 2.09,0.70019 2.8003,1.55597 1.6402,1.97637 11.0844,6.62194 16.9535,8.33937 2.475,0.72425 6.23,2.16908 8.3445,3.21073 2.1145,1.04166 5.0969,1.89393 6.6276,1.89393 1.5306,0 3.305,0.62898 3.943,1.39773 0.638,0.76875 6.3026,3.93666 12.5881,7.03981 6.2854,3.10315 11.672,6.03692 11.9702,6.51948 0.7283,1.17829 14.3682,7.70887 17.586,8.41988 1.4077,0.31104 4.1077,1.66881 6,3.01727 1.8923,1.34846 6.8156,4.13693 10.9406,6.19661 7.8766,3.9329 13,7.90285 13,10.07326 0,0.70942 1.2375,2.0535 2.75,2.98684 3.9383,2.43025 14.25,12.56138 14.25,14.00043 0,0.66765 0.8224,1.47492 1.8274,1.79392 1.0051,0.31901 2.8861,2.93683 4.18,5.81739 1.294,2.88056 5.0007,8.00594 8.2373,11.38973 5.7531,6.01464 11.7516,15.78728 11.759,19.15744 0,0.92962 0.9021,3.16359 2,4.96438 1.098,1.80079 1.9963,4.28215 1.9963,5.51412 0,1.23197 0.9,4.70224 2,7.71171 1.1,3.00947 2,7.07562 2,9.03588 0,1.96027 0.4635,4.02765 1.0301,4.59419 0.6795,0.67953 0.8834,10.87154 0.5992,29.95 -0.4314,28.95681 -0.9955,38.17844 -2.5644,41.91993 -0.4613,1.1 -2.0384,5.81587 -3.5047,10.4797 -1.4663,4.66384 -3.274,9.16384 -4.0172,10 -0.7431,0.83617 -3.1686,5.13974 -5.3898,9.56351 -2.2213,4.42376 -5.0016,8.91463 -6.1785,9.9797 -1.1769,1.06507 -2.7547,3.40812 -3.5062,5.20679 -0.7516,1.79866 -1.8239,3.2703 -2.383,3.2703 -0.5591,0 -2.3668,1.2375 -4.0172,2.75 -1.6504,1.5125 -4.3693,3.79958 -6.0421,5.08239 -1.6728,1.28281 -4.0204,4.60791 -5.2168,7.3891 -1.8836,4.37853 -2.8734,5.37627 -7.3801,7.43953 -3.6566,1.67403 -5.5677,3.25878 -6.4246,5.32765 -0.6709,1.61965 -1.9973,3.1916 -2.9476,3.49321 -0.9503,0.30161 -3.4894,2.11622 -5.6425,4.03247 -2.153,1.91625 -4.7082,3.48444 -5.6782,3.48487 -0.9699,4.3e-4 -2.5449,0.40926 -3.5,0.90851 -0.955,0.49925 -4.1554,1.62581 -7.112,2.50348 -5.7707,1.71303 -12.1716,5.31575 -17.7859,10.01061 -3.7622,3.14614 -15.8798,9.57818 -18.0447,9.57818 -0.7265,0 -2.1023,0.40848 -3.0574,0.90773 -0.955,0.49925 -3.9864,1.6047 -6.7364,2.45656 -8.8209,2.73243 -12.3711,4.2091 -14.2861,5.94213 -1.0293,0.93147 -2.6197,1.69358 -3.5344,1.69358 -0.9146,0 -8.5292,3.34775 -16.9212,7.43945 -20.5729,10.03063 -24.2371,11.56051 -27.6884,11.56051 -1.6235,0 -3.23,0.45 -3.5699,1 -0.3399,0.55 -1.6899,1 -3,1 -1.3101,0 -2.6601,0.45 -3,1 -0.3399,0.55 -1.4778,1 -2.5286,1 -1.0508,0 -3.5129,0.9 -5.4714,2 -1.9585,1.1 -4.3611,2 -5.3393,2 -0.9781,0 -2.6519,0.66069 -3.7196,1.4682 -1.0676,0.8075 -3.4842,1.4825 -5.3701,1.5 -1.886,0.0175 -4.811,0.45131 -6.5,0.96404 -1.6891,0.51273 -5.096,1.45659 -7.571,2.09746 -2.475,0.64088 -5.2814,1.57137 -6.2364,2.06776 -0.9551,0.4964 -2.375,0.90254 -3.1555,0.90254 -0.7805,0 -3.1491,0.8455 -5.2636,1.8789 -5.1448,2.5144 -21.7402,8.0796 -27.3445,9.1699 -2.475,0.4815 -5.968,1.1694 -7.7622,1.5286 -1.7943,0.3593 -3.5083,1.0513 -3.8091,1.5379 -0.3007,0.4866 -2.0686,0.8847 -3.9287,0.8847 -1.8601,0 -3.6601,0.45 -4,1 -0.3399,0.55 -1.8353,1 -3.3231,1 -1.4878,0 -5.1674,0.9 -8.1769,2 -3.0095,1.1 -6.6891,2 -8.1769,2 -1.4878,0 -2.9832,0.45 -3.3231,1 -0.3399,0.55 -2.1399,1 -4,1 -1.8601,0 -3.6601,0.45 -4,1 -0.3968,0.642 -16.2695,1 -44.3365,1 -35.9299,0 -44.0759,0.2503 -45.7245,1.4051 -3.12929,2.1918 -12.82099,2.7323 -57.41089,3.202 -25.0785,0.2641 -41.8586,0.8234 -42.45,1.4148 -0.538,0.538 -3.9481,0.9781 -7.5781,0.9781 -6.9973,0 -9,1.0042 -9,4.5129 0,1.1621 -1.3795,3.4346 -3.0656,5.05 l -3.0655,2.9371 -159.6845,0.7376 c -198.56078,0.9173 -247.09222,1.4554 -249.6844,2.7684 -1.28618,0.6515 -34.83583,1.1857 -94,1.4968 -92.0582,0.484 -233.7663,1.9803 -285.5,3.0145 -29.93469,0.5985 -28.12158,0.8622 -37.87173,-5.5078 -2.95445,-1.9302 -6.49745,-4.1232 -7.87335,-4.8732 -1.37589,-0.75 -2.72473,-2.2168 -2.99742,-3.2596 -0.27269,-1.0428 -2.12968,-2.6375 -4.12665,-3.5438 -1.99697,-0.9063 -5.43085,-3.3593 -7.63085,-5.451 -2.2,-2.0918 -6.25,-4.944 -9,-6.3384 -4.81698,-2.4423 -5.67946,-2.5353 -23.56291,-2.5393 l -18.56291,0 -2.56383,2.75 c -3.60773,3.8697 -7.81035,11.8522 -7.81035,14.8351 0,3.2441 -2.67386,8.4149 -4.35137,8.4149 -0.715,0 -2.3678,1.1366 -3.67288,2.5258 -4.5543,4.8478 -7.19977,5.4824 -22.37939,5.3678 -7.753,-0.059 -15.44636,-0.5694 -17.09636,-1.1353 z"
         style="fill:#9de0ff" />
      <path
         inkscape:connector-curvature="0"
         id="path3085"
         d="m -81.21429,936.57995 c -2.75,-1.1112 -7.13523,-2.7985 -9.74495,-3.7494 -3.09169,-1.1266 -5.58132,-2.9156 -7.14537,-5.1344 -2.65594,-3.7679 -11.60968,-21.5327 -11.60968,-23.0344 0,-0.5229 -0.8878,-2.6909 -1.97289,-4.8179 -2.7897,-5.4682 -4.9955,-12.1144 -5.01256,-15.1031 -0.008,-1.4025 -0.42496,-2.9775 -0.92656,-3.5 -0.50161,-0.5225 -1.1564,-3.425 -1.45509,-6.45 -0.95671,-9.68905 -1.72358,-14.44989 -2.65781,-16.5 -1.5046,-3.30171 -2.06736,-16.64128 -2.80548,-66.5 -0.6302,-42.56915 -0.89685,-48.07094 -2.56874,-53 -1.0741,-3.16665 -2.22097,-10.59095 -2.70331,-17.5 -0.46077,-6.6 -1.11859,-14.86013 -1.46182,-18.35584 -0.40062,-4.08022 -0.2323,-6.7476 0.4701,-7.45 1.36988,-1.36988 1.43874,-7.36316 0.0942,-8.19416 -1.13516,-0.70157 -1.44213,-73.72453 -0.31466,-74.852 0.37693,-0.37694 1.34825,-2.36444 2.15848,-4.41667 1.39068,-3.52243 1.80307,-9.24325 3.72915,-51.73133 0.29919,-6.6 0.96767,-12.4275 1.48551,-12.95 0.51783,-0.5225 0.94152,-8.70844 0.94152,-18.19098 0,-10.4153 0.3959,-17.48566 1,-17.85902 0.55,-0.33992 1.00602,-2.27898 1.01338,-4.30902 0.007,-2.03004 1.35134,-7.51598 2.98662,-12.19098 1.63528,-4.675 2.97926,-9.2324 2.98662,-10.12756 0.007,-0.89515 0.7251,-2.21823 1.59498,-2.94016 2.17911,-1.80851 7.4184,-12.40191 7.4184,-14.99939 0,-1.16828 0.7875,-3.32055 1.75,-4.78281 0.9625,-1.46226 2.2,-3.39823 2.75,-4.30214 0.55,-0.90391 2.46297,-3.73773 4.25104,-6.29739 1.78808,-2.55965 3.97596,-6.09315 4.86196,-7.85223 0.886,-1.75908 2.9988,-4.66082 4.69512,-6.44832 l 3.08421,-3.25 19.75678,0 c 11.75168,0 20.69676,0.42828 22.07666,1.057 2.39585,1.09163 7.77423,10.18896 7.77423,13.14983 0,0.92133 0.45,1.95325 1,2.29317 0.55,0.33992 1,1.5094 1,2.59886 0,3.42446 3.89707,9.79655 6.96015,11.38053 2.37203,1.22663 7.22561,1.52061 25.10503,1.52061 l 22.16449,0 7.70697,-7.5 c 4.23883,-4.125 8.18205,-7.5 8.76272,-7.5 0.58066,0 1.63444,-0.69728 2.34172,-1.5495 1.45553,-1.75381 9.10706,-5.4505 11.28161,-5.4505 0.78783,0 1.98487,-0.66566 2.66009,-1.47925 1.46068,-1.76001 6.7641,-4.52075 8.68443,-4.52075 0.74796,0 2.14132,-0.39476 3.09636,-0.87724 5.56569,-2.81181 10.29537,-3.12276 47.49837,-3.12276 24.66797,0 38.84326,0.36126 39.23802,1 0.37931,0.61374 8.49071,1 21,1 12.50929,0 20.62069,0.38626 21,1 0.38523,0.62331 9.99071,1 25.5,1 15.50929,0 25.11477,0.37669 25.5,1 0.85053,1.37619 121.14947,1.37619 122,0 0.85568,-1.38453 351.1443,-1.38453 352,0 0.8516,1.37792 140.1484,1.37792 141,0 0.3399,-0.55 4.3843,-1 8.9876,-1 10.5482,0 11.5124,0.78598 11.5124,9.38434 0,5.59263 0.3038,6.53251 2.9221,9.04103 2.6305,2.52016 3.354,2.72458 7.25,2.04826 8.9138,-1.5474 121.92079,-0.0705 134.82789,1.76203 1.925,0.27331 4.4,0.1674 5.5,-0.23537 1.2107,-0.44331 4.1705,0.0576 7.5,1.26925 5.0289,1.83013 12.1483,2.74909 33,4.25964 4.125,0.29882 8.4,0.9553 9.5,1.45883 1.1,0.50354 4.475,1.17185 7.5,1.48514 3.025,0.31329 9.1,1.00037 13.5,1.52685 4.4,0.52648 10.475,1.21356 13.5,1.52685 3.025,0.31329 6.4,0.97621 7.5,1.47315 1.1,0.49694 4.25,1.13786 7,1.42425 12.9995,1.35382 28.8826,3.94102 33,5.37537 7.2485,2.52512 16.3843,5.20038 17.7588,5.20038 0.823,0 2.0488,0.66566 2.724,1.47925 1.5964,1.92351 6.8312,4.52075 9.1118,4.52075 0.9831,0 2.0655,0.45 2.4054,1 0.3399,0.55 1.3136,1 2.1638,1 0.8502,0 3.7856,1.125 6.5231,2.5 2.7376,1.375 6.0744,2.5 7.4152,2.5 1.3408,0 6.5287,2.05455 11.5286,4.56566 5,2.51112 12.9785,5.86787 17.7301,7.45946 14.1937,4.75432 17.5638,6.06395 19.1392,7.43762 2.2185,1.93437 10.1103,5.53726 12.1288,5.53726 0.9642,0 2.0313,0.45 2.3712,1 0.3399,0.55 1.4806,1 2.5348,1 1.0543,0 3.3902,0.89832 5.191,1.99626 1.8008,1.09795 4.5776,1.99795 6.1707,2 1.5931,0.002 5.1931,1.49668 8,3.3214 2.8069,1.82471 8.5875,5.01196 12.8457,7.08279 4.2581,2.07082 7.9821,4.15352 8.2755,4.62822 0.6719,1.08714 16.8062,8.97133 18.359,8.97133 1.3359,0 4.8328,1.86265 7.4338,3.95971 0.9957,0.80285 5.9032,3.50285 10.9055,6 7.5582,3.77309 9.4301,5.18701 11.0777,8.36756 1.0904,2.105 2.9823,4.20737 4.2042,4.67193 2.0588,0.78277 8.4492,6.75811 14.5795,13.63264 1.4175,1.58965 3.8079,5.36029 5.3119,8.37921 1.5041,3.01892 5.3236,8.18895 8.4878,11.48895 6.2853,6.55503 8.5068,10.68544 13.0424,24.25 0.5058,1.5125 1.9014,5.675 3.1015,9.25 3.7625,11.20821 4.28,16.72355 4.2695,45.5 -0.01,26.92837 -0.733,37.14036 -3.0102,42.5 -0.5842,1.375 -2.0939,5.875 -3.3549,10 -1.261,4.125 -2.9173,8.24601 -3.6806,9.15779 -0.7633,0.91179 -3.3299,5.63679 -5.7034,10.5 -2.3735,4.86322 -5.4914,9.93315 -6.9285,11.26652 -1.4371,1.33338 -2.6129,3.0105 -2.6129,3.72695 0,0.71645 -1.1305,2.04334 -2.5121,2.94866 -5.6151,3.67915 -13.7536,12.09308 -15.5843,16.11177 -1.4964,3.28479 -3.0743,4.84787 -6.7994,6.7355 -2.9962,1.51829 -5.651,3.81432 -6.9437,6.00544 -1.1512,1.95105 -2.6493,3.54737 -3.3292,3.54737 -0.6798,0 -2.6075,1.273 -4.2837,2.82889 -1.6762,1.55589 -5.0726,3.41316 -7.5476,4.12726 -9.4022,2.7128 -17.8335,6.20243 -19.539,8.08696 -0.974,1.07629 -2.2978,1.95689 -2.9417,1.95689 -0.6439,0 -2.2616,1.1743 -3.595,2.60955 -2.4207,2.6057 -17.6932,10.39045 -20.3845,10.39045 -0.782,0 -1.6999,0.45 -2.0398,1 -0.3399,0.55 -1.6899,1 -3,1 -1.3101,0 -2.6601,0.45 -3,1 -0.3399,0.55 -1.6899,1 -3,1 -1.3101,0 -2.6601,0.45 -3,1 -0.3399,0.55 -1.6558,1 -2.9242,1 -1.2683,0 -3.4502,0.9 -4.8487,2 -1.3984,1.1 -3.0401,2 -3.6482,2 -0.608,0 -7.3945,3.15048 -15.081,7.00106 -16.2738,8.15242 -19.2846,9.36145 -36.4979,14.6564 -4.95,1.52266 -10.4762,3.57264 -12.2804,4.5555 -1.8042,0.98287 -4.0767,1.78704 -5.05,1.78704 -0.9733,0 -2.1971,0.40637 -2.7196,0.90305 -0.5225,0.49667 -2.975,1.15083 -5.45,1.45368 -7.7036,0.94264 -12.46,1.85222 -13.5,2.58165 -0.55,0.38575 -3.025,1.28157 -5.5,1.99072 -2.475,0.70914 -6.8342,2.3652 -9.6871,3.6801 -2.8528,1.315 -5.6714,2.3908 -6.2635,2.3908 -0.5921,0 -1.8579,0.3981 -2.813,0.8848 -3.2092,1.6352 -14.9766,5.1152 -17.2967,5.1152 -2.1613,0 -6.9163,1.2762 -11.4397,3.0704 -1.1,0.4363 -3.35,1.0213 -5,1.2999 -4.966,0.8386 -10.6691,2.3775 -16.9052,4.5616 -3.2479,1.1374 -6.9338,2.0681 -8.191,2.0681 -1.2572,0 -2.5639,0.45 -2.9038,1 -0.3399,0.55 -2.1399,1 -4,1 -1.8601,0 -3.6601,0.45 -4,1 -0.3968,0.642 -16.2771,1 -44.359,1 -25.2378,0 -44.1429,0.3888 -44.691,0.9191 -1.62109,1.5684 -13.46089,2.2034 -56.94999,3.0547 -48.127,0.942 -56.9935,1.613 -59.0836,4.4715 -0.779,1.0653 -1.4164,2.8975 -1.4164,4.0715 0,1.174 -1.0415,3.113 -2.3145,4.3089 l -2.3144,2.1743 -159.6265,0 c -105.33903,0 -159.83675,0.3401 -160.2446,1 -0.39678,0.642 -16.27705,1 -44.35902,1 -27.52235,0 -44.10793,0.367 -44.73063,0.9897 -0.63122,0.6312 -34.47719,1.172 -93.45,1.4932 -185.03381,1.0077 -258.30131,1.9261 -260.64461,3.2671 -1.59116,0.9106 -9.13698,1.25 -27.78984,1.25 -28.2066,0 -27.58664,0.1165 -37.0259,-6.9589 -2.2,-1.649 -5.01803,-3.4489 -6.26229,-3.9996 -1.24426,-0.5507 -2.75848,-2.0904 -3.36493,-3.4214 -0.60645,-1.331 -2.81178,-3.1907 -4.90073,-4.1327 -2.08895,-0.942 -5.28844,-3.2504 -7.10999,-5.1297 -1.82154,-1.8794 -5.74006,-4.5287 -8.70782,-5.8874 -5.14192,-2.354 -6.29996,-2.4703 -24.60077,-2.4703 -19.00442,0 -19.22849,0.025 -21.4704,2.4116 -3.1176,3.3185 -7.07562,11.3852 -7.11851,14.5079 -0.0473,3.4415 -1.65983,6.0078 -6.46456,10.288 -6.56175,5.8454 -10.05464,6.8052 -24.37212,6.6973 -10.19867,-0.077 -13.58972,-0.4838 -17.62788,-2.1156 z"
         style="fill:#71c6f8" />
      <path
         inkscape:connector-curvature="0"
         id="path3083"
         d="m -80.21429,936.55295 c -1.65,-0.5638 -4.63627,-1.8659 -6.63615,-2.8937 -1.99989,-1.0277 -4.58174,-1.8685 -5.73746,-1.8685 -1.35658,0 -3.08038,-1.4762 -4.86385,-4.1652 -4.00456,-6.0378 -12.11975,-22.0426 -12.19674,-24.0544 -0.0362,-0.9458 -0.87415,-3.1958 -1.86214,-5 -0.98799,-1.8042 -2.3657,-5.3054 -3.06159,-7.7804 -0.69588,-2.475 -1.74849,-5.85 -2.33912,-7.5 -0.97592,-2.72632 -1.81963,-7.77161 -3.42817,-20.5 -0.31278,-2.475 -0.97506,-4.9275 -1.47173,-5.45 -0.49668,-0.5225 -0.90305,-4.88344 -0.90305,-9.69098 0,-4.80754 -0.45,-9.0191 -1,-9.35902 -0.64366,-0.3978 -1,-17.32405 -1,-47.5 0,-26.48448 -0.38912,-47.12246 -0.89437,-47.43472 -1.33512,-0.82515 -2.2282,-7.65898 -2.75291,-21.06528 -0.25832,-6.6 -0.89336,-12.4275 -1.4112,-12.95 -1.34295,-1.35504 -1.16471,-11.29077 0.27391,-15.26922 0.95391,-2.63798 0.95391,-3.77998 0,-5.30743 -0.89652,-1.43555 -1.21161,-11.46131 -1.20088,-38.20978 0.0128,-31.86467 0.22323,-36.80944 1.73485,-40.76357 1.24158,-3.24776 1.93184,-9.36983 2.48049,-22 0.41811,-9.625 0.9969,-22.9 1.2862,-29.5 0.28929,-6.6 0.96108,-12.9 1.49285,-14 0.53177,-1.1 1.1442,-9.425 1.36096,-18.5 0.4225,-17.68879 1.32461,-24.8743 4.01747,-32 0.93532,-2.475 2.43186,-6.75 3.32563,-9.5 0.89377,-2.75 2.37612,-5.9 3.29411,-7 2.45632,-2.94333 5.99289,-11.1191 5.99289,-13.85424 0,-1.30682 0.8234,-3.44923 1.82978,-4.7609 1.00638,-1.31167 2.13132,-3.05986 2.49987,-3.88486 0.36855,-0.825 2.23397,-3.525 4.14539,-6 1.91142,-2.475 4.3645,-6.3 5.45129,-8.5 1.08679,-2.2 3.37077,-5.4625 5.07551,-7.25 l 3.09953,-3.25 18.90226,0 c 12.54614,0 19.78571,0.40253 21.52953,1.19706 2.94801,1.3432 5.71768,6.19733 8.49298,14.88478 2.35092,7.35901 3.56716,9.7201 6.78314,13.16816 l 2.5649,2.75 24.08794,0 24.08794,0 7.44994,-7.5 c 4.09747,-4.125 7.96861,-7.5 8.60253,-7.5 0.63392,0 1.70503,-0.66566 2.38025,-1.47925 1.44406,-1.73999 6.75624,-4.52075 8.63613,-4.52075 0.7214,0 3.44036,-1.35 6.04214,-3 2.60178,-1.65 5.1369,-3 5.6336,-3 0.4967,0 2.3211,-0.60582 4.05422,-1.34627 8.15995,-3.48619 10.35692,-3.65373 47.91311,-3.65373 24.0013,0 37.84372,0.36201 38.23802,1 0.3787,0.61275 8.36563,1 20.62476,1 14.17377,0 20.64354,0.36444 22.19098,1.25 3.27189,1.87243 43.89222,2.87814 113.18426,2.80232 71.29474,-0.078 385.0693,-0.0783 483,-4.5e-4 37.95,0.0302 73.5,-0.0817 79,-0.24851 l 10,-0.30336 0.5,7.18768 c 0.4337,6.2339 0.8897,7.59404 3.4371,10.25 2.2548,2.35097 3.8091,3.06232 6.691,3.06232 2.0646,0 4.032,-0.45 4.3719,-1 0.808,-1.3074 74.7239,-1.3703 76.05,-0.0647 0.5384,0.5301 14.9492,1.04957 33.26399,1.19908 17.7727,0.14509 32.5368,0.62421 32.809,1.06472 0.2723,0.44051 1.5669,0.80092 2.877,0.80092 1.3101,0 2.6601,0.45 3,1 0.3446,0.55751 4.9907,1 10.5,1 5.5093,0 10.1554,0.44249 10.5,1 0.3399,0.55 4.1015,1 8.359,1 4.2576,0 8.1685,0.41041 8.691,0.91201 0.9171,0.8804 3.7522,1.2662 20.95,2.85085 4.4,0.40543 8.675,1.17685 9.5,1.71428 1.4504,0.94483 8.1254,2.06877 18.5,3.11507 2.75,0.27734 5.9,0.91384 7,1.41443 1.1,0.5006 4.7,1.13657 8,1.41327 10.4705,0.87793 15.9713,1.74671 16.95,2.67704 0.5225,0.49668 2.0656,0.90305 3.429,0.90305 2.5571,0 8.3038,1.58006 11.3574,3.12276 0.9551,0.48248 2.5875,0.87724 3.6276,0.87724 1.0401,0 2.4759,0.70467 3.1907,1.56594 1.8272,2.20156 5.5298,3.97625 14.5927,6.99438 4.3189,1.43828 8.2801,3.0256 8.8026,3.52737 0.5225,0.50177 2.1104,0.91231 3.5287,0.91231 1.4183,0 7.6472,2.475 13.842,5.5 6.1948,3.025 11.7005,5.5 12.2349,5.5 0.5343,0 1.7529,0.40963 2.708,0.91029 0.955,0.50066 5.6818,2.13137 10.5039,3.62379 4.8221,1.49242 9.0215,3.12453 9.332,3.6269 0.8332,1.34809 10.0714,5.72475 16.5699,7.8501 3.1181,1.01979 7.0333,2.55949 8.7003,3.42155 1.667,0.86205 4.3482,1.56737 5.9582,1.56737 1.61,0 3.4788,0.66466 4.153,1.47703 0.6742,0.81237 3.7668,2.71062 6.8725,4.21833 3.1056,1.50771 8.3466,4.28308 11.6466,6.16749 10.4745,5.9813 20.7295,11.13715 22.1517,11.13715 1.6126,0 5.0233,1.81167 7.8483,4.16872 1.1,0.9178 5.6,3.36068 10,5.42861 8.2604,3.88225 12.5,6.90178 12.5,8.90267 0,1.36591 4.2082,5.5 5.5986,5.5 1.3805,0 11.4014,10.32397 11.4014,11.74626 0,0.65086 0.8785,1.65353 1.9522,2.22816 1.0737,0.57463 3.1352,3.40296 4.5811,6.28518 1.4459,2.88222 5.2061,8.1654 8.3559,11.7404 5.9368,6.73825 11.108,15.0553 11.1145,17.87595 0,0.89323 0.9021,3.09743 2,4.89822 1.098,1.80079 1.9963,4.24384 1.9963,5.429 0,2.05258 1.3426,6.9741 3.0818,11.29683 1.7657,4.38847 2.1879,12.21368 2.1586,40 -0.031,29.16984 -0.6427,40.19409 -2.3284,41.95 -0.5016,0.5225 -0.912,1.95844 -0.912,3.19098 0,1.23254 -0.45,2.5191 -1,2.85902 -0.55,0.33992 -1,1.68992 -1,3 0,1.31008 -0.45,2.66008 -1,3 -0.55,0.33992 -1,1.65579 -1,2.92416 0,1.26837 -0.8386,3.37931 -1.8636,4.69098 -1.025,1.31167 -3.7106,5.94061 -5.9682,10.28653 -2.2575,4.34592 -5.0815,8.94155 -6.2755,10.21251 -1.194,1.27097 -2.6788,3.34022 -3.2995,4.59833 -0.6208,1.25812 -2.1373,2.73346 -3.3701,3.27855 -1.2327,0.54508 -2.4926,1.78258 -2.7996,2.75 -0.3071,0.96741 -1.1147,1.75894 -1.7947,1.75894 -1.9112,0 -7.5815,6.31327 -9.9752,11.10632 -1.6109,3.22543 -3.4136,4.96285 -7.1536,6.89431 -2.8709,1.48263 -5.5562,3.73702 -6.3062,5.29415 -0.7184,1.49158 -2.5184,3.34269 -4,4.11358 -1.4816,0.77089 -3.7847,2.56937 -5.1181,3.99663 -1.3334,1.42725 -3.252,2.59501 -4.2636,2.59501 -1.0116,0 -2.6206,0.41261 -3.5757,0.91691 -0.955,0.5043 -4.2754,1.65593 -7.3786,2.55917 -5.5826,1.62491 -16.1696,7.78489 -18.7749,10.92401 -1.9289,2.32425 -12.2716,7.06708 -23.1893,10.63387 -5.1665,1.6879 -9.8211,3.49576 -10.3436,4.01747 -0.5225,0.52172 -1.9153,0.94857 -3.095,0.94857 -1.1798,0 -2.9595,0.9 -3.955,2 -0.9955,1.1 -2.6968,2 -3.7806,2 -1.0839,0 -8.7766,3.32765 -17.095,7.39479 -20.2685,9.90987 -24.2368,11.60519 -27.1647,11.60519 -1.3678,0 -3.2682,0.39476 -4.2233,0.87724 -0.955,0.48249 -3.5364,1.40705 -5.7364,2.05459 -3.8248,1.12577 -10.5681,3.74726 -17,6.60887 -1.65,0.7341 -5.025,1.59848 -7.5,1.92085 -9.4052,1.22504 -12.0296,1.77728 -12.5653,2.64408 -0.304,0.4919 -1.4323,0.89437 -2.5073,0.89437 -1.075,0 -2.7359,0.38968 -3.691,0.86596 -0.955,0.47627 -3.3114,1.42653 -5.2364,2.11168 -1.925,0.68516 -8.45,3.04836 -14.5,5.25166 -6.05,2.2032 -13.025,4.2216 -15.5,4.4852 -2.475,0.2637 -4.9275,0.8858 -5.45,1.3825 -0.5225,0.4966 -1.9584,0.903 -3.191,0.903 -1.2325,0 -2.4897,0.4025 -2.7937,0.8944 -0.304,0.4919 -2.3556,1.1669 -4.559,1.5 -2.2035,0.3331 -5.8091,0.8781 -8.0126,1.2112 -2.2034,0.3331 -4.255,1.0081 -4.559,1.5 -0.304,0.4919 -1.6246,0.8944 -2.9347,0.8944 -1.3101,0 -2.6307,0.4025 -2.9347,0.8944 -0.304,0.4919 -2.2431,1.1302 -4.309,1.4185 -2.066,0.2883 -5.7813,1.0919 -8.2563,1.7857 -3.149,0.8828 -17.7394,1.4326 -48.5976,1.8315 -31.1711,0.4028 -44.5086,0.9093 -45.5,1.7277 -2.22259,1.835 -12.54939,2.4363 -57.40239,3.3422 -56.6009,1.1432 -59.5,1.5014 -59.5,7.3503 0,1.1221 -1.2092,3.3024 -2.6871,4.845 l -2.6871,2.8047 -159.7539,0 c -105.42388,0 -159.96405,0.3401 -160.3719,1 -0.39683,0.6421 -16.32405,1 -44.5,1 -28.17595,0 -44.10317,0.3579 -44.5,1 -0.40485,0.6551 -32.65738,1 -93.5,1 -60.84262,0 -93.09515,0.3449 -93.5,1 -0.40393,0.6536 -29.15738,1 -83,1 -53.84262,0 -82.59607,0.3464 -83,1 -0.38714,0.6264 -10.62584,1 -27.40538,1 -27.83166,0 -30.6724,-0.3765 -34.11184,-4.5207 -0.67522,-0.8136 -1.77629,-1.4793 -2.44682,-1.4793 -1.35724,0 -5.11685,-2.8998 -9.88386,-7.6234 -1.73366,-1.7179 -4.7271,-3.905 -6.6521,-4.8602 -1.925,-0.9552 -5.07539,-3.244 -7.00086,-5.0863 -1.92548,-1.8422 -5.75048,-4.4907 -8.5,-5.8856 -4.81836,-2.4444 -5.67231,-2.5363 -23.61428,-2.5403 -17.29766,0 -18.80088,0.1419 -21.23945,2.0601 -3.22541,2.5371 -8.64541,13.3698 -8.64541,17.2792 0,3.3335 -7.25693,10.7755 -12.87212,13.2003 -3.98421,1.7205 -28.76077,1.8814 -33.62788,0.2184 z"
         style="fill:#54b2ec" />
      <path
         inkscape:connector-curvature="0"
         id="path3081"
         d="m -79.21429,936.51385 c -1.65,-0.5853 -5.25,-2.064 -8,-3.2859 -2.75,-1.2219 -5.79425,-2.4836 -6.76501,-2.8038 -0.97075,-0.3202 -2.18049,-1.675 -2.68831,-3.0106 -0.50782,-1.3357 -1.43959,-2.7476 -2.0706,-3.1376 -1.35808,-0.8393 -10.97608,-20.219 -10.97608,-22.1161 0,-0.7196 -0.9,-2.9106 -2,-4.8691 -1.1,-1.9585 -2,-4.4206 -2,-5.4714 0,-1.0508 -0.45,-2.1887 -1,-2.5286 -0.55,-0.3399 -1,-2.0765 -1,-3.859 0,-1.78256 -0.41041,-3.6685 -0.91201,-4.191 -0.50161,-0.5225 -1.14953,-3.425 -1.43982,-6.45 -0.29029,-3.025 -1.04219,-8.2 -1.67088,-11.5 -0.6287,-3.3 -1.34511,-9.6 -1.59203,-14 -0.24692,-4.4 -0.88653,-8.9 -1.42135,-10 -0.57551,-1.18369 -1.07609,-20.97926 -1.22644,-48.5 -0.2329,-42.62929 -0.41167,-46.95783 -2.14765,-52 -1.29331,-3.75643 -2.01063,-9.14565 -2.26275,-17 -0.20303,-6.325 -0.85676,-12.45839 -1.45273,-13.62975 -1.01812,-2.00108 -0.84709,-6.02159 0.68078,-16.00322 0.39434,-2.57623 0.22061,-4.3876 -0.46125,-4.80901 -1.33838,-0.82717 -1.5556,-71.65929 -0.22791,-74.32159 2.78975,-5.59406 3.56471,-10.32814 4.29485,-26.23643 0.44176,-9.625 1.2733,-23.35 1.84787,-30.5 0.57456,-7.15 1.44866,-20.875 1.94244,-30.5 1.00987,-19.68512 1.82545,-27.06096 3.14583,-28.45 0.49668,-0.5225 0.90305,-1.95844 0.90305,-3.19098 0,-1.23254 0.45,-2.5191 1,-2.85902 0.55,-0.33992 1,-1.68992 1,-3 0,-1.31008 0.45,-2.66008 1,-3 0.55,-0.33992 1,-1.66138 1,-2.93657 0,-1.2752 0.65714,-2.86392 1.46031,-3.53049 2.03232,-1.68667 7.53969,-13.23644 7.53969,-15.81183 0,-1.16647 1.4625,-4.20804 3.25,-6.75905 1.7875,-2.55102 3.73995,-5.49548 4.33878,-6.54325 0.59883,-1.04777 1.76089,-2.69564 2.58235,-3.66192 0.82146,-0.96629 2.29867,-3.55689 3.28267,-5.75689 0.98401,-2.2 2.94364,-5.2375 4.35474,-6.75 l 2.56564,-2.75 19.87865,0 c 11.79944,0 20.66534,0.42102 21.81426,1.03591 2.19486,1.17465 5.93514,8.27553 7.88211,14.96409 2.05042,7.04393 3.70815,10.32947 6.56677,13.015 l 2.64516,2.485 24.38372,0 24.38372,0 L 30,455.54534 c 7.32487,-7.28137 18.02233,-14.75459 21.12029,-14.75459 1.05629,0 2.47298,-0.66566 3.1482,-1.47925 1.46068,-1.76001 6.7641,-4.52075 8.68443,-4.52075 0.74796,0 2.14132,-0.40614 3.09636,-0.90254 5.60631,-2.91396 10.47417,-3.18575 47.73643,-2.66528 56.64808,0.79124 79.8719,1.53972 80.94081,2.60863 0.56027,0.56027 11.19022,0.95919 25.55919,0.95919 15.31628,0 24.98322,0.38322 25.61546,1.01546 0.67664,0.67664 21.34644,0.8401 61.95,0.4899 139.64376,-1.2044 409.95254,-1.53306 411.93454,-0.50086 2.1761,1.1333 134.2174,0.6873 149.3038,-0.5043 10.5694,-0.83482 11.1962,-0.3659 11.1962,8.37549 0,6.02619 0.2654,6.88126 2.9102,9.37756 2.292,2.1633 3.8726,2.74675 7.441,2.74675 2.4919,0 4.8089,-0.45 5.1488,-1 0.8252,-1.33516 72.7325,-1.36749 74.0667,-0.0333 0.5521,0.55204 12.1121,1.1305 26.95,1.34856 14.29079,0.21002 27.48239,0.73145 29.31469,1.15873 2.2011,0.5133 4.1588,0.33404 5.7702,-0.52835 1.8736,-1.00277 2.7122,-1.03184 3.6186,-0.12544 0.6489,0.64888 2.1248,1.17979 3.2798,1.17979 1.155,0 2.6486,0.54864 3.3192,1.21919 0.6896,0.68965 5.88,1.56173 11.95,2.00784 11.8707,0.87243 23.0993,2.13529 33.7308,3.79364 3.85,0.60055 10.15,1.30788 14,1.57186 3.85,0.26398 7.9,0.89195 9,1.39548 1.1,0.50354 4.3625,1.16223 7.25,1.46376 2.8875,0.30152 7.6125,0.79494 10.5,1.09646 2.8875,0.30153 6.15,0.95782 7.25,1.45841 1.1,0.5006 4.7,1.13121 8,1.40136 9.9695,0.81614 14.8408,1.66548 18.1511,3.16479 1.7332,0.78497 3.9832,1.43883 5,1.45303 2.9389,0.041 15.1055,4.44761 17.0657,6.18093 0.9808,0.86725 6.0582,3.03202 11.2832,4.81059 5.225,1.77858 10.3876,3.85228 11.4725,4.60822 1.0849,0.75594 3.1369,1.37444 4.56,1.37444 1.4231,0 7.0335,2.25 12.4675,5 5.434,2.75 10.668,5 11.631,5 0.963,0 2.0291,0.45 2.369,1 0.3399,0.55 1.6899,1 3,1 1.3101,0 2.628,0.39812 2.9287,0.8847 0.3008,0.48659 1.7898,1.11909 3.3091,1.40555 3.6095,0.6806 9.6681,2.98882 11.396,4.34168 2.567,2.00983 11.36,6.12592 15.8662,7.4271 2.475,0.71467 6.1696,2.11875 8.2102,3.12018 2.0406,1.00144 5.023,1.82079 6.6275,1.82079 1.6046,0 3.5061,0.70931 4.2256,1.57624 0.7195,0.86694 6.2871,4.0559 12.3724,7.08658 6.0854,3.03067 11.7393,6.06119 12.5643,6.73448 2.5709,2.09815 13.2824,7.38391 18.5082,9.13321 2.7455,0.91902 5.8918,2.47759 6.9918,3.46349 1.1,0.98589 5.3729,3.44573 9.4953,5.4663 8.3698,4.10238 10.5189,5.75439 12.2895,9.44694 0.6684,1.39383 2.2782,3.06409 3.5775,3.71169 3.3156,1.65264 12.1409,10.42964 13.2033,13.13107 0.4867,1.2375 1.4585,2.25795 2.1596,2.26767 0.7012,0.01 2.3631,2.37221 3.6932,5.25 1.3302,2.87778 5.1637,8.15733 8.519,11.73233 5.6975,6.07072 8.6229,10.8774 11.4114,18.75 2.5122,7.09229 3.1171,8.97473 4.7401,14.75 0.9274,3.3 2.026,6.45 2.4413,7 1.5403,2.0397 2.1962,11.69813 2.6091,38.41852 0.2791,18.06317 0.072,27.77046 -0.6078,28.45 -0.5673,0.56731 -1.0315,3.61492 -1.0315,6.77246 0,3.15754 -0.4205,6.00086 -0.9344,6.31849 -0.5139,0.31762 -1.6477,3.15668 -2.5195,6.30901 -0.8718,3.15234 -2.0264,6.51291 -2.5656,7.46795 -0.5393,0.95504 -0.9805,2.58744 -0.9805,3.62756 0,1.04011 -0.6697,2.44693 -1.4882,3.12624 -0.8186,0.67932 -3.2785,4.91681 -5.4665,9.41665 -2.1881,4.49984 -5.0822,9.21858 -6.4314,10.4861 -1.3492,1.26752 -2.9939,3.61012 -3.6548,5.2058 -0.661,1.59567 -1.8118,2.90122 -2.5574,2.90122 -0.7456,0 -2.0927,1.125 -2.9937,2.5 -0.9009,1.375 -2.2089,2.5 -2.9066,2.5 -1.9752,0 -8.1399,7.35819 -9.6398,11.50611 -1.1038,3.05271 -2.2925,4.15191 -6.5034,6.0142 -3.3899,1.49915 -5.6156,3.24399 -6.5055,5.09997 -0.744,1.55166 -2.346,3.31627 -3.56,3.92137 -1.214,0.6051 -3.3374,2.23032 -4.7187,3.6116 -1.3813,1.38128 -4.438,3.06518 -6.7927,3.742 -8.7533,2.51598 -18.3365,6.45609 -20.0703,8.25186 -0.9839,1.01909 -2.3125,1.85289 -2.9523,1.85289 -0.6399,0 -2.5349,1.30723 -4.2111,2.90496 -3.9032,3.72048 -14.9555,9.1395 -24.5476,12.03585 -4.125,1.24554 -8.2814,2.6684 -9.2364,3.16191 -0.9551,0.4935 -2.3569,0.89728 -3.1152,0.89728 -0.7583,0 -2.5228,0.9 -3.9213,2 -1.3984,1.1 -3.1466,2.00729 -3.8848,2.01621 -0.7383,0.009 -8.0502,3.38392 -16.2487,7.5 -8.1984,4.11608 -15.5001,7.48379 -16.2258,7.48379 -0.7257,0 -2.7928,0.89832 -4.5936,1.99626 -1.8008,1.09795 -4.3312,1.99795 -5.6231,2 -1.2918,0.002 -3.7668,0.61149 -5.5,1.3543 -1.7331,0.74281 -5.8511,2.26892 -9.1511,3.39136 -6.8116,2.31683 -12.0767,4.19317 -15,5.34562 -1.1,0.43364 -3.575,1.01637 -5.5,1.29495 -9.4515,1.36778 -21.6799,4.9448 -28.7128,8.39901 -2.0829,1.023 -5.8122,2.4346 -8.2872,3.1367 -2.475,0.7022 -5.2814,1.6829 -6.2364,2.1793 -0.9551,0.4964 -2.616,0.9025 -3.691,0.9025 -1.075,0 -2.2327,0.45 -2.5726,1 -0.3399,0.55 -2.2199,1 -4.1777,1 -1.9579,0 -6.5438,0.9377 -10.191,2.0838 -11.1177,3.4935 -12.7012,3.916 -14.7023,3.9224 -1.0609,0 -3.2179,0.6783 -4.7933,1.5 -1.5754,0.8216 -3.6863,1.4938 -4.691,1.4938 -1.0047,0 -2.1048,0.45 -2.4447,1 -0.3399,0.55 -2.1399,1 -4,1 -1.8601,0 -3.6307,0.4025 -3.9347,0.8944 -1.1708,1.8943 -10.5143,2.38 -53.0361,2.7572 -26.8102,0.2378 -44.3529,0.7721 -44.94999,1.3692 -0.5386,0.5386 -3.7876,0.9792 -7.2202,0.9792 -3.4325,0 -6.5191,0.45 -6.859,1 -0.3961,0.6409 -15.6574,1 -42.5,1 -26.8426,0 -42.1039,0.3591 -42.5,1 -0.3399,0.55 -3.5369,1 -7.1045,1 -5.5535,0 -6.8394,0.353 -8.941,2.4545 -1.35,1.35 -2.4545,3.2966 -2.4545,4.3257 0,1.0292 -1.0386,2.8469 -2.3079,4.0394 l -2.308,2.1682 -159.442,0.4815 c -87.69318,0.2649 -179.6921,0.9496 -204.4421,1.5216 -43.80832,1.0125 -143.20527,2.2003 -313.70048,3.7489 -64.79692,0.5885 -83.98269,1.0425 -84.95,2.0102 -0.93988,0.9402 -7.70501,1.2305 -27.29952,1.1714 l -26.05,-0.079 -4.5,-2.9013 c -2.475,-1.5958 -5.41849,-3.3135 -6.5411,-3.8172 -1.1226,-0.5038 -2.6402,-1.6378 -3.37244,-2.5201 -0.73224,-0.8823 -1.9609,-1.6042 -2.73034,-1.6042 -0.76945,0 -1.92803,-1.1611 -2.57462,-2.5802 -0.64659,-1.4191 -2.99944,-3.4918 -5.22856,-4.606 -2.22912,-1.1142 -5.67638,-3.5819 -7.66058,-5.4838 -1.9842,-1.9018 -5.77297,-4.5541 -8.41948,-5.8939 -4.61307,-2.3355 -5.62326,-2.4361 -24.45527,-2.4361 l -19.64343,0 -2.76586,2.8869 c -3.35317,3.5 -7.60832,11.656 -7.60832,14.5832 0,2.4953 -2.16509,7.5108 -3.24712,7.5221 -0.41091,0 -2.43591,1.4889 -4.5,3.2992 -2.06408,1.8103 -5.01155,3.8353 -6.54993,4.5 -3.46708,1.4981 -26.93195,1.4467 -31.20295,-0.068 z"
         style="fill:#39a0e0" />
      <path
         inkscape:connector-curvature="0"
         id="path3079"
         d="m -79.21429,935.55875 c -1.65,-0.5605 -4.73003,-1.8627 -6.8445,-2.8936 -2.11448,-1.0309 -4.69633,-1.8744 -5.73746,-1.8744 -1.1074,0 -3.03937,-1.7176 -4.6555,-4.1389 -4.20665,-6.3026 -12.26254,-21.9901 -12.26254,-23.8793 0,-0.921 -0.77997,-3.2062 -1.73326,-5.0782 -2.44268,-4.7967 -4.23402,-10.0475 -4.25168,-12.4625 -0.008,-1.1323 -0.67575,-2.93235 -1.48326,-3.99997 -0.87985,-1.16328 -1.48094,-4.22164 -1.5,-7.63211 -0.0175,-3.13004 -0.4818,-5.9691 -1.0318,-6.30902 -0.55,-0.33992 -1,-2.81492 -1,-5.5 0,-2.68508 -0.45,-5.16008 -1,-5.5 -0.55,-0.33992 -1,-4.61492 -1,-9.5 0,-4.88508 -0.45,-9.16008 -1,-9.5 -0.64366,-0.3978 -1,-17.32405 -1,-47.5 0,-26.48448 -0.38912,-47.12246 -0.89437,-47.43472 -1.3248,-0.81877 -2.22555,-7.64562 -2.71344,-20.56528 -0.23885,-6.325 -0.92188,-12.45839 -1.51785,-13.62975 -1.01812,-2.00108 -0.84709,-6.02159 0.68078,-16.00322 0.39434,-2.57623 0.22061,-4.3876 -0.46125,-4.80901 -0.7587,-0.46891 -1.09387,-11.59017 -1.09387,-36.29604 0,-34.21227 0.33454,-38.97937 3.12276,-44.49841 0.48248,-0.95504 0.87724,-9.36598 0.87724,-18.69098 0,-10.22435 0.39696,-17.19989 1,-17.57259 0.57588,-0.35592 1,-5.65738 1,-12.5 0,-6.84262 0.42412,-12.14408 1,-12.5 0.60461,-0.37367 1,-7.49071 1,-18 0,-10.50929 0.39539,-17.62633 1,-18 0.55,-0.33992 1,-2.24703 1,-4.23802 0,-3.715 1.33535,-8.84333 3.45324,-13.26198 0.65904,-1.375 1.80547,-4.525 2.54761,-7 0.74213,-2.475 2.07855,-5.4 2.9698,-6.5 0.89125,-1.1 2.21496,-3.35 2.94158,-5 0.72661,-1.65 1.71861,-3.78139 2.20444,-4.73643 0.48583,-0.95504 0.88333,-3.03744 0.88333,-4.62756 0,-1.59011 0.72188,-3.49023 1.60418,-4.22247 0.88229,-0.73224 2.00907,-2.24984 2.50395,-3.37244 0.49488,-1.12261 2.4517,-4.0661 4.34849,-6.5411 3.68365,-4.80657 6.54338,-9.71762 6.54338,-11.23701 0,-0.51135 1.58319,-2.46721 3.51819,-4.34636 l 3.51819,-3.41663 18.03147,0 c 13.82965,0 18.68756,0.33928 20.84696,1.45595 3.07496,1.59012 5.1198,5.26159 8.06474,14.48005 2.39857,7.50818 3.60107,9.85235 6.82973,13.314 l 2.5649,2.75 25.08794,0 25.08794,0 7.44994,-7.5 c 4.09747,-4.125 7.96861,-7.5 8.60253,-7.5 0.63392,0 1.70503,-0.66566 2.38025,-1.47925 1.49159,-1.79726 6.77893,-4.52075 8.7765,-4.52075 0.79861,0 2.78915,-1.12513 4.42344,-2.50029 1.63428,-1.37516 4.17424,-2.74301 5.64435,-3.03966 1.47011,-0.29665 3.9469,-1.19652 5.50397,-1.99971 1.55707,-0.80319 3.66801,-1.46034 4.69098,-1.46034 1.02297,0 2.13806,-0.45 2.47798,-1 0.39442,-0.63819 14.32405,-1 38.5,-1 24.17595,0 38.10558,0.36181 38.5,1 0.37988,0.61466 8.61038,1 21.35902,1 15.2607,0 21.07064,0.33028 21.98863,1.25 1.85121,1.8547 42.06278,2.84301 113.40235,2.78718 87.07551,-0.0682 400.1832,-0.0567 483,0.0176 38.6375,0.0347 74.3,-0.0759 79.25,-0.24587 l 9,-0.30894 0.5,7.18768 c 0.4337,6.2339 0.8897,7.59404 3.4371,10.25 2.4698,2.57509 3.6934,3.06232 7.691,3.06232 2.6146,0 5.032,-0.45 5.3719,-1 0.8252,-1.33516 72.7325,-1.36749 74.0667,-0.0333 0.5521,0.55204 12.1121,1.1305 26.95,1.34856 14.29079,0.21002 27.48239,0.73145 29.31469,1.15873 2.2011,0.5133 4.1588,0.33404 5.7702,-0.52835 1.8736,-1.00277 2.7122,-1.03184 3.6186,-0.12544 0.6489,0.64888 2.1882,1.17979 3.4208,1.17979 1.2325,0 2.5191,0.45 2.859,1 0.3446,0.55751 4.9907,1 10.5,1 5.5093,0 10.1554,0.44249 10.5,1 0.3399,0.55 4.1649,1 8.5,1 4.3351,0 8.1601,0.45 8.5,1 0.3399,0.55 3.2649,1 6.5,1 3.2351,0 6.1601,0.45 6.5,1 0.3399,0.55 4.1015,1 8.359,1 4.739,0 8.212,0.47101 8.9556,1.21456 1.1629,1.16295 7.3395,2.26513 19.1854,3.42356 3.025,0.29582 5.9275,0.94826 6.45,1.44987 0.5225,0.5016 3.9834,0.91201 7.691,0.91201 3.7075,0 7.0191,0.45 7.359,1 0.3399,0.55 2.5899,1 5,1 2.4101,0 4.6601,0.45 5,1 0.3399,0.55 2.3649,1 4.5,1 2.1351,0 4.1601,0.45 4.5,1 0.3399,0.55 1.6899,1 3,1 1.3101,0 2.6601,0.45 3,1 0.3399,0.55 1.6614,1 2.9366,1 1.2752,0 2.906,0.70789 3.6241,1.57309 1.7507,2.10954 8.3773,5.42691 10.8404,5.42691 1.0895,0 2.259,0.45 2.5989,1 0.3399,0.55 1.4778,1 2.5286,1 1.0508,0 3.5129,0.9 5.4714,2 1.9585,1.1 4.8706,2 6.4714,2 1.6008,0 3.1887,0.45 3.5286,1 0.3399,0.55 1.4915,1 2.559,1 1.0676,0 1.941,0.45 1.941,1 0,0.55 0.4929,1 1.0952,1 0.6024,0 4.5399,1.64389 8.75,3.65308 8.8003,4.19977 10.0294,4.68137 16.1548,6.3304 2.475,0.6663 5.2814,1.61759 6.2364,2.11398 0.9551,0.4964 2.5875,0.90254 3.6276,0.90254 1.0401,0 2.4332,0.65318 3.0958,1.45152 1.7477,2.10586 10.4041,6.2871 19.0402,9.19688 4.125,1.38984 7.9275,2.93752 8.45,3.43929 0.5225,0.50177 2.3799,0.91231 4.1276,0.91231 1.7476,0 3.7091,0.64055 4.3589,1.42344 0.6497,0.7829 5.0923,3.35752 9.8724,5.72138 4.7801,2.36386 10.4911,5.42089 12.6911,6.79341 5.8783,3.66727 16.6903,9.06177 18.1622,9.06177 1.4193,0 8.0061,3.49336 10.3378,5.48271 0.825,0.70386 4.65,2.75519 8.5,4.5585 7.3131,3.42542 11.5,6.50505 11.5,8.45879 0,1.36591 4.2082,5.5 5.5986,5.5 1.3348,0 11.4014,10.30064 11.4014,11.66644 0,0.60694 1.0125,1.77301 2.25,2.59126 1.2375,0.81824 3.4669,3.90749 4.9542,6.86501 1.4872,2.95751 5.0147,7.62729 7.8388,10.37729 4.5598,4.44014 10.957,15.13419 10.957,18.31643 0,0.6175 0.9,2.72511 2,4.68357 1.1,1.95846 2,4.87059 2,6.4714 0,1.60081 0.45,3.18868 1,3.5286 0.55,0.33992 1,1.91492 1,3.5 0,1.58508 0.45,3.16008 1,3.5 0.55,0.33992 1,2.52648 1,4.85902 0,2.33254 0.4639,4.70493 1.031,5.27198 0.6803,0.68027 0.8809,10.52855 0.5897,28.95 -0.4565,28.88789 -1.1425,39.23758 -2.7087,40.869 -0.5016,0.5225 -0.912,1.95844 -0.912,3.19098 0,1.23254 -0.45,2.5191 -1,2.85902 -0.55,0.33992 -1,1.94148 -1,3.55902 0,1.61754 -0.45,2.94098 -1,2.94098 -0.55,0 -1,1.06431 -1,2.36514 0,1.30083 -0.8386,3.43833 -1.8636,4.75 -1.025,1.31167 -3.7106,5.94061 -5.9682,10.28653 -2.2575,4.34592 -5.0815,8.94155 -6.2755,10.21251 -1.194,1.27097 -2.6788,3.34022 -3.2995,4.59833 -0.6208,1.25812 -2.1373,2.73346 -3.3701,3.27855 -1.2327,0.54508 -2.4926,1.78258 -2.7996,2.75 -0.3071,0.96741 -1.1116,1.75894 -1.7879,1.75894 -1.9379,0 -8.0257,7.0333 -10.6031,12.25 -1.2908,2.6125 -3.0637,4.78289 -3.9397,4.82309 -2.7833,0.12772 -7.5465,3.47371 -8.899,6.2512 -0.7184,1.47535 -2.5184,3.31318 -4,4.08407 -1.4816,0.77089 -3.7847,2.56937 -5.1181,3.99663 -1.3334,1.42725 -3.4443,2.59501 -4.691,2.59501 -1.2467,0 -2.5448,0.45 -2.8847,1 -0.3399,0.55 -1.4976,1 -2.5726,1 -1.075,0 -2.7359,0.42282 -3.691,0.9396 -0.955,0.51678 -2.8614,1.17412 -4.2364,1.46077 -2.7913,0.58192 -13.8526,7.51215 -15.8702,9.94318 -1.9259,2.32065 -14.4008,8.02564 -24.3973,11.15735 -4.8221,1.51067 -9.0112,3.14097 -9.309,3.62289 -0.2978,0.48192 -1.5702,0.87621 -2.8275,0.87621 -1.2573,0 -3.1005,0.9 -4.096,2 -0.9955,1.1 -2.6463,2 -3.6686,2 -1.0222,0 -2.6399,0.40838 -3.595,0.90751 -0.955,0.49914 -5.8924,2.97815 -10.9719,5.50892 -5.0795,2.53078 -10.8307,5.4974 -12.7804,6.59249 -1.9497,1.09509 -4.1217,1.99108 -4.8267,1.99108 -0.705,0 -3.1445,0.9 -5.4213,2 -2.2767,1.1 -5.4847,2 -7.1288,2 -1.6441,0 -3.2674,0.45 -3.6073,1 -0.3399,0.55 -1.6899,1 -3,1 -1.3101,0 -2.6601,0.45 -3,1 -0.3399,0.55 -1.4794,1 -2.5323,1 -1.0528,0 -4.0637,0.95328 -6.6909,2.1184 -2.6273,1.16511 -6.1268,2.71208 -7.7768,3.43771 -1.65,0.72562 -5.025,1.58307 -7.5,1.90544 -9.4052,1.22504 -12.0296,1.77728 -12.5653,2.64408 -0.304,0.4919 -1.6246,0.89437 -2.9347,0.89437 -1.3101,0 -2.6601,0.45 -3,1 -0.3399,0.55 -1.449,1 -2.4645,1 -1.0156,0 -3.5765,0.85564 -5.691,1.90142 -2.1145,1.04578 -7.7899,3.12648 -12.612,4.62378 -4.8221,1.4973 -9.0112,3.1167 -9.309,3.5986 -0.2978,0.4819 -2.7384,0.8762 -5.4235,0.8762 -2.6851,0 -5.1601,0.45 -5.5,1 -0.3399,0.55 -1.6899,1 -3,1 -1.3101,0 -2.6601,0.45 -3,1 -0.3399,0.55 -2.1399,1 -4,1 -1.8601,0 -3.6601,0.45 -4,1 -0.3399,0.55 -2.3649,1 -4.5,1 -2.1351,0 -4.1601,0.45 -4.5,1 -0.3399,0.55 -1.6899,1 -3,1 -1.3101,0 -2.6601,0.45 -3,1 -0.3399,0.55 -2.1399,1 -4,1 -1.8601,0 -3.6307,0.4025 -3.9347,0.8944 -1.146,1.8543 -10.2863,2.3662 -53.1629,2.9772 -31.0917,0.4431 -44.5112,0.9699 -45.49999,1.7862 -2.3214,1.9166 -13.408,2.4915 -56.8743,2.9493 -25.0785,0.2641 -41.8586,0.8234 -42.45,1.4148 -0.538,0.538 -3.9684,0.9781 -7.6231,0.9781 -7.0685,0 -9.955,1.6017 -9.955,5.524 0,1.0266 -1.2092,3.1287 -2.6871,4.6713 l -2.6871,2.8047 -159.7539,0 c -105.42388,0 -159.96405,0.3401 -160.3719,1 -0.39683,0.6421 -16.32405,1 -44.5,1 -28.17595,0 -44.10317,0.3579 -44.5,1 -0.40485,0.6551 -32.65738,1 -93.5,1 -60.84262,0 -93.09515,0.3449 -93.5,1 -0.40393,0.6536 -29.15738,1 -83,1 -53.84262,0 -82.59607,0.3464 -83,1 -0.38623,0.6249 -10.31222,1 -26.46452,1 -24.66218,0 -26.03409,-0.1001 -29.94098,-2.1855 -2.25197,-1.2021 -4.0945,-2.5521 -4.0945,-3 0,-0.448 -0.65182,-0.8145 -1.44848,-0.8145 -0.79666,0 -2.66237,-1.125 -4.14602,-2.5 -1.48365,-1.375 -3.31797,-2.5 -4.07627,-2.5 -0.7583,0 -1.79421,-1.0928 -2.30202,-2.4284 -0.51506,-1.3547 -2.60429,-3.1929 -4.72525,-4.1575 -2.09108,-0.951 -5.60196,-3.3908 -7.80196,-5.4217 -2.2,-2.031 -6.19418,-4.8851 -8.87595,-6.3425 -4.80755,-2.61266 -5.15331,-2.64986 -24.64425,-2.64986 l -19.76829,0 -2.9254,2.75 c -3.1926,3.0012 -8.28611,12.9231 -8.28611,16.141 0,2.834 -2.09644,7.109 -3.4862,7.109 -0.64085,0 -2.23297,1.1366 -3.53805,2.5258 -4.49504,4.7848 -7.27366,5.4824 -21.37939,5.3678 -7.203,-0.059 -14.44636,-0.565 -16.09636,-1.1256 z"
         style="fill:#2494da" />
    </g>
  </g>
</svg>
