<?xml version="1.0" encoding="UTF-8" standalone="no"?>
<!-- Created with Inkscape (http://www.inkscape.org/) -->

<svg
   xmlns:dc="http://purl.org/dc/elements/1.1/"
   xmlns:cc="http://creativecommons.org/ns#"
   xmlns:rdf="http://www.w3.org/1999/02/22-rdf-syntax-ns#"
   xmlns:svg="http://www.w3.org/2000/svg"
   xmlns="http://www.w3.org/2000/svg"
   xmlns:sodipodi="http://sodipodi.sourceforge.net/DTD/sodipodi-0.dtd"
   xmlns:inkscape="http://www.inkscape.org/namespaces/inkscape"
   width="591.47235"
   height="1282.0784"
   id="svg2"
   version="1.1"
   inkscape:version="0.48.5 r10040"
   sodipodi:docname="New document 1">
  <defs
     id="defs4" />
  <sodipodi:namedview
     id="base"
     pagecolor="#ffffff"
     bordercolor="#666666"
     borderopacity="1.0"
     inkscape:pageopacity="0.0"
     inkscape:pageshadow="2"
     inkscape:zoom="0.35"
     inkscape:cx="256.53628"
     inkscape:cy="740.98118"
     inkscape:document-units="px"
     inkscape:current-layer="layer1"
     showgrid="false"
     inkscape:window-width="733"
     inkscape:window-height="609"
     inkscape:window-x="44"
     inkscape:window-y="159"
     inkscape:window-maximized="0" />
  <metadata
     id="metadata7">
    <rdf:RDF>
      <cc:Work
         rdf:about="">
        <dc:format>image/svg+xml</dc:format>
        <dc:type
           rdf:resource="http://purl.org/dc/dcmitype/StillImage" />
        <dc:title></dc:title>
      </cc:Work>
    </rdf:RDF>
  </metadata>
  <g
     inkscape:label="Layer 1"
     inkscape:groupmode="layer"
     id="layer1"
     transform="translate(-118.46372,8.7349636)">
    <g
       id="g3022">
      <path
         style="fill:#b0c9d7"
         d="m 412.78573,1273.0991 c -70.6644,-4.8442 -90.62874,-8.0114 -98.82937,-15.6786 -3.30746,-3.0924 -3.96924,-4.5939 -5.67907,-12.8852 -0.98489,-4.7759 -3.75488,-11.8295 -7.97824,-20.316 -7.15589,-14.3791 -11.52023,-28.2476 -16.12817,-51.25 -1.57004,-7.8375 -3.2487,-14.25 -3.73034,-14.25 -0.48165,0 -33.05797,21.1763 -72.39182,47.0584 -39.33385,25.8822 -72.12074,46.8264 -72.85974,46.5428 -0.73901,-0.2835 -1.56399,-1.5473 -1.8333,-2.8084 -0.65659,-3.0745 -13.24779,-151.7653 -14.2664,-168.4733 -0.51567,-8.4585 -0.44529,-13.8187 0.19645,-14.9618 0.55,-0.9797 27.96054,-31.0485 60.91231,-66.81949 32.95177,-35.771 60.81628,-66.0492 61.92113,-67.2848 1.98815,-2.2235 1.99153,-2.4294 0.32836,-20 -3.32665,-35.14456 -4.84765,-62.20965 -6.67368,-118.75339 -1.0632,-32.92253 -1.54853,-43.8621 -4.94664,-111.5 -6.19943,-123.3969 -7.52579,-218.7741 -3.57397,-257 4.43628,-42.9121 12.84272,-80.39921 28.00757,-124.89515 11.61364,-34.07615 32.97038,-83.86505 53.01979,-123.60485 21.79359,-43.19694 36.32712,-66.59809 65.52191,-105.499996 21.90313,-29.18582 21.00384,-27.82997 36.47962,-55 7.04868,-12.375001 13.46428,-23.031593 14.25689,-23.681317 0.79261,-0.649724 2.04534,-0.949452 2.78384,-0.666061 0.73851,0.28339 7.94252,12.688888 16.00892,27.567778 11.95473,22.0511 16.32118,29.1036 23.61801,38.14678 13.51057,16.74405 31.5411,44.645856 53.07533,82.132816 38.35458,66.76793 69.34185,150.66152 85.23363,230.75784 10.05474,50.67698 11.97513,73.75241 11.08873,133.24216 -1.30585,87.6413 -3.4318,126.81869 -12.07386,222.5 -1.91255,21.175 -4.61165,52.225 -5.998,69 -3.92881,47.53909 -9.54675,98.9006 -13.50848,123.49999 -2.12303,13.1824 -7.90879,5.2122 61.02675,84.06819 34.1044,39.0125 62.5669,72.0568 63.25,73.4318 0.9031,1.8181 1.0268,4.9548 0.4534,11.5 -0.9461,10.7999 -20.6263,170.9979 -21.4164,174.3308 -0.3039,1.2819 -1.1216,2.5491 -1.8172,2.816 -0.6955,0.2669 -32.2118,-21.6559 -70.03606,-48.7174 -37.82427,-27.0616 -69.52734,-49.4005 -70.45127,-49.6421 -1.41205,-0.3693 -2.03325,1.3664 -3.89626,10.8867 -4.254,21.7385 -7.87209,33.8739 -12.47013,41.826 -2.38515,4.125 -6.84396,12.7852 -9.90846,19.2448 -8.97957,18.928 -17.16924,24.963 -40.2405,29.6535 -19.5621,3.9771 -50.82059,6.5546 -66.47528,5.4815 z"
         id="path3010"
         inkscape:connector-curvature="0" />
      <path
         style="fill:#92b5ca"
         d="m 395.78573,1269.1435 c -57.73378,-4.1479 -77.73098,-8.2227 -83.5496,-17.0247 -1.12729,-1.7053 -2.61848,-6.2053 -3.31378,-10 -0.87112,-4.7544 -3.41833,-11.2523 -8.19264,-20.8995 -5.70791,-11.5337 -7.61577,-16.7306 -10.82993,-29.5 -2.14581,-8.525 -4.69776,-19.7009 -5.67101,-24.8354 -1.61568,-8.5236 -1.95097,-9.2979 -3.85629,-8.9049 -1.14771,0.2368 -33.95342,21.4252 -72.90158,47.0854 -38.94815,25.6602 -71.22708,46.6549 -71.73094,46.6549 -0.50387,0 -1.13746,-1.0125 -1.40798,-2.25 -0.48824,-2.2335 -13.91498,-156.0054 -15.1275,-173.25 l -0.63281,-9 63.23964,-68.47559 63.23964,-68.4757 -0.5974,-8.0243 c -0.32857,-4.4134 -1.26909,-15.67439 -2.09005,-25.02439 -2.0474,-23.31794 -3.34647,-46.60455 -4.57448,-82 -1.70957,-49.27557 -2.96298,-79.43947 -4.50853,-108.5 -6.8498,-128.79438 -9.00955,-236.94208 -5.51182,-276 4.85467,-54.21034 17.50708,-105.10373 40.56503,-163.16987 15.13385,-38.1111 35.901,-83.28908 51.15955,-111.29524 18.11154,-33.24264 30.4502,-52.18698 57.33813,-88.034886 15.68803,-20.91582 21.18146,-29.22803 33.62625,-50.88051 8.18117,-14.234276 15.31433,-25.918403 15.85148,-25.964723 0.53714,-0.04632 7.72662,12.328423 15.97662,27.499433 11.76629,21.63714 16.79896,29.82161 23.34471,37.96472 21.27044,26.46108 60.03199,90.803336 77.70099,128.979826 32.70315,70.65996 54.01903,138.8341 65.46419,209.37275 6.17834,38.07824 6.42477,41.80042 6.22541,94.0285 -0.33369,87.41739 -3.10627,140.8993 -12.72706,245.5 -1.34056,14.575 -3.59077,40.45 -5.00048,57.5 -4.14796,50.16845 -8.38364,89.10668 -13.43571,123.51319 -1.8665,12.7116 -1.88153,13.5951 -0.27351,16.0867 0.9358,1.4499 29.71396,34.707 63.95142,73.90459 39.944,45.7307 62.2542,72.0256 62.2617,73.3819 0.014,2.5316 -21.8344,179.09 -22.578,182.4545 -0.3659,1.6556 -0.9905,2.1594 -2.1335,1.7208 -0.8889,-0.3411 -32.7984,-22.922 -70.90998,-50.1797 -38.11163,-27.2578 -69.74811,-49.2788 -70.30329,-48.9357 -0.55518,0.3431 -1.29637,2.2956 -1.64708,4.3388 -1.63903,9.5488 -6.73186,31.7742 -8.54991,37.3123 -1.11266,3.3893 -3.75741,8.9165 -5.87722,12.2825 -2.11981,3.3661 -5.53104,9.9451 -7.58051,14.6201 -6.31998,14.4163 -11.0122,20.2765 -20.26975,25.3151 -9.16627,4.9889 -29.51157,9.1803 -56.66242,11.6732 -13.66085,1.2543 -23.87837,1.133 -47.5,-0.5641 z"
         id="path3008"
         inkscape:connector-curvature="0" />
      <path
         style="fill:#76a6c3"
         d="m 409.78573,1269.0763 c -1.925,-0.1775 -10.475,-0.7978 -19,-1.3783 -47.01644,-3.2016 -68.21998,-6.9555 -75.54873,-13.3752 -3.08872,-2.7056 -3.85043,-4.3565 -5.94162,-12.8771 -1.59371,-6.4937 -4.06031,-12.8699 -7.35001,-19 -2.72323,-5.0745 -6.07191,-12.3764 -7.4415,-16.2264 -2.24898,-6.322 -7.74515,-28.7611 -10.73877,-43.843 -0.92334,-4.6518 -1.49819,-5.7538 -2.81958,-5.4049 -0.91289,0.2409 -33.32297,21.2632 -72.02241,46.7161 -38.69943,25.4529 -71.16421,46.4876 -72.14393,46.7438 -1.47259,0.3851 -1.88764,-0.3729 -2.39476,-4.3731 -1.16126,-9.1602 -15.64729,-176.8403 -15.37316,-177.9488 0.15096,-0.6104 26.62893,-29.6354 58.83994,-64.5 76.63132,-82.94419 68.25583,-73.10999 67.52286,-79.28309 -3.6963,-31.13047 -5.63198,-64.71772 -8.62208,-149.60699 -0.5715,-16.225 -2.1286,-51.1 -3.46022,-77.5 -6.1465,-121.85785 -8.26618,-223.3389 -5.45162,-261 5.7978,-77.57906 30.0657,-155.4554 79.46337,-255 22.46944,-45.27971 38.17328,-70.63304 70.20901,-113.350116 15.77873,-21.03968 21.15518,-29.18291 33.70645,-51.05212 12.71988,-22.163005 15.10638,-25.765966 16.10141,-24.308655 0.64249,0.940992 7.53064,13.451332 15.30699,27.800755 11.42639,21.08469 15.89242,28.27883 23.27956,37.5 23.06088,28.78629 61.41371,93.335756 80.15848,134.910136 31.06165,68.89222 50.59937,132.22034 62.16592,201.5 6.0766,36.39671 6.06234,36.15488 5.95613,101 -0.14144,86.35601 -1.94015,122.28543 -11.41424,228 -2.16879,24.2 -5.09612,57.95 -6.50517,75 -3.04091,36.79587 -6.63314,71.22292 -10.01695,96 -5.22406,38.25179 -4.95334,35.11059 -3.2463,37.66749 0.85648,1.2829 21.02771,24.6075 44.82496,51.8325 23.79723,27.22499 52.00643,59.51809 62.68703,71.76249 l 19.4193,22.2625 -11.0729,88.7375 c -13.1965,105.7557 -11.8573,96.5283 -13.9307,95.9861 -0.9059,-0.2369 -32.9012,-22.7756 -71.10065,-50.0859 -39.91767,-28.5388 -69.82727,-49.2815 -70.33236,-48.7764 -0.48335,0.4833 -2.41326,8.2441 -4.28868,17.2462 -4.32671,20.7684 -6.57782,28.1654 -10.40261,34.1823 -1.68336,2.6482 -5.92267,10.7534 -9.42068,18.0115 -9.26122,19.2164 -15.73055,24.7382 -34.60178,29.5338 -19.88421,5.0531 -56.38077,8.2146 -75,6.4969 z"
         id="path3006"
         inkscape:connector-curvature="0" />
      <path
         style="fill:#5991b3"
         d="m 383.78573,1266.7221 c -40.11025,-3.367 -56.34317,-6.0481 -65.72939,-10.856 -5.00727,-2.5649 -6.63231,-5.4003 -8.10773,-14.1468 -0.75311,-4.4646 -3.12885,-10.5709 -7.58673,-19.5 -3.56965,-7.15 -7.58852,-16.6 -8.93083,-21 -2.41004,-7.9 -7.79826,-31.0541 -9.12051,-39.1924 -0.37464,-2.3059 -1.2525,-4.6666 -1.9508,-5.2462 -0.94864,-0.7873 -19.54883,10.9685 -73.56768,46.4966 -39.76392,26.1527 -72.6456,47.1884 -73.0704,46.7461 -0.4248,-0.4422 -3.96318,-37.4791 -7.86308,-82.3041 -3.8999,-44.825 -7.60915,-85.6218 -8.24279,-90.6595 l -1.15207,-9.1594 2.57659,-2.3406 c 1.41713,-1.2873 30.06458,-32.1726 63.66101,-68.63399 68.90371,-74.7796 62.00548,-65.3463 60.11484,-82.2065 -2.7601,-24.61383 -5.18697,-67.50799 -7.04395,-124.49999 -0.86096,-26.42339 -3.08693,-75.09181 -7.47809,-163.5 -1.15625,-23.27902 -3.49477,-118.24019 -3.4969,-142 -0.006,-62.38017 6.57261,-107.85428 23.86859,-165 11.61892,-38.38877 35.28622,-95.37516 59.59768,-143.5 21.95597,-43.4621 36.25463,-66.36858 66.53265,-106.585376 18.50087,-24.5738 19.22143,-25.6738 37.35754,-57.030222 6.12263,-10.58571 11.58205,-19.379943 12.13205,-19.542741 0.55,-0.162798 7.4913,11.73123 15.42512,26.431173 11.29468,20.92702 16.24549,29.00581 22.81338,37.22717 10.07007,12.60521 18.5311,24.93169 32.26134,46.999996 32.32531,51.9558 51.02882,89.60797 71.28284,143.5 19.95575,53.09838 31.73243,97.0264 40.21356,150 5.80853,36.28041 5.9939,39.26479 5.77649,93 -0.34399,85.02174 -3.03628,139.44493 -11.27908,228 -1.07509,11.55 -3.76256,42.375 -5.97216,68.5 -5.21136,61.6161 -8.42656,91.30633 -14.02174,129.48179 -1.79664,12.2583 -1.80785,13.1294 -0.20121,15.632 1.5494,2.4134 121.18142,139.83339 125.59742,144.27229 1.7089,1.7178 1.7897,2.5081 0.8193,8.0099 -0.5922,3.3572 -5.8875,44.579 -11.7673,91.604 -5.8798,47.025 -11.0262,85.8678 -11.4365,86.3173 -0.4103,0.4494 -32.2862,-21.7571 -70.83531,-49.3478 -38.54913,-27.5908 -70.64125,-49.9811 -71.31582,-49.7563 -0.69768,0.2326 -2.64823,7.2811 -4.52395,16.3478 -4.07966,19.7199 -7.48796,30.9146 -10.9662,36.0189 -1.4692,2.1561 -5.4885,9.8544 -8.93178,17.1075 -9.06746,19.1 -14.05298,23.6016 -31.85124,28.7593 -23.83725,6.9078 -62.67196,8.9908 -103.58716,5.5561 z"
         id="path3004"
         inkscape:connector-curvature="0" />
      <path
         style="fill:#2b76a3"
         d="m 384.07983,1265.7414 c -29.27898,-2.4752 -39.84832,-3.7536 -51.2941,-6.2042 -16.38836,-3.5087 -20.09536,-6.5259 -22.0173,-17.9204 -0.8631,-5.1171 -2.83323,-10.2478 -7.18118,-18.7016 -8.64847,-16.8154 -11.5162,-26.4256 -19.38028,-64.9459 -0.27988,-1.371 -1.1926,-2.25 -2.33618,-2.25 -1.03226,0 -15.31118,8.8293 -31.73095,19.6207 -16.41976,10.7913 -48.65877,31.9992 -71.64224,47.1285 -22.98347,15.1293 -42.0326,27.2634 -42.3314,26.9646 -0.29881,-0.2988 -3.99415,-39.9195 -8.21188,-88.046 -4.21772,-48.1265 -8.00609,-87.8399 -8.41859,-88.252 -1.46539,-1.4637 -0.71584,-4.5433 1.63411,-6.7138 2.11076,-1.9495 119.29221,-129.03159 123.97298,-134.44739 1.81038,-2.0947 1.80458,-2.7347 -0.23094,-25.45166 -3.45801,-38.59235 -3.74037,-43.99968 -7.14379,-136.80293 -0.57486,-15.675 -2.13897,-50.1 -3.47582,-76.5 -6.69846,-132.28159 -8.24481,-233.40228 -4.14416,-271 6.93532,-63.58799 22.97893,-118.43444 57.56702,-196.79782 29.94104,-67.83495 50.88834,-104.01639 91.59137,-158.202176 13.57617,-18.07323 20.11037,-27.92677 30.50412,-46 17.38748,-30.234326 15.91772,-28.009914 17.42087,-26.365534 0.68654,0.751043 7.44594,12.840533 15.02088,26.865534 10.06521,18.63574 15.72987,27.92268 21.04362,34.5 10.81655,13.38865 17.25007,22.69296 31.51129,45.572316 31.71612,50.88237 47.69168,82.21595 67.51881,132.42768 21.51369,54.48287 35.32593,103.66975 44.36822,158 6.47073,38.87908 6.60376,40.94917 6.45831,100.5 -0.21254,87.02518 -2.22429,126.01355 -12.35786,239.5 -2.1609,24.2 -4.87111,55.475 -6.02269,69.5 -2.79953,34.09519 -6.3269,67.02954 -10.5242,98.26249 -1.90418,14.16937 -3.46214,27.0317 -3.46214,28.5829 0,2.3005 11.73161,16.2634 63.63448,75.73759 34.99898,40.1043 64.02398,73.067 64.49998,73.2503 1.0909,0.4201 1.1402,3.8861 0.062,4.3334 -0.4421,0.1833 -5.8212,40.55 -11.9536,89.7036 -6.1325,49.1537 -11.3641,89.5846 -11.6259,89.8463 -0.2618,0.2618 -32.019,-22.0673 -70.57153,-49.6203 -59.49442,-42.5198 -73.03182,-51.7575 -73.04717,-49.8463 -10e-4,0.1375 -1.52256,7.675 -3.38102,16.75 -4.06593,19.8542 -6.78689,29.1584 -10.08937,34.5 -1.36016,2.2 -5.56554,10.3277 -9.34528,18.0616 -9.57084,19.5834 -14.41789,23.999 -31.68232,28.8626 -24.79971,6.9864 -62.55693,9.0343 -103.2059,5.5979 z"
         id="path3002"
         inkscape:connector-curvature="0" />
      <path
         style="fill:#196b9d"
         d="m 399.78573,1265.6272 c -59.21217,-4.5895 -77.20697,-7.5623 -83.95988,-13.8704 -2.21037,-2.0648 -3.04251,-4.123 -4.02716,-9.9607 -0.9398,-5.5717 -2.88536,-10.602 -8.01396,-20.7203 -7.44845,-14.6952 -10.96314,-25.856 -15.99844,-50.8025 -2.6466,-13.1121 -3.87541,-16.4772 -6.03939,-16.5387 -0.29635,-0.01 -32.92135,21.2951 -72.5,47.3412 -70.48412,46.3845 -71.97576,47.303 -72.67184,44.75 -0.39087,-1.4336 -4.11039,-41.9107 -8.2656,-89.9492 l -7.55492,-87.3428 4.7656,-5.1993 c 2.62107,-2.8597 30.86559,-33.4603 62.76559,-68.00139 31.9,-34.5411 58.38016,-63.4709 58.8448,-64.2885 0.48297,-0.8498 -0.0442,-11.4099 -1.23094,-24.65589 -3.44429,-38.44525 -3.79478,-45.1702 -7.12296,-136.6694 -0.57016,-15.675 -2.13769,-50.1 -3.4834,-76.5 -5.88436,-115.43941 -8.09846,-218.25037 -5.47005,-254 5.28181,-71.83899 21.35088,-129.25616 61.35888,-219.24442 15.83278,-35.612 30.26894,-63.59758 47.84728,-92.75558 11.41246,-18.93037 19.20887,-30.201286 40.90675,-59.137046 13.93516,-18.58359 20.19428,-28.07199 31.8038,-48.2125 7.94979,-13.791503 14.59683,-24.932796 14.77119,-24.758432 0.17437,0.174365 6.75729,12.194992 14.62871,26.712502 11.52658,21.25884 16.03623,28.53611 23.17357,37.39548 19.63747,24.37541 55.0284,82.564146 73.5122,120.866646 18.83235,39.02475 38.09152,89.62533 49.91087,131.13335 7.76475,27.26877 15.5073,63.36659 19.9474,93 4.42181,29.51137 4.60625,33.15863 4.47548,88.5 -0.20061,84.89555 -3.07072,140.38843 -12.38703,239.5 -1.08568,11.55 -3.54864,39.79601 -5.47324,62.76891 -4.02438,48.03662 -6.05503,67.27803 -11.18894,106.02085 -2.57542,19.43533 -3.40319,28.50973 -2.75343,30.18453 0.51098,1.3171 28.37906,33.8028 61.92906,72.19029 33.54996,38.3875 62.02686,71.0115 63.28206,72.4978 l 2.282,2.7024 -11.0107,87.8176 c -6.0558,48.2997 -11.2611,89.2562 -11.5673,91.0145 l -0.5568,3.197 -69.78456,-49.947 c -38.38152,-27.4708 -70.52478,-49.9469 -71.42946,-49.9469 -2.24796,0 -3.26116,2.2901 -4.64551,10.5 -1.857,11.013 -7.85561,35.1853 -9.53983,38.4422 -0.8403,1.6249 -2.79001,4.8902 -4.33269,7.2561 -1.54269,2.3659 -4.98894,9.1562 -7.65833,15.0896 -6.12404,13.6121 -10.47457,18.6666 -19.8789,23.0955 -18.90804,8.9046 -60.59626,13.3972 -97.65998,10.5245 z M 708.86469,1079.136 c 0.048,-1.165 0.2849,-1.4019 0.6042,-0.6042 0.2888,0.7219 0.2533,1.5844 -0.079,1.9167 -0.3323,0.3323 -0.5687,-0.2584 -0.5253,-1.3125 z m -589.92107,-9.4167 c 0,-1.375 0.22698,-1.9375 0.50439,-1.25 0.27741,0.6875 0.27741,1.8125 0,2.5 -0.27741,0.6875 -0.50439,0.125 -0.50439,-1.25 z"
         id="path3000"
         inkscape:connector-curvature="0" />
      <path
         style="fill:#175f8a"
         d="m 399.45888,539.7586 c -25.2711,-6.81261 -45.30469,-27.07242 -53.97585,-54.58538 -14.34788,-45.52475 8.796,-95.25076 50.8027,-109.15263 6.79878,-2.25001 9.80183,-2.65624 20,-2.70539 13.81186,-0.0666 20.56555,1.41267 31.79047,6.96295 19.5661,9.67469 35.18851,29.29485 41.75591,52.44117 2.72218,9.59415 3.70658,29.03338 2.00454,39.58427 -5.32526,33.01111 -28.36086,59.95017 -57.67416,67.44725 -10.03054,2.56538 -25.20363,2.56877 -34.70361,0.008 z"
         id="path2998"
         inkscape:connector-curvature="0" />
    </g>
  </g>
</svg>
