<?xml version="1.0" encoding="UTF-8" standalone="no"?>
<!-- Created with Inkscape (http://www.inkscape.org/) -->

<svg
   xmlns:dc="http://purl.org/dc/elements/1.1/"
   xmlns:cc="http://creativecommons.org/ns#"
   xmlns:rdf="http://www.w3.org/1999/02/22-rdf-syntax-ns#"
   xmlns:svg="http://www.w3.org/2000/svg"
   xmlns="http://www.w3.org/2000/svg"
   xmlns:sodipodi="http://sodipodi.sourceforge.net/DTD/sodipodi-0.dtd"
   xmlns:inkscape="http://www.inkscape.org/namespaces/inkscape"
   width="926.85168"
   height="1357.4424"
   id="svg2"
   version="1.1"
   inkscape:version="0.48.5 r10040"
   sodipodi:docname="New document 1">
  <defs
     id="defs4" />
  <sodipodi:namedview
     id="base"
     pagecolor="#ffffff"
     bordercolor="#666666"
     borderopacity="1.0"
     inkscape:pageopacity="0.0"
     inkscape:pageshadow="2"
     inkscape:zoom="0.35"
     inkscape:cx="787.14686"
     inkscape:cy="393.58529"
     inkscape:document-units="px"
     inkscape:current-layer="layer1"
     showgrid="false"
     inkscape:window-width="1042"
     inkscape:window-height="822"
     inkscape:window-x="0"
     inkscape:window-y="27"
     inkscape:window-maximized="0" />
  <metadata
     id="metadata7">
    <rdf:RDF>
      <cc:Work
         rdf:about="">
        <dc:format>image/svg+xml</dc:format>
        <dc:type
           rdf:resource="http://purl.org/dc/dcmitype/StillImage" />
        <dc:title></dc:title>
      </cc:Work>
    </rdf:RDF>
  </metadata>
  <g
     inkscape:label="Layer 1"
     inkscape:groupmode="layer"
     id="layer1"
     transform="translate(412.14686,431.49496)">
    <g
       id="g3022">
      <path
         style="fill:#b3c7d3"
         d="m 58.14868,925.78307 c -1.25394,-0.2337 -106.76659,-24.429 -234.47255,-53.7672 -246.84029,-56.7073 -235.74755,-53.9095 -235.74755,-59.4593 0,-0.9498 57.83737,-253.4625 128.52748,-561.13923 109.94104,-478.51535 128.84888,-559.72465 130.75,-561.57223 3.09898,-3.0117 192.38034,-121.34007 194.09897,-121.34007 4.1882,0 471.1411,108.08901 472.4026,109.35049 1.208,1.20795 1.282,2.49771 0.4192,7.30816 -2.4368,13.58804 -256.3658,1116.64128 -257.477,1118.46618 -1.4289,2.3464 -2.2529,2.8727 -109.72125,70.0666 -45.375,28.3705 -83.4,51.7917 -84.5,52.0471 -1.1,0.2555 -3.02595,0.2732 -4.2799,0.04 z"
         id="path3010"
         inkscape:connector-curvature="0" />
      <path
         style="fill:#98b6c7"
         d="m -173.57142,869.99257 c -127.6,-29.3439 -233.125,-53.9737 -234.5,-54.733 -1.97473,-1.0904 -2.46904,-2.1026 -2.35264,-4.8175 0.0811,-1.8903 57.8113,-254.312 128.28945,-560.93703 91.49458,-398.05991 128.63129,-557.97305 129.85264,-559.15407 2.96656,-2.8686 192.14262,-120.84593 193.77586,-120.84593 2.34936,0 467.57364,106.88057 470.29094,108.04458 2.0701,0.88678 2.2768,1.46143 1.702,4.73238 -1.3327,7.58458 -255.7167,1114.82397 -256.7298,1117.45007 -0.5786,1.4998 -3.3642,4.252 -6.1902,6.116 -7.5106,4.9538 -183.74471,115.1547 -186.32251,116.5092 -1.20134,0.6313 -3.00134,1.1118 -4,1.0678 -0.99866,-0.044 -106.21574,-24.0886 -233.81574,-53.4325 z"
         id="path3008"
         inkscape:connector-curvature="0" />
      <path
         style="fill:#9babb5"
         d="m -173.57142,869.96257 c -127.6,-29.3604 -233.0125,-53.8397 -234.25,-54.3986 -1.51123,-0.6824 -2.25,-1.8857 -2.25,-3.6646 0,-1.4566 50.20586,-221.1788 111.56858,-488.27142 61.36273,-267.0926 119.00087,-518.02291 128.08478,-557.62291 9.0839,-39.6 17.10181,-72.91848 17.81758,-74.04108 1.95953,-3.07331 192.32746,-121.91182 194.94416,-121.69526 2.26619,0.18756 467.13125,106.86001 469.33495,107.69814 2.7136,1.03212 3.3883,-2.31807 -20.2473,100.5382 -4.7395,20.625 -12.3909,53.925 -17.0031,74 -4.6122,20.075 -29.5823,128.75 -55.489,241.5 -25.9067,112.75 -52.7296,229.525 -59.6063,259.5 -6.8767,29.975 -13.808,60.125 -15.4029,67 -1.5948,6.875 -9.8757,42.875 -18.402,80 -51.176,222.83123 -67.769,294.90363 -68.6451,298.16283 -0.7578,2.8194 -2.1898,4.4578 -6.2194,7.116 -7.5673,4.9918 -183.81811,115.2066 -186.41921,116.5734 -1.20134,0.6313 -3.00134,1.1118 -4,1.0678 -0.99866,-0.044 -106.21574,-24.1021 -233.81574,-53.4625 z"
         id="path3006"
         inkscape:connector-curvature="0" />
      <path
         style="fill:#608fab"
         d="m -173.07142,868.62877 c -128.425,-29.5442 -234.34565,-54.0416 -235.37923,-54.4385 -1.51902,-0.5833 -1.78024,-1.4369 -1.36282,-4.4534 1.14122,-8.2469 256.03716,-1115.87709 257.23007,-1117.77291 1.92454,-3.05856 192.30069,-121.91262 194.92708,-121.69526 2.35435,0.19485 467.17825,106.8776 469.46415,107.74773 0.9692,0.36894 1.2268,1.63445 0.8665,4.25681 -1.505,10.95454 -256.1163,1116.03183 -257.6242,1118.15393 -1.6636,2.3413 -189.08684,120.3666 -192.78998,121.4049 -1.00736,0.2824 -106.90657,-23.659 -235.33157,-53.2033 z"
         id="path3004"
         inkscape:connector-curvature="0" />
      <path
         style="fill:#196797"
         d="m -175.48995,866.64287 c -135.8529,-31.285 -233.08312,-54.1339 -233.31349,-54.8283 -0.38568,-1.1625 255.05585,-1114.99251 256.55041,-1118.66522 1.04347,-2.56419 189.86851,-120.86959 193.68161,-121.34821 2.70307,-0.33928 467.24545,105.81049 469.70205,107.3288 0.5601,0.34615 0.7824,2.03465 0.4939,3.75223 -1.0829,6.44746 -255.7461,1114.2089 -256.5854,1116.1229 -0.5022,1.1452 -41.68493,27.5359 -96.36117,61.75 -72.3366,45.2652 -96.18294,59.7228 -98.36675,59.6378 -1.58545,-0.062 -107.69597,-24.2493 -235.80116,-53.75 z"
         id="path3002"
         inkscape:connector-curvature="0" />
      <path
         style="fill:#195b82"
         d="m 63.39759,916.38527 c 0.44365,-1.8447 100.9118,-439.19254 155.09183,-675.13023 4.64154,-20.2125 12.23841,-53.2875 16.88191,-73.5 20.6667,-89.95912 25.93,-112.87214 33.4796,-145.75 41.4148,-180.35755 51.0786,-221.88787 51.7736,-222.49982 0.9401,-0.82767 178.524,-111.97618 185.5541,-116.13698 4.3787,-2.59155 4.75,-2.66099 4.75,-0.88826 0,1.05767 -57.6152,252.7085 -128.0337,559.22405 -92.3446,401.95464 -128.5121,557.75054 -129.75,558.91344 -2.6038,2.4461 -186.09375,117.0428 -188.35233,117.6334 -1.64869,0.4312 -1.87471,0.1289 -1.39501,-1.8656 z"
         id="path3000"
         inkscape:connector-curvature="0" />
      <path
         style="fill:#15577f"
         d="m 65.92858,915.10587 c 0,-0.8345 5.82719,-26.8485 12.9493,-57.809 7.12212,-30.9605 44.94856,-195.5668 84.05877,-365.79183 88.70568,-386.08669 86.40978,-376.092 96.48058,-420 4.6044,-20.075 19.9108,-86.675 34.0142,-148 14.1034,-61.325 26.1614,-113.90424 26.7957,-116.84275 0.812,-3.76169 1.9002,-5.86829 3.6773,-7.11864 7.1864,-5.05605 185.2977,-116.09835 185.6524,-115.74368 0.3623,0.36227 -255.3324,1114.7446 -255.9095,1115.3184 -0.2057,0.2046 -183.78504,115.1527 -186.46875,116.7573 -0.77916,0.4659 -1.25,0.1759 -1.25,-0.7698 z"
         id="path2998"
         inkscape:connector-curvature="0" />
    </g>
  </g>
</svg>
