<?xml version="1.0" encoding="UTF-8" standalone="no"?>
<!-- Created with Inkscape (http://www.inkscape.org/) -->

<svg
   xmlns:dc="http://purl.org/dc/elements/1.1/"
   xmlns:cc="http://creativecommons.org/ns#"
   xmlns:rdf="http://www.w3.org/1999/02/22-rdf-syntax-ns#"
   xmlns:svg="http://www.w3.org/2000/svg"
   xmlns="http://www.w3.org/2000/svg"
   xmlns:sodipodi="http://sodipodi.sourceforge.net/DTD/sodipodi-0.dtd"
   xmlns:inkscape="http://www.inkscape.org/namespaces/inkscape"
   width="1127.726"
   height="1130.259"
   id="svg2"
   version="1.1"
   inkscape:version="0.48.5 r10040"
   sodipodi:docname="furthest-orbit.svg"
   inkscape:export-filename="/home/maartend/htdocs/spacebillboard/docroot/sites/all/themes/sbbtheme/resources/img/our-mission/furthest-orbit.png"
   inkscape:export-xdpi="19.4"
   inkscape:export-ydpi="19.4">
  <sodipodi:namedview
     id="base"
     pagecolor="#ffffff"
     bordercolor="#666666"
     borderopacity="1.0"
     inkscape:pageopacity="0.0"
     inkscape:pageshadow="2"
     inkscape:zoom="0.23520785"
     inkscape:cx="1710.0312"
     inkscape:cy="317.50008"
     inkscape:document-units="px"
     inkscape:current-layer="layer1"
     showgrid="false"
     inkscape:window-width="1600"
     inkscape:window-height="834"
     inkscape:window-x="0"
     inkscape:window-y="27"
     inkscape:window-maximized="1" />
  <defs
     id="defs4">
    <marker
       inkscape:stockid="Arrow2Mend"
       orient="auto"
       refY="0"
       refX="0"
       id="Arrow2Mend"
       style="overflow:visible">
      <path
         inkscape:connector-curvature="0"
         id="path3978"
         style="fill-rule:evenodd;stroke-width:0.625;stroke-linejoin:round"
         d="M 8.7185878,4.0337352 -2.2072895,0.01601326 8.7185884,-4.0017078 c -1.7454984,2.3720609 -1.7354408,5.6174519 -6e-7,8.035443 z"
         transform="scale(-0.6,-0.6)" />
    </marker>
    <marker
       inkscape:stockid="Arrow2Lend"
       orient="auto"
       refY="0"
       refX="0"
       id="Arrow2Lend"
       style="overflow:visible">
      <path
         inkscape:connector-curvature="0"
         id="path3972"
         style="fill-rule:evenodd;stroke-width:0.625;stroke-linejoin:round"
         d="M 8.7185878,4.0337352 -2.2072895,0.01601326 8.7185884,-4.0017078 c -1.7454984,2.3720609 -1.7354408,5.6174519 -6e-7,8.035443 z"
         transform="matrix(-1.1,0,0,-1.1,-1.1,0)" />
    </marker>
    <marker
       inkscape:stockid="Arrow2Mend0"
       orient="auto"
       refY="0"
       refX="0"
       id="Arrow2Mend0"
       style="overflow:visible">
      <path
         inkscape:connector-curvature="0"
         id="path4974"
         style="fill:#1476b6;fill-rule:evenodd;stroke:#1476b6;stroke-width:0.625;stroke-linejoin:round"
         d="M 8.7185878,4.0337352 -2.2072895,0.01601326 8.7185884,-4.0017078 c -1.7454984,2.3720609 -1.7354408,5.6174519 -6e-7,8.035443 z"
         transform="scale(-0.6,-0.6)" />
    </marker>
  </defs>
  <metadata
     id="metadata7">
    <rdf:RDF>
      <cc:Work
         rdf:about="">
        <dc:format>image/svg+xml</dc:format>
        <dc:type
           rdf:resource="http://purl.org/dc/dcmitype/StillImage" />
        <dc:title />
      </cc:Work>
    </rdf:RDF>
  </metadata>
  <g
     inkscape:label="Layer 1"
     inkscape:groupmode="layer"
     id="layer1"
     transform="translate(329.92148,55.31344)">
    <g
       id="g3065">
      <path
         style="fill:#f0ffff"
         d="m 282.72851,1074.3583 c -56.37325,-3.3048 -125.01108,-22.9872 -179.5124,-51.4767 -130.13657,-68.02622 -221.13847,-189.89622 -248.92786,-333.36509 -1.41661,-7.31353 -3.32774,-14.44517 -4.24698,-15.8481 -1.26966,-1.93775 -1.41092,-2.96775 -0.58778,-4.28581 0.79299,-1.26978 0.65338,-4.79655 -0.52064,-13.15191 -2.41336,-17.17568 -2.39201,-95.32878 0.0308,-112.88885 1.12141,-8.12768 1.38016,-12.81266 0.74282,-13.45 -1.46712,-1.46713 -1.19032,-3.35787 0.93235,-6.3685 1.0507,-1.49023 2.20849,-4.95951 2.57287,-7.70951 0.36438,-2.75 2.18997,-11.87168 4.05686,-20.27039 26.72178,-120.21465 100.24336,-226.50982 203.74372,-294.5662 53.76053,-35.35009 117.26264,-60.46377 179.71619,-71.07379 29.68583,-5.04322 68.28415,-7.08366 105.25,-5.56387 36.92761,1.51822 58.06679,4.44441 91.25,12.63126 114.37253,28.21763 215.20053,98.97732 281.32013,197.42653 33.4808,49.85154 58.1122,108.11709 70.19,166.03426 1.6495,7.91021 3.2307,15.3947 3.5136,16.6322 0.3207,1.40301 1.26,2.25 2.4954,2.25 2.3984,0 2.6214,2.5422 0.3352,3.82161 -1.4732,0.82442 -1.5281,1.90438 -0.5243,10.29969 2.5823,21.59274 3.4026,43.18559 2.864,75.3787 -0.8843,52.85651 -3.2107,71.45555 -14.1282,112.95521 -32.1033,122.03164 -113.7005,228.21974 -224.0659,291.59236 -14.7026,8.4424 -46.16,23.6487 -61,29.487 -37.34123,14.6908 -75.51368,24.3942 -117.99993,29.9955 -13.94377,1.8384 -75.62999,2.7965 -97.5,1.5144 z"
         id="path3053"
         inkscape:connector-curvature="0" />
      <path
         style="fill:#c4f7ff"
         d="M 290.974,1074.2947 C 138.50205,1064.219 -0.21884,980.98648 -81.49422,850.81388 c -30.62616,-49.0517 -52.07731,-103.78352 -63.21753,-161.29737 -1.41661,-7.31353 -3.27905,-14.37085 -4.13876,-15.68294 -1.12482,-1.71668 -1.28745,-2.90072 -0.58,-4.2226 0.65961,-1.23251 0.54111,-5.45004 -0.36015,-12.81706 -4.53232,-37.04796 -4.51267,-79.11982 0.0536,-114.84679 1.14324,-8.94477 1.23504,-12.20609 0.37282,-13.24499 -0.87595,-1.05547 -0.73234,-2.00637 0.61316,-4.05986 0.96637,-1.47487 2.8072,-8.33962 4.09073,-15.25501 7.54863,-40.67044 22.81533,-85.33035 42.38926,-124.00197 22.79828,-45.04188 49.68382,-82.53352 84.92822,-118.43162 25.56399,-26.03815 46.50308,-43.41379 76.07134,-63.12541 64.22034,-42.81234 131.90255,-67.59658 210.5,-77.08203 17.7838,-2.14622 66.57738,-2.99637 87.9737,-1.53281 94.96807,6.49606 187.70252,42.9843 263.25842,103.58433 101.1601,81.13605 165.2433,201.25202 175.8006,329.51608 3.6259,44.05144 0.7429,96.95232 -7.3914,135.62782 -19.4719,92.58173 -61.537,171.73433 -126.6085,238.23523 -79.0213,80.75722 -183.3519,130.57832 -295.53282,141.12632 -15.76773,1.4826 -59.6348,2.0568 -75.75451,0.9915 z"
         id="path3051"
         inkscape:connector-curvature="0" />
      <path
         style="fill:#9fe2ff"
         d="m 296.22851,1074.318 c -54.74468,-3.9056 -101.67761,-14.2381 -148.5,-32.6931 -121.4208,-47.85792 -219.34585,-145.78582 -267.30315,-267.31102 -11.06154,-28.03032 -18.25989,-52.48541 -24.07153,-81.77871 -1.8854,-9.50326 -3.97265,-17.93492 -4.63833,-18.73701 -0.69961,-0.84299 -0.93775,-2.54437 -0.56437,-4.03206 0.35528,-1.41554 -0.0381,-8.50888 -0.87422,-15.76299 -3.92215,-34.02895 -3.91562,-74.69704 0.0174,-108.58184 0.86869,-7.48409 1.32795,-14.87022 1.02057,-16.41363 -0.31958,-1.6047 0.0315,-3.74548 0.81995,-5 0.75835,-1.20659 2.12603,-6.46881 3.03929,-11.69381 2.77058,-15.85112 9.35749,-41.34608 15.71988,-60.8446 44.58188,-136.62797 149.23709,-245.97665 284.03994,-296.77825 122.28537,-46.08429 259.74705,-39.5251 376.29455,17.95546 65.1866,32.14965 120.0052,76.42498 164.8784,133.16739 49.232,62.25422 83.2801,139.77452 95.5293,217.5 4.8973,31.07484 5.5514,40.11282 5.5369,76.5 -0.015,36.47295 -0.7737,46.88762 -5.5755,76.5 -20.5085,126.47415 -92.508,240.46565 -198.0851,313.61385 -69.1994,47.94422 -147.51315,76.05852 -232.28398,83.38892 -17.14725,1.4828 -50.95212,2.0036 -65,1.0014 z"
         id="path3049"
         inkscape:connector-curvature="0" />
      <path
         style="fill:#7bc7f4"
         d="m 293.72851,1073.6322 c -85.00927,-4.8176 -172.46885,-35.1723 -242.42957,-84.14042 -84.0406,-58.8232 -147.23787,-143.265 -179.4829,-239.81842 -6.03509,-18.07128 -12.00092,-40.94718 -15.61083,-59.85953 -1.46974,-7.7 -3.24144,-14.90233 -3.93711,-16.00518 -0.71349,-1.13107 -0.95528,-2.87476 -0.55467,-4 0.39061,-1.09715 0.13698,-6.42745 -0.56363,-11.84511 -4.09558,-31.6705 -4.34611,-80.19655 -0.57858,-112.06858 1.03495,-8.75537 1.67828,-16.69687 1.42961,-17.64776 -0.24866,-0.9509 0.005,-2.58388 0.56471,-3.62886 0.55925,-1.04497 2.60594,-9.75347 4.54821,-19.35223 28.79651,-142.31378 121.29178,-263.94298 250.44551,-329.3302 50.95829,-25.79888 111.45763,-43.64862 164.66925,-48.58405 6.6,-0.61216 16.40515,-1.54614 21.78922,-2.07552 33.01538,-3.24618 91.37239,1.4468 131.71078,10.59198 127.35118,28.87199 235.98288,107.09976 303.61908,218.64187 54.0455,89.12917 77.4538,197.41617 64.9162,300.30364 -12.8405,105.37285 -58.0161,200.20255 -131.3283,275.67625 -90.1816,92.84022 -214.0204,144.74332 -342.70698,143.63472 -11.55,-0.1 -23.475,-0.3212 -26.5,-0.4926 z"
         id="path3047"
         inkscape:connector-curvature="0" />
      <path
         style="fill:#2293d6"
         d="m 285.22851,1072.1724 c -101.05816,-7.9184 -198.7487,-49.0496 -274.5,-115.57432 -40.14223,-35.2529 -73.59676,-76.1241 -100.44134,-122.7084 -24.71327,-42.8858 -44.52077,-96.70318 -53.57918,-145.57585 -1.17233,-6.325 -2.51806,-12.85 -2.99053,-14.5 -0.47246,-1.65 -1.67576,-11.55 -2.67399,-22 -2.5669,-26.87172 -2.52146,-82.71074 0.0846,-104 1.00992,-8.25 1.97441,-16.8 2.14332,-19 0.4243,-5.52634 7.53797,-38.45143 11.45096,-53 15.73292,-58.49515 43.5705,-115.13426 80.35868,-163.5 62.52881,-82.20717 152.12763,-142.78056 251.50765,-170.03207 30.29084,-8.30621 67.18791,-14.36156 95.35369,-15.64893 7.79405,-0.35624 13.47174,-1.01864 13.15291,-1.5345 -0.57276,-0.92674 31.77773,-0.41506 43.13319,0.68223 3.3,0.31889 13.2,1.27345 22,2.12126 140.55392,13.54127 270.32432,92.29409 348.83662,211.69582 40.649,61.81912 67.679,137.23962 74.6227,208.21619 0.5918,6.05 1.5851,13.90346 2.2071,17.45213 1.4853,8.47329 1.4699,60.69998 -0.02,69.16686 -0.6177,3.50956 -1.8091,12.63007 -2.6476,20.2678 -5.9686,54.37036 -22.2189,108.58436 -47.5432,158.61326 -23.4446,46.3156 -50.9887,84.181 -88.3988,121.5238 -25.568,25.5219 -43.9656,40.5618 -73.0564,59.7233 -69.356,45.68322 -143.78215,71.18212 -226.89524,77.73602 -15.06459,1.1879 -56.2624,1.1167 -72.10478,-0.1246 z"
         id="path3045"
         inkscape:connector-curvature="0" />
      <path
         style="fill:#2084c0"
         d="m 86.6305,995.42138 c -14.59556,-5.7102 -33.17321,-24.3469 -45.84448,-45.9902 -3.71945,-6.353 -3.98365,-7.4162 -6.61436,-26.6173 -2.10115,-15.3359 -3.33859,-21.2827 -5.30625,-25.5 -3.41427,-7.318 -4.11116,-22.0377 -1.72717,-36.4812 4.40095,-26.6633 4.51849,-28.4466 2.20471,-33.4482 -2.84723,-6.1547 -2.7941,-19.3882 0.12272,-30.5706 1.14769,-4.4 3.29598,-16.9354 4.77398,-27.8563 l 2.68726,-19.85625 -3.48902,-3.64375 c -6.84941,-7.15319 -9.33328,-15.84749 -7.70243,-26.96095 0.53937,-3.67554 1.24398,-7.63045 1.56581,-8.78869 0.477,-1.71671 -0.58448,-2.95628 -5.74381,-6.70749 -10.34392,-7.52077 -15.16281,-12.39944 -27.84125,-28.18662 -15.09475,-18.79597 -18.26281,-24.83091 -18.54541,-35.3278 -0.11361,-4.21971 -0.92678,-10.8222 -1.80706,-14.6722 -1.86815,-8.17058 -2.11757,-23.1259 -0.51202,-30.70078 1.79596,-8.47323 2.41299,-9.50694 25.36471,-42.49341 4.12823,-5.93314 7.15931,-11.6081 8.54581,-16 2.71392,-8.59658 3.02405,-20.43043 0.65443,-24.97105 -0.94856,-1.81759 -6.35202,-6.7019 -12.6912,-11.47185 -9.10972,-6.85466 -11.20177,-8.92333 -11.96854,-11.83477 -0.51105,-1.94048 -2.14887,-8.47814 -3.63959,-14.52814 l -2.7104,-11 -7.83479,-7.5 -7.83479,-7.5 1.3346,-8.76115 c 0.95779,-6.28753 1.02713,-8.99841 0.24558,-9.60149 -0.59897,-0.46219 -5.7587,-3.26082 -11.46607,-6.21918 -16.95522,-8.78857 -27.57517,-20.2386 -29.6426,-31.95953 -0.34356,-1.94774 0.29623,-10.36894 1.42176,-18.71379 1.90601,-14.13142 1.93449,-15.36747 0.4151,-18.01485 -2.17539,-3.79041 -1.42039,-6.28351 4.77854,-15.77933 25.63217,-39.26453 62.45923,-79.12998 102.40424,-110.85303 14.26754,-11.33082 44.49903,-31.50216 61,-40.70099 51.29683,-28.59657 109.37376,-48.09023 164.80547,-55.31735 17.94082,-2.3391 42.93306,-3.89385 50.15701,-3.12023 l 6.45507,0.69128 5.04123,10.55335 c 2.77267,5.80434 5.04122,11.12497 5.04122,11.82363 0,0.69866 -5.0625,5.31732 -11.25,10.2637 -6.1875,4.94638 -12.57169,10.39192 -14.18709,12.10119 -1.6154,1.70927 -3.42227,3.10777 -4.01527,3.10777 -0.593,0 -3.83852,-2.62664 -7.21226,-5.83699 -8.38384,-7.97779 -10.15859,-8.59373 -21.01758,-7.29432 -4.84979,0.58034 -11.2928,1.76384 -14.3178,2.63002 -6.91012,1.97863 -10.86631,1.29405 -14.51193,-2.51116 -1.57424,-1.64315 -3.47099,-2.98755 -4.215,-2.98755 -2.29948,0 -8.56151,3.64111 -13.17839,7.6627 -2.42293,2.11052 -9.17293,6.9873 -15,10.8373 l -10.59468,7 -1.20332,6.5 c -3.0875,16.67779 0.12215,25.55458 9.14748,25.29875 3.93024,-0.11141 14.25632,-5.17105 21.30514,-10.43924 3.41962,-2.55577 6.13512,-5.67131 7.79066,-8.93836 3.03219,-5.98374 4.52902,-6.73555 9.08486,-4.56302 1.89367,0.90303 4.91467,1.64187 6.71333,1.64187 3.59404,0 10.66414,-4.07777 14.66185,-8.45641 3.29864,-3.61296 9.15459,-6.54359 13.07534,-6.54359 2.30432,0 3.86544,0.84224 5.78983,3.12367 4.26816,5.06004 8.48739,9.18441 12.49682,12.21588 6.79831,5.14009 6.72325,8.93398 -0.41038,20.74054 -6.08012,10.06294 -5.20854,12.45101 3.79839,10.40734 3.23599,-0.73425 3.24994,-0.72072 3.23522,3.13757 -0.0173,4.52817 -2.35289,15.15245 -4.58912,20.875 -5.74451,14.70034 -17.92043,17.78524 -30.99049,7.85179 -6.06615,-4.61037 -12.72227,-2.53528 -18.3578,5.72317 -2.13575,3.12978 -4.42389,5.20854 -6.4315,5.84297 -6.62291,2.0929 -16.20211,3.19297 -25.95408,2.98055 -8.9689,-0.19536 -11.45394,0.16455 -21.16223,3.06498 -6.05,1.80749 -15.3844,5.4521 -20.74311,8.09914 -10.88919,5.37891 -17.38246,6.83618 -22.39089,5.0251 -3.16543,-1.14463 -3.5738,-0.98079 -10.57926,4.24444 -10.30147,7.68365 -22.24762,14.35158 -34.6246,19.32627 -6.42091,2.58076 -10.94064,4.99052 -11.37068,6.06247 -0.39257,0.97851 -2.09448,10.77912 -3.78203,21.77912 -4.1776,27.23101 -3.9955,26.42218 -6.21653,27.61084 -3.05474,1.63484 -7.49288,-0.74066 -10.27184,-5.49799 -2.28513,-3.91194 -5.64706,-14.8989 -6.95974,-22.74479 -1.84318,-11.01668 -17.18572,-19.8071 -34.65136,-19.85328 -12.66145,-0.0335 -31.50297,7.31873 -43.65597,17.03514 -8.68536,6.94401 -16.96981,17.26149 -18.81375,23.43072 -6.0943,20.38953 -2.64627,33.6664 9.4488,36.38333 4.11204,0.92369 6.13237,0.76022 18.68184,-1.5116 2.53678,-0.45923 3.71079,0.0476 6.75,2.91393 2.98195,2.81234 3.67912,4.1884 3.67912,7.26178 0,3.30514 -0.74065,4.50953 -5.76945,9.38192 -3.1732,3.0745 -7.4482,6.84668 -9.5,8.38263 -2.96305,2.21809 -3.73055,3.45815 -3.73055,6.0275 0,3.92999 2.13562,7.18152 6.04449,9.20288 l 2.92309,1.51158 -0.63333,16.77445 c -0.74148,19.63916 0.29344,24.53567 6.5275,30.88354 4.75498,4.84178 15.07476,10.91046 22.01441,12.94586 10.32514,3.02836 19.34282,-0.65295 26.14842,-10.67464 2.2293,-3.28279 5.04826,-6.61213 6.26435,-7.39853 5.64713,-3.65181 11.6293,-2.80787 18.3928,2.59478 5.51779,4.40758 24.09401,13.49882 34.59208,16.92943 11.71934,3.8297 18.6517,8.132 27.02543,16.77226 4.29985,4.43671 8.15964,7.45694 10.5,8.2161 2.03542,0.66025 7.75076,3.22321 12.70076,5.69547 25.84177,12.90661 42.05958,30.30382 50.55052,54.22669 1.35593,3.82028 3.87987,8.24018 6.12214,10.72102 4.53873,5.02164 9.38949,12.46243 13.69759,21.0113 2.43689,4.83572 3.75571,6.36732 5.88522,6.83474 27.19557,5.96931 44.53819,14.55255 58.94393,29.17262 l 6.3006,6.39434 0,7.22289 c 0,14.3301 -5.01378,26.61509 -14.9955,36.74261 -3.57747,3.62974 -7.54812,7.2939 -8.82364,8.14258 -1.69176,1.12562 -4.30907,6.82721 -9.67486,21.07582 -4.04565,10.74302 -7.90268,20.57886 -8.5712,21.85743 -2.88453,5.5168 -21.39438,30.0734 -24.39108,32.3591 -4.68962,3.577 -17.71951,9.016 -28.52902,11.9088 -5.10007,1.3649 -9.37879,2.611 -9.50825,2.7692 -5.99782,7.3279 -19.80192,25.5625 -21.50224,28.4035 -1.27856,2.1362 -6.36791,10.0903 -11.30966,17.6756 l -8.985,13.7916 -18.00243,12.2084 c -11.52092,7.813 -21.48316,15.5122 -27.67019,21.3847 l -9.66777,9.1762 -7.73369,17.0413 -7.73369,17.0412 5.08206,27.5747 c 2.79513,15.1661 4.81567,28.0057 4.49009,28.5325 -0.77018,1.2462 -1.12776,1.1954 -6.57194,-0.9346 z m 499.42319,-11.6914 c -4.8246,-4.8247 -2.813,-11.6521 13.6762,-46.4161 5.348,-11.275 10.7223,-23.2001 11.943,-26.5 2.5557,-6.9094 2.3869,-10.0525 -1.5216,-28.33 -2.9691,-13.8848 -3.0456,-20.378 -0.3351,-28.4516 4.0784,-12.1485 9.7141,-21.2769 20.6828,-33.5015 7.6285,-8.502 11.5032,-13.7748 14.1214,-19.2169 3.355,-6.9739 3.6024,-8.1314 3.5261,-16.5 -0.075,-8.2071 -0.5096,-10.1455 -4.9347,-22 -4.7133,-12.62697 -4.8531,-13.31573 -4.8693,-24.00005 -0.017,-10.99233 -0.013,-11.01081 5.8247,-26.5 4.9392,-13.106 5.9174,-16.79308 6.3332,-23.87208 0.4872,-8.29472 -0.9603,-18.34934 -3.0056,-20.87792 -1.3374,-1.65328 -5.6521,-1.53024 -8.7663,0.25 -4.1174,2.35375 -9.2935,1.8834 -12.0757,-1.09732 -1.3333,-1.42852 -4.2243,-3.56602 -6.4243,-4.75 -3.8447,-2.06909 -5.1843,-2.15268 -34.5,-2.15268 -22.697,0 -31.6431,-0.34469 -34.9681,-1.34728 -10.2184,-3.08115 -25.9066,-12.45101 -39.5319,-23.61055 -11.2831,-9.24123 -33.4373,-30.53605 -35.29192,-33.92293 -1.41926,-2.59184 -1.69637,-5.82451 -1.63893,-19.11924 0.0761,-17.62058 2.13541,-30.14108 8.88145,-54 5.9581,-21.07207 6.8819,-30.30975 3.8712,-38.71016 l -1.6882,-4.71016 4.2006,-8.47728 c 6.9363,-13.99795 18.0899,-23.41813 33.3368,-28.1557 5.3801,-1.67174 6.1932,-2.39355 15.857,-14.07652 l 10.1861,-12.31444 8.6429,-2.59991 c 4.7537,-1.42996 12.1145,-3.68009 16.3573,-5.00029 19.4142,-6.04088 39.8838,-5.88937 58.5042,0.43303 4.7911,1.62679 8.6931,2.11542 17,2.12879 11.2043,0.0181 22.0639,1.76531 26.9453,4.33539 1.5599,0.82131 11.5471,8.21354 22.1937,16.42717 l 19.3575,14.93388 16.6425,0.61352 c 9.1534,0.33744 18.6256,0.92055 21.0494,1.29581 l 4.4068,0.68229 -0.6185,-4.51282 c -1.5334,-11.18736 -8.5643,-22.9651 -16.7132,-27.99689 -4.0759,-2.51677 -7.6282,-3.49287 -19.4729,-5.35075 -5.3287,-0.83581 -10.714,-6.46775 -12.489,-13.06103 -1.9864,-7.37793 -2.5991,-7.50848 -7.6691,-1.63393 -7.237,8.3853 -9.7031,7.25921 -14.4746,-6.60934 -2.1046,-6.11718 -4.4269,-10.14066 -5.8529,-10.14066 -0.5117,0 -2.8992,1.99707 -5.3055,4.43793 -5.1599,5.23398 -8.358,6.31672 -12.4331,4.20938 -4.8497,-2.50785 -5.7474,-4.39301 -6.3454,-13.32506 -0.7033,-10.50432 -2.2712,-12.73891 -6.9849,-9.9545 l -3.0437,1.79799 -15.4767,-7.22835 c -8.5121,-3.97559 -15.7203,-6.98456 -16.0183,-6.68659 -0.8027,0.80267 -3.1883,15.1584 -3.9909,24.01561 -0.3852,4.25034 -1.2117,8.42725 -1.8367,9.28202 -1.5235,2.08347 -22.6949,7.40222 -29.5739,7.42968 -7.4444,0.0297 -14.7501,-3.76406 -21.3826,-11.10373 -5.4684,-6.05154 -21.9924,-34.49211 -21.2158,-36.51599 0.6919,-1.8032 16.249,-9.12697 23.0441,-10.84845 3.2781,-0.83047 8.7853,-1.50994 12.2384,-1.50994 5.8804,0 6.8462,-0.35303 15.2425,-5.57141 7.7747,-4.83209 9.8497,-6.76058 15.6366,-14.53272 l 6.6723,-8.96131 -3.2046,-7.63411 c -3.1978,-7.61806 -3.202,-7.65164 -2.0206,-15.97432 0.6511,-4.58711 0.9562,-8.93364 0.6779,-9.65895 -0.3226,-0.84062 -4.1455,-1.78254 -10.5444,-2.59801 -11.1317,-1.41861 -10.8525,-1.23714 -16.5208,-10.73485 -3.9749,-6.66022 -3.0301,-6.18862 -15.8605,-7.91707 -7.624,-1.02707 -11.5954,-6.34992 -14.3159,-19.18727 -1.8108,-8.54438 -1.9473,-28.23489 -0.211,-30.42293 0.9355,-1.17882 4.8532,-1.89288 15.5689,-2.83765 l 14.3188,-1.26245 11.3611,7.72762 c 34.6229,23.54973 71.5374,57.7894 99.2577,92.06543 44.3781,54.8733 77.0474,121.41942 92.6666,188.75837 5.8403,25.17944 10.0445,52.68421 11.2391,73.52809 0.3557,6.20755 1.0273,11.52161 1.4923,11.80902 1.2358,0.76373 1.0838,47.40452 -0.1545,47.40452 -0.5599,0 -1.0002,2.75041 -1.0006,6.25 -8e-4,7.96416 -3.7399,40.93746 -5.0258,44.3196 -0.5355,1.40833 -0.9736,3.94218 -0.9736,5.63077 0,3.89275 -4.2925,24.81977 -8.1637,39.79963 -12.5382,48.51815 -35.6768,99.96965 -64.3093,143.00005 -26.2239,39.4106 -59.5779,75.7679 -97.5243,106.3059 -22.3534,17.9892 -27.4444,20.3433 -32.6775,15.1102 z M 126.72851,440.09204 c -3.63262,-1.67949 -7.2949,-2.19594 -19,-2.67936 -13.35856,-0.55171 -14.5,-0.74813 -14.5,-2.49518 0,-1.44976 2.93949,-3.26641 12.48236,-7.71432 l 12.48235,-5.81799 4.01765,2.49154 c 4.32026,2.67921 8.87702,4.93209 11.90086,5.88383 1.61765,0.50915 1.79374,1.24557 1.24869,5.22212 -0.59596,4.34797 -2.07915,7.42093 -3.50435,7.26051 -0.34516,-0.0389 -2.65256,-1.00686 -5.12756,-2.15115 z m -41.5,-31.44392 c -8.57262,-1.04597 -35.43061,-5.59103 -38.25,-6.47287 -2.4925,-0.7796 -3.25,-1.58114 -3.25,-3.43897 0,-3.27583 6.77721,-9.92789 10.96875,-10.7662 7.86217,-1.57243 9.45581,-1.05071 21.48786,7.0346 3.38134,2.27221 6.37433,3.36097 10.3959,3.78174 14.30146,1.49635 19.45336,2.49424 21.24415,4.11489 2.31188,2.09222 2.36121,2.81179 0.33191,4.84109 -1.22538,1.22538 -3.59267,1.53843 -10.75,1.4216 -5.04821,-0.0824 -10.52857,-0.31455 -12.17857,-0.51588 z M 547.38649,308.31843 c -4.1094,-3.60817 -5.0962,-5.96628 -7.0861,-16.93331 -0.8411,-4.63579 -1.9252,-8.82463 -2.4091,-9.30852 -0.5064,-0.50642 -3.2249,0.27032 -6.4054,1.83018 -3.039,1.49049 -6.1526,2.46937 -6.919,2.17528 -0.7664,-0.2941 -2.688,-2.91325 -4.2702,-5.82035 l -2.8768,-5.28564 2.4406,-2.08112 c 1.3423,-1.14462 4.2101,-3.49237 6.3728,-5.21723 l 3.9323,-3.13611 -1.8336,-5.8166 -1.8335,-5.8166 2.6708,-2.29729 c 4.3285,-3.72322 7.2564,-3.02553 12.9993,3.09762 2.783,2.96719 6.6088,6.17343 8.5019,7.12496 9.3615,4.7054 19.8397,18.51713 24.1952,31.89281 l 2.251,6.91268 -3.8432,3.32216 c -5.6287,4.86566 -13.2292,8.35248 -18.2065,8.35248 -3.3158,0 -5.0306,-0.66878 -7.6805,-2.9954 z M 347.56965,221.38189 c -8.40773,-5.42139 -15.03887,-15.04668 -19.24912,-27.94066 -6.11794,-18.73632 -5.98975,-24.10038 1.00643,-42.11278 5.62445,-14.48074 5.84275,-15.80362 3.78255,-22.92251 l -0.69684,-2.40788 13.40792,0.70115 c 25.44197,1.33045 50.86515,4.5367 73.23043,9.23545 19.05308,4.00289 18.25711,1.79438 7.06487,19.6023 -5.28081,8.40228 -10.22428,15.77354 -10.9855,16.38058 -0.76121,0.60705 -5.55054,1.67603 -10.64295,2.37553 l -9.25893,1.27181 -6.35961,6.62448 c -3.49778,3.64346 -12.68578,14.3678 -20.41776,23.83186 -7.73199,9.46406 -14.61665,17.4217 -15.29925,17.68364 -0.6826,0.26194 -3.19461,-0.7834 -5.58224,-2.32297 z m 60.93388,-3.11212 c -15.77467,-3.87835 -22.38563,-11.97123 -14.23144,-17.42158 5.10063,-3.40931 26.99311,-10.86746 29.81853,-10.15832 3.822,0.95926 9.63789,6.93176 9.63789,9.89742 0,1.41566 -1.48718,4.31735 -3.36417,6.56396 -1.8503,2.21466 -3.88178,6.08224 -4.5144,8.59462 -1.14369,4.54199 -1.17431,4.56755 -5.38583,4.49556 -2.32958,-0.0398 -7.71184,-0.92707 -11.96058,-1.97166 z m -74.96252,-93.63905 c 0.72187,-0.28887 1.58438,-0.25335 1.91667,0.0789 0.33229,0.33229 -0.25834,0.56864 -1.3125,0.52522 -1.16495,-0.048 -1.4019,-0.28494 -0.60417,-0.60416 z"
         id="path3043"
         inkscape:connector-curvature="0" />
      <path
         style="fill:#2081bd"
         d="m 82.99027,991.38948 c -14.65123,-8.0779 -27.10733,-21.0827 -39.60762,-41.3525 l -4.45452,-7.2231 -2.72862,-20 c -2.13833,-15.6734 -3.29568,-21.1899 -5.34981,-25.5 -2.45632,-5.1541 -2.61661,-6.3807 -2.54845,-19.5 0.0511,-9.8287 0.84116,-18.8887 2.65174,-30.4078 l 2.579,-16.4077 -2.15174,-4.0923 c -2.97503,-5.658 -2.9345,-17.894 0.0997,-30.0922 1.74622,-7.0204 7.24856,-43.17005 7.24856,-47.62225 0,-0.49006 -1.16796,-1.90055 -2.59548,-3.13441 -3.74583,-3.2377 -7.15958,-9.50281 -8.4458,-15.50026 -1.05611,-4.92449 -0.59731,-10.80681 1.66837,-21.39008 0.50197,-2.34473 -0.10091,-3.10055 -5.28021,-6.61971 -9.80637,-6.66311 -16.16383,-13.05893 -29.058,-29.23334 -15.29353,-19.18414 -17.73223,-23.81425 -17.90798,-34 -0.0712,-4.125 -0.85434,-10.425 -1.74037,-14 -1.98269,-7.99984 -2.10933,-24.37494 -0.24963,-32.27821 1.55532,-6.60975 5.39024,-13.17697 17.74763,-30.39243 4.8049,-6.69385 9.84856,-13.93276 11.20814,-16.08646 6.41233,-10.15779 8.78796,-29.13836 4.65978,-37.23026 -1.13028,-2.21553 -4.05325,-5.31645 -6.75,-7.16093 -2.61605,-1.78928 -7.4701,-5.37629 -10.78678,-7.97112 l -6.03032,-4.71788 -3.44454,-14.33136 -3.44454,-14.33135 -5.48202,-5 c -9.57579,-8.73381 -10.26951,-9.53314 -9.65761,-11.12773 0.32477,-0.84634 0.85452,-5.21383 1.17721,-9.70553 l 0.58672,-8.16674 -10.83728,-5.17269 c -17.2284,-8.2232 -27.93438,-18.69939 -30.40876,-29.75609 -0.97851,-4.37242 -0.81786,-7.74806 0.99986,-21.00961 1.95764,-14.28241 2.01707,-15.9644 0.61864,-17.50964 -3.09408,-3.41893 -1.87909,-7.16004 6.20348,-19.1013 39.78184,-58.77407 94.00176,-109.06686 156.24949,-144.93239 52.09634,-30.01656 119.57875,-52.79725 171.74679,-57.97823 13.80589,-1.37111 46.30213,-2.49557 49.43038,-1.71043 2.01553,0.50587 3.449,2.63956 7.19384,10.70792 2.57221,5.5419 4.41445,10.50058 4.09387,11.01929 -0.32058,0.51871 -4.04383,3.63755 -8.27388,6.93076 -4.23005,3.2932 -10.29139,8.32493 -13.46965,11.18162 -5.73901,5.15834 -5.78899,5.17923 -7.2842,3.04452 -0.82805,-1.18221 -4.29698,-4.29742 -7.70873,-6.92271 l -6.20318,-4.77324 -8.98395,0.26929 c -5.38515,0.16142 -11.54126,1.05917 -15.36796,2.24111 -8.68958,2.68394 -10.32943,2.51879 -15.17333,-1.52818 -2.30407,-1.925 -4.9515,-3.5 -5.88317,-3.5 -2.72222,0 -8.53276,3.34842 -14.27836,8.22813 -2.93616,2.49366 -9.92616,7.52984 -15.53333,11.1915 -5.60718,3.66166 -10.41959,7.4277 -10.69425,8.36897 -1.08192,3.70776 -2.61059,13.76766 -2.60531,17.14506 0.0154,9.8527 4.52218,16.06634 11.65298,16.06634 9.43559,0 29.53653,-13.36662 32.52367,-21.62741 1.32471,-3.66342 2.91902,-4.10131 6.81777,-1.87259 5.53864,3.16617 13.2426,0.93717 20,-5.78663 4.84412,-4.82004 9.93119,-7.70521 13.59346,-7.70963 2.49459,-0.003 3.92807,0.98605 7.40456,5.10896 2.3711,2.81199 6.49154,6.6792 9.15654,8.59381 4.46674,3.20903 4.84414,3.80594 4.82877,7.63729 -0.0126,3.12989 -1.12376,5.99695 -4.5,11.61059 -2.46583,4.09992 -4.48333,8.69658 -4.48333,10.21482 0,3.71475 3.04294,5.36007 7.2201,3.90391 1.69309,-0.59022 3.2362,-1.07312 3.42912,-1.07312 1.82135,0 -2.02829,17.77183 -5.22469,24.11974 -3.57785,7.10546 -7.47801,9.88026 -13.8873,9.88026 -4.5292,0 -6.18947,-0.58774 -11.29937,-4 -8.48147,-5.66371 -12.94692,-5.60375 -18.61944,0.25 -2.26513,2.3375 -5.01842,5.50046 -6.11842,7.02879 -1.67398,2.32582 -3.3041,3.02584 -10,4.29428 -4.65193,0.88124 -12.39434,1.42906 -18.5,1.30896 -9.54762,-0.18779 -11.58843,0.12439 -22.5,3.44178 -6.6,2.00657 -15.99101,5.66003 -20.86891,8.11881 -10.26066,5.17203 -16.09557,6.38427 -21.74899,4.51847 -3.68481,-1.2161 -4.09047,-1.14423 -6.65309,1.17869 -8.46596,7.67407 -25.46701,17.63718 -39.18685,22.96463 -5.79819,2.25145 -10.93632,4.46566 -11.41806,4.92047 -0.48175,0.45481 -2.58426,11.71528 -4.67225,25.02327 -2.08799,13.30799 -4.23603,24.63603 -4.77343,25.17343 -1.64715,1.64715 -5.13034,-0.19116 -7.6761,-4.05118 -1.33139,-2.01872 -3.37221,-7.4954 -4.53515,-12.1704 -1.16294,-4.675 -2.55775,-10.21548 -3.09957,-12.31217 -2.13335,-8.25542 -12.02684,-15.55363 -24.73653,-18.24758 -9.12334,-1.93379 -15.45222,-1.7878 -24.66713,0.56897 -19.39325,4.95996 -39.73366,19.32654 -48.38619,34.17552 -2.96174,5.08277 -5.25156,15.45926 -5.28871,23.96619 -0.0273,6.25936 0.40467,8.46204 2.33872,11.92471 3.94911,7.07038 6.63207,8.42436 16.69308,8.42436 4.77354,0 10.28976,-0.37315 12.25827,-0.82923 3.08943,-0.71578 4.01295,-0.46419 6.75,1.83889 6.06935,5.10702 3.72692,11.13817 -7.41348,19.0878 -7.22779,5.15764 -8.42542,6.81094 -8.39339,11.5868 0.0244,3.64323 2.02925,6.64966 6.1882,9.27981 l 2.71044,1.71411 -0.60919,16.20503 c -0.7045,18.74057 0.41557,24.09537 6.43332,30.75631 8.0625,8.92422 25.79536,16.91969 34.07896,15.36568 7.69638,-1.44385 14.11278,-6.43802 19.54193,-15.21033 4.80091,-7.75722 12.9067,-8.03321 21.4389,-0.72996 4.6791,4.00514 23.93376,13.35036 32.75976,15.89991 10.48592,3.02905 19.33046,8.37098 27.43544,16.57047 5.46448,5.5282 8.85701,8.0857 12.5,9.42329 15.78306,5.79504 30.20814,15.29962 41.76521,27.51882 9.634,10.18594 13.79126,16.77001 18.49384,29.28969 2.52657,6.7265 4.69489,10.54368 8.26383,14.54795 2.66118,2.98577 7.38214,10.07471 10.49103,15.75319 l 5.65253,10.32453 5.66678,1.13815 c 22.02291,4.42321 43.78232,15.46787 56.06956,28.45981 l 5.36139,5.66888 -0.51379,9.1702 c -0.87016,15.53095 -7.06247,27.61981 -19.29591,37.6702 l -6.69466,5.5 -7.68873,20.55642 c -7.6559,20.46863 -7.73544,20.62163 -18.6299,35.82323 l -10.94118,15.2668 -10.03568,4.9329 c -5.51963,2.7131 -14.1492,5.9727 -19.17684,7.2436 -5.02763,1.2709 -9.86486,2.9113 -10.7494,3.6455 -2.70823,2.2476 -20.95915,26.2186 -24.00737,31.5316 -1.57776,2.75 -6.37736,10.2514 -10.66577,16.6699 l -7.79711,11.6699 -17.78391,12.1026 c -12.14824,8.2673 -20.97942,15.1852 -27.86761,21.8301 l -10.08369,9.7275 -7.7205,17.176 -7.72051,17.176 4.61481,25.324 c 2.53815,13.9282 4.84286,26.1115 5.12159,27.074 0.75648,2.6123 -2.26834,2.1877 -8.36625,-1.1744 z m 504.14752,-9.5738 c -3.1638,-4.8285 -0.978,-11.1403 17.3158,-50.0018 4.4015,-9.35 8.7794,-19.3755 9.7287,-22.2787 1.9705,-6.0266 1.7182,-9.3677 -2.0436,-27.0513 -3.9653,-18.6407 -3.1759,-24.146 6.0052,-41.8807 3.3085,-6.3909 7.1321,-11.5948 14.0116,-19.0702 18.9757,-20.619 22.3165,-33.2428 14.5271,-54.8944 -6.3305,-17.59664 -7.1209,-21.20012 -6.6512,-30.32475 0.3579,-6.95367 1.2102,-10.50113 4.685,-19.5 7.3302,-18.98304 8.1904,-22.76384 7.7496,-34.06135 -0.6456,-16.54727 -4.1728,-20.88237 -13.8426,-17.01326 -5.5538,2.22216 -8.1847,1.96766 -10.9706,-1.06123 -1.3333,-1.4497 -4.4493,-3.5872 -6.9243,-4.75 -4.2772,-2.00951 -6.0345,-2.11446 -35.5,-2.12022 -27.7649,-0.005 -31.5218,-0.20033 -36,-1.86763 -16.8792,-6.28432 -33.3661,-18.15153 -57.6255,-41.4786 -15.67082,-15.06855 -15.87448,-15.47899 -15.87448,-31.99116 0,-12.22775 2.73619,-28.73186 8.14958,-49.15655 7.3737,-27.82075 8.2783,-35.54365 5.177,-44.19675 l -1.6834,-4.69674 3.6457,-7.30326 c 6.6804,-13.38269 17.3326,-22.75276 30.4837,-26.81474 3.6149,-1.11652 7.2404,-2.58319 8.0566,-3.25927 0.8163,-0.67608 5.8474,-6.40424 11.1801,-12.72924 l 9.6961,-11.5 15.982,-4.77552 c 18.5356,-5.53857 24.8057,-6.71356 35.8126,-6.71113 9.9724,0.002 18.683,1.34172 29,4.45962 6.1904,1.87078 11.0538,2.51961 21.5,2.8683 8.4796,0.28304 15.3594,1.04801 18.5,2.05702 3.5501,1.14059 11.0481,6.2454 25.8568,17.60406 l 20.8569,15.99765 11.3573,0 c 6.2465,0 15.8972,0.51624 21.446,1.1472 6.947,0.78995 10.4106,0.8252 11.1226,0.11318 1.4258,-1.4258 -1.343,-12.05681 -5.2032,-19.9783 -3.4265,-7.03133 -10.0086,-14.13939 -15.5109,-16.75042 -2.0392,-0.96768 -6.6817,-2.19489 -10.3166,-2.72713 -11.6989,-1.71301 -17.1287,-6.04363 -18.6162,-14.84764 -1.3954,-8.25959 -4.8994,-8.39486 -10.6334,-0.41049 -4.4995,6.2655 -6.6591,5.80573 -9.6124,-2.0464 -3.6061,-9.58792 -6.6089,-14.96627 -8.5599,-15.33151 -1.1112,-0.20802 -3.8946,1.62928 -7.1901,4.74605 -2.9574,2.797 -6.2696,5.08546 -7.3603,5.08546 -1.0907,0 -3.3108,-1.11717 -4.9335,-2.48261 -2.7534,-2.31684 -2.9802,-3.04941 -3.396,-10.97152 -0.3351,-6.38444 -0.9007,-8.99179 -2.2813,-10.51739 -2.1851,-2.41456 -5.2236,-2.61188 -7.5668,-0.4914 -1.5455,1.39871 -2.903,0.98605 -15.0787,-4.58366 -7.3591,-3.36642 -14.1941,-6.85169 -15.1888,-7.74505 -4.2958,-3.85819 -6.6692,2.15211 -8.8027,22.29163 -0.6409,6.05 -1.6656,11.50225 -2.277,12.11611 -1.7063,1.71294 -21.9112,6.38389 -27.6146,6.38389 -11.501,0 -20.5245,-8.29747 -32.9302,-30.28061 -9.1318,-16.1817 -9.2369,-14.72988 1.433,-19.79438 8.1738,-3.8797 16.6348,-5.92501 24.5104,-5.92501 6.2938,0 7.0023,-0.25862 15.7532,-5.75 7.8539,-4.92844 10.1685,-7.06023 16.1998,-14.92011 3.8701,-5.04356 7.0366,-9.60894 7.0366,-10.14529 0,-0.53635 -1.3548,-4.15905 -3.0108,-8.05045 l -3.0108,-7.07527 1.1876,-9.66359 c 1.4541,-11.83225 1.6792,-11.58185 -11.9763,-13.3221 l -9.8831,-1.25949 -3.6451,-6.15685 c -2.0047,-3.38627 -4.062,-6.79909 -4.5718,-7.58405 -0.5437,-0.83735 -4.7664,-2.07724 -10.2171,-3 l -9.2903,-1.5728 -2.7965,-4.52583 c -1.538,-2.48921 -3.4612,-7.66421 -4.2737,-11.5 -1.5477,-7.30628 -2.0783,-29.00619 -0.7297,-29.83969 0.4303,-0.26595 7.1506,-1.0533 14.9339,-1.74967 l 14.1515,-1.26613 7.3161,4.84766 c 41.2476,27.33077 85.5275,70.39175 117.3738,114.14299 48.0624,66.02906 77.7383,143.92056 87.0147,228.39067 2.1746,19.8011 2.9187,57.44422 1.5321,77.5 -1.5234,22.03397 -3.7888,40.03073 -5.6355,44.77024 -0.8079,2.07363 -1.469,5.96159 -1.469,8.63992 0,13.91708 -12.2609,58.67888 -24.6769,90.08989 -18.7139,47.3438 -44.2172,90.3109 -77.1619,130 -22.7029,27.3505 -63.7871,65.566 -85.107,79.1643 -5.7112,3.6428 -10.3973,3.7679 -12.6449,0.3375 z M 126.72851,437.99462 c -3.57269,-1.62797 -7.38497,-2.16937 -18.5,-2.62725 l -14,-0.57674 7,-3.34675 c 3.85,-1.84072 9.25512,-4.36984 12.01137,-5.62026 l 5.01137,-2.2735 6.4199,3.88185 c 3.53095,2.13502 7.07221,3.88186 7.86948,3.88186 1.1105,0 1.3105,0.85696 0.85503,3.66369 -0.327,2.01503 -0.94837,3.97958 -1.38084,4.36565 -0.43247,0.38608 -2.81131,-0.22077 -5.28631,-1.34855 z m -42.5,-31.38046 c -4.36113,-0.58148 -32.51637,-5.21996 -35.75,-5.88968 -1.72334,-0.35693 -2.75,-1.21672 -2.75,-2.30301 0,-2.18334 4.61186,-6.64484 8.3151,-8.04402 5.42673,-2.05036 10.12795,-1.30665 15.32571,2.42445 9.06447,6.50675 11.7539,7.50531 23.11266,8.58156 10.36937,0.9825 16.00863,2.88825 14.71938,4.9743 -0.56494,0.9141 -16.69034,1.09408 -22.97285,0.2564 z m 464.71678,-98.86103 c -3.1632,-2.21562 -4.7884,-5.90472 -6.1409,-13.9393 -1.8279,-10.85873 -2.995,-14.5 -4.6477,-14.5 -0.8221,0 -3.7653,1.15063 -6.5406,2.55695 -2.7752,1.40633 -5.4728,2.41465 -5.9945,2.24073 -0.5218,-0.17392 -2.0788,-2.21133 -3.4601,-4.52758 l -2.5113,-4.21136 6.0392,-4.68983 c 3.3215,-2.57941 6.0391,-5.43747 6.0391,-6.35123 0,-0.91377 -0.7412,-3.8367 -1.6471,-6.49539 -1.566,-4.59613 -1.5566,-4.90013 0.1911,-6.17814 3.3681,-2.46275 6.1561,-1.58391 10.1561,3.20138 2.0898,2.50005 6.2747,5.926 9.2997,7.61323 8.1182,4.52788 14.4483,11.77225 19.4663,22.27785 5.9002,12.35264 6.112,13.6425 2.7614,16.81405 -7.1142,6.73404 -18.0377,9.67186 -23.0107,6.18864 z m -205.64392,-92.6893 c -7.43049,-7.44007 -11.6396,-15.61686 -15.13786,-29.40738 -3.64369,-14.36386 -3.36531,-17.35502 3.17075,-34.06967 5.5828,-14.27689 6.12552,-17.45271 3.87691,-22.68643 -0.79567,-1.85196 -0.34006,-1.89261 14.17289,-1.26444 19.14115,0.82849 43.19669,3.87918 65.00352,8.24366 9.43749,1.88884 17.42499,3.43426 17.75,3.43426 0.32501,0 0.59093,0.46088 0.59093,1.02417 0,1.55659 -18.20621,30.13099 -19.43047,30.49586 -0.58824,0.17531 -5.40384,1.06204 -10.70134,1.97051 l -9.63181,1.65176 -8.89912,10.17885 c -4.89452,5.59837 -13.77977,16.14135 -19.74501,23.42885 -7.22639,8.8282 -11.5019,13.25 -12.81166,13.25 -1.08118,0 -4.77465,-2.8125 -8.20773,-6.25 z m 66.70885,1.70906 c -10.92587,-2.43537 -17.75653,-7.07639 -17.11207,-11.62659 0.27603,-1.94891 2.09573,-3.03135 11.06567,-6.58238 5.90442,-2.33745 12.75333,-4.78965 15.21979,-5.44932 4.31913,-1.15519 4.62386,-1.08691 8.26469,1.85204 4.84251,3.90896 5.27192,6.70554 1.6139,10.51076 -1.55853,1.62125 -3.54481,5.06019 -4.41396,7.64208 -1.44832,4.30237 -1.86582,4.70876 -5,4.8669 -1.88085,0.0949 -6.21796,-0.45116 -9.63802,-1.21349 z"
         id="path3041"
         inkscape:connector-curvature="0" />
    </g>
    <g
       transform="matrix(0.23708747,0,0,0.23708747,-232.20662,145.60675)"
       id="layer1-9"
       inkscape:label="Layer 1">
      <g
         id="g3022">
        <path
           inkscape:connector-curvature="0"
           id="path3010"
           d="m 58.14868,925.78307 c -1.25394,-0.2337 -106.76659,-24.429 -234.47255,-53.7672 -246.84029,-56.7073 -235.74755,-53.9095 -235.74755,-59.4593 0,-0.9498 57.83737,-253.4625 128.52748,-561.13923 109.94104,-478.51535 128.84888,-559.72465 130.75,-561.57223 3.09898,-3.0117 192.38034,-121.34007 194.09897,-121.34007 4.1882,0 471.1411,108.08901 472.4026,109.35049 1.208,1.20795 1.282,2.49771 0.4192,7.30816 -2.4368,13.58804 -256.3658,1116.64128 -257.477,1118.46618 -1.4289,2.3464 -2.2529,2.8727 -109.72125,70.0666 -45.375,28.3705 -83.4,51.7917 -84.5,52.0471 -1.1,0.2555 -3.02595,0.2732 -4.2799,0.04 z"
           style="fill:#f6ffff" />
        <path
           inkscape:connector-curvature="0"
           id="path3008"
           d="m -173.57142,869.99257 c -127.6,-29.3439 -233.125,-53.9737 -234.5,-54.733 -1.97473,-1.0904 -2.46904,-2.1026 -2.35264,-4.8175 0.0811,-1.8903 57.8113,-254.312 128.28945,-560.93703 91.49458,-398.05991 128.63129,-557.97305 129.85264,-559.15407 2.96656,-2.8686 192.14262,-120.84593 193.77586,-120.84593 2.34936,0 467.57364,106.88057 470.29094,108.04458 2.0701,0.88678 2.2768,1.46143 1.702,4.73238 -1.3327,7.58458 -255.7167,1114.82397 -256.7298,1117.45007 -0.5786,1.4998 -3.3642,4.252 -6.1902,6.116 -7.5106,4.9538 -183.74471,115.1547 -186.32251,116.5092 -1.20134,0.6313 -3.00134,1.1118 -4,1.0678 -0.99866,-0.044 -106.21574,-24.0886 -233.81574,-53.4325 z"
           style="fill:#d1f9ff" />
        <path
           inkscape:connector-curvature="0"
           id="path3006"
           d="m -173.57142,869.96257 c -127.6,-29.3604 -233.0125,-53.8397 -234.25,-54.3986 -1.51123,-0.6824 -2.25,-1.8857 -2.25,-3.6646 0,-1.4566 50.20586,-221.1788 111.56858,-488.27142 61.36273,-267.0926 119.00087,-518.02291 128.08478,-557.62291 9.0839,-39.6 17.10181,-72.91848 17.81758,-74.04108 1.95953,-3.07331 192.32746,-121.91182 194.94416,-121.69526 2.26619,0.18756 467.13125,106.86001 469.33495,107.69814 2.7136,1.03212 3.3883,-2.31807 -20.2473,100.5382 -4.7395,20.625 -12.3909,53.925 -17.0031,74 -4.6122,20.075 -29.5823,128.75 -55.489,241.5 -25.9067,112.75 -52.7296,229.525 -59.6063,259.5 -6.8767,29.975 -13.808,60.125 -15.4029,67 -1.5948,6.875 -9.8757,42.875 -18.402,80 -51.176,222.83123 -67.769,294.90363 -68.6451,298.16283 -0.7578,2.8194 -2.1898,4.4578 -6.2194,7.116 -7.5673,4.9918 -183.81811,115.2066 -186.41921,116.5734 -1.20134,0.6313 -3.00134,1.1118 -4,1.0678 -0.99866,-0.044 -106.21574,-24.1021 -233.81574,-53.4625 z"
           style="fill:#d4eaf8" />
        <path
           inkscape:connector-curvature="0"
           id="path3004"
           d="m -173.07142,868.62877 c -128.425,-29.5442 -234.34565,-54.0416 -235.37923,-54.4385 -1.51902,-0.5833 -1.78024,-1.4369 -1.36282,-4.4534 1.14122,-8.2469 256.03716,-1115.87709 257.23007,-1117.77291 1.92454,-3.05856 192.30069,-121.91262 194.92708,-121.69526 2.35435,0.19485 467.17825,106.8776 469.46415,107.74773 0.9692,0.36894 1.2268,1.63445 0.8665,4.25681 -1.505,10.95454 -256.1163,1116.03183 -257.6242,1118.15393 -1.6636,2.3413 -189.08684,120.3666 -192.78998,121.4049 -1.00736,0.2824 -106.90657,-23.659 -235.33157,-53.2033 z"
           style="fill:#84c5ea" />
        <path
           inkscape:connector-curvature="0"
           id="path3002"
           d="m -175.48995,866.64287 c -135.8529,-31.285 -233.08312,-54.1339 -233.31349,-54.8283 -0.38568,-1.1625 255.05585,-1114.99251 256.55041,-1118.66522 1.04347,-2.56419 189.86851,-120.86959 193.68161,-121.34821 2.70307,-0.33928 467.24545,105.81049 469.70205,107.3288 0.5601,0.34615 0.7824,2.03465 0.4939,3.75223 -1.0829,6.44746 -255.7461,1114.2089 -256.5854,1116.1229 -0.5022,1.1452 -41.68493,27.5359 -96.36117,61.75 -72.3366,45.2652 -96.18294,59.7228 -98.36675,59.6378 -1.58545,-0.062 -107.69597,-24.2493 -235.80116,-53.75 z"
           style="fill:#228dd0" />
        <path
           inkscape:connector-curvature="0"
           id="path3000"
           d="m 63.39759,916.38527 c 0.44365,-1.8447 100.9118,-439.19254 155.09183,-675.13023 4.64154,-20.2125 12.23841,-53.2875 16.88191,-73.5 20.6667,-89.95912 25.93,-112.87214 33.4796,-145.75 41.4148,-180.35755 51.0786,-221.88787 51.7736,-222.49982 0.9401,-0.82767 178.524,-111.97618 185.5541,-116.13698 4.3787,-2.59155 4.75,-2.66099 4.75,-0.88826 0,1.05767 -57.6152,252.7085 -128.0337,559.22405 -92.3446,401.95464 -128.5121,557.75054 -129.75,558.91344 -2.6038,2.4461 -186.09375,117.0428 -188.35233,117.6334 -1.64869,0.4312 -1.87471,0.1289 -1.39501,-1.8656 z"
           style="fill:#227cb2" />
        <path
           inkscape:connector-curvature="0"
           id="path2998"
           d="m 65.92858,915.10587 c 0,-0.8345 5.82719,-26.8485 12.9493,-57.809 7.12212,-30.9605 44.94856,-195.5668 84.05877,-365.79183 88.70568,-386.08669 86.40978,-376.092 96.48058,-420 4.6044,-20.075 19.9108,-86.675 34.0142,-148 14.1034,-61.325 26.1614,-113.90424 26.7957,-116.84275 0.812,-3.76169 1.9002,-5.86829 3.6773,-7.11864 7.1864,-5.05605 185.2977,-116.09835 185.6524,-115.74368 0.3623,0.36227 -255.3324,1114.7446 -255.9095,1115.3184 -0.2057,0.2046 -183.78504,115.1527 -186.46875,116.7573 -0.77916,0.4659 -1.25,0.1759 -1.25,-0.7698 z"
           style="fill:#1d78ae" />
      </g>
    </g>
    <path
       sodipodi:open="true"
       sodipodi:type="arc"
       style="fill:none;stroke:#1ba2f9;stroke-width:10;stroke-linecap:round;stroke-linejoin:miter;stroke-miterlimit:4;stroke-opacity:1;stroke-dasharray:none;marker-end:url(#Arrow2Mend0)"
       id="path4413"
       sodipodi:cx="821.42859"
       sodipodi:cy="326.81238"
       sodipodi:rx="455.71429"
       sodipodi:ry="455.71429"
       d="M 366.83941,294.80925 C 373.52464,199.84875 409.77984,109.3658 470.51546,36.062495"
       transform="matrix(0.70708811,0.70712546,-0.70712546,0.70708811,-141.4136,-392.43649)"
       sodipodi:start="3.2118768"
       sodipodi:end="3.8335027" />
  </g>
</svg>
