<?xml version="1.0" encoding="UTF-8" standalone="no"?>
<!-- Created with Inkscape (http://www.inkscape.org/) -->

<svg
   xmlns:dc="http://purl.org/dc/elements/1.1/"
   xmlns:cc="http://creativecommons.org/ns#"
   xmlns:rdf="http://www.w3.org/1999/02/22-rdf-syntax-ns#"
   xmlns:svg="http://www.w3.org/2000/svg"
   xmlns="http://www.w3.org/2000/svg"
   xmlns:sodipodi="http://sodipodi.sourceforge.net/DTD/sodipodi-0.dtd"
   xmlns:inkscape="http://www.inkscape.org/namespaces/inkscape"
   width="1184"
   height="985.00006"
   id="svg2"
   version="1.1"
   inkscape:version="0.48.5 r10040"
   sodipodi:docname="New document 1">
  <defs
     id="defs4" />
  <sodipodi:namedview
     id="base"
     pagecolor="#ffffff"
     bordercolor="#666666"
     borderopacity="1.0"
     inkscape:pageopacity="0.0"
     inkscape:pageshadow="2"
     inkscape:zoom="0.35"
     inkscape:cx="295.57144"
     inkscape:cy="441.07146"
     inkscape:document-units="px"
     inkscape:current-layer="layer1"
     showgrid="false"
     inkscape:window-width="1600"
     inkscape:window-height="834"
     inkscape:window-x="0"
     inkscape:window-y="27"
     inkscape:window-maximized="1" />
  <metadata
     id="metadata7">
    <rdf:RDF>
      <cc:Work
         rdf:about="">
        <dc:format>image/svg+xml</dc:format>
        <dc:type
           rdf:resource="http://purl.org/dc/dcmitype/StillImage" />
        <dc:title></dc:title>
      </cc:Work>
    </rdf:RDF>
  </metadata>
  <g
     inkscape:label="Layer 1"
     inkscape:groupmode="layer"
     id="layer1"
     transform="translate(606.28572,11.566386)">
    <g
       id="g2996"
       transform="translate(-460,-42.857142)">
      <path
         style="fill:#ffffff"
         d="m -146.28572,523.79076 0,-492.500004 592,0 592.00002,0 0,492.500004 0,492.50004 -592.00002,0 -592,0 0,-492.50004 z"
         id="path3012"
         inkscape:connector-curvature="0" />
      <path
         style="fill:#fefefe"
         d="M 411.93458,1009.2681 C 309.29419,1003.4564 214.51646,966.77602 135.00169,902.09086 105.79082,878.32786 73.32306,843.17327 48.68988,808.63644 22.27372,771.59981 -1.98511,723.30104 -15.77382,680.29076 c -5.1812,-16.16139 -12.0276,-43.18111 -14.79296,-58.38129 l -2.34348,-12.88128 -14.937731,-5.19446 c -28.335644,-9.85346 -57.624579,-22.42208 -72.489869,-31.10724 -9.34808,-5.46169 -22.55105,-17.6596 -23.28187,-21.50956 -2.27717,-11.99624 -2.62626,-17.65898 -1.58905,-25.77686 0.60781,-4.75712 1.85165,-10.19769 2.76408,-12.09014 4.07963,-8.46143 24.98984,-26.36492 39.15898,-33.52823 9.849566,-4.97951 33.456825,-14.15266 52.924766,-20.56513 l 17.424764,-5.73949 3.77078,-18.80569 C 4.41328,267.24698 125.00516,131.24614 287.71428,77.3415 384.33911,45.330225 495.02979,45.508977 592.23427,77.833264 682.9588,108.00272 765.14635,166.9588 822.19279,242.79076 c 42.96609,57.11498 72.84109,124.13025 86.59519,194.25 1.4307,7.29335 2.6549,11.25 3.4811,11.25 1.4339,0 31.9249,10.82072 46.4452,16.48258 5.225,2.03737 20.75,9.24024 34.5,16.00638 27.81732,13.6884 34.85622,18.53539 39.85132,27.44164 l 3.0458,5.4306 0.052,18.5694 c 0.051,18.33701 0.018,18.62589 -2.6025,23.08342 -3.2226,5.48147 -11.6485,13.60604 -18.9517,18.27399 -15.00682,9.59178 -43.56592,21.67189 -79.87052,33.78411 l -23.5239,7.8482 -3.7178,17.28984 c -19.9915,92.97076 -65.15741,174.97628 -132.91918,241.33468 -70.05158,68.60078 -158.00053,113.41878 -253.88584,129.3779 -33.80205,5.6261 -75.41324,7.9426 -108.75688,6.0546 z m 521.7922,-412.53318 c 36.273,-12.36443 60.494,-22.93914 75.67032,-33.03709 18.7278,-12.46102 24.5114,-28.08275 16.7774,-45.3163 -4.42,-9.84925 -10.3939,-14.43613 -34.46022,-26.45933 -11.275,-5.63285 -24.8453,-12.13662 -30.1562,-14.45283 -10.7533,-4.6898 -47.9352,-18.42058 -48.4601,-17.89568 -0.1845,0.18458 0.304,5.25893 1.0856,11.27634 2.7964,21.52808 3.8175,44.37497 3.2152,71.94073 -0.5156,23.59683 -2.3971,49.16289 -4.25,57.75 -0.3273,1.51691 -0.1587,2.75 0.376,2.75 0.5332,0 9.6241,-2.95013 20.202,-6.55584 z m -968.38862,-1.19416 c -3.40448,-11.66168 -4.39123,-94.88599 -1.3961,-117.75 0.86459,-6.6 1.41983,-12.1597 1.23388,-12.35489 -1.29079,-1.35487 -51.562496,17.67319 -63.383885,23.99108 -15.144965,8.09415 -32.365415,23.77982 -37.567695,34.21943 -6.28193,12.60619 -1.6e-4,25.92085 17.74179,37.60499 7.59673,5.0029 26.199649,14.18154 41.74813,20.59842 11.803823,4.87146 39.85594,15.3273 41.31739,15.4002 0.44956,0.0224 0.58748,-0.74673 0.30649,-1.70923 z"
         id="path3010"
         inkscape:connector-curvature="0" />
      <path
         style="fill:#f9f9f9"
         d="m 202.54195,928.91022 c -14.88207,-6.12108 -32.79605,-24.04865 -46.30692,-46.34205 -3.59709,-5.93533 -3.90594,-7.15867 -6.69026,-26.5 -2.22991,-15.49013 -3.55786,-21.69395 -5.62478,-26.27741 -2.52355,-5.59605 -2.70201,-6.9089 -2.6507,-19.5 0.039,-9.56124 0.8224,-18.24674 2.68522,-29.76932 l 2.63022,-16.26932 -2.15375,-4.73068 c -2.88701,-6.3413 -2.8549,-18.53253 0.0796,-30.23068 1.17275,-4.675 3.31945,-17.206 4.77045,-27.84666 l 2.63819,-19.34665 -3.04835,-3.15335 c -1.67658,-1.73434 -4.24848,-5.7797 -5.71532,-8.98969 -2.46414,-5.39245 -2.62815,-6.57134 -2.15644,-15.5 0.28079,-5.31501 0.81719,-10.61167 1.192,-11.77037 0.5606,-1.73306 -0.26374,-2.79175 -4.6477,-5.969 -7.92088,-5.74062 -17.33819,-14.97233 -23.89521,-23.42428 -3.20018,-4.125 -8.3404,-10.59374 -11.42271,-14.37498 -8.62532,-10.58113 -10.67382,-15.36397 -11.61765,-27.12502 -0.44138,-5.5 -1.48863,-12.925 -2.32721,-16.5 -1.75461,-7.48013 -1.9913,-18.83119 -0.57344,-27.5 1.4043,-8.58588 5.36491,-15.91048 18.97353,-35.08894 6.59985,-9.30108 12.96096,-19.38606 14.13579,-22.41106 3.0768,-7.92224 4.44123,-18.51218 3.03877,-23.58522 -1.34198,-4.85425 -2.71749,-6.28294 -15.14103,-15.72634 l -9.5,-7.22116 -3.68531,-14.48364 -3.68531,-14.48364 -7.71901,-7.12356 -7.71901,-7.12355 0.6755,-8.09986 c 0.37153,-4.45491 0.90532,-8.69874 1.18621,-9.43072 0.34196,-0.89114 -2.88649,-3.02594 -9.77119,-6.46113 -12.73818,-6.35584 -21.03189,-12.93703 -26.4384,-20.97927 -6.22285,-9.25657 -6.76837,-13.29861 -4.30078,-31.86644 1.86251,-14.01472 1.90916,-15.64612 0.50474,-17.6512 -1.91391,-2.73249 -1.98846,-7.79259 -0.17749,-12.04639 1.71263,-4.02274 16.51335,-25.11433 26.468,-37.71788 58.50896,-74.07799 137.02832,-128.91524 226.66208,-158.298851 30.35379,-9.950539 56.71147,-15.795302 82,-18.183339 16.44532,-1.552957 55.12221,-2.06248 57.12099,-0.752501 1.49231,0.978046 11.37901,22.054041 11.37901,24.257237 0,0.985544 -3.5435,4.446806 -8.25,8.058541 -4.5375,3.482042 -11.59684,9.388273 -15.68743,13.124953 -4.09058,3.73667 -8.00264,6.79396 -8.69346,6.79396 -0.69082,0 -2.06898,-1.3906 -3.06257,-3.09022 -0.9936,-1.69961 -4.43863,-5.07461 -7.65562,-7.5 -5.32047,-4.011242 -6.3634,-4.409784 -11.53991,-4.409784 -3.12994,0 -8.37286,0.731694 -11.65091,1.625986 -13.50217,3.683558 -18.19228,3.537648 -22.18257,-0.690065 -1.52407,-1.614756 -3.4719,-2.935921 -4.3285,-2.935921 -1.92888,0 -9.91825,5.009491 -11.94903,7.492284 -0.825,1.00862 -6.57108,5.12875 -12.76906,9.15583 -7.67468,4.98655 -11.62579,8.20387 -12.38747,10.08692 -0.61512,1.52073 -1.16904,7.18849 -1.23094,12.59503 -0.10979,9.59086 -0.0443,9.88895 2.69323,12.25 1.54317,1.33097 3.63493,2.41994 4.64835,2.41994 3.35411,0 19.48195,-8.81172 23.22429,-12.68898 2.02312,-2.09606 4.72792,-5.83602 6.01067,-8.31102 2.64095,-5.09557 5.02909,-5.97279 9.69359,-3.56068 3.53931,1.83024 8.35404,2.01768 11.43308,0.44508 1.20134,-0.61357 4.20926,-3.0676 6.68426,-5.45339 5.64391,-5.44049 13.06635,-8.86482 17.37175,-8.01444 2.05291,0.40547 5.20308,2.7604 9.16409,6.85065 3.31972,3.42802 7.93222,7.84286 10.25,9.81074 3.783,3.2119 4.21416,4.03254 4.21416,8.02092 0,3.46017 -0.99539,6.14336 -4.5,12.13029 -4.83898,8.26643 -5.69512,11.46663 -2.75,10.27929 0.9625,-0.38804 3.50935,-0.95508 5.65968,-1.26008 l 3.90967,-0.55455 -0.62985,7.45121 c -0.78498,9.28624 -3.97682,19.94518 -7.75838,25.90858 -6.49632,10.24449 -18.77791,11.88078 -29.06138,3.87188 -1.99664,-1.55501 -4.69664,-3.08421 -6,-3.39823 -3.38205,-0.81485 -8.40267,2.61794 -11.6206,7.94544 -4.06674,6.73278 -10.77486,8.74824 -30.26693,9.0937 -11.80949,0.20931 -14.90565,0.64285 -24.5,3.43065 -6.04021,1.75508 -14.91264,5.13988 -19.71649,7.52177 -10.93855,5.42364 -18.24112,7.2083 -22.87929,5.59142 -2.93987,-1.02484 -3.68089,-0.89568 -6.3571,1.10803 -13.51579,10.11944 -23.64337,15.90821 -39.02933,22.3086 l -10,4.15988 -1.12025,6.40662 c -0.61614,3.52364 -2.35576,14.37939 -3.86582,24.12388 -1.51006,9.74449 -3.31572,18.49699 -4.01257,19.45 -0.79609,1.08871 -2.60644,1.73274 -4.87071,1.73274 -7.07166,0 -12.31191,-8.20146 -15.64976,-24.49325 -2.08283,-10.1662 -2.77606,-11.64171 -7.36071,-15.66709 -6.10907,-5.36383 -13.60925,-7.56141 -26.12018,-7.65332 -9.60942,-0.0706 -12.01133,0.27379 -19,2.72419 -12.30456,4.31429 -20.90597,9.88845 -31.1814,20.20719 -8.591,8.62721 -9.32623,9.69473 -11.43369,16.60119 -2.86094,9.37576 -3.13059,21.84297 -0.57578,26.62167 3.53862,6.6189 9.66994,8.2553 21.75563,5.80643 l 8.17097,-1.65565 3.73811,2.59051 c 10.25062,7.10369 7.04945,17.94136 -8.05213,27.26079 -4.88036,3.01174 -6.51618,6.70112 -4.4019,9.92791 0.87387,1.3337 3.02691,3.29986 4.78452,4.36925 l 3.19567,1.94433 0,19.91323 0,19.91322 3.03956,4.3447 c 4.91226,7.02151 19.02466,15.53201 27.40072,16.52403 8.85725,1.04901 15.59686,-2.79043 21.73115,-12.37986 3.83878,-6.00098 8.04688,-8.62388 13.82857,-8.61932 4.2014,0.003 11.17129,3.01393 13.51477,5.83764 2.1607,2.6035 22.26708,12.30647 32.28508,15.5802 12.41615,4.05741 18.95164,7.99403 27.39575,16.5017 6.09696,6.14287 8.46396,7.76687 15.50293,10.63663 17.10807,6.97489 33.42641,18.5626 43.93558,31.1988 5.68403,6.83446 15.05445,23.92566 16.48338,30.06488 0.38404,1.65 2.57373,5.25 4.86597,8 5.68811,6.824 8.22785,10.60557 12.96699,19.30728 l 4.04955,7.43554 11.27929,2.81545 c 12.73327,3.17837 29.07572,10.51444 38.58254,17.31957 3.376,2.41659 8.95067,7.33123 12.38817,10.92142 l 6.25,6.52763 -0.0148,6.83656 c -0.0383,17.68988 -8.02326,34.26042 -21.36254,44.33168 l -5.389,4.06873 -7.76269,20.71807 -7.7627,20.71807 -11.40139,15.73553 c -8.64702,11.93411 -12.45507,16.35304 -15.76299,18.29161 -6.21243,3.64072 -19.82526,8.91284 -28.21614,10.92783 l -7.17222,1.72235 -9.85856,12.66134 c -5.4222,6.96374 -10.9293,14.46134 -12.238,16.66134 -1.30869,2.2 -6.35731,10.10672 -11.21915,17.57048 l -8.83971,13.57048 -18.75006,12.60239 c -14.49953,9.74549 -20.82851,14.71679 -27.91853,21.92952 -9.01219,9.16816 -9.2905,9.59832 -16.3296,25.23883 l -7.16114,15.9117 5.14801,27.90341 c 6.17962,33.49501 6.25367,33.08764 -5.16114,28.39265 z m 501.2824,-10.01497 c -2.98756,-1.65587 -5.02843,-5.24653 -5.07463,-8.92817 -0.0616,-4.91085 4.65546,-17.07837 15.10382,-38.95961 11.25483,-23.57016 14.86274,-32.4316 14.85663,-36.48954 -0.002,-1.49994 -1.35041,-9.25217 -2.99589,-17.22717 -3.54355,-17.17418 -3.71163,-22.94459 -0.91114,-31.28155 4.31376,-12.84193 10.47453,-22.92479 20.99171,-34.35555 12.55437,-13.6449 16.99375,-21.84051 17.68769,-32.6535 0.43821,-6.82837 0.12303,-8.29666 -4.8844,-22.75439 -5.17829,-14.95103 -5.35127,-15.79741 -5.30473,-25.95501 0.0443,-9.65666 0.35171,-11.30318 3.8281,-20.5 8.32879,-22.03393 8.82078,-24.09369 8.36012,-35 -0.23231,-5.5 -0.96583,-11.0125 -1.63005,-12.25 -1.38564,-2.58159 -4.4407,-2.86317 -8.1373,-0.75 -4.72599,2.70162 -9.41429,1.90165 -14.46282,-2.46782 -7.33686,-6.35001 -12.3505,-6.98035 -44.70727,-5.62083 -22.81753,0.95871 -25.71992,0.52213 -39.56347,-5.95123 -15.94024,-7.45379 -31.184,-19.19257 -53.53126,-41.22287 -10.06041,-9.91772 -11.97998,-12.32249 -13.25,-16.5991 -3.36843,-11.34273 -1.1127,-33.95054 6.2498,-62.63815 8.15567,-31.77811 8.78364,-36.9558 5.57711,-45.98399 l -1.68791,-4.75242 4.19475,-8.74208 c 3.19551,-6.65962 5.80104,-10.34138 10.93791,-15.4559 6.96501,-6.9347 17.83857,-13.33628 24.90415,-14.66179 2.97723,-0.55853 5.07429,-2.53225 13.58099,-12.78217 5.53305,-6.66691 10.63772,-12.46505 11.34371,-12.88477 3.44832,-2.05006 34.94393,-10.85394 42.41431,-11.85595 13.27463,-1.78055 33.20639,0.38257 43.62087,4.73402 2.10629,0.88006 7.12283,1.38505 13.75904,1.38505 11.48157,0 23.66794,1.93915 28.77133,4.57821 1.80916,0.93555 11.99431,8.42438 22.63367,16.64184 l 19.34429,14.94084 15.1854,0.32023 c 8.352,0.17613 17.1679,0.65864 19.591,1.07225 l 4.4056,0.75202 -0.6012,-3.70493 c -1.0999,-6.77793 -6.73,-17.34551 -11.7359,-22.02793 -4.7139,-4.40925 -12.17183,-7.56566 -17.9056,-7.57811 -8.02806,-0.0174 -15.83503,-5.50258 -18.04512,-12.67842 -0.64641,-2.0988 -1.38394,-4.46177 -1.63896,-5.25105 -0.32133,-0.99452 -1.78408,0.003 -4.76501,3.25 -7.21981,7.86388 -11.42234,5.96272 -16.16978,-7.31495 -3.81065,-10.65766 -3.92084,-10.72763 -8.87179,-5.63348 -4.87914,5.02027 -8.49964,6.0487 -13.81157,3.92328 -5.83107,-2.33313 -7.47719,-5.44813 -7.90576,-14.96027 -0.40006,-8.87958 -1.05417,-10.40606 -3.65847,-8.5378 -0.93612,0.67155 -2.24118,1.48231 -2.90012,1.8017 -0.65894,0.31938 -7.66764,-2.38348 -15.57489,-6.00637 -7.90724,-3.62288 -14.84809,-6.58706 -15.42411,-6.58706 -1.18357,0 -1.87816,3.6253 -3.7922,19.79284 -0.73532,6.21107 -1.84078,11.89994 -2.45659,12.64194 -1.91416,2.30641 -26.35782,7.87062 -32.38138,7.3711 -13.19451,-1.09419 -22.21146,-9.40727 -34.97742,-32.24707 -4.84256,-8.66391 -8.6653,-16.47624 -8.49496,-17.36071 0.46462,-2.41258 15.46617,-9.93888 24.32783,-12.20531 4.28545,-1.09604 10.42385,-1.99279 13.6409,-1.99279 5.36786,0 6.52729,-0.43809 14.09004,-5.32391 6.42955,-4.15373 9.63282,-7.12643 14.57385,-13.52481 l 6.33298,-8.20091 -3.13012,-7.5189 c -3.03647,-7.29392 -3.09879,-7.74417 -2.08299,-15.04754 0.57593,-4.14076 1.04714,-8.12461 1.04714,-8.853 0,-0.91007 -2.73718,-1.68634 -8.75,-2.48153 -4.8125,-0.63644 -9.68432,-1.53765 -10.82627,-2.00269 -1.14195,-0.46504 -3.95702,-4.01128 -6.2557,-7.88054 -4.54271,-7.6465 -4.62884,-7.69947 -14.16803,-8.71259 -5.84722,-0.621 -6.87424,-1.0819 -10.2265,-4.58936 -6.09474,-6.37691 -8.26971,-15.06991 -8.2718,-33.06096 -10e-4,-9.88449 0.38122,-15.08073 1.16776,-15.86946 1.15228,-1.15549 22.74526,-3.86823 31.13541,-3.91157 4.92705,-0.0254 8.37722,2.06763 29.69513,18.01482 86.51339,64.71766 148.334,157.10141 175.461,262.20625 16.4419,63.70466 19.4334,132.8786 8.5523,197.7567 -14.2216,84.79536 -50.5777,163.21129 -106.40347,229.5 -17.98013,21.35 -51.13568,53.1303 -70.92159,67.97987 -14.88682,11.17274 -23.23146,14.3652 -29.07817,11.12462 z M 241.21428,373.20085 c -3.79001,-1.38149 -7.98039,-1.83314 -17.31574,-1.86632 -13.36886,-0.0475 -16.18426,-0.83102 -16.18426,-4.50397 0,-2.07144 1.67694,-3.19917 12.58715,-8.46481 6.92293,-3.34125 13.58483,-6.07499 14.80422,-6.07499 1.21939,0 4.44267,1.41203 7.16285,3.13784 2.72018,1.72582 6.52078,3.69278 8.44578,4.37104 3.39211,1.19517 3.49614,1.38613 3.37493,6.19446 -0.23919,9.48815 -2.75413,10.89589 -12.87493,7.20675 z m -42,-31.04736 c -14.4111,-1.8205 -36.07862,-6.04012 -38.25,-7.44897 -5.81987,-3.77609 1.0474,-14.02764 11.02702,-16.46128 6.72803,-1.6407 10.57077,-0.60438 19.08321,5.14643 7.2201,4.87774 7.72653,5.05141 17.61944,6.04256 5.60212,0.56126 11.83598,1.58842 13.853,2.28259 6.50454,2.23854 7.39809,8.39711 1.54143,10.62381 -2.98612,1.13532 -15.13721,1.04488 -24.8741,-0.18514 z M 666.0934,243.85418 c -5.35596,-2.33106 -8.30214,-7.37412 -10.06374,-17.22634 -0.86905,-4.86039 -1.96162,-9.25567 -2.42794,-9.76729 -0.51237,-0.56213 -2.7757,-0.0273 -5.71996,1.35177 -2.67966,1.25508 -5.7007,2.1224 -6.71343,1.92737 -1.08543,-0.20904 -3.30125,-3.14178 -5.39768,-7.14409 l -3.55637,-6.78947 3.96371,-3.20769 c 2.18004,-1.76422 5.05574,-4.13881 6.39043,-5.27685 l 2.42672,-2.06917 -1.75617,-5.28732 c -1.70215,-5.1247 -1.69691,-5.36671 0.17042,-7.86779 2.29676,-3.07626 6.42827,-4.64338 9.92678,-3.76531 1.39483,0.35008 4.58271,2.85833 7.08417,5.5739 2.50146,2.71556 6.9004,6.26494 9.77542,7.8875 6.26296,3.53459 14.23371,12.20199 18.35116,19.95507 3.9706,7.47656 7.39296,17.85612 6.6546,20.1825 -0.72615,2.28788 -8.68345,8.24066 -14.61056,10.93 -5.08556,2.30751 -10.08837,2.51222 -14.49756,0.59321 z M 462.2651,153.77769 c -2.5313,-1.93218 -5.92742,-4.96968 -7.54693,-6.75 -7.3357,-8.06405 -14.60495,-27.4658 -15.63758,-41.73693 -0.53319,-7.368881 -0.4369,-7.766057 5.50795,-22.717762 5.97645,-15.031196 6.03201,-15.262326 4.53171,-18.853053 -0.83541,-1.999412 -1.38101,-4.826421 -1.21245,-6.282242 l 0.30648,-2.646947 11.5,0.274823 c 23.21852,0.554869 50.32783,3.825135 77.5,9.349024 15.11312,3.07238 17.5,3.961496 17.5,6.518785 0,0.768758 -4.6125,8.799234 -10.25,17.845501 -11.36243,18.232841 -10.40724,17.446371 -23.75,19.554671 -4.125,0.65179 -7.99524,1.4713 -8.60054,1.82114 -1.67533,0.96826 -15.55193,17.04371 -28.39946,32.89958 -13.1534,16.23335 -13.80439,16.55881 -21.44918,10.72341 z m 63.62756,-1.53394 c -9.09005,-2.05185 -13.72869,-4.44142 -17.63616,-9.08518 -4.21158,-5.00518 -3.04327,-9.58566 3.24122,-12.70749 2.04411,-1.01541 8.97233,-3.77362 15.39605,-6.12936 8.54848,-3.13495 12.4225,-4.09669 14.45111,-3.58754 3.86913,0.97109 11.3694,8.69109 11.3694,11.70249 0,2.48387 -2.44147,6.77867 -4.60978,8.10908 -0.67676,0.41525 -2.20311,3.67775 -3.39188,7.25 l -2.1614,6.49501 -4.16847,-0.0843 c -2.29266,-0.0464 -7.9132,-0.92958 -12.49009,-1.9627 z"
         id="path3008"
         inkscape:connector-curvature="0" />
      <path
         style="fill:#f3f3f3"
         d="m 202.69012,927.97045 c -14.87714,-6.12101 -32.29837,-23.61455 -45.63189,-45.8213 -3.86881,-6.44344 -4.06955,-7.23417 -6.72754,-26.5 -2.10635,-15.26742 -3.36124,-21.2455 -5.42807,-25.85839 -2.52058,-5.62559 -2.68359,-6.87362 -2.61225,-20 0.0531,-9.775 0.84014,-18.82857 2.60786,-30 l 2.53178,-16 -2.08086,-4 c -2.93151,-5.6352 -2.86126,-19.8311 0.1559,-31.5 1.20878,-4.675 3.32407,-16.97998 4.70064,-27.34439 l 2.50284,-18.84439 -3.43311,-4.01082 c -8.15544,-9.5278 -9.93447,-19.89562 -6.14306,-35.8004 0.51064,-2.14212 -0.085,-2.95856 -4.16106,-5.70331 -8.06119,-5.42829 -16.05577,-13.15167 -24.52752,-23.69546 -4.46389,-5.55568 -10.12899,-12.57311 -12.58912,-15.59429 -7.08473,-8.70051 -10.45877,-16.89643 -10.67601,-25.93329 -0.10013,-4.16551 -0.91393,-10.49865 -1.80843,-14.07365 -1.98315,-7.92589 -2.13822,-24.31844 -0.30377,-32.11163 1.62707,-6.91216 6.35345,-15.486 15.49223,-28.10353 16.16683,-22.32083 18.22957,-26.22835 20.13194,-38.13672 1.34777,-8.43675 -0.15968,-16.04883 -3.84973,-19.43975 -1.44464,-1.32753 -6.77688,-5.53648 -11.84943,-9.35323 -7.62101,-5.73429 -9.3926,-7.58351 -10.20038,-10.64734 -0.53766,-2.03929 -2.20343,-8.63707 -3.7017,-14.66173 -2.64735,-10.64515 -2.86645,-11.08207 -7.77257,-15.5 -10.20109,-9.186 -10.84052,-9.96171 -10.22691,-12.40651 0.31889,-1.27056 0.86364,-5.42173 1.21057,-9.22483 l 0.63077,-6.91473 -9.35848,-4.62692 c -17.62388,-8.71341 -28.06905,-18.90986 -31.51543,-30.76496 -1.49203,-5.1324 -1.45936,-6.47671 0.52181,-21.47486 1.87519,-14.19585 1.94558,-16.18524 0.62431,-17.64523 -0.87048,-0.96187 -1.48917,-3.58173 -1.48917,-6.30596 0,-4.19586 0.85435,-5.92774 8.57007,-17.37264 31.6309,-46.91881 75.15944,-90.4717 124.42993,-124.49953 58.80547,-40.613007 138.96239,-71.486825 200.5,-77.226038 21.04873,-1.963078 49.97573,-2.969885 55,-1.914281 3.87964,0.815117 4.15579,1.156211 9.17746,11.33541 2.8476,5.772253 5.20986,11.395005 5.24948,12.495005 0.0495,1.374127 -2.66601,4.114808 -8.67746,8.757948 -4.81221,3.716872 -11.82171,9.553586 -15.57665,12.970476 l -6.82718,6.21252 -3.38024,-4.06937 c -1.85914,-2.23815 -5.81722,-5.74777 -8.79574,-7.799156 l -5.41548,-3.729789 -9.3771,1.037174 c -5.1574,0.570446 -11.85209,1.747407 -14.87709,2.615469 -6.9082,1.982392 -10.86524,1.298602 -14.51193,-2.507725 -1.57424,-1.643151 -3.47541,-2.987547 -4.22482,-2.987547 -2.27989,0 -6.73106,2.685131 -12.22479,7.374494 -2.87275,2.45214 -9.69056,7.30853 -15.15067,10.79197 -11.04476,7.04634 -11.34098,7.51783 -12.51966,19.92739 -1.03357,10.88165 2.37175,17.39494 8.99634,17.20716 4.49604,-0.12745 16.84118,-6.52761 22.30434,-11.56338 2.4806,-2.28653 5.62605,-6.35941 6.9899,-9.05083 2.71964,-5.36695 2.74538,-5.37258 11.90171,-2.60301 5.65251,1.70975 8.48145,0.70367 15.41342,-5.48161 6.92444,-6.17856 11.45919,-8.60218 16.0952,-8.60218 2.7388,0 4.33059,1.11676 9.84887,6.90971 3.62015,3.80034 7.84259,7.69217 9.3832,8.6485 3.67938,2.28397 6.03647,6.9257 5.23013,10.29949 -0.34733,1.45327 -2.66023,6.16469 -5.13977,10.46983 -2.47954,4.30513 -4.35224,8.58013 -4.16155,9.5 0.34928,1.68488 1.09919,1.7372 7.52008,0.52457 l 3.25,-0.61378 -0.0174,4.38084 c -0.0459,11.58083 -5.11181,25.70599 -11.4079,31.8084 -2.92538,2.83539 -4.43189,3.47898 -9.0376,3.86092 -6.18381,0.51281 -10.00898,-0.67376 -15.98414,-4.95827 -5.75341,-4.1255 -9.83137,-3.84092 -14.42065,1.00633 -1.99779,2.1101 -4.42998,5.02068 -5.40485,6.46795 -2.83135,4.20332 -10.01431,5.88414 -26.93983,6.30394 -12.95691,0.32136 -15.99949,0.74369 -25.5,3.53953 -5.93322,1.74604 -15.19857,5.32798 -20.58966,7.95986 -11.00792,5.37394 -17.34934,6.78164 -22.37063,4.96592 -3.12793,-1.13107 -3.59029,-0.99409 -7.57926,2.24554 -10.37007,8.42201 -30.94926,19.75059 -42.48277,23.38621 -3.76753,1.18761 -5.46229,2.27968 -5.79831,3.7363 -0.26114,1.13202 -2.04603,12.18321 -3.96644,24.55821 -2.98014,19.20394 -3.80151,22.75636 -5.6069,24.25 -6.09468,5.04224 -12.66111,-1.77234 -16.79219,-17.4268 -1.06289,-4.02776 -2.22352,-9.0511 -2.57918,-11.16297 -0.8575,-5.0919 -7.10538,-11.80439 -13.57974,-14.58958 -23.62239,-10.16208 -55.81484,0.70982 -75.74849,25.58148 -5.75483,7.18041 -8.53081,16.24829 -8.52227,27.83841 0.008,10.59068 3.23226,15.57909 11.23199,17.37651 4.1109,0.92366 6.001,0.76893 18.83483,-1.54191 2.81431,-0.50674 3.76421,-0.0576 7.25,3.42821 7.52211,7.52211 4.76793,14.72569 -9.2302,24.14165 -7.43333,5.0001 -7.73028,10.87257 -0.78228,15.47053 l 4.01046,2.654 -0.64701,16.40546 c -0.7447,18.88234 0.0479,23.33119 5.23661,29.39304 5.78528,6.75879 21.81293,15.19511 28.8327,15.17639 7.45014,-0.0199 14.59081,-4.83769 20.23194,-13.6505 4.34501,-6.78797 10.00114,-9.26404 16.80836,-7.35813 2.45688,0.68788 6.17528,2.71288 8.26313,4.49999 5.31447,4.549 23.04425,13.24749 33.9793,16.67076 11.03799,3.45549 22.16406,10.51457 28.78229,18.26129 3.60929,4.22471 5.81752,5.78508 10.71332,7.57018 29.68963,10.82538 53.80453,34.445 62.29134,61.01199 1.03966,3.25451 3.27854,7.13308 5.48382,9.5 4.77503,5.12501 7.47436,9.0914 12.48802,18.34982 2.22725,4.11293 4.72455,7.80629 5.54955,8.20745 0.825,0.40117 4.86674,1.47141 8.98165,2.37832 18.41297,4.05816 37.04094,13.85607 49.69769,26.13992 l 8.32066,8.0755 0,7.4644 c 0,17.36247 -7.86928,33.50555 -21.26215,43.61726 l -5.31528,4.01308 -7.66376,20.54477 -7.66377,20.54476 -11.64649,16.10821 -11.64649,16.10821 -9.15103,4.43226 c -5.03307,2.43775 -13.42603,5.61218 -18.65103,7.05428 -5.225,1.44211 -9.99353,2.77037 -10.59673,2.95169 -1.366,0.41061 -20.16838,24.57155 -23.35426,30.01007 -1.28876,2.2 -6.34542,10.075 -11.23702,17.5 l -8.89382,13.5 -17.70908,11.73169 c -14.26529,9.45028 -19.67975,13.72852 -27.8428,22 l -10.13367,10.26831 -7.12499,15.83941 -7.12498,15.83941 5.07254,27.52303 c 2.78989,15.13767 4.83293,28.14743 4.54008,28.91059 -0.72228,1.88223 -2.15417,1.72728 -8.61939,-0.93275 z m 499.94724,-11.60277 c -5.49192,-5.49192 -3.75085,-11.83674 12.74377,-46.44099 5.73201,-12.02525 11.37401,-24.76462 12.53779,-28.30973 l 2.11596,-6.44565 -3.1603,-16.32322 c -3.57483,-18.46429 -3.84204,-23.87976 -1.56049,-31.62583 3.46533,-11.76513 10.81014,-23.90463 21.42066,-35.40407 7.25522,-7.86304 11.0841,-12.98343 13.76524,-18.40834 3.49221,-7.06601 3.70928,-8.05659 3.63044,-16.56723 -0.0761,-8.21657 -0.52473,-10.25148 -4.86148,-22.05186 -3.99785,-10.87822 -4.85782,-14.46892 -5.26895,-22 -0.5305,-9.71753 -0.40248,-10.23614 9.13342,-37 2.95699,-8.29923 3.56449,-11.37226 3.57192,-18.0685 0.005,-4.44514 -0.69559,-10.4409 -1.5599,-13.35137 -1.52452,-5.13362 -1.65872,-5.26886 -4.75,-4.78697 -1.74964,0.27275 -4.96449,1.17079 -7.1441,1.99566 -4.72116,1.7867 -7.53553,0.99483 -11.48296,-3.23091 -5.09833,-5.45777 -10.32961,-6.17429 -42.69931,-5.84841 l -28.85479,0.2905 -7,-2.87805 c -10.42802,-4.28748 -21.47067,-11.11205 -33.30554,-20.58345 -12.8529,-10.28613 -35.74309,-32.28843 -37.95811,-36.48575 -1.132,-2.14507 -1.73524,-6.62074 -2.02882,-15.05275 -0.59137,-16.98513 2.25352,-33.01682 12.33308,-69.5 2.6519,-9.59861 3.02386,-20.29502 0.92089,-26.48186 l -1.84019,-5.41374 4.36078,-8.8022 c 6.97131,-14.07158 16.47256,-22.36843 32.31022,-28.21451 6.96656,-2.57153 7.41908,-2.95568 17.47545,-14.83496 l 10.3237,-12.19507 9.70427,-2.97761 c 23.64852,-7.25618 27.8056,-8.20998 38.27952,-8.78284 12.08566,-0.66101 23.66713,0.73303 34.90109,4.20097 5.72651,1.76778 10.74836,2.43677 21.02366,2.80066 19.94559,0.70637 21.12486,1.2223 45.24683,19.7955 l 20.25317,15.59434 17,0.67991 c 9.35,0.37395 18.5298,0.95494 20.3995,1.29109 l 3.3994,0.61119 -0.6811,-4.38543 c -0.9905,-6.37642 -6.7813,-17.98223 -11.1544,-22.35537 -4.574,-4.57405 -10.1029,-7.10702 -17.4634,-8.00069 -8.53787,-1.03661 -11.586,-2.32873 -15.36749,-6.51438 -3.09706,-3.42809 -5.61072,-9.13044 -5.62693,-12.765 -0.0104,-2.3253 -1.7209,-1.2683 -4.547,2.80977 -4.62159,6.66896 -8.99805,7.80649 -12.27386,3.19023 -1.07331,-1.5125 -3.19162,-6.24968 -4.70737,-10.52706 -1.51575,-4.27739 -3.20394,-8.05397 -3.75154,-8.3924 -0.54761,-0.33844 -2.72295,1.25532 -4.83411,3.54169 -6.57666,7.12247 -12.0662,7.69276 -17.63037,1.83156 -2.77767,-2.92595 -3.08017,-3.92245 -3.48814,-11.49055 -0.48536,-9.00397 -1.68364,-11.48821 -4.55071,-9.4344 -0.94737,0.67864 -2.26158,1.49519 -2.92049,1.81456 -1.1282,0.54684 -27.27154,-10.66235 -30.12821,-12.91773 -0.95046,-0.7504 -1.56202,-0.66552 -2.15849,0.29959 -0.93359,1.51058 -2.67075,12.81854 -3.65327,23.78076 -0.35768,3.99081 -1.1588,7.95139 -1.78026,8.80128 -1.58161,2.16297 -22.82597,7.39437 -30.13542,7.42081 -12.46916,0.0451 -23.11144,-8.94434 -34.36279,-29.02593 -3.52905,-6.2987 -7.34355,-13.10404 -8.47667,-15.12298 -1.95166,-3.47738 -1.96977,-3.77073 -0.34368,-5.56754 2.59747,-2.87017 15.40436,-8.85868 22.80069,-10.66163 3.61014,-0.88002 9.46014,-1.62257 13,-1.65011 6.13455,-0.0477 6.83401,-0.31714 14.92839,-5.75 6.51857,-4.3752 9.95692,-7.60877 14.79424,-13.91317 l 6.30196,-8.21325 -3.14499,-7.55461 -3.145,-7.55461 1.21607,-8.56683 c 0.68188,-4.80367 0.83595,-8.91739 0.35075,-9.36489 -0.47592,-0.43893 -4.69031,-1.32471 -9.36531,-1.96841 -4.675,-0.64369 -9.2465,-1.38876 -10.15889,-1.65572 -0.91239,-0.26695 -3.50671,-3.59572 -5.76516,-7.39725 -2.25845,-3.80154 -4.48326,-7.14488 -4.94402,-7.42964 -0.46076,-0.28477 -4.16644,-1.02164 -8.23484,-1.63749 -4.0684,-0.61585 -8.38867,-1.75186 -9.60059,-2.52447 -3.42374,-2.18266 -7.20977,-9.51434 -8.8076,-17.05601 -1.61236,-7.61019 -1.98637,-30.02877 -0.53914,-32.31652 0.9809,-1.5506 18.35174,-3.9064 29.48091,-3.99815 5.54281,-0.0457 6.4257,0.29078 13.5,5.14508 50.44006,34.61136 94.93128,79.87192 128.58254,130.80602 42.81829,64.80917 68.41399,137.23416 76.68989,217 0.8123,7.8292 1.2747,25.3914 1.2375,47 -0.05,29.17202 -0.4005,37.30937 -2.268,52.69137 -12.0387,99.15684 -51.6292,187.58541 -117.21638,261.81255 -19.13882,21.66001 -52.24239,52.14594 -68.92532,63.4751 -12.79797,8.69093 -19.16781,10.03792 -24.10782,5.0979 z M 241.71428,372.68576 c -5.41948,-1.93783 -8.52448,-2.33008 -18.67857,-2.3596 -9.81578,-0.0285 -12.49015,-0.34697 -13.78452,-1.64135 -2.41196,-2.41195 -0.60956,-3.9255 11.43958,-9.6063 15.72242,-7.41264 13.9958,-7.17817 21.18407,-2.87675 3.48669,2.08641 7.5273,4.08109 8.97914,4.43261 1.45183,0.35152 2.89606,1.3072 3.2094,2.12374 0.74909,1.9521 -1.88639,10.62272 -3.54948,11.67765 -1.53615,0.97441 -0.73445,1.13385 -8.79962,-1.75 z m -40.5,-31.08113 c -9.09617,-1.1718 -34.46322,-5.55595 -37.24229,-6.43653 -4.23657,-1.3424 -5.46613,-3.58165 -3.75936,-6.84645 3.24875,-6.21437 9.8351,-10.03089 17.31079,-10.03089 3.87968,0 5.45592,0.73508 14.19086,6.61791 6.2437,4.20503 6.93373,4.42058 17.5,5.46675 6.05,0.59902 12.44596,1.76844 14.21324,2.59873 4.28472,2.013 5.24011,5.12621 2.30301,7.50454 -1.84913,1.49733 -3.91206,1.78605 -11.87703,1.66224 -5.30157,-0.0824 -10.98922,-0.32375 -12.63922,-0.5363 z m 463.9572,-99.1769 c -4.44353,-2.70975 -6.31436,-6.18225 -8.01931,-14.88489 -0.83529,-4.26364 -1.73411,-8.76458 -1.99736,-10.00208 -0.59019,-2.77439 -2.37478,-2.83435 -7.44053,-0.25 -6.15531,3.14021 -7.34042,2.71469 -10.86697,-3.9018 -1.7301,-3.24598 -2.9035,-6.50848 -2.60756,-7.25 0.29593,-0.74151 2.99877,-3.11438 6.0063,-5.27305 3.00752,-2.15867 5.46823,-4.44101 5.46823,-5.07186 0,-0.63086 -0.707,-3.22196 -1.57112,-5.758 -1.82603,-5.3591 -0.88519,-8.24111 3.19702,-9.79316 4.65501,-1.76983 6.59157,-1.03882 12.11441,4.57291 2.99064,3.03877 7.29297,6.47161 9.56072,7.62854 5.68775,2.90167 13.88809,11.57146 18.14532,19.18409 4.41964,7.90307 7.7973,17.49443 7.12139,20.22223 -0.28073,1.13294 -2.52628,3.50758 -4.99011,5.27696 -9.84217,7.06812 -18.20708,8.90618 -24.12043,5.30011 z M 464.64632,154.46262 c -11.27052,-7.14756 -19.3532,-21.08364 -23.48187,-40.48724 -2.46887,-11.60298 -2.04179,-14.737542 4.22339,-30.997531 5.50782,-14.29443 5.66593,-14.968715 4.51702,-19.264351 -2.45749,-9.188274 -3.01564,-8.816361 12.05942,-8.035629 19.33237,1.001216 39.69431,3.28108 59.13536,6.621205 23.87267,4.101514 32.02328,6.159518 32.41321,8.184238 0.28309,1.469976 -15.17778,27.349332 -19.6065,32.818578 -1.3498,1.66693 -4.12425,2.58697 -12.14611,4.0278 -6.89773,1.23891 -10.94785,2.4721 -12.03433,3.66422 -6.20595,6.80936 -16.96149,19.45504 -24.49259,28.79685 -9.58964,11.89529 -14.56004,17.5 -15.51943,17.5 -0.33443,0 -2.61483,-1.27266 -5.06757,-2.82814 z m 62.10808,-2.76203 c -15.49114,-3.4403 -23.83708,-11.75872 -18.29012,-18.22981 1.78231,-2.07925 27.50778,-12.18002 31.02107,-12.18002 1.06087,0 3.77298,1.33588 6.02691,2.96862 7.07552,5.12547 7.92263,9.00213 3.15392,14.43339 -1.67646,1.90938 -3.81396,5.86253 -4.75,8.78479 l -1.7019,5.3132 -4.5,0.17222 c -2.475,0.0947 -7.40695,-0.47335 -10.95988,-1.26239 z"
         id="path3006"
         inkscape:connector-curvature="0" />
      <path
         style="fill:#ebebeb"
         d="m 200.91038,926.30694 c -11.76071,-5.56373 -22.42992,-15.2257 -33.90594,-30.705 -12.6038,-17.00047 -12.69091,-17.22205 -16.09989,-40.95082 -2.07424,-14.4381 -3.68354,-22.40693 -5.07644,-25.13723 -4.29866,-8.42607 -4.78812,-20.21896 -1.60719,-38.72313 0.75638,-4.4 1.92438,-12.34763 2.59555,-17.6614 1.17031,-9.2654 1.12664,-9.87918 -1.06543,-14.97479 -2.0049,-4.66052 -2.2193,-6.42234 -1.7449,-14.3386 0.29747,-4.96387 1.29079,-11.72521 2.20737,-15.02521 0.91658,-3.3 2.93715,-15.21702 4.49016,-26.48227 l 2.82366,-20.48226 -3.5192,-3.89533 c -7.14698,-7.91086 -9.61289,-18.69577 -7.05713,-30.86503 0.7768,-3.69868 1.15381,-7.07368 0.83782,-7.5 -0.316,-0.42631 -3.94954,-3.33257 -8.07454,-6.45836 -9.66603,-7.32459 -13.45654,-11.30734 -26.9499,-28.31675 -13.82481,-17.42722 -16.37115,-22.38938 -16.67749,-32.5 -0.12498,-4.125 -0.98096,-10.65 -1.90218,-14.5 -2.14982,-8.98465 -2.13117,-25.85019 0.0376,-34 1.83848,-6.90862 6.32433,-14.37177 20.43623,-34 8.13142,-11.30997 10.54487,-15.49904 12.56058,-21.80162 3.04183,-9.51096 3.33977,-20.45841 0.69185,-25.42072 -0.97348,-1.82434 -6.46111,-6.81358 -12.64878,-11.5 l -10.9293,-8.27766 -3.6879,-14.73808 -3.68789,-14.73808 -5.36,-4.76192 c -9.96554,-8.85356 -10.13621,-9.07876 -9.52389,-12.56736 0.30839,-1.75701 0.8541,-5.93796 1.21268,-9.29099 l 0.65197,-6.09644 -9.41685,-4.58103 c -9.85114,-4.7923 -21.81266,-13.4434 -25.42452,-18.38815 -7.28447,-9.97265 -8.27927,-16.22534 -5.63396,-35.41153 1.81936,-13.19566 1.82015,-13.67245 0.0285,-17.12493 -2.71748,-5.23646 -1.25106,-9.88748 6.7738,-21.48438 33.3504,-48.1954 73.64385,-88.92759 120.40591,-121.71697 54.32364,-38.09155 116.84831,-64.757122 180.54354,-76.998359 16.04478,-3.083559 50.44201,-5.794143 68.5,-5.397965 l 13.5,0.29618 5.22298,10.5 c 2.87264,5.775 5.22288,11.4 5.22274,12.5 -1.6e-4,1.332399 -2.91189,4.247508 -8.72298,8.733091 -4.79751,3.7032 -11.56369,9.299043 -15.03596,12.435213 l -6.31321,5.70212 -3.68679,-4.0577 c -2.02773,-2.23174 -5.55154,-5.46508 -7.83068,-7.185214 -3.87796,-2.926791 -4.68019,-3.126682 -12.5,-3.114609 -5.51255,0.0085 -10.51327,0.689105 -14.69519,2 -9.221,2.890483 -12.20531,2.627383 -17.16091,-1.512901 -2.30407,-1.925 -4.3861,-3.5 -4.62673,-3.5 -1.96125,0 -7.82007,3.510155 -12.37327,7.413109 -3.025,2.592995 -10.09392,7.647805 -15.7087,11.232905 -5.61479,3.58511 -10.43592,7.26889 -10.71362,8.18618 -0.27771,0.91729 -0.9897,4.76645 -1.5822,8.55368 -2.06991,13.23076 1.405,21.61413 8.95906,21.61413 8.61534,0 26.64131,-12.34213 30.4894,-20.87568 0.99368,-2.20358 2.34364,-4.21257 2.99992,-4.46441 0.65629,-0.25184 3.28815,0.44894 5.84859,1.55729 6.30841,2.73074 10.30312,1.84995 16.38457,-3.61262 7.8848,-7.08241 12.20133,-9.60458 16.43762,-9.60458 3.46199,0 4.61363,0.77913 11.82479,8 4.39409,4.4 8.44375,8 8.99923,8 1.81442,0 4.28555,6.12897 3.68393,9.13703 -0.3146,1.57301 -2.60838,6.33878 -5.0973,10.59059 -2.48891,4.25181 -4.52529,8.52747 -4.52529,9.50147 0,2.00652 3.28202,2.37458 7.35744,0.82511 3.77355,-1.4347 4.56549,0.3546 3.51682,7.9458 -2.36265,17.10288 -9.41809,28.88579 -18.29338,30.5508 -4.38159,0.822 -11.73789,-1.59083 -17.00902,-5.57885 -5.66383,-4.28514 -9.77676,-4.04959 -14.43951,0.82695 -1.99779,2.08939 -4.75735,5.25452 -6.13235,7.03362 -2.09049,2.70485 -3.64664,3.47207 -9.5,4.68373 -3.85,0.79696 -12.34436,1.45684 -18.87635,1.46639 -10.28949,0.015 -13.29584,0.43082 -22.5,3.1118 -5.84301,1.70194 -15.22765,5.34384 -20.85475,8.09311 -10.84752,5.29984 -19.86476,7.16948 -23.97333,4.97063 -1.74021,-0.93133 -3.10748,-0.28555 -9.4157,4.44714 -9.6834,7.26488 -24.07552,15.24764 -35.87987,19.90118 -5.225,2.05981 -9.63154,3.85754 -9.79231,3.99495 -0.16077,0.13741 -2.00661,11.09187 -4.10186,24.34323 -2.09525,13.25137 -4.38131,24.78233 -5.08014,25.62436 -2.14414,2.58354 -6.01786,1.81902 -9.50208,-1.87533 -3.30629,-3.50569 -6.67474,-12.35134 -8.5083,-22.34309 -1.28111,-6.98121 -3.14343,-10.34848 -8.04274,-14.5421 -9.22905,-7.89972 -28.05013,-10.46031 -42.9295,-5.8405 -10.1595,3.15436 -19.5268,8.02576 -27.15732,14.12298 -6.80175,5.43498 -15.02322,14.44037 -17.42688,19.08854 -2.3825,4.60725 -4.42839,14.93235 -4.44253,22.42046 -0.0158,8.35777 1.93264,12.91232 6.98366,16.32461 3.18793,2.15365 4.2133,2.31247 11.5,1.7813 4.4,-0.32075 9.64571,-0.85764 11.65713,-1.19311 3.18886,-0.53183 4.12999,-0.17659 7.35,2.77433 6.98615,6.40233 4.48318,13.43722 -7.93329,22.29743 -6.55947,4.68074 -7.57384,6.01901 -7.57384,9.99227 0,2.20126 0.98866,3.39841 7.19658,8.71414 l 2.69657,2.30903 -1.03643,9.5 c -0.57005,5.225 -0.83346,13.33301 -0.58537,18.01779 0.69436,13.11183 4.09744,18.2569 17.32395,26.19184 8.04423,4.82595 12.49328,6.0814 19.88357,5.61082 7.3587,-0.46857 11.83635,-3.29629 16.89328,-10.66845 4.46567,-6.5102 7.37706,-9.01433 11.34609,-9.75892 4.80347,-0.90114 10.11028,0.91232 15.05464,5.14451 4.78787,4.09824 23.83536,13.36244 32.72712,15.91761 10.52785,3.02533 19.37264,8.35796 27.5,16.58009 5.46563,5.52936 8.85625,8.08523 12.5,9.42258 29.20824,10.72018 52.01327,32.38525 61.52585,58.45035 2.11866,5.80526 4.3943,9.84446 7.58545,13.46394 2.50733,2.84389 7.1377,9.65101 10.28971,15.12695 l 5.73092,9.95624 10.61145,2.74797 c 20.38194,5.27817 39.62068,15.61558 50.53065,27.15126 7.03054,7.43377 7.60327,9.22134 6.23905,19.47284 -2.07758,15.61208 -8.47923,27.4442 -19.72936,36.46563 l -6.4933,5.20695 -7.70895,20.56953 -7.70896,20.56953 -11.35154,15.74345 -11.35154,15.74345 -10.08471,4.86632 c -5.5466,2.67648 -13.68472,5.81734 -18.08472,6.97968 -4.4,1.16235 -8.94295,2.50282 -10.09544,2.97884 -2.60538,1.0761 -20.53349,24.09965 -26.12428,33.5492 -2.27783,3.85 -7.21024,11.5 -10.9609,17 l -6.81938,10 -17,11.5 c -12.18489,8.24272 -20.0297,14.44279 -27.69651,21.88968 l -10.69651,10.38967 -7.47133,16.61033 -7.47133,16.61032 4.99565,26.82605 c 2.7476,14.75432 4.74975,27.46682 4.44922,28.25 -0.78582,2.04782 -2.32693,1.79244 -9.41309,-1.55987 z m 501.97821,-10.33063 c -4.75779,-5.06444 -2.72681,-12.11119 13.31135,-46.18555 12.18577,-25.88965 14.74334,-32.84865 13.89528,-37.80815 -0.30019,-1.75552 -1.68435,-9.04185 -3.07591,-16.19185 -3.35543,-17.24057 -2.93209,-24.85506 2.01347,-36.21599 4.92524,-11.31425 8.92106,-17.2327 19.03543,-28.19455 9.9953,-10.83281 13.94078,-17.1749 16.22044,-26.07328 2.18069,-8.51209 1.36618,-13.98147 -4.70739,-31.60957 -4.43891,-12.88364 -4.96698,-15.32192 -4.96698,-22.93423 0,-8.81453 0.826,-11.83129 9.7125,-35.47238 2.44955,-6.51664 2.81505,-8.87671 2.7876,-18 -0.0362,-12.02469 -1.70072,-18.32816 -4.96316,-18.79495 -1.13378,-0.16222 -4.20822,0.62528 -6.83208,1.75 -6.49426,2.78377 -7.45883,2.63629 -12.42032,-1.89895 -2.37301,-2.16915 -5.97281,-4.52386 -7.99955,-5.23269 -3.82135,-1.33648 -19.60833,-1.64221 -47.18499,-0.91378 -13.03164,0.34422 -15.15605,0.15565 -20.97842,-1.86221 -17.87475,-6.19485 -35.59213,-18.8963 -61.37965,-44.0026 -6.52194,-6.34965 -12.30482,-12.66982 -12.85085,-14.04482 -4.71102,-11.86324 -1.34534,-42.70197 8.2585,-75.67022 1.72629,-5.92601 3.64112,-14.755 4.2552,-19.61997 0.97126,-7.69484 0.89398,-9.47192 -0.59414,-13.66183 -2.34347,-6.59817 -2.21093,-7.78414 1.75041,-15.66362 6.65537,-13.23817 17.21998,-22.44192 31.53895,-27.47633 7.45286,-2.62035 7.56618,-2.7145 18.02988,-14.97845 l 10.52988,-12.34152 17.97012,-5.39689 c 16.3064,-4.89722 19.10527,-5.44618 30.23108,-5.92945 13.6513,-0.59297 23.04706,0.55882 34.68192,4.25152 4.68766,1.48778 8.7195,2.17239 10.80278,1.83432 4.54975,-0.73832 23.13742,1.2459 29.25434,3.12288 3.64898,1.1197 10.58662,5.81945 25.67558,17.39337 l 20.67558,15.85912 17.32442,0.62426 c 9.52842,0.34335 18.78692,0.90676 20.57442,1.25204 2.7961,0.5401 3.25,0.34733 3.25,-1.3804 0,-4.2751 -4.1995,-15.28968 -7.9985,-20.97877 -5.9327,-8.88422 -12.0477,-12.35268 -24.20104,-13.7269 -9.18807,-1.03892 -14.99483,-6.12261 -17.28187,-15.12989 -0.66778,-2.62998 -1.67974,-4.93699 -2.2488,-5.12667 -0.56905,-0.18969 -2.6623,1.87243 -4.65166,4.58248 -5.94642,8.10064 -9.95548,7.33326 -13.5713,-2.59772 -5.23283,-14.37217 -6.73302,-15.77342 -11.20794,-10.46881 -5.857,6.94297 -10.81779,7.94089 -16.15961,3.25072 -3.19043,-2.80124 -3.42221,-3.44223 -3.93151,-10.87276 -0.7451,-10.8708 -3.26458,-14.84749 -6.74777,-10.65051 -0.68469,0.825 -1.84259,1.5 -2.57312,1.5 -1.55985,0 -27.32575,-11.68107 -29.21926,-13.24667 -0.86968,-0.71907 -1.62256,-0.73839 -2.30187,-0.0591 -1.14059,1.14059 -3.34787,13.90781 -4.43179,25.63406 -0.84896,9.18433 0.38585,8.27529 -17.2863,12.72575 -17.85192,4.49572 -24.61817,2.7297 -35.74963,-9.33082 -6.46207,-7.00141 -22.04307,-33.70414 -21.10013,-36.16141 0.81018,-2.11129 12.29723,-8.12147 20.01744,-10.47339 4.23109,-1.28898 9.6088,-2.08844 14.04826,-2.08844 6.95078,0 7.47744,-0.17795 15.64466,-5.28594 6.65931,-4.1649 9.88327,-7.06726 15.20174,-13.6853 3.7125,-4.61965 6.75,-9.22954 6.75,-10.2442 0,-1.01465 -1.19077,-4.64377 -2.64615,-8.06469 -2.56333,-6.02521 -2.61157,-6.49989 -1.54118,-15.16703 1.20936,-9.79244 0.69215,-11.55282 -3.39427,-11.55282 -1.28519,0 -5.74369,-0.50673 -9.90778,-1.12606 l -7.57108,-1.12606 -4.05109,-6.81898 c -2.22809,-3.75044 -4.60663,-7.28004 -5.28563,-7.84356 -0.679,-0.56352 -3.9049,-1.32258 -7.16868,-1.68681 -3.26378,-0.36422 -7.3537,-1.23698 -9.08872,-1.93948 -3.86624,-1.5654 -7.66266,-7.73647 -9.79342,-15.91915 -1.97324,-7.57779 -2.19251,-31.76983 -0.302,-33.31994 0.6875,-0.56371 8.18649,-1.74321 16.66442,-2.62111 l 15.41441,-1.59619 4.08559,2.39869 c 6.53026,3.834 30.99234,22.28328 44.58558,33.62642 15.89162,13.26107 41.4739,38.8522 54.90747,54.92645 39.86711,47.70395 68.65993,98.81294 87.62833,155.54578 16.9451,50.68128 24.4307,96.93588 24.4539,151.10478 0.011,26.13387 -0.9397,41.60668 -3.9882,64.89555 -15.6301,119.40497 -78.60097,230.52015 -174.0015,307.03401 -17.9698,14.41227 -28.71593,18.5903 -33.82569,13.15121 z M 245.21489,373.0711 c -3.98632,-2.31048 -13.23281,-3.74942 -24.19159,-3.76472 -16.9975,-0.0237 -16.38497,-2.38056 2.86061,-11.00682 l 11.66963,-5.23057 5.83037,3.51291 c 3.2067,1.93209 7.18037,4.1389 8.83037,4.90401 2.59068,1.20131 2.96114,1.85985 2.71518,4.82665 -0.3216,3.87922 -2.64497,7.99347 -4.48823,7.94779 -0.67482,-0.0167 -2.12667,-0.55189 -3.22634,-1.18925 z m -45.50061,-32.44495 c -34.29085,-5.38023 -40,-6.75517 -40,-9.63323 0,-2.21357 6.25341,-8.9101 9.64309,-10.32639 1.81097,-0.75667 5.50799,-1.37577 8.2156,-1.37577 4.0276,0 5.80666,0.63437 9.78212,3.48807 8.97501,6.44253 11.5517,7.39492 22.92147,8.47222 10.75016,1.01858 14.90842,2.49681 16.15394,5.74259 1.21639,3.16986 -2.50856,4.30473 -13.65735,4.16094 -5.80738,-0.0749 -11.68387,-0.3127 -13.05887,-0.52843 z m 465.29855,-99.23603 c -4.35479,-2.73536 -5.86822,-6.07506 -7.89497,-17.42194 -1.08876,-6.09548 -2.18686,-9.67742 -2.96677,-9.67742 -0.68102,0 -3.58925,1.08925 -6.46275,2.42056 -2.87349,1.33131 -5.73067,2.2256 -6.34929,1.98732 -0.61862,-0.23828 -2.47477,-2.93553 -4.12477,-5.99387 l -3,-5.56063 3.56317,-3.17669 c 1.95974,-1.74718 4.80919,-4.21835 6.33212,-5.49148 1.86137,-1.55607 2.55595,-2.86717 2.1191,-4 -0.35742,-0.92687 -1.17486,-3.64315 -1.81653,-6.03619 -1.09035,-4.06631 -1.01325,-4.47521 1.17851,-6.25 1.28986,-1.04446 3.83545,-1.89902 5.65687,-1.89902 2.71118,0 4.09635,0.88989 7.63921,4.90776 2.38015,2.69926 7.10681,6.52634 10.50369,8.50461 7.5247,4.38223 13.07719,10.66154 18.20465,20.58763 4.74907,9.19358 6.48486,14.41702 5.74996,17.30311 -0.31629,1.24212 -3.41446,4.12592 -7.12877,6.63552 -5.4998,3.71596 -7.50006,4.4983 -12.28568,4.80514 -4.44446,0.28497 -6.4286,-0.0809 -8.91775,-1.64441 z M 465.71428,154.55651 c -12.5698,-8.19224 -21.25235,-24.15146 -24.58416,-45.18763 l -1.52788,-9.64667 6.05602,-15.4537 c 3.33081,-8.499535 6.05602,-16.191657 6.05602,-17.093603 0,-0.901947 -0.68932,-3.289667 -1.53181,-5.306045 -0.8425,-2.016379 -1.22448,-4.163426 -0.84884,-4.771216 1.59056,-2.57358 46.19979,1.143099 74.0275,6.167702 20.89077,3.772062 29.356,6.042526 29.32396,7.864995 -0.0375,2.135551 -18.98705,32.195737 -20.97081,33.266627 -0.825,0.44536 -5.88138,1.5557 -11.23641,2.46741 l -9.73641,1.65765 -11.26359,13.1933 c -6.19497,7.25631 -15.2012,18.00428 -20.01382,23.88437 -4.81263,5.88008 -9.31263,10.66746 -10,10.63861 -0.68738,-0.0289 -2.37477,-0.78566 -3.74977,-1.6818 z m 63.36746,-3.2526 c -9.96798,-2.00866 -14.40084,-3.86929 -18.61746,-7.8144 -2.97134,-2.78002 -3.5838,-6.6762 -1.4979,-9.52884 1.35079,-1.84731 26.43774,-11.66991 29.805,-11.66991 5.17316,0 11.9429,6.13897 11.9429,10.83014 0,1.42645 -1.20971,3.82309 -2.73143,5.41142 -1.50229,1.56805 -3.63979,5.41161 -4.75,8.54124 -1.13975,3.21289 -2.67162,5.77306 -3.51857,5.88046 -0.825,0.10461 -5.60964,-0.63793 -10.63254,-1.65011 z"
         id="path3004"
         inkscape:connector-curvature="0" />
      <path
         style="fill:#e3e3e3"
         d="m 200.21428,925.32107 c -11.95397,-5.81478 -25.50147,-19.16477 -37.30456,-36.76069 -3.2354,-4.82329 -6.40898,-9.76381 -7.0524,-10.97893 -0.64342,-1.21512 -2.54606,-11.74266 -4.22809,-23.39453 -1.85811,-12.87163 -3.67379,-22.12466 -4.62683,-23.57918 -2.23003,-3.40346 -4.25424,-12.79272 -4.2723,-19.81698 -0.008,-3.3 0.84377,-11.4 1.8939,-18 4.48778,-28.20532 4.53311,-28.95378 2.06282,-34.05673 -1.99606,-4.1233 -2.17233,-5.65912 -1.69552,-14.77249 0.29267,-5.59393 1.26995,-12.85657 2.17174,-16.1392 1.56456,-5.69526 6.53953,-39.43144 6.54746,-44.39956 0.002,-1.3024 -1.34346,-3.90241 -2.99008,-5.77781 -5.80972,-6.61691 -7.43426,-11.04234 -7.47184,-20.35421 -0.0189,-4.675 0.32386,-10.75 0.76162,-13.5 l 0.79592,-5 -4.79592,-3.20331 c -8.30754,-5.54881 -16.1947,-13.25778 -26.15312,-25.56228 -18.82891,-23.26476 -21.13435,-27.57208 -21.15362,-39.52192 -0.006,-3.69187 -0.64619,-8.806 -1.42275,-11.36474 -2.16829,-7.14443 -2.88705,-19.4412 -1.65697,-28.34775 1.44991,-10.49818 4.65931,-16.86909 17.71877,-35.17313 13.49084,-18.90865 15.97828,-23.30165 17.84751,-31.52002 3.32164,-14.60413 1.19416,-23.22214 -7.124,-28.858 -2.66846,-1.80798 -7.60678,-5.45413 -10.97406,-8.10255 l -6.12232,-4.81531 -3.1555,-12.76549 c -1.73553,-7.02103 -3.62962,-13.8905 -4.20909,-15.2655 -0.57947,-1.375 -4.1964,-5.2 -8.03764,-8.5 l -6.98405,-6 0.7566,-7 c 1.45781,-13.48732 2.15446,-12.13598 -9.2237,-17.89178 -12.07027,-6.10591 -20.16936,-12.1611 -24.91735,-18.62916 -7.09562,-9.66616 -7.634,-13.5989 -4.81169,-35.14815 1.60022,-12.21816 1.59407,-12.9199 -0.14129,-16.14228 -2.71762,-5.04632 -1.44711,-9.02759 6.63904,-20.80391 35.22135,-51.29486 77.76749,-93.35456 128.82931,-127.35636 38.14437,-25.40014 74.79192,-43.279092 116.5,-56.835952 42.45147,-13.79849 69.1817,-18.44151 111.66131,-19.395479 23.38564,-0.525173 24.71995,-0.456654 25.79484,1.324623 3.0621,5.074416 9.8343,20.741867 9.3976,21.741312 -0.27327,0.625423 -4.40215,4.16448 -9.1753,7.864571 -4.77315,3.700092 -11.30672,9.093645 -14.51905,11.985685 l -5.8406,5.25824 -1.95728,-2.68691 c -1.0765,-1.4778 -4.68032,-4.73385 -8.00848,-7.23568 -6.04243,-4.542173 -6.06304,-4.548727 -14.20212,-4.516128 -5.42413,0.02172 -9.99088,0.67988 -13.65092,1.967354 -3.025,1.06409 -7.55331,1.949399 -10.06291,1.967354 -3.78752,0.0271 -5.05133,-0.477153 -7.43709,-2.967354 -4.5505,-4.749696 -9.01844,-3.773485 -17.89623,3.910192 -2.50306,2.166372 -9.27829,7.010332 -15.05607,10.764332 -7.38239,4.79658 -10.88296,7.71724 -11.77638,9.82548 -0.7655,1.80638 -1.27132,7.30898 -1.27132,13.83009 l 0,10.83009 3.26578,2.91991 c 4.46275,3.99012 7.40167,3.73552 17.97426,-1.55714 9.4806,-4.746 17.46158,-11.93427 19.38895,-17.46314 1.37977,-3.95799 3.01713,-4.32507 8.4912,-1.90362 4.0559,1.79411 5.2007,1.91443 8.5805,0.90182 2.14508,-0.64268 6.41639,-3.44723 9.49181,-6.23234 6.46737,-5.85688 13.30884,-9.26549 16.58461,-8.2629 1.22259,0.3742 5.16922,3.66315 8.77028,7.30879 3.60106,3.64564 7.98856,7.81411 9.75,9.26326 4.70263,3.86892 4.33829,7.44793 -1.81893,17.86748 -2.76185,4.67373 -4.89935,9.3977 -4.75,10.4977 0.3254,2.39667 4.59815,3.19835 7.82945,1.46901 3.6135,-1.93389 4.29842,-0.0185 2.92758,8.18717 -3.04521,18.22815 -10.42392,28.86791 -19.98549,28.81812 -3.98184,-0.0207 -11.47779,-3.13885 -14.6066,-6.07597 -5.4004,-5.06951 -12.72554,-2.70372 -18.89243,6.10167 -2.14627,3.06455 -4.34622,4.89785 -6.89663,5.74723 -5.62813,1.87438 -19.86824,3.24626 -26.88996,2.59056 -5.28147,-0.49319 -8.09286,-0.0292 -18.71475,3.08903 -6.8748,2.01817 -16.71654,5.78525 -21.87054,8.37129 -9.00878,4.5202 -9.70587,4.70189 -18.03916,4.70189 -8.19359,0 -8.88514,0.17092 -12.62909,3.12129 -10.58409,8.34066 -25.91531,16.83503 -39.46084,21.86353 -4.125,1.53132 -7.79989,3.06119 -8.16641,3.3997 -0.36653,0.33852 -2.34234,11.41548 -4.39068,24.61548 -2.04835,13.2 -4.16606,24.5625 -4.70603,25.25 -1.5756,2.00608 -6.19729,1.45885 -8.44559,-1 -3.43178,-3.75315 -5.32743,-8.4464 -7.76015,-19.21267 -2.73507,-12.10431 -3.20732,-13.10862 -8.34786,-17.75278 -7.77785,-7.02682 -23.37345,-10.58499 -36.32986,-8.28875 -16.02948,2.84088 -30.95843,10.69937 -42.49356,22.36829 -8.7872,8.88912 -11.08238,12.65785 -13.47796,22.13107 -3.60365,14.25052 -1.69146,25.08357 5.35466,30.33553 3.58956,2.67554 12.5468,3.31723 19.80269,1.41865 6.4959,-1.69973 8.62481,-1.12573 12.38091,3.33814 2.15619,2.56249 2.62695,3.92696 2.16014,6.26102 -0.87131,4.35654 -4.88324,9.10361 -11.47959,13.58311 -9.66327,6.5622 -10.31855,12.52033 -2.02491,18.41138 l 4.00247,2.84298 -0.71286,6.15702 c -0.39207,3.38635 -0.72981,11.33201 -0.75054,17.65701 -0.0417,12.7412 0.90855,16.10974 6.26612,22.21167 3.40043,3.87288 14.89179,11.22877 20.88094,13.36638 5.28433,1.88605 13.04908,1.69182 17.73807,-0.44371 4.29179,-1.95463 10.40239,-8.11111 12.96036,-13.05768 3.97673,-7.69016 16.93451,-7.92673 23.72082,-0.43307 2.39276,2.64216 25.93289,13.80884 34.69453,16.45797 9.30417,2.81316 20.27862,9.91908 26.41849,17.10587 3.34359,3.91371 6.10599,6.04259 9.46383,7.29342 8.65993,3.2259 23.984,11.52996 30.90914,16.74954 15.87107,11.96226 26.59501,26.50934 32.25711,43.75696 1.4196,4.32432 3.40498,7.79303 5.99751,10.47842 4.26355,4.41625 9.30882,12.0419 13.57258,20.51423 1.52236,3.025 3.22393,5.79175 3.78128,6.14832 0.55734,0.35658 3.71228,1.17931 7.01096,1.82828 18.51756,3.64311 38.86149,13.7853 51.94066,25.8943 8.22698,7.61673 9.17011,9.7738 8.33524,19.0638 -1.38297,15.38904 -8.94902,29.62893 -20.44122,38.47197 l -5.83959,4.49346 -7.20983,19.29994 c -8.33961,22.32425 -7.98299,21.65168 -21.09144,39.77836 l -9.99134,13.81628 -8.24455,4.03537 c -4.5345,2.21945 -12.29454,5.21185 -17.24454,6.64978 -4.95,1.43792 -10.125,2.93991 -11.5,3.33774 -3.33218,0.96412 -20.97426,23.92697 -32,41.65108 -4.675,7.51516 -9.79932,15.24434 -11.38738,17.17596 -1.58805,1.93162 -10.81305,8.83306 -20.5,15.33654 -13.70757,9.2028 -19.76162,14.0078 -27.3051,21.67166 -9.58975,9.74279 -9.76729,10.01263 -16.75,25.45841 -3.88164,8.58619 -7.05287,16.68619 -7.04718,18 0.006,1.31381 2.02833,13.18875 4.49477,26.38875 2.46645,13.2 4.4868,25.0125 4.48967,26.25 0.007,3.02801 -2.12207,2.86663 -9.49478,-0.71969 z m 505.5,-8.31136 c -7.77149,-3.97117 -6.13032,-10.75204 11.57479,-47.82398 10.81138,-22.63747 13.42521,-29.47155 13.42521,-35.10131 0,-2.14127 -1.40687,-10.95833 -3.12638,-19.59345 -3.59025,-18.02973 -3.38968,-21.29539 2.12091,-34.53243 4.37262,-10.50349 9.49096,-18.07805 19.30312,-28.56643 5.21462,-5.57398 9.83681,-11.72008 12.2421,-16.27824 3.49712,-6.62722 3.9003,-8.17835 4.24282,-16.32311 0.40233,-9.56679 0.19709,-10.4674 -6.83664,-30 -2.72983,-7.58071 -3.24594,-10.41929 -3.27276,-18 -0.0274,-7.73225 0.4314,-10.26775 3.25685,-18 9.76221,-26.71568 9.45791,-25.61156 9.50836,-34.5 0.0265,-4.675 -0.56423,-10.89629 -1.31282,-13.82509 -1.79949,-7.04037 -3.87446,-8.03303 -10.95652,-5.24154 -6.97034,2.74745 -8.78113,2.61435 -11.97541,-0.88025 -6.60153,-7.22218 -17.04297,-8.86727 -44.82511,-7.06236 -13.79497,0.89622 -20.42175,0.93563 -24.64499,0.14659 -12.63542,-2.36071 -27.48767,-10.24025 -43.53935,-23.09885 -14.12191,-11.31272 -36.13868,-32.73347 -37.86605,-36.84098 -4.64949,-11.05601 -1.13452,-41.68286 8.68763,-75.69752 4.1648,-14.42293 5.29871,-24.91086 3.45752,-31.97968 -2.05247,-7.87997 -1.92336,-8.84451 2.25876,-16.87409 6.50174,-12.48321 17.49076,-21.72529 31.27796,-26.30565 5.73276,-1.90453 7.20823,-2.97269 12.5,-9.04934 3.3,-3.78946 8.25,-9.44448 11,-12.56672 l 5,-5.67679 16.94659,-5.06961 c 9.41874,-2.81763 20.31271,-5.39501 24.52433,-5.80215 11.56368,-1.11787 28.24008,0.28091 37.52908,3.14787 6.0936,1.88073 11.21705,2.60897 21.5,3.05597 12.97383,0.56397 21.07355,1.98363 25.82471,4.52638 1.22785,0.65713 11.26499,8.14706 22.30474,16.64429 l 20.07229,15.44952 14.14913,0.006 c 7.78203,0.003 16.83433,0.4455 20.11623,0.98291 3.9029,0.6391 6.3072,0.63701 6.9503,-0.006 1.3165,-1.31655 -2.7081,-14.91619 -6.1547,-20.79737 -5.8618,-10.00246 -13.0598,-14.7015 -24.79976,-16.18998 -4.13327,-0.52405 -8.3416,-1.39518 -9.35184,-1.93584 -3.63543,-1.94562 -8.09572,-8.11111 -8.72792,-12.06463 -0.34766,-2.17415 -1.25009,-4.74991 -2.00539,-5.72391 -1.28465,-1.65662 -1.5361,-1.57728 -3.89586,1.22908 -6.53193,7.76815 -7.4986,8.64397 -9.19114,8.32723 -1.93052,-0.36128 -4.94276,-5.76899 -8.53768,-15.32723 -2.68981,-7.15172 -5.14376,-8.19733 -8.87033,-3.7796 -6.11257,7.24626 -11.22327,8.13911 -16.48278,2.8796 -3.26135,-3.26135 -3.4,-3.7054 -3.4,-10.88922 0,-5.82692 -0.41525,-8.00203 -1.87086,-9.79962 -1.83135,-2.26163 -1.92836,-2.27274 -4.59419,-0.52602 -3.52234,2.30793 -4.83719,1.93933 -21.18234,-5.9381 -7.35745,-3.54613 -13.5793,-6.4473 -13.82635,-6.4473 -0.94738,0 -2.5162,8.0041 -4.01805,20.5 -0.85934,7.15 -1.74237,13.51367 -1.9623,14.14149 -0.45255,1.29191 -24.48287,7.35851 -29.14771,7.35851 -11.81898,0 -22.83438,-10.05236 -34.77886,-31.73823 -4.61623,-8.38101 -7.59771,-14.87576 -7.24764,-15.78802 0.92477,-2.4099 16.29958,-9.30665 24.6283,-11.04763 4.125,-0.86226 9.3,-1.31004 11.5,-0.99507 3.62648,0.5192 4.85592,0.0201 13.16606,-5.34521 7.33144,-4.73339 10.48205,-7.58596 15.74097,-14.25186 3.6162,-4.58369 6.57897,-9.10865 6.58394,-10.05547 0.005,-0.94681 -1.15603,-4.32181 -2.58,-7.5 -2.3567,-5.25996 -2.53099,-6.525 -1.94226,-14.09719 0.35572,-4.57527 0.84106,-8.85027 1.07852,-9.5 0.90763,-2.48335 -1.41147,-3.68069 -9.09509,-4.69578 -13.5899,-1.79536 -12.89625,-1.4335 -17.45405,-9.10543 -2.28552,-3.84708 -5.13257,-7.40002 -6.32679,-7.89542 -1.19421,-0.49539 -5.3213,-1.35005 -9.1713,-1.89923 -8.06383,-1.15027 -10.81964,-3.50607 -13.79502,-11.7926 -3.50169,-9.75234 -4.69665,-34.70119 -1.80077,-37.59707 0.46631,-0.46631 7.83884,-1.55093 16.38341,-2.41027 l 15.53558,-1.56244 9.8384,6.78084 c 65.14312,44.89805 118.96843,106.78136 154.3838,177.49608 27.3627,54.6359 41.8283,105.30387 49.1054,172 1.8859,17.28472 1.598,67.83842 -0.4973,87.3268 -10.6766,99.30182 -48.3737,187.72454 -111.93767,262.56239 -21.35336,25.14065 -62.83316,63.23263 -79.46528,72.97503 -7.9119,4.63446 -11.80093,5.61746 -15.25055,3.85473 z m -464,-545.97108 c -4.2897,-1.54895 -8.28744,-2.01479 -18.16698,-2.11692 -6.96684,-0.072 -13.01506,-0.47916 -13.44048,-0.90476 -1.31257,-1.3131 1.67014,-3.26324 13.47254,-8.80851 l 11.36508,-5.3398 4.13492,2.37376 c 2.27421,1.30557 6.27242,3.44304 8.88492,4.74993 5.14019,2.57136 5.50667,3.55171 3.30103,8.83055 -1.6369,3.91765 -1.95586,3.95825 -9.55103,1.21575 z m -39,-30.86429 c -10.71029,-1.22376 -36.30918,-5.67043 -39.39247,-6.8427 -3.58913,-1.36458 -3.27302,-3.40488 1.28453,-8.29081 3.7241,-3.99244 4.18799,-4.18919 10.75,-4.55932 6.54768,-0.36933 7.08414,-0.22469 11.85794,3.19697 8.49671,6.0901 10.5397,6.84135 22.33617,8.2134 11.79004,1.3713 16.54021,3.206 15.96975,6.16817 -0.59167,3.07226 -8.2268,3.7801 -22.80592,2.11429 z M 666.7483,241.53921 c -4.65098,-2.34623 -6.70513,-6.25714 -8.57085,-16.31816 -2.56952,-13.85623 -2.26377,-13.58524 -10.57542,-9.37341 -4.10495,2.08013 -5.32433,2.32568 -6.53984,1.3169 -1.64252,-1.36317 -5.34791,-8.18041 -5.34791,-9.83918 0,-0.5748 2.50524,-2.95522 5.56719,-5.28984 6.08289,-4.63796 5.88561,-3.87097 3.85602,-14.99135 -0.65847,-3.60789 -0.54589,-3.80421 3.04118,-5.30298 3.35884,-1.40341 3.95638,-1.40475 6.07949,-0.0136 1.29499,0.84851 3.61489,3.15471 5.15533,5.12488 1.54043,1.97018 4.60079,4.50404 6.80079,5.63081 6.77001,3.46738 12.16209,8.51861 17.31073,16.21646 4.82126,7.20838 9.18927,17.76207 9.18927,22.20248 0,3.79938 -14.52647,12.36408 -21,12.38144 -0.825,0.002 -3.05969,-0.78278 -4.96598,-1.74442 z M 464.10373,152.45792 c -11.77898,-8.53266 -20.50341,-26.38281 -22.84631,-46.74347 -0.66847,-5.809256 -0.42613,-6.787227 5.51393,-22.251979 l 6.21314,-16.17567 -1.75023,-4.5829 c -0.99693,-2.610416 -1.37453,-4.958598 -0.87732,-5.455804 1.99566,-1.99566 47.6594,2.19195 71.97627,6.600609 21.49254,3.896608 28.82179,5.776479 29.14918,7.476438 0.15786,0.819722 -4.12383,8.459826 -9.51486,16.978008 l -9.80189,15.487608 -8.97568,1.73111 c -4.93662,0.95211 -9.88657,1.94768 -10.99988,2.21238 -2.02883,0.48237 -14.11596,14.04319 -31.6894,35.55304 -5.16594,6.3231 -10.06689,11.62639 -10.89102,11.7851 -0.82412,0.15871 -3.30179,-1.0178 -5.50593,-2.61447 z m 63.1516,-2.17377 c -12.58085,-2.67961 -20.27777,-8.46016 -18.79825,-14.11786 0.64335,-2.46016 3.20252,-3.77396 18.27699,-9.3829 11.79354,-4.38815 12.22466,-4.47047 15.43493,-2.9471 7.75107,3.67813 9.83935,9.45054 5.17878,14.31513 -1.43908,1.50207 -3.44791,5.18541 -4.46407,8.18519 -2.2167,6.54389 -2.77562,6.68506 -15.62838,3.94754 z"
         id="path3002"
         inkscape:connector-curvature="0" />
      <path
         style="fill:#dddddd"
         d="m 201.81802,925.25221 c -10.96915,-4.97682 -22.66795,-15.59587 -33.92651,-30.79522 -11.65628,-15.7363 -12.5423,-18.03066 -15.66123,-40.55531 -2.09627,-15.13906 -3.371,-21.22912 -5.3375,-25.5 -3.39385,-7.37084 -4.06918,-20.0392 -1.8028,-33.81872 0.88581,-5.38571 2.282,-14.66066 3.10265,-20.611 1.47078,-10.66427 1.46054,-10.87853 -0.71743,-15 -2.88899,-5.467 -2.87439,-18.72286 0.0327,-29.6812 1.0943,-4.125 3.2296,-16.59719 4.74512,-27.71598 l 2.75547,-20.21597 -3.59053,-3.97429 c -6.28817,-6.96025 -7.16713,-9.47908 -7.18637,-20.59376 -0.01,-5.5 0.36298,-11.82038 0.82777,-14.04529 l 0.84508,-4.0453 -5.34508,-3.54934 c -8.95305,-5.94518 -16.63718,-13.67027 -29.04568,-29.20051 -15.13222,-18.93917 -16.98125,-22.47767 -17.85003,-34.15956 -0.36814,-4.95 -1.45156,-12.375 -2.40762,-16.5 -2.1307,-9.19317 -1.65126,-25.86952 0.96312,-33.5 1.82255,-5.31941 9.45136,-17.35471 21.86851,-34.5 8.3215,-11.49012 11.01369,-17.40334 12.77264,-28.05416 0.89212,-5.40202 0.87897,-8.25629 -0.0573,-12.44007 -1.43128,-6.39561 -3.34513,-8.55057 -15.42222,-17.36509 -4.79222,-3.49762 -9.0886,-7.09762 -9.5475,-8 -0.45891,-0.90237 -2.32424,-7.6978 -4.14517,-15.10094 -3.57037,-14.51555 -3.30376,-14.07573 -13.849,-22.84675 l -4.37517,-3.63906 0.69816,-7.52696 c 0.38399,-4.13984 0.77781,-8.64053 0.87517,-10.00154 0.15631,-2.185 -0.99415,-3.06263 -9.83146,-7.5 -15.47565,-7.77059 -24.1309,-15.08989 -29.00195,-24.52543 -3.41142,-6.60815 -3.57287,-9.74699 -1.37883,-26.80638 1.92701,-14.98316 1.96703,-16.4502 0.49323,-18.07874 -3.19931,-3.53519 -2.02728,-8.25086 4.53721,-18.25544 26.25261,-40.01018 65.669,-81.9061 105.85882,-112.51798 57.03865,-43.44534 123.87003,-73.797504 193.39441,-87.832075 17.12905,-3.457762 40.86051,-5.501915 63.92081,-5.505935 l 19.81521,-0.0035 4.93478,10.541315 c 2.71413,5.797723 4.93478,10.885932 4.93478,11.307131 0,0.4212 -3.03512,2.990108 -6.7447,5.708686 -3.70959,2.718577 -10.08133,7.980368 -14.15943,11.692868 -4.07811,3.7125 -7.77716,6.75 -8.22012,6.75 -0.44296,0 -1.28426,-0.89479 -1.86955,-1.98842 -0.5853,-1.09364 -4.08863,-4.29329 -7.78519,-7.110335 l -6.72101,-5.121914 -9,0.574806 c -4.95,0.316143 -10.96995,1.283371 -13.37766,2.149395 -2.40771,0.866024 -6.37676,1.614715 -8.82009,1.663759 -3.68732,0.07401 -4.99104,-0.44256 -7.66995,-3.039061 -5.04579,-4.890568 -9.28636,-3.92875 -18.41196,4.176077 -2.64057,2.345193 -9.61759,7.352623 -15.50449,11.127613 -12.09734,7.75745 -12.37207,8.20142 -13.39968,21.65414 -0.9501,12.43787 2.83862,19.36849 10.58805,19.36849 8.8958,0 27.65219,-12.70922 31.56628,-21.38913 1.96426,-4.35596 3.48869,-4.87536 7.5295,-2.56542 3.40626,1.94719 10.02299,1.85978 13.02749,-0.17211 1.35988,-0.91966 4.61953,-3.6466 7.24367,-6.05987 4.92565,-4.52983 10.10908,-7.26802 13.75845,-7.26802 1.25034,0 4.81854,2.71925 8.85733,6.75 3.71992,3.7125 8.25048,7.98912 10.06792,9.50361 3.00448,2.50366 3.26054,3.14298 2.82095,7.04309 -0.29774,2.64146 -2.03334,6.7702 -4.51748,10.74638 -5.19003,8.30732 -5.77139,10.30101 -3.62858,12.44381 1.64601,1.64601 4.32304,1.63861 8.62025,-0.0238 2.21779,-0.85799 2.30046,2.27608 0.308,11.6764 -2.0482,9.66327 -5.25251,16.35184 -9.80339,20.46329 -3.81606,3.44758 -4.28368,3.59938 -9.84805,3.19689 -4.76254,-0.34449 -6.88481,-1.14093 -11.48773,-4.31109 -8.97315,-6.18004 -14.12105,-5.08342 -20.98465,4.4702 -1.99234,2.7732 -4.76851,5.31077 -6.45225,5.89773 -5.58251,1.94607 -19.24993,3.41115 -26.30456,2.81971 -6.17223,-0.51746 -8.64028,-0.1394 -19.59139,3.00105 -6.89124,1.9762 -16.30652,5.53658 -20.92283,7.91197 -10.19351,5.2452 -18.01938,7.25298 -21.71224,5.5704 -3.88779,-1.7714 -4.38838,-1.58567 -12.95515,4.80667 -8.74192,6.52304 -26.83523,16.21732 -38.24896,20.49357 -5.39103,2.01979 -7.38465,3.27236 -7.76521,4.87882 -0.28161,1.18874 -2.09007,12.28635 -4.01881,24.66135 -2.6371,16.91996 -3.92074,22.81 -5.17591,23.75 -2.36925,1.77431 -3.09281,1.59791 -6.203,-1.51229 -3.30081,-3.3008 -6.34421,-11.04855 -8.56686,-21.8091 -1.73613,-8.4051 -4.15361,-12.52418 -9.94132,-16.93868 -8.43758,-6.43565 -25.87195,-9.14116 -39.07569,-6.06385 -3.85,0.89729 -11.56815,3.85482 -17.15145,6.5723 -8.19141,3.98687 -11.82654,6.52646 -18.82701,13.15299 -10.59455,10.02862 -13.9227,14.72495 -15.89039,22.42278 -5.18123,20.26957 -1.61729,32.14459 10.66432,35.53338 3.97516,1.09685 11.82654,0.41399 19.32537,-1.68079 3.02468,-0.84493 9.38045,4.86778 9.37542,8.42685 -0.006,4.2599 -3.49368,8.81071 -10.88585,14.20422 -10.60179,7.73532 -11.45123,12.05007 -3.65522,18.56673 l 4.31476,3.60669 -0.53065,16.85868 c -0.45582,14.4815 -0.28481,17.50241 1.21282,21.42388 2.42786,6.35726 5.83827,10.06335 14.40932,15.65859 18.45574,12.04804 31.68166,9.96845 42.43556,-6.67238 5.54356,-8.57822 13.8157,-9.37521 22.26267,-2.14491 4.94145,4.2297 24.63088,14.18325 31.09922,15.72152 2.66261,0.63321 8.65029,2.95967 13.30596,5.16991 6.77669,3.21718 9.96759,5.54835 16,11.68908 6.56021,6.67801 8.61335,8.10298 15.86838,11.01338 16.48659,6.61369 33.3461,18.51658 42.79521,30.2136 7.31504,9.05526 10.89237,15.27638 14.74836,25.64797 2.51366,6.76107 4.63458,10.50722 8.25312,14.57738 2.67855,3.01283 7.34508,10.01122 10.37008,15.55197 4.22869,7.74549 6.07787,10.20691 8,10.64873 28.04171,6.44564 43.39339,13.88122 57.89302,28.04045 l 7.39303,7.21946 -0.53403,8.82573 c -0.97153,16.05602 -7.60478,29.11837 -19.70723,38.80797 l -6.54479,5.23996 -7.5,20.2995 -7.5,20.2995 -11.39314,15.88674 -11.39315,15.88674 -9.10685,4.41077 c -5.00877,2.42593 -13.38186,5.59069 -18.60686,7.03279 -5.225,1.44211 -10.00782,2.77585 -10.6285,2.96388 -1.79135,0.54266 -21.55544,26.28243 -26.10503,33.99788 -2.27024,3.85 -7.19643,11.4996 -10.94709,16.99911 l -6.81938,9.99912 -18,12.2664 c -13.94583,9.50363 -20.27377,14.57153 -28.09525,22.50089 l -10.09525,10.23443 -7.30057,16.21511 -7.30056,16.21511 4.70217,25.78489 c 2.58619,14.18169 4.93213,26.57239 5.2132,27.53489 0.68708,2.35286 -1.91857,2.25288 -7.52,-0.28855 z m 502.35081,-10.416 c -1.35,-1.35 -2.45455,-3.40815 -2.45455,-4.57368 0,-4.16632 5.24186,-17.60754 14.19092,-36.38849 11.79508,-24.75376 14.81645,-32.09372 15.4705,-37.58328 0.35566,-2.9851 -0.50704,-9.57406 -2.56263,-19.57243 -3.53536,-17.1959 -3.73114,-20.91768 -1.49898,-28.49607 3.44468,-11.69502 10.77957,-23.82787 21.42003,-35.4315 7.16637,-7.81506 11.15726,-13.15755 13.78355,-18.45164 3.55044,-7.15699 3.69339,-7.84896 3.61513,-17.5 -0.0768,-9.46896 -0.36135,-10.79796 -4.93528,-23.04836 -4.61231,-12.35319 -4.85402,-13.49754 -4.85825,-23 -0.004,-9.14815 0.31783,-10.85185 3.77888,-20 7.59924,-20.08606 8.70648,-24.35348 8.68155,-33.45941 -0.0268,-9.79049 -2.2376,-18.51648 -5.07616,-20.03563 -1.43635,-0.76871 -3.26389,-0.51994 -7.21636,0.98231 -7.26384,2.76084 -9.07314,2.55725 -13.38109,-1.50567 -5.99647,-5.6554 -11.98693,-6.90027 -30.91181,-6.42372 -36.25651,0.91296 -40.1227,0.68545 -49.14392,-2.89194 -15.62751,-6.19713 -34.82602,-20.53595 -57.57803,-43.00339 -11.08907,-10.95037 -11.78424,-11.87463 -12.87568,-17.11894 -1.41473,-6.79768 -0.68556,-24.08832 1.54108,-36.54361 1.4901,-8.33524 6.40112,-28.521 10.0966,-41.5 2.50404,-8.7945 3.07118,-23.01511 1.11306,-27.90893 -1.54732,-3.86714 -1.5258,-4.35631 0.42046,-9.55817 5.33116,-14.2488 19.11081,-26.62355 34.68893,-31.15223 4.82188,-1.40176 6.08049,-2.43304 13.03731,-10.6825 14.29614,-16.95249 11.81316,-15.24035 30.20019,-20.82462 20.58006,-6.25032 31.28301,-7.69516 45.33611,-6.12012 5.59014,0.62653 13.08889,2.11648 16.66389,3.311 4.79889,1.60346 10.29479,2.36181 21,2.89767 22.38468,1.12048 23.07074,1.41222 47.4811,20.19072 l 20.75424,15.96592 16.13233,0.42341 c 8.87283,0.23287 18.15733,0.84941 20.63233,1.37007 6.6911,1.40761 7.5772,0.11218 5.4817,-8.01378 -3.287,-12.74586 -10.9691,-23.53932 -19.7868,-27.80064 -2.3072,-1.11499 -6.8949,-2.31585 -10.1949,-2.6686 -11.36842,-1.21519 -17.10327,-5.87428 -18.87441,-15.33389 -0.65709,-3.50951 -2.23337,-6.09531 -3.71564,-6.09531 -0.46484,0 -2.7138,2.475 -4.9977,5.5 -4.16877,5.5215 -6.67815,6.69193 -8.81838,4.11311 -0.63306,-0.7628 -2.52297,-5.14613 -4.1998,-9.74074 -1.67682,-4.59462 -3.51906,-8.92052 -4.09387,-9.61311 -1.84552,-2.22371 -4.38648,-1.35918 -8.23707,2.80256 -6.09725,6.58995 -9.44322,7.06531 -14.81313,2.1045 -2.49698,-2.30676 -2.75136,-3.19033 -2.76474,-9.60341 -0.008,-3.8846 -0.58187,-8.18791 -1.27503,-9.56291 -1.35665,-2.69114 -5.26067,-3.84956 -7.02557,-2.08466 -0.59656,0.59656 -1.82894,1.08466 -2.73861,1.08466 -2.14464,0 -25.92087,-10.7459 -28.1588,-12.72664 -4.11931,-3.6459 -5.58641,0.23506 -8.26364,21.8601 -0.82967,6.70162 -1.70182,12.37808 -1.93811,12.61437 -1.21407,1.21407 -23.77082,6.21005 -28.0855,6.22051 -12.10187,0.0293 -21.31449,-8.24747 -33.87631,-30.43521 -4.66051,-8.23178 -8.26263,-15.30832 -8.00471,-15.72565 0.25792,-0.41732 3.30721,-2.34602 6.77619,-4.28598 7.6486,-4.27734 19.75271,-7.5215 28.06305,-7.5215 5.67777,0 6.7724,-0.39661 14.59004,-5.28635 6.77439,-4.23721 9.88709,-7.0653 15.68408,-14.25 3.97778,-4.93001 7.24028,-9.55082 7.25,-10.26846 0.01,-0.71765 -1.30482,-4.41261 -2.92119,-8.21102 -2.89741,-6.8088 -2.92309,-7.03104 -1.82146,-15.75872 0.61457,-4.86888 0.84725,-9.55649 0.51708,-10.4169 -0.44169,-1.15105 -3.27556,-1.89211 -10.72534,-2.8047 -5.71081,-0.69957 -10.72544,-1.84072 -11.50222,-2.61749 -0.75745,-0.75746 -2.76425,-3.80152 -4.45955,-6.7646 -1.6953,-2.96308 -3.72814,-5.92336 -4.51744,-6.57842 -0.78929,-0.65505 -4.71035,-1.64489 -8.71347,-2.19964 -4.00312,-0.55474 -8.06536,-1.42979 -9.0272,-1.94455 -3.08129,-1.64906 -6.81943,-9.43669 -8.33703,-17.36845 -1.83641,-9.59808 -1.96859,-26.51866 -0.22452,-28.74178 0.95409,-1.21614 4.81517,-1.89258 16.30999,-2.85742 l 15.05999,-1.26409 6.44001,4.3224 c 77.21634,51.82593 139.73518,129.73799 174.32261,217.2438 38.8823,98.37179 44.1389,204.59226 15.1333,305.8008 -18.7101,65.28479 -51.05992,125.32342 -95.83103,177.85478 -24.8925,29.20715 -68.26781,68.02472 -83.98514,75.16025 -5.62095,2.55186 -8.30985,2.43135 -11.24518,-0.50399 z M 241.21428,370.20085 c -3.77918,-1.37755 -7.9766,-1.83324 -17.19098,-1.86632 -7.25341,-0.026 -12.44934,-0.4618 -12.82888,-1.0759 -0.66623,-1.07799 21.28916,-11.96787 24.12877,-11.96787 0.87029,0 2.86952,0.91655 4.44273,2.03677 1.57321,1.12023 4.90518,2.94129 7.40437,4.0468 4.79494,2.12103 5.39956,3.53591 3.56874,8.35133 -1.12872,2.96877 -2.49665,3.03701 -9.52475,0.47519 z m -38,-30.60691 c -1.65,-0.21844 -10.2,-1.52764 -19,-2.90935 -24.67074,-3.8736 -25.65491,-4.47421 -18.71048,-11.41864 2.88042,-2.88042 4.91198,-3.95784 8.46847,-4.49117 5.81002,-0.87127 9.13882,0.24706 15.94372,5.35639 5.9396,4.45962 9.82391,5.6801 21.00829,6.60095 9.60248,0.79061 13.79,2.17212 13.79,4.54948 0,0.98735 -0.7118,2.06833 -1.58179,2.40217 -1.67165,0.64148 -14.84286,0.58207 -19.91821,-0.0898 z m 463.39327,-98.80009 c -4.14254,-2.25159 -5.87316,-5.90151 -7.93915,-16.74388 -1.06233,-5.57513 -2.3669,-10.57199 -2.89903,-11.10412 -0.62336,-0.62336 -3.07294,-0.0227 -6.88635,1.6887 -3.25536,1.46091 -6.19442,2.65621 -6.53124,2.65621 -0.98984,0 -5.6375,-7.81992 -5.6375,-9.48537 0,-0.83881 2.47329,-3.43525 5.49619,-5.76987 6.01377,-4.6445 6.41645,-5.9066 4.0366,-12.65182 -1.37067,-3.88491 -1.33778,-4.28795 0.5,-6.12573 3.2957,-3.2957 6.3521,-2.4889 11.13966,2.94055 2.38015,2.69926 7.10681,6.52634 10.50369,8.50461 7.01543,4.08565 12.90196,10.46537 17.35802,18.81233 3.69666,6.92448 7.05391,16.38222 6.41047,18.05899 -0.62356,1.62498 -9.00296,7.25543 -13.66251,9.18038 -4.57107,1.8884 -8.46282,1.90117 -11.88885,0.039 z m -201.39327,-88.3531 c -11.36938,-6.98284 -21.36557,-27.38273 -23.10407,-47.14999 -0.54443,-6.190326 -0.28277,-7.245245 5.49221,-22.142279 l 6.06387,-15.642276 -1.58847,-4.661922 c -0.87366,-2.564057 -1.37652,-4.873879 -1.11746,-5.132937 0.80737,-0.807377 32.46743,1.526156 49.44006,3.644025 16.78795,2.094825 49.06419,8.272762 50.4101,9.648907 0.84646,0.865475 -17.07624,30.067472 -19.57552,31.894992 -0.85648,0.62627 -3.91152,1.45021 -6.78897,1.83099 -13.685,1.81095 -13.80043,1.87335 -22.87972,12.36789 -4.61202,5.33093 -13.4687,15.88011 -19.68151,23.44261 -6.2128,7.5625 -11.83027,13.74832 -12.48326,13.74626 -0.65299,-0.002 -2.53726,-0.83288 -4.18726,-1.84627 z m 62.5,-2.76811 c -12.67022,-2.7627 -20.55142,-8.68146 -18.25911,-13.71254 0.86056,-1.88873 4.04795,-3.48407 15.2344,-7.62507 15.79997,-5.84882 17.49733,-5.83661 22.54496,0.16216 3.22766,3.83586 3.13756,4.817 -0.88442,9.63099 -1.8503,2.21466 -3.88178,6.08224 -4.5144,8.59462 -1.07787,4.2806 -1.35377,4.56164 -4.38583,4.46755 -1.77958,-0.0552 -6.1606,-0.7382 -9.7356,-1.51771 z"
         id="path3000"
         inkscape:connector-curvature="0" />
      <path
         style="fill:#d9d9d9"
         d="m 198.21428,922.52387 c -10.1351,-5.37 -23.96978,-19.50181 -34.14093,-34.87417 l -8.01318,-12.11089 -2.79769,-20.37402 c -2.06089,-15.00834 -3.43428,-21.7637 -5.21487,-25.65073 -4.39971,-9.60454 -4.67598,-22.43476 -0.93599,-43.46719 0.85517,-4.80914 1.84917,-12.27309 2.2089,-16.58656 0.5589,-6.70175 0.38054,-8.2601 -1.22609,-10.71213 -2.56509,-3.91481 -2.57959,-19.27864 -0.0269,-28.45742 1.35599,-4.87573 7.64322,-45.246 7.64625,-49.0966 2.6e-4,-0.32813 -1.60288,-2.24751 -3.56253,-4.2653 -7.23358,-7.44818 -9.59363,-17.41424 -7.01857,-29.6381 0.86896,-4.125 1.5803,-7.82073 1.58075,-8.21274 4.5e-4,-0.39201 -2.58668,-2.47088 -5.74918,-4.61971 -9.09281,-6.17833 -15.8179,-12.72351 -26.14583,-25.44641 -17.96858,-22.13533 -22.03349,-29.75585 -20.79554,-38.98552 0.32367,-2.41312 -0.27146,-7.16233 -1.51253,-12.07008 -1.70136,-6.72797 -1.96871,-10.23673 -1.5865,-20.82148 0.42884,-11.87613 0.67791,-13.17327 3.71345,-19.33932 1.78958,-3.63516 8.3244,-13.67333 14.52183,-22.30706 6.19742,-8.63372 12.18299,-17.49768 13.30127,-19.69768 3.4486,-6.78447 5.25482,-14.52858 5.23189,-22.4315 -0.032,-11.01252 -1.89171,-14.42688 -11.60249,-21.30126 -14.00771,-9.91624 -13.66279,-9.41804 -17.70745,-25.57567 -3.94031,-15.74073 -2.63487,-13.66524 -15.90793,-25.29164 -2.68522,-2.3521 -2.7205,-2.52947 -1.77011,-8.89993 2.01655,-13.51679 2.27612,-12.9565 -8.24006,-17.78659 -16.90238,-7.7633 -28.70663,-18.84357 -31.78391,-29.83453 -1.14088,-4.07481 -1.03173,-6.82941 0.84097,-21.22458 1.99769,-15.35594 2.03431,-16.6721 0.51072,-18.35565 -3.08456,-3.4084 -1.83388,-8.1035 4.80584,-18.04131 30.26864,-45.30372 72.94915,-89.00907 118.87641,-121.73083 25.77957,-18.36716 60.91194,-37.88394 90.67158,-50.37 33.38026,-14.005139 75.08896,-25.888806 105.82842,-30.152693 13.84187,-1.920014 43.97839,-3.709247 55.98907,-3.324122 l 9.98906,0.320301 2.19329,4.5 c 1.20631,2.475 3.42372,7.330106 4.92758,10.789125 l 2.73429,6.289126 -2.21592,1.552095 c -3.04545,2.133114 -15.63326,12.442345 -21.19031,17.354558 l -4.57294,4.04229 -4.26641,-4.05854 c -2.34652,-2.23219 -6.05993,-5.245428 -8.25201,-6.696081 -3.63163,-2.4033 -4.75607,-2.617145 -12.66065,-2.4078 -5.13595,0.13602 -11.2678,1.026396 -15.03039,2.182488 -8.66553,2.662572 -10.30648,2.494924 -15.14466,-1.547261 -2.30407,-1.925 -4.83958,-3.5 -5.63445,-3.5 -2.42957,0 -8.93878,3.735913 -13.72156,7.875381 -2.49585,2.160143 -9.46258,7.138673 -15.48163,11.063403 -10.21146,6.6584 -11.01193,7.41776 -11.96302,11.34855 -1.95347,8.07357 -2.40191,12.93579 -1.70644,18.50216 0.94896,7.59518 5.29507,12.21051 11.49825,12.21051 9.48094,0 29.19395,-13.49532 32.16579,-22.02036 1.18072,-3.38702 2.14756,-3.58602 7.18882,-1.47964 1.9745,0.825 4.74738,1.5 6.16196,1.5 3.39718,0 9.37847,-3.13306 12.49228,-6.54359 3.84607,-4.21256 11.06144,-8.45641 14.37752,-8.45641 2.37495,0 4.32999,1.38706 9.55422,6.77853 3.61254,3.72819 7.89576,7.69745 9.51826,8.82059 4.44934,3.07994 4.01894,7.24624 -1.75,16.94006 -2.585,4.34369 -4.7,9.13351 -4.7,10.64404 0,3.62987 2.68102,5.05545 7.11567,3.78361 1.85412,-0.53176 3.54472,-0.96683 3.75689,-0.96683 0.729,0 -0.91756,11.50346 -2.30714,16.11852 -3.04868,10.12527 -8.87191,17.68393 -13.89215,18.03228 -6.6245,0.45966 -11.50069,-1.20153 -17,-5.79149 -2.06079,-1.72003 -4.06091,-2.35931 -7.38157,-2.35931 -4.04596,0 -5.01499,0.47484 -8.67328,4.25 -2.26513,2.3375 -5.01842,5.50095 -6.11842,7.02989 -2.7104,3.76731 -12.81687,5.82354 -27.83545,5.66331 -9.82226,-0.10479 -12.48706,0.26649 -22.16455,3.08813 -6.05,1.76399 -15.69241,5.49083 -21.42758,8.28187 -8.72656,4.24682 -11.3366,5.07432 -16,5.07277 -3.06483,-0.001 -6.47242,-0.32614 -7.57242,-0.72248 -1.52031,-0.54779 -3.90122,0.71107 -9.92696,5.24867 -10.13993,7.63573 -23.51564,15.01693 -35.57304,19.63046 -5.225,1.99925 -9.87249,3.99003 -10.32775,4.42394 -0.45527,0.43392 -2.53611,11.6773 -4.6241,24.98529 -2.08799,13.30799 -4.31891,24.71891 -4.9576,25.3576 -1.90325,1.90325 -6.30964,-1.24976 -8.82205,-6.31265 -1.22732,-2.47324 -2.94314,-7.6468 -3.81294,-11.4968 -2.95826,-13.09432 -3.59337,-14.69419 -7.52747,-18.96219 -7.7574,-8.41578 -24.04957,-12.96577 -38.4244,-10.73096 -20.09918,3.12475 -42.44289,17.3081 -53.45367,33.93136 -6.01623,9.08284 -8.04231,28.93902 -3.80002,37.24136 1.2375,2.42184 3.49235,5.30867 5.01077,6.41518 3.53421,2.57546 13.70223,3.31082 21.85537,1.5806 5.93857,-1.26025 5.98568,-1.25198 8.92697,1.56595 5.68509,5.44667 3.38237,11.19969 -7.62748,19.05616 -7.22779,5.15764 -8.42542,6.81094 -8.39339,11.5868 0.0245,3.65309 2.02941,6.6493 6.22629,9.30477 l 2.74854,1.73907 -0.64343,15.63595 c -0.95336,23.16786 1.47023,29.4678 14.57114,37.87651 13.89843,8.9206 24.03599,10.93977 32.64343,6.50182 4.45411,-2.29651 10.42425,-8.39334 12.89215,-13.16572 1.72675,-3.33918 6.15026,-6.08898 9.73998,-6.0547 3.02926,0.0289 9.92071,3.20323 11.74838,5.41147 2.21102,2.67141 24.17951,13.34063 34.23527,16.6267 11.1445,3.64185 20.76733,9.79271 27.51444,17.58708 3.8881,4.4916 6.28211,6.32999 9.49764,7.29339 6.54707,1.96155 20.44616,9.26848 28.65819,15.06599 16.458,11.61897 26.90035,25.29951 33.58013,43.99341 1.79351,5.01928 3.95054,8.82305 6.52138,11.5 4.33613,4.5151 9.30869,12.09261 13.85207,21.10869 l 3.07829,6.1087 6.21729,1.22317 c 22.03371,4.33487 44.14741,15.84209 56.77663,29.54463 l 4.38004,4.75229 -0.51175,9.13126 c -0.86962,15.5169 -7.2657,27.94323 -19.51468,37.9132 l -6.73366,5.48082 -7.49713,20.36862 c -8.04708,21.86274 -6.14563,18.51248 -26.65088,46.95738 -2.75884,3.82708 -4.94403,5.35835 -13.16456,9.22505 -5.42114,2.54996 -14.09356,5.75774 -19.27203,7.1284 -8.18298,2.16591 -9.85139,2.98727 -12.74629,6.27495 -6.00815,6.82336 -20.54953,26.90101 -26.66911,36.82272 -11.87419,19.25169 -12.76306,20.17584 -31.52206,32.7732 -12.36696,8.30486 -19.98907,14.28778 -27.35067,21.46871 l -10.20575,9.95526 -7.75253,17.08278 -7.75252,17.08277 4.55428,24.7987 c 2.50486,13.63929 4.78223,25.8112 5.06082,27.0487 0.73279,3.25501 -1.72743,2.883 -10.03157,-1.51689 z m 506.01656,-8.21482 c -3.69294,-4.08065 -0.95318,-12.41417 15.29353,-46.51829 5.50226,-11.55 10.75766,-23.60408 11.67868,-26.78685 1.84258,-6.36744 1.78527,-7.06552 -2.19257,-26.70586 -3.28603,-16.22459 -2.90217,-22.49769 2.081,-34.00749 4.78245,-11.04622 8.47773,-16.5037 18.71768,-27.64373 10.08028,-10.96632 14.2712,-17.66455 16.48928,-26.35433 2.32633,-9.11391 1.41262,-16.11959 -4.1138,-31.54177 -3.80676,-10.62323 -4.73601,-14.58271 -5.15378,-21.95997 -0.5539,-9.78129 -0.74601,-8.98938 8.61175,-35.5 3.45353,-9.78386 4.05844,-12.69384 4.05361,-19.5 -0.006,-8.15965 -1.87397,-17.46006 -4.02875,-20.0564 -1.57342,-1.89586 -6.29161,-1.83707 -10.08716,0.12568 -4.95341,2.56151 -8.40072,2.14034 -11.73993,-1.43429 -6.02129,-6.44581 -7.22239,-6.63499 -42.1261,-6.63499 -30.40597,0 -31.68303,-0.0779 -36.77002,-2.2433 -18.65945,-7.9428 -33.48323,-18.84389 -57.96907,-42.62923 -14.09725,-13.69394 -14.24707,-14.00691 -14.25533,-29.7781 -0.008,-15.49411 3.3473,-33.42619 12.5087,-66.84937 2.63076,-9.59767 3.03408,-21.03363 0.94656,-26.83884 l -1.81763,-5.05465 3.64429,-7.37372 c 6.59516,-13.3444 16.79351,-22.3005 30.52206,-26.80419 3.67974,-1.20715 7.32344,-2.69742 8.0971,-3.31171 0.77367,-0.61429 5.77992,-6.30993 11.12502,-12.65697 l 9.71835,-11.54008 15.87499,-4.70176 c 8.73124,-2.58597 18.2989,-5.15543 21.26147,-5.70992 12.12126,-2.26867 33.26469,-0.51349 44.32777,3.67977 2.82788,1.07186 9.38823,1.86098 19.28574,2.3198 20.9471,0.97106 21.76465,1.32796 46.16963,20.15509 l 20.16963,15.55978 17.33037,0.66863 c 9.53167,0.36775 19.40427,0.92042 21.93907,1.22816 5.9584,0.72338 6.3834,-0.38364 3.7693,-9.81723 -3.5922,-12.96292 -10.2473,-22.39911 -18.9167,-26.82191 -2.2667,-1.15638 -7.96726,-2.7251 -12.66792,-3.48603 -6.22276,-1.00734 -9.22786,-2.01037 -11.05193,-3.68887 -2.87964,-2.64982 -6.18728,-9.28902 -6.21949,-12.48392 -0.0121,-1.19822 -0.72821,-2.88482 -1.59141,-3.74802 -2.12362,-2.12363 -4.44,-0.77968 -8.57126,4.97299 -4.49953,6.2655 -6.65916,5.80573 -9.6124,-2.0464 -3.60608,-9.58792 -6.60893,-14.96627 -8.55991,-15.33151 -1.11116,-0.20802 -3.89461,1.62928 -7.19013,4.74605 -2.95742,2.797 -6.26954,5.08546 -7.36026,5.08546 -1.09073,0 -3.36767,-1.165 -5.05986,-2.58889 -2.80649,-2.36151 -3.08169,-3.13005 -3.13317,-8.75 -0.10651,-11.62662 -3.45637,-16.60451 -9.0302,-13.41889 l -3.04833,1.74222 -13.16448,-6.04716 c -7.24047,-3.32593 -13.98644,-6.79102 -14.99105,-7.70018 -4.30259,-3.89378 -6.57111,1.84038 -8.7971,22.23645 -0.66187,6.06455 -1.70042,11.55963 -2.3079,12.2113 -1.67237,1.79404 -21.32326,6.45801 -27.20979,6.45801 -11.80602,0 -21.50961,-8.86644 -33.61216,-30.71235 -8.80102,-15.88643 -8.94526,-14.43375 1.94911,-19.62972 8.51466,-4.061 15.47525,-5.76768 23.76834,-5.82781 6.74742,-0.0489 7.33187,-0.25765 16.19728,-5.78449 8.02035,-5.00001 10.09979,-6.92571 16.25,-15.04854 3.879,-5.12314 7.05272,-9.67834 7.05272,-10.12267 0,-0.44432 -1.37658,-4.04277 -3.05906,-7.99655 l -3.05906,-7.18868 1.24827,-9.54109 c 1.53006,-11.69491 1.70571,-11.49896 -11.79458,-13.15805 -5.35259,-0.65779 -9.81458,-1.29429 -9.91553,-1.41445 -0.10096,-0.12015 -2.09498,-3.36846 -4.43116,-7.21846 -2.33619,-3.85 -4.72229,-7.30279 -5.30245,-7.67286 -0.58016,-0.37007 -4.80133,-1.20467 -9.38039,-1.85467 -9.54109,-1.35436 -10.76516,-2.35708 -14.41143,-11.80546 -1.77677,-4.60404 -2.27647,-8.4307 -2.66409,-20.40108 -0.3855,-11.90469 -0.2134,-14.83109 0.89618,-15.23928 0.75532,-0.27786 7.57414,-1.10119 15.15295,-1.82961 16.24372,-1.56123 14.32537,-2.16869 31.10302,9.84899 27.49937,19.69757 61.09487,50.35685 81.93436,74.7734 36.34704,42.58592 63.72027,87.69206 82.94637,136.68057 33.193,84.57664 41.3266,178.23859 23.2297,267.5 -14.097,69.53247 -42.3793,132.36779 -85.51911,190 -24.47104,32.69181 -57.91408,66.73366 -87.42867,88.99411 -14.6256,11.0309 -22.16769,13.79063 -26.02876,9.52418 z M 241.71428,369.61791 c -5.30451,-1.84135 -8.69785,-2.26285 -18.45,-2.29175 -6.97876,-0.0207 -11.5548,-0.40341 -11,-0.92003 0.5225,-0.48655 5.89234,-3.17033 11.93297,-5.96396 l 10.98298,-5.07932 4.01702,2.50931 c 2.20937,1.38012 5.89629,3.39526 8.19317,4.47808 4.0104,1.89063 4.14008,2.09452 3.26745,5.13719 -0.49978,1.74264 -1.25404,3.44257 -1.67614,3.77762 -0.4221,0.33506 -3.69245,-0.40615 -7.26745,-1.64714 z m -40.5,-31.02532 c -6.79214,-0.90224 -28.36323,-4.39384 -33.25,-5.38201 -6.14813,-1.24323 -6.78807,-3.07834 -2.5,-7.16911 6.20106,-5.91575 13.77123,-6.37329 20.89081,-1.26264 8.90387,6.39146 11.50971,7.3577 22.97611,8.51941 10.47969,1.06174 16.1288,2.9769 14.85593,5.03645 -0.56448,0.91334 -16.6769,1.09422 -22.97285,0.2579 z m 464.71679,-98.86253 c -3.34463,-2.34268 -4.79474,-5.9446 -6.70745,-16.66056 -0.95434,-5.3467 -2.38048,-10.25684 -3.16921,-10.91142 -1.13817,-0.94459 -2.68209,-0.59366 -7.48266,1.7008 -6.72913,3.21623 -6.75643,3.20633 -10.44337,-3.7872 -1.40668,-2.66824 -1.33512,-2.79656 3.82621,-6.86111 7.09029,-5.58362 7.34918,-6.20842 5.28541,-12.75547 -1.66994,-5.29764 -1.66755,-5.58746 0.0564,-6.84805 3.3294,-2.43452 6.13105,-1.54034 10.11793,3.22924 2.08978,2.50005 6.27468,5.926 9.29977,7.61323 3.0251,1.68723 7.58489,5.26167 10.13288,7.94319 4.85845,5.11308 11.91192,17.61424 13.74733,24.36496 0.99694,3.6668 0.8763,4.17799 -1.59478,6.75724 -6.26261,6.53676 -18.06822,9.71745 -23.06846,6.21515 z M 465.08921,151.44417 c -10.53535,-7.64052 -18.21299,-21.71635 -21.38427,-39.20492 -1.93495,-10.6706 -1.48506,-13.555926 4.43579,-28.448494 5.90184,-14.844731 6.21673,-16.356512 4.45793,-21.401823 -0.61359,-1.760149 -0.88444,-3.431451 -0.60188,-3.714006 0.71261,-0.712615 29.4916,1.338059 45.2175,3.222016 14.62632,1.752229 42.801,6.683376 49.24475,8.618845 l 4.24475,1.274968 -9.74475,15.461798 c -10.84416,17.206206 -8.57819,15.497106 -23.8758,18.008216 l -7.13105,1.17056 -8.90937,10.17971 c -4.90014,5.59885 -13.74991,16.12879 -19.66614,23.39988 -5.91624,7.27108 -11.12934,13.45039 -11.58467,13.7318 -0.45533,0.28141 -2.57158,-0.75293 -4.70279,-2.29855 z m 67.12507,-1.6647 c -10.4852,-1.8507 -15.00459,-3.45597 -18.99876,-6.7483 -2.75376,-2.26988 -3.53885,-3.60167 -3.30626,-5.60857 0.2715,-2.34263 1.4847,-3.09885 11.04033,-6.88175 5.90442,-2.33745 12.75333,-4.78965 15.21979,-5.44933 4.31913,-1.15519 4.62386,-1.0869 8.26469,1.85204 4.90771,3.9616 5.28066,6.70715 1.4551,10.71228 -1.64691,1.7242 -3.56085,5.15992 -4.25321,7.63492 -0.69236,2.475 -1.52048,4.77546 -1.84026,5.11212 -0.31978,0.33667 -3.73142,0.0561 -7.58142,-0.62341 z"
         id="path2998"
         inkscape:connector-curvature="0" />
    </g>
  </g>
</svg>
