<?xml version="1.0" encoding="UTF-8" standalone="no"?>
<svg
   xmlns:dc="http://purl.org/dc/elements/1.1/"
   xmlns:cc="http://creativecommons.org/ns#"
   xmlns:rdf="http://www.w3.org/1999/02/22-rdf-syntax-ns#"
   xmlns:svg="http://www.w3.org/2000/svg"
   xmlns="http://www.w3.org/2000/svg"
   xmlns:sodipodi="http://sodipodi.sourceforge.net/DTD/sodipodi-0.dtd"
   xmlns:inkscape="http://www.inkscape.org/namespaces/inkscape"
   version="1.1"
   id="Layer_1"
   x="0px"
   y="0px"
   width="100px"
   height="100px"
   viewBox="0 0 100 100"
   enable-background="new 0 0 100 100"
   xml:space="preserve"
   inkscape:version="0.48.5 r10040"
   sodipodi:docname="future-research.svg"
   inkscape:export-filename="/home/maartend/htdocs/spacebillboard/docroot/sites/all/themes/sbbtheme/resources/img/our-mission/future-research.png"
   inkscape:export-xdpi="180"
   inkscape:export-ydpi="180"><metadata
     id="metadata253"><rdf:RDF><cc:Work
         rdf:about=""><dc:format>image/svg+xml</dc:format><dc:type
           rdf:resource="http://purl.org/dc/dcmitype/StillImage" /><dc:title></dc:title></cc:Work></rdf:RDF></metadata><defs
     id="defs251" /><sodipodi:namedview
     pagecolor="#ffffff"
     bordercolor="#666666"
     borderopacity="1"
     objecttolerance="10"
     gridtolerance="10"
     guidetolerance="10"
     inkscape:pageopacity="0"
     inkscape:pageshadow="2"
     inkscape:window-width="1191"
     inkscape:window-height="682"
     id="namedview249"
     showgrid="false"
     inkscape:zoom="2.36"
     inkscape:cx="50"
     inkscape:cy="50"
     inkscape:window-x="236"
     inkscape:window-y="96"
     inkscape:window-maximized="0"
     inkscape:current-layer="Layer_1" /><rect
     x="63.765"
     y="86.598"
     transform="matrix(0.9842 -0.1773 0.1773 0.9842 -14.4391 12.8881)"
     fill="#000000"
     width="2.286"
     height="1.307"
     id="rect3"
     style="fill:#0086d7;fill-opacity:1" /><rect
     x="24.801"
     y="23.498"
     transform="matrix(0.0976 -0.9952 0.9952 0.0976 -0.6234 47.6142)"
     fill="#000000"
     width="2.286"
     height="1.307"
     id="rect5"
     style="fill:#0086d7;fill-opacity:1" /><rect
     x="17.65"
     y="22.796"
     transform="matrix(0.0976 -0.9952 0.9952 0.0976 -6.3781 39.8643)"
     fill="#000000"
     width="2.286"
     height="1.306"
     id="rect7"
     style="fill:#0086d7;fill-opacity:1" /><rect
     x="23.339"
     y="23.354"
     transform="matrix(0.0978 -0.9952 0.9952 0.0978 -1.8051 46.0234)"
     fill="#000000"
     width="2.286"
     height="1.307"
     id="rect9"
     style="fill:#0086d7;fill-opacity:1" /><rect
     x="19.113"
     y="22.94"
     transform="matrix(0.0976 -0.9952 0.9952 0.0976 -5.2013 41.4493)"
     fill="#000000"
     width="2.286"
     height="1.306"
     id="rect11"
     style="fill:#0086d7;fill-opacity:1" /><rect
     x="20.736"
     y="22.983"
     transform="matrix(0.0976 -0.9952 0.9952 0.0976 -3.5007 43.7388)"
     fill="#000000"
     width="3.267"
     height="1.633"
     id="rect13"
     style="fill:#0086d7;fill-opacity:1" /><rect
     x="41.073"
     y="76.593"
     transform="matrix(-0.6743 -0.7384 0.7384 -0.6743 14.3419 161.1438)"
     fill="#000000"
     width="3.266"
     height="1.633"
     id="rect15"
     style="fill:#0086d7;fill-opacity:1" /><rect
     x="39.996"
     y="78.188"
     transform="matrix(-0.6744 -0.7383 0.7383 -0.6744 10.6753 162.3888)"
     fill="#000000"
     width="2.286"
     height="1.306"
     id="rect17"
     style="fill:#0086d7;fill-opacity:1" /><rect
     x="43.131"
     y="75.324"
     transform="matrix(-0.6744 -0.7383 0.7383 -0.6744 18.0387 159.909)"
     fill="#000000"
     width="2.286"
     height="1.306"
     id="rect19"
     style="fill:#0086d7;fill-opacity:1" /><rect
     x="38.911"
     y="79.179"
     transform="matrix(-0.6746 -0.7382 0.7382 -0.6746 8.1391 163.2521)"
     fill="#000000"
     width="2.286"
     height="1.306"
     id="rect21"
     style="fill:#0086d7;fill-opacity:1" /><rect
     x="44.217"
     y="74.333"
     transform="matrix(-0.6744 -0.7383 0.7383 -0.6744 20.5881 159.0507)"
     fill="#000000"
     width="2.286"
     height="1.306"
     id="rect23"
     style="fill:#0086d7;fill-opacity:1" /><rect
     x="40.485"
     y="3.52"
     transform="matrix(-0.9862 0.1653 -0.1653 -0.9862 83.373 1.4082)"
     fill="#000000"
     width="2.286"
     height="1.307"
     id="rect25"
     style="fill:#0086d7;fill-opacity:1" /><rect
     x="41.673"
     y="10.607"
     transform="matrix(-0.9862 0.1653 -0.1653 -0.9862 86.9042 15.2856)"
     fill="#000000"
     width="2.286"
     height="1.306"
     id="rect27"
     style="fill:#0086d7;fill-opacity:1" /><rect
     x="40.728"
     y="4.969"
     transform="matrix(-0.9862 0.1653 -0.1653 -0.9862 84.0951 4.2451)"
     fill="#000000"
     width="2.286"
     height="1.307"
     id="rect29"
     style="fill:#0086d7;fill-opacity:1" /><rect
     x="41.43"
     y="9.157"
     transform="matrix(-0.9862 0.1653 -0.1653 -0.9862 86.1814 12.4479)"
     fill="#000000"
     width="2.286"
     height="1.307"
     id="rect31"
     style="fill:#0086d7;fill-opacity:1" /><rect
     x="40.589"
     y="6.9"
     transform="matrix(-0.9862 0.1653 -0.1653 -0.9862 85.1381 8.3463)"
     fill="#000000"
     width="3.266"
     height="1.633"
     id="rect33"
     style="fill:#0086d7;fill-opacity:1" /><rect
     x="3.259"
     y="38.081"
     transform="matrix(0.2132 -0.977 0.977 0.2132 -34.1544 35.3854)"
     fill="#000000"
     width="3.266"
     height="1.633"
     id="rect35"
     style="fill:#0086d7;fill-opacity:1" /><rect
     x="1.675"
     y="37.792"
     transform="matrix(0.2132 -0.977 0.977 0.2132 -35.3446 33.0026)"
     fill="#000000"
     width="2.286"
     height="1.307"
     id="rect37"
     style="fill:#0086d7;fill-opacity:1" /><rect
     x="5.823"
     y="38.697"
     transform="matrix(0.2132 -0.977 0.977 0.2132 -32.9652 37.7677)"
     fill="#000000"
     width="2.286"
     height="1.306"
     id="rect39"
     style="fill:#0086d7;fill-opacity:1" /><rect
     x="0.239"
     y="37.479"
     transform="matrix(0.2132 -0.977 0.977 0.2132 -36.1681 31.3532)"
     fill="#000000"
     width="2.286"
     height="1.306"
     id="rect41"
     style="fill:#0086d7;fill-opacity:1" /><rect
     x="7.258"
     y="39.01"
     transform="matrix(0.2131 -0.977 0.977 0.2131 -32.1411 39.4207)"
     fill="#000000"
     width="2.287"
     height="1.306"
     id="rect43"
     style="fill:#0086d7;fill-opacity:1" /><rect
     x="87.46"
     y="55.653"
     transform="matrix(-0.2311 -0.9729 0.9729 -0.2311 54.7433 156.2017)"
     fill="#000000"
     width="3.266"
     height="1.633"
     id="rect45"
     style="fill:#0086d7;fill-opacity:1" /><rect
     x="85.884"
     y="56.306"
     transform="matrix(-0.2311 -0.9729 0.9729 -0.2311 51.7174 154.7925)"
     fill="#000000"
     width="2.286"
     height="1.307"
     id="rect47"
     style="fill:#0086d7;fill-opacity:1" /><rect
     x="90.015"
     y="55.326"
     transform="matrix(-0.2311 -0.9729 0.9729 -0.2311 57.7573 157.605)"
     fill="#000000"
     width="2.286"
     height="1.306"
     id="rect49"
     style="fill:#0086d7;fill-opacity:1" /><rect
     x="74.128"
     y="87.591"
     transform="matrix(-0.9584 0.2853 -0.2853 -0.9584 172.5914 151.3457)"
     fill="#000000"
     width="2.286"
     height="1.307"
     id="rect51"
     style="fill:#0086d7;fill-opacity:1" /><rect
     x="76.181"
     y="94.478"
     transform="matrix(-0.9583 0.2857 -0.2857 -0.9583 178.6047 164.2058)"
     fill="#000000"
     width="2.287"
     height="1.306"
     id="rect53"
     style="fill:#0086d7;fill-opacity:1" /><rect
     x="74.548"
     y="89.001"
     transform="matrix(-0.9583 0.2857 -0.2857 -0.9583 173.8421 153.9455)"
     fill="#000000"
     width="2.287"
     height="1.306"
     id="rect55"
     style="fill:#0086d7;fill-opacity:1" /><rect
     x="75.761"
     y="93.069"
     transform="matrix(-0.9583 0.2857 -0.2857 -0.9583 177.3799 161.5671)"
     fill="#000000"
     width="2.287"
     height="1.307"
     id="rect57"
     style="fill:#0086d7;fill-opacity:1" /><rect
     x="74.665"
     y="90.872"
     transform="matrix(-0.9583 0.2858 -0.2858 -0.9583 175.6205 157.7426)"
     fill="#000000"
     width="3.266"
     height="1.632"
     id="rect59"
     style="fill:#0086d7;fill-opacity:1" /><rect
     x="84.454"
     y="56.646"
     transform="matrix(-0.2311 -0.9729 0.9729 -0.2311 49.6267 153.8199)"
     fill="#000000"
     width="2.286"
     height="1.307"
     id="rect61"
     style="fill:#0086d7;fill-opacity:1" /><rect
     x="91.445"
     y="54.986"
     transform="matrix(-0.231 -0.973 0.973 -0.231 59.8384 158.5749)"
     fill="#000000"
     width="2.287"
     height="1.307"
     id="rect63"
     style="fill:#0086d7;fill-opacity:1" /><rect
     x="89.32"
     y="39.757"
     transform="matrix(-0.7672 -0.6414 0.6414 -0.7672 134.7139 130.0364)"
     fill="#000000"
     width="3.266"
     height="1.633"
     id="rect65"
     style="fill:#0086d7;fill-opacity:1" /><rect
     x="88.449"
     y="41.549"
     transform="matrix(-0.7673 -0.6413 0.6413 -0.7673 131.2732 132.0374)"
     fill="#000000"
     width="2.286"
     height="1.307"
     id="rect67"
     style="fill:#0086d7;fill-opacity:1" /><rect
     x="91.171"
     y="38.29"
     transform="matrix(-0.7671 -0.6415 0.6415 -0.7671 138.1453 128.0399)"
     fill="#000000"
     width="2.286"
     height="1.307"
     id="rect69"
     style="fill:#0086d7;fill-opacity:1" /><rect
     x="87.505"
     y="42.676"
     transform="matrix(-0.7673 -0.6413 0.6413 -0.7673 128.8794 133.4266)"
     fill="#000000"
     width="2.287"
     height="1.306"
     id="rect71"
     style="fill:#0086d7;fill-opacity:1" /><rect
     x="92.114"
     y="37.162"
     transform="matrix(-0.7673 -0.6413 0.6413 -0.7673 140.5594 126.6387)"
     fill="#000000"
     width="2.287"
     height="1.307"
     id="rect73"
     style="fill:#0086d7;fill-opacity:1" /><rect
     x="7.678"
     y="69.029"
     transform="matrix(-0.6823 -0.7311 0.7311 -0.6823 -35.3974 124.3094)"
     fill="#000000"
     width="3.266"
     height="1.633"
     id="rect75"
     style="fill:#0086d7;fill-opacity:1" /><rect
     x="6.616"
     y="70.641"
     transform="matrix(-0.6823 -0.731 0.731 -0.6823 -39.0659 125.6122)"
     fill="#000000"
     width="2.286"
     height="1.307"
     id="rect77"
     style="fill:#0086d7;fill-opacity:1" /><rect
     x="9.72"
     y="67.744"
     transform="matrix(-0.6822 -0.7311 0.7311 -0.6822 -31.7331 123.0021)"
     fill="#000000"
     width="2.287"
     height="1.307"
     id="rect79"
     style="fill:#0086d7;fill-opacity:1" /><rect
     x="5.541"
     y="71.643"
     transform="matrix(-0.6821 -0.7312 0.7312 -0.6821 -41.6226 126.4989)"
     fill="#000000"
     width="2.286"
     height="1.307"
     id="rect81"
     style="fill:#0086d7;fill-opacity:1" /><rect
     x="10.795"
     y="66.741"
     transform="matrix(-0.6821 -0.7312 0.7312 -0.6821 -29.2005 122.0943)"
     fill="#000000"
     width="2.286"
     height="1.307"
     id="rect83"
     style="fill:#0086d7;fill-opacity:1" /><rect
     x="13.507"
     y="42.502"
     transform="matrix(0.758 -0.6523 0.6523 0.758 -24.603 19.9996)"
     fill="#000000"
     width="2.286"
     height="1.306"
     id="rect85"
     style="fill:#0086d7;fill-opacity:1" /><rect
     x="8.819"
     y="37.056"
     transform="matrix(0.758 -0.6523 0.6523 0.758 -22.1857 15.6243)"
     fill="#000000"
     width="2.286"
     height="1.306"
     id="rect87"
     style="fill:#0086d7;fill-opacity:1" /><rect
     x="12.548"
     y="41.388"
     transform="matrix(0.758 -0.6523 0.6523 0.758 -24.1089 19.1048)"
     fill="#000000"
     width="2.286"
     height="1.307"
     id="rect89"
     style="fill:#0086d7;fill-opacity:1" /><rect
     x="9.778"
     y="38.17"
     transform="matrix(0.758 -0.6523 0.6523 0.758 -22.68 16.5193)"
     fill="#000000"
     width="2.286"
     height="1.306"
     id="rect91"
     style="fill:#0086d7;fill-opacity:1" /><rect
     x="10.673"
     y="39.616"
     transform="matrix(0.7579 -0.6524 0.6524 0.7579 -23.3973 17.8166)"
     fill="#000000"
     width="3.266"
     height="1.633"
     id="rect93"
     style="fill:#0086d7;fill-opacity:1" /><rect
     x="30.478"
     y="91.592"
     transform="matrix(1 -0.0048 0.0048 1 -0.4417 0.1547)"
     fill="#000000"
     width="3.266"
     height="1.634"
     id="rect95"
     style="fill:#0086d7;fill-opacity:1" /><rect
     x="30.957"
     y="89.632"
     transform="matrix(1 -0.0051 0.0051 1 -0.4624 0.1657)"
     fill="#000000"
     width="2.286"
     height="1.307"
     id="rect97"
     style="fill:#0086d7;fill-opacity:1" /><rect
     x="30.978"
     y="93.878"
     transform="matrix(1 -0.0051 0.0051 1 -0.4841 0.1659)"
     fill="#000000"
     width="2.286"
     height="1.307"
     id="rect99"
     style="fill:#0086d7;fill-opacity:1" /><rect
     x="30.95"
     y="88.162"
     transform="matrix(1 -0.0051 0.0051 1 -0.4548 0.1657)"
     fill="#000000"
     width="2.286"
     height="1.307"
     id="rect101"
     style="fill:#0086d7;fill-opacity:1" /><rect
     x="30.986"
     y="95.348"
     transform="matrix(1 -0.0051 0.0051 1 -0.4917 0.1659)"
     fill="#000000"
     width="2.286"
     height="1.307"
     id="rect103"
     style="fill:#0086d7;fill-opacity:1" /><rect
     x="35.313"
     y="15.631"
     transform="matrix(0.7434 -0.6688 0.6688 0.7434 -1.5207 28.9306)"
     fill="#000000"
     width="3.266"
     height="1.633"
     id="rect105"
     style="fill:#0086d7;fill-opacity:1" /><rect
     x="34.384"
     y="14.217"
     transform="matrix(0.7436 -0.6686 0.6686 0.7436 -0.8332 27.5664)"
     fill="#000000"
     width="2.286"
     height="1.306"
     id="rect107"
     style="fill:#0086d7;fill-opacity:1" /><rect
     x="37.223"
     y="17.373"
     transform="matrix(0.7434 -0.6689 0.6689 0.7434 -2.2116 30.2872)"
     fill="#000000"
     width="2.286"
     height="1.307"
     id="rect109"
     style="fill:#0086d7;fill-opacity:1" /><rect
     x="33.4"
     y="13.124"
     transform="matrix(0.7434 -0.6689 0.6689 0.7434 -0.3506 26.64)"
     fill="#000000"
     width="2.286"
     height="1.307"
     id="rect111"
     style="fill:#0086d7;fill-opacity:1" /><rect
     x="38.206"
     y="18.465"
     transform="matrix(0.7434 -0.6689 0.6689 0.7434 -2.6902 31.2252)"
     fill="#000000"
     width="2.286"
     height="1.307"
     id="rect113"
     style="fill:#0086d7;fill-opacity:1" /><line
     fill="#000000"
     x1="64.127"
     y1="82.912"
     x2="64.068"
     y2="82.591"
     id="line115"
     style="fill:#0086d7;fill-opacity:1" /><rect
     x="62.491"
     y="79.526"
     transform="matrix(0.9842 -0.1773 0.1773 0.9842 -13.2056 12.5502)"
     fill="#000000"
     width="2.286"
     height="1.307"
     id="rect117"
     style="fill:#0086d7;fill-opacity:1" /><rect
     x="63.504"
     y="85.152"
     transform="matrix(0.9842 -0.1772 0.1772 0.9842 -14.1812 12.813)"
     fill="#000000"
     width="2.287"
     height="1.306"
     id="rect119"
     style="fill:#0086d7;fill-opacity:1" /><rect
     x="62.752"
     y="80.974"
     transform="matrix(0.9842 -0.1773 0.1773 0.9842 -13.4579 12.6194)"
     fill="#000000"
     width="2.286"
     height="1.306"
     id="rect121"
     style="fill:#0086d7;fill-opacity:1" /><rect
     x="62.638"
     y="82.9"
     transform="matrix(0.9842 -0.1773 0.1773 0.9842 -13.8269 12.7242)"
     fill="#000000"
     width="3.266"
     height="1.632"
     id="rect123"
     style="fill:#0086d7;fill-opacity:1" /><rect
     x="54.307"
     y="31.455"
     transform="matrix(0.9987 0.0513 -0.0513 0.9987 1.7187 -2.8001)"
     fill="#000000"
     width="2.286"
     height="1.306"
     id="rect125"
     style="fill:#0086d7;fill-opacity:1" /><rect
     x="54.675"
     y="24.279"
     transform="matrix(0.9987 0.0513 -0.0513 0.9987 1.3514 -2.8284)"
     fill="#000000"
     width="2.286"
     height="1.306"
     id="rect127"
     style="fill:#0086d7;fill-opacity:1" /><rect
     x="54.381"
     y="29.987"
     transform="matrix(0.9987 0.0512 -0.0512 0.9987 1.6428 -2.8047)"
     fill="#000000"
     width="2.287"
     height="1.306"
     id="rect129"
     style="fill:#0086d7;fill-opacity:1" /><rect
     x="54.6"
     y="25.747"
     transform="matrix(0.9987 0.0513 -0.0513 0.9987 1.4265 -2.8226)"
     fill="#000000"
     width="2.286"
     height="1.306"
     id="rect131"
     style="fill:#0086d7;fill-opacity:1" /><rect
     x="54.001"
     y="27.704"
     transform="matrix(0.9987 0.0514 -0.0514 0.9987 1.5404 -2.8234)"
     fill="#000000"
     width="3.266"
     height="1.633"
     id="rect133"
     style="fill:#0086d7;fill-opacity:1" /><rect
     x="97.236"
     y="28.392"
     transform="matrix(-0.4784 -0.8782 0.8782 -0.4784 119.9351 129.3325)"
     fill="#000000"
     width="2.286"
     height="1.306"
     id="rect135"
     style="fill:#0086d7;fill-opacity:1" /><rect
     x="90.926"
     y="31.829"
     transform="matrix(-0.478 -0.8783 0.8783 -0.478 107.552 128.8783)"
     fill="#000000"
     width="2.286"
     height="1.307"
     id="rect137"
     style="fill:#0086d7;fill-opacity:1" /><rect
     x="95.946"
     y="29.095"
     transform="matrix(-0.478 -0.8783 0.8783 -0.478 117.3728 129.2456)"
     fill="#000000"
     width="2.286"
     height="1.307"
     id="rect139"
     style="fill:#0086d7;fill-opacity:1" /><rect
     x="92.217"
     y="31.126"
     transform="matrix(-0.4784 -0.8782 0.8782 -0.4784 110.1135 128.9662)"
     fill="#000000"
     width="2.286"
     height="1.307"
     id="rect141"
     style="fill:#0086d7;fill-opacity:1" /><rect
     x="93.591"
     y="29.947"
     transform="matrix(-0.4784 -0.8781 0.8781 -0.4784 113.763 129.1022)"
     fill="#000000"
     width="3.266"
     height="1.634"
     id="rect143"
     style="fill:#0086d7;fill-opacity:1" /><rect
     x="78.844"
     y="21.499"
     transform="matrix(-0.1743 -0.9847 0.9847 -0.1743 72.5292 105.4505)"
     fill="#000000"
     width="3.267"
     height="1.633"
     id="rect145"
     style="fill:#0086d7;fill-opacity:1" /><rect
     x="77.244"
     y="22.033"
     transform="matrix(-0.1743 -0.9847 0.9847 -0.1743 69.7111 103.8275)"
     fill="#000000"
     width="2.286"
     height="1.306"
     id="rect147"
     style="fill:#0086d7;fill-opacity:1" /><rect
     x="81.424"
     y="21.292"
     transform="matrix(-0.1747 -0.9846 0.9846 -0.1747 75.385 107.0769)"
     fill="#000000"
     width="2.286"
     height="1.306"
     id="rect149"
     style="fill:#0086d7;fill-opacity:1" /><rect
     x="75.797"
     y="22.289"
     transform="matrix(-0.1743 -0.9847 0.9847 -0.1743 67.7591 102.7034)"
     fill="#000000"
     width="2.286"
     height="1.306"
     id="rect151"
     style="fill:#0086d7;fill-opacity:1" /><rect
     x="82.872"
     y="21.035"
     transform="matrix(-0.1742 -0.9847 0.9847 -0.1742 77.2958 108.1973)"
     fill="#000000"
     width="2.287"
     height="1.306"
     id="rect153"
     style="fill:#0086d7;fill-opacity:1" /><rect
     x="83.612"
     y="77.837"
     transform="matrix(0.8099 -0.5865 0.5865 0.8099 -29.9271 64.6286)"
     fill="#000000"
     width="2.286"
     height="1.306"
     id="rect155"
     style="fill:#0086d7;fill-opacity:1" /><rect
     x="79.399"
     y="72.017"
     transform="matrix(0.8101 -0.5862 0.5862 0.8101 -27.3105 61.0139)"
     fill="#000000"
     width="2.285"
     height="1.306"
     id="rect157"
     style="fill:#0086d7;fill-opacity:1" /><rect
     x="82.75"
     y="76.647"
     transform="matrix(0.8101 -0.5863 0.5863 0.8101 -29.3893 63.8688)"
     fill="#000000"
     width="2.287"
     height="1.306"
     id="rect159"
     style="fill:#0086d7;fill-opacity:1" /><rect
     x="80.261"
     y="73.208"
     transform="matrix(0.8103 -0.586 0.586 0.8103 -27.8416 61.7181)"
     fill="#000000"
     width="2.286"
     height="1.306"
     id="rect161"
     style="fill:#0086d7;fill-opacity:1" /><rect
     x="81.015"
     y="74.763"
     transform="matrix(0.81 -0.5864 0.5864 0.81 -28.6183 62.8201)"
     fill="#000000"
     width="3.266"
     height="1.634"
     id="rect163"
     style="fill:#0086d7;fill-opacity:1" /><rect
     x="67.86"
     y="72.093"
     transform="matrix(0.6061 -0.7954 0.7954 0.6061 -30.6818 83.5352)"
     fill="#000000"
     width="2.286"
     height="1.306"
     id="rect165"
     style="fill:#0086d7;fill-opacity:1" /><rect
     x="62.146"
     y="67.736"
     transform="matrix(0.6061 -0.7954 0.7954 0.6061 -29.467 77.2746)"
     fill="#000000"
     width="2.286"
     height="1.307"
     id="rect167"
     style="fill:#0086d7;fill-opacity:1" /><rect
     x="66.692"
     y="71.202"
     transform="matrix(0.6066 -0.795 0.795 0.6066 -30.4395 82.1961)"
     fill="#000000"
     width="2.286"
     height="1.306"
     id="rect169"
     style="fill:#0086d7;fill-opacity:1" /><rect
     x="63.315"
     y="68.628"
     transform="matrix(0.6061 -0.7954 0.7954 0.6061 -29.7153 78.5553)"
     fill="#000000"
     width="2.286"
     height="1.306"
     id="rect171"
     style="fill:#0086d7;fill-opacity:1" /><rect
     x="64.513"
     y="69.752"
     transform="matrix(0.6063 -0.7952 0.7952 0.6063 -30.0766 80.3854)"
     fill="#000000"
     width="3.267"
     height="1.633"
     id="rect173"
     style="fill:#0086d7;fill-opacity:1" /><rect
     x="22.05"
     y="72.467"
     transform="matrix(-0.8294 -0.5586 0.5586 -0.8294 1.5821 146.7224)"
     fill="#000000"
     width="2.287"
     height="1.306"
     id="rect175"
     style="fill:#0086d7;fill-opacity:1" /><rect
     x="18.036"
     y="78.426"
     transform="matrix(-0.8294 -0.5586 0.5586 -0.8294 -9.0902 155.3824)"
     fill="#000000"
     width="2.287"
     height="1.307"
     id="rect177"
     style="fill:#0086d7;fill-opacity:1" /><rect
     x="21.229"
     y="73.685"
     transform="matrix(-0.8293 -0.5587 0.5587 -0.8293 -0.6092 148.4907)"
     fill="#000000"
     width="2.286"
     height="1.306"
     id="rect179"
     style="fill:#0086d7;fill-opacity:1" /><rect
     x="18.856"
     y="77.207"
     transform="matrix(-0.8294 -0.5586 0.5586 -0.8294 -6.9078 153.6113)"
     fill="#000000"
     width="2.287"
     height="1.307"
     id="rect181"
     style="fill:#0086d7;fill-opacity:1" /><rect
     x="19.553"
     y="75.283"
     transform="matrix(-0.8295 -0.5586 0.5586 -0.8295 -3.7467 151.0543)"
     fill="#000000"
     width="3.266"
     height="1.633"
     id="rect183"
     style="fill:#0086d7;fill-opacity:1" /><rect
     x="15.927"
     y="58.914"
     transform="matrix(0.1623 -0.9867 0.9867 0.1623 -44.4779 66.7414)"
     fill="#000000"
     width="2.286"
     height="1.306"
     id="rect185"
     style="fill:#0086d7;fill-opacity:1" /><rect
     x="8.836"
     y="57.748"
     transform="matrix(0.1623 -0.9867 0.9867 0.1623 -49.2668 58.7684)"
     fill="#000000"
     width="2.286"
     height="1.306"
     id="rect187"
     style="fill:#0086d7;fill-opacity:1" /><rect
     x="14.477"
     y="58.675"
     transform="matrix(0.1623 -0.9867 0.9867 0.1623 -45.4576 65.1108)"
     fill="#000000"
     width="2.286"
     height="1.306"
     id="rect189"
     style="fill:#0086d7;fill-opacity:1" /><rect
     x="10.287"
     y="57.986"
     transform="matrix(0.1625 -0.9867 0.9867 0.1625 -48.2872 60.3866)"
     fill="#000000"
     width="2.286"
     height="1.306"
     id="rect191"
     style="fill:#0086d7;fill-opacity:1" /><rect
     x="11.892"
     y="58.167"
     transform="matrix(0.1624 -0.9867 0.9867 0.1624 -46.8723 62.7526)"
     fill="#000000"
     width="3.266"
     height="1.633"
     id="rect193"
     style="fill:#0086d7;fill-opacity:1" /><rect
     x="67.477"
     y="13.188"
     transform="matrix(-0.7252 -0.6885 0.6885 -0.7252 108.8556 71.1255)"
     fill="#000000"
     width="2.286"
     height="1.307"
     id="rect195"
     style="fill:#0086d7;fill-opacity:1" /><rect
     x="62.53"
     y="18.4"
     transform="matrix(-0.7252 -0.6885 0.6885 -0.7252 96.7332 76.7105)"
     fill="#000000"
     width="2.286"
     height="1.307"
     id="rect197"
     style="fill:#0086d7;fill-opacity:1" /><rect
     x="66.465"
     y="14.255"
     transform="matrix(-0.7252 -0.6885 0.6885 -0.7252 106.3751 72.2684)"
     fill="#000000"
     width="2.286"
     height="1.306"
     id="rect199"
     style="fill:#0086d7;fill-opacity:1" /><rect
     x="63.542"
     y="17.334"
     transform="matrix(-0.7252 -0.6885 0.6885 -0.7252 99.2126 75.5681)"
     fill="#000000"
     width="2.286"
     height="1.306"
     id="rect201"
     style="fill:#0086d7;fill-opacity:1" /><rect
     x="64.514"
     y="15.631"
     transform="matrix(-0.7251 -0.6886 0.6886 -0.7251 102.784 73.9239)"
     fill="#000000"
     width="3.266"
     height="1.633"
     id="rect203"
     style="fill:#0086d7;fill-opacity:1" /><g
     id="g205"
     style="fill:#0086d7;fill-opacity:1"><path
       fill="#000000"
       d="M4.463,53.485c1.068,4.61,3.111,9.063,6.088,13.113l0.806-0.592c-3.319-4.515-5.447-9.542-6.313-14.722   c1.075-3.205,3.121-6.318,6.145-9.186L10.5,41.374c-2.606,2.471-4.512,5.119-5.739,7.851c-0.28-2.762-0.204-5.553,0.25-8.321   l-0.987-0.162c-0.568,3.47-0.562,6.974-0.018,10.414c-1.896,5.823-0.715,11.933,3.645,17.5l0.787-0.617   C4.814,63.41,3.516,58.384,4.463,53.485z"
       id="path207"
       style="fill:#0086d7;fill-opacity:1" /><path
       fill="#000000"
       d="M89.729,38.947c-2.61-1.984-5.422-3.605-8.288-4.939c0.29-3.296,0.267-6.592-0.158-9.822l-0.992,0.131   c0.398,3.028,0.439,6.117,0.192,9.21c-3.538-5.979-7.81-11.508-12.559-16.098l-0.695,0.719c4.394,4.246,8.378,9.304,11.735,14.781   c-8.079-3.278-16.26-4.404-21.337-4.784l-0.074,0.997c5.271,0.395,13.934,1.615,22.282,5.249c0.161,0.275,0.325,0.549,0.482,0.827   c-1.414,12.505-7.357,24.906-13.427,33.477l0.816,0.578c5.924-8.365,11.729-20.343,13.43-32.57   c3.137,5.784,5.567,11.912,7.037,17.976l0.973-0.236c-1.586-6.54-4.273-13.156-7.755-19.344c2.675,1.271,5.295,2.794,7.731,4.646   L89.729,38.947z"
       id="path209"
       style="fill:#0086d7;fill-opacity:1" /><path
       fill="#000000"
       d="M53.663,28.945l0.025-1c-10.646-0.277-21.033,1.542-29.609,5.032c3.35-5.468,7.336-10.531,11.785-14.83   l-0.695-0.719c-4.761,4.601-9.006,10.062-12.513,15.962c-0.21-2.638-0.237-5.195-0.017-7.598l-0.996-0.091   c-0.257,2.814-0.215,5.607,0.026,8.321c-2.995,1.387-5.729,2.99-8.126,4.791l0.601,0.8c2.223-1.669,4.751-3.159,7.505-4.466   c-3.9,6.948-6.778,14.434-8.258,21.812l0.98,0.197c1.389-6.925,4.027-13.947,7.594-20.518c0.863,6.26,2.713,11.95,4.439,16.219   c3.475,8.598,8.524,16.706,14.601,23.45l0.743-0.67c-6-6.657-10.985-14.665-14.417-23.155c-2.364-5.848-3.895-11.774-4.526-17.344   c0.132-0.232,0.265-0.464,0.399-0.695C31.882,30.658,42.628,28.658,53.663,28.945z"
       id="path211"
       style="fill:#0086d7;fill-opacity:1" /><path
       fill="#000000"
       d="M58.043,88.502c-1.704-0.852-3.347-1.81-4.962-2.884c3.124-0.086,6.26-0.409,9.366-1.007l-0.111-0.576   l-0.071-0.525c-2.887,0.393-5.789,0.617-8.681,0.694c5.739-4.483,9.961-9.478,11.765-11.771l-0.787-0.617   c-1.887,2.4-6.468,7.813-12.654,12.417c-0.269,0.002-0.537,0.003-0.806,0.002c-2.233-1.65-4.431-3.558-6.671-5.779l-0.704,0.709   c1.913,1.898,3.798,3.56,5.7,5.043c-3.544-0.089-7.044-0.411-10.447-0.96c-5.673-1.298-11.068-3.477-15.889-6.497l-0.531,0.848   c1.803,1.13,3.688,2.137,5.634,3.034c-2.295-0.765-4.503-1.645-6.597-2.643l-0.431,0.902c5.273,2.514,11.25,4.295,17.562,5.321   c3.649,0.837,7.41,1.314,11.211,1.416c-4.668,3.154-10.103,5.691-15.913,6.195l0.087,0.996c6.427-0.558,12.391-3.515,17.397-7.071   c1.975,1.387,3.984,2.598,6.085,3.647c3.401,1.7,8.237,3.512,13.393,3.512c1.147,0,2.313-0.09,3.479-0.29l-0.17-0.986   C68.154,92.691,62.068,90.515,58.043,88.502z"
       id="path213"
       style="fill:#0086d7;fill-opacity:1" /><path
       fill="#000000"
       d="M19.083,18.167c1.774-1.396,3.688-2.655,5.695-3.799c-1.132,2.159-2.001,4.628-2.563,7.396l0.979,0.199   c0.671-3.301,1.792-6.16,3.292-8.543c4.273-2.216,8.969-3.867,13.906-4.86l-0.197-0.98c-4.398,0.885-8.601,2.295-12.502,4.143   c3.075-3.879,7.372-6.125,12.581-6.385l-0.05-0.999c-6.198,0.311-11.173,3.254-14.445,8.322c-2.609,1.372-5.062,2.951-7.314,4.722   C11.744,22.668,7.054,29.404,4.9,36.86l0.961,0.277C7.956,29.884,12.528,23.324,19.083,18.167z"
       id="path215"
       style="fill:#0086d7;fill-opacity:1" /><path
       fill="#000000"
       d="M44.097,6.935l0.129,0.991c1.614-0.209,3.23-0.343,4.844-0.415c-2.024,0.962-3.772,1.992-5.114,2.862   l0.544,0.839c1.748-1.133,4.202-2.542,7.057-3.701c5.462,2.234,10.061,5.684,12.794,8.019l0.65-0.761   c-2.855-2.438-6.608-5.19-10.919-7.26c6.286,0.275,12.453,1.587,18.202,3.914c1.483,0.601,2.917,1.272,4.31,1.996   c1.564,2.494,2.472,5.103,2.978,7.104l0.969-0.245c-0.55-2.175-1.297-4.153-2.225-5.919c6.615,3.786,12.017,8.944,15.532,14.941   l0.863-0.506c-3.866-6.594-9.944-12.195-17.393-16.125c-2.79-4.322-6.822-7.105-11.819-8.028   c-4.908-0.906-9.805,0.169-13.916,1.782c-2.624-1.034-5.412-1.779-8.302-2.026l-0.085,0.996c1.917,0.164,3.79,0.572,5.598,1.131   C47.229,6.6,45.662,6.732,44.097,6.935z M65.317,5.625c4.655,0.859,7.858,3.275,10.069,6.079c-0.894-0.423-1.8-0.831-2.728-1.207   C66.867,8.153,60.661,6.819,54.334,6.52C57.743,5.469,61.533,4.926,65.317,5.625z"
       id="path217"
       style="fill:#0086d7;fill-opacity:1" /><path
       fill="#000000"
       d="M12.28,66.853l1,0.018c0.032-1.926,0.179-3.85,0.449-5.883l-0.991-0.131   C12.463,62.928,12.313,64.889,12.28,66.853z"
       id="path219"
       style="fill:#0086d7;fill-opacity:1" /><path
       fill="#000000"
       d="M17.301,83.823c-1.625-2.571-2.772-5.708-3.417-9.24c1.411,1.035,2.939,2.014,4.622,2.943l0.483-0.875   c-1.986-1.098-3.741-2.27-5.344-3.52c-0.142-1.021-0.233-2.078-0.293-3.156c1.785,1.946,3.732,3.724,5.941,5.382l0.601-0.801   c-2.542-1.906-4.741-3.958-6.725-6.271l-0.383,0.328l-0.5,0.011c0.027,1.241,0.122,2.443,0.253,3.619   c-0.52-0.441-1.03-0.89-1.513-1.354l-0.693,0.721c0.75,0.722,1.556,1.404,2.392,2.071c0.619,4.101,1.875,7.737,3.734,10.677   c3.151,4.982,7.871,7.906,13.647,8.456l0.095-0.996C24.741,91.3,20.281,88.535,17.301,83.823z"
       id="path221"
       style="fill:#0086d7;fill-opacity:1" /><path
       fill="#000000"
       d="M80.757,76.268c-4.469,2.919-9.28,5.043-14.708,6.492l0.123,0.46l0.122,0.648   c6.176-1.166,11.58-2.937,16.522-5.411l-0.447-0.895c-2.359,1.182-4.831,2.197-7.443,3.063c2.211-1.021,4.332-2.185,6.378-3.521   L80.757,76.268z"
       id="path223"
       style="fill:#0086d7;fill-opacity:1" /><path
       fill="#000000"
       d="M99.093,51.253c1.003-6.256,0.204-12.744-2.562-18.925l-0.912,0.408c2.415,5.399,3.285,11.042,2.723,16.547   c-1.202-2.716-3.067-5.333-5.587-7.756l-0.693,0.721c1.988,1.913,4.641,5.052,5.996,9.088c-0.948,5.636-3.406,11.072-7.26,15.894   c-0.022-2.857-0.292-5.848-0.839-8.923l-0.984,0.176c0.612,3.45,0.885,6.794,0.827,9.944c-1.723,1.987-3.687,3.861-5.892,5.586   l0.615,0.787c1.917-1.499,3.652-3.11,5.216-4.807c-0.06,1.083-0.162,2.139-0.304,3.165c-1.519,1.177-3.058,2.183-4.485,3.012   l0.502,0.865c1.202-0.698,2.482-1.521,3.765-2.459c-0.137,0.752-0.291,1.489-0.474,2.203c-1.219,4.759-4.08,11.016-10.786,13.8   l0.383,0.924c7.089-2.942,10.097-9.496,11.372-14.476c0.272-1.063,0.479-2.18,0.65-3.323c3.837-3.04,7.497-7.188,8.956-12.557   C100.22,57.839,100.122,54.492,99.093,51.253z M98.355,60.886c-1.29,4.745-4.406,8.51-7.799,11.369   c0.123-1.118,0.199-2.267,0.23-3.442c3.933-4.615,6.59-9.825,7.859-15.27C99.077,55.781,99.074,58.241,98.355,60.886z"
       id="path225"
       style="fill:#0086d7;fill-opacity:1" /><path
       fill="#000000"
       d="M38.741,15.532c1.127-0.963,2.283-1.877,3.435-2.718l-0.589-0.808c-1.173,0.855-2.349,1.786-3.495,2.765   L38.741,15.532z"
       id="path227"
       style="fill:#0086d7;fill-opacity:1" /></g><polygon
     fill="#000000"
     points="55.668,47.41 56.122,48.05 56.212,48.033 56.246,47.634 56.277,47.19 56.224,46.927 56.084,46.893   55.891,47.088 55.544,47.201 "
     id="polygon229"
     style="fill:#0086d7;fill-opacity:1" /><path
     fill="#000000"
     d="M65.059,44.599c-0.023-0.064-0.05-0.126-0.072-0.189c-0.087-0.229-0.178-0.458-0.274-0.686  c-0.044-0.103-0.088-0.204-0.135-0.305c-0.033-0.075-0.063-0.15-0.097-0.225c-0.088-0.186-0.178-0.369-0.271-0.549  c-0.01-0.019-0.019-0.036-0.028-0.054c-0.149-0.283-0.305-0.56-0.466-0.83c-0.013-0.018-0.022-0.035-0.031-0.052  c-0.175-0.289-0.357-0.568-0.547-0.841c-0.005-0.006-0.009-0.013-0.013-0.019c-1.2-1.725-2.7-3.157-4.396-4.258  c-0.01-0.006-0.019-0.013-0.028-0.019c-0.277-0.179-0.559-0.349-0.844-0.51c-0.023-0.013-0.047-0.026-0.071-0.04  c-0.279-0.155-0.563-0.304-0.851-0.441c-0.028-0.014-0.056-0.026-0.085-0.04c-0.292-0.138-0.586-0.268-0.884-0.388  c-0.019-0.007-0.037-0.014-0.056-0.021c-0.304-0.121-0.612-0.232-0.923-0.334c-0.012-0.003-0.021-0.008-0.033-0.012  c-0.323-0.105-0.649-0.199-0.978-0.283c-0.011-0.003-0.021-0.006-0.032-0.009v0.001c-1.286-0.328-2.615-0.499-3.957-0.499  c-0.095,0-0.192,0.006-0.288,0.008c-0.063,0-0.126,0.003-0.19,0.005c-0.537,0.016-1.075,0.06-1.613,0.131  c-0.08,0.011-0.159,0.021-0.238,0.032c-0.152,0.022-0.302,0.046-0.453,0.074c-0.105,0.019-0.209,0.04-0.314,0.061  c-0.189,0.037-0.379,0.078-0.568,0.123c-0.163,0.039-0.325,0.078-0.486,0.122c-0.104,0.028-0.208,0.059-0.311,0.089  c-0.166,0.048-0.332,0.099-0.495,0.153c-0.079,0.025-0.157,0.05-0.237,0.077c-0.242,0.084-0.481,0.173-0.719,0.268  c-0.053,0.021-0.104,0.044-0.158,0.066c-0.208,0.085-0.415,0.176-0.619,0.27c-0.035,0.016-0.07,0.029-0.104,0.045  c-0.022,0.01-0.042,0.022-0.063,0.032c-0.221,0.105-0.441,0.214-0.656,0.329c-0.042,0.022-0.082,0.046-0.123,0.068  c-0.166,0.09-0.33,0.183-0.492,0.278c-0.099,0.059-0.195,0.118-0.292,0.178c-0.097,0.061-0.193,0.121-0.289,0.184  c-0.114,0.074-0.228,0.148-0.34,0.225c-0.053,0.037-0.105,0.075-0.158,0.112c-0.446,0.313-0.871,0.646-1.275,0.998  c-0.028,0.024-0.057,0.048-0.083,0.073c-0.138,0.121-0.274,0.244-0.406,0.37c-0.017,0.015-0.033,0.031-0.049,0.046  c-0.414,0.394-0.801,0.806-1.167,1.236c-0.03,0.036-0.061,0.07-0.091,0.106c-0.1,0.12-0.197,0.241-0.292,0.364  c-0.05,0.063-0.098,0.125-0.146,0.188c-0.086,0.113-0.171,0.227-0.254,0.343c-0.058,0.08-0.113,0.161-0.169,0.242  c-0.074,0.106-0.148,0.212-0.218,0.319c-0.119,0.18-0.233,0.362-0.344,0.548c-0.048,0.079-0.091,0.159-0.137,0.237  C36.072,42.124,36,42.25,35.93,42.38c-0.047,0.086-0.092,0.173-0.137,0.261c-0.064,0.125-0.128,0.252-0.19,0.38  c-0.042,0.087-0.084,0.176-0.125,0.264c-0.062,0.133-0.121,0.268-0.179,0.403c-0.036,0.083-0.072,0.166-0.106,0.249  c-0.013,0.03-0.027,0.062-0.04,0.093c0.002-0.003,0.005-0.005,0.006-0.007c-0.501,1.245-0.847,2.551-1.024,3.887l0,0  c-0.007,0.05-0.01,0.1-0.016,0.15c-0.03,0.238-0.055,0.477-0.074,0.717c-0.005,0.069-0.008,0.138-0.012,0.206  c-0.015,0.227-0.026,0.453-0.031,0.682c-0.001,0.064,0,0.129,0,0.193c-0.002,0.231-0.001,0.464,0.007,0.696  c0.002,0.059,0.005,0.118,0.007,0.176c0.011,0.237,0.026,0.474,0.048,0.713c0.004,0.054,0.01,0.104,0.016,0.158  c0.023,0.24,0.054,0.481,0.089,0.722c0.008,0.05,0.015,0.103,0.023,0.153c0.036,0.237,0.08,0.472,0.128,0.709  c0.011,0.054,0.022,0.109,0.033,0.163c0.048,0.225,0.103,0.451,0.162,0.675c0.016,0.065,0.032,0.128,0.049,0.192  c0.057,0.206,0.119,0.411,0.185,0.616c0.025,0.081,0.05,0.163,0.076,0.243c0.061,0.18,0.126,0.357,0.193,0.534  c0.038,0.104,0.075,0.207,0.115,0.308c0.061,0.153,0.128,0.306,0.194,0.456c0.052,0.122,0.103,0.241,0.157,0.36  c0.011,0.023,0.021,0.048,0.032,0.071c0.097,0.21,0.201,0.412,0.306,0.616c0.022,0.042,0.046,0.084,0.068,0.126  c0.118,0.219,0.239,0.436,0.365,0.646c0.014,0.024,0.028,0.05,0.042,0.073c0.15,0.25,0.307,0.494,0.469,0.733c0,0,0,0,0,0.001  c3.02,4.452,8.036,7.005,13.24,7.005c2.28,0,4.595-0.49,6.794-1.523C64.337,60.941,67.821,52.278,65.059,44.599z M56.53,63.902  c-2.065,0.97-4.259,1.463-6.522,1.463c-4.716,0-9.132-2.194-12.012-5.787c-0.042-0.109-0.082-0.217-0.123-0.324  c0.176,0.021,0.353,0.043,0.529,0.063c0.096-0.031,0.193-0.059,0.29-0.089c0.034-0.211,0.067-0.42,0.101-0.63  c-0.025-0.253-0.05-0.504-0.076-0.757c-0.046-0.121-0.093-0.243-0.139-0.365c0.063-0.042,0.126-0.085,0.19-0.126  c0.029-0.117,0.059-0.234,0.088-0.353c0.092-0.063,0.185-0.126,0.277-0.19c0.013-0.212,0.026-0.428,0.038-0.642  c-0.054-0.121-0.109-0.244-0.164-0.365c-0.122-0.067-0.243-0.135-0.366-0.202c-0.122-0.209-0.243-0.42-0.365-0.629  c-0.164-0.093-0.328-0.185-0.491-0.277c-0.193-0.119-0.387-0.235-0.58-0.354c-0.109-0.197-0.219-0.395-0.328-0.592  c-0.16-0.201-0.319-0.405-0.478-0.605c0-0.193,0-0.387,0-0.579c-0.056-0.177-0.11-0.353-0.165-0.529  c-0.151-0.231-0.302-0.463-0.454-0.694c-0.109-0.271-0.218-0.545-0.327-0.818c-0.042-0.277-0.084-0.554-0.126-0.831  c-0.046-0.181-0.092-0.362-0.139-0.542c-0.146-0.311-0.291-0.621-0.437-0.932c0.069-0.577,0.17-1.146,0.302-1.709l0.175,0.498  l0.257,0.38l0.198,0.108l-0.223-0.488l-0.166-0.579l-0.008-0.546l-0.021-0.18c0.394-1.35,0.97-2.645,1.717-3.843  c0.124-0.092,0.247-0.183,0.371-0.275c0.155-0.144,0.31-0.286,0.463-0.43c0.229-0.089,0.458-0.177,0.687-0.265  c0.126-0.053,0.254-0.104,0.38-0.157c0.014,0.088,0.028,0.176,0.042,0.264c0.126,0.003,0.254,0.006,0.38,0.009  c0.182-0.061,0.363-0.122,0.546-0.182c-0.169-0.062-0.337-0.122-0.504-0.182c0.11-0.099,0.22-0.198,0.33-0.298  c0.088-0.091,0.177-0.182,0.265-0.273c-0.039-0.096-0.077-0.193-0.115-0.289c0.104-0.012,0.209-0.023,0.314-0.034  c0.118,0.11,0.237,0.22,0.355,0.331c0.124-0.002,0.248-0.005,0.372-0.008c0.113-0.005,0.226-0.011,0.339-0.016  c0.083-0.146,0.165-0.292,0.248-0.438c0.058-0.207,0.116-0.414,0.174-0.621c0.27-0.331,0.541-0.661,0.811-0.992  c-0.191,0.049-0.381,0.1-0.571,0.148c0.14-0.176,0.281-0.353,0.421-0.529c0.096-0.154,0.193-0.309,0.29-0.463  c-0.16,0.072-0.32,0.143-0.479,0.215c-0.232,0.176-0.463,0.353-0.695,0.528c-0.179,0.083-0.358,0.166-0.537,0.248  c-0.251,0.1-0.501,0.199-0.752,0.298c0.234-0.202,0.468-0.403,0.702-0.604c0.061-0.096,0.121-0.192,0.18-0.289  c0.604-0.437,1.246-0.834,1.925-1.187c0.108,0.013,0.217,0.025,0.325,0.038c0.015,0.116,0.028,0.231,0.042,0.347  c-0.088,0.152-0.177,0.303-0.266,0.455c-0.071,0.127-0.142,0.254-0.214,0.38c0.201,0.003,0.403,0.006,0.604,0.009  c0.215-0.113,0.43-0.226,0.645-0.338c0.248-0.116,0.496-0.232,0.744-0.348c0.22-0.096,0.44-0.192,0.661-0.289  c-0.084-0.05-0.17-0.099-0.256-0.149c-0.007-0.085-0.016-0.17-0.024-0.256c0.093-0.107,0.187-0.214,0.28-0.322  c0.05-0.108,0.1-0.216,0.15-0.323c0.074,0.066,0.149,0.132,0.223,0.198c0.036-0.047,0.071-0.094,0.107-0.141  c0.085,0.027,0.171,0.055,0.256,0.083c0.151,0.013,0.303,0.027,0.454,0.041c-0.101,0.135-0.203,0.271-0.305,0.405  c-0.058,0.066-0.116,0.132-0.174,0.198c-0.115,0.138-0.231,0.275-0.347,0.413c-0.185,0.161-0.369,0.32-0.554,0.479  c-0.121,0.039-0.242,0.078-0.363,0.116c-0.126,0.129-0.253,0.259-0.38,0.389c-0.126,0.065-0.254,0.132-0.38,0.198  c-0.133,0.132-0.264,0.265-0.397,0.397c-0.063,0.104-0.126,0.209-0.19,0.314c0.034,0.033,0.067,0.066,0.1,0.1  c-0.025,0.08-0.05,0.159-0.075,0.239c0.083,0.042,0.164,0.084,0.245,0.125c0.085-0.072,0.17-0.144,0.256-0.215  c0.119-0.075,0.237-0.148,0.356-0.223c0.14-0.086,0.281-0.171,0.421-0.256c0.149-0.017,0.298-0.033,0.447-0.049  c0.18-0.062,0.357-0.122,0.538-0.182c0.09-0.058,0.181-0.116,0.273-0.174c0.091,0.022,0.182,0.044,0.272,0.066  c0.229-0.036,0.458-0.072,0.686-0.107c0.092-0.063,0.183-0.127,0.273-0.19c0.11-0.112,0.221-0.225,0.331-0.338  c0.16-0.149,0.319-0.297,0.479-0.446c0.091-0.1,0.182-0.199,0.273-0.298c0.122-0.113,0.242-0.226,0.364-0.339  c0.097-0.038,0.193-0.077,0.29-0.115c-0.061-0.119-0.121-0.237-0.182-0.355c0.124,0.063,0.248,0.127,0.372,0.19  c0.223,0.036,0.446,0.072,0.669,0.107c0.215-0.005,0.43-0.011,0.645-0.017c0.271-0.046,0.541-0.093,0.811-0.14  c0.068-0.088,0.139-0.176,0.207-0.265c0.152,0.039,0.303,0.078,0.455,0.116c0.072-0.005,0.144-0.011,0.216-0.017  c-0.016-0.113-0.029-0.226-0.043-0.339c0.087-0.058,0.177-0.116,0.265-0.174c0.129-0.047,0.26-0.094,0.389-0.141  c0.152,0.005,0.303,0.011,0.455,0.016c0.008-0.066,0.016-0.133,0.022-0.2c-0.011-0.01-0.023-0.021-0.035-0.031  c0.292,0.065,0.582,0.141,0.869,0.224c-0.012,0.047-0.022,0.094-0.034,0.141c-0.075-0.045-0.15-0.089-0.229-0.134  c-0.146,0.031-0.293,0.063-0.44,0.094c0.04,0.112,0.081,0.223,0.119,0.334c0.182,0.186,0.362,0.372,0.543,0.556  c-0.006,0.154-0.013,0.308-0.019,0.462c0.125,0.1,0.253,0.201,0.381,0.301c-0.094,0.154-0.188,0.308-0.281,0.462  c0.06,0.012,0.119,0.022,0.182,0.034c0.055,0.064,0.109,0.129,0.166,0.194c-0.16,0.047-0.322,0.094-0.482,0.141  c-0.055,0.136-0.111,0.273-0.168,0.409c-0.055,0.042-0.109,0.084-0.166,0.126c-0.085,0.058-0.17,0.117-0.255,0.174  c-0.067-0.051-0.134-0.103-0.201-0.154c-0.054-0.042-0.106-0.084-0.161-0.127c-0.094-0.029-0.188-0.058-0.281-0.087  c-0.141-0.011-0.281-0.022-0.422-0.033c-0.073-0.012-0.147-0.023-0.221-0.034c-0.043-0.006-0.084-0.014-0.127-0.021  c-0.05-0.044-0.098-0.089-0.146-0.134c-0.085,0-0.17,0-0.256,0c-0.094,0.019-0.188,0.036-0.281,0.054  c-0.102,0.027-0.204,0.054-0.308,0.08c-0.071,0.089-0.142,0.179-0.214,0.268c-0.045,0.101-0.089,0.201-0.134,0.301  c-0.056,0.077-0.112,0.152-0.168,0.228c-0.087,0.092-0.173,0.183-0.26,0.275c-0.083,0.053-0.166,0.107-0.248,0.161  c-0.09,0.104-0.179,0.209-0.268,0.314c-0.097,0.087-0.192,0.174-0.289,0.261c-0.015,0.085-0.031,0.17-0.046,0.254  c0.007,0.067,0.013,0.134,0.02,0.202c0.018,0.064,0.035,0.129,0.054,0.194c0.031,0.053,0.063,0.107,0.094,0.161  c0.046,0.025,0.094,0.049,0.14,0.074c0.08-0.038,0.161-0.076,0.241-0.114c0.005-0.055,0.009-0.111,0.014-0.167  c0.106-0.024,0.214-0.049,0.32-0.073c0.005,0.04,0.01,0.08,0.015,0.12c0.049,0.089,0.098,0.178,0.146,0.268  c0.039,0.063,0.077,0.125,0.114,0.188c-0.006,0.038-0.013,0.076-0.019,0.113c0.003,0.056,0.009,0.112,0.013,0.168  c0.078,0.011,0.156,0.022,0.235,0.033c0.047-0.041,0.094-0.08,0.14-0.12c0.08-0.056,0.16-0.112,0.241-0.168  c-0.024-0.071-0.05-0.143-0.074-0.214c-0.009-0.071-0.017-0.143-0.025-0.215c0.117-0.049,0.235-0.098,0.354-0.147  c-0.042-0.064-0.086-0.13-0.129-0.194c-0.079-0.047-0.16-0.094-0.24-0.141c0.005-0.144,0.009-0.286,0.015-0.429  c0.095-0.078,0.19-0.156,0.287-0.234c0.028-0.087,0.058-0.174,0.088-0.262c0.042-0.069,0.084-0.138,0.126-0.208  c0.104,0.003,0.206,0.005,0.309,0.008c0.016,0.075,0.031,0.151,0.047,0.227c-0.087,0.07-0.175,0.139-0.262,0.208  c-0.026,0.085-0.053,0.17-0.08,0.254c0.045,0.108,0.09,0.214,0.135,0.322c0.042,0.063,0.084,0.125,0.126,0.188  c0.122-0.007,0.241-0.014,0.362-0.021c0.061-0.063,0.119-0.125,0.181-0.187c0.136,0.031,0.272,0.062,0.407,0.093  c-0.001,0.034-0.004,0.067-0.006,0.101c-0.053,0.029-0.107,0.058-0.16,0.087c-0.111,0.041-0.223,0.08-0.335,0.121  c-0.081,0.021-0.161,0.041-0.241,0.061c-0.04,0.071-0.08,0.142-0.12,0.214c0.028,0.033,0.058,0.067,0.087,0.1  c-0.051,0.019-0.103,0.036-0.154,0.054c0.017,0.105,0.031,0.21,0.048,0.314c0.04,0.067,0.079,0.134,0.119,0.201  c-0.094,0.063-0.188,0.125-0.281,0.188c-0.056,0.012-0.11,0.026-0.167,0.039c-0.035-0.031-0.071-0.063-0.107-0.094  c-0.026,0.019-0.053,0.036-0.08,0.055c-0.056,0.038-0.111,0.075-0.168,0.113c-0.06,0.029-0.119,0.059-0.18,0.086  c-0.022,0.05-0.045,0.099-0.067,0.148c-0.052-0.044-0.104-0.09-0.154-0.134c-0.034-0.054-0.066-0.108-0.101-0.161  c-0.04,0.04-0.08,0.08-0.121,0.12c-0.109-0.009-0.218-0.018-0.328-0.026c-0.038-0.061-0.076-0.121-0.114-0.182  c0.023-0.073,0.045-0.146,0.067-0.221c0.029-0.065,0.058-0.129,0.087-0.194c-0.047-0.069-0.094-0.138-0.141-0.207  c-0.051,0.044-0.103,0.089-0.155,0.133c-0.053,0.061-0.106,0.121-0.161,0.181c0.034,0.114,0.067,0.228,0.102,0.342  c0.004,0.078,0.009,0.156,0.013,0.234c-0.067,0.023-0.134,0.048-0.201,0.073c-0.085,0-0.169,0-0.254,0  c-0.051,0.036-0.103,0.071-0.155,0.106c-0.044,0.074-0.089,0.148-0.133,0.222c-0.06,0.051-0.122,0.102-0.181,0.153  c-0.105,0.039-0.21,0.077-0.316,0.114c-0.006,0.054-0.013,0.107-0.02,0.161c-0.078,0.044-0.156,0.089-0.233,0.134  c-0.007,0.031-0.013,0.063-0.021,0.094c-0.113-0.014-0.227-0.026-0.341-0.041c-0.013,0.052-0.026,0.103-0.041,0.154  c-0.042,0.016-0.084,0.032-0.126,0.047c-0.085-0.031-0.171-0.063-0.255-0.093c-0.074,0.038-0.147,0.075-0.221,0.113  c0.034,0.038,0.066,0.076,0.101,0.113c0.114,0.042,0.228,0.085,0.342,0.128c0.016,0.069,0.031,0.138,0.047,0.208  c0.04,0.04,0.081,0.08,0.121,0.121c-0.011,0.046-0.023,0.093-0.034,0.14c-0.021,0.132-0.04,0.263-0.06,0.396  c-0.047,0.053-0.094,0.106-0.141,0.16c-0.118,0.004-0.237,0.008-0.356,0.013c-0.18-0.036-0.361-0.072-0.542-0.108  c-0.109,0.012-0.219,0.023-0.328,0.035c-0.063,0.08-0.125,0.161-0.188,0.24c-0.086,0.114-0.173,0.229-0.261,0.342  c0.011,0.098,0.022,0.196,0.034,0.294c-0.024,0.087-0.049,0.175-0.074,0.262c0.03,0.093,0.059,0.188,0.087,0.281  c0.052,0.051,0.103,0.102,0.154,0.154c0.096,0.025,0.192,0.048,0.288,0.073c0.002,0.081,0.005,0.161,0.006,0.242  c0.041,0.023,0.082,0.049,0.122,0.073c0.082-0.039,0.165-0.076,0.248-0.114c0.183-0.002,0.365-0.004,0.548-0.006  c0.043-0.027,0.086-0.054,0.128-0.081c0.073-0.052,0.146-0.103,0.22-0.154c0.043-0.044,0.086-0.09,0.128-0.134  c-0.031-0.083-0.063-0.166-0.094-0.249c0.016-0.083,0.031-0.165,0.047-0.247c0.08-0.092,0.16-0.184,0.241-0.275  c0.107-0.036,0.214-0.072,0.322-0.108c0.055-0.084,0.111-0.169,0.167-0.254c0.011-0.059,0.022-0.117,0.033-0.174  c0.093-0.022,0.184-0.044,0.275-0.067c0.092,0.03,0.183,0.058,0.274,0.088c0.148-0.057,0.297-0.113,0.445-0.169  c0.109-0.032,0.218-0.064,0.326-0.097c0.058,0.025,0.116,0.05,0.173,0.076c0.025,0.06,0.05,0.12,0.076,0.179  c0.073,0.076,0.145,0.151,0.217,0.228c0.065,0.063,0.13,0.126,0.195,0.189c0.098,0.042,0.195,0.083,0.294,0.125  c0.081,0.043,0.162,0.087,0.243,0.131c0.061,0.047,0.12,0.094,0.179,0.141c0.038,0.063,0.076,0.126,0.113,0.189  c-0.004,0.056-0.01,0.112-0.015,0.169c-0.021,0.04-0.039,0.079-0.061,0.119c0.024,0.038,0.048,0.076,0.071,0.114  c0.033-0.033,0.065-0.065,0.097-0.097c0.039-0.053,0.076-0.105,0.115-0.158c0.017-0.035,0.032-0.069,0.049-0.103  c-0.02-0.035-0.04-0.069-0.061-0.104c-0.03-0.03-0.062-0.061-0.091-0.092c0.018-0.027,0.036-0.054,0.054-0.081  c0.016-0.022,0.028-0.044,0.044-0.066c0.05,0.033,0.101,0.066,0.15,0.099c0.021,0.031,0.044,0.061,0.065,0.092  c0.028-0.022,0.058-0.044,0.087-0.066c-0.052-0.053-0.105-0.107-0.156-0.162c-0.065-0.045-0.132-0.091-0.195-0.136  c-0.066-0.049-0.132-0.098-0.196-0.146c-0.033,0.001-0.068,0.003-0.103,0.005c-0.074-0.022-0.146-0.044-0.218-0.066  c-0.045-0.058-0.09-0.116-0.136-0.173c-0.04-0.076-0.079-0.151-0.118-0.228c-0.059-0.027-0.116-0.054-0.174-0.082  c-0.034-0.061-0.069-0.122-0.104-0.184c0.01-0.024,0.021-0.048,0.032-0.071c-0.018-0.036-0.036-0.072-0.054-0.108  c0.022-0.027,0.043-0.055,0.065-0.082c0.062-0.016,0.123-0.029,0.183-0.043c0.052,0.036,0.103,0.072,0.154,0.109  c0.038,0.052,0.078,0.104,0.118,0.157c0.044,0.056,0.088,0.112,0.13,0.168c0.049,0.04,0.098,0.08,0.146,0.119  c0.058,0.021,0.116,0.041,0.174,0.06c0.031,0.039,0.063,0.077,0.092,0.114c0.102,0.023,0.203,0.047,0.305,0.07  c0.054,0.08,0.108,0.159,0.162,0.239c-0.018,0.065-0.036,0.129-0.054,0.195c0.049,0.051,0.098,0.102,0.146,0.152  c0.074,0.056,0.149,0.112,0.223,0.169c0.099,0.014,0.195,0.028,0.293,0.042c0.034,0.063,0.068,0.127,0.103,0.19  c0.132,0.058,0.266,0.116,0.396,0.174c0.023-0.052,0.048-0.105,0.072-0.158c-0.083-0.055-0.164-0.111-0.245-0.167  c-0.032-0.056-0.066-0.112-0.099-0.169c-0.021-0.052-0.044-0.104-0.065-0.156c0.061-0.069,0.12-0.138,0.181-0.207  c0.085-0.007,0.17-0.015,0.254-0.022c0.077,0,0.152,0,0.229,0c0.078-0.032,0.159-0.065,0.238-0.098  c0.035-0.036,0.07-0.072,0.104-0.107c-0.071-0.146-0.146-0.291-0.218-0.436c0.118-0.052,0.238-0.104,0.358-0.156  c0.154-0.114,0.31-0.228,0.466-0.343c0.114,0.011,0.229,0.021,0.342,0.031c0.094-0.072,0.187-0.146,0.28-0.217  c0.14,0.01,0.281,0.021,0.42,0.031c0.146,0.067,0.291,0.134,0.437,0.202c0.108,0.068,0.219,0.136,0.325,0.203  c0,0.093,0,0.186,0,0.28c-0.088,0.036-0.176,0.073-0.263,0.109c-0.119,0.025-0.239,0.052-0.359,0.078  c-0.124-0.047-0.247-0.093-0.372-0.14c-0.146-0.011-0.291-0.021-0.437-0.031c-0.089,0.078-0.176,0.156-0.264,0.233  c-0.104,0.031-0.208,0.063-0.313,0.094c-0.108,0.057-0.218,0.114-0.325,0.171c-0.125,0.057-0.25,0.114-0.375,0.171  c0.013,0.104,0.021,0.208,0.031,0.311c0.11,0.104,0.219,0.208,0.328,0.311c0.113,0.136,0.229,0.27,0.341,0.405  c0.101-0.026,0.197-0.052,0.297-0.078c0.035-0.062,0.072-0.124,0.109-0.186c0.066,0.052,0.134,0.103,0.201,0.156  c0.14-0.021,0.28-0.042,0.42-0.062c0.048-0.063,0.094-0.125,0.14-0.188c0.146,0.011,0.29,0.021,0.436,0.031  c-0.013,0.081-0.024,0.163-0.036,0.244c-0.004,0.214-0.01,0.429-0.014,0.644c0.019,0.147,0.035,0.294,0.054,0.441  c0.046,0.012,0.094,0.023,0.14,0.034c0.036,0.134,0.073,0.269,0.107,0.402c-0.02,0.081-0.04,0.161-0.06,0.241  c0.013,0.119,0.022,0.237,0.034,0.356c0.052,0.037,0.104,0.073,0.156,0.109c0.107,0.13,0.216,0.26,0.324,0.389  c0.094,0.134,0.188,0.27,0.281,0.404c0.066,0.041,0.136,0.083,0.202,0.124c0.078,0.161,0.155,0.322,0.233,0.483  c0.077,0.114,0.156,0.228,0.233,0.342c0.104,0.042,0.206,0.083,0.311,0.125c0.059,0.103,0.114,0.207,0.171,0.311  c0.12,0.124,0.239,0.248,0.359,0.373c0.156,0.381,0.313,0.762,0.469,1.145c0.27-0.196,0.539-0.394,0.81-0.592  c0.217-0.207,0.435-0.415,0.653-0.622c0.071-0.073,0.144-0.145,0.217-0.218c0.011-0.109,0.021-0.218,0.031-0.328  c0.099-0.092,0.196-0.186,0.296-0.28c0.068-0.063,0.134-0.124,0.202-0.186c0.025-0.125,0.052-0.25,0.079-0.374  c0.063-0.052,0.123-0.104,0.186-0.156c-0.036-0.109-0.073-0.217-0.109-0.327c0.053-0.13,0.104-0.259,0.155-0.389  c0.021-0.108,0.043-0.217,0.063-0.326c-0.108-0.078-0.218-0.156-0.325-0.233c-0.085,0.016-0.168,0.031-0.25,0.047  c-0.068-0.047-0.135-0.094-0.203-0.141c-0.065-0.155-0.135-0.311-0.2-0.467c-0.047,0.156-0.094,0.312-0.141,0.467  c-0.053,0.099-0.104,0.197-0.156,0.296c-0.088,0.047-0.177,0.094-0.265,0.14c-0.052-0.021-0.104-0.042-0.154-0.062  c-0.006-0.067-0.013-0.135-0.016-0.203c-0.028-0.088-0.053-0.176-0.078-0.265c-0.037,0.027-0.074,0.053-0.109,0.078  c0,0.073,0,0.146,0,0.218c-0.047-0.057-0.094-0.114-0.141-0.171c-0.072-0.087-0.144-0.176-0.218-0.264  c-0.129-0.12-0.259-0.239-0.389-0.358c-0.021-0.104-0.041-0.208-0.063-0.311c0.094-0.053,0.188-0.104,0.281-0.156  c0.113,0.114,0.229,0.229,0.342,0.342c0.046,0.067,0.093,0.134,0.14,0.203c0.063-0.006,0.125-0.011,0.188-0.016  c0.092,0.052,0.186,0.104,0.279,0.155c0.062,0,0.124,0,0.187,0c0.084-0.104,0.166-0.208,0.25-0.311  c0.051-0.005,0.104-0.011,0.154-0.016c0.052,0.109,0.105,0.217,0.155,0.327c0.209-0.063,0.415-0.124,0.623-0.186  c0.146-0.078,0.289-0.156,0.436-0.234c0.098-0.062,0.197-0.124,0.295-0.186c0.012-0.005,0.021-0.011,0.031-0.016  c0.104,0.099,0.209,0.197,0.312,0.295c0.109,0.036,0.219,0.073,0.327,0.109c0.076-0.063,0.155-0.125,0.232-0.188  c0.104,0.109,0.207,0.219,0.313,0.327c0.123,0.291,0.247,0.581,0.372,0.872c0.115,0.213,0.229,0.425,0.344,0.638  c0.128,0.228,0.258,0.457,0.387,0.685c0.072,0.223,0.146,0.446,0.219,0.668c0.031-0.227,0.063-0.455,0.094-0.684  c-0.012-0.363-0.021-0.726-0.031-1.089c-0.077-0.15-0.156-0.3-0.233-0.45c0.037-0.25,0.072-0.498,0.108-0.747  c-0.042-0.306-0.084-0.613-0.125-0.919c-0.015-0.17-0.031-0.342-0.046-0.512c0.027-0.086,0.056-0.171,0.085-0.256  C66.931,52.586,63.574,60.593,56.53,63.902z"
     id="path231"
     style="fill:#0086d7;fill-opacity:1" /><polygon
     fill="#000000"
     points="47.545,39.045 47.413,38.723 47.182,38.707 46.9,38.673 46.594,38.632 46.446,38.756 46.528,38.904   46.42,39.078 46.561,39.194 46.893,39.235 47.198,39.153 "
     id="polygon233"
     style="fill:#0086d7;fill-opacity:1" /><polygon
     fill="#000000"
     points="46.971,42.115 47.269,42.038 47.459,41.984 47.594,41.8 47.665,41.594 47.763,41.48 47.633,41.235   47.405,41.197 47.274,41.42 47.133,41.474 47.107,41.669 47.019,41.735 47.003,41.832 46.906,41.909 46.884,42.077 "
     id="polygon235"
     style="fill:#0086d7;fill-opacity:1" /><polygon
     fill="#000000"
     points="47.579,42.538 47.774,42.456 47.882,42.488 48.077,42.391 48.408,42.391 48.75,42.358   48.847,42.271 48.783,42.157 48.929,42.022 48.761,41.887 48.636,41.702 48.555,41.512 48.446,41.388 48.436,41.263 48.294,41.138   48.316,40.992 48.457,40.889 48.484,40.693 48.474,40.45 47.839,40.498 47.763,40.796 47.807,41.051 47.872,41.29 48.05,41.431   48.165,41.648 48.007,41.768 47.899,41.768 47.909,41.984 47.785,42.044 47.73,42.137 47.822,42.255 "
     id="polygon237"
     style="fill:#0086d7;fill-opacity:1" /><polygon
     fill="#000000"
     points="58.645,60.797 59.09,60.598 59.33,60.218 59.72,59.531 60.016,58.953 60.322,58.382 60.29,57.579   60.066,57.985 59.993,57.985 59.893,58.167 59.637,58.481 59.34,58.73 59.059,58.887 59.009,59.067 58.9,59.201 58.95,59.49   58.893,59.713 58.734,59.871 58.562,60.109 58.431,60.301 58.504,60.424 58.421,60.622 "
     id="polygon239"
     style="fill:#0086d7;fill-opacity:1" /><polygon
     fill="#000000"
     points="52.632,63.368 52.253,63.13 52.3,62.941 51.991,62.349 51.803,62.324 51.565,61.328 50.925,60.357   50.997,59.716 51.541,59.028 51.304,58.507 51.399,58.151 51.02,57.558 50.213,56.491 50.498,55.448 50.189,54.974 49.383,54.997   49.123,54.88 48.791,54.404 47.392,54.666 47.083,54.832 46.633,54.642 45.519,54.832 44.405,53.813 43.622,53.291 42.982,53.054   43.385,51.748 43.764,50.849 43.646,49.924 43.906,49.307 44.286,49.023 44.357,48.643 44.855,48.193 45.732,47.766 45.993,46.889   46.467,46.604 46.847,46.249 47.179,46.438 47.582,46.534 48.08,46.32 48.649,46.083 49.479,46.083 50.047,46.177 50.355,46.012   50.711,46.106 50.474,46.794 50.688,46.983 51.565,47.316 51.922,47.576 52.562,47.79 52.847,47.624 52.775,47.316 52.94,47.078   53.817,47.268 54.79,47.363 55.192,47.316 55.668,47.41 56.521,48.857 56.83,49.331 57.115,49.521 57.422,50.351 57.777,50.612   58.108,51.157 58.56,51.513 59.105,52.01 59.296,52.271 59.532,52.058 59.865,52.01 60.077,51.748 60.646,51.346 60.646,52.296   60.149,53.622 59.296,54.88 58.347,56.089 58.134,56.895 58.275,57.819 58.322,58.91 57.706,59.455 57.09,59.835 56.71,60.215   56.806,60.807 56.641,61.115 55.928,61.472 55.834,61.899 55.359,62.277 54.553,62.941 53.817,63.296 53.082,63.605 "
     id="polygon241"
     style="fill:#0086d7;fill-opacity:1" /><polyline
     fill="#000000"
     points="51.589,45.704 51.303,45.809 51.068,45.844 51.038,45.969 51.372,46.089 51.547,46.149   51.672,46.012 51.615,45.879 "
     id="polyline243"
     style="fill:#0086d7;fill-opacity:1" /><polyline
     fill="#000000"
     points="54.859,46.324 55.059,46.254 55.244,46.149 55.465,45.969 55.465,46.044 55.399,46.124   55.369,46.219 55.409,46.264 55.465,46.354 55.395,46.415 55.284,46.464 55.161,46.544 54.859,46.544 54.79,46.464 "
     id="polyline245"
     style="fill:#0086d7;fill-opacity:1" /><polyline
     fill="#000000"
     points="49.964,44.884 49.904,44.978 49.933,45.071 50.03,45.147 50.03,45.076 50.057,44.945 "
     id="polyline247"
     style="fill:#0086d7;fill-opacity:1" /></svg>