<?xml version="1.0" encoding="UTF-8" standalone="no"?>
<!-- Created with Inkscape (http://www.inkscape.org/) -->

<svg
   xmlns:dc="http://purl.org/dc/elements/1.1/"
   xmlns:cc="http://creativecommons.org/ns#"
   xmlns:rdf="http://www.w3.org/1999/02/22-rdf-syntax-ns#"
   xmlns:svg="http://www.w3.org/2000/svg"
   xmlns="http://www.w3.org/2000/svg"
   xmlns:sodipodi="http://sodipodi.sourceforge.net/DTD/sodipodi-0.dtd"
   xmlns:inkscape="http://www.inkscape.org/namespaces/inkscape"
   width="2000"
   height="2000"
   id="svg2"
   version="1.1"
   inkscape:version="0.48.5 r10040"
   sodipodi:docname="milk-carton.svg"
   inkscape:export-filename="/home/maartend/htdocs/spacebillboard/docroot/sites/all/themes/sbbtheme/resources/img/our-mission/milk-carton.png"
   inkscape:export-xdpi="9"
   inkscape:export-ydpi="9">
  <defs
     id="defs4" />
  <sodipodi:namedview
     id="base"
     pagecolor="#ffffff"
     bordercolor="#666666"
     borderopacity="1.0"
     inkscape:pageopacity="0.0"
     inkscape:pageshadow="2"
     inkscape:zoom="0.35"
     inkscape:cx="496.20969"
     inkscape:cy="876.3298"
     inkscape:document-units="px"
     inkscape:current-layer="layer1"
     showgrid="false"
     inkscape:window-width="1600"
     inkscape:window-height="834"
     inkscape:window-x="0"
     inkscape:window-y="27"
     inkscape:window-maximized="1" />
  <metadata
     id="metadata7">
    <rdf:RDF>
      <cc:Work
         rdf:about="">
        <dc:format>image/svg+xml</dc:format>
        <dc:type
           rdf:resource="http://purl.org/dc/dcmitype/StillImage" />
        <dc:title></dc:title>
      </cc:Work>
    </rdf:RDF>
  </metadata>
  <g
     inkscape:label="Layer 1"
     inkscape:groupmode="layer"
     id="layer1"
     transform="translate(-658.79031,705.5938)">
    <g
       id="g3022"
       transform="translate(593.63935,-226.76374)">
      <path
         style="fill:#d2e9f7"
         d="m 1300.2143,1293.7276 c 0.825,-0.3329 2.9411,-1.6973 4.7025,-3.032 3.9489,-2.9925 6.7975,-2.6775 6.7975,0.7517 0,2.3729 -0.2964,2.4954 -6.5,2.6858 -3.575,0.1098 -5.825,-0.073 -5,-0.4055 z m -10.0723,-6.6735 c -0.2353,-0.2208 -13.4777,-0.9097 -29.4277,-1.5307 -30.2851,-1.1793 -80.4994,-3.405 -115.5,-5.1193 -11.275,-0.5523 -36.475,-1.665 -56,-2.4728 -19.525,-0.8077 -44.95,-1.9333 -56.5,-2.5014 -11.55,-0.568 -36.75002,-1.7106 -56.00002,-2.5391 -19.25,-0.8285 -49.4,-2.1683 -67,-2.9775 -17.6,-0.8091 -57.65,-2.6072 -89,-3.9957 -31.35,-1.3885 -77.025,-3.4148 -101.5,-4.503 -24.475,-1.0881 -46.60536,-1.979 -49.17857,-1.9797 -2.91847,-8e-4 -5.26975,-0.5925 -6.25,-1.5727 -1.42505,-1.4251 -1.57,-56.408 -1.55612,-590.25002 0.01,-369.26917 0.36873,-589.23764 0.96353,-590.17857 0.83958,-1.32815 37.04441,-1.5 316.02116,-1.5 278.97672,0 315.18162,0.17185 316.02112,1.5 1.1265,1.78195 1.3394,1205.90629 0.2136,1207.61519 -0.7989,1.2127 -4.6153,2.6547 -5.307,2.0053 z m 19.739,-7.2872 c -0.3667,-0.3666 -0.6667,-270.5613 -0.6667,-600.43257 0,-578.69432 0.064,-599.7862 1.8165,-600.34249 0.9991,-0.31709 5.6116,0.0849 10.25,0.89333 4.6384,0.80843 39.7085,6.70437 77.9335,13.10209 38.225,6.39772 70.0625,12.0955 70.75,12.66173 0.9972,0.82128 1.25,109.90201 1.25,539.31334 l 0,538.28377 -15.25,9.258 c -8.3875,5.0918 -17.5,10.6872 -20.25,12.4342 -4.1583,2.6415 -37.1517,22.9157 -96.5,59.2985 -26.329,16.1406 -27.8942,16.9693 -29.3333,15.5301 z M 1408.2143,81.94624 c -33.275,-5.65203 -68.1027,-11.56706 -77.3949,-13.14452 -11.8976,-2.01978 -17.186,-3.33152 -17.8792,-4.43483 -0.7359,-1.17114 0.9823,-5.96855 6.8049,-19 4.2841,-9.58831 10.5915,-23.73328 14.0163,-31.43328 3.4249,-7.7 13.0796,-29.3 21.4548,-48 8.3753,-18.7 17.6091,-39.4 20.5196,-46 14.0203,-31.79295 16.1259,-35.99482 18.1923,-36.30287 1.2277,-0.18302 2.312,0.41056 2.7402,1.5 0.7827,1.99158 47.7296,126.79284 64.1108,170.42899 10.3137,27.47345 12.5458,36.10377 9.4352,36.48101 -0.825,0.10005 -28.725,-4.44247 -62,-10.0945 z M 659.53215,62.35148 c -2.02727,-2.02727 -2.86268,-0.41948 39.05581,-75.16531 6.3995,-11.4111 16.86074,-30.0861 23.24719,-41.5 6.38646,-11.41391 13.1344,-23.36417 14.99544,-26.55614 1.86103,-3.19196 3.38369,-5.95196 3.38369,-6.13332 0,-1.07054 19.29869,-34.13343 20.29208,-34.76478 0.66436,-0.42223 32.76532,-0.77459 71.33548,-0.78301 62.02879,-0.0135 70.2756,0.16308 71.40949,1.52933 1.09484,1.3192 0.17468,2.61657 -6.30437,8.88882 -9.15273,8.8606 -13.01839,15.75434 -13.01839,23.21603 0,27.6878 63.01121,39.15658 122.71393,22.33537 39.0544,-11.00358 69.0534,-31.89342 72.1923,-50.27119 0.3624,-2.12181 1.441,-4.21142 2.4536,-4.75331 1.1461,-0.61341 55.6306,-0.87437 149.0074,-0.71367 130.1897,0.22404 147.3109,0.4283 148.1557,1.76755 0.9575,1.51804 -5.029,15.67109 -30.2372,71.48576 -4.9176,10.88822 -12.8237,28.57385 -23.0143,51.48215 -6.7238,15.11518 -13.2577,29.74018 -14.5196,32.5 -1.2619,2.75982 -4.1348,9.26205 -6.3842,14.44941 -2.2494,5.18736 -4.7734,10.47486 -5.6089,11.75 l -1.5191,2.31844 -318.27697,0 c -226.95609,0 -318.58744,-0.31049 -319.35908,-1.08213 z M 988.35338,30.92331 c 60.10672,-8.10344 113.39212,-32.84059 126.22872,-58.60025 3.6638,-7.35224 3.538,-13.47481 -0.4498,-21.88945 -1.6942,-3.575 -7.6064,-17.075 -13.1382,-30 -5.5318,-12.925 -10.4102,-23.89246 -10.8409,-24.37214 -0.4308,-0.47968 -2.0912,1.22929 -3.6898,3.79772 -12.8496,20.64472 -46.2885,39.78812 -85.7491,49.0905 -32.43366,7.64584 -67.56433,7.80682 -92.62718,0.42445 -8.66636,-2.55271 -19.35295,-7.9477 -24.54311,-12.39029 -2.28121,-1.95263 -4.41362,-3.55024 -4.73869,-3.55024 -0.32507,0 -0.59104,14.92295 -0.59104,33.16211 0,28.57915 0.23767,33.91607 1.71975,38.61778 3.07384,9.75135 13.14213,17.46193 28.78025,22.04074 8.06622,2.36177 22.51151,4.99762 30.5,5.56538 10.09023,0.71713 37.64002,-0.34604 49.1391,-1.89631 z m -222.0626,-166.89752 c -0.8643,-1.04142 -1.09137,-13.72928 -0.87245,-48.75 0.32627,-52.19222 0.1412,-50.61006 6.80801,-58.20313 1.79423,-2.04352 5.33803,-4.9358 7.87509,-6.42727 l 4.61285,-2.71178 294.50002,0 294.5,0 4.1282,2.20819 c 2.2705,1.21451 5.9492,4.27697 8.1749,6.80547 7.2081,8.18888 7.1969,8.09514 7.1969,59.96448 0,34.53922 -0.3014,46.42322 -1.2,47.32186 -0.9233,0.92327 -37.8644,1.2 -160.1899,1.2 l -158.9899,0 -6.5601,-3.92522 c -13.385,-8.00887 -29.7492,-11.48532 -54.0601,-11.48464 -23.66374,6.7e-4 -44.95218,3.65604 -68.96655,11.84204 l -10.46652,3.56782 -82.66103,0 c -69.85113,0 -82.84209,-0.21817 -83.82942,-1.40782 z"
         id="path3010"
         inkscape:connector-curvature="0" />
      <path
         style="fill:#afd7f1"
         d="m 1305.4063,1292.2598 c 0.8454,-1.2794 2.5341,-2.4747 3.7526,-2.6562 1.8183,-0.2709 2.1563,0.088 1.8854,2 -0.2608,1.8412 -1.048,2.3984 -3.7526,2.6562 -3.3751,0.3217 -3.4013,0.294 -1.8854,-2 z m -32.692,-6.9404 c -8.8,-0.4504 -37.15,-1.7419 -63,-2.87 -25.85,-1.1282 -60.95,-2.7198 -78,-3.5369 -17.05,-0.8171 -46.525,-2.1588 -65.5,-2.9815 -18.975,-0.8227 -50.25,-2.179 -69.50002,-3.014 -19.25,-0.8349 -54.35,-2.4098 -78,-3.4997 -47.98429,-2.2113 -102.55816,-4.6355 -192.5,-8.5508 -35.60586,-1.5499 -61.01434,-3.0542 -61.75,-3.6557 -0.99743,-0.8156 -1.25,-120.0023 -1.25,-589.86445 0,-581.14774 0.0253,-588.8559 1.93426,-589.87756 2.70674,-1.4486 625.42476,-1.4486 628.13146,0 1.9091,1.0217 1.9343,8.88755 1.9343,603.8 0,467.48371 -0.2693,603.03411 -1.2,603.96481 -0.66,0.66 -2.1225,1.1336 -3.25,1.0524 -1.1275,-0.081 -9.25,-0.5162 -18.05,-0.9666 z m 37.1514,-8.0552 c -0.3433,-1.2818 -0.6303,-270.5571 -0.6378,-598.38946 -0.011,-490.9641 0.2182,-596.37592 1.3012,-597.85703 1.1794,-1.61291 1.9779,-1.68885 7.75,-0.73712 66.1343,10.90446 145.2931,24.34999 148.1852,25.17003 l 3.75,1.06327 0,537.83742 c 0,459.44109 -0.2038,538.00649 -1.3981,538.99779 -1.274,1.0573 -24.0901,15.1038 -121.6019,74.8634 -18.425,11.2916 -34.2255,20.722 -35.1123,20.9563 -1.0435,0.2757 -1.8325,-0.3962 -2.2363,-1.9046 z M 1451.7143,88.39948 c -26.771,-4.66776 -135.6295,-22.96587 -136.6278,-22.96587 -2.5971,0 -1.3702,-4.33736 5.7082,-20.1787 4.2568,-9.52671 10.5374,-23.6213 13.9568,-31.3213 3.4195,-7.7 13.0727,-29.3 21.4516,-48 8.3789,-18.7 17.8308,-39.85 21.0042,-47 14.9493,-33.68223 15.3899,-34.57284 16.9579,-34.27654 1.3486,0.25482 21.0111,51.04842 48.4954,125.27654 2.4437,6.6 9.8571,26.32649 16.4742,43.83663 6.617,17.51015 12.1544,33.03515 12.3052,34.5 0.3625,3.51969 -0.2572,3.52375 -19.7257,0.12924 z M 659.77005,61.52385 c -0.84389,-1.36545 0.023,-3.19689 9.74655,-20.59024 4.91951,-8.8 14.22629,-25.45 20.68172,-37 6.45543,-11.55 22.97974,-41.025 36.72067,-65.5 13.74094,-24.475 26.47886,-47.2 28.3065,-50.5 1.82763,-3.3 3.99252,-6.7875 4.81087,-7.75 1.39078,-1.63577 6.04883,-1.75 71.36429,-1.75 60.75754,0 69.95048,0.19306 70.4441,1.47941 0.3657,0.95298 -1.94522,3.91382 -6.49441,8.32089 -8.58471,8.31652 -12.11198,15.09374 -12.12629,23.29922 -0.008,4.469 0.5494,6.4321 2.75983,9.72335 14.58315,21.71378 70.52853,27.50167 121.92572,12.61395 14.6419,-4.24119 21.5976,-6.98888 34.748,-13.72644 20.6746,-10.5926 33.9513,-23.58563 36.9952,-36.20479 0.3972,-1.64692 1.1912,-3.55942 1.7643,-4.25 0.8274,-0.99698 31.1735,-1.25559 147.3378,-1.25559 80.4627,0 147.0076,0.27314 147.8776,0.60699 0.87,0.33384 1.5818,1.03169 1.5818,1.55076 0,0.95976 -5.9716,14.57055 -26.0356,59.34225 -6.162,13.75 -15.9244,35.575 -21.6942,48.5 -5.7699,12.925 -12.7284,28.45 -15.4633,34.5 -2.7349,6.05 -7.1416,16.00029 -9.7926,22.11175 -2.651,6.11146 -5.5503,12.52396 -6.4428,14.25 l -1.6229,3.13825 -318.41528,0 c -190.1417,0 -318.64181,-0.3665 -318.97757,-0.90976 z M 987.60192,31.82945 C 1047.7245,24.25434 1102.355,-1.1337 1115.5619,-27.6364 c 3.6062,-7.23679 3.5417,-13.35184 -0.225,-21.33315 -1.5825,-3.35326 -7.6986,-17.34684 -13.5913,-31.09684 -5.8926,-13.75 -11.0494,-25.3541 -11.4595,-25.7869 -0.4101,-0.43279 -2.5756,2.04221 -4.8122,5.5 -19.9384,30.82418 -77.795,54.05647 -134.75962,54.11271 -30.77202,0.0304 -51.94342,-5.60526 -66.93762,-17.81821 -3.04377,-2.47918 -5.76548,-4.5076 -6.04825,-4.5076 -0.28277,0 -0.51413,15.37295 -0.51413,34.16211 0,29.65715 0.22952,34.89898 1.74048,39.75 4.7604,15.28343 25.84951,25.28693 59.25952,28.1094 12.10747,1.02283 34.11685,0.29836 49.38764,-1.62567 z m -220.3029,-168.79373 c -0.85302,-1.02783 -1.08398,-13.80095 -0.87244,-48.25 l 0.2877,-46.85211 2.49345,-4.88254 c 2.72359,-5.33319 8.59927,-10.71369 14.30153,-13.09625 3.23069,-1.34986 36.62428,-1.52121 296.46714,-1.52121 l 292.8263,0 5.4149,3.25 c 6.1334,3.68127 11.4226,10.02185 12.9511,15.52526 0.6434,2.31684 1.0365,21.16619 1.04,49.86775 0.01,41.1572 -0.1653,46.2086 -1.5762,46.75 -0.87,0.33385 -72.7575,0.59547 -159.75,0.58139 l -158.1682,-0.0256 -5.4056,-3.4441 c -24.7919,-15.7958 -79.56578,-15.83235 -123.59442,-0.0825 l -10,3.57718 -82.62756,3e-4 c -69.54452,2.5e-4 -82.81124,-0.22104 -83.7877,-1.39759 z"
         id="path3008"
         inkscape:connector-curvature="0" />
      <path
         style="fill:#92caec"
         d="m 1306.4638,1292.1836 c 0.63,-1.8922 3.7505,-2.1612 3.7505,-0.3233 0,0.9276 -0.855,1.5733 -2.0834,1.5733 -1.2219,0 -1.9112,-0.5168 -1.6671,-1.25 z m -43.7495,-7.8391 c -8.8,-0.4355 -32.2,-1.5056 -52,-2.3779 -19.8,-0.8723 -49.5,-2.2442 -66,-3.0486 -16.5,-0.8044 -41.925,-1.9259 -56.5,-2.4921 -14.575,-0.5662 -34.6,-1.4482 -44.5,-1.9599 -9.9,-0.5117 -25.2,-1.1988 -34,-1.5269 -8.8,-0.3281 -25.22502,-1.0252 -36.50002,-1.5491 -53.64413,-2.4925 -110.71156,-5.0695 -142.5,-6.435 -19.25,-0.827 -45.575,-1.9785 -58.5,-2.559 -12.925,-0.5805 -42.10266,-1.8847 -64.83925,-2.8982 -22.73659,-1.0135 -41.74947,-2.2529 -42.25084,-2.7543 -0.5473,-0.5473 -0.81136,-236.2701 -0.66076,-589.86073 l 0.25085,-588.94916 314,-0.25591 c 294.33212,-0.23988 314.07832,-0.14962 315.25002,1.44113 1.6455,2.23403 1.8594,1201.30757 0.2148,1204.38047 -1.1747,2.195 -3.1301,2.2475 -31.4648,0.8452 z m 47.5,-604.44227 c 0,-554.10453 0.1219,-598.57816 1.6419,-599.16147 0.9031,-0.34654 19.6906,2.37812 41.75,6.05481 22.0595,3.67669 56.3081,9.38091 76.1081,12.67604 19.8,3.29513 37.0125,6.42494 38.25,6.95514 l 2.25,0.96398 0,536.86645 c 0,514.68362 -0.074,536.93342 -1.7907,538.48702 -1.5831,1.4327 -43.1728,27.1062 -128.4761,79.309 -14.7218,9.0092 -27.4343,16.3804 -28.25,16.3804 -1.3093,0 -1.4832,-70.1857 -1.4832,-598.53137 z m 145,-591.51394 c -5.775,-0.99269 -38.85,-6.56403 -73.5,-12.38075 -34.65,-5.81672 -64.0125,-10.809 -65.25,-11.09395 -3.9301,-0.90495 -7.2661,7.40213 34.7286,-86.47998 12.1781,-27.225 26.4898,-59.30124 31.8038,-71.28054 6.7156,-15.13864 10.1007,-21.69498 11.1009,-21.5 0.8314,0.1621 3.4137,5.55804 6.1163,12.78054 2.5726,6.875 9.6775,25.775 15.7887,42 38.8935,103.26108 55.2117,147.14479 55.2117,148.47841 0,1.90716 -2.2954,1.83203 -16,-0.52373 z M 660.52046,61.79005 c -0.65661,-0.26711 -0.91531,-1.24408 -0.57489,-2.17105 0.58354,-1.58902 24.48585,-44.54772 48.23193,-86.68539 5.88895,-10.45 19.63095,-34.975 30.53777,-54.5 10.90683,-19.525 20.50074,-36.2875 21.31979,-37.25 1.39191,-1.63567 6.04119,-1.75 71.16754,-1.75 38.32309,0 69.97923,0.30089 70.34698,0.66863 0.36775,0.36775 -2.50395,3.74823 -6.38155,7.51218 -11.54908,11.21055 -15.35293,21.95485 -11.08809,31.31919 3.96602,8.70821 17.19754,16.74862 33.93888,20.62366 11.2988,2.61528 40.82151,3.6585 54.88296,1.93934 30.97302,-3.78676 60.95492,-13.92712 82.18992,-27.79795 3.0924,-2.01999 9.2912,-7.30428 13.7752,-11.74288 7.487,-7.41138 8.3317,-8.66005 10.3474,-15.29617 l 2.1948,-7.226 147.9026,0 c 136.9668,0 147.9026,0.12239 147.9026,1.65522 0,0.91038 -5.4604,13.84788 -12.1341,28.75 -17.2068,38.42173 -43.7959,97.94712 -56.3247,126.09478 -5.8754,13.2 -11.4118,24.5625 -12.3031,25.25 -1.289,0.99434 -66.3659,1.23385 -318.17925,1.17105 C 804.16577,62.31126 661.17706,62.05717 660.52046,61.79005 z M 992.21428,31.93168 c 40.19312,-6.31348 73.82512,-17.90012 98.50002,-33.93451 21.0079,-13.65147 31.6026,-30.06643 27.1783,-42.10869 -0.7992,-2.17518 -3.263,-8.00487 -5.4752,-12.95487 -2.2122,-4.95 -7.9241,-18 -12.6931,-29 -4.769,-11 -9.0304,-20.37322 -9.4698,-20.82938 -0.4394,-0.45615 -2.402,1.79385 -4.3613,5 -4.1569,6.80219 -14.4404,17.1212 -23.6789,23.76061 -3.575,2.56923 -11.9,7.30547 -18.5,10.52496 -55.09487,26.87534 -131.85452,28.10867 -160.25426,2.57486 -2.77179,-2.49208 -5.311,-4.53105 -5.64269,-4.53105 -0.33169,0 -0.60307,15.89332 -0.60307,35.3185 0,41.67957 0.12559,42.44907 8.21482,50.33171 5.75248,5.60556 11.71355,8.93009 21.78518,12.14972 6.66846,2.13172 19.3925,4.80471 26.5,5.56696 9.13361,0.97954 48.34027,-0.27295 58.5,-1.86882 z m -224.99023,-215.74807 0.01,-47.25 2.33177,-5.00728 c 2.40437,-5.16366 7.25738,-10.13388 12.91196,-13.22402 3.07146,-1.67851 18.14207,-1.78179 295.53552,-2.0254 l 292.2991,-0.25669 4.928,2.11996 c 2.7104,1.16599 6.7726,4.12117 9.0272,6.56709 7.6666,8.31732 7.4109,6.44175 7.7453,56.81452 0.1643,24.74349 0.043,46.00599 -0.269,47.25 l -0.5677,2.26182 -159.5802,0 -159.5803,0 -5.6507,-3.47679 c -24.9186,-15.33194 -80.49064,-15.15156 -123.10175,0.39957 l -8.43178,3.07722 -83.80859,0 -83.8086,0 0.01,-47.25 z"
         id="path3006"
         inkscape:connector-curvature="0" />
      <path
         style="fill:#70b9e6"
         d="m 1307.3643,1292.4836 c 0.22,-0.66 0.7262,-1.1662 1.125,-1.125 1.1957,0.1237 0.9641,1.4953 -0.325,1.925 -0.66,0.22 -1.02,-0.14 -0.8,-0.8 z m -45.65,-8.6308 c -14.85,-0.713 -43.2,-2.0025 -63,-2.8656 -19.8,-0.8631 -44.775,-2.0233 -55.5,-2.5781 -10.725,-0.5549 -35.475,-1.6859 -55,-2.5135 -54.1817,-2.2964 -120.84636,-5.243 -168.50002,-7.4478 -38.361,-1.7748 -87.03184,-3.9319 -158.5,-7.025 -76.88463,-3.3275 -92.72366,-4.085 -94.75,-4.5315 l -2.25,-0.4958 0,-588.28094 c 0,-456.21852 0.26939,-588.55034 1.2,-589.48095 1.59899,-1.59899 623.88022,-1.7626 626.86572,-0.16482 1.9091,1.0217 1.9343,8.88294 1.9343,603.39301 0,548.3491 -0.1418,602.4122 -1.5818,602.9648 -0.87,0.3339 -2.1075,0.543 -2.75,0.4647 -0.6425,-0.078 -13.3182,-0.7256 -28.1682,-1.4385 z m 49.129,-6.9435 c -0.9607,-2.5037 -0.7188,-1193.78575 0.2428,-1195.30248 0.6778,-1.0692 15.9108,1.19783 78.4622,11.6771 42.6916,7.15213 78.0812,13.28824 78.6435,13.6358 0.6946,0.42927 1.0225,172.95167 1.0225,537.97583 l 0,537.34395 -10.25,6.2596 c -5.6375,3.4429 -14.75,9.0463 -20.25,12.4522 -9.671,5.9887 -15.0054,9.2598 -63.5,38.9389 -12.375,7.5736 -25.2,15.4607 -28.5,17.5268 -14.8986,9.3282 -32.7199,20.1638 -33.9224,20.6252 -0.7257,0.2785 -1.6026,-0.2313 -1.9486,-1.1329 z M 1455.2143,87.9026 c -7.425,-1.26146 -41.8387,-7.06919 -76.4748,-12.90606 -34.6361,-5.83688 -63.3724,-11.01007 -63.8583,-11.49599 -0.5113,-0.51131 1.0829,-5.17314 3.7843,-11.06654 2.5672,-5.60069 5.0399,-11.15446 5.4948,-12.34173 0.4549,-1.18727 3.9781,-9.13367 7.8294,-17.65867 8.8537,-19.59812 56.8489,-127.00478 59.3981,-132.92487 1.6174,-3.75622 2.1054,-4.20955 3.229,-3 1.1053,1.18972 14.1563,35.53708 59.627,156.92487 14.8117,39.54111 16.874,45.34707 16.3874,46.13438 -0.2942,0.47609 -0.8459,0.81219 -1.2259,0.74689 -0.3801,-0.0653 -6.766,-1.15082 -14.191,-2.41228 z M 660.73966,60.47467 c -0.32702,-0.52912 4.65401,-10.31732 11.06895,-21.75155 18.4039,-32.80382 24.34186,-43.38309 36.64584,-65.28951 6.33273,-11.275 17.92679,-31.975 25.76457,-46 21.50755,-38.48582 26.10905,-46.43122 27.35551,-47.23469 1.42581,-0.91908 138.05936,-1.01237 138.97684,-0.0949 0.36873,0.36873 -2.48684,3.92651 -6.34571,7.90618 -26.38041,27.20624 -8.60523,49.97449 42.59684,54.56234 33.64209,3.01443 77.7634,-5.86405 106.4118,-21.41311 21.0579,-11.42929 32.5914,-22.38043 36.5726,-34.72583 0.9755,-3.025 2.2582,-5.83061 2.8505,-6.23469 1.6919,-1.15426 293.351,-0.93974 294.0655,0.21629 0.3337,0.53988 -8.9114,22.25238 -20.5447,48.25 -20.0093,44.7161 -31.7025,70.90186 -48.5702,108.7684 -4.0425,9.075 -8.1437,18.075 -9.1138,20 l -1.7638,3.5 -317.68808,0.25155 C 776.38254,61.34562 661.11891,61.08835 660.73966,60.47467 z M 983.71428,33.3191 c 48.88862,-4.99384 100.34892,-24.84556 122.92322,-47.41981 12.0995,-12.09949 15.2953,-23.14893 9.9683,-34.46568 -2.1901,-4.65292 -16.906,-38.42701 -23.6374,-54.25 -1.1114,-2.6125 -2.5233,-4.74107 -3.1374,-4.73016 -0.6142,0.0109 -2.4667,2.35976 -4.1167,5.21965 -4.1504,7.19378 -15.8116,18.69533 -25.1688,24.82429 -28.5712,18.71407 -69.11831,29.98115 -108.83122,30.24159 -31.22618,0.20479 -53.20912,-5.68823 -68.32022,-18.31477 -3.28494,-2.74483 -6.24423,-4.9906 -6.5762,-4.9906 -0.33197,0 -0.60358,15.82295 -0.60358,35.16211 0,30.54125 0.22718,35.88281 1.72872,40.64624 7.29941,23.15638 48.0487,33.97334 105.77128,28.07714 z M 767.64464,-137.88726 c -0.27877,-0.72648 -0.37715,-22.21398 -0.21861,-47.75 0.28216,-45.44875 0.33407,-46.51471 2.45802,-50.48204 2.93469,-5.48168 7.90336,-10.26126 13.33023,-12.82293 l 4.5,-2.12416 289.47082,-0.25678 c 320.1219,-0.28396 295.0913,-0.79395 304.2497,6.199 2.6967,2.05905 5.5317,5.44665 6.9231,8.27239 l 2.3564,4.78539 0,47.5 0,47.5 -158.8443,0.25308 -158.8443,0.25308 -5.6557,-3.48356 c -13,-8.00714 -30.9996,-11.81622 -55.6557,-11.77783 -24.19724,0.0377 -45.9194,3.78746 -68.31577,11.79301 l -9.68425,3.46162 -82.78138,3e-4 c -67.67176,2.5e-4 -82.87391,-0.24079 -83.28826,-1.32057 z"
         id="path3004"
         inkscape:connector-curvature="0" />
      <path
         style="fill:#55ace2"
         d="m 1250.2143,1282.9227 c -14.575,-0.7021 -38.425,-1.7889 -53,-2.4151 -14.575,-0.6262 -34.6,-1.5673 -44.5,-2.0913 -9.9,-0.524 -29.25,-1.4114 -43,-1.9721 -13.75,-0.5607 -39.85,-1.6972 -58,-2.5256 -39.2061,-1.7896 -192.81889,-8.6416 -258.50002,-11.5307 -123.12172,-5.4157 -127.18704,-5.6402 -128.0947,-7.0733 -0.97487,-1.5392 -1.27215,-1172.76142 -0.29831,-1175.2992 0.55171,-1.43774 29.19144,-1.58179 314.48095,-1.58179 l 313.87398,0 0.5416,2.25 c 0.2979,1.2375 0.419,272.475 0.269,602.75 l -0.2725,600.49999 -8.5,0.1328 c -4.675,0.073 -20.425,-0.4416 -35,-1.1437 z m 61,-603.61292 0,-598.12383 5.25,0.50494 c 10.499,1.00979 150.2848,24.96385 151.5,25.96145 0.9972,0.8186 1.25,109.48463 1.25,537.24873 0,509.45593 -0.087,536.29663 -1.75,537.70723 -0.9625,0.8165 -16.15,10.2728 -33.75,21.0139 -17.6,10.7411 -51.9143,31.7427 -76.254,46.6703 -24.3397,14.9276 -44.7022,27.1411 -45.25,27.1411 -0.6602,0 -0.996,-201.6336 -0.996,-598.12382 z m 99,-599.42834 c -30.525,-5.16701 -64.275,-10.86905 -75,-12.6712 -19.3473,-3.25097 -19.4991,-3.29621 -19.3771,-5.77663 0.068,-1.375 5.4,-14.2 11.8499,-28.5 13.3161,-29.52302 60.8093,-135.71031 63.6964,-142.41487 1.3433,-3.11955 2.2131,-4.10277 2.9648,-3.35115 0.585,0.58505 8.1469,19.89674 16.8041,42.91487 8.6572,23.01813 25.4878,67.76711 37.4012,99.44218 11.9134,31.67506 21.6607,58.11256 21.6607,58.75 0,0.63743 -1.0125,1.12351 -2.25,1.08017 -1.2375,-0.0433 -27.225,-4.30636 -57.75,-9.47337 z M 661.62416,60.05934 c -0.29005,-0.75584 3.47631,-8.51834 8.36968,-17.25 4.89337,-8.73165 15.34221,-27.35073 23.21963,-41.37573 7.87743,-14.025 20.24512,-36.075 27.48375,-49 19.45422,-34.73663 32.90535,-58.72969 36.721,-65.5 l 3.38152,-6 69.70727,-0.2568 c 38.339,-0.14124 69.70727,-0.025 69.70727,0.25834 0,0.28333 -2.862,3.32389 -6.36001,6.7568 -7.16668,7.03332 -11.48329,14.62297 -12.31609,21.65467 -1.591,13.43344 12.34711,25.29489 36.6761,31.21167 8.51607,2.0711 11.88215,2.3106 32.5,2.31242 19.69272,0.002 24.72554,-0.32331 35,-2.26048 48.36682,-9.11923 86.91722,-31.00184 94.30342,-53.53014 l 2.0153,-6.14648 147.0906,-0.25331 c 108.2801,-0.18647 147.0907,0.043 147.0907,0.86963 0,0.61762 -3.5418,9.05661 -7.8707,18.75331 -4.3288,9.6967 -17.4273,39.00537 -29.1078,65.13037 -11.6804,26.125 -25.7462,57.625 -31.2573,70 -5.5111,12.375 -10.7073,23.2875 -11.5472,24.25 -1.4482,1.65976 -17.8409,1.75 -317.90339,1.75 -267.43608,0 -316.45798,-0.21259 -316.90375,-1.37427 z M 996.71428,32.02465 c 59.03722,-9.87717 107.19202,-33.47276 120.16772,-58.88158 3.67,-7.18636 3.734,-15.28475 0.1756,-22.20946 -1.4131,-2.75 -7.88,-17.2625 -14.3708,-32.25 -6.4909,-14.9875 -12.29,-27.24107 -12.887,-27.23016 -0.597,0.0109 -2.4355,2.34338 -4.0855,5.18325 -18.2424,31.39753 -77.5352,55.81626 -135.47016,55.79101 -29.76673,-0.013 -53.54492,-6.71105 -67.19012,-18.9268 -3.11314,-2.78702 -5.92564,-5.0673 -6.25,-5.0673 -0.32436,0 -0.58974,16.27295 -0.58974,36.16211 0,42.37007 0.27442,44.10569 8.24367,52.13869 8.25738,8.32344 27.0602,15.35609 47.21832,17.66063 14.62901,1.67244 48.18301,0.44952 65.03801,-2.37039 z m -227.9916,-170.22549 c -1.47424,-1.47425 -1.60377,-6.10572 -1.32143,-47.25001 l 0.31303,-45.61554 2.70084,-5.11974 c 3.08622,-5.85028 7.32567,-9.77921 13.79916,-12.78842 l 4.5,-2.09184 290.50002,0 290.5,0 5.7242,2.81095 c 3.1484,1.54602 7.321,4.67636 9.2726,6.95632 6.3233,7.38739 6.5032,9.00228 6.5032,58.37905 0,42.89274 -0.061,44.31611 -1.9515,45.32771 -1.3385,0.71634 -51.3602,0.96297 -159.25,0.78518 l -157.2985,-0.25921 -4,-2.76863 c -5.735,-3.96951 -17.5068,-8.26147 -28.5,-10.39105 -13.0166,-2.52154 -43.11668,-2.53559 -58.00002,-0.0271 -15.03177,2.53353 -25.61052,5.15412 -39.16931,9.70309 l -11.87385,3.98369 -80.40699,0 c -73.07933,0 -80.55594,-0.14895 -82.04145,-1.63445 z"
         id="path3002"
         inkscape:connector-curvature="0" />
      <path
         style="fill:#2a98db"
         d="m 1239.7143,1281.9163 c -26.95,-1.2599 -64.525,-3.0214 -83.5,-3.9143 -35.6168,-1.676 -74.5324,-3.4087 -136,-6.0552 -19.525,-0.8407 -54.62502,-2.4174 -78.00002,-3.5038 -23.375,-1.0865 -89.525,-4.0133 -147,-6.5041 -57.475,-2.4908 -110.125,-4.8609 -117,-5.267 l -12.5,-0.7383 -0.25085,-588.24999 -0.25084,-588.25 314.00167,0 314.00164,0 -0.2508,602.25 c -0.2505,601.44839 -0.2535,602.25019 -2.2508,602.38669 -1.1,0.075 -24.05,-0.8941 -51,-2.154 z m 72.1978,-6.1183 c -1.0216,-1.0215 -0.8583,-1193.14716 0.1634,-1193.77863 0.4737,-0.29275 18.3612,2.39631 39.75,5.97569 21.3888,3.57938 54.8638,9.17956 74.3888,12.44484 19.525,3.26529 36.9625,6.23092 38.75,6.5903 l 3.25,0.65341 0,536.89517 0,536.89512 -6.75,4.3229 c -12.2039,7.8155 -145.8054,89.5289 -147.3475,90.1207 -0.8288,0.3181 -1.821,0.2643 -2.2047,-0.1195 z M 1458.2143,87.32638 c -79.6875,-13.2538 -141.44,-23.94327 -142.0425,-24.58778 -0.4138,-0.44274 9.8122,-24.42999 22.7246,-53.30499 12.9123,-28.875 30.3593,-67.93779 38.7711,-86.80619 8.4118,-18.86841 15.6885,-34.37474 16.1705,-34.45851 0.7374,-0.12816 19.3658,48.09692 35.8331,92.7647 2.4332,6.6 9.8751,26.4 16.5376,44 6.6625,17.6 13.6149,36.05 15.4499,41 1.8349,4.95 4.4862,12.02607 5.8916,15.72459 1.4054,3.69853 2.2423,6.87983 1.8597,7.06958 -0.3826,0.18974 -5.4206,-0.44089 -11.1956,-1.4014 z M 662.23699,59.18361 c 0.0251,-1.38236 1.44833,-4.03308 18.12083,-33.75 6.32577,-11.275 19.05796,-34 28.29375,-50.5 9.2358,-16.5 21.97734,-39.225 28.31455,-50.5 6.3372,-11.275 13.78591,-24.55 16.55267,-29.5 2.76677,-4.95 5.88576,-10.2375 6.93108,-11.75 l 1.9006,-2.75 67.76524,0 c 37.27088,0 68.04024,0.275 68.37635,0.61111 0.33611,0.33611 -2.17639,3.40053 -5.58334,6.80981 -18.33831,18.35092 -15.42772,36.23372 7.67665,47.16579 41.46017,19.61729 124.12933,6.24612 163.66083,-26.47102 7.702,-6.37436 13.6559,-13.66779 15.5523,-19.0513 0.8843,-2.51042 2.0049,-5.57689 2.4904,-6.81439 l 0.8825,-2.25 146.0214,0 c 138.4051,0 146.021,0.0913 146.0117,1.75 -0.01,0.9625 -1.1681,4.225 -2.5839,7.25 -1.4158,3.025 -7.9872,17.65 -14.6031,32.5 -11.9263,26.76955 -14.8057,33.22183 -43.2674,96.95304 -8.094,18.12417 -15.6254,34.88667 -16.7363,37.25 l -2.0198,4.29696 -316.88985,0 c -252.85734,0 -316.88528,-0.25258 -316.86716,-1.25 z M 969.71428,35.40846 C 1036.89,31.13416 1102.0185,3.77543 1117.033,-26.47611 c 4.7152,-9.50023 4.4123,-13.41479 -2.1969,-28.39792 -2.958,-6.7058 -9.5389,-21.75486 -14.6241,-33.44236 -5.5123,-12.66898 -9.7933,-21.25 -10.6015,-21.25 -0.7456,0 -2.319,1.9125 -3.4965,4.25 -8.2632,16.40364 -32.4683,33.96859 -60.8997,44.19313 -11.7883,4.23932 -33.37761,9.43142 -46.50002,11.18299 -15.98723,2.13395 -42.15192,2.16221 -54.5,0.0589 -18.24183,-3.10729 -31.81878,-8.84527 -40.96469,-17.31278 -3.28472,-3.04107 -6.43642,-5.24233 -7.00377,-4.89169 -0.67763,0.41875 -1.03154,12.91485 -1.03154,36.42192 0,33.36357 0.13742,36.18384 2.03125,41.68836 5.68007,16.50941 27.84368,27.10647 61.4284,29.37071 6.07219,0.40937 11.94035,0.80891 13.04035,0.88785 1.1,0.0789 9.2,-0.3146 18,-0.87454 z m -201.07,-174.29668 c -0.27898,-0.727 -0.37736,-21.9895 -0.21862,-47.25 0.28423,-45.22921 0.32234,-45.99121 2.50413,-50.07072 1.21853,-2.27841 4.12387,-5.77605 6.45632,-7.77253 8.32951,-7.12976 -16.64391,-6.58492 301.82819,-6.58492 319.9918,0 294.0171,-0.585 302.2165,6.80644 2.2535,2.03146 5.1473,5.94356 6.4306,8.69356 l 2.3333,5 0.01,46.25 0.01,46.25 -158.6962,0 -158.6963,0 -3.7099,-2.57098 c -20.3677,-14.11487 -66.9888,-16.87394 -108.03607,-6.39366 -4.26564,1.08912 -12.37695,3.55171 -18.02513,5.47243 l -10.26987,3.49221 -81.81486,0 c -66.90049,0 -81.90733,-0.24096 -82.32209,-1.32183 z"
         id="path3000"
         inkscape:connector-curvature="0" />
      <path
         style="fill:#0084d5"
         d="m 1262.2143,1281.9175 c -14.025,-0.7059 -37.65,-1.7893 -52.5,-2.4076 -14.85,-0.6183 -35.1,-1.5652 -45,-2.104 -9.9,-0.5389 -33.975,-1.6427 -53.5,-2.453 -19.525,-0.8102 -45.4,-1.9267 -57.5,-2.4811 -21.4663,-0.9835 -35.2356,-1.5899 -103.00002,-4.536 -18.15,-0.7891 -36.825,-1.6773 -41.5,-1.9738 -4.675,-0.2965 -20.2,-0.9937 -34.5,-1.5494 -14.3,-0.5557 -40.85,-1.6838 -59,-2.507 -60.56925,-2.7472 -145.45228,-6.472 -147.48831,-6.472 l -2.01169,0 0,-587.49999 0,-587.5 313.00083,0 313.00079,0 -0.2508,601.25 c -0.2505,600.44959 -0.2535,601.25019 -2.2508,601.38359 -1.1,0.074 -13.475,-0.4439 -27.5,-1.1497 z m 50.2492,-602.73389 0.2508,-596.25 3,0.1729 c 3.0781,0.17741 136.8019,22.49299 146.25,24.40594 l 5.25,1.06296 0,536.34776 0,536.34773 -16.75,10.2535 c -9.2125,5.6395 -23.5,14.3743 -31.75,19.4107 -24.6561,15.052 -85.5528,52.4231 -92,56.4586 -8.8939,5.5669 -13.1599,8.0399 -13.8689,8.0399 -0.348,0 -0.5199,-268.3125 -0.3819,-596.24999 z M 1455.2143,85.92222 c -4.125,-0.71848 -21.225,-3.599 -38,-6.40114 -16.775,-2.80215 -34.325,-5.78807 -39,-6.63538 -4.675,-0.84731 -20.3323,-3.49044 -34.794,-5.87363 -14.4617,-2.38318 -26.4421,-4.50077 -26.6231,-4.70576 -0.181,-0.20498 5.9293,-14.3227 13.5785,-31.3727 7.6493,-17.05 15.029,-33.60221 16.3996,-36.78268 1.3705,-3.18047 3.8795,-8.80547 5.5755,-12.5 2.9802,-6.49183 26.1334,-58.35098 35.9882,-80.60735 2.6521,-5.98951 5.0464,-11.11442 5.3207,-11.38869 0.2742,-0.27426 0.994,0.80125 1.5994,2.39003 1.7331,4.54822 39.5917,105.27324 45.6253,121.38869 7.2215,19.28869 13.9096,37.06782 21.2538,56.5 3.3258,8.8 6.0535,16.3375 6.0615,16.75 0.02,1.02818 -4.097,0.78679 -12.9854,-0.76139 z M 663.66295,57.68361 c 0.36445,-0.9625 3.96073,-7.6 7.99172,-14.75 18.79572,-33.33902 30.22712,-53.70156 34.52571,-61.5 2.57691,-4.675 10.12052,-18.175 16.76357,-30 6.64305,-11.825 18.12813,-32.3 25.5224,-45.5 l 13.44413,-24 67.1519,-0.25704 c 36.93354,-0.14137 67.1519,0.0128 67.1519,0.34272 0,0.32986 -2.48254,3.34305 -5.51676,6.69597 -24.87127,27.48365 -4.86804,51.55273 46.39219,55.82184 60.42467,5.03235 135.12099,-24.76448 144.70219,-57.72258 l 1.5643,-5.38091 145.429,0 c 102.1244,0 145.4291,0.31685 145.4291,1.06408 0,0.58524 -1.1735,3.62274 -2.6077,6.75 -2.6346,5.74458 -14.1235,31.47572 -51.8556,116.1384 -11.3864,25.54886 -21.5745,48.16136 -22.64,50.25 l -1.9374,3.79752 -316.08663,0 c -300.62069,0 -316.05425,-0.0856 -315.42402,-1.75 z M 998.21428,33.51267 c 58.42692,-10.05588 106.87242,-34.1107 119.48942,-59.33046 4.418,-8.83111 4.659,-14.74302 0.9273,-22.7486 -2.2006,-4.72102 -14.5697,-33.12324 -23.4455,-53.83629 -3.0016,-7.00458 -4.9189,-9.45689 -6.5499,-8.37755 -0.5933,0.39261 -2.3933,3.17077 -4,6.17368 -15.0235,28.07845 -66.6582,51.51447 -121.25883,55.03715 -36.55653,2.35852 -65.88447,-4.62374 -80.40261,-19.14187 -8.52637,-8.52637 -8.2217,-9.68899 -8.52232,32.52156 -0.25337,35.5765 -0.18802,37.05384 1.89111,42.75605 3.23863,8.88225 8.45071,14.13213 19.23564,19.37514 17.69837,8.60392 29.53759,10.45683 64.13569,10.03761 21.01064,-0.25459 28.39873,-0.72789 38.5,-2.46642 z M 769.4268,-185.30505 c 0.28323,-46.06945 0.32021,-46.82254 2.49965,-50.89735 2.7897,-5.2158 8.98414,-10.16737 14.97494,-11.97034 6.93748,-2.08787 577.68831,-2.08787 584.62581,0 6.56,1.97428 12.5206,7.05322 15.3115,13.04664 l 2.356,5.05971 0.01,45.75 0.01,45.75 -157.9652,0 -157.9653,0 -4.6109,-2.92417 c -13.0588,-8.28163 -30.9131,-12.16528 -56.0715,-12.19659 -9.4121,-0.0117 -18.63711,0.22429 -20.5,0.52444 -1.86288,0.30015 -7.88706,1.26189 -13.38706,2.1372 -12.8449,2.04422 -22.75296,4.56838 -34,8.66177 l -9,3.27557 -83.28748,0.27223 -83.28748,0.27223 0.28748,-46.76134 z"
         id="path2998"
         inkscape:connector-curvature="0" />
    </g>
  </g>
</svg>
