<?xml version="1.0" encoding="UTF-8" standalone="no"?>
<!-- Created with Inkscape (http://www.inkscape.org/) -->

<svg
   xmlns:dc="http://purl.org/dc/elements/1.1/"
   xmlns:cc="http://creativecommons.org/ns#"
   xmlns:rdf="http://www.w3.org/1999/02/22-rdf-syntax-ns#"
   xmlns:svg="http://www.w3.org/2000/svg"
   xmlns="http://www.w3.org/2000/svg"
   xmlns:sodipodi="http://sodipodi.sourceforge.net/DTD/sodipodi-0.dtd"
   xmlns:inkscape="http://www.inkscape.org/namespaces/inkscape"
   width="200"
   height="200"
   id="svg2"
   version="1.1"
   inkscape:version="0.48.5 r10040"
   sodipodi:docname="rocket.svg"
   inkscape:export-filename="/home/maartend/htdocs/spacebillboard/docroot/sites/all/themes/sbbtheme/resources/img/our-mission/rocket.png"
   inkscape:export-xdpi="90"
   inkscape:export-ydpi="90">
  <defs
     id="defs4" />
  <sodipodi:namedview
     id="base"
     pagecolor="#ffffff"
     bordercolor="#666666"
     borderopacity="1.0"
     inkscape:pageopacity="0.0"
     inkscape:pageshadow="2"
     inkscape:zoom="0.98994949"
     inkscape:cx="49.138481"
     inkscape:cy="73.524352"
     inkscape:document-units="px"
     inkscape:current-layer="layer1"
     showgrid="false"
     inkscape:window-width="1137"
     inkscape:window-height="609"
     inkscape:window-x="1769"
     inkscape:window-y="212"
     inkscape:window-maximized="0" />
  <metadata
     id="metadata7">
    <rdf:RDF>
      <cc:Work
         rdf:about="">
        <dc:format>image/svg+xml</dc:format>
        <dc:type
           rdf:resource="http://purl.org/dc/dcmitype/StillImage" />
        <dc:title></dc:title>
      </cc:Work>
    </rdf:RDF>
  </metadata>
  <g
     inkscape:label="Layer 1"
     inkscape:groupmode="layer"
     id="layer1"
     transform="translate(105.93225,-1013.5213)">
    <path
       inkscape:connector-curvature="0"
       id="path3010"
       d="m -43.820895,1185.351 c -8.18283,-5.5031 -10.369467,-7.2748 -10.824496,-8.7701 -0.183516,-0.603 -0.158786,-0.8301 0.212228,-1.9489 0.213709,-0.6443 0.370741,-1.6876 0.452285,-3.0048 0.13816,-2.2319 0.577355,-4.2078 1.623003,-7.302 0.356279,-1.0542 0.600265,-1.9443 0.542194,-1.9778 -0.05807,-0.034 -5.459928,0.252 -12.004119,0.6346 -6.544197,0.3825 -11.955284,0.6254 -12.024644,0.5398 -0.06937,-0.086 -0.08086,-0.2954 -0.02555,-0.4662 0.134855,-0.4164 8.967303,-19.2207 10.007556,-21.3061 0.526633,-1.0557 0.90825,-1.6971 1.065197,-1.7902 0.134512,-0.08 5.532546,-1.7972 11.995626,-3.8163 6.46308,-2.0191 11.930426,-3.7301 12.14965,-3.8021 0.394493,-0.1297 0.409234,-0.1543 1.431818,-2.3886 2.045367,-4.469 3.746018,-7.8381 7.461941,-14.7827 2.163593,-4.0435 2.866595,-5.3963 7.165253,-13.788 7.842362,-15.3095 14.321783,-26.9015 17.459214,-31.2354 3.5220558,-4.8651 7.14515464,-8.7997 12.0710127,-13.109 3.7723508,-3.3001 9.8132183,-7.8165 14.9969283,-11.2123 5.634664,-3.6912 9.015965,-5.501 15.244012,-8.1591 4.672537,-1.9943 4.469726,-1.8934 8.226992,-4.092 1.711304,-1.0014 3.226657,-1.8397 3.36745,-1.8628 0.140794,-0.023 0.3127,0.028 0.382015,0.1135 0.06931,0.086 0.07434,2.0827 0.01117,4.4382 -0.09362,3.4909 -0.05809,4.6452 0.192185,6.2435 0.463399,2.9593 0.695065,7.5786 0.681938,13.5974 -0.02338,10.7202 -2.127179,22.9923 -5.786716,33.7558 -2.315391,6.8101 -3.690161,9.726 -7.9382,16.837 -6.25828,10.4761 -9.2418,15.0517 -16.944287,25.9865 -1.704619,2.4199 -4.191485,5.9757 -5.526369,7.9018 -3.782961,5.4583 -8.0356654,11.2599 -10.2257311,13.9501 -1.17362006,1.4416 -1.3163952,0.078 1.5059208,14.3843 1.3962695,7.0778 2.527747,13.0433 2.5143931,13.2566 -0.017673,0.2821 -0.2211088,0.6689 -0.7458645,1.4182 -0.8658679,1.2363 -14.3903263,19.1814 -14.7175969,19.5283 -0.1258762,0.1334 -0.3126784,0.2293 -0.4151264,0.213 -0.102436,-0.016 -2.376295,-4.8534 -5.052996,-10.7492 -2.676695,-5.8958 -4.944107,-10.7961 -5.038688,-10.8896 -0.144544,-0.1428 -0.340267,0.023 -1.227612,1.0414 -2.026154,2.3249 -3.307151,3.5362 -4.415096,4.175 -0.574726,0.3313 -1.715175,1.0651 -2.534326,1.6306 -2.400275,1.657 -3.807813,1.8146 -6.916038,0.7741 -2.635463,-0.8822 -6.583738,-2.7474 -8.396532,-3.9665 z"
       style="fill:#b0c9d7" />
    <path
       inkscape:connector-curvature="0"
       id="path3008"
       d="m -45.595238,1183.6907 c -6.672249,-4.5191 -8.799669,-6.4024 -8.888503,-7.8687 -0.01721,-0.2841 0.116248,-0.9305 0.296569,-1.4364 0.22593,-0.6339 0.371139,-1.5947 0.467053,-3.0902 0.114672,-1.7879 0.246404,-2.5473 0.747767,-4.3107 0.334715,-1.1772 0.804996,-2.7024 1.04507,-3.3892 0.398537,-1.1401 0.412011,-1.2568 0.154928,-1.3421 -0.154864,-0.051 -5.585219,0.2197 -12.06746,0.6023 -6.48224,0.3827 -11.835597,0.667 -11.896347,0.632 -0.06075,-0.035 -0.06666,-0.2013 -0.01314,-0.3693 0.09661,-0.3033 9.182019,-19.7783 10.236245,-21.9419 l 0.550205,-1.1292 12.391516,-3.8539 12.391524,-3.854 0.486554,-1.0091 c 0.267607,-0.555 0.938101,-1.9782 1.489984,-3.1627 1.376338,-2.9539 2.840722,-5.8521 5.156587,-10.2052 3.224018,-6.0602 5.172645,-9.7843 7.009242,-13.3957 8.139673,-16.0056 15.407584,-29.1954 18.5481833,-33.6612 4.3589876,-6.1982 9.427255,-11.4537 16.2494286,-16.8496 4.4776631,-3.5416 10.1264711,-7.5431 13.9157491,-9.8577 4.497784,-2.7473 7.304205,-4.1725 13.041518,-6.623 3.347493,-1.4298 4.588464,-2.0496 7.596197,-3.7939 1.977276,-1.1468 3.650673,-2.059 3.718662,-2.0272 0.06799,0.032 0.0734,2.0243 0.01204,4.4278 -0.08752,3.4279 -0.05047,4.765 0.171906,6.2025 0.722594,4.6711 0.917139,15.1271 0.38998,20.96 -0.975704,10.7961 -3.151335,20.4997 -6.681681,29.8013 -1.905754,5.0212 -2.135148,5.4871 -5.794855,11.7704 -6.12548,10.5167 -10.182722,16.7721 -18.624106,28.7141 -1.176219,1.664 -3.248722,4.6271 -4.605566,6.5847 -3.9924178,5.7601 -7.2136605,10.16 -10.2178764,13.9568 -1.10991711,1.4027 -1.17323096,1.5082 -1.15279496,1.9205 0.0119003,0.24 1.16662386,6.2531 2.56605206,13.3625 1.6326896,8.2943 2.4922166,13.0177 2.3987069,13.1818 -0.1745402,0.3062 -15.0992899,20.073 -15.4231537,20.4269 -0.1593649,0.1742 -0.2697439,0.1914 -0.3770249,0.059 -0.08343,-0.103 -2.358886,-5.0469 -5.056571,-10.9863 -2.697685,-5.9395 -4.979198,-10.7969 -5.07002,-10.7941 -0.09082,0 -0.316104,0.1865 -0.500619,0.4084 -0.862324,1.0372 -3.02351,3.3624 -3.628228,3.9036 -0.370088,0.3312 -1.073723,0.8135 -1.563622,1.0718 -0.489905,0.2583 -1.359172,0.8141 -1.931711,1.2351 -1.765542,1.2982 -2.739222,1.6781 -4.206153,1.6412 -1.452466,-0.037 -4.197278,-0.9475 -7.644404,-2.5369 -1.734409,-0.7997 -2.957896,-1.5256 -5.68783,-3.3745 z"
       style="fill:#92b5ca" />
    <path
       inkscape:connector-curvature="0"
       id="path3006"
       d="m -43.902574,1184.6571 c -0.219742,-0.1554 -1.20744,-0.8254 -2.194894,-1.4888 -5.445927,-3.6589 -7.741134,-5.5875 -8.177881,-6.8717 -0.184067,-0.5412 -0.160986,-0.7933 0.180009,-1.9662 0.259881,-0.8939 0.406339,-1.8344 0.436423,-2.8025 0.0249,-0.8014 0.129445,-1.9149 0.232317,-2.4744 0.168922,-0.9188 1.068264,-4.0069 1.757194,-6.0337 0.21249,-0.6252 0.219892,-0.7981 0.03628,-0.848 -0.126837,-0.034 -5.497928,0.2441 -11.93575,0.619 -6.437822,0.375 -11.816371,0.6512 -11.952331,0.6139 -0.204358,-0.056 -0.201635,-0.1764 0.01568,-0.694 0.49764,-1.1853 10.423499,-22.4109 10.533715,-22.5255 0.06069,-0.063 5.273625,-1.7195 11.584296,-3.6809 15.013337,-4.6662 13.318928,-4.0635 13.660271,-4.8588 1.721371,-4.0107 3.826041,-8.1951 9.374784,-18.6384 1.060539,-1.996 3.300496,-6.3093 4.977683,-9.5851 7.741609,-15.1203 14.550276,-27.5035 17.5112707,-31.8484 6.0994306,-8.9501 14.4465043,-16.6504 27.3318443,-25.2139 5.861136,-3.8952 9.519436,-5.8589 16.355595,-8.7793 3.367051,-1.4384 4.582154,-2.046 7.617813,-3.809 3.07644,-1.7868 3.614989,-2.0551 3.633514,-1.8101 0.01196,0.1582 -0.02839,2.1461 -0.08968,4.4175 -0.09005,3.3376 -0.05237,4.5159 0.196401,6.1419 0.776607,5.0761 0.907448,15.5286 0.273463,21.8461 -1.050565,10.4687 -3.103252,19.4642 -6.531321,28.6225 -1.800968,4.8113 -1.785853,4.7812 -6.312618,12.5922 -6.028416,10.4021 -8.746385,14.6089 -17.24762,26.6955 -1.946088,2.7668 -4.648422,6.6323 -6.005186,8.5899 -2.9280564,4.2249 -5.7576885,8.1257 -7.8904434,10.8775 -3.29262811,4.2484 -3.04132394,3.8885 -3.01349468,4.3156 0.0139617,0.2143 0.82235878,4.4307 1.79643448,9.3698 0.974074,4.9391 2.1273032,10.7964 2.5627186,13.0162 l 0.7916707,4.036 -7.5122066,9.9283 c -8.9529111,11.8324 -8.1491101,10.8131 -8.3613581,10.6034 -0.09273,-0.092 -2.381472,-5.0364 -5.086091,-10.9883 -2.826267,-6.2197 -4.988554,-10.8027 -5.084613,-10.7769 -0.09192,0.025 -0.864852,0.826 -1.717621,1.7808 -1.967391,2.2029 -2.753724,2.938 -3.633725,3.3972 -0.387309,0.2021 -1.462659,0.8843 -2.389662,1.5159 -2.45431,1.6722 -3.618701,1.8877 -6.227843,1.1522 -2.749202,-0.7749 -7.369687,-2.9343 -9.495045,-4.4375 z"
       style="fill:#76a6c3" />
    <path
       inkscape:connector-curvature="0"
       id="path3004"
       d="m -46.873527,1182.5634 c -4.601731,-3.1981 -6.372307,-4.6514 -7.169324,-5.8845 -0.425182,-0.6578 -0.423738,-1.1128 0.0072,-2.27 0.219984,-0.5908 0.358608,-1.4924 0.442686,-2.8793 0.06733,-1.1106 0.240598,-2.5297 0.385045,-3.1537 0.259351,-1.1202 1.22148,-4.287 1.628574,-5.3603 0.115346,-0.3041 0.173834,-0.6498 0.129986,-0.7683 -0.05957,-0.161 -3.120544,-0.038 -12.106784,0.4849 -6.614882,0.3853 -12.043767,0.6326 -12.064196,0.5497 -0.02044,-0.083 2.13113,-4.7947 4.781248,-10.4708 2.650119,-5.676 5.042815,-10.8531 5.317098,-11.5046 l 0.498693,-1.1846 0.473593,-0.1028 c 0.260475,-0.057 5.864481,-1.7863 12.453347,-3.8437 13.513267,-4.2198 12.024879,-3.5626 12.970586,-5.727 1.380616,-3.1599 4.07393,-8.5006 7.817326,-15.5014 1.735562,-3.2458 4.855053,-9.2688 10.479827,-20.2338 1.481075,-2.8873 7.809499,-14.4996 9.463195,-17.3645 4.341648,-7.5216 8.3003507,-12.5465 14.3637291,-18.2326 4.0731949,-3.8197 10.8936749,-9.0431 17.1749569,-13.1532 5.6727,-3.7118 8.991249,-5.4783 15.441432,-8.2196 3.941275,-1.675 4.104726,-1.7575 8.47417,-4.2756 1.475095,-0.8502 2.745519,-1.5305 2.823165,-1.5118 0.07765,0.019 0.0866,1.9359 0.0199,4.2606 -0.09495,3.3094 -0.06041,4.6281 0.159185,6.0766 0.336687,2.2208 0.498774,4.296 0.618031,7.9125 0.280762,8.5146 -0.08517,14.3563 -1.394629,22.264 -1.290178,7.7912 -2.928149,13.9075 -5.593142,20.8849 -1.825193,4.7787 -2.010589,5.1514 -5.777386,11.6152 -5.959957,10.2271 -10.073042,16.6015 -17.231323,26.7049 -0.933636,1.3177 -3.403437,4.8472 -5.488447,7.8433 -4.9175195,7.0663 -7.3719562,10.4223 -10.7040171,14.6356 -1.06993915,1.353 -1.13192924,1.4572 -1.11242535,1.8708 0.0188118,0.3988 4.87690515,25.2954 5.10034635,26.138 0.086464,0.326 0.041193,0.427 -0.4587969,1.0228 -0.3051013,0.3635 -3.8130654,4.965 -7.7954718,10.2256 -3.9824065,5.2605 -7.3068122,9.5855 -7.3875722,9.6112 -0.08075,0.026 -2.378221,-4.8708 -5.105479,-10.8809 -2.727253,-6.0101 -5.037996,-10.9436 -5.134978,-10.9635 -0.100311,-0.021 -0.826146,0.6935 -1.683448,1.6561 -1.864616,2.0937 -3.054835,3.2062 -3.829526,3.5795 -0.327231,0.1577 -1.34773,0.8061 -2.267786,1.4409 -2.422846,1.6717 -3.337315,1.8674 -5.842295,1.2503 -3.35493,-0.8265 -8.182251,-3.2786 -12.876322,-6.5409 z"
       style="fill:#5991b3" />
    <path
       inkscape:connector-curvature="0"
       id="path3002"
       d="m -46.7698,1182.4656 c -3.357878,-2.3366 -4.543238,-3.2265 -5.752671,-4.3187 -1.731707,-1.5639 -1.968631,-2.1857 -1.407173,-3.6933 0.252144,-0.6771 0.37176,-1.4328 0.436006,-2.7548 0.127794,-2.6295 0.451009,-3.9878 2.184286,-9.1796 0.06169,-0.1848 0.01283,-0.3543 -0.125049,-0.4339 -0.12446,-0.072 -2.460697,-0 -5.191641,0.1568 -2.730936,0.1581 -8.094321,0.471 -11.918621,0.6952 -3.8243,0.2242 -6.965734,0.3612 -6.980961,0.3044 -0.01523,-0.057 2.297276,-5.0912 5.138895,-11.1874 2.841621,-6.0962 5.14936,-11.1482 5.128312,-11.2266 -0.07479,-0.2785 0.229956,-0.5976 0.664382,-0.6958 0.390203,-0.088 23.36519,-7.2533 24.306554,-7.5804 0.364094,-0.1266 0.407946,-0.2041 1.743881,-3.0848 2.269534,-4.8938 2.611902,-5.5654 8.661714,-16.9917 1.021847,-1.93 3.229634,-6.1895 4.90619,-9.4656 8.40067,-16.4155 15.2533791,-28.7154 18.3650264,-32.9631 5.262644,-7.184 11.014968,-12.6801 20.6402556,-19.7207 8.332092,-6.0946 13.376359,-8.9989 22.055891,-12.6987 2.894989,-1.234 4.368739,-1.9672 6.880021,-3.4228 4.201071,-2.435 3.869017,-2.2691 3.935785,-1.9662 0.0305,0.1383 0.0039,2.0665 -0.05907,4.2848 -0.08369,2.9476 -0.04718,4.4616 0.135647,5.6246 0.372154,2.3672 0.50016,3.9369 0.626979,7.6882 0.282035,8.3427 0.02704,13.2327 -1.077701,20.6669 -1.198712,8.0667 -2.957331,14.9586 -5.649103,22.1387 -1.926248,5.1381 -2.05431,5.397 -6.217264,12.5669 -6.083571,10.4779 -9.040163,15.0387 -18.161923,28.0164 -1.945137,2.7674 -4.449005,6.3496 -5.564151,7.9604 -2.710955,3.916 -5.4288579,7.6414 -8.1090978,11.115 -1.2159376,1.5758 -2.2991464,3.0182 -2.4071276,3.2052 -0.16014103,0.2774 0.28236792,2.7775 2.4002408,13.5614 1.4281277,7.2717 2.6331064,13.2665 2.6777382,13.3218 0.1022866,0.1266 -0.1330424,0.5479 -0.2941787,0.5268 -0.066064,-0.01 -3.5246072,4.4839 -7.6856445,9.9835 -4.1610564,5.4996 -7.6062844,10.0102 -7.6560674,10.0235 -0.04979,0.013 -2.324411,-4.8896 -5.054705,-10.8953 -4.213409,-9.2682 -5.202571,-11.3243 -5.337463,-11.095 -0.0097,0.017 -0.717843,0.8194 -1.573642,1.7842 -1.87231,2.1108 -2.848055,3.0432 -3.618073,3.4574 -0.317141,0.1706 -1.389966,0.8578 -2.384059,1.5272 -2.517188,1.6949 -3.408976,1.8899 -5.829118,1.2745 -3.476447,-0.884 -8.17141,-3.2654 -12.833264,-6.5094 z"
       style="fill:#2b76a3" />
    <path
       inkscape:connector-curvature="0"
       id="path3000"
       d="m -44.868182,1183.5451 c -6.819759,-4.6752 -8.78246,-6.2862 -9.157546,-7.5169 -0.122772,-0.4028 -0.07983,-0.7089 0.207822,-1.4813 0.274541,-0.7372 0.390131,-1.4791 0.476122,-3.0561 0.12489,-2.2903 0.478041,-3.8806 1.607493,-7.239 0.59365,-1.7651 0.679741,-2.2564 0.42311,-2.4145 -0.03504,-0.022 -5.451725,0.2759 -12.036848,0.6612 -11.727195,0.6861 -11.97098,0.693 -11.877189,0.3367 0.05267,-0.2001 2.421871,-5.3393 5.264902,-11.4206 l 5.169154,-11.0569 0.936522,-0.2951 c 0.515091,-0.1623 6.050697,-1.8857 12.301349,-3.8298 6.250653,-1.944 11.457223,-3.5888 11.570159,-3.655 0.117388,-0.069 0.78893,-1.3788 1.567916,-3.0585 2.260948,-4.8751 2.686823,-5.7103 8.65493,-16.9741 1.022414,-1.9296 3.229789,-6.1894 4.905277,-9.4661 7.326418,-14.3282 14.216278,-26.8783 17.0217687,-31.0057 5.637643,-8.294 11.5719883,-14.0982 22.6599813,-22.1631 4.387967,-3.1916 8.076657,-5.561 12.225816,-7.8529 2.693775,-1.488 4.418376,-2.3042 9.048759,-4.2826 2.973799,-1.2706 4.388965,-1.9789 7.19074,-3.5991 1.918555,-1.1095 3.495553,-1.9901 3.504438,-1.9569 0.0089,0.033 -0.03418,1.9407 -0.0957,4.2391 -0.09009,3.3655 -0.05294,4.5569 0.190897,6.1219 0.670893,4.306 0.887396,13.7854 0.449706,19.6902 -0.445942,6.0162 -1.646232,13.4578 -3.110598,19.2852 -0.962018,3.8283 -2.541314,8.7196 -4.068793,12.6016 -1.521188,3.8661 -1.75284,4.3186 -5.620998,10.9821 -5.933885,10.2219 -10.142873,16.7129 -18.16544,28.0143 -0.934913,1.317 -3.198118,4.5512 -5.029343,7.1871 -3.8291181,5.5117 -5.413376,7.6903 -8.729316,12.0041 -1.66344017,2.1641 -2.3949265,3.2005 -2.43316979,3.4477 -0.0300761,0.1944 1.06861699,6.0511 2.44154999,13.015 1.3729275,6.9639 2.5353989,12.8797 2.5832756,13.1462 l 0.087024,0.4847 -7.4406716,9.8218 c -4.0923605,5.4019 -7.5710054,9.9777 -7.7303218,10.1684 l -0.2896814,0.3467 -4.937078,-10.8799 c -2.715398,-5.984 -5.026334,-10.9315 -5.135411,-10.9944 -0.271038,-0.1565 -0.552617,0.049 -1.291031,0.9426 -0.99053,1.1985 -3.396453,3.6954 -3.826238,3.9709 -0.214427,0.1374 -0.676806,0.3954 -1.027502,0.5732 -0.350696,0.1779 -1.238894,0.7567 -1.973776,1.2863 -1.685936,1.2149 -2.562332,1.5215 -4.004519,1.4008 -2.899613,-0.2425 -8.238719,-2.6028 -12.507537,-5.5293 z m 50.2477153,-0.9699 c 0.086885,-0.1371 0.1319387,-0.1492 0.1149079,-0.031 -0.015432,0.1072 -0.079752,0.2087 -0.1429493,0.2256 -0.063197,0.017 -0.050581,-0.071 0.028029,-0.1948 z M -65.09203,1140.3746 c 0.09572,-0.1658 0.16224,-0.2178 0.147829,-0.1156 -0.01441,0.1022 -0.09272,0.2379 -0.174028,0.3014 -0.08131,0.064 -0.06952,-0.02 0.0262,-0.1858 z"
       style="fill:#0086d7;fill-opacity:1" />
    <path
       inkscape:connector-curvature="0"
       id="path2998"
       d="m 5.6211391,1096.0041 c -2.5727136,-2.5806 -3.5778596,-6.4179 -2.70813,-10.3388 1.4391107,-6.4877 7.6910769,-10.8721 13.7235739,-9.6241 0.976359,0.202 1.366716,0.362 2.599736,1.066 1.669939,0.9535 2.38126,1.602 3.348292,3.0525 1.685625,2.5285 2.20344,5.9817 1.384027,9.2296 -0.339648,1.3462 -1.57415,3.7586 -2.513828,4.9122 -2.940019,3.6095 -7.592698,5.254 -11.6488995,4.1174 -1.3879668,-0.3889 -3.2176297,-1.4448 -4.1847881,-2.4148 z"
       style="fill:#ffffff;fill-opacity:1" />
  </g>
</svg>
