<?xml version="1.0" encoding="UTF-8" standalone="no"?>
<!-- Created with Inkscape (http://www.inkscape.org/) -->

<svg
   xmlns:dc="http://purl.org/dc/elements/1.1/"
   xmlns:cc="http://creativecommons.org/ns#"
   xmlns:rdf="http://www.w3.org/1999/02/22-rdf-syntax-ns#"
   xmlns:svg="http://www.w3.org/2000/svg"
   xmlns="http://www.w3.org/2000/svg"
   xmlns:sodipodi="http://sodipodi.sourceforge.net/DTD/sodipodi-0.dtd"
   xmlns:inkscape="http://www.inkscape.org/namespaces/inkscape"
   width="1875.9399"
   height="1875.9399"
   id="svg2"
   version="1.1"
   inkscape:version="0.48.5 r10040"
   sodipodi:docname="scales.svg"
   inkscape:export-filename="/home/maartend/htdocs/spacebillboard/docroot/sites/all/themes/sbbtheme/resources/img/our-mission/scales.png"
   inkscape:export-xdpi="9.6000004"
   inkscape:export-ydpi="9.6000004">
  <defs
     id="defs4" />
  <sodipodi:namedview
     id="base"
     pagecolor="#ffffff"
     bordercolor="#666666"
     borderopacity="1.0"
     inkscape:pageopacity="0.0"
     inkscape:pageshadow="2"
     inkscape:zoom="0.35"
     inkscape:cx="632.28702"
     inkscape:cy="1060"
     inkscape:document-units="px"
     inkscape:current-layer="layer1"
     showgrid="false"
     inkscape:window-width="1600"
     inkscape:window-height="834"
     inkscape:window-x="0"
     inkscape:window-y="27"
     inkscape:window-maximized="1" />
  <metadata
     id="metadata7">
    <rdf:RDF>
      <cc:Work
         rdf:about="">
        <dc:format>image/svg+xml</dc:format>
        <dc:type
           rdf:resource="http://purl.org/dc/dcmitype/StillImage" />
        <dc:title></dc:title>
      </cc:Work>
    </rdf:RDF>
  </metadata>
  <g
     inkscape:label="Layer 1"
     inkscape:groupmode="layer"
     id="layer1"
     transform="translate(-294.14155,855.00644)">
    <g
       id="g3030"
       transform="matrix(0.88093826,0,0,0.88093826,146.69535,-235.06566)">
      <path
         style="fill:#d1e8f6"
         d="m 947.80953,1020.2669 c -1.24998,-1.2499 -0.75884,-30.84107 0.53333,-32.13327 1.51748,-1.5175 558.39704,-1.739 560.80004,-0.2231 1.9165,1.209 2.8043,27.65167 1.0391,30.94997 l -1.1095,2.0731 -280.2982,0 c -154.1639,0 -280.59811,-0.3 -280.96477,-0.6667 z m 233.54297,-45.52357 c -0.8409,-0.841 -1.2096,-5.8806 -1.2096,-16.5345 l 0,-15.3247 2.5651,-0.9753 c 4.081,-1.5515 90.6226,-1.2896 92.7704,0.2809 1.521,1.1121 1.686,3.0882 1.4411,17.25 l -0.2766,15.9939 -47.0404,0.2597 c -35.7542,0.1973 -47.3306,-0.031 -48.25,-0.95 z m 82.7904,-16.3097 0,-9.5 -7,0 -7,0 0,9.5 0,9.5 7,0 7,0 0,-9.5 z m -69.8,-21.7 c -1.9167,-1.9167 -1.6104,-20.2467 0.3714,-22.2286 1.3351,-1.3351 4.9437,-1.5714 24,-1.5714 27.4619,0 26.4286,-0.4913 26.4286,12.5657 0,13.3839 1.973,12.4343 -25.8352,12.4343 -17.1504,0 -24.0988,-0.334 -24.9648,-1.2 z m 61,0 c -1.9167,-1.9167 -1.6104,-20.2467 0.3714,-22.2286 1.8268,-1.8268 3.7813,-1.9882 6.4943,-0.5362 1.73,0.9259 1.9343,2.1816 1.9343,11.893 0,8.9784 -0.2738,10.9629 -1.5818,11.4648 -2.5487,0.978 -5.9245,0.7007 -7.2182,-0.593 z m -44.95,-28.4623 c -0.9976,-0.4025 -1.25,-96.41632 -1.25,-475.38587 0,-468.47795 0.026,-474.89544 1.9342,-475.91667 1.1091,-0.59356 8.971,-1.03518 18.4286,-1.03518 13.6615,0 16.7642,0.26989 18.0657,1.57143 1.4242,1.42415 1.5715,45.98598 1.5715,475.46481 0,467.50108 -0.026,473.90738 -1.9343,474.92858 -1.9334,1.0347 -34.3615,1.3632 -36.8157,0.3729 z M 496.14286,752.89301 c -30.89823,-3.2263 -48.48077,-6.2097 -70.58702,-11.9771 -54.36881,-14.1847 -95.1317,-37.2887 -119.50701,-67.73538 -3.19371,-3.9892 -7.17937,-10.12915 -8.85701,-13.64434 l -3.05027,-6.39126 0.30186,-36.35566 c 0.19715,-23.74406 0.7053,-37.76693 1.46486,-40.42394 0.63966,-2.23756 7.73431,-20.91256 15.76591,-41.5 8.0316,-20.58745 15.69771,-40.24422 17.0358,-43.68172 1.33808,-3.4375 3.52771,-9.0625 4.86583,-12.5 6.68523,-17.17369 40.21168,-103.37637 43.17077,-111 5.2069,-13.41479 8.71761,-22.43322 28.90412,-74.25 10.28478,-26.4 20.26717,-52.05 22.1831,-57 1.91594,-4.95 4.53924,-11.7 5.82956,-15 1.29033,-3.3 11.17966,-28.725 21.9763,-56.5 10.79663,-27.775 22.28161,-57.25 25.52217,-65.5 3.24056,-8.25 8.32823,-21.3 11.30592,-29 24.36395,-63.00248 34.34309,-87.8191 35.49046,-88.25938 0.73685,-0.28276 1.91111,0.10993 2.60946,0.87264 0.69835,0.76271 12.64228,30.63674 26.54207,66.38674 13.89978,35.75 26.76086,68.825 28.58016,73.5 17.76051,45.63849 41.32535,106.21317 44.05668,113.25 1.86795,4.8125 4.97128,12.8 6.89628,17.75 1.925,4.95 5.03068,12.9375 6.90151,17.75 1.87083,4.8125 11.81163,30.35 22.09066,56.75 10.27902,26.4 19.73895,50.7 21.02205,54 1.2831,3.3 10.74084,27.6 21.01719,54 10.27636,26.4 20.16679,51.825 21.97875,56.5 8.88003,22.91125 19.46626,50.09602 33.3321,85.59474 6.6801,17.10211 12.42131,32.47311 12.75825,34.15779 0.4986,2.49302 0.2006,3.28355 -1.60131,4.2479 -1.61904,0.86648 -1.91637,1.4824 -1.10656,2.29221 3.32374,3.32374 -0.71328,23.48466 -7.3079,36.49568 -14.63216,28.86889 -45.90128,53.92808 -89.43557,71.67398 -29.32418,11.9534 -59.39571,19.34 -98.14917,24.1088 -15.58471,1.9178 -68.3705,2.8115 -82,1.3883 z m 116.99785,-136.7094 c -10e-4,-0.9625 -1.14102,-8.5 -2.53297,-16.75 -2.66306,-15.78378 -11.97399,-70.90362 -22.88889,-135.5 -3.57795,-21.175 -9.19958,-54.475 -12.4925,-74 -7.97086,-47.26223 -18.80157,-111.40105 -26.17386,-155 -8.87909,-52.51001 -15.99941,-94.75357 -23.34474,-138.5 -7.44184,-44.3212 -7.39893,-44.10372 -8.4628,-42.89464 -0.43296,0.49205 -3.60946,8.31964 -7.05887,17.39464 -3.44942,9.075 -8.65787,22.575 -11.57435,30 -2.91648,7.425 -13.69339,35.1 -23.94869,61.5 -10.25531,26.4 -19.70008,50.7 -20.98839,54 -13.55451,34.71996 -57.98648,148.92379 -75.47735,194 -12.16471,31.35 -22.7647,58.575 -23.55554,60.5 -0.79084,1.925 -12.2954,31.4 -25.56568,65.5 -13.27028,34.1 -25.659,65.92781 -27.5305,70.72847 -1.8715,4.80066 -3.40272,9.18816 -3.40272,9.75 0,0.69105 50.95367,1.02153 157.5,1.02153 149.33415,0 157.49989,-0.0907 157.49785,-1.75 z m 146.71741,0.5 c -0.2743,-0.6875 -11.36118,-29.15 -24.63751,-63.25 -13.27634,-34.1 -24.78512,-63.575 -25.57507,-65.5 -0.78995,-1.925 -9.80992,-25.1 -20.04439,-51.5 -10.23447,-26.4 -19.66241,-50.7 -20.95098,-54 -1.28857,-3.3 -9.14176,-23.55 -17.45153,-45 -8.30977,-21.45 -15.58967,-40.125 -16.17755,-41.5 -0.58789,-1.375 -5.79225,-14.65 -11.56525,-29.5 -5.773,-14.85 -11.54922,-29.7 -12.83603,-33 -2.12896,-5.45967 -29.13595,-74.99794 -35.14801,-90.5 -1.38647,-3.575 -4.47,-11.45 -6.85229,-17.5 -2.38228,-6.05 -5.97849,-15.275 -7.99157,-20.5 -11.26076,-29.22765 -24.81797,-63.69839 -25.56424,-65 -1.50002,-2.61625 -2.25822,-7.34866 15.70086,98 3.04721,17.875 6.14129,36.325 6.87574,41 0.73446,4.675 4.09088,24.7 7.45872,44.5 8.822,51.86576 15.91942,93.79278 24.46099,144.5 4.12279,24.475 9.97031,59.125 12.99449,77 13.9044,82.1847 21.00833,124.33727 24.68949,146.5 2.19248,13.2 4.17752,24.5625 4.41121,25.25 0.33399,0.98259 14.14584,1.25 64.56326,1.25 50.91002,0 64.03552,-0.25781 63.63966,-1.25 z m 1133.78478,136.2437 c -32.8943,-3.5072 -48.2376,-6.0552 -69.7616,-11.585 -71.9633,-18.4885 -123.1522,-54.91349 -136.8662,-97.3912 -2.0461,-6.33764 -3.1966,-12.17167 -3.4435,-17.46156 -0.2958,-6.33732 -0.7306,-8.14034 -2.1498,-8.91453 -2.6335,-1.4367 -3.3619,-2.87325 -2.7579,-5.43884 0.5113,-2.17173 4.0449,-11.45523 13.9699,-36.70257 2.3784,-6.05 14.4714,-37.1 26.8733,-69 18.3945,-47.31355 54.7338,-140.76626 66.2994,-170.5 1.3906,-3.575 4.4634,-11.45 6.8286,-17.5 2.3651,-6.05 5.4355,-13.925 6.823,-17.5 1.3876,-3.575 9.7957,-25.175 18.6848,-48 8.8891,-22.825 17.2907,-44.425 18.6701,-48 1.3795,-3.575 4.0109,-10.325 5.8475,-15 4.3567,-11.08964 37.6875,-96.85477 42.1662,-108.5 1.9038,-4.95 5.4098,-13.95 7.7912,-20 2.3813,-6.05 9.8352,-25.175 16.5641,-42.5 13.8459,-35.64932 14.4484,-37 16.5028,-37 1.7093,0 2.7534,2.12351 8.8503,18 2.4289,6.325 12.831,33.1 23.1157,59.5 10.2848,26.4 20.2671,52.05 22.183,57 1.916,4.95 4.5411,11.7 5.8337,15 1.2926,3.3 9.6166,24.675 18.4979,47.5 8.8813,22.825 18.7879,48.25 22.0146,56.5 3.2267,8.25 13.8065,35.475 23.5106,60.5 9.704,25.025 20.1118,51.8 23.1284,59.5 3.0165,7.7 7.2334,18.5 9.3708,24 2.1374,5.5 15.1822,39.025 28.9886,74.5 13.8063,35.475 26.1523,67.2 27.4356,70.5 1.2832,3.3 8.2743,21.27399 15.5358,39.94219 7.2615,18.6682 13.8305,36.35266 14.5979,39.29879 1.7126,6.57507 1.7857,11.4685 0.1952,13.05902 -0.9333,0.93333 -0.9333,1.46667 0,2.4 1.599,1.59897 1.487,8.42906 -0.3082,18.8 -3.411,19.70599 -19.7104,42.69203 -42.4918,59.92388 -37.1068,28.06752 -86.9059,45.76012 -151,53.64722 -15.3939,1.8943 -68.3985,2.8195 -81.5,1.4226 z m -68.1322,-138.2437 c 0.3247,-1.7875 1.9727,-12.925 3.6622,-24.75 1.6895,-11.825 3.7157,-25.55 4.5026,-30.5 0.7869,-4.95 3.4856,-22.95 5.997,-40 6.8591,-46.56572 15.2515,-103.34784 24.9044,-168.5 10.5437,-71.16412 12.7654,-86.17419 14.5797,-98.5 1.0524,-7.15 7.1195,-48.1 13.4824,-91 6.3629,-42.9 11.4418,-78.87342 11.2864,-79.94093 -0.1554,-1.06751 -9.9015,22.78249 -21.658,53 -11.7565,30.21751 -23.7534,61.01593 -26.6596,68.44093 -10.1233,25.86303 -40.6277,104.30322 -50.0948,128.81549 -5.2435,13.57648 -10.3783,26.70951 -11.4107,29.18451 -1.9975,4.78899 -40.7315,104.3743 -44.5351,114.5 -1.2396,3.3 -8.8419,22.875 -16.894,43.5 -8.0521,20.625 -19.0757,48.975 -24.4969,63 -5.4212,14.025 -10.7899,27.8625 -11.9305,30.75 l -2.0737,5.25 65.3741,0 65.3741,0 0.5904,-3.25 z m 330.6322,2.17341 c 0,-0.9128 -9.846,-26.53643 -30.7109,-79.92341 -2.472,-6.325 -7.0974,-18.25 -10.2787,-26.5 -3.1813,-8.25 -13.07,-33.675 -21.9748,-56.5 -8.9049,-22.825 -17.3209,-44.425 -18.7023,-48 -1.3814,-3.575 -4.0081,-10.325 -5.8371,-15 -6.6806,-17.07574 -12.6359,-32.36295 -28.8277,-74 -20.1523,-51.82131 -60.6816,-155.97379 -68.6823,-176.5 -3.2157,-8.25 -13.5203,-34.71364 -22.8992,-58.80808 -9.379,-24.09445 -17.4469,-44.51259 -17.9288,-45.37365 -0.587,-1.04904 -1.5977,3.34165 -3.0634,13.30809 -2.1592,14.68299 -2.6386,17.8884 -7.5339,50.37364 -1.3675,9.075 -4.7513,32.025 -7.5195,51 -2.7683,18.975 -5.9357,40.35 -7.0387,47.5 -1.103,7.15 -3.8289,25.375 -6.0575,40.5 -6.5253,44.28411 -11.6265,79.00575 -14.9122,101.5 -1.687,11.55 -4.3905,29.775 -6.0076,40.5 -8.2558,54.75221 -35.0254,235.67345 -35.0254,236.71721 0,0.15553 70.425,0.28279 156.5,0.28279 111.0893,0 156.5,-0.31239 156.5,-1.07659 z M 483.86216,-34.2465 c -1.57878,-1.18624 -1.74888,-2.85564 -1.5,-14.72176 0.22419,-10.68926 0.58269,-13.53764 1.7807,-14.14788 0.825,-0.42024 7.6725,-1.26307 15.21666,-1.87295 34.42036,-2.7826 72.85525,-14.42077 130.78334,-39.60148 30.16829,-13.11384 35.26532,-15.56108 64.5,-30.96852 64.582,-34.0364 102.60751,-52.83391 134.5,-66.48866 137.03092,-58.66972 239.92834,-54.38446 330.00004,13.74319 l 4.5,3.40367 0.2655,-15.33275 c 0.2248,-12.97694 0.5231,-15.52481 1.9412,-16.58275 2.3824,-1.77737 124.3175,-1.82573 126.0933,-0.05 0.824,0.82399 1.2,5.78519 1.2,15.83333 0,8.04834 0.2822,14.91559 0.6272,15.26056 0.345,0.34497 3.1575,-1.30565 6.25,-3.66805 52.5519,-40.14458 115.5688,-58.35116 182.1228,-52.61811 59.7286,5.14511 121.1176,25.56327 209.2712,69.60415 23.3439,11.66245 38.5017,19.52049 94.334,48.90411 14.5735,7.66978 59.3608,27.02208 83.0905,35.90286 36.3703,13.61149 63.9512,20.62638 89.0876,22.65845 7.5442,0.60988 14.3917,1.45271 15.2167,1.87295 2.0231,1.03051 2.7407,26.45237 0.8123,28.77593 -2.7997,3.37341 -39.4184,-1.36009 -67.2892,-8.6981 -35.4609,-9.33636 -77.1099,-25.7591 -144.0231,-56.79024 -101.6135,-47.12347 -146.473,-64.70833 -198.1592,-77.6781 -54.0629,-13.56618 -104.749,-15.63003 -147.8408,-6.01981 -22.1272,4.93475 -37.0405,10.20211 -58.1868,20.55142 -19.8438,9.7119 -47.4087,28.4168 -61.5632,41.77541 l -3.75,3.53914 0,26.26186 c 0,24.94089 -0.097,26.31394 -1.9343,27.29706 -2.6706,1.42926 -122.4609,1.42926 -125.1315,0 -1.8374,-0.98337 -1.9342,-2.35801 -1.9342,-27.4597 l 0,-26.42451 -3.9682,-3.67145 c -2.1824,-2.0193 -8.479,-7.18284 -13.9923,-11.47453 -75.2153,-58.54929 -162.09701,-71.09458 -272.03144,-39.28001 -38.06442,11.01568 -78.59884,26.69415 -133.5081,51.64012 -29.12717,13.23284 -45.69504,20.82829 -55,25.21445 -5.5,2.59259 -13.375,6.18617 -17.5,7.98574 -4.125,1.79958 -13.8,6.04704 -21.5,9.4388 -36.39848,16.03312 -69.42396,28.10493 -96.02306,35.09932 -27.26472,7.16941 -62.70238,11.83382 -66.75764,8.78684 z m 789.28074,-106.31989 0,-60.5 -8.5,0 -8.5,0 0,60.5 0,60.5 8.5,0 8.5,0 0,-60.5 z m -78.7872,-97.68712 c -1.4631,-1.4631 -1.658,-19.5594 -0.235,-21.81288 0.8029,-1.27144 5.7986,-1.54586 32.7856,-1.80096 20.3392,-0.19226 32.825,0.0742 34.5703,0.73774 l 2.732,1.03871 -0.2829,11.26225 -0.2828,11.26226 -34.0372,0.26288 c -25.6377,0.198 -34.3364,-0.0364 -35.25,-0.95 z m 60.7872,-10.81288 0,-6 -5,0 -5,0 0,6 0,6 5,0 5,0 0,-6 z m -73.7904,-17.19034 c -0.8406,-0.84066 -1.2096,-5.87097 -1.2096,-16.49061 0,-15.01832 0.039,-15.29034 2.25,-15.82742 1.2375,-0.30056 22.95,-0.42163 48.25,-0.26905 l 46,0.27742 0,16.5 0,16.5 -47.0404,0.25966 c -35.7542,0.19736 -47.3305,-0.0306 -48.25,-0.95 z m 77.5779,-16.05966 -0.2875,-9.25 -7,0 -7,0 -0.2876,9.25 -0.2875,9.25 7.5751,0 7.575,0 -0.2875,-9.25 z"
         id="path3010"
         inkscape:connector-curvature="0" />
      <path
         style="fill:#a4d2ef"
         d="m 949.39286,1020.2722 c -0.92356,-0.3733 -1.25,-4.5034 -1.25,-15.8149 0,-13.03797 0.23472,-15.39977 1.58179,-15.91667 2.4123,-0.9257 556.73395,-0.6933 558.19525,0.234 0.9661,0.6131 1.2095,4.5652 1,16.23467 l -0.277,15.4243 -279,0.172 c -153.45,0.095 -279.56254,-0.055 -280.25004,-0.3334 z m 232.42644,-45.99547 c -0.372,-0.372 -0.6764,-7.3356 -0.6764,-15.4746 0,-13.607 0.1557,-14.8815 1.9342,-15.8333 3.0167,-1.6145 89.1774,-1.4053 91.4028,0.2219 1.5162,1.1087 1.6864,3.0278 1.4411,16.25 l -0.2781,14.9929 -46.5736,0.2598 c -25.6155,0.1429 -46.878,-0.045 -47.25,-0.4167 z m 83.1085,-15.5931 -0.2849,-10.25 -7.5,0 -7.5,0 -0.285,10.25 -0.285,10.25 8.07,0 8.0699,0 -0.285,-10.25 z m -69.5849,-22.95 c -0.7607,-0.7606 -1.2,-4.5922 -1.2,-10.4648 0,-8.1364 0.2356,-9.3909 1.9342,-10.3 2.4493,-1.3108 43.9928,-1.3668 46.0564,-0.062 1.8641,1.1785 2.678,15.2221 1.1173,19.2769 l -1.0584,2.75 -22.8248,0 c -16.4192,0 -23.1615,-0.3368 -24.0247,-1.2 z m 61.0429,0.043 c -0.8128,-0.8129 -1.2429,-4.4687 -1.2429,-10.5644 0,-8.9427 0.1004,-9.3672 2.4704,-10.4471 1.8986,-0.8651 2.832,-0.8254 4.0333,0.1716 1.2662,1.0508 1.5091,3.2146 1.2796,11.397 -0.2791,9.9493 -0.3207,10.1043 -2.7904,10.3929 -1.3788,0.1611 -3.0663,-0.2664 -3.75,-0.95 z m -44.9929,-28.5053 c -0.9976,-0.4025 -1.25,-96.30202 -1.25,-474.81406 0,-431.58591 0.1424,-474.36436 1.5818,-474.91667 2.7127,-1.04097 32.4282,-0.67199 34.4839,0.42819 1.9082,1.02122 1.9343,7.42041 1.9343,474.3 0,366.76152 -0.2701,473.53484 -1.2,474.46484 -0.8435,0.8434 -6.1175,1.1765 -17.75,1.1211 -9.1025,-0.043 -17.1125,-0.306 -17.8,-0.5834 z M 491.94609,751.42461 c -71.20863,-6.7713 -131.23104,-28.7653 -168.97725,-61.91831 -12.46027,-10.94401 -24.51905,-26.3671 -26.84208,-34.33083 -0.65223,-2.23593 -0.96924,-10.18115 -0.78771,-19.74186 l 0.30381,-16 159.25,-0.25307 159.25,-0.25306 0,-2.45111 c 0,-1.34811 -2.00447,-14.28423 -4.45437,-28.74694 -2.4499,-14.4627 -7.8313,-46.32082 -11.95867,-70.79582 -17.58164,-104.25794 -21.91467,-129.91101 -26.15932,-154.8723 -2.46652,-14.50476 -7.82463,-46.22976 -11.90691,-70.5 -4.08228,-24.27023 -9.71483,-57.6277 -12.51677,-74.1277 -9.80274,-57.72599 -22.17599,-131.15404 -25.09705,-148.93639 -2.86464,-17.43887 -3.34904,-19.45482 -4.41785,-18.38601 -0.60288,0.60289 -5.65274,13.49732 -55.15035,140.8224 -20.6329,53.075 -39.46449,101.45 -41.84799,107.5 -2.38349,6.05 -7.46954,19.1 -11.30232,29 -9.94234,25.68087 -85.28692,219.35334 -91.61678,235.5 -2.91076,7.425 -8.59139,22.05 -12.6236,32.5 -4.03221,10.45 -7.94456,19.9 -8.69411,21 -1.16701,1.71265 -1.31636,-0.87349 -1.03948,-18 l 0.32334,-20 5.33015,-13.5 c 2.93158,-7.425 6.86059,-17.4375 8.73112,-22.25 1.87053,-4.8125 4.93271,-12.6875 6.80485,-17.5 5.45493,-14.02235 42.50118,-109.16182 45.07177,-115.75 1.2876,-3.3 13.8828,-35.7 27.98933,-72 14.10653,-36.3 27.16708,-69.825 29.02344,-74.5 5.11506,-12.88161 47.2289,-121.08911 51.56837,-132.5 4.93419,-12.97476 39.76118,-102.35355 49.60209,-127.29712 5.73554,-14.53774 7.99787,-19.22305 9.17275,-18.99679 1.67122,0.32185 4.2129,6.42827 24.68,59.29391 2.31688,5.98441 44.58039,114.61299 49.02211,126 1.28723,3.3 10.74984,27.6 21.02803,54 10.2782,26.4 21.58947,55.425 25.13617,64.5 3.54669,9.075 7.71792,19.875 9.2694,24 3.29046,8.74858 43.40774,111.82781 45.53508,117 0.79176,1.925 9.83373,25.1 20.09327,51.5 10.25954,26.4 21.55555,55.425 25.10225,64.5 3.54669,9.075 7.73509,19.875 9.30754,24 1.57246,4.125 6.06426,15.77344 9.98178,25.88543 3.91752,10.11199 6.88454,19.00624 6.59337,19.76501 -0.29116,0.75877 -1.77842,1.87172 -3.30501,2.47322 l -2.77563,1.09365 2.25,1.04416 c 1.94238,0.9014 2.25,1.81216 2.25,6.66144 0,12.22552 -7.50264,30.98555 -17.92189,44.81294 -30.75568,40.81585 -95.0199,69.78175 -177.07811,79.81465 -18.63983,2.279 -66.61575,2.8024 -86.19677,0.9405 z M 761.14286,618.06696 c 0,-0.47665 -0.88649,-3.06415 -1.96999,-5.75 -2.07844,-5.15219 -45.79563,-117.48856 -51.71332,-132.88335 -1.90276,-4.95 -4.51084,-11.7 -5.79573,-15 -1.28489,-3.3 -12.75267,-32.775 -25.48396,-65.5 -12.73128,-32.725 -24.65551,-63.325 -26.49827,-68 -4.12068,-10.45395 -4.15239,-10.53545 -27.03611,-69.5 -10.24565,-26.4 -19.68455,-50.7 -20.97534,-54 -1.29078,-3.3 -14.33831,-36.825 -28.99451,-74.5 -14.6562,-37.675 -28.15443,-72.325 -29.99608,-77 -1.84164,-4.675 -4.57209,-11.65 -6.06766,-15.5 -2.81582,-7.2487 -4.47421,-10.01745 -4.46231,-7.45 0.004,0.7975 2.93993,18.775 6.52497,39.95 3.58503,21.175 11.72187,69.325 18.08186,107 11.53273,68.31707 17.66466,104.62873 35.88478,212.5 19.34001,114.50152 26.62473,157.682 32.05378,190 3.04899,18.15 5.77741,33.7875 6.06314,34.75 0.48787,1.64337 4.47613,1.75 65.45214,1.75 35.96087,0 64.93261,-0.38668 64.93261,-0.86665 z M 1894.1429,751.92381 c -64.8098,-5.8868 -118.3915,-22.5953 -156.7706,-48.8863 -29.0712,-19.91477 -46.4049,-42.79221 -51.7788,-68.33893 -1.6925,-8.04558 -1.8614,-13.39306 -0.4506,-14.26497 1.7779,-1.09877 1.0688,-2.28038 -2.0132,-3.35475 -1.6572,-0.57772 -3.2579,-1.68803 -3.5569,-2.46734 -0.2991,-0.77931 8.721,-25.21315 20.0446,-54.29742 11.3236,-29.08427 22.3346,-57.38049 24.4689,-62.88049 2.1344,-5.5 12.7357,-32.725 23.5586,-60.5 10.8229,-27.775 21.2518,-54.55 23.1753,-59.5 1.9234,-4.95 4.5529,-11.7 5.8432,-15 6.4525,-16.50233 41.9353,-107.7294 46.4795,-119.5 2.8665,-7.425 13.9822,-36 24.7015,-63.5 10.7193,-27.5 21.0609,-54.05 22.9813,-59 1.9204,-4.95 4.5474,-11.7 5.8377,-15 1.2903,-3.3 11.178,-28.725 21.9725,-56.5 26.1927,-67.39504 24.985,-64.461 26.6677,-64.78899 1.8435,-0.35931 1.7745,-0.51263 14.5263,32.28899 5.773,14.85 11.55,29.7 12.8376,33 1.2877,3.3 10.7371,27.6 20.9986,54 10.2616,26.4 21.2954,54.75 24.5197,63 3.2243,8.25 16.2598,41.775 28.9679,74.5 12.708,32.725 24.1923,62.2 25.5207,65.5 2.93,7.27889 39.3705,100.95145 47.5507,122.23199 3.2203,8.37759 15.733,40.55259 27.8058,71.5 12.0729,30.9474 26.07,66.84301 31.1047,79.76801 10.0171,25.71577 12.077,34.76614 8.5069,37.37662 -1.6186,1.18359 -1.6313,1.35885 -0.1399,1.93117 1.2597,0.48339 1.639,1.97092 1.6345,6.41083 -0.02,19.67733 -9.249,38.62774 -27.9369,57.36273 -35.2483,35.33695 -91.0399,58.00375 -166.0573,67.46505 -14.6142,1.8431 -66.4345,2.7668 -81,1.4438 z M 1825.636,617.9448 c 0.3361,-0.54385 2.6224,-14.60635 5.0807,-31.25 2.4582,-16.64365 6.469,-43.76119 8.9127,-60.26119 4.4056,-29.74582 10.4701,-70.7128 17.024,-115 12.2482,-82.7648 14.4651,-97.71286 25.065,-169 2.4534,-16.5 5.7834,-39 7.4001,-50 1.6166,-11 6.1084,-41.31066 9.9819,-67.35703 7.1141,-47.83859 7.7697,-53.32753 6.162,-51.59297 -0.4843,0.5225 -12.1478,29.975 -25.9188,65.45 -13.771,35.475 -31.8505,82.05 -40.1766,103.5 -8.3261,21.45 -16.6616,42.825 -18.5234,47.5 -1.8618,4.675 -13.3504,34.15 -25.5302,65.5 -12.1798,31.35 -31.5122,81.075 -42.9608,110.5 -52.697,135.44033 -59.0097,151.73815 -59.0097,152.34902 0,1.1032 131.8102,0.76711 132.4931,-0.33783 z m 332.5069,0.52056 c 0,-0.25754 -1.9784,-5.54504 -4.3964,-11.75 -2.418,-6.20496 -12.8022,-32.88175 -23.0761,-59.28175 -10.2739,-26.4 -20.1714,-51.825 -21.9945,-56.5 -1.8231,-4.675 -4.4513,-11.425 -5.8405,-15 -6.6861,-17.20683 -56.1201,-144.24228 -58.1758,-149.5 -8.4978,-21.73461 -60.2075,-154.60933 -86.0046,-221 -6.4113,-16.5 -13.5969,-34.95 -15.9678,-41 -2.3709,-6.05 -6.2132,-15.87767 -8.5383,-21.83927 -2.3251,-5.96159 -4.5726,-10.46159 -4.9944,-10 -0.4218,0.4616 -2.8674,15.23927 -5.4346,32.83927 -4.6003,31.53802 -8.5692,58.45317 -16.5892,112.5 -2.2444,15.125 -6.075,41 -8.5126,57.5 -2.4375,16.5 -6.4748,43.725 -8.9716,60.5 -2.4969,16.775 -5.8662,39.5 -7.4874,50.5 -6.7517,45.81191 -12.2247,82.78378 -16.5053,111.5 -2.5006,16.775 -6.3288,42.65 -8.5072,57.5 -2.1784,14.85 -6.4446,43.65 -9.4803,64 -3.0358,20.35 -5.5205,37.5625 -5.5215,38.25 0,0.99473 32.2638,1.25 157.9981,1.25 86.9,0 158,-0.21071 158,-0.46825 z M 484.34286,-35.26639 c -1.65891,-1.65891 -1.65891,-24.94109 0,-26.6 0.66,-0.66 3.26094,-1.2 5.77986,-1.2 6.33557,0 27.5818,-2.70371 35.75618,-4.55019 30.27062,-6.83772 65.54401,-18.68922 95.76396,-32.17571 5.5,-2.45453 11.575,-5.05898 13.5,-5.78766 9.10246,-3.4456 33.70883,-15.26754 55,-26.42431 62.91478,-32.96793 79.29554,-41.3385 101.5,-51.86652 13.2,-6.25864 26.025,-12.19704 28.5,-13.19644 2.475,-0.9994 9.45,-3.91005 15.5,-6.46812 129.16808,-54.61506 228.93934,-51.12469 315.91104,11.05173 6.4756,4.62947 12.1823,8.41722 12.6814,8.41722 0.5039,0 0.9076,-6.80589 0.9076,-15.3 0,-10.56667 0.3712,-15.67124 1.2,-16.5 1.7336,-1.73359 122.8664,-1.73359 124.6,0 0.8276,0.82761 1.2,5.8963 1.2,16.33333 0,8.32334 0.2535,15.3869 0.5634,15.6968 0.3099,0.30991 6.0475,-3.35457 12.7501,-8.14328 45.7116,-32.65899 89.6579,-47.87755 143.6865,-49.75852 44.2716,-1.54129 91.8678,7.57733 147.7364,28.30377 40.5556,15.04557 74.8213,31.23383 153.7636,72.64303 23.1,12.11711 46.95,24.24393 53,26.94848 79.8788,35.7085 121.084,48.37769 166,51.03936 l 4,0.23703 0.278,13.72391 0.2781,13.72391 -2.4579,0.61688 c -3.309,0.83052 -25.4082,-1.23335 -38.5558,-3.60076 -39.74,-7.15583 -81.623,-22.30677 -157.5424,-56.99016 -72.2401,-33.00253 -81.0639,-36.97311 -100,-44.99836 -140.8113,-59.67694 -236.5007,-66.00798 -322.5,-21.3374 -19.0752,9.90823 -43.9771,27.23936 -57.75,40.19264 l -3.25,3.0566 0,25.85637 c 0,18.77718 -0.3286,26.18492 -1.2,27.05637 -1.7336,1.7336 -122.8664,1.7336 -124.6,0 -0.8724,-0.87235 -1.2,-8.36339 -1.2,-27.43525 l 0,-26.23526 -10.25,-8.59948 c -27.2337,-22.8483 -62.6835,-42.43817 -93.9772,-51.93259 -46.1491,-14.00148 -99.44605,-14.55231 -157.27284,-1.62544 -52.29469,11.6902 -98.64921,29.46318 -208,79.75015 -100.74278,46.32842 -146.11179,61.82349 -194,66.25766 -14.03452,1.29952 -15.83945,1.28076 -17.3,-0.17979 z m 789.80004,-105.3 0,-61.5 -9.393,0 c -7.6428,0 -9.5062,0.29475 -10,1.58179 -0.793,2.06652 -0.793,117.7699 0,119.83642 0.4938,1.28704 2.3572,1.58179 10,1.58179 l 9.393,0 0,-61.5 z m -79.5227,-99.73672 c -0.3121,-1.24481 -0.4347,-6.08828 -0.2724,-10.76328 l 0.2951,-8.5 34,0 34,0 0,10.5 0,10.5 -33.7277,0.26327 -33.7276,0.26328 -0.5674,-2.26328 z m 61.3195,-9.06458 0.2969,-6.8013 -5.7969,0.3013 -5.7968,0.3013 -0.3068,5.3808 c -0.4462,7.8253 -0.1026,8.27552 6.0456,7.92185 l 5.2612,-0.30265 0.2968,-6.8013 z m -74.3531,-17.98478 c -0.2756,-0.71824 -0.3757,-7.8102 -0.2224,-15.75991 l 0.2787,-14.45401 47,0 47,0 0,15.5 0,15.5 -46.7776,0.25991 c -37.7525,0.20976 -46.8743,0.008 -47.2787,-1.04599 z m 78.3412,-14.96392 -0.2849,-10.25 -5.9584,-0.30612 c -10.6037,-0.54479 -10.5416,-0.60463 -10.5416,10.1585 0,5.12286 0.3,9.61429 0.6666,9.98095 0.3667,0.36667 4.2074,0.66667 8.535,0.66667 l 7.8683,0 -0.285,-10.25 z"
         id="path3008"
         inkscape:connector-curvature="0" />
      <path
         style="fill:#7dc0e9"
         d="m 948.77361,1017.6854 c -1.01395,-3.7836 -0.69763,-24.75827 0.40443,-26.81747 1.01966,-1.9053 5.21891,-1.9343 279.98096,-1.9343 l 278.9458,0 0.5575,2.25 c 0.3067,1.2375 0.4278,8.1 0.2691,15.24997 l -0.2885,13 -279.6329,0.2518 -279.63296,0.2517 -0.60343,-2.2517 z m 234.59149,-43.59327 c -0.9648,-0.6122 -1.2097,-4.4658 -1,-15.7347 l 0.2778,-14.9238 45.5,-0.2624 c 41.8871,-0.2416 45.5992,-0.1272 46.75,1.4411 1.9879,2.7092 1.7196,26.7088 -0.3215,28.7499 -1.3816,1.3816 -6.9075,1.5696 -45.75,1.5561 -24.2982,-0.01 -44.7535,-0.3802 -45.4563,-0.8262 z m 82.562,-15.4479 0.2842,-10.7895 -8.7842,0.2895 -8.7842,0.2894 -0.2899,9.425 c -0.1594,5.1837 -0.054,10.0395 0.2343,10.7907 0.3975,1.0359 2.5201,1.2955 8.7898,1.075 l 8.2658,-0.2907 0.2842,-10.7894 z m -70.3499,-24.0213 c -0.2845,-0.7412 -0.386,-5.362 -0.2258,-10.2684 l 0.2915,-8.9209 22.3741,-0.2695 c 15.9827,-0.1925 22.7772,0.065 23.7855,0.902 1.0681,0.8864 1.3419,3.3844 1.1259,10.2694 l -0.2855,9.0981 -23.2743,0.2685 c -18.7833,0.2167 -23.3741,0.01 -23.7914,-1.0792 z m 61.2323,0.644 c -0.3666,-0.3666 -0.6666,-4.8808 -0.6666,-10.0314 0,-7.7475 0.2825,-9.4731 1.6359,-9.9924 3.4557,-1.3261 4.8497,1.0455 5.1627,8.7835 0.3896,9.6324 -0.2124,11.907 -3.151,11.907 -1.2729,0 -2.6143,-0.3 -2.981,-0.6667 z m -46.051,-29.8925 c -0.3386,-0.8824 -0.6156,-213.91249 -0.6156,-473.40016 0,-400.2898 0.2095,-471.96964 1.3822,-472.94293 0.9499,-0.78831 6.6587,-1.06122 18.25,-0.87244 l 16.8678,0.27471 0,474 0,474.00002 -17.6344,0.2726 c -15.4237,0.2384 -17.7115,0.072 -18.25,-1.3318 z M 499.14286,751.34311 c -1.925,-0.2146 -8.45,-0.8871 -14.5,-1.4945 -78.20954,-7.852 -147.83798,-38.659 -178.0316,-78.76985 -11.13195,-14.78826 -11.4684,-15.8104 -11.4684,-34.84149 l 0,-16.30366 159.53138,0 c 137.89987,0 159.60629,-0.19518 160.08375,-1.43943 0.50441,-1.31446 -2.14512,-17.79315 -16.57061,-103.06057 -2.69841,-15.95 -8.74581,-51.725 -13.43866,-79.5 -4.69286,-27.775 -11.0035,-65.125 -14.02366,-83 -3.02016,-17.875 -8.90738,-52.75 -13.08273,-77.5 -4.17534,-24.75 -9.58641,-56.76953 -12.02462,-71.15451 -2.4382,-14.38499 -8.95265,-53.08499 -14.47657,-86 -5.52391,-32.91502 -10.51521,-62.20799 -11.09178,-65.09549 -1.01672,-5.09188 -2.18697,-6.56744 -3.17225,-3.99985 -0.26385,0.68758 -6.43573,16.55008 -13.71529,35.25 -7.27956,18.69992 -14.79923,38.04985 -16.71037,42.99985 -6.19284,16.03989 -36.41532,93.68009 -40.87266,105 -2.38225,6.05 -16.75312,42.95 -31.93527,82 -15.18214,39.05 -38.20158,98.225 -51.1543,131.5 -12.95272,33.275 -25.21041,64.775 -27.23932,70 -2.02891,5.225 -11.77051,30.25986 -21.64799,55.63302 l -17.95905,46.13302 -0.27265,-17.27886 -0.27265,-17.27886 3.41741,-9.35416 c 1.87958,-5.14479 7.46209,-19.70416 12.40559,-32.35416 11.00417,-28.15876 37.10248,-95.2092 66.36439,-170.5 12.07736,-31.075 23.04913,-59.2 24.38171,-62.5 3.03537,-7.51678 38.86794,-99.64433 49.97946,-128.5 4.55348,-11.825 19.07125,-49.175 32.26171,-83 13.19046,-33.825 28.40443,-72.87817 33.80881,-86.78481 6.72561,-17.30643 10.2552,-25.19495 11.18585,-25 1.13618,0.23799 11.30181,25.48451 38.16552,94.78481 13.5332,34.91157 49.88378,128.23795 52.58244,135 1.86575,4.675 8.09719,20.65 13.84765,35.5 20.01508,51.68696 72.39485,186.32991 86.16953,221.5 28.32501,72.32062 54.47523,140.24911 54.47523,141.50628 0,0.87852 -1.57314,2.25307 -3.5,3.05817 -4.05076,1.69251 -4.5923,3.43555 -1.06739,3.43555 3.25052,0 3.86502,2.37743 2.62327,10.14899 -5.89418,36.88892 -36.87081,69.2898 -88.06454,92.11361 -29.57591,13.1858 -61.85568,21.7361 -103.36129,27.3782 -10.5232,1.4305 -72.59723,2.7754 -81.63005,1.7687 z m 263,-132.35056 c 0,-0.92937 -6.83177,-18.6378 -44.19588,-114.55894 -10.49782,-26.95 -21.01485,-53.95 -23.37118,-60 -2.35632,-6.05 -16.26372,-41.825 -30.90532,-79.5 -14.64161,-37.675 -27.71397,-71.2 -29.04968,-74.5 -1.33572,-3.3 -5.98328,-15.225 -10.3279,-26.5 -4.34463,-11.275 -15.87322,-40.975 -25.61908,-66 -9.74587,-25.025 -27.59718,-70.925 -39.66959,-102 -25.20035,-64.86704 -25.71863,-66.15831 -27.09265,-67.5 -1.65332,-1.61442 -0.57624,5.50569 12.63889,83.55031 6.84039,40.39733 18.1354,107.19969 25.10001,148.44969 6.96462,41.25 18.25237,108.075 25.08389,148.5 6.83152,40.425 16.24928,96.225 20.92837,124 11.71785,69.55711 14.44059,85.12703 15.06221,86.13282 0.74379,1.20348 131.41791,1.13003 131.41791,-0.0739 z M 1896.1429,751.28321 c -31.1131,-2.936 -49.5468,-5.9447 -72.2158,-11.7866 -74.6089,-19.227 -125.4841,-56.87988 -136.8383,-101.2745 -2.1,-8.21099 -2.5564,-16.79317 -0.9459,-17.7885 1.8557,-1.14686 1.0179,-2.46568 -2.5,-3.93555 -1.925,-0.80432 -3.5,-2.12871 -3.5,-2.94309 0,-0.81438 4.2849,-12.42484 9.522,-25.80102 5.2371,-13.37619 10.8322,-27.69534 12.4335,-31.82034 6.8771,-17.71543 59.7376,-153.59289 77.2226,-198.5 18.1653,-46.65439 23.1596,-59.4931 31.1206,-80 3.3468,-8.62116 38.3262,-98.55698 43.1721,-111 1.2851,-3.3 12.326,-31.65 24.5352,-63 22.9321,-58.88327 26.7587,-68.72103 32.6735,-84 10.9926,-28.39601 13.6001,-34.5 14.7379,-34.5 0.7356,0 8.6604,19.03717 19.0448,45.75 9.7818,25.1625 19.7281,50.7 22.1029,56.75 2.3748,6.05 14.7255,37.775 27.446,70.5 12.7205,32.725 24.1807,62.2 25.467,65.5 1.2864,3.3 12.3135,31.65 24.5046,63 12.1912,31.35 23.657,60.825 25.4796,65.5 1.8227,4.675 14.437,37.075 28.0319,72 13.595,34.925 33.0489,84.875 43.231,111 26.5817,68.20278 28.2748,72.81044 28.2748,76.94759 0,3.00972 -0.4835,3.95168 -2.5,4.87046 -3.2735,1.49152 -3.1946,3.18195 0.1485,3.18195 l 2.6486,0 -0.6217,8.25 c -0.7312,9.70332 -3.0217,17.58909 -7.9247,27.28292 -24.8004,49.03308 -100.2057,86.09998 -193.1613,94.95198 -14.2283,1.3549 -60.4754,1.9135 -71.5894,0.8647 z m -70.2364,-132.5996 c 0.5547,-0.6875 2.212,-9.575 3.6828,-19.75 1.4709,-10.175 3.9916,-27.275 5.6017,-38 2.8595,-19.04852 5.5096,-36.90671 19.8849,-134 7.3122,-49.38824 11.077,-74.84781 18.5577,-125.5 2.4369,-16.5 6.0397,-40.8 8.0063,-54 1.9666,-13.2 5.3366,-35.925 7.4889,-50.5 9.3776,-63.50203 12.2256,-82.66456 15.0314,-101.13589 3.1031,-20.42875 3.6874,-27.97284 2.0381,-26.31411 -0.5196,0.5225 -3.0278,6.35 -5.5739,12.95 -2.5461,6.6 -5.6901,14.7 -6.9866,18 -1.2966,3.3 -12.3295,31.65 -24.5177,63 -12.1881,31.35 -23.2142,59.7 -24.5024,63 -4.0012,10.24979 -48.4694,124.49566 -52.1572,134 -1.9206,4.95 -4.5476,11.7 -5.8378,15 -3.6402,9.31117 -39.261,100.89882 -43.1707,111 -1.916,4.95 -4.5407,11.7 -5.8328,15 -29.5775,75.54208 -45.364,116.87271 -44.9167,117.59638 0.3234,0.52335 28.2567,0.90362 66.377,0.90362 51.4503,0 66.0387,-0.27288 66.827,-1.25 z m 332.6008,0.46942 c 0.4288,-0.69383 -2.9889,-9.76802 -22.4928,-59.71942 -2.7918,-7.15 -6.1248,-15.7 -7.4067,-19 -1.282,-3.3 -10.7326,-27.6 -21.0016,-54 -10.2689,-26.4 -20.1991,-51.9375 -22.067,-56.75 -1.868,-4.8125 -4.925,-12.6875 -6.7934,-17.5 -1.8684,-4.8125 -12.8561,-33.05 -24.4171,-62.75 -46.1314,-118.51069 -65.5492,-168.41177 -68.875,-177 -1.9169,-4.95 -4.5441,-11.7 -5.8382,-15 -4.2056,-10.72396 -43.5521,-111.77243 -46.6643,-119.84188 -1.6635,-4.31304 -3.4007,-7.46304 -3.8604,-7 -0.9475,0.95436 -1.5333,4.42666 -6.9744,41.34188 -4.3275,29.36025 -10.0428,67.9701 -15.4687,104.5 -1.9607,13.2 -5.5591,37.5 -7.9965,54 -2.4374,16.5 -6.2641,42.375 -8.5038,57.5 -2.2397,15.125 -5.8364,39.425 -7.9926,54 -2.1562,14.575 -5.7536,38.875 -7.9942,54 -2.2405,15.125 -6.0711,41 -8.5123,57.5 -2.4413,16.5 -6.7206,45.3 -9.5098,64 -2.7891,18.7 -5.9698,40.3 -7.0683,48 -1.0985,7.7 -3.3394,22.69272 -4.9798,33.31717 -1.6404,10.62444 -2.7231,19.73694 -2.406,20.25 0.7052,1.14095 316.1182,1.29252 316.8229,0.15225 z M 484.63384,-36.22931 c -0.30677,-0.79943 -0.43024,-6.82732 -0.27437,-13.3953 l 0.28339,-11.94178 7.5,-0.7339 c 27.99282,-2.73921 47.14039,-6.85384 75.5,-16.22427 46.6928,-15.42796 84.85351,-32.58362 153,-68.7832 25.43149,-13.50927 79.04133,-39.89386 98.5,-48.47771 70.78728,-31.22658 126.88173,-45.28092 180.72769,-45.28092 16.78025,0 36.95405,1.66903 49.27235,4.07641 36.7503,7.18219 75.1815,24.60131 106.3042,48.18278 4.4043,3.33715 8.4229,5.67578 9.2244,5.36821 1.1272,-0.43255 1.477,-3.80282 1.6958,-16.33619 l 0.2756,-15.79121 62,0 62,0 0.2432,14 c 0.2638,15.18261 0.6961,18.5 2.4109,18.5 0.6138,0 4.9927,-2.85831 9.7309,-6.35181 29.4437,-21.7088 58.6057,-35.86479 90.615,-43.98685 20.9862,-5.32505 32.2722,-6.75631 58,-7.35546 32.2242,-0.75043 53.4722,1.7154 88.1675,10.23182 52.7046,12.93707 112.5952,38.32587 200.3325,84.92485 48.9435,25.99483 57.8977,30.35298 94.9165,46.19724 53.5754,22.93061 92.6158,34.13604 128.5835,36.90625 4.95,0.38125 9.3306,1.19735 9.7347,1.81357 1.0479,1.59812 0.9122,22.83997 -0.1568,24.52851 -1.4794,2.3369 -24.4268,0.54974 -45.0779,-3.5107 -36.8415,-7.24382 -89.9615,-26.85978 -155.5,-57.42254 -113.407,-52.88542 -164.448,-72.57354 -220.1793,-84.9302 -30.4715,-6.75609 -45.7416,-8.44539 -76.8207,-8.49852 -31.3253,-0.0536 -43.8657,1.32451 -68.1873,7.49309 -40.2935,10.21948 -73.8227,28.46758 -112.8127,61.39762 l -3,2.53374 -0.5,26.76469 -0.5,26.7647 -62,0 -62,0 -0.5412,-27 c -0.2976,-14.85 -0.6351,-27.04218 -0.75,-27.09373 -0.1148,-0.0516 -3.6963,-3.01351 -7.9588,-6.58213 -29.3229,-24.54946 -56.8776,-40.52121 -88.25,-51.15305 -31.1941,-10.5714 -57.8533,-14.35331 -94.36577,-13.38685 -57.65555,1.52611 -116.12237,17.09694 -201.63427,53.69904 -7.975,3.41358 -35.425,15.77866 -61,27.47794 -94.89634,43.41033 -120.32443,53.62935 -160.63561,64.55614 -27.11776,7.35056 -65.49493,12.412 -66.87341,8.81972 z m 789.26676,-42.6662 c 0.9927,-0.6302 1.2035,-13.74789 1,-62.23469 l -0.2577,-61.43619 -10,0 -10,0 -0.2578,61.43619 c -0.2034,48.4868 0.01,61.60449 1,62.23469 0.6918,0.43917 4.8578,0.79849 9.2578,0.79849 4.4,0 8.566,-0.35932 9.2577,-0.79849 z m -77.5077,-159.786 c -0.8776,-0.38721 -1.25,-3.47431 -1.25,-10.36122 0,-8.02266 0.2881,-9.92026 1.5818,-10.41667 0.8699,-0.33385 15.7041,-0.60699 32.9648,-0.60699 30.004,0 31.4285,0.085 32.4182,1.93426 1.5359,2.86993 1.3193,16.63894 -0.2871,18.24431 -1.03,1.02944 -8.2666,1.36965 -32.75,1.53965 -17.2852,0.12002 -31.9902,-0.03 -32.6777,-0.33334 z m 60.143,-3.96667 c 0.3338,-0.86998 0.607,-3.75818 0.607,-6.41821 0,-7.4624 -0.4417,-8 -6.5718,-8 -6.2093,0 -7.4282,1.31274 -7.4282,8 0,6.68726 1.2189,8 7.4282,8 3.9631,0 5.5158,-0.41175 5.9648,-1.58179 z m -72.6687,-24.09749 c -1.6176,-0.43477 -1.7511,-1.82737 -1.5,-15.64898 l 0.2757,-15.17174 45.5,-0.26243 c 41.8871,-0.24158 45.5992,-0.12715 46.75,1.44113 1.5026,2.04779 1.7324,26.00918 0.2717,28.3213 -0.8168,1.29274 -7.0669,1.52058 -45.2347,1.64898 -24.3579,0.0819 -45.0861,-0.0658 -46.0627,-0.32826 z m 76.0639,-5.16868 c 0.9431,-0.59835 1.211,-3.47436 1,-10.73469 l -0.2882,-9.91735 -8.4144,-0.2931 c -6.0566,-0.21097 -8.6442,0.0692 -9.2347,1 -1.3104,2.06564 -1.0226,18.22143 0.3491,19.5931 1.36,1.36003 14.558,1.64013 16.5882,0.35204 z"
         id="path3006"
         inkscape:connector-curvature="0" />
      <path
         style="fill:#6cb7e6"
         d="m 949.81129,1019.2687 c -0.36764,-0.3676 -0.66843,-7.1099 -0.66843,-14.9827 0,-14.01717 0.0467,-14.32547 2.25,-14.85637 1.2375,-0.2982 126.90004,-0.4192 279.25004,-0.2691 l 277,0.2731 0,14.99997 0,15 -278.5816,0.2518 c -153.2199,0.1384 -278.88237,-0.049 -279.25001,-0.4167 z m 232.77361,-46.62537 c -0.2766,-0.7209 -0.3767,-7.3629 -0.2224,-14.7602 l 0.2804,-13.4495 46,0 46,0 0,14.5 0,14.5 -45.7775,0.2601 c -37.0124,0.2103 -45.8738,0.01 -46.2805,-1.0504 z m 83.6014,-3.7457 c 1.4236,-2.2508 1.176,-18.2816 -0.3138,-20.3191 -1.058,-1.4468 -2.6046,-1.6878 -9.25,-1.4411 l -7.9796,0.2962 -0.282,11.1705 c -0.3262,12.9193 -0.8226,12.3301 10.0907,11.9775 4.6998,-0.1519 7.0955,-0.6735 7.7347,-1.684 z m -70.3585,-33.6124 c -0.3767,-0.3767 -0.6849,-4.6441 -0.6849,-9.4831 0,-7.675 0.2469,-8.9303 1.9342,-9.8333 2.0766,-1.1114 38.9095,-1.4516 42.8505,-0.3958 2.2053,0.5907 2.2748,0.9464 2,10.2363 l -0.2847,9.6243 -22.5651,0.2683 c -12.4107,0.1476 -22.8732,-0.04 -23.25,-0.4167 z m 60.8018,-1.5485 c -0.3212,-1.2796 -0.4496,-5.6964 -0.2854,-9.8149 0.2938,-7.3665 0.344,-7.4934 3.0857,-7.8082 l 2.7871,-0.32 -0.2871,9.82 c -0.2711,9.2735 -0.4103,9.8375 -2.5017,10.1349 -1.622,0.2307 -2.3709,-0.3076 -2.7986,-2.0118 z m -44.8201,-27.4698 c -0.3666,-0.3666 -0.6666,-213.61417 -0.6666,-473.88336 l 0,-473.2167 2.25,-0.60297 c 3.819,-1.02346 29.7638,-0.69328 31.8157,0.40489 1.9082,1.02122 1.9343,7.40908 1.9343,473.3 0,365.98372 -0.2701,472.53494 -1.2,473.46484 -1.2935,1.2935 -32.8797,1.787 -34.1334,0.5333 z M 505.14286,751.33351 c -37.89483,-3.2919 -54.42752,-5.9327 -81,-12.9381 C 370.51,724.25601 328.79213,699.93421 305.93941,669.48183 295.46365,655.52239 295.14286,654.5266 295.14286,635.96685 l 0,-16.03324 159.94098,0 c 87.96754,0 160.13838,-0.3375 160.37964,-0.75 0.5027,-0.85951 -1.0124,-10.33141 -12.27675,-76.75 -4.47734,-26.4 -10.83674,-63.975 -14.13201,-83.5 -3.29527,-19.525 -8.65597,-51.25 -11.91267,-70.5 -3.25669,-19.25 -9.10769,-53.9 -13.00221,-77 -3.89453,-23.1 -9.29216,-55.05 -11.99474,-71 -2.70258,-15.95 -8.55389,-50.6 -13.00291,-77 -21.64479,-128.43801 -19.497,-116.5 -20.95973,-116.5 -0.45409,0 -1.04773,0.5625 -1.3192,1.25 -0.27147,0.6875 -8.90619,22.85 -19.18827,49.25 -10.28207,26.4 -19.75155,50.7 -21.04329,54 -1.29174,3.3 -13.18979,33.9 -26.44011,68 -13.25032,34.1 -26.30004,67.625 -28.99939,74.5 -2.69934,6.875 -13.28479,34.1 -23.52322,60.5 -10.23843,26.4 -19.70554,50.7 -21.03802,54 -1.33249,3.3 -13.24948,33.9 -26.48221,68 -13.23272,34.1 -26.26199,67.625 -28.95393,74.5 -2.69194,6.875 -8.98491,23.075 -13.98439,36 -4.99947,12.925 -9.50201,24.4 -10.00564,25.5 -0.50363,1.1 -1.13807,2.675 -1.40986,3.5 -0.2718,0.825 -0.53026,-6.15 -0.57437,-15.5 l -0.0802,-17 9.10975,-23.5 c 18.60284,-47.98885 62.11502,-159.83517 65.94151,-169.5 2.17755,-5.5 14.01681,-35.875 26.30945,-67.5 54.19593,-139.4286 68.1064,-175.17863 72.17876,-185.5 2.38706,-6.05 8.60573,-22.025 13.81926,-35.5 5.21352,-13.475 16.07309,-41.375 24.13238,-62 8.05928,-20.625 16.01376,-41.21217 17.67662,-45.74927 1.66286,-4.5371 3.37995,-8.46964 3.81576,-8.73899 1.36405,-0.84303 2.41625,1.41176 10.96085,23.48826 11.83971,30.59001 12.78328,33.01703 34.60124,89 10.82461,27.775 23.40626,60.175 27.95923,72 4.55297,11.825 8.76419,22.625 9.35826,24 0.59408,1.375 10.951,27.925 23.01538,59 12.06438,31.075 29.90907,76.975 39.65487,102 26.71893,68.60816 29.94483,76.90309 37.91775,97.5 10.26075,26.50718 52.73282,135.59488 58.15006,149.35593 4.91368,12.4819 4.85963,13.17766 -1.17863,15.17047 -3.70838,1.22388 -4.59207,2.9736 -1.5018,2.9736 5.62758,0 6.36807,3.44984 3.47281,16.17934 -7.12651,31.33286 -33.82883,59.66651 -76.06371,80.71066 -34.64105,17.2604 -73.71654,27.8826 -121.82731,33.1171 -10.11399,1.1004 -59.20543,2.1134 -67.5,1.3928 z m 257.50219,-133.1499 c -0.39149,-0.9625 -2.43586,-6.25 -4.54306,-11.75 -2.10719,-5.5 -6.73243,-17.425 -10.27831,-26.5 -16.68169,-42.69354 -80.04519,-205.46425 -89.33993,-229.5 -5.74257,-14.85 -11.9675,-30.825 -13.83317,-35.5 -1.86567,-4.675 -13.27275,-33.925 -25.34907,-65 -12.07632,-31.075 -28.34869,-72.925 -36.16083,-93 -7.81213,-20.075 -18.914,-48.65 -24.67081,-63.5 -23.82148,-61.44874 -26.176,-67.28863 -27.44559,-68.07329 -0.48478,-0.29961 -0.88142,0.365 -0.88142,1.4769 0,1.83865 7.72755,48.43285 20.91283,126.09639 2.75458,16.225 8.38179,49.525 12.5049,74 4.12311,24.475 9.74701,57.775 12.49755,74 2.75055,16.225 8.37538,49.525 12.49963,74 4.12425,24.475 9.9748,59.125 13.00123,77 9.42535,55.66899 19.33401,114.46716 23.59278,140 2.24757,13.475 4.32035,25.2875 4.60618,26.25 0.48818,1.64393 4.55287,1.75 67.05928,1.75 62.97554,0 66.50147,-0.0937 65.82781,-1.75 z m 1133.49785,132.6885 c -42.4019,-3.1371 -83.7454,-12.5689 -116.9657,-26.6838 -29.1066,-12.3671 -49.7913,-25.87971 -66.7162,-43.58352 -14.0158,-14.66075 -22.3637,-29.60104 -25.7794,-46.13754 -2.0646,-9.99549 -1.9578,-12.11098 0.7113,-14.08065 1.2375,-0.91323 1.8,-1.83948 1.25,-2.05835 -5.5172,-2.19546 -7.97,-4.08274 -7.6666,-5.8989 0.2745,-1.64279 25.9308,-68.33393 38.661,-100.49574 2.7218,-6.87617 23.475,-60.22504 42.1103,-108.25 7.2916,-18.79113 10.9335,-28.15703 32.3712,-83.25 12.1988,-31.35 23.6798,-60.825 25.5132,-65.5 5.3313,-13.594 50.348,-129.37534 74.4568,-191.5 26.6375,-68.64084 30.4245,-78 31.5614,-78 0.7403,0 6.8443,15.12117 26.4403,65.5 1.6045,4.125 13.3275,34.275 26.0511,67 12.7237,32.725 24.1899,62.2 25.4805,65.5 2.757,7.04919 45.2023,116.07907 50.0251,128.5 1.8152,4.675 4.8726,12.55 6.7943,17.5 3.3588,8.65188 38.3667,98.66065 43.1722,111 1.2851,3.3 12.326,31.65 24.5352,63 26.893,69.05384 28.0424,72.01262 33.6036,86.5 2.428,6.325 5.0841,12.97777 5.9024,14.78393 0.8184,1.80616 1.488,4.85094 1.488,6.76618 0,2.99513 -0.4896,3.71572 -3.5,5.15128 -1.925,0.91797 -3.5,2.03569 -3.5,2.48382 0,0.70101 3.9681,1.29351 6.25,0.93321 1.4653,-0.23136 0.7186,9.62653 -1.359,17.94119 -13.652,54.63676 -88.9771,98.97099 -188.391,110.88179 -24.8285,2.9747 -58.3261,3.7856 -82.5,1.9971 z m -69.5407,-131.87269 c 0.3176,-0.51381 2.8293,-16.15131 5.5817,-34.75 2.7523,-18.5987 6.8089,-45.96581 9.0146,-60.81581 2.2057,-14.85 5.1077,-34.425 6.4488,-43.5 1.3412,-9.075 4.9391,-33.375 7.9955,-54 3.0563,-20.625 7.5548,-51 9.9965,-67.5 2.4417,-16.5 6.2387,-42.15 8.4377,-57 2.199,-14.85 5.7965,-39.15 7.9944,-54 2.1979,-14.85 5.6016,-37.8 7.5639,-51 3.4715,-23.35313 9.5493,-64.38788 15.5517,-104.99865 3.1291,-21.17054 3.5202,-25.96814 2.0425,-25.05486 -0.814,0.50304 -6.2969,14.0671 -20.4352,50.55351 -7.5452,19.47167 -10.719,27.63138 -33.6454,86.5 -12.2092,31.35 -23.2501,59.7 -24.5352,63 -1.2852,3.3 -10.7385,27.6 -21.0075,54 -17.7316,45.58563 -21.2371,54.60466 -28.9568,74.5 -10.7617,27.73539 -86.3728,221.74116 -87.2036,223.75 -0.4105,0.99276 13.3837,1.25 67.0311,1.25 40.7812,0 67.7768,-0.37019 68.1253,-0.93419 z m 333.5407,0.58783 c 0,-0.1905 -0.6148,-1.653 -1.3661,-3.25 -0.7514,-1.597 -3.2046,-7.62864 -5.4517,-13.40364 -27.26,-70.06058 -49.5077,-127.33645 -54.186,-139.5 -4.8339,-12.56828 -16.5724,-42.71803 -49.4463,-127 -2.3597,-6.05 -14.883,-38.225 -27.8295,-71.5 -12.9465,-33.275 -33.5358,-86.15 -45.7541,-117.5 -12.2183,-31.35 -24.364,-62.625 -26.9904,-69.5 -10.7392,-28.111 -18.1479,-46.55616 -19.0757,-47.49164 -1.7836,-1.79839 -2.5159,1.19544 -5.6959,23.2842 -3.1053,21.57103 -7.5365,51.61395 -17.2137,116.70744 -2.78,18.7 -7.0531,47.5 -9.4956,64 -2.4426,16.5 -6.0125,40.575 -7.9331,53.5 -4.3261,29.11373 -10.26,69.17206 -16.0722,108.5 -5.7927,39.19526 -11.1468,75.33266 -18.0017,121.5 -3.0624,20.625 -6.2218,42.09552 -7.021,47.71226 -0.7992,5.61674 -2.8063,19.07467 -4.4601,29.9065 -1.6538,10.83184 -3.0069,20.74882 -3.0069,22.03775 l 0,2.34349 159.5,0 c 87.725,0 159.5,-0.15586 159.5,-0.34636 z M 485.39002,-36.21923 c -0.854,-0.854 -1.24716,-4.93328 -1.24716,-12.94017 0,-13.06774 -0.0917,-12.90699 7.36165,-12.90699 20.88821,0 60.35477,-9.4594 97.13835,-23.28225 40.7772,-15.32361 71.38239,-29.44579 123.47691,-56.97607 119.00735,-62.89155 182.08286,-87.15457 250.52309,-96.36776 17.98814,-2.4215 55.25134,-2.44986 72.50004,-0.0552 43.1831,5.99524 82.638,22.51614 120.1149,50.29551 4.7382,3.51216 9.1257,6.38575 9.75,6.38575 0.7989,0 1.1351,-4.6801 1.1351,-15.8 0,-10.95556 0.3679,-16.16794 1.2,-17 0.9065,-0.90655 15.804,-1.2 60.9182,-1.2 32.845,0 60.43,0.27314 61.3,0.60698 1.3502,0.51814 1.5818,2.92495 1.5818,16.44099 0,16.38298 0.4798,18.30102 3.9505,15.7914 1.0187,-0.73666 6.4138,-4.60317 11.9892,-8.59226 37.2748,-26.66971 74.2309,-41.3892 119.0603,-47.42131 12.2782,-1.65213 50.469,-1.66345 64,-0.019 64.0014,7.77833 129.1737,31.18155 222.7913,80.00381 14.6898,7.66085 39.0279,20.35325 54.0847,28.20534 27.6438,14.41616 35.3722,18.06527 67.124,31.693939 56.4851,24.24481 95.9728,35.269971 134.5,37.553051 l 4,0.23703 0.28,12.76986 c 0.2231,10.17148 0,12.8784 -1.11,13.30327 -0.7645,0.29337 -6.9655,0.0552 -13.78,-0.52937 -47.5291,-4.0769 -100.8142,-21.99808 -191.89,-64.5377 -7.975,-3.72496 -19.45,-9.01924 -25.5,-11.76507 -6.05,-2.74584 -16.4,-7.44744 -23,-10.44801 -65.7511,-29.89256 -112.7288,-47.21862 -156.5,-57.71956 -57.3483,-13.75813 -107.7518,-14.75579 -153.6433,-3.04114 -17.9422,4.58008 -29.8442,9.096 -49.8567,18.91687 -22.4179,11.00126 -47.6413,28.0425 -62.75,42.39454 l -3.75,3.56221 0,26.190059 c 0,22.959421 -0.1952,26.264941 -1.5818,26.797051 -0.87,0.33385 -28.455,0.60699 -61.3,0.60699 -45.1142,0 -60.0117,-0.29346 -60.9182,-1.2 -0.871,-0.87097 -1.2,-8.234431 -1.2,-26.854941 l 0,-25.654949 -5.25,-4.92756 c -20.4271,-19.17253 -57.1631,-41.57897 -84.8587,-51.75793 -30.9491,-11.37469 -57.1948,-15.86008 -92.89134,-15.87507 -67.757,-0.0285 -135.62701,19.3535 -248.18606,70.87566 -12.82267,5.86938 -29.16394,13.35053 -36.31394,16.62478 -29.64272,13.57451 -68.96217,30.88199 -83,36.53462 -39.04124,15.72077 -77.84873,26.85746 -105,30.13213 -16.35412,1.97245 -23.94512,2.25814 -25.25284,0.95042 z m 789.55288,-43.04716 c 0.9065,-0.90654 1.2,-15.80405 1.2,-60.91821 0,-32.84502 -0.2732,-60.43002 -0.607,-61.3 -0.8988,-2.3421 -20.8873,-2.3421 -21.786,0 -0.3339,0.86998 -0.607,28.45498 -0.607,61.3 0,45.11416 0.2934,60.01167 1.2,60.91821 0.7575,0.75751 4.5555,1.2 10.3,1.2 5.7444,0 9.5425,-0.44249 10.3,-1.2 z m -79.3693,-161.11989 c -0.2843,-0.74101 -0.3851,-5.13467 -0.2239,-9.7637 l 0.2932,-8.41641 33,0 33,0 0,9.5 0,9.5 -32.7762,0.2637 c -26.7435,0.21516 -32.8712,0.0157 -33.2931,-1.08359 z m 60.3693,-0.88011 c 0.6909,-0.69091 1.2,-4 1.2,-7.8 0,-3.8 -0.5091,-7.10909 -1.2,-7.8 -1.5558,-1.55581 -10.0442,-1.55581 -11.6,0 -0.6963,0.69631 -1.2,4.0334 -1.2,7.95031 0,5.3739 0.3568,6.95814 1.75,7.76959 2.4247,1.41227 9.5956,1.33446 11.05,-0.1199 z m -73.358,-27.09035 c -0.2766,-0.7208 -0.3767,-7.36285 -0.2224,-14.7601 l 0.2804,-13.44955 46,0 46,0 0,14.5 0,14.5 -45.7775,0.26011 c -37.0124,0.2103 -45.8738,0.009 -46.2805,-1.05046 z m 78.058,-14.20965 0,-11 -6.9791,-0.30091 c -11.8719,-0.51187 -11.5209,-0.85161 -11.5209,11.15329 0,5.67286 0.3162,10.63048 0.7026,11.01693 0.3865,0.38645 4.549,0.57395 9.25,0.41667 l 8.5474,-0.28598 0,-11 z"
         id="path3004"
         inkscape:connector-curvature="0" />
      <path
         style="fill:#51aae1"
         d="m 950.2355,1018.5452 c -0.77604,-0.9351 -1.06089,-5.7508 -0.87244,-14.75 l 0.2798,-13.36157 279.00004,0 279,0 0.2793,13.92277 c 0.2101,10.4676 -0.038,14.1244 -1,14.7347 -0.7036,0.4465 -125.9867,0.8188 -278.4069,0.8272 -235.22631,0.013 -277.30177,-0.1946 -278.2798,-1.3731 z m 232.9425,-46.54587 c -1.2091,-2.2592 -1.3822,-24.9708 -0.2044,-26.826 0.6284,-0.9899 10.5502,-1.2045 46.2347,-1 l 45.4346,0.2603 0.2798,13.3616 c 0.1884,8.9992 -0.096,13.8149 -0.8725,14.75 -0.9513,1.1463 -8.8836,1.3884 -45.4946,1.3884 -42.8165,0 -44.378,-0.067 -45.3776,-1.9343 z m 82.8786,-2.4617 c 0.7582,-0.9136 1.0597,-4.9738 0.8724,-11.75 l -0.2861,-10.354 -8.4811,-0.2942 c -10.6188,-0.3683 -11.0189,0.0512 -11.0189,11.5511 0,11.8287 0.3355,12.2431 9.9127,12.2431 5.4914,0 8.1897,-0.4185 9.001,-1.396 z m -69.8786,-35.5383 c -1.1247,-2.1015 -1.3793,-12.1793 -0.4,-15.8342 l 0.6078,-2.2684 22.6285,0.2684 22.6286,0.2685 0.2913,8.9154 c 0.211,6.458 -0.065,9.1413 -1,9.7347 -0.7102,0.4506 -10.838,0.8262 -22.5062,0.8346 -19.9595,0.014 -21.276,-0.099 -22.25,-1.919 z m 62.2149,1.2167 c -0.8806,-0.3164 -1.25,-3.2525 -1.25,-9.9353 0,-9.2656 0.052,-9.4788 2.25,-9.1667 2.1076,0.2994 2.2681,0.8636 2.5367,8.9167 0.2896,8.6846 -0.5981,11.241 -3.5367,10.1853 z m -47.0011,-502.53242 0.2511,-473.25 17.25,-0.27361 17.25,-0.27362 0,473.52362 0,473.52363 -17.5011,0 -17.501,0 0.251,-473.25002 z m -705.74894,318.1761 c -75.55692,-4.5155 -141.7146,-27.1832 -181.5,-62.18765 -11.18581,-9.84164 -18.21303,-18.3146 -25.33067,-30.54203 l -3.66933,-6.30357 -3e-5,-15.69643 -2e-5,-15.69642 159.25002,0.2382 c 87.58752,0.13101 159.85387,-0.14609 160.59189,-0.61579 1.54203,-0.98138 2.01626,2.22913 -11.31799,-76.62241 -4.74342,-28.05 -11.2875,-66.79745 -14.54239,-86.10544 -3.2549,-19.30799 -9.10269,-53.95799 -12.99509,-77 -3.89241,-23.04201 -9.75669,-57.75706 -13.03175,-77.14456 -3.27505,-19.3875 -8.63423,-51.1125 -11.90928,-70.5 -10.76009,-63.69703 -20.04505,-118.72613 -25.60449,-151.75 -3.00918,-17.875 -5.70595,-33.14239 -5.9928,-33.92754 -1.10707,-3.03012 -3.50119,1.91118 -13.77349,28.42754 -10.88023,28.08564 -16.21158,41.81296 -20.1955,52 -1.29056,3.3 -12.74791,32.775 -25.46079,65.5 -12.71287,32.725 -24.20057,62.2 -25.52821,65.5 -1.32765,3.3 -5.53484,14.1 -9.34932,24 -10.25402,26.613 -38.96688,100.45586 -40.6335,104.5 -1.18314,2.87097 -38.30259,98.31885 -51.14003,131.5 -1.9151,4.95 -4.11806,10.575 -4.89547,12.5 -0.7774,1.925 -7.96019,20.375 -15.96175,41 -8.00156,20.625 -14.96648,38.4 -15.4776,39.5 -0.51112,1.1 -1.12531,2.9 -1.36486,4 -0.23955,1.1 -0.48775,-5.60624 -0.55155,-14.90276 l -0.116,-16.90275 4.41748,-11.09725 c 2.42962,-6.10348 11.69014,-29.77224 20.57893,-52.59724 8.8888,-22.825 19.32083,-49.6 23.18227,-59.5 8.74871,-22.42997 7.90711,-20.2694 30.3831,-78 10.27819,-26.4 21.58947,-55.425 25.13617,-64.5 3.54669,-9.075 7.71792,-19.875 9.2694,-24 1.55147,-4.125 12.1244,-31.35 23.49541,-60.5 11.371,-29.15 22.42991,-57.5 24.57535,-63 18.62399,-47.74404 41.46345,-106.39385 47.50933,-122 4.04837,-10.45 11.09384,-28.6389 15.65661,-40.41978 4.56277,-11.78089 8.75709,-21.5721 9.32071,-21.75826 0.88061,-0.29085 6.8939,14.57093 30.01352,74.17804 6.2636,16.14885 47.50096,122.08185 52.94177,136 1.29002,3.3 3.91307,10.05 5.82901,15 3.90973,10.10118 39.53053,101.68883 43.17076,111 1.29015,3.3 3.91756,10.05 5.8387,15 5.93128,15.28253 49.68075,127.64315 52.17512,134 1.29489,3.3 12.3164,31.65 24.49223,63 12.17584,31.35 23.91004,61.47311 26.07601,66.94025 2.16597,5.46714 3.93812,10.71742 3.93812,11.66729 0,2.04387 -8.56929,5.73232 -9.9809,4.29604 -0.48844,-0.49697 -6.56271,-15.52858 -13.49838,-33.40358 -6.93567,-17.875 -14.81107,-38.125 -17.50089,-45 -3.84457,-9.82649 -26.55222,-68.20196 -46.48465,-119.5 -20.57806,-52.95964 -36.63014,-94.18824 -40.10235,-103 -2.38396,-6.05 -16.29563,-41.825 -30.91481,-79.5 -14.61919,-37.675 -27.23009,-70.075 -28.02422,-72 -0.79412,-1.925 -5.00867,-12.725 -9.36565,-24 -17.77899,-46.00849 -40.32745,-103.87162 -42.67063,-109.5 -3.02246,-7.26003 -4.14931,-9.14154 -4.9784,-8.31245 -0.58538,0.58538 4.6605,33.10153 17.95819,111.31245 2.99241,17.6 9.27425,54.725 13.95964,82.5 4.68539,27.775 10.99206,65.125 14.01482,83 5.26286,31.12173 13.77428,81.53583 26.67517,158 3.29422,19.525 8.92509,52.825 12.51303,74 3.58794,21.175 8.32227,49.28585 10.52072,62.46856 2.19846,13.1827 4.48651,24.55815 5.08457,25.27876 0.87878,1.05887 14.39048,1.29261 70.43465,1.21847 38.141,-0.0505 69.80015,0.18815 70.35368,0.53025 1.40331,0.86729 1.25857,4.36748 -0.54083,13.07895 -11.43616,55.366 -84.68131,100.34351 -184.62928,113.37501 -27.67988,3.6089 -53.63933,4.5708 -80.32348,2.9761 z m 1397.00004,0 c -36.4888,-2.1807 -72.476,-8.9062 -103.0473,-19.2582 -56.1655,-19.0187 -95.0673,-49.23676 -108.9324,-84.61615 -3.3883,-8.64579 -5.9697,-22.70653 -4.5812,-24.95315 0.5901,-0.95485 16.163,-1.21452 69.6604,-1.16158 37.8953,0.0375 69.5095,-0.32579 70.2538,-0.8073 0.9028,-0.58404 2.8271,-10.82115 5.7805,-30.75259 2.4349,-16.43242 6.2307,-42.02713 8.435,-56.87713 7.3601,-49.5831 13.0119,-87.7579 16.9517,-114.5 4.9016,-33.27028 10.4632,-70.80557 16.9654,-114.5 2.7827,-18.7 6.6142,-44.575 8.5143,-57.5 1.9002,-12.925 5.662,-38.35 8.3596,-56.5 15.1692,-102.0619 18.3615,-124.61207 17.7297,-125.24387 -0.3841,-0.38402 -1.1186,-0.0362 -1.6325,0.77283 -0.8161,1.28508 -9.0659,21.98185 -19.5201,48.97104 -1.8108,4.675 -12.1372,31.225 -22.9474,59 -10.8103,27.775 -22.3616,57.475 -25.6696,66 -3.308,8.525 -15.9183,40.925 -28.0228,72 -12.1045,31.075 -23.575,60.55 -25.4899,65.5 -1.9149,4.95 -4.5385,11.7 -5.8302,15 -8.9801,22.94231 -29.597,75.94197 -39.4836,101.5 -27.0421,69.90672 -48.1789,123.55744 -49.0115,124.40358 -1.2846,1.30556 -9.9819,-2.23554 -9.9819,-4.06412 0,-0.82232 4.3216,-12.59761 9.6035,-26.1673 5.2819,-13.56969 11.1712,-28.72216 13.0872,-33.67216 1.9161,-4.95 4.541,-11.7 5.8333,-15 1.2922,-3.3 13.1911,-33.9 26.4421,-68 13.2509,-34.1 24.7398,-63.575 25.5308,-65.5 0.791,-1.925 11.8326,-30.275 24.537,-63 12.7043,-32.725 24.1511,-62.2 25.4373,-65.5 1.2862,-3.3 12.3242,-31.65 24.5288,-63 12.2046,-31.35 23.2426,-59.7 24.5288,-63 6.8156,-17.48651 49.054,-126.16001 51.6935,-133 8.2067,-21.26674 12.3615,-31 13.2328,-31 0.5254,0 9.1111,20.925 19.0794,46.5 17.3497,44.51304 55.2749,141.91633 67.5544,173.5 24.5559,63.15968 47.4316,121.98919 49.3835,127 1.2856,3.3 12.323,31.65 24.5276,63 12.2046,31.35 23.2426,59.7 24.5288,63 12.0097,30.81292 49.3642,126.95578 52.0633,134 1.8966,4.95 4.1143,10.47777 4.9281,12.28393 0.8139,1.80616 1.4798,4.64162 1.4798,6.30102 0,2.53699 -0.5921,3.26449 -3.7207,4.57173 -2.2507,0.94037 -4.2529,1.21654 -5.0676,0.69897 -0.7408,-0.47061 -5.1117,-10.53065 -9.7131,-22.35565 -17.5598,-45.12623 -61.7901,-158.76708 -64.0252,-164.5 -5.6882,-14.58966 -40.019,-102.87374 -43.1643,-111 -1.916,-4.95 -4.5408,-11.7 -5.8331,-15 -1.2922,-3.3 -13.2064,-33.9 -26.476,-68 -13.2696,-34.1 -25.1838,-64.7 -26.476,-68 -1.2923,-3.3 -3.9171,-10.05 -5.8331,-15 -7.4874,-19.34466 -41.0345,-105.51992 -44.5736,-114.5 -2.2964,-5.82713 -4.2969,-9.5 -5.1742,-9.5 -1.0811,0 -1.9862,3.78529 -3.7065,15.5 -1.2519,8.525 -4.0582,27.425 -6.2363,42 -2.1781,14.575 -6.0172,40.45 -8.5313,57.5 -2.5142,17.05 -6.3708,43.15 -8.5702,58 -2.1994,14.85 -5.7968,39.15 -7.994,54 -2.1973,14.85 -5.5398,37.35 -7.4277,50 -1.8879,12.65 -5.7143,38.525 -8.5031,57.5 -5.2527,35.73889 -12.7625,86.44762 -18.068,122 -16.9984,113.90789 -19.6016,132.58325 -18.6466,133.7719 0.821,1.02187 33.1602,1.21846 164.5017,1 l 163.4798,-0.2719 -0.6116,6.5 c -4.4619,47.42024 -56.3425,90.0954 -135.0315,111.0723 -41.1818,10.9782 -87.1178,15.4821 -131.0978,12.8538 z M 484.74985,-37.64818 c -0.33385,-0.86998 -0.60699,-6.01284 -0.60699,-11.42857 0,-7.16384 0.38616,-10.23294 1.41725,-11.26403 0.95984,-0.95984 4.9135,-1.61156 12.25,-2.01928 47.96012,-2.66538 120.62224,-29.90413 219.83275,-82.40841 62.87421,-33.27434 103.19091,-52.24139 141.5,-66.56885 85.04274,-31.80567 152.87204,-37.3783 217.50004,-17.86907 24.1051,7.27661 59.6446,26.15273 81.8896,43.49408 3.2393,2.52524 6.2768,4.35206 6.75,4.05961 0.4732,-0.29245 0.8673,-7.36767 0.8757,-15.72271 0.01,-8.35504 0.3746,-15.75697 0.8138,-16.44874 0.6302,-0.99265 13.7479,-1.20343 62.2347,-1 l 61.4362,0.25776 0.5,16.5 c 0.3355,11.07242 0.857,16.4358 1.5855,16.30482 0.597,-0.10735 6.1204,-3.79931 12.2742,-8.20435 28.97,-20.73781 54.669,-33.35134 84.869,-41.65528 63.5803,-17.48238 135.1956,-9.25801 222.2713,25.52583 35.3497,14.12104 64.8876,28.35636 133.5,64.33822 39.7381,20.83957 59.498,30.57275 75.5,37.18928 3.025,1.25078 10.9,4.62743 17.5,7.50367 45.0364,19.62656 91.1721,32.89081 120.5,34.64435 5.775,0.3453 11.3016,1.03945 12.2813,1.54256 1.5806,0.81168 1.7496,2.23286 1.5,12.61283 l -0.2813,11.69807 -6.5,0.30921 c -6.9439,0.33033 -27.5652,-1.99213 -39.1667,-4.4111 -41.7967,-8.71486 -80.5862,-23.41314 -169.3333,-64.16437 -79.0289,-36.28879 -105.9431,-47.6061 -144.5,-60.76153 -56.0028,-19.10789 -103.5087,-27.51588 -147.5,-26.10576 -41.1838,1.32013 -72.2228,8.98119 -108.1822,26.70161 -21.4332,10.56205 -42.0105,24.30523 -60.2851,40.26326 l -5.5327,4.83131 -0.5,26.66869 -0.5,26.66868 -61.4362,0.25776 c -48.4868,0.20343 -61.6045,-0.007 -62.2347,-1 -0.4392,-0.69177 -0.8054,-12.82029 -0.8138,-26.95227 l -0.015,-25.69451 -10.5922,-8.80549 c -78.4758,-65.23845 -169.92186,-79.50987 -286.61951,-44.73095 -44.24106,13.18498 -81.85821,28.54694 -177.28833,72.40038 -91.44715,42.02313 -137.33078,58.13364 -180.97014,63.54167 -16.20461,2.00817 -25.12751,1.9743 -25.92287,-0.0984 z m 790.18035,-40.7868 c 1.7471,-1.07971 1.7594,-122.68469 0.013,-124.43141 -1.6279,-1.62796 -18.972,-1.62796 -20.6,0 -0.9072,0.90725 -1.2,16.16272 -1.2,62.53222 l 0,61.33223 2.25,0.96395 c 2.5145,1.07724 17.6497,0.7697 19.5374,-0.39699 z m -78.7423,-162.54735 c -1.4566,-2.7216 -1.3109,-14.33814 0.2057,-16.41234 1.1275,-1.54185 3.503,-1.68397 24.0875,-1.44113 l 22.8368,0.26941 -10e-5,9.5 0,9.5 -23.0425,0.26832 c -21.9786,0.25593 -23.0907,0.17817 -24.0874,-1.68426 z m 60.699,1.32664 c -0.3705,-0.37052 -0.2016,-1.55572 0.3754,-2.63378 0.9701,-1.81283 0.8591,-11.31164 -0.1728,-14.77692 -0.3134,-1.05244 0.2993,-1.5 2.0534,-1.5 2.4912,0 2.5,0.0333 2.5,9.5 0,8.80174 -0.1501,9.52148 -2.0412,9.79218 -1.1226,0.1607 -2.3443,-0.011 -2.7148,-0.38148 z m -73.7089,-29.34496 c -1.2091,-2.25927 -1.3822,-24.9708 -0.2044,-26.82606 0.6284,-0.98985 10.5502,-1.20445 46.2347,-1 l 45.4346,0.26032 0.2798,13.36163 c 0.1884,8.99913 -0.096,13.81492 -0.8725,14.75 -0.9513,1.1463 -8.8836,1.38837 -45.4946,1.38837 -42.8165,0 -44.378,-0.0666 -45.3776,-1.93426 z m 76.3998,-2.04099 c 2.5151,-0.95624 2.5651,-1.16821 2.5651,-10.87755 0,-7.2781 -0.3719,-10.2109 -1.4031,-11.06676 -0.8899,-0.73851 -4.4563,-1.05764 -9.75,-0.87245 l -8.3469,0.29201 -0.282,11.17051 c -0.2528,10.01251 -0.097,11.21856 1.5,11.634 3.3499,0.87128 13.1481,0.69688 15.7169,-0.27976 z"
         id="path3002"
         inkscape:connector-curvature="0" />
      <path
         style="fill:#2b98db"
         d="m 950.3654,1004.6836 0.27746,-14.24997 278.00004,0 278,0 0.2775,14.24997 0.2774,14.25 -278.5549,0 -278.55495,0 0.27745,-14.25 z m 233.4441,-32.41667 c -0.3666,-0.3666 -0.6666,-6.6581 -0.6666,-13.9809 l 0,-13.3143 2.5021,-0.628 c 1.8371,-0.4611 86.6723,0.033 88.2479,0.5136 0.1375,0.042 0.25,6.3763 0.25,14.0763 l 0,14 -44.8334,0 c -24.6583,0 -45.1333,-0.3 -45.5,-0.6667 z m 83.391,-3.4411 c 1.7078,-3.191 0.8627,-20.7018 -1.0576,-21.9144 -2.2057,-1.3928 -16.3617,-1.2161 -17.8,0.2222 -1.2827,1.2827 -1.7583,21.9084 -0.5334,23.1333 0.3667,0.3667 4.6259,0.6667 9.4648,0.6667 7.9247,0 8.9102,-0.2093 9.9262,-2.1078 z m -70.391,-34.5589 c -0.3666,-0.3666 -0.6666,-4.3685 -0.6666,-8.893 0,-6.5788 0.3167,-8.3479 1.5818,-8.8333 0.8699,-0.3339 10.2831,-0.607 20.9182,-0.607 10.635,0 20.0482,0.2731 20.9182,0.607 1.2783,0.4905 1.5818,2.3132 1.5818,9.5 l 0,8.893 -21.8334,0 c -12.0083,0 -22.1333,-0.3 -22.5,-0.6667 z m 61,0 c -0.3666,-0.3666 -0.6666,-4.3685 -0.6666,-8.893 0,-6.1349 0.3565,-8.3631 1.4022,-8.7644 2.2934,-0.8801 2.5978,0.2319 2.5978,9.4908 0,6.6944 -0.3229,8.8333 -1.3334,8.8333 -0.7333,0 -1.6333,-0.3 -2,-0.6667 z m -45.4177,-501.55914 0.2511,-473.27418 14.5,-0.28707 c 7.975,-0.15788 15.5129,-0.0367 16.751,0.26932 l 2.2511,0.55638 -0.2511,472.73069 -0.251,472.7307 -16.7511,0.2742 -16.751,0.2742 0.251,-473.27424 z M 504.14286,750.28401 c -1.925,-0.1812 -9.125,-0.8124 -16,-1.4027 -17.07915,-1.4664 -44.49598,-6.1863 -60.89671,-10.4836 -62.77598,-16.4487 -108.20069,-45.18466 -128.53178,-81.31017 l -3.57151,-6.34606 0,-14.89188 0,-14.89187 159.60515,-0.018 c 87.78283,-0.01 160.00783,-0.2669 160.5,-0.57108 1.60121,-0.9896 0.9811,-6.10228 -5.06661,-41.773 -3.2788,-19.33914 -9.14827,-54.06204 -13.04327,-77.16204 -3.895,-23.1 -9.29032,-55.05 -11.98961,-71 -7.69934,-45.49518 -21.35776,-126.36074 -30.48695,-180.5 -4.5908,-27.225 -12.91415,-76.5 -18.49635,-109.5 -5.58219,-33 -11.29326,-66.95793 -12.69127,-75.46206 -1.39801,-8.50413 -2.96291,-16.56956 -3.47756,-17.92319 -1.85139,-4.86952 -1.65682,-5.31374 -32.79962,74.88525 -23.37984,60.20781 -39.80849,102.42025 -43.00547,110.5 -2.17623,5.5 -15.41682,39.475 -29.42354,75.5 -57.88023,148.8668 -86.62422,222.77059 -102.09622,262.5 -8.99593,23.1 -16.56783,42.9 -16.82646,44 -0.25862,1.1 -0.52242,-5.27603 -0.58622,-14.16896 -0.0897,-12.49761 0.21956,-16.81178 1.36182,-19 0.8128,-1.55707 3.03014,-6.88104 4.92743,-11.83104 1.89728,-4.95 12.30798,-31.725 23.13487,-59.5 10.82689,-27.775 23.85504,-61.3 28.95145,-74.5 8.04792,-20.84458 40.3412,-103.828 50.00621,-128.5 1.83139,-4.675 11.29994,-28.975 21.04124,-54 9.74129,-25.025 20.61305,-52.925 24.15945,-62 3.54641,-9.075 7.7174,-19.875 9.26888,-24 1.55147,-4.125 12.13496,-31.35 23.51887,-60.5 11.38391,-29.15 22.44202,-57.5 24.57358,-63 18.14648,-46.82278 21.70849,-55.65764 22.5043,-55.81739 0.50031,-0.10044 8.37389,18.94239 17.49684,42.31739 14.95614,38.32092 58.7457,150.79905 69.49294,178.5 2.34724,6.05 9.52906,24.5 15.95959,41 6.43054,16.5 18.77615,48.225 27.4347,70.5 8.65855,22.275 26.00313,66.825 38.54352,99 12.5404,32.175 27.86355,71.55 34.05146,87.5 6.18791,15.95 18.05569,46.46661 26.37284,67.81468 8.31715,21.34808 14.86963,39.22317 14.56107,39.72244 -0.92138,1.49082 -8.44794,3.40027 -9.38442,2.38078 -0.46374,-0.50484 -5.01616,-11.7179 -10.11649,-24.9179 -18.13602,-46.93727 -24.93837,-64.46253 -39.39676,-101.5 -19.7781,-50.66476 -19.42265,-49.7522 -44.59883,-114.5 -12.18996,-31.35 -23.22018,-59.7 -24.51159,-63 -1.29141,-3.3 -7.50419,-19.275 -13.80616,-35.5 -32.7413,-84.29536 -43.84682,-112.82432 -45.15554,-116 -0.79331,-1.925 -11.82863,-30.275 -24.52293,-63 -27.35411,-70.51695 -30.27754,-77.65628 -31.53007,-77 -1.43231,0.75048 -0.85063,5.16212 6.13108,46.5 3.52988,20.9 11.83615,70.175 18.45839,109.5 6.62223,39.325 13.16352,78.025 14.53619,86 1.37267,7.975 7.65352,45.1 13.95744,82.5 6.30393,37.4 15.25808,90.5 19.89812,118 4.64005,27.5 12.3076,72.95 17.03901,101 4.73141,28.05 8.96016,52.125 9.39722,53.5 l 0.79465,2.5 70.41682,0.5 70.41681,0.5 0.33171,3.49601 c 0.83134,8.76186 -5.10652,26.23118 -13.18957,38.80403 -5.79326,9.01117 -18.52217,22.41883 -29.14214,30.69609 -39.07698,30.45677 -99.34877,50.47397 -167,55.46327 -12.77008,0.9418 -49.03087,1.1884 -57.5,0.391 z m 1390.50004,-0.3496 c -75.8351,-6.4891 -137.852,-29.1627 -176.0695,-64.37174 -18.9313,-17.44102 -31.1009,-39.81823 -31.7333,-58.35043 l -0.1972,-5.77863 69.4058,-0.25689 c 44.9673,-0.16644 69.8352,-0.61323 70.6253,-1.26888 1.3416,-1.11344 1.5312,-2.09852 4.9989,-25.97423 1.3181,-9.075 4.9015,-33.375 7.9631,-54 3.0616,-20.625 7.5637,-51 10.0047,-67.5 2.4411,-16.5 6.0439,-40.8 8.0062,-54 4.1014,-27.58761 9.64,-64.96693 16.0028,-108 2.4397,-16.5 6.4799,-43.725 8.9784,-60.5 2.4985,-16.775 6.0878,-41.075 7.9763,-54 1.8886,-12.925 5.7221,-38.8 8.5191,-57.5 6.439,-43.05074 11.0194,-74.48277 11.0194,-75.61858 0,-0.48478 -0.6387,-0.88142 -1.4194,-0.88142 -1.312,0 -6.2849,11.93363 -22.9193,55 -5.0543,13.08572 -34.9037,89.82478 -72.3488,186 -14.026,36.025 -26.553,68.2 -27.8376,71.5 -1.2846,3.3 -12.7464,32.775 -25.4707,65.5 -12.7243,32.725 -24.1878,62.2 -25.4746,65.5 -1.2867,3.3 -11.439,29.4 -22.5607,58 -11.1216,28.6 -20.5999,52.41306 -21.0629,52.9179 -0.9154,0.9981 -8.4531,-0.87608 -9.3482,-2.32432 -0.2893,-0.46821 3.7482,-11.8183 8.9722,-25.22243 5.2241,-13.40413 10.8101,-27.74615 12.4133,-31.87115 14.5401,-37.41172 49.6806,-127.76013 51.535,-132.5 1.2912,-3.3 12.3279,-31.65 24.5261,-63 12.1982,-31.35 23.2311,-59.7 24.5175,-63 1.2863,-3.3 12.7343,-32.775 25.44,-65.5 12.7057,-32.725 23.7483,-61.075 24.5392,-63 1.1695,-2.8465 48.255,-123.85146 59.73,-153.5 8.6016,-22.22466 11.4519,-29 12.1997,-29 0.4507,0 10.4543,24.75 22.2304,55 17.2337,44.26969 40.2306,103.36568 61.8738,159 1.2838,3.3 12.7449,32.775 25.4692,65.5 12.7243,32.725 24.1895,62.2 25.4782,65.5 1.2887,3.3 3.9143,10.05 5.8345,15 1.9203,4.95 13.479,34.65 25.6859,66 33.9276,87.13283 65.7967,169.10297 69.2045,178 1.6853,4.4 4.1281,10.41688 5.4284,13.37084 3.444,7.8235 3.1877,9.5373 -1.6657,11.13907 -2.5735,0.84933 -4.3769,0.98322 -4.9896,0.37046 -0.5278,-0.52776 -4.8009,-10.84175 -9.4959,-22.91997 -4.6949,-12.07822 -10.2922,-26.4604 -12.4383,-31.9604 -5.7948,-14.8505 -47.6993,-122.57759 -51.7354,-133 -1.9169,-4.95 -4.5441,-11.7 -5.8382,-15 -1.2942,-3.3 -11.6254,-29.85 -22.9582,-59 -11.3329,-29.15 -30.7691,-79.1 -43.1916,-111 -12.4224,-31.9 -24.5913,-63.175 -27.0419,-69.5 -2.4506,-6.325 -5.5128,-14.2 -6.8048,-17.5 -12.7377,-32.533 -45.5769,-117.09822 -46.988,-121 -2.2078,-6.10465 -4.0333,-8.35477 -5.5488,-6.83928 -0.5913,0.59125 -3.0522,14.52196 -5.4686,30.95714 -2.4165,16.43518 -6.1917,42.03214 -8.3894,56.88214 -2.1976,14.85 -6.7208,45.45 -10.0515,68 -3.3306,22.55 -7.8357,52.925 -10.0113,67.5 -4.8076,32.20743 -13.6278,91.74178 -18.5191,125 -1.9818,13.475 -5.1525,34.85 -7.0459,47.5 -4.2125,28.14348 -8.675,58.30093 -15.9072,107.5 -3.0318,20.625 -7.1553,48.38087 -9.1633,61.67972 -2.008,13.29885 -3.3798,24.88635 -3.0483,25.75 0.5439,1.4175 16.4894,1.5818 163.8839,1.6887 89.8048,0.0651 163.6189,0.0651 164.0314,0 1.3494,-0.21306 0.7931,4.4081 -1.8035,14.98261 -4.1621,16.94995 -11.5196,29.75822 -25.4359,44.27968 -33.9604,35.43729 -91.5942,59.03819 -166.5106,68.18569 -15.1436,1.8491 -64.7574,2.7387 -80,1.4344 z M 485.57576,-37.38066 c -0.27738,-0.72284 -0.37576,-6.23534 -0.21862,-12.25 l 0.28572,-10.93573 9,-0.72869 c 38.36556,-3.10627 77.11352,-14.70568 140.32936,-42.00835 19.47756,-8.41228 44.14967,-20.58374 77.67064,-38.31717 116.91466,-61.85076 181.87879,-86.91229 249,-96.05794 17.99486,-2.4519 57.12144,-2.49705 74.27684,-0.0857 16.2813,2.2885 39.9054,8.41193 54.7232,14.18442 21.9312,8.54367 49.2337,23.9955 66.9657,37.89924 3.2811,2.57276 6.6561,4.54553 7.5,4.38393 1.2804,-0.24521 1.617,-3.02143 2.0343,-16.78178 l 0.5,-16.48796 61,0 61,0 0.5,16.48796 c 0.4201,13.85406 0.7482,16.5355 2.0539,16.78556 0.8546,0.16368 4.5152,-1.94413 8.1345,-4.68403 85.4209,-64.6653 182.8351,-70.97516 310.3116,-20.09997 30.0344,11.98655 65.3201,28.49603 103.5589,48.4531 14.5426,7.58988 38.8161,20.24512 53.9411,28.12275 38.3232,19.96004 82.3112,39.09212 117.4497,51.08334 28.2952,9.65592 64.5608,17.35129 81.7704,17.35129 l 4.7799,0 0,11.94098 c 0,7.0094 -0.4197,12.20038 -1.0163,12.56907 -1.3513,0.83518 -24.9826,-1.20749 -35.8477,-3.09866 -23.7406,-4.13225 -59.1614,-14.94605 -92.136,-28.12872 -17.5754,-7.02635 -53.3369,-22.89634 -111,-49.2589 -53.4458,-24.43448 -86.4535,-38.11357 -117.17,-48.55776 -106.2813,-36.13756 -186.0397,-35.95469 -258.9492,0.59373 -21.0054,10.52968 -44.903,26.73391 -59.8913,40.61051 l -5.9567,5.51477 -0.2664,26.15749 -0.2664,26.15749 -61,0 -61,0 -0.5,-26.7918 -0.5,-26.7918 -4,-3.4751 c -80.506,-69.94153 -172.59391,-85.95459 -292.27532,-50.82342 -45.04719,13.22311 -79.37984,27.20044 -177.72472,72.35439 -72.76971,33.41139 -109.61071,47.75923 -146.5,57.05485 -18.03174,4.54376 -29.21112,6.54219 -44.5,7.95484 -14.15391,1.30778 -15.46083,1.28369 -16.0671,-0.29623 z m 790.59184,-42.25083 c 1.3132,-3.45386 1.3132,-118.41594 0,-121.8698 -0.9613,-2.52846 -1.1251,-2.5651 -11.4648,-2.5651 -9.3473,0 -10.6023,0.21064 -11.5248,1.93426 -1.3724,2.56448 -1.4293,118.8987 -0.06,122.50064 0.9618,2.52974 1.1207,2.5651 11.5248,2.5651 10.4041,0 10.5629,-0.0354 11.5247,-2.5651 z m -79.6031,-161.77848 c -0.2836,-0.73898 -0.3819,-4.67648 -0.2186,-8.75 l 0.297,-7.40642 23,-0.26782 23,-0.26781 0,9.01781 0,9.01782 -22.7814,0 c -18.1489,0 -22.8862,-0.27321 -23.297,-1.34358 z m 61.5784,-7.65642 c 0,-7.33333 0.2777,-9 1.5,-9 1.2222,0 1.5,1.66667 1.5,9 0,7.33333 -0.2778,9 -1.5,9 -1.2223,0 -1.5,-1.66667 -1.5,-9 z m -74.3334,-19.66667 c -0.3666,-0.36666 -0.6666,-6.63634 -0.6666,-13.93261 0,-12.31232 0.1413,-13.31081 1.9664,-13.89008 2.1673,-0.68786 84.4774,-0.51012 87.2836,0.18847 1.562,0.38888 1.75,1.93176 1.75,14.36828 l 0,13.93261 -44.8334,0 c -24.6583,0 -45.1333,-0.3 -45.5,-0.66667 z m 78.1183,-12.68881 c 0.1875,-7.14676 -0.1105,-11.33192 -0.8725,-12.25 -1.3948,-1.68069 -15.0011,-1.95264 -17.9782,-0.35934 -1.7195,0.92025 -1.9342,2.17494 -1.9342,11.3 0,6.80944 0.4155,10.68036 1.2344,11.49924 0.843,0.84304 4.0929,1.14425 10.25,0.95 l 9.0156,-0.28442 0.2849,-10.85548 z"
         id="path3000"
         inkscape:connector-curvature="0" />
      <path
         style="fill:#0184d5"
         d="m 951.14286,1004.4336 0,-13.49997 277.50004,0 277.5,0 0,13.49997 0,13.5 -277.5,0 -277.50004,0 0,-13.5 z m 233.22094,-45.74997 0.2791,-13.25 30.8416,0 30.8417,0 0.1583,13.2502 0.1584,13.2502 -31.2791,-2e-4 -31.279,-2e-4 0.279,-13.25 z m 83.9689,10.1354 c 0.6618,-1.8986 0.8777,-7.1908 0.5528,-13.5558 -0.5228,-10.2439 -0.4924,-10.4354 1.6122,-10.1354 2.0538,0.2928 2.1571,0.8704 2.4242,13.5558 l 0.279,13.25 -2.977,0 c -2.8979,0 -2.9481,-0.083 -1.8913,-3.1146 z m -70.9803,-43.1354 0.2905,-8.25 21,0 21,0 0.2904,8.25 0.2904,8.25 -21.5808,0 -21.5809,0 0.2904,-8.25 z m 60.7905,0.25 c 0,-4.6667 0.4166,-8 1,-8 0.5833,0 1,3.3333 1,8 0,4.6667 -0.4167,8 -1,8 -0.5834,0 -1,-3.3333 -1,-8 z m -45,-493.50002 0,-472.55079 15.75,0.2754 15.75,0.27539 0,472 0,472.00002 -15.75,0.2754 -15.75,0.2754 0,-472.55082 z m -710.00004,316.8995 c -21.38345,-1.8556 -29.5405,-2.8083 -43,-5.0222 -71.89066,-11.8247 -130.09911,-41.816 -155.83585,-80.29287 -3.3857,-5.06167 -6.43069,-10.29824 -6.76666,-11.63682 -0.33596,-1.33858 -1.01283,-2.18534 -1.50416,-1.88168 -0.51085,0.31572 -0.85953,-6.0025 -0.81438,-14.75691 0.0434,-8.41996 0.2684,-14.85902 0.49995,-14.30902 0.27943,0.66371 54.31074,0.83186 160.67106,0.5 l 160.25004,-0.5 0.29475,-3.5 c 0.16212,-1.925 -1.75938,-15.56197 -4.27,-30.30437 -2.51062,-14.74241 -7.23573,-42.64241 -10.50024,-62 -3.26451,-19.3576 -9.12242,-54.09563 -13.01758,-77.19563 -8.6923,-51.54922 -17.3273,-102.56075 -24.62956,-145.5 -3.03983,-17.875 -6.13223,-36.325 -6.872,-41 -0.73977,-4.675 -3.65228,-22 -6.47225,-38.5 -2.81996,-16.5 -8.45981,-49.8 -12.53299,-74 C 523.0213,56.62038 521.04288,45.43363 520.07995,44.4707 c -2.26343,-2.26343 -4.60341,2.13819 -14.08023,26.48566 -15.44178,39.67239 -20.92375,53.78692 -24.45988,62.97725 -1.79878,4.675 -6.1701,15.925 -9.71404,25 -3.54393,9.075 -15.98967,41.025 -27.6572,71 -11.66753,29.975 -22.70468,58.325 -24.52701,63 -1.82233,4.675 -10.14111,26.05 -18.48618,47.5 -8.34507,21.45 -17.0999,43.95 -19.45518,50 -2.35528,6.05 -6.55697,16.85 -9.3371,24 -35.7004,91.81524 -45.43543,116.83546 -51.74854,133 -4.08128,10.45 -10.83457,27.76546 -15.00732,38.47881 -4.17275,10.71334 -7.97575,19.71918 -8.45112,20.01297 -0.47536,0.2938 -1.04718,2.32833 -1.27069,4.5212 -0.22352,2.19286 -0.48204,-2.90204 -0.5745,-11.322 -0.0924,-8.41996 0.20016,-15.08141 0.65026,-14.80324 0.4501,0.27818 1.40846,-1.15776 2.12968,-3.19098 0.72123,-2.03322 3.93564,-10.44676 7.14313,-18.69676 3.2075,-8.25 16.66231,-42.9 29.89959,-77 13.23727,-34.1 25.16069,-64.7 26.49648,-68 1.3358,-3.3 9.24403,-23.55 17.57386,-45 32.25486,-83.05896 38.13755,-98.19826 40.41134,-104 1.94024,-4.95064 33.88771,-87.02174 42.04071,-108 17.57615,-45.22472 53.66821,-137.89307 57.44764,-147.5 2.70467,-6.875 5.89298,-15.12947 7.08514,-18.34326 1.19215,-3.21379 2.51332,-5.46379 2.93593,-5 0.4226,0.46379 3.02952,6.69326 5.79315,13.84326 2.76363,7.15 8.27482,21.325 12.24709,31.5 3.97228,10.175 9.13236,23.45 11.46685,29.5 2.33449,6.05 7.41689,19.1 11.29422,29 3.87733,9.9 13.86604,35.55 22.19713,57 8.3311,21.45 16.20315,41.7 17.49346,45 1.29031,3.3 8.64556,22.2 16.345,42 7.69944,19.8 16.56664,42.525 19.7049,50.5 3.13826,7.975 7.16707,18.325 8.95291,23 4.73445,12.39391 41.56018,107.14351 47.99997,123.5 2.72927,6.93211 35.49946,91.0793 48.67986,125 7.88697,20.29769 18.55806,47.89743 20.37008,52.68525 0.49784,1.31543 -0.25941,1.95406 -3.45079,2.91022 -2.24872,0.67373 -4.2505,1.04037 -4.44839,0.81475 -0.19789,-0.22562 -2.96287,-7.16022 -6.14441,-15.41022 -3.18153,-8.25 -7.54344,-19.5 -9.69314,-25 -2.1497,-5.5 -5.18684,-13.375 -6.74921,-17.5 -2.43636,-6.43251 -28.59361,-73.58911 -44.01309,-113 -2.68983,-6.875 -13.28769,-34.1 -23.55078,-60.5 -10.26309,-26.4 -20.19388,-51.9375 -22.06842,-56.75 -1.87454,-4.8125 -5.01832,-12.9125 -6.98619,-18 -1.96787,-5.0875 -5.07619,-13.075 -6.90738,-17.75 -3.25052,-8.29854 -30.41294,-78.10107 -43.19367,-111 -3.5255,-9.075 -8.6105,-22.125 -11.29999,-29 C 572.00548,123.41003 545.46171,55.17826 539.0105,38.43568 531.83195,19.80548 530.05747,16.619 528.00453,18.67194 c -1.25652,1.25652 -0.85063,4.01651 10.03874,68.26167 3.30943,19.525 8.75355,51.7 12.09804,71.5 3.34449,19.8 9.00769,53.325 12.5849,74.5 3.5772,21.175 9.42702,55.825 12.99961,77 14.18349,84.06673 23.03027,136.4557 39.00832,231 12.20929,72.244 13.28163,78.14195 14.46721,79.57048 1.00787,1.2144 11.70167,1.42952 71.06395,1.42952 l 69.87756,0 -0.0148,4.25 c -0.0474,13.6406 -8.85226,33.25375 -21.67693,48.28638 -31.90344,37.39612 -92.07797,63.22102 -170.30829,73.09072 -10.94327,1.3807 -64.83793,2.6543 -75,1.7724 z m 1397.00004,0 c -20.7945,-1.7831 -29.5378,-2.8052 -42.8858,-5.0133 -77.7878,-12.8682 -138.3302,-46.13577 -160.984,-88.45938 -4.9317,-9.21386 -8.1451,-19.70218 -8.4202,-27.48332 l -0.21,-5.9389 69.7184,-0.25679 c 65.7447,-0.24215 69.7729,-0.35852 70.6737,-2.04168 0.5254,-0.98168 2.3533,-11.21613 4.0619,-22.74321 1.7087,-11.52707 4.8697,-32.88332 7.0245,-47.45832 2.1548,-14.575 5.7534,-38.875 7.9969,-54 2.2434,-15.125 6.0746,-41 8.5138,-57.5 4.5296,-30.64101 9.7637,-65.9828 18.5865,-125.5 2.7313,-18.425 6.5229,-44.075 8.4258,-57 1.9029,-12.925 5.5028,-37.225 7.9997,-54 21.4521,-144.11857 21.0061,-140.89271 19.6647,-142.23408 -2.0669,-2.06695 -3.6049,0.87504 -12.6684,24.23408 -4.8016,12.375 -10.2212,26.325 -12.0435,31 -1.8223,4.675 -10.1313,26.05 -18.4646,47.5 -8.3332,21.45 -17.8745,45.975 -21.2029,54.5 -3.3284,8.525 -7.9845,20.45 -10.3469,26.5 -5.0018,12.80963 -46.9851,120.73586 -52.1259,134 -1.9185,4.95 -4.5436,11.7 -5.8336,15 -2.1539,5.50974 -37.5295,96.47293 -44.7236,115 -1.7085,4.4 -4.5161,11.6 -6.239,16 -1.7229,4.4 -10.5317,27.0399 -19.575,50.31089 l -16.4425,42.31089 -2.9866,-0.58321 c -6.0101,-1.17362 -5.9811,-1.37046 3.9127,-26.53857 5.081,-12.925 11.7699,-30.025 14.8643,-38 11.0947,-28.59349 46.9361,-120.74659 51.7282,-133 4.6849,-11.9795 26.3483,-67.65739 71.9806,-185 11.6567,-29.975 23.9111,-61.475 27.232,-70 8.0637,-20.7007 11.2718,-28.9428 34.2525,-88 10.808,-27.775 20.7052,-53.2 21.9938,-56.5 1.2886,-3.3 3.9983,-10.275 6.0216,-15.5 2.0232,-5.225 4.1203,-10.625 4.6601,-12 0.7916,-2.01642 1.1437,-2.20985 1.8203,-1 0.4614,0.825 9.244,23.1 19.517,49.5 26.9638,69.29276 60.3216,155.02489 63.0331,162 2.7965,7.19356 47.6257,122.43221 50.9606,131 1.2844,3.3 3.9063,10.05 5.8265,15 16.2531,41.90007 43.028,110.67761 44.1852,113.5 0.7893,1.925 11.8256,30.275 24.5253,63 29.3713,75.68537 29.8297,76.85943 31.5409,80.78393 0.7875,1.80616 1.4388,4.05616 1.4472,5 0.013,1.47354 0.1523,1.50408 0.9847,0.21607 0.723,-1.11877 0.9532,-0.61046 0.9057,2 -0.035,1.925 -0.2904,2.93811 -0.5675,2.25135 -0.3883,-0.96198 -0.9952,-0.90459 -2.6436,0.25 -4.3457,3.04386 -5.2175,2.12598 -10.211,-10.75135 -2.6126,-6.7375 -7.1205,-18.325 -10.0175,-25.75 -2.897,-7.425 -6.9262,-17.775 -8.9539,-23 -2.0277,-5.225 -4.7413,-12.2 -6.0303,-15.5 -1.289,-3.3 -10.0392,-25.8 -19.4449,-50 -9.4057,-24.2 -18.855,-48.5 -20.9985,-54 -14.3176,-36.73748 -43.8806,-112.68963 -47.0971,-121 -3.3171,-8.57012 -41.257,-106.10432 -52.9028,-136 -2.1425,-5.5 -12.291,-31.6 -22.5521,-58 -10.2612,-26.4 -20.6092,-52.95 -22.9957,-59 -2.3864,-6.05 -6.2052,-15.95 -8.4861,-22 -7.4318,-19.71252 -8.7349,-18.70761 -12.9679,10 -1.7031,11.55 -4.8548,32.925 -7.0039,47.5 -2.1491,14.575 -4.8482,32.8 -5.998,40.5 -5.569,37.29487 -19.3019,130.14388 -20.559,139 -0.7806,5.5 -2.3493,16.075 -3.4858,23.5 -1.1365,7.425 -3.5919,23.85 -5.4565,36.5 -4.5155,30.63567 -9.4181,63.74907 -15.5457,105 -2.7778,18.7 -6.8087,45.925 -8.9575,60.5 -2.1488,14.575 -5.713,38.65 -7.9204,53.5 -10.3131,69.37934 -9.7111,64.50872 -8.0989,65.528 0.9148,0.57838 64.2447,0.94728 164.2389,0.95669 l 162.75,0.0107 0,4.08339 c 0,6.24838 -3.7461,19.62287 -7.6792,27.41661 -16.3313,32.36147 -53.197,59.2515 -105.8208,77.1859 -21.2962,7.2579 -54.4095,14.2585 -82,17.3359 -9.8876,1.1029 -62.8011,2.119 -71.5,1.3731 z M 486.80953,-37.73306 c -0.36667,-0.36666 -0.66667,-5.44741 -0.66667,-11.29055 l 0,-10.6239 13.75,-1.26944 c 34.05467,-3.14403 72.54864,-14.58578 125.52603,-37.31071 21.15473,-9.07443 43.03276,-18.85592 44.18617,-19.75527 0.57079,-0.44506 5.3128,-2.97772 10.5378,-5.62812 5.225,-2.6504 20.975,-10.87731 35,-18.28203 115.84385,-61.16155 178.96615,-85.49023 246.05654,-94.83546 17.59963,-2.45151 58.7837,-2.4588 75.4435,-0.0134 41.9893,6.16353 82.6379,23.45749 118.4584,50.3983 12.5014,9.40229 12.4299,9.46102 13.0416,-10.7228 l 0.5,-16.5 60.25,-0.25781 60.25,-0.2578 0,15.42602 c 0,8.48431 0.2731,16.13782 0.607,17.0078 1.0824,2.82094 4.297,1.69517 12.1699,-4.26207 36.2797,-27.45192 75.9976,-44.43209 118.8924,-50.82882 16.5096,-2.46202 57.5221,-2.43755 75.8307,0.0452 64.7284,8.77764 133.7996,35.27594 242.1315,92.89059 49.1735,26.15218 53.7761,28.40244 90.8685,44.426394 38.1702,16.48955 64.2243,25.67508 91.5,32.258876 15.2021,3.66948 37.21,7.02063 46.25,7.04251 l 3.75,0.009 0,11.5 c 0,13.3693 1.8932,12.08904 -15.5,10.48196 -37.2045,-3.43759 -79.9809,-16.31121 -139.5,-41.982706 -13.9671,-6.02425 -34.0259,-15.09474 -68.5,-30.975434 -77.9044,-35.88712 -117.5183,-51.75913 -161,-64.50754 -35.8227,-10.50286 -64.8515,-15.70029 -97.2235,-17.40728 -59.027,-3.11251 -113.1049,11.15769 -160.2765,42.29418 -12.0501,7.95389 -28.4514,20.55765 -36.25,27.85675 l -3.75,3.50981 0,26.122944 0,26.122926 -60.25,-0.2578 -60.25,-0.25774 -0.5419,-26.5 c -0.298,-14.575 -0.6355,-26.58195 -0.75,-26.68212 -32.4074,-28.35031 -60.3773,-45.41087 -95.006,-57.94987 -56.4135,-20.42724 -125.38866,-19.35763 -201.63076,3.12673 -41.86611,12.34663 -76.93593,26.25255 -147.57138,58.51517 -58.65465,26.79041 -67.7254,30.87711 -86.5,38.97132 -55.86386,24.08435 -98.06218,36.58778 -135,40.00073 -12.99569,1.20076 -13.96107,1.22363 -14.83333,0.35137 z m 789.09087,-39.16231 c 0.9929,-0.63035 1.2033,-14.14767 1,-64.23469 l -0.2575,-63.43633 -11.9365,0 -11.9364,0 -0.8437,3.25592 c -0.464,1.79075 -0.7176,30.26984 -0.5636,63.28687 0.243,52.06595 0.4792,60.15672 1.7802,60.97877 1.8161,1.14756 20.987,1.27347 22.7575,0.14946 z m 294.7425,-130.17102 c -1.1,-0.47269 -2.675,-0.88417 -3.5,-0.9144 -1.3333,-0.0489 -1.3333,0.0527 0,0.9144 0.825,0.53316 2.4,0.94464 3.5,0.9144 2,-0.055 2,-0.055 0,-0.9144 z m -676.00004,-1 c 0.33992,-0.55 -0.28197,-1 -1.38197,-1 -1.1,0 -2.27811,0.45 -2.61803,1 -0.33992,0.55 0.28197,1 1.38197,1 1.1,0 2.27811,-0.45 2.61803,-1 z m 4.22917,-1.60417 c -0.33229,-0.33229 -1.1948,-0.36781 -1.91667,-0.0789 -0.79773,0.31923 -0.56078,0.55619 0.60417,0.60417 1.05416,0.0434 1.64479,-0.19293 1.3125,-0.52522 z m 662.52087,-0.0581 c -0.6875,-0.27741 -1.8125,-0.27741 -2.5,0 -0.6875,0.27741 -0.125,0.50439 1.25,0.50439 1.375,0 1.9375,-0.22698 1.25,-0.50439 z m -364.25,-39.33772 0,-8 22,0 22,0 0,8 0,8 -22,0 -22,0 0,-8 z m 62.3494,0 c 0,-4.675 0.1722,-6.5875 0.3828,-4.25 0.2105,2.3375 0.2105,6.1625 0,8.5 -0.2106,2.3375 -0.3828,0.425 -0.3828,-4.25 z m -75.1285,-33.25 0.2791,-13.25 27.8416,0 27.8417,0 0.1583,13.25018 0.1584,13.25018 -28.2791,-1.8e-4 -28.279,-1.8e-4 0.279,-13.25 z m 78.4879,8e-4 0.2088,-13.2508 4.7912,0 4.7912,0 0.279,13.25 0.279,13.25 -5.279,8e-4 -5.279,7.9e-4 0.2088,-13.25079 z"
         id="path2998"
         inkscape:connector-curvature="0" />
    </g>
  </g>
</svg>
