<?xml version="1.0" encoding="UTF-8" standalone="no"?>
<svg
   xmlns:dc="http://purl.org/dc/elements/1.1/"
   xmlns:cc="http://creativecommons.org/ns#"
   xmlns:rdf="http://www.w3.org/1999/02/22-rdf-syntax-ns#"
   xmlns:svg="http://www.w3.org/2000/svg"
   xmlns="http://www.w3.org/2000/svg"
   xmlns:sodipodi="http://sodipodi.sourceforge.net/DTD/sodipodi-0.dtd"
   xmlns:inkscape="http://www.inkscape.org/namespaces/inkscape"
   version="1.1"
   id="Layer_1"
   x="0px"
   y="0px"
   width="100px"
   height="100px"
   viewBox="0 0 100 100"
   enable-background="new 0 0 100 100"
   xml:space="preserve"
   inkscape:version="0.48.5 r10040"
   sodipodi:docname="team.svg"
   inkscape:export-filename="/home/maartend/htdocs/spacebillboard/docroot/sites/all/themes/sbbtheme/resources/img/our-mission/team.png"
   inkscape:export-xdpi="180"
   inkscape:export-ydpi="180"><metadata
     id="metadata27"><rdf:RDF><cc:Work
         rdf:about=""><dc:format>image/svg+xml</dc:format><dc:type
           rdf:resource="http://purl.org/dc/dcmitype/StillImage" /><dc:title></dc:title></cc:Work></rdf:RDF></metadata><defs
     id="defs25" /><sodipodi:namedview
     pagecolor="#ffffff"
     bordercolor="#666666"
     borderopacity="1"
     objecttolerance="10"
     gridtolerance="10"
     guidetolerance="10"
     inkscape:pageopacity="0"
     inkscape:pageshadow="2"
     inkscape:window-width="1326"
     inkscape:window-height="660"
     id="namedview23"
     showgrid="false"
     inkscape:zoom="4.72"
     inkscape:cx="28.019597"
     inkscape:cy="41.322823"
     inkscape:window-x="0"
     inkscape:window-y="0"
     inkscape:window-maximized="0"
     inkscape:current-layer="Layer_1" /><path
     style="fill:none"
     inkscape:connector-curvature="0"
     id="path5"
     d="m 73.875,47.973 c 0.119,0.12 0.242,0.178 0.36,0.158 0.001,0 0.001,0 0.001,0 0.029,-0.005 0.053,-0.027 0.079,-0.042 0.025,-0.014 0.053,-0.019 0.076,-0.04 0.576,1.791 1.68,3.575 3.071,4.641 0.803,0.613 1.7,0.989 2.647,0.989 0.969,0 1.886,-0.393 2.7,-1.03 0.171,-0.134 0.337,-0.278 0.499,-0.433 1.015,-0.968 1.832,-2.31 2.35,-3.693 0.06,-0.158 0.119,-0.315 0.17,-0.474 0.047,0.043 0.1,0.072 0.156,0.082 0.051,0.009 0.103,0.003 0.154,-0.016 0.053,-0.02 0.105,-0.052 0.158,-0.096 0.26,-0.22 0.505,-0.735 0.616,-1.361 0.146,-0.816 0.015,-1.532 -0.292,-1.676 -0.022,-0.01 -0.046,-0.017 -0.07,-0.022 -0.048,-0.008 -0.097,-0.003 -0.146,0.013 -0.048,0.016 -0.098,0.044 -0.146,0.082 l -0.005,0.006 c 0,0 0,0 0,0 -0.001,0 -0.001,-10e-4 -0.001,-10e-4 -10e-4,10e-4 -0.002,10e-4 -0.002,0.002 -0.001,0 -0.001,0 -0.001,0 0,-0.006 -10e-4,-0.012 -10e-4,-0.018 -0.369,-1.4 -0.833,-2.257 -1.313,-2.767 -0.093,-0.05 -0.19,-0.096 -0.296,-0.126 0,0 0,0 0,10e-4 -0.012,0.206 0.223,0.519 0.247,0.825 -0.665,-0.31 -1.301,-0.791 -2.229,-0.826 -0.217,-0.008 -0.452,-0.006 -0.693,-0.001 -2.241,0.801 -4.705,-0.105 -4.705,-0.105 -0.993,-0.092 -1.686,0.216 -2.175,0.664 -0.767,0.703 -1.021,1.75 -1.092,2.172 -0.012,0.07 -0.021,0.126 -0.023,0.157 -10e-4,0.008 -0.002,0.016 -0.002,0.024 -0.101,-0.081 -0.202,-0.118 -0.3,-0.101 -0.043,0.007 -0.083,0.025 -0.119,0.052 -0.088,0.063 -0.156,0.181 -0.207,0.332 -0.028,0.393 -0.045,0.791 -0.052,1.2 0.006,0.039 0.009,0.076 0.017,0.114 0.107,0.585 0.327,1.073 0.569,1.314 z" /><path
     style="fill:none"
     inkscape:connector-curvature="0"
     id="path7"
     d="m 55.103,54.066 c -0.006,-0.003 -0.012,-0.006 -0.018,-0.008 -0.853,0.84 -1.801,1.506 -2.813,1.907 -0.687,0.272 -1.402,0.423 -2.139,0.423 -0.737,0 -1.452,-0.15 -2.139,-0.423 -1.021,-0.405 -1.977,-1.079 -2.837,-1.931 0,0 0,0 -10e-4,0 0,1.049 -0.801,1.646 -1.345,1.931 -0.064,0.034 -0.125,0.063 -0.181,0.089 -0.135,0.062 -0.239,0.099 -0.284,0.113 0,0 0,0 0,10e-4 0.032,0.269 0.151,0.528 0.343,0.773 0.899,1.15 3.427,2.81 6.405,2.81 2.978,0 5.506,-1.659 6.405,-2.81 0.192,-0.245 0.313,-0.505 0.344,-0.773 10e-4,-0.008 0.002,-0.016 0.003,-0.023 -0.367,-0.135 -1.722,-0.728 -1.743,-2.079 z" /><path
     style="fill:none"
     inkscape:connector-curvature="0"
     id="path9"
     d="m 13.964,47.757 c 0.121,0.121 0.246,0.18 0.365,0.159 0,0 10e-4,0 10e-4,0 0.058,-0.009 0.109,-0.038 0.157,-0.082 0,0 0,0 10e-4,0 0.582,1.812 1.698,3.615 3.105,4.692 0.811,0.621 1.718,1.001 2.676,1.001 h 0 c 0.13,0 0.256,-0.024 0.384,-0.038 0.113,-0.013 0.228,-0.012 0.339,-0.034 0.088,-0.018 0.172,-0.053 0.258,-0.076 0.148,-0.04 0.297,-0.074 0.442,-0.131 0.018,-0.007 0.035,-0.019 0.053,-0.026 0.216,-0.088 0.429,-0.192 0.636,-0.314 0.211,-0.125 0.418,-0.267 0.618,-0.423 1.382,-1.081 2.477,-2.862 3.052,-4.65 v 0 c 0.047,0.044 0.1,0.073 0.158,0.083 0.014,0.002 0.028,-0.004 0.042,-0.004 0.038,10e-4 0.075,0.002 0.114,-0.012 0.053,-0.019 0.107,-0.051 0.16,-0.096 0.262,-0.224 0.51,-0.745 0.623,-1.377 0.148,-0.825 0.015,-1.549 -0.296,-1.694 -0.022,-0.011 -0.045,-0.019 -0.07,-0.023 -0.048,-0.008 -0.098,-0.003 -0.147,0.013 -0.049,0.016 -0.099,0.045 -0.147,0.083 l -0.005,0.006 v 0 c 0,0 0,-10e-4 0,-10e-4 0,0 -0.001,0 -0.001,10e-4 -10e-4,0 -10e-4,10e-4 -0.002,10e-4 0,-0.006 -0.001,-0.012 -0.001,-0.018 C 26.106,43.382 25.637,42.515 25.152,42 25.057,41.949 24.96,41.904 24.853,41.873 v 0 c -0.012,0.209 0.225,0.525 0.25,0.834 0,0 -0.001,0 -0.001,0 -0.671,-0.313 -1.314,-0.8 -2.252,-0.834 -0.22,-0.008 -0.458,-0.006 -0.701,-10e-4 -2.266,0.81 -4.757,-0.106 -4.757,-0.106 -0.178,-0.017 -0.346,-0.021 -0.506,-0.013 -0.144,0.007 -0.277,0.025 -0.407,0.048 -0.014,0.002 -0.031,0.002 -0.045,0.005 -1.99,0.393 -2.339,2.689 -2.369,2.985 0,0.008 -10e-4,0.017 -10e-4,0.024 0,0 0,0 -10e-4,0 -0.101,-0.081 -0.204,-0.119 -0.303,-0.102 -0.043,0.007 -0.083,0.025 -0.121,0.052 -0.088,0.064 -0.157,0.183 -0.209,0.335 -0.028,0.397 -0.046,0.799 -0.052,1.213 0.006,0.039 0.009,0.077 0.017,0.116 0.103,0.591 0.325,1.084 0.569,1.328 z" /><path
     style="fill:none"
     inkscape:connector-curvature="0"
     id="path11"
     d="m 58.058,44.115 c -0.026,-0.013 -0.056,-0.022 -0.085,-0.027 l -0.849,0.818 -10.46,-5.384 c -3.418,-0.316 -3.961,4.252 -4.003,4.66 -0.002,0.019 -0.003,0.029 -0.003,0.029 v 0 c -0.121,-0.098 -0.245,-0.144 -0.364,-0.123 -0.052,0.009 -0.101,0.031 -0.146,0.063 -0.33,0.237 -0.463,1.066 -0.295,2.004 0.127,0.712 0.396,1.308 0.69,1.601 0.145,0.146 0.297,0.217 0.44,0.192 0.07,-0.013 0.133,-0.047 0.19,-0.1 0.695,2.162 2.021,4.315 3.696,5.616 0.986,0.767 2.094,1.237 3.265,1.237 1.163,0 2.264,-0.465 3.246,-1.223 1.684,-1.3 3.018,-3.461 3.716,-5.631 0.057,0.054 0.12,0.088 0.189,0.1 0.124,0.021 0.253,-0.029 0.379,-0.135 0.316,-0.269 0.615,-0.896 0.75,-1.658 0.178,-0.993 0.018,-1.864 -0.356,-2.039 z" /><path
     style="fill:#0086d7;fill-opacity:1"
     inkscape:connector-curvature="0"
     id="path13"
     d="m 95.092,61.542 c -1.701,-5.851 -4.843,-6.052 -5.52,-6.21 -1.332,-0.313 -2.944,-0.179 -3.805,-0.447 -0.15,1.26 -2.575,2.261 -5.544,2.261 -2.969,0 -5.394,-1.001 -5.544,-2.261 -0.86,0.269 -2.473,0.135 -3.805,0.447 -0.552,0.129 -2.749,0.291 -4.463,3.533 0.921,1.167 1.809,2.817 2.501,5.198 0.191,0.661 0.217,1.351 0.115,2.016 3.019,0.937 7.393,1.274 11.195,1.273 5.922,10e-4 13.249,-0.81 14.642,-3.443 0.377,-0.709 0.458,-1.572 0.228,-2.367 z" /><path
     style="fill:#0086d7;fill-opacity:1"
     inkscape:connector-curvature="0"
     id="path15"
     d="m 73.226,48.657 c 0.626,1.685 1.618,3.322 2.845,4.521 0.694,0.679 1.463,1.215 2.283,1.541 0.564,0.224 1.152,0.348 1.757,0.348 0.605,0 1.193,-0.124 1.757,-0.348 0.85,-0.337 1.645,-0.899 2.357,-1.612 1.196,-1.195 2.164,-2.807 2.777,-4.464 0.473,-0.139 0.969,-1.024 1.17,-2.155 0.219,-1.227 0.012,-2.296 -0.461,-2.475 0.017,-0.299 0.027,-0.603 0.027,-0.913 -0.012,-4.447 -2.618,-7.383 -6.729,-7.658 -3.584,-0.241 -6.284,1.183 -7.515,3.55 -0.414,0.796 -0.649,2.144 -0.74,3.226 -0.138,0.563 -0.219,1.149 -0.219,1.755 h 0.013 c 0,0.005 -0.001,0.009 -0.001,0.014 -0.009,10e-4 -0.018,0.002 -0.026,0.003 -0.524,0.091 -0.763,1.209 -0.533,2.498 0.21,1.184 0.744,2.1 1.238,2.169 z m 0.118,-3.314 c 0.051,-0.151 0.119,-0.268 0.207,-0.332 0.036,-0.027 0.076,-0.044 0.119,-0.052 0.098,-0.017 0.199,0.021 0.3,0.101 0,-0.008 0.001,-0.016 0.002,-0.024 0.003,-0.031 0.012,-0.087 0.023,-0.157 0.071,-0.421 0.325,-1.469 1.092,-2.172 0.489,-0.448 1.182,-0.756 2.175,-0.664 0,0 2.464,0.906 4.705,0.105 0.241,-0.005 0.477,-0.006 0.693,10e-4 0.929,0.035 1.564,0.516 2.229,0.826 -0.024,-0.306 -0.259,-0.619 -0.247,-0.825 0,0 0,0 0,-10e-4 0.105,0.03 0.203,0.076 0.296,0.126 0.479,0.51 0.943,1.367 1.313,2.767 0,0.006 10e-4,0.012 10e-4,0.018 0,0 0,0 0.001,0 0,0 0.001,-0.001 0.002,-0.002 0,0 0,10e-4 0.001,10e-4 0,0 0,0 0,0 l 0.005,-0.006 c 0.048,-0.038 0.098,-0.066 0.146,-0.082 0.049,-0.017 0.098,-0.021 0.146,-0.013 0.024,0.005 0.048,0.012 0.07,0.022 0.307,0.145 0.438,0.86 0.292,1.676 -0.111,0.626 -0.356,1.142 -0.616,1.361 -0.053,0.044 -0.105,0.077 -0.158,0.096 -0.052,0.019 -0.104,0.024 -0.154,0.016 -0.057,-0.01 -0.109,-0.038 -0.156,-0.082 -0.051,0.159 -0.11,0.316 -0.17,0.474 -0.518,1.383 -1.335,2.726 -2.35,3.693 -0.162,0.154 -0.328,0.299 -0.499,0.433 -0.814,0.638 -1.731,1.03 -2.7,1.03 -0.947,0 -1.845,-0.376 -2.647,-0.989 -1.392,-1.065 -2.495,-2.85 -3.071,-4.641 -0.023,0.021 -0.051,0.026 -0.076,0.04 -0.026,0.014 -0.05,0.036 -0.079,0.042 0,0 0,0 -0.001,0 -0.118,0.02 -0.241,-0.039 -0.36,-0.158 -0.242,-0.241 -0.462,-0.729 -0.566,-1.315 -0.008,-0.039 -0.011,-0.076 -0.017,-0.114 0.004,-0.408 0.02,-0.806 0.049,-1.199 z" /><path
     style="fill:#0086d7;fill-opacity:1"
     inkscape:connector-curvature="0"
     id="path17"
     d="m 34.146,58.417 c -1.7,-2.928 -3.774,-3.094 -4.312,-3.219 -1.346,-0.315 -2.977,-0.181 -3.846,-0.452 -0.102,0.854 -2.583,3.66 -4.21,5.419 l -0.705,-2.717 c 0.53,-0.313 0.646,-1.002 0.646,-1.575 h -2.672 c 0,0.568 0.114,1.251 0.633,1.567 l -0.693,2.725 c -1.626,-1.76 -4.107,-4.565 -4.209,-5.419 -0.87,0.271 -2.5,0.137 -3.847,0.452 -0.684,0.159 -3.861,0.362 -5.581,6.278 -0.233,0.805 -0.151,1.677 0.229,2.394 1.408,2.663 8.816,3.482 14.805,3.482 3.634,10e-4 7.783,-0.305 10.805,-1.138 -0.129,-0.707 -0.116,-1.445 0.089,-2.152 0.784,-2.697 1.818,-4.467 2.868,-5.645 z" /><path
     style="fill:#0086d7;fill-opacity:1"
     inkscape:connector-curvature="0"
     id="path19"
     d="m 13.307,48.449 c 0.634,1.704 1.637,3.36 2.877,4.571 0.702,0.687 1.479,1.229 2.309,1.559 0.57,0.226 1.165,0.351 1.776,0.351 0.611,0 1.206,-0.125 1.776,-0.351 0.859,-0.341 1.663,-0.91 2.383,-1.63 1.21,-1.208 2.188,-2.838 2.809,-4.514 0.478,-0.141 0.979,-1.036 1.183,-2.179 0.222,-1.24 0.012,-2.322 -0.466,-2.502 0.017,-0.303 0.029,-0.608 0.028,-0.923 -0.011,-4.496 -2.647,-7.11 -6.804,-7.388 -3.624,-0.243 -6.354,1.197 -7.598,3.59 -0.418,0.806 -0.658,1.813 -0.749,2.907 -0.14,0.57 -0.222,1.162 -0.222,1.774 h 0.014 c 0,0.005 -10e-4,0.01 -10e-4,0.014 -0.009,10e-4 -0.018,10e-4 -0.026,0.003 -0.53,0.093 -0.771,1.224 -0.539,2.526 0.212,1.196 0.752,2.122 1.25,2.192 z m 0.12,-3.35 c 0.052,-0.153 0.121,-0.271 0.209,-0.335 0.038,-0.027 0.078,-0.044 0.121,-0.052 0.099,-0.018 0.202,0.021 0.303,0.102 0,0 0,0 10e-4,0 0,-0.008 10e-4,-0.016 10e-4,-0.024 0.03,-0.295 0.379,-2.592 2.369,-2.985 0.014,-0.003 0.031,-0.003 0.045,-0.005 0.129,-0.023 0.263,-0.042 0.407,-0.048 0.16,-0.007 0.328,-0.003 0.506,0.013 0,0 2.491,0.916 4.757,0.106 0.244,-0.004 0.481,-0.006 0.701,10e-4 0.938,0.035 1.581,0.521 2.252,0.834 0,0 0.001,0 0.001,0 -0.025,-0.309 -0.262,-0.625 -0.25,-0.834 v 0 c 0.107,0.031 0.205,0.076 0.299,0.127 0.484,0.516 0.954,1.382 1.327,2.797 0,0.006 0.001,0.012 0.001,0.018 0,0 0.001,-10e-4 0.002,-10e-4 0,0 0,0 0.001,-0.001 0,0 0,0.001 0,0.001 v 0 l 0.005,-0.006 c 0.049,-0.038 0.098,-0.066 0.147,-0.083 0.049,-0.017 0.099,-0.021 0.147,-0.013 0.025,0.004 0.048,0.012 0.07,0.023 0.311,0.145 0.444,0.869 0.296,1.694 -0.113,0.633 -0.36,1.154 -0.623,1.377 -0.053,0.044 -0.106,0.077 -0.16,0.096 -0.039,0.014 -0.076,0.013 -0.114,0.012 -0.014,0 -0.029,0.007 -0.042,0.004 -0.058,-0.009 -0.11,-0.038 -0.158,-0.083 v 0 c -0.575,1.788 -1.669,3.569 -3.052,4.65 -0.2,0.156 -0.407,0.298 -0.618,0.423 -0.207,0.122 -0.419,0.227 -0.636,0.314 -0.019,0.008 -0.035,0.02 -0.053,0.026 -0.145,0.057 -0.294,0.091 -0.442,0.131 -0.086,0.023 -0.17,0.059 -0.258,0.076 -0.111,0.022 -0.226,0.021 -0.339,0.034 -0.128,0.014 -0.254,0.038 -0.384,0.038 h 0 c -0.958,0 -1.865,-0.38 -2.676,-1.001 -1.407,-1.077 -2.523,-2.881 -3.105,-4.692 0,0 0,0 -10e-4,0 -0.047,0.044 -0.099,0.073 -0.157,0.082 0,0 0,0 -10e-4,0 -0.119,0.021 -0.244,-0.039 -0.365,-0.159 -0.244,-0.244 -0.467,-0.738 -0.573,-1.33 -0.007,-0.039 -0.011,-0.077 -0.017,-0.116 0.009,-0.413 0.027,-0.814 0.056,-1.211 z" /><path
     style="fill:#0086d7;fill-opacity:1"
     inkscape:connector-curvature="0"
     id="path21"
     d="m 66.043,59.629 c -1.902,-2.604 -3.986,-2.78 -4.569,-2.916 -0.096,-0.022 -0.192,-0.043 -0.29,-0.062 -2.498,-2.309 -0.793,-11.945 -0.793,-11.945 0,-0.426 -0.01,-0.835 -0.026,-1.235 -0.005,-0.129 -0.015,-0.252 -0.021,-0.378 -0.015,-0.266 -0.03,-0.529 -0.052,-0.783 -0.012,-0.139 -0.025,-0.275 -0.04,-0.411 -0.023,-0.234 -0.05,-0.464 -0.08,-0.688 -0.017,-0.129 -0.034,-0.259 -0.053,-0.385 -0.035,-0.229 -0.073,-0.451 -0.114,-0.669 -0.02,-0.105 -0.037,-0.214 -0.059,-0.316 C 59.887,39.552 59.823,39.272 59.755,39.002 59.749,38.979 59.744,38.953 59.737,38.93 59.662,38.639 59.579,38.362 59.493,38.093 59.465,38.005 59.433,37.922 59.404,37.836 59.342,37.658 59.28,37.482 59.215,37.314 59.178,37.219 59.139,37.127 59.101,37.036 59.038,36.884 58.972,36.735 58.906,36.591 58.865,36.503 58.824,36.415 58.781,36.33 58.71,36.186 58.636,36.047 58.561,35.912 58.521,35.839 58.482,35.765 58.441,35.694 58.343,35.527 58.243,35.366 58.14,35.212 58.119,35.181 58.101,35.148 58.08,35.117 57.957,34.936 57.832,34.765 57.704,34.602 57.66,34.546 57.615,34.496 57.571,34.442 57.483,34.335 57.395,34.23 57.305,34.13 57.252,34.072 57.2,34.016 57.146,33.96 57.062,33.872 56.977,33.786 56.892,33.704 56.836,33.651 56.782,33.599 56.726,33.548 56.637,33.467 56.549,33.391 56.459,33.317 56.406,33.273 56.355,33.228 56.302,33.186 56.193,33.1 56.083,33.019 55.973,32.94 55.941,32.917 55.909,32.891 55.875,32.869 55.734,32.771 55.593,32.681 55.451,32.597 55.402,32.568 55.353,32.542 55.305,32.514 55.208,32.459 55.114,32.406 55.018,32.356 54.96,32.326 54.904,32.299 54.847,32.271 54.759,32.228 54.672,32.187 54.584,32.148 54.527,32.123 54.47,32.098 54.413,32.074 54.324,32.037 54.236,32.003 54.148,31.97 c -0.052,-0.02 -0.104,-0.041 -0.156,-0.059 -0.104,-0.037 -0.206,-0.07 -0.308,-0.101 -0.033,-0.011 -0.068,-0.023 -0.102,-0.033 -0.133,-0.039 -0.263,-0.074 -0.391,-0.105 -0.043,-0.01 -0.083,-0.019 -0.125,-0.028 -0.088,-0.02 -0.175,-0.039 -0.26,-0.056 -0.049,-0.009 -0.096,-0.018 -0.144,-0.026 -0.076,-0.014 -0.15,-0.026 -0.224,-0.038 -0.047,-0.007 -0.093,-0.014 -0.139,-0.02 -0.074,-0.01 -0.146,-0.019 -0.216,-0.026 -0.04,-0.004 -0.079,-0.009 -0.117,-0.013 -0.084,-0.008 -0.164,-0.014 -0.242,-0.02 -0.021,-0.001 -0.044,-0.003 -0.064,-0.005 -0.098,-0.006 -0.191,-0.01 -0.279,-0.012 -0.024,0 -0.045,0 -0.068,-0.001 -0.061,-0.001 -0.119,-0.001 -0.174,-0.001 -0.097,0 -0.187,0.002 -0.266,0.005 -0.015,10e-4 -0.024,10e-4 -0.039,0.002 -0.065,0.003 -0.123,0.007 -0.172,0.011 -0.021,0.001 -0.037,0.002 -0.055,0.004 -0.037,0.003 -0.067,0.006 -0.09,0.008 -0.012,0.001 -0.019,0.002 -0.027,0.003 -0.023,0.003 -0.038,0.005 -0.038,0.005 -0.122,-0.006 -0.242,-0.012 -0.36,-0.016 -0.119,0.004 -0.239,0.009 -0.36,0.016 0,0 -0.015,-0.002 -0.038,-0.005 -0.008,-0.001 -0.015,-0.001 -0.026,-0.003 -0.024,-0.002 -0.055,-0.005 -0.093,-0.008 -0.018,-0.002 -0.032,-0.003 -0.053,-0.004 -0.05,-0.004 -0.109,-0.008 -0.176,-0.011 -0.013,0 -0.021,-0.001 -0.035,-0.002 -0.079,-0.003 -0.169,-0.005 -0.267,-0.005 -0.055,0 -0.113,0 -0.174,0.001 -0.023,0 -0.043,0 -0.067,0.001 -0.089,0.002 -0.183,0.006 -0.281,0.012 -0.018,10e-4 -0.037,0.003 -0.056,0.004 -0.081,0.005 -0.165,0.012 -0.253,0.021 -0.035,0.003 -0.071,0.008 -0.106,0.012 -0.074,0.008 -0.15,0.017 -0.228,0.028 -0.043,0.006 -0.086,0.012 -0.13,0.019 -0.077,0.012 -0.154,0.025 -0.234,0.04 -0.045,0.008 -0.089,0.016 -0.135,0.024 -0.09,0.018 -0.182,0.038 -0.275,0.06 -0.037,0.008 -0.072,0.016 -0.109,0.024 -0.13,0.032 -0.263,0.067 -0.398,0.107 -0.025,0.007 -0.051,0.017 -0.076,0.024 -0.11,0.034 -0.221,0.07 -0.333,0.11 -0.047,0.017 -0.095,0.035 -0.142,0.053 -0.093,0.035 -0.187,0.071 -0.281,0.111 -0.053,0.022 -0.106,0.045 -0.159,0.068 -0.092,0.041 -0.185,0.084 -0.277,0.13 -0.052,0.026 -0.105,0.051 -0.158,0.078 -0.102,0.053 -0.204,0.11 -0.307,0.169 -0.042,0.024 -0.084,0.046 -0.126,0.072 -0.145,0.086 -0.289,0.178 -0.432,0.277 -0.022,0.016 -0.045,0.034 -0.068,0.05 -0.12,0.085 -0.24,0.174 -0.359,0.269 -0.047,0.038 -0.094,0.079 -0.142,0.118 -0.095,0.079 -0.189,0.16 -0.283,0.245 -0.052,0.047 -0.103,0.097 -0.155,0.146 -0.089,0.086 -0.178,0.176 -0.266,0.268 -0.05,0.053 -0.101,0.105 -0.15,0.161 -0.094,0.104 -0.187,0.214 -0.279,0.327 -0.04,0.049 -0.08,0.095 -0.12,0.146 -0.13,0.166 -0.257,0.338 -0.381,0.521 -0.015,0.022 -0.028,0.046 -0.043,0.068 -0.108,0.163 -0.214,0.333 -0.317,0.51 -0.039,0.066 -0.075,0.137 -0.113,0.206 -0.077,0.14 -0.153,0.282 -0.227,0.431 -0.041,0.083 -0.081,0.167 -0.121,0.253 -0.069,0.146 -0.135,0.298 -0.2,0.453 -0.038,0.089 -0.075,0.179 -0.111,0.271 -0.067,0.171 -0.13,0.349 -0.192,0.53 -0.029,0.084 -0.059,0.165 -0.086,0.25 -0.087,0.27 -0.17,0.548 -0.246,0.839 -0.006,0.022 -0.01,0.046 -0.016,0.068 -0.069,0.271 -0.133,0.552 -0.192,0.843 -0.021,0.103 -0.039,0.21 -0.059,0.315 -0.041,0.219 -0.079,0.441 -0.114,0.671 -0.019,0.126 -0.036,0.255 -0.053,0.385 -0.029,0.224 -0.056,0.453 -0.08,0.687 -0.014,0.136 -0.028,0.272 -0.04,0.412 -0.021,0.254 -0.038,0.518 -0.053,0.784 -0.007,0.126 -0.016,0.249 -0.021,0.377 -0.016,0.399 -0.026,0.809 -0.026,1.235 0,0 1.705,9.637 -0.793,11.945 -0.098,0.019 -0.194,0.039 -0.289,0.062 -0.544,0.127 -2.396,0.29 -4.188,2.428 -0.922,1.1 -1.828,2.713 -2.531,5.131 -0.164,0.566 -0.183,1.158 -0.091,1.727 0.064,0.403 0.177,0.797 0.366,1.154 0.106,0.2 0.24,0.392 0.4,0.575 0.077,0.088 0.179,0.168 0.268,0.253 0.096,0.091 0.18,0.186 0.289,0.272 0.148,0.117 0.322,0.226 0.493,0.336 0.072,0.046 0.131,0.096 0.207,0.141 0.505,0.298 1.096,0.565 1.753,0.806 0.008,0.003 0.014,0.007 0.022,0.01 2.254,0.819 5.301,1.309 8.464,1.566 0.112,0.009 0.223,0.021 0.335,0.029 0.256,0.02 0.513,0.033 0.77,0.05 0.215,0.014 0.429,0.03 0.644,0.042 0.242,0.014 0.484,0.022 0.726,0.033 0.228,0.01 0.456,0.022 0.682,0.03 0.26,0.01 0.517,0.014 0.774,0.021 0.208,0.006 0.417,0.013 0.623,0.017 0.232,0.004 0.46,0.004 0.69,0.006 0.228,0.002 0.459,0.006 0.685,0.006 0.226,0 0.457,-0.004 0.685,-0.006 0.23,-0.002 0.458,-0.002 0.69,-0.006 0.206,-0.004 0.415,-0.011 0.623,-0.017 0.258,-0.007 0.515,-0.011 0.774,-0.021 0.23,-0.008 0.463,-0.021 0.695,-0.031 0.237,-0.011 0.475,-0.019 0.713,-0.032 0.223,-0.012 0.445,-0.029 0.668,-0.043 0.248,-0.017 0.497,-0.03 0.745,-0.049 0.119,-0.01 0.237,-0.021 0.357,-0.031 4.09,-0.335 7.982,-1.06 10.217,-2.38 0.075,-0.045 0.135,-0.095 0.206,-0.142 0.171,-0.109 0.345,-0.218 0.492,-0.335 0.081,-0.064 0.141,-0.135 0.214,-0.201 0.31,-0.28 0.572,-0.575 0.743,-0.899 0.214,-0.405 0.342,-0.854 0.396,-1.313 0.061,-0.519 0.026,-1.054 -0.122,-1.567 -0.602,-2.089 -1.359,-3.571 -2.146,-4.648 z m -9.199,-3.46 c -0.031,0.269 -0.151,0.528 -0.344,0.773 -0.898,1.15 -3.427,2.81 -6.405,2.81 -2.979,0 -5.506,-1.659 -6.405,-2.81 -0.192,-0.245 -0.311,-0.505 -0.343,-0.773 0,-10e-4 0,-10e-4 0,-10e-4 0.045,-0.015 0.148,-0.052 0.284,-0.113 0.056,-0.025 0.117,-0.055 0.181,-0.089 0.544,-0.285 1.345,-0.882 1.345,-1.931 0,0 0,0 0.001,0 0.86,0.852 1.815,1.525 2.837,1.931 0.687,0.272 1.402,0.423 2.139,0.423 0.737,0 1.452,-0.15 2.139,-0.423 1.012,-0.401 1.96,-1.067 2.813,-1.907 0.006,0.002 0.012,0.005 0.018,0.008 0.021,1.351 1.377,1.943 1.744,2.079 -0.002,0.007 -0.003,0.015 -0.004,0.023 z m 1.569,-10.015 c -0.135,0.762 -0.434,1.389 -0.75,1.658 -0.126,0.106 -0.255,0.156 -0.379,0.135 -0.069,-0.012 -0.133,-0.046 -0.189,-0.1 -0.698,2.17 -2.032,4.331 -3.716,5.631 -0.981,0.758 -2.083,1.223 -3.246,1.223 -1.17,0 -2.278,-0.471 -3.265,-1.237 -1.674,-1.301 -3.001,-3.455 -3.696,-5.616 -0.057,0.053 -0.12,0.087 -0.19,0.1 -0.144,0.025 -0.295,-0.047 -0.44,-0.192 -0.294,-0.293 -0.563,-0.889 -0.69,-1.601 -0.167,-0.938 -0.035,-1.767 0.295,-2.004 0.045,-0.032 0.094,-0.054 0.146,-0.063 0.119,-0.021 0.243,0.025 0.364,0.123 v 0 c 0,0 0.001,-0.011 0.003,-0.029 0.042,-0.408 0.585,-4.976 4.003,-4.66 l 10.46,5.384 0.849,-0.818 c 0.029,0.005 0.059,0.015 0.085,0.027 0.375,0.175 0.535,1.046 0.356,2.039 z" /></svg>