<?xml version="1.0" encoding="UTF-8" standalone="no"?>
<svg
   xmlns:dc="http://purl.org/dc/elements/1.1/"
   xmlns:cc="http://creativecommons.org/ns#"
   xmlns:rdf="http://www.w3.org/1999/02/22-rdf-syntax-ns#"
   xmlns:svg="http://www.w3.org/2000/svg"
   xmlns="http://www.w3.org/2000/svg"
   xmlns:sodipodi="http://sodipodi.sourceforge.net/DTD/sodipodi-0.dtd"
   xmlns:inkscape="http://www.inkscape.org/namespaces/inkscape"
   version="1.1"
   x="0px"
   y="0px"
   width="100px"
   height="100px"
   viewBox="0 0 100 100"
   xml:space="preserve"
   id="svg2"
   inkscape:version="0.48.5 r10040"
   sodipodi:docname="airplane.svg"
   inkscape:export-filename="/home/maartend/htdocs/spacebillboard/docroot/sites/all/themes/sbbtheme/resources/img/contest/airplane.png"
   inkscape:export-xdpi="162"
   inkscape:export-ydpi="162"><metadata
     id="metadata10"><rdf:RDF><cc:Work
         rdf:about=""><dc:format>image/svg+xml</dc:format><dc:type
           rdf:resource="http://purl.org/dc/dcmitype/StillImage" /><dc:title></dc:title></cc:Work></rdf:RDF></metadata><defs
     id="defs8"><filter
       id="filter3760"
       x="0"
       y="0"
       width="1"
       height="1"
       inkscape:label="Lightness-Contrast"
       inkscape:menu="Color"
       inkscape:menu-tooltip="Increase or decrease lightness and contrast"
       color-interpolation-filters="sRGB"><feFlood
         id="feFlood3762"
         result="result1"
         flood-opacity="0"
         flood-color="rgb(128,128,128)" /><feBlend
         id="feBlend3764"
         in2="SourceGraphic"
         mode="normal"
         result="result2" /><feComposite
         id="feComposite3766"
         in2="SourceGraphic"
         k2="1"
         operator="arithmetic"
         result="result3" /><feComposite
         id="feComposite3768"
         in2="SourceGraphic"
         operator="in"
         result="fbSourceGraphic" /><feColorMatrix
         result="fbSourceGraphicAlpha"
         in="fbSourceGraphic"
         values="0 0 0 -1 0 0 0 0 -1 0 0 0 0 -1 0 0 0 0 1 0"
         id="feColorMatrix3770" /><feFlood
         id="feFlood3772"
         result="result1"
         flood-opacity="0"
         flood-color="rgb(128,128,128)"
         in="fbSourceGraphic" /><feBlend
         id="feBlend3774"
         in2="fbSourceGraphic"
         mode="normal"
         result="result2" /><feComposite
         id="feComposite3776"
         in2="fbSourceGraphic"
         k2="1"
         operator="arithmetic"
         result="result4" /><feComposite
         id="feComposite3778"
         in2="fbSourceGraphic"
         operator="in"
         result="fbSourceGraphic" /><feColorMatrix
         result="fbSourceGraphicAlpha"
         in="fbSourceGraphic"
         values="0 0 0 -1 0 0 0 0 -1 0 0 0 0 -1 0 0 0 0 1 0"
         id="feColorMatrix3780" /><feFlood
         id="feFlood3782"
         result="result1"
         flood-opacity="0"
         flood-color="rgb(128,128,128)"
         in="fbSourceGraphic" /><feBlend
         id="feBlend3784"
         in2="fbSourceGraphic"
         mode="normal"
         result="result2" /><feComposite
         id="feComposite3786"
         in2="fbSourceGraphic"
         k2="1"
         operator="arithmetic"
         result="result5" /><feComposite
         id="feComposite3788"
         in2="fbSourceGraphic"
         operator="in" /></filter></defs><sodipodi:namedview
     pagecolor="#ffffff"
     bordercolor="#666666"
     borderopacity="1"
     objecttolerance="10"
     gridtolerance="10"
     guidetolerance="10"
     inkscape:pageopacity="0"
     inkscape:pageshadow="2"
     inkscape:window-width="1600"
     inkscape:window-height="834"
     id="namedview6"
     showgrid="false"
     inkscape:zoom="2.36"
     inkscape:cx="-126.15137"
     inkscape:cy="50"
     inkscape:window-x="0"
     inkscape:window-y="27"
     inkscape:window-maximized="1"
     inkscape:current-layer="svg2" /><path
     d="m 82.62513,17.39526 c -3.95898,0 -8.979558,2.581972 -13.743335,5.994868 l -9.869104,9.80793 -12.214033,-1.14188 1.325396,-1.325396 c 0.182245,-0.182244 0.182245,-0.470258 0,-0.652502 l -1.203051,-1.203052 c -0.182243,-0.182244 -0.470259,-0.182244 -0.652502,0 l -2.854699,2.854699 -6.259947,-0.59133 1.427348,-1.42735 c 0.181925,-0.182557 0.181925,-0.490969 0,-0.672893 l -1.203051,-1.182662 c -0.182243,-0.182243 -0.470258,-0.182243 -0.652502,0 l -2.977043,2.977044 -10.317699,-0.958363 -3.262512,3.48681 11.133326,3.466421 9.726367,3.588764 6.586199,4.139314 -9.257382,9.196208 c -3.128253,4.13286 -5.675905,8.105801 -7.626123,11.398406 l -11.867391,-0.917583 -1.488522,1.488523 9.909882,5.648225 c -0.590485,1.154041 -0.917581,1.835163 -0.917581,1.835163 0,0 0.686897,-0.309047 1.835164,-0.876801 l 5.444318,10.276917 1.386569,-1.386568 -0.530159,-12.295596 c 3.30842,-1.921352 7.288611,-4.431223 11.439186,-7.564952 l 9.2166,-9.236991 3.894625,6.096821 3.690717,9.50207 3.731502,11.887782 3.384855,-3.344076 -1.080706,-11.745047 2.304149,-2.30415 c 0.181604,-0.182238 0.181604,-0.49065 0,-0.672894 l -1.203051,-1.18266 c -0.182879,-0.182244 -0.470898,-0.182244 -0.652503,0 l -0.774847,0.774847 -0.407814,-4.404393 3.038216,-3.038215 c 0.181604,-0.182238 0.181604,-0.470898 0,-0.652503 L 69.88094,51.835164 c -0.182878,-0.182245 -0.470898,-0.182245 -0.652503,0 L 67.719524,53.344077 66.557254,40.74262 76.650653,30.628828 c 3.399513,-4.637617 5.974477,-9.49251 5.974477,-13.233568 z"
     id="path4"
     inkscape:connector-curvature="0"
     style="fill:#0086d7;fill-opacity:1;filter:url(#filter3760)" /></svg>