<?xml version="1.0" encoding="UTF-8" standalone="no"?>
<svg
   xmlns:dc="http://purl.org/dc/elements/1.1/"
   xmlns:cc="http://creativecommons.org/ns#"
   xmlns:rdf="http://www.w3.org/1999/02/22-rdf-syntax-ns#"
   xmlns:svg="http://www.w3.org/2000/svg"
   xmlns="http://www.w3.org/2000/svg"
   xmlns:sodipodi="http://sodipodi.sourceforge.net/DTD/sodipodi-0.dtd"
   xmlns:inkscape="http://www.inkscape.org/namespaces/inkscape"
   version="1.1"
   x="0px"
   y="0px"
   width="400px"
   height="400px"
   viewBox="0 0 100 100"
   enable-background="new 0 0 100 100"
   xml:space="preserve"
   id="svg2"
   inkscape:version="0.48.5 r10040"
   sodipodi:docname="beach.svg"
   inkscape:export-filename="/home/maartend/htdocs/spacebillboard/docroot/sites/all/themes/sbbtheme/resources/img/contest/beach.png"
   inkscape:export-xdpi="40.5"
   inkscape:export-ydpi="40.5"><metadata
     id="metadata26"><rdf:RDF><cc:Work
         rdf:about=""><dc:format>image/svg+xml</dc:format><dc:type
           rdf:resource="http://purl.org/dc/dcmitype/StillImage" /><dc:title></dc:title></cc:Work></rdf:RDF></metadata><defs
     id="defs24"><linearGradient
       id="linearGradient3771"><stop
         style="stop-color:#72b3e6;stop-opacity:1;"
         offset="0"
         id="stop3773" /><stop
         style="stop-color:#5394c6;stop-opacity:1;"
         offset="1"
         id="stop3775" /></linearGradient></defs><sodipodi:namedview
     pagecolor="#ffffff"
     bordercolor="#666666"
     borderopacity="1"
     objecttolerance="10"
     gridtolerance="10"
     guidetolerance="10"
     inkscape:pageopacity="0"
     inkscape:pageshadow="2"
     inkscape:window-width="1600"
     inkscape:window-height="834"
     id="namedview22"
     showgrid="false"
     inkscape:zoom="0.59"
     inkscape:cx="750.67595"
     inkscape:cy="200"
     inkscape:window-x="0"
     inkscape:window-y="27"
     inkscape:window-maximized="1"
     inkscape:current-layer="svg2" /><g
     id="Captions" /><g
     id="Your_Icon"
     transform="matrix(0.8603037,0,0,0.8603037,5.6599473,5.6911104)"
     style="fill-opacity:1;fill:#0086d7"><g
       id="g6"
       style="fill-opacity:1;fill:#0086d7"><path
         d="m 9.08,68.054 c 0,3.644 0,3.644 0,3.644 l 0,0 c 0.229,2.959 3.416,5.008 7.058,5.008 3.87,0 6.83,-2.049 7.058,-4.781 0.229,2.732 3.416,4.781 7.058,4.781 3.871,0 6.83,-2.049 7.059,-4.781 0.227,2.732 3.414,4.781 7.058,4.781 3.87,0 7.058,-2.049 7.058,-5.008 0.227,0 0.227,0 0.227,0 0,2.959 3.188,5.008 7.059,5.008 3.643,0 6.83,-2.049 7.058,-5.008 l 0,0 c 0.228,2.959 3.188,5.008 7.058,5.008 3.642,0 6.829,-2.049 7.058,-5.008 l 0,0 c 0.229,2.959 3.416,5.008 7.058,5.008 3.87,0 6.83,-2.049 7.058,-5.008 l 0,0 c 0,-3.644 0,-3.644 0,-3.644 H 9.08 z"
         id="path8"
         inkscape:connector-curvature="0"
         style="fill:#0086d7;fill-opacity:1" /><path
         d="m 94,77.388 0,0 c -0.228,2.733 -3.188,5.01 -7.058,5.01 -3.642,0 -6.829,-2.276 -7.058,-5.01 l 0,0 c -0.229,2.733 -3.416,5.01 -7.058,5.01 -3.87,0 -6.83,-2.276 -7.058,-5.01 l 0,0 c -0.228,2.733 -3.415,5.01 -7.058,5.01 -3.871,0 -7.059,-2.276 -7.059,-5.01 -0.227,0 -0.227,0 -0.227,0 0,2.733 -3.188,5.01 -7.058,5.01 -3.644,0 -6.831,-2.276 -7.058,-5.01 -0.229,2.733 -3.188,5.01 -7.059,5.01 -3.642,0 -6.829,-2.276 -7.058,-5.01 -0.228,2.733 -3.188,5.01 -7.058,5.01 -3.642,0 -6.829,-2.276 -7.058,-5.01 l 0,0 c 0,6.604 0,6.604 0,6.604 l 0,0 C 9.309,86.724 12.496,89 16.138,89 c 3.87,0 6.83,-2.276 7.058,-5.009 0.228,2.733 3.415,5.009 7.057,5.009 3.871,0 6.83,-2.276 7.059,-5.009 0.226,2.733 3.414,5.009 7.057,5.009 3.87,0 7.058,-2.276 7.058,-5.009 0.227,0 0.227,0 0.227,0 0,2.732 3.188,5.009 7.059,5.009 3.643,0 6.83,-2.276 7.058,-5.009 l 0,0 c 0.226,2.733 3.186,5.009 7.056,5.009 3.642,0 6.829,-2.276 7.058,-5.009 l 0,0 c 0.228,2.733 3.416,5.009 7.057,5.009 3.87,0 6.83,-2.276 7.058,-5.009 l 0,0 v -6.603 z"
         id="path10"
         inkscape:connector-curvature="0"
         style="fill:#0086d7;fill-opacity:1" /><polygon
         points="14.544,61.224 26.611,60.086 26.611,60.086 23.65,64.64 13.861,64.64 "
         id="polygon12"
         style="fill:#0086d7;fill-opacity:1" /><path
         d="m 80.113,58.72 c 0,0 -5.919,-2.96 -7.969,-2.96 -1.595,0 -15.026,1.821 -18.897,2.504 C 48.466,52.118 41.864,43.694 41.182,43.466 40.042,43.239 25.927,63.274 24.789,64.64 c 4.554,0 4.554,0 4.554,0 10.699,-13.888 10.699,-13.888 10.699,-13.888 5.921,8.423 5.921,8.423 5.921,8.423 -4.099,0.229 -12.067,0.911 -12.067,0.911 -3.643,4.554 -3.643,4.554 -3.643,4.554 19.58,0 19.58,0 19.58,0 2.96,0 2.96,0 2.96,0 3.415,0 3.415,0 3.415,0 1.821,0 1.821,0 1.821,0 20.035,0 20.035,0 20.035,0 0,0 1.592,-0.229 2.049,-0.456 0.228,-0.455 0.454,-1.138 0.454,-1.138 L 80.113,58.72 z"
         id="path14"
         inkscape:connector-curvature="0"
         style="fill:#0086d7;fill-opacity:1" /><path
         d="m 90.585,60.312 c 0,2.277 -1.821,4.099 -3.87,4.099 -2.277,0 -4.098,-1.821 -4.098,-4.099 0,-2.275 1.82,-4.097 4.098,-4.097 2.049,10e-4 3.87,1.822 3.87,4.097 l 0,0 z"
         id="path16"
         inkscape:connector-curvature="0"
         style="fill:#0086d7;fill-opacity:1" /><path
         d="m 45.052,20.472 c 5.692,-7.969 18.44,-8.652 28.686,-1.594 10.246,7.286 14.116,19.58 8.652,27.548"
         id="path18"
         inkscape:connector-curvature="0"
         style="fill:#0086d7;fill-opacity:1" /><polygon
         points="68.273,28.667 52.793,50.751 52.793,50.751 50.744,48.247 65.77,27.074 "
         id="polygon20"
         style="fill:#0086d7;fill-opacity:1" /></g></g></svg>