<?xml version="1.0" encoding="UTF-8" standalone="no"?>
<svg
   xmlns:dc="http://purl.org/dc/elements/1.1/"
   xmlns:cc="http://creativecommons.org/ns#"
   xmlns:rdf="http://www.w3.org/1999/02/22-rdf-syntax-ns#"
   xmlns:svg="http://www.w3.org/2000/svg"
   xmlns="http://www.w3.org/2000/svg"
   xmlns:sodipodi="http://sodipodi.sourceforge.net/DTD/sodipodi-0.dtd"
   xmlns:inkscape="http://www.inkscape.org/namespaces/inkscape"
   version="1.1"
   id="Capa_1"
   x="0px"
   y="0px"
   width="100px"
   height="100px"
   viewBox="0 0 100 100"
   enable-background="new 0 0 100 100"
   xml:space="preserve"
   inkscape:version="0.48.5 r10040"
   sodipodi:docname="relax.svg"
   inkscape:export-filename="/home/maartend/htdocs/spacebillboard/docroot/sites/all/themes/sbbtheme/resources/img/contest/relax.png"
   inkscape:export-xdpi="162"
   inkscape:export-ydpi="162"><metadata
     id="metadata23"><rdf:RDF><cc:Work
         rdf:about=""><dc:format>image/svg+xml</dc:format><dc:type
           rdf:resource="http://purl.org/dc/dcmitype/StillImage" /><dc:title /></cc:Work></rdf:RDF></metadata><defs
     id="defs21" /><sodipodi:namedview
     pagecolor="#ffffff"
     bordercolor="#666666"
     borderopacity="1"
     objecttolerance="10"
     gridtolerance="10"
     guidetolerance="10"
     inkscape:pageopacity="0"
     inkscape:pageshadow="2"
     inkscape:window-width="1600"
     inkscape:window-height="834"
     id="namedview19"
     showgrid="false"
     inkscape:zoom="2.36"
     inkscape:cx="-25.635593"
     inkscape:cy="50"
     inkscape:window-x="0"
     inkscape:window-y="27"
     inkscape:window-maximized="1"
     inkscape:current-layer="Capa_1"
     showguides="true"
     inkscape:guide-bbox="true" /><path
     d="m 21.251429,70.750349 c 0.4721,-0.0083 19.411126,-0.352823 19.411126,-0.352823 l 15.698556,0.118442 c 0.812411,0.0058 1.838352,0.04504 2.857619,0.0017 0.05839,-0.0075 5.460839,0.06589 7.15239,-0.230211 1.689882,-0.295271 7.72458,-11.312036 7.72458,-11.312036 l 7.714571,10.698974 c 1.647344,2.242889 3.728418,3.492368 5.624322,2.100258 1.905914,-1.398782 1.367921,-3.780131 -0.278588,-6.023021 0,0 -9.260989,-14.167152 -9.437818,-14.354824 -1.524731,-2.96772 -4.370673,-2.554008 -5.432479,-1.714905 0,0 -9.394445,12.198681 -9.286012,11.29869 l 2.292935,-12.830094 c 0.02335,-0.01668 2.016849,0.183502 2.051047,0.157645 l 14.849444,1.322879 c 2.716657,-0.178497 2.421386,-3.172074 1.865043,-4.321461 -0.555509,-1.149387 -1.664025,-1.231129 -3.560764,-1.601468 L 64.048157,41.651176 c -3.954458,0 -4.890316,3.349738 -4.889482,3.440654 0,0 -5.286512,15.079656 -5.265659,15.45917 l -14.172992,0.107599 c 0,0 -6.724497,0.22604 -7.670364,2.297105 -0.375344,0.738177 -0.854116,1.399617 -0.961715,2.474769 0,0 -0.224372,0.381183 -0.748185,0.421219 -2.718325,-0.136792 -5.989657,0.146801 -8.864793,-0.05755 0,0 -2.175327,-0.661439 -7.400116,-2.81925 -1.873384,-0.06423 -3.390608,3.618316 -0.54967,5.003753 0,-8.34e-4 5.830344,2.38969 7.726248,2.771707 z"
     id="path3"
     style="fill:#0086d7;fill-opacity:1"
     inkscape:connector-curvature="0" /><path
     d="m 30.337257,65.531399 c 0.01084,-8.34e-4 0.01668,-0.0058 0.02669,-0.0067 1.368754,-2.590708 0.960046,-5.867045 -1.22529,-8.051547 -2.678289,-2.679122 -7.018934,-2.684127 -9.703061,-8.34e-4 -1.800817,1.800817 -2.388856,4.333138 -1.788306,6.616898 2.65827,1.028443 3.824339,1.384603 3.824339,1.384603 2.87597,0.20352 6.147301,-0.08007 8.865626,0.05755 z"
     id="path5"
     style="fill:#0086d7;fill-opacity:1"
     inkscape:connector-curvature="0" /><path
     d="m 14.356776,62.788885 c 0.38869,0.150972 2.859288,1.107682 2.859288,1.107682 0,0 -0.311953,-1.515556 0,-2.731671 0.160981,-0.03837 -2.164484,-0.791559 -2.859288,1.623989 z"
     id="path7"
     style="fill:#0086d7;fill-opacity:1"
     inkscape:connector-curvature="0" /><path
     d="m 31.528349,47.502373 h 5.05797 l -0.25023,1.094336 -4.632579,4.942864 h 3.63333 l -0.245225,1.065143 h -5.193093 l 0.255234,-1.239469 4.463258,-4.817749 h -3.303862 l 0.215197,-1.045125 z"
     id="path9"
     style="fill:#0086d7;fill-opacity:1"
     inkscape:connector-curvature="0" /><path
     d="m 39.883508,42.964047 h 4.31312 l -0.212695,0.933355 -3.950288,4.214697 h 3.098674 l -0.209359,0.907498 h -4.428225 l 0.217699,-1.056802 3.804321,-4.108766 H 39.70084 l 0.182668,-0.889982 z"
     id="path11"
     style="fill:#0086d7;fill-opacity:1"
     inkscape:connector-curvature="0" /><path
     d="m 37.175192,35.868376 h 3.891066 l -0.191842,0.840771 -3.5641,3.803486 h 2.795896 l -0.188506,0.81825 h -3.995329 l 0.196013,-0.953374 3.433147,-3.705897 H 37.01004 l 0.165152,-0.803236 z"
     id="path13"
     style="fill:#0086d7;fill-opacity:1"
     inkscape:connector-curvature="0" /><path
     d="m 43.149001,30.809572 h 3.090332 l -0.15264,0.668947 -2.830928,3.020268 h 2.220369 l -0.150138,0.650597 h -3.172908 l 0.155976,-0.758195 2.726666,-2.943532 h -2.018517 l 0.131788,-0.638085 z"
     id="path15"
     style="fill:#0086d7;fill-opacity:1"
     inkscape:connector-curvature="0" /><path
     d="m 48.795009,28.229708 h 2.507299 l -0.123447,0.542163 -2.297106,2.45058 h 1.800818 l -0.121779,0.527984 h -2.574026 l 0.126783,-0.61473 2.212028,-2.388023 h -1.638168 l 0.107598,-0.517974 z"
     id="path17"
     style="fill:#0086d7;fill-opacity:1"
     inkscape:connector-curvature="0" /></svg>