<?xml version="1.0"?><svg width="650" height="500" xmlns="http://www.w3.org/2000/svg" version="1.1">
 <title>Blue Arrow</title>

 <metadata id="metadata7">image/svg+xml</metadata>
 <g>
  <title>Layer 1</title>
  <g transform="rotate(179.118 319.106 271.869)" id="svg_10">
   <g transform="matrix(0.989009 -0.112476 -0.147852 -0.752371 53.4451 98.8777)" id="svg_6">
    <path d="m404.872803,-290.134827c0.941895,0.184631 1.454742,2.764557 1.257996,7.115356c-0.197754,4.349884 -1.145142,10.472168 -3.272583,17.442169c-1.746765,5.717438 -4.299591,11.984848 -7.705566,18.193832c-2.928589,5.34024 -6.20166,10.12265 -9.485413,14.177277c-3.28479,4.054626 -6.576355,7.384521 -9.524292,9.934692c-2.948853,2.550232 -5.550232,4.326965 -7.501038,5.333435c-1.950867,1.007385 -3.247253,1.25293 -3.6828,0.70636c-0.435486,-0.545715 0.024719,-1.830261 1.145813,-3.714355c1.120117,-1.885254 2.897278,-4.37738 5.058228,-7.416077c2.16095,-3.038635 4.704773,-6.627136 7.372742,-10.697571c2.667969,-4.069336 5.457153,-8.621887 8.15448,-13.539429c3.137024,-5.718735 5.801697,-11.302383 8.010345,-16.359055c2.696869,-6.172333 4.737091,-11.553833 6.361603,-15.351563c1.624512,-3.797546 2.86853,-6.009735 3.810486,-5.825073z" transform="rotate(90.1129 385.485 -253.546)" fill="#007fff" id="path3009"/>
    <path d="m366.076202,-249.82283c0.92514,-0.149231 2.108307,1.975952 3.639191,5.61084c1.530945,3.633728 3.44397,8.77832 5.987427,14.687378c2.083069,4.840942 4.604248,10.192505 7.585785,15.684387c2.563629,4.721558 5.222931,9.101196 7.771149,13.021851c2.548187,3.920654 4.981323,7.382141 7.050293,10.313538c2.067932,2.931519 3.768738,5.335754 4.835815,7.148499c1.067993,1.811768 1.498413,3.037781 1.063477,3.543152c-0.435852,0.505096 -1.700317,0.238281 -3.594421,-0.766785c-1.894012,-1.004974 -4.413025,-2.753845 -7.260071,-5.244446c-2.846985,-2.490662 -6.016296,-5.727722 -9.168488,-9.650024c-3.152344,-3.923096 -6.280762,-8.532349 -9.06424,-13.660583c-3.237122,-5.962769 -5.638184,-11.957886 -7.258606,-17.411255c-1.973511,-6.648041 -2.805054,-12.462952 -2.930481,-16.582458c-0.12439,-4.118835 0.418152,-6.544861 1.34317,-6.694092z" transform="rotate(90.1129 384.446 -214.697)" fill="#007fff" id="path3009-4"/>
    <path d="m322.322937,-226.388626c-0.457703,-1.092316 0.801514,-3.187927 3.568726,-5.617859c2.766479,-2.427673 7.066162,-5.148926 12.596008,-7.155029c4.536682,-1.643555 9.896729,-2.781677 15.737793,-2.996521c5.022827,-0.185608 9.915039,0.325928 14.370605,1.288452c4.456207,0.963501 8.476257,2.373413 11.812805,3.897095c3.337646,1.525391 5.993835,3.156982 7.787231,4.577881c1.7948,1.419556 2.728821,2.620911 2.660278,3.404907c-0.068542,0.783997 -1.128479,1.082977 -2.954712,1.056702c-1.825256,-0.024536 -4.417847,-0.365051 -7.575439,-0.77356c-3.157349,-0.409973 -6.881866,-0.88446 -10.974121,-1.197388c-4.091736,-0.311951 -8.551086,-0.458313 -13.176788,-0.287964c-5.380035,0.196777 -10.391083,0.80426 -14.805939,1.567993c-5.389404,0.930603 -9.899597,2.065491 -13.19397,2.673828c-3.295044,0.609009 -5.393982,0.653198 -5.852478,-0.438538z" transform="rotate(90.1129 356.545 -233.859)" fill="#007fff" id="svg_3"/>
   </g>
   <path d="m417.99472,246.709045c19.570862,-6.179199 52.007416,-14.438354 -86.973419,2.234009c-138.980865,16.672424 -145.254745,13.133759 -181.287918,26.881897c-36.033203,13.74823 -21.636459,32.175049 -10.858673,42.376892c10.777786,10.201721 27.681625,35.37793 36.928375,25.072876c9.246735,-10.304993 -74.2314,-41.748108 -13.578674,-61.131836c60.652725,-19.383728 91.943069,-16.16394 127.715042,-19.995422c35.771942,-3.831482 108.484375,-9.259094 128.055267,-15.438416z" stroke-width="null" stroke-linejoin="null" stroke-linecap="null" stroke-dasharray="null" fill="#007fff" id="svg_8"/>
  </g>
 </g>
</svg>