<?xml version="1.0" encoding="UTF-8" standalone="no"?>
<svg
   xmlns:dc="http://purl.org/dc/elements/1.1/"
   xmlns:cc="http://creativecommons.org/ns#"
   xmlns:rdf="http://www.w3.org/1999/02/22-rdf-syntax-ns#"
   xmlns:svg="http://www.w3.org/2000/svg"
   xmlns="http://www.w3.org/2000/svg"
   xmlns:sodipodi="http://sodipodi.sourceforge.net/DTD/sodipodi-0.dtd"
   xmlns:inkscape="http://www.inkscape.org/namespaces/inkscape"
   version="1.1"
   id="Vrstva_1"
   x="0px"
   y="0px"
   width="100px"
   height="100px"
   viewBox="0 0 100 100"
   enable-background="new 0 0 100 100"
   xml:space="preserve"
   inkscape:version="0.48.5 r10040"
   sodipodi:docname="coin.svg"
   inkscape:export-filename="/home/maartend/htdocs/spacebillboard/docroot/sites/all/themes/sbbtheme/resources/img/personal-messages/coin.png"
   inkscape:export-xdpi="81"
   inkscape:export-ydpi="81"><metadata
     id="metadata9"><rdf:RDF><cc:Work
         rdf:about=""><dc:format>image/svg+xml</dc:format><dc:type
           rdf:resource="http://purl.org/dc/dcmitype/StillImage" /><dc:title></dc:title></cc:Work></rdf:RDF></metadata><defs
     id="defs7" /><sodipodi:namedview
     pagecolor="#ffffff"
     bordercolor="#666666"
     borderopacity="1"
     objecttolerance="10"
     gridtolerance="10"
     guidetolerance="10"
     inkscape:pageopacity="0"
     inkscape:pageshadow="2"
     inkscape:window-width="1600"
     inkscape:window-height="834"
     id="namedview5"
     showgrid="false"
     inkscape:zoom="2.36"
     inkscape:cx="-25.635593"
     inkscape:cy="50"
     inkscape:window-x="0"
     inkscape:window-y="27"
     inkscape:window-maximized="1"
     inkscape:current-layer="Vrstva_1" /><path
     d="M50.123,89.809c-16.455,0-33.156-9.578-37.822-20.63c6.14,9.578,22.35,17.929,37.822,17.929s30.945-8.104,36.103-17.684  C82.296,80.477,67.069,89.809,50.123,89.809z M4.441,46.829c0,6.14,0.491,10.561,0.982,14.245  c2.21,15.718,16.946,33.401,44.699,33.401c27.016,0,41.26-17.929,44.207-33.156c0.737-3.93,0.982-8.104,1.229-14.49  C94.821,24.726,75.174,8.025,49.877,8.025C24.826,8.025,5.178,24.726,4.441,46.829z M40.054,17.357  c18.91-1.474,42.488,14.981,45.436,36.349C87.699,31.111,65.104,11.955,40.054,17.357z M50.123,12.446  c22.35,0,39.541,14.981,40.032,34.875c0.491,17.438-15.719,34.875-40.032,34.875c-24.806,0-41.261-17.438-40.77-34.875  C9.845,27.427,27.282,12.446,50.123,12.446z"
     id="path3"
     style="fill:#0086d7;fill-opacity:1" /><text
     xml:space="preserve"
     style="font-size:17.46909331999999893px;font-style:normal;font-variant:normal;font-weight:normal;font-stretch:normal;text-align:center;line-height:129.99999522999999613%;letter-spacing:0px;word-spacing:0px;writing-mode:lr-tb;text-anchor:middle;fill:#0086d7;fill-opacity:1;stroke:none;font-family:Square;-inkscape-font-specification:Square"
     x="-13.828418"
     y="84.716927"
     id="text2986"
     sodipodi:linespacing="130%"
     transform="matrix(0.75450857,-0.65694054,0.86108362,0.57563198,0,0)"><tspan
       sodipodi:role="line"
       id="tspan2988"
       x="-13.828418"
       y="84.716927"
       style="font-size:48.91345977999999661px;font-style:normal;font-variant:normal;font-weight:bold;font-stretch:normal;font-family:PT Sans;-inkscape-font-specification:PT Sans Bold;fill:#0086d7;fill-opacity:1">1</tspan></text>
</svg>