<?xml version="1.0" encoding="UTF-8" standalone="no"?>
<svg
   xmlns:dc="http://purl.org/dc/elements/1.1/"
   xmlns:cc="http://creativecommons.org/ns#"
   xmlns:rdf="http://www.w3.org/1999/02/22-rdf-syntax-ns#"
   xmlns:svg="http://www.w3.org/2000/svg"
   xmlns="http://www.w3.org/2000/svg"
   xmlns:sodipodi="http://sodipodi.sourceforge.net/DTD/sodipodi-0.dtd"
   xmlns:inkscape="http://www.inkscape.org/namespaces/inkscape"
   version="1.1"
   x="0px"
   y="0px"
   width="100px"
   height="100px"
   viewBox="0 0 100 100"
   enable-background="new 0 0 100 100"
   xml:space="preserve"
   id="svg2"
   inkscape:version="0.48.5 r10040"
   sodipodi:docname="gift.svg"
   inkscape:export-filename="/home/maartend/htdocs/spacebillboard/docroot/sites/all/themes/sbbtheme/resources/img/personal-messages/gift.png"
   inkscape:export-xdpi="90"
   inkscape:export-ydpi="90"><metadata
     id="metadata16"><rdf:RDF><cc:Work
         rdf:about=""><dc:format>image/svg+xml</dc:format><dc:type
           rdf:resource="http://purl.org/dc/dcmitype/StillImage" /><dc:title></dc:title></cc:Work></rdf:RDF></metadata><defs
     id="defs14" /><sodipodi:namedview
     pagecolor="#ffffff"
     bordercolor="#666666"
     borderopacity="1"
     objecttolerance="10"
     gridtolerance="10"
     guidetolerance="10"
     inkscape:pageopacity="0"
     inkscape:pageshadow="2"
     inkscape:window-width="1600"
     inkscape:window-height="834"
     id="namedview12"
     showgrid="false"
     inkscape:zoom="2.36"
     inkscape:cx="-25.211864"
     inkscape:cy="50"
     inkscape:window-x="0"
     inkscape:window-y="27"
     inkscape:window-maximized="1"
     inkscape:current-layer="svg2" /><g
     id="Captions" /><g
     id="Your_Icon"
     style="fill:#0086d7;fill-opacity:1"><rect
       x="12.515"
       y="55"
       width="26.736"
       height="43.845"
       id="rect6"
       style="fill:#0086d7;fill-opacity:1" /><rect
       x="60.746"
       y="55"
       width="26.737"
       height="43.845"
       id="rect8"
       style="fill:#0086d7;fill-opacity:1" /><path
       d="M76.59,29.331c3.945-0.625,7.939-2.682,11.698-4.331c0.023-0.011,0.048-0.024,0.07-0.034   C88.201,23.055,87.438,20.515,86,19c-1.987-2.092-4.717-3.13-4-6c1-4,1-7-1.006-11.845c-3.692,1.067-9.706,2.608-14.719,6.212   c-5.603,4.033-9.481,8.07-12.125,11.68v-2.153c0-2.06,2.533-3.728,2.533-3.728h-7.685c-1.741,0-3.149,1.668-3.149,3.728v2.084   c-2.645-3.592-6.505-7.604-12.074-11.611c-5.011-3.604-11.023-5.145-14.717-6.212C17.281,4.618,16,6,18,14   c0.785,3.138-6,1-6.304,10.966c0.022,0.01,0.043,0.022,0.069,0.034c3.76,1.649,7.754,3.705,11.7,4.331H7.109v21.383h32.142V29.73   c1.636-0.207,2.45-0.466,3.749-0.748v69.862h14V28.802c1.299,0.286,2.109,0.545,3.746,0.756v21.156h32.145V29.331H76.59z"
       id="path10"
       style="fill:#0086d7;fill-opacity:1" /></g></svg>